# https://github.com/mikedh/trimesh
v -0.01671340 -0.01124875 0.05000000
v -0.01295860 -0.01541895 0.05000000
v -0.01068317 -0.01707205 0.05000000
v -0.01498180 -0.01346515 0.05000000
v -0.01811969 -0.00881305 0.05000000
v -0.01917330 -0.00620525 0.05000000
v -0.01985372 -0.00347615 0.05000000
v -0.02014772 -0.00067905 0.05000000
v -0.00819981 -0.01839255 0.05000000
v -0.00555685 -0.01935445 0.05000000
v -0.00280573 -0.01993925 0.05000000
v -0.01671340 -0.01124875 0.07500000
v -0.01295860 -0.01541895 0.07500000
v -0.01068317 -0.01707205 0.07500000
v -0.01498180 -0.01346515 0.07500000
v -0.01811969 -0.00881305 0.07500000
v -0.01917330 -0.00620525 0.07500000
v -0.01985372 -0.00347615 0.07500000
v -0.02014772 -0.00067905 0.07500000
v -0.00819981 -0.01839255 0.07500000
v -0.00555685 -0.01935445 0.07500000
v -0.00280573 -0.01993925 0.07500000
v -0.02004956 0.00213185 0.05000000
v -0.01956116 0.00490165 0.05000000
v -0.01869203 0.00757665 0.05000000
v -0.01745907 0.01010455 0.05000000
v -0.01588630 0.01243625 0.05000000
v -0.01400431 0.01452645 0.05000000
v -0.01184975 0.01633435 0.05000000
v -0.00946455 0.01782475 0.05000000
v -0.00689513 0.01896875 0.05000000
v -0.00419150 0.01974405 0.05000000
v -0.00140629 0.02013545 0.05000000
v -0.02004956 0.00213185 0.07500000
v -0.01956116 0.00490165 0.07500000
v -0.01869203 0.00757665 0.07500000
v -0.01745907 0.01010455 0.07500000
v -0.01588630 0.01243625 0.07500000
v -0.01400431 0.01452645 0.07500000
v -0.01184975 0.01633435 0.07500000
v -0.00946455 0.01782475 0.07500000
v -0.00689513 0.01896875 0.07500000
v -0.00419150 0.01974405 0.07500000
v -0.00140629 0.02013545 0.07500000
v -0.00000000 -0.02013545 0.05000000
v 0.00280573 -0.01993925 0.05000000
v 0.00555685 -0.01935445 0.05000000
v 0.00819981 -0.01839255 0.05000000
v 0.01068317 -0.01707205 0.05000000
v 0.01295860 -0.01541895 0.05000000
v 0.01498180 -0.01346515 0.05000000
v 0.01671340 -0.01124875 0.05000000
v 0.01811969 -0.00881305 0.05000000
v 0.01917330 -0.00620525 0.05000000
v 0.01985372 -0.00347615 0.05000000
v 0.02014772 -0.00067905 0.05000000
v -0.00000000 -0.02013545 0.07500000
v 0.00280573 -0.01993925 0.07500000
v 0.00555685 -0.01935445 0.07500000
v 0.00819981 -0.01839255 0.07500000
v 0.01068317 -0.01707205 0.07500000
v 0.01295860 -0.01541895 0.07500000
v 0.01498180 -0.01346515 0.07500000
v 0.01671340 -0.01124875 0.07500000
v 0.01811969 -0.00881305 0.07500000
v 0.01917330 -0.00620525 0.07500000
v 0.01985372 -0.00347615 0.07500000
v 0.02014772 -0.00067905 0.07500000
v 0.00140629 0.02013545 0.05000000
v 0.00419150 0.01974405 0.05000000
v 0.00689513 0.01896875 0.05000000
v 0.00946455 0.01782475 0.05000000
v 0.02004956 0.00213185 0.05000000
v 0.01956116 0.00490165 0.05000000
v 0.01869203 0.00757665 0.05000000
v 0.01400431 0.01452645 0.05000000
v 0.01184975 0.01633435 0.05000000
v 0.01588630 0.01243625 0.05000000
v 0.01745907 0.01010455 0.05000000
v 0.00140629 0.02013545 0.07500000
v 0.00419150 0.01974405 0.07500000
v 0.00689513 0.01896875 0.07500000
v 0.00946455 0.01782475 0.07500000
v 0.02004956 0.00213185 0.07500000
v 0.01956116 0.00490165 0.07500000
v 0.01869203 0.00757665 0.07500000
v 0.01400431 0.01452645 0.07500000
v 0.01184975 0.01633435 0.07500000
v 0.01588630 0.01243625 0.07500000
v 0.01745907 0.01010455 0.07500000
f 12 1 4
f 13 2 3
f 15 4 2
f 16 5 1
f 17 6 5
f 18 7 6
f 19 8 7
f 14 3 9
f 20 9 10
f 21 10 11
f 22 11 45
f 12 4 15
f 12 16 1
f 13 3 14
f 13 15 2
f 12 15 16
f 13 14 15
f 14 20 15
f 16 17 5
f 17 18 6
f 18 19 7
f 15 17 16
f 17 34 18
f 18 34 19
f 14 9 20
f 20 10 21
f 21 11 22
f 22 45 57
f 15 20 58
f 20 21 58
f 21 22 57
f 21 57 58
f 15 89 17
f 34 23 8
f 35 24 23
f 36 25 24
f 37 26 25
f 38 27 26
f 39 28 27
f 40 29 28
f 41 30 29
f 42 31 30
f 43 32 31
f 44 33 32
f 19 34 8
f 34 35 23
f 35 36 24
f 36 37 25
f 17 36 34
f 34 36 35
f 37 38 26
f 38 39 27
f 39 40 28
f 40 41 29
f 37 39 38
f 17 87 36
f 41 42 30
f 42 43 31
f 43 44 32
f 44 80 33
f 36 88 37
f 37 82 39
f 39 81 40
f 40 81 41
f 41 81 42
f 42 81 43
f 43 80 44
f 39 82 81
f 57 45 46
f 58 46 47
f 59 47 48
f 60 48 49
f 61 49 50
f 62 50 51
f 63 51 52
f 64 52 53
f 65 53 54
f 66 54 55
f 67 55 56
f 57 46 58
f 58 47 59
f 59 48 60
f 60 49 61
f 15 58 62
f 58 59 60
f 58 60 62
f 15 62 65
f 15 65 85
f 15 85 86
f 61 50 62
f 62 51 63
f 63 52 64
f 60 61 62
f 62 63 65
f 63 64 65
f 64 53 65
f 65 54 66
f 66 55 67
f 67 56 68
f 65 66 84
f 66 67 68
f 66 68 84
f 65 84 85
f 80 69 33
f 81 70 69
f 82 71 70
f 83 72 71
f 68 56 73
f 84 73 74
f 85 74 75
f 86 75 79
f 88 77 72
f 87 76 77
f 90 79 78
f 89 78 76
f 17 89 87
f 15 86 90
f 15 90 89
f 80 81 69
f 81 82 70
f 82 83 71
f 36 87 88
f 37 88 82
f 43 81 80
f 82 88 83
f 68 73 84
f 84 74 85
f 85 75 86
f 86 79 90
f 87 89 76
f 83 88 72
f 87 77 88
f 89 90 78
f 3 2 23
f 3 24 9
f 1 5 6
f 6 7 1
f 4 7 8
f 1 7 4
f 4 8 2
f 2 8 23
f 3 23 24
f 9 24 25
f 9 26 10
f 9 25 26
f 10 27 11
f 11 27 45
f 45 27 46
f 27 47 46
f 27 48 47
f 10 26 27
f 28 51 27
f 28 29 53
f 30 79 29
f 30 31 78
f 27 49 48
f 27 50 49
f 27 51 50
f 28 52 51
f 28 53 52
f 29 54 53
f 29 55 54
f 29 56 55
f 29 73 56
f 29 75 74
f 29 74 73
f 31 32 78
f 32 33 77
f 33 69 72
f 69 70 71
f 29 79 75
f 30 78 79
f 32 77 76
f 71 72 69
f 33 72 77
f 32 76 78