# https://github.com/mikedh/trimesh
v -0.01671340 -0.01124875 -0.07500000
v -0.01295860 -0.01541895 -0.07500000
v -0.01068317 -0.01707205 -0.07500000
v -0.01498180 -0.01346515 -0.07500000
v -0.01811969 -0.00881305 -0.07500000
v -0.01917330 -0.00620525 -0.07500000
v -0.01985372 -0.00347615 -0.07500000
v -0.02014772 -0.00067905 -0.07500000
v -0.00819981 -0.01839255 -0.07500000
v -0.00555685 -0.01935445 -0.07500000
v -0.00280573 -0.01993925 -0.07500000
v -0.01671340 -0.01124875 0.05000000
v -0.01295860 -0.01541895 0.05000000
v -0.01068317 -0.01707205 0.05000000
v -0.01498180 -0.01346515 0.05000000
v -0.01811969 -0.00881305 0.05000000
v -0.01917330 -0.00620525 0.05000000
v -0.01985372 -0.00347615 0.05000000
v -0.02014772 -0.00067905 0.05000000
v -0.00819981 -0.01839255 0.05000000
v -0.00555685 -0.01935445 0.05000000
v -0.00280573 -0.01993925 0.05000000
v -0.02004956 0.00213185 -0.07500000
v -0.01956116 0.00490165 -0.07500000
v -0.01869203 0.00757665 -0.07500000
v -0.01745907 0.01010455 -0.07500000
v -0.01588630 0.01243625 -0.07500000
v -0.01400431 0.01452645 -0.07500000
v -0.01184975 0.01633435 -0.07500000
v -0.00946455 0.01782475 -0.07500000
v -0.00689513 0.01896875 -0.07500000
v -0.00419150 0.01974405 -0.07500000
v -0.00140629 0.02013545 -0.07500000
v -0.02004956 0.00213185 0.05000000
v -0.01956116 0.00490165 0.05000000
v -0.01869203 0.00757665 0.05000000
v -0.01745907 0.01010455 0.05000000
v -0.01588630 0.01243625 0.05000000
v -0.01400431 0.01452645 0.05000000
v -0.01184975 0.01633435 0.05000000
v -0.00946455 0.01782475 0.05000000
v -0.00689513 0.01896875 0.05000000
v -0.00419150 0.01974405 0.05000000
v -0.00140629 0.02013545 0.05000000
v -0.00000000 -0.02013545 -0.07500000
v 0.00280573 -0.01993925 -0.07500000
v 0.00555685 -0.01935445 -0.07500000
v 0.00819981 -0.01839255 -0.07500000
v 0.01068317 -0.01707205 -0.07500000
v 0.01295860 -0.01541895 -0.07500000
v 0.01498180 -0.01346515 -0.07500000
v 0.01671340 -0.01124875 -0.07500000
v 0.01811969 -0.00881305 -0.07500000
v 0.01917330 -0.00620525 -0.07500000
v 0.01985372 -0.00347615 -0.07500000
v 0.02014772 -0.00067905 -0.07500000
v -0.00000000 -0.02013545 0.05000000
v 0.00280573 -0.01993925 0.05000000
v 0.00555685 -0.01935445 0.05000000
v 0.00819981 -0.01839255 0.05000000
v 0.01068317 -0.01707205 0.05000000
v 0.01295860 -0.01541895 0.05000000
v 0.01498180 -0.01346515 0.05000000
v 0.01671340 -0.01124875 0.05000000
v 0.01811969 -0.00881305 0.05000000
v 0.01917330 -0.00620525 0.05000000
v 0.01985372 -0.00347615 0.05000000
v 0.02014772 -0.00067905 0.05000000
v 0.00140629 0.02013545 -0.07500000
v 0.00419150 0.01974405 -0.07500000
v 0.00689513 0.01896875 -0.07500000
v 0.00946455 0.01782475 -0.07500000
v 0.02004956 0.00213185 -0.07500000
v 0.01956116 0.00490165 -0.07500000
v 0.01869203 0.00757665 -0.07500000
v 0.01400431 0.01452645 -0.07500000
v 0.01184975 0.01633435 -0.07500000
v 0.01588630 0.01243625 -0.07500000
v 0.01745907 0.01010455 -0.07500000
v 0.00140629 0.02013545 0.05000000
v 0.00419150 0.01974405 0.05000000
v 0.00689513 0.01896875 0.05000000
v 0.00946455 0.01782475 0.05000000
v 0.02004956 0.00213185 0.05000000
v 0.01956116 0.00490165 0.05000000
v 0.01869203 0.00757665 0.05000000
v 0.01400431 0.01452645 0.05000000
v 0.01184975 0.01633435 0.05000000
v 0.01588630 0.01243625 0.05000000
v 0.01745907 0.01010455 0.05000000
f 1 5 4
f 2 4 3
f 3 4 9
f 1 4 12
f 2 3 13
f 2 15 4
f 4 5 6
f 6 7 23
f 7 8 23
f 1 16 5
f 5 17 6
f 6 18 7
f 7 19 8
f 4 46 9
f 9 46 10
f 10 45 11
f 10 46 45
f 3 9 14
f 9 10 20
f 10 11 21
f 11 45 22
f 4 6 78
f 4 15 12
f 1 12 16
f 3 14 13
f 2 13 15
f 5 16 17
f 6 17 18
f 7 18 19
f 9 20 14
f 10 21 20
f 11 22 21
f 45 57 22
f 6 23 25
f 23 24 25
f 8 34 23
f 23 35 24
f 24 36 25
f 25 37 26
f 26 27 28
f 26 38 27
f 27 39 28
f 28 40 29
f 29 41 30
f 6 25 76
f 25 26 77
f 26 28 71
f 28 29 70
f 29 30 70
f 30 31 70
f 31 32 70
f 32 33 69
f 28 70 71
f 30 42 31
f 31 43 32
f 32 44 33
f 8 19 34
f 23 34 35
f 24 35 36
f 25 36 37
f 26 37 38
f 27 38 39
f 28 39 40
f 29 40 41
f 30 41 42
f 31 42 43
f 32 43 44
f 33 44 80
f 4 50 46
f 46 48 47
f 46 50 48
f 4 53 50
f 45 46 57
f 46 47 58
f 47 48 59
f 48 49 60
f 4 74 53
f 4 75 74
f 48 50 49
f 50 53 51
f 51 53 52
f 49 50 61
f 50 51 62
f 51 52 63
f 52 53 64
f 53 73 54
f 54 56 55
f 54 73 56
f 53 74 73
f 53 54 65
f 54 55 66
f 55 56 67
f 46 58 57
f 47 59 58
f 48 60 59
f 49 61 60
f 50 62 61
f 51 63 62
f 52 64 63
f 53 65 64
f 54 66 65
f 55 67 66
f 56 68 67
f 6 76 78
f 4 79 75
f 4 78 79
f 25 77 76
f 26 71 77
f 32 69 70
f 71 72 77
f 33 80 69
f 69 81 70
f 70 82 71
f 71 83 72
f 56 73 68
f 73 74 84
f 74 75 85
f 75 79 86
f 72 88 77
f 76 77 87
f 78 90 79
f 76 89 78
f 69 80 81
f 70 81 82
f 71 82 83
f 73 84 68
f 74 85 84
f 75 86 85
f 79 90 86
f 76 87 89
f 72 83 88
f 77 88 87
f 78 89 90
f 16 12 83
f 15 87 12
f 13 89 15
f 14 89 13
f 20 89 14
f 18 83 19
f 34 19 83
f 36 35 43
f 36 43 37
f 37 42 38
f 39 38 41
f 39 41 40
f 41 38 42
f 16 83 17
f 18 17 83
f 34 83 35
f 43 35 44
f 35 80 44
f 43 42 37
f 35 81 80
f 35 82 81
f 35 83 82
f 58 59 86
f 20 21 89
f 22 89 21
f 57 89 22
f 57 58 90
f 60 85 59
f 60 61 84
f 61 62 67
f 63 67 62
f 64 66 63
f 58 86 90
f 59 85 86
f 61 67 68
f 61 68 84
f 64 65 66
f 67 63 66
f 60 84 85
f 15 89 87
f 12 88 83
f 12 87 88
f 57 90 89