# https://github.com/mikedh/trimesh
v -0.00025568 -0.00572981 -0.01152702 0.94117647 0.52156863 0.41176471
v -0.00048938 -0.00572981 -0.01150844 0.94117647 0.52156863 0.41176471
v -0.00025568 -0.00000133 -0.01152702 0.94117647 0.52156863 0.41176471
v 0.05008512 -0.00572981 -0.01152702 0.94117647 0.52156863 0.41176471
v -0.00051593 -0.00572981 -0.01150506 0.94117647 0.52156863 0.41176471
v -0.00051593 0.00534334 -0.01150506 0.94117647 0.52156863 0.41176471
v -0.00048407 0.00534334 -0.01150844 0.94117647 0.52156863 0.41176471
v -0.00029286 0.00534334 -0.01152364 0.94117647 0.52156863 0.41176471
v -0.00025568 0.00534334 -0.01152533 0.94117647 0.52156863 0.41176471
v 0.05008512 -0.00000133 -0.01152702 0.94117647 0.52156863 0.41176471
v 0.05035600 -0.00572981 -0.01150337 0.94117647 0.52156863 0.41176471
v -0.00076025 -0.00572981 -0.01144593 0.94117647 0.52156863 0.41176471
v -0.00054780 0.00534334 -0.01149830 0.94117647 0.52156863 0.41176471
v -0.00198717 0.00550500 -0.00578338 0.94117647 0.52156863 0.41176471
v 0.05008512 0.00534334 -0.01152533 0.94117647 0.52156863 0.41176471
v 0.05015417 0.00534334 -0.01152026 0.94117647 0.52156863 0.41176471
v 0.05035600 0.00534334 -0.01150337 0.94117647 0.52156863 0.41176471
v 0.05041443 0.00534334 -0.01148985 0.94117647 0.52156863 0.41176471
v 0.05040911 -0.00572981 -0.01148985 0.94117647 0.52156863 0.41176471
v -0.00076025 0.00534334 -0.01144593 0.94117647 0.52156863 0.41176471
v -0.00099926 -0.00572981 -0.01134964 0.94117647 0.52156863 0.41176471
v -0.00079212 0.00534334 -0.01143580 0.94117647 0.52156863 0.41176471
v -0.00179596 0.00534334 -0.00990360 0.94117647 0.52156863 0.41176471
v -0.00224212 0.00550500 -0.00071039 0.94117647 0.52156863 0.41176471
v 0.04766847 0.00550500 -0.00578338 0.94117647 0.52156863 0.41176471
v -0.00099926 0.00534334 -0.01134964 0.94117647 0.52156863 0.41176471
v -0.00121172 0.00534334 -0.01121957 0.94117647 0.52156863 0.41176471
v -0.00140292 0.00534334 -0.01105739 0.94117647 0.52156863 0.41176471
v -0.00148260 0.00534334 -0.01096786 0.94117647 0.52156863 0.41176471
v -0.00155695 0.00534334 -0.01086988 0.94117647 0.52156863 0.41176471
v -0.00162069 0.00534334 -0.01076683 0.94117647 0.52156863 0.41176471
v -0.00166849 0.00534334 -0.01066041 0.94117647 0.52156863 0.41176471
v -0.00171098 0.00534334 -0.01055060 0.94117647 0.52156863 0.41176471
v -0.00174816 0.00534334 -0.01043742 0.94117647 0.52156863 0.41176471
v -0.00176941 0.00534334 -0.01032254 0.94117647 0.52156863 0.41176471
v -0.00178003 0.00534334 -0.01020429 0.94117647 0.52156863 0.41176471
v 0.05160948 0.00550500 -0.00577831 0.94117647 0.52156863 0.41176471
v 0.05166790 0.00550500 -0.00577155 0.94117647 0.52156863 0.41176471
v 0.05060032 0.00534334 -0.01144086 0.94117647 0.52156863 0.41176471
v 0.05060032 -0.00572981 -0.01144086 0.94117647 0.52156863 0.41176471
v -0.00120109 -0.00572981 -0.01122632 0.94117647 0.52156863 0.41176471
v -0.00179596 -0.00572981 -0.00990698 0.94117647 0.52156863 0.41176471
v -0.00255548 0.00512340 0.00573093 0.94117647 0.52156863 0.41176471
v 0.05166790 0.00550500 -0.00071039 0.94117647 0.52156863 0.41176471
v -0.00121172 -0.00572981 -0.01121957 0.94117647 0.52156863 0.41176471
v -0.00139230 -0.00572981 -0.01106415 0.94117647 0.52156863 0.41176471
v -0.00140292 -0.00572981 -0.01105401 0.94117647 0.52156863 0.41176471
v -0.00148260 -0.00572981 -0.01096786 0.94117647 0.52156863 0.41176471
v -0.00155695 -0.00572981 -0.01086988 0.94117647 0.52156863 0.41176471
v -0.00162069 -0.00572981 -0.01076514 0.94117647 0.52156863 0.41176471
v -0.00166849 -0.00572981 -0.01066041 0.94117647 0.52156863 0.41176471
v -0.00171098 -0.00572981 -0.01055060 0.94117647 0.52156863 0.41176471
v -0.00174816 -0.00572981 -0.01043742 0.94117647 0.52156863 0.41176471
v -0.00176941 -0.00572981 -0.01032254 0.94117647 0.52156863 0.41176471
v -0.00178003 -0.00572981 -0.01020429 0.94117647 0.52156863 0.41176471
v 0.05170508 0.00512340 -0.00071039 0.94117647 0.52156863 0.41176471
v 0.05166790 -0.00550547 -0.00577155 0.94117647 0.52156863 0.41176471
v 0.05160948 0.00534334 -0.01014517 0.94117647 0.52156863 0.41176471
v 0.05158292 0.00534334 -0.01038505 0.94117647 0.52156863 0.41176471
v 0.05156699 0.00534334 -0.01044248 0.94117647 0.52156863 0.41176471
v 0.05151387 0.00534334 -0.01061817 0.94117647 0.52156863 0.41176471
v 0.05148732 0.00534334 -0.01067223 0.94117647 0.52156863 0.41176471
v 0.05140233 0.00534334 -0.01083609 0.94117647 0.52156863 0.41176471
v 0.05125362 0.00534334 -0.01103205 0.94117647 0.52156863 0.41176471
v 0.05111552 0.00534334 -0.01116044 0.94117647 0.52156863 0.41176471
v 0.05106772 0.00534334 -0.01120267 0.94117647 0.52156863 0.41176471
v 0.05101461 0.00534334 -0.01123646 0.94117647 0.52156863 0.41176471
v 0.05090307 0.00534334 -0.01130572 0.94117647 0.52156863 0.41176471
v 0.05084465 0.00534334 -0.01134120 0.94117647 0.52156863 0.41176471
v 0.05066406 0.00534334 -0.01141721 0.94117647 0.52156863 0.41176471
v 0.05065875 -0.00572981 -0.01141890 0.94117647 0.52156863 0.41176471
v -0.00199248 -0.00572981 -0.00578338 0.94117647 0.52156863 0.41176471
v -0.00224212 -0.00550547 -0.00071039 0.94117647 0.52156863 0.41176471
v -0.00255548 -0.00520195 0.00573093 0.94117647 0.52156863 0.41176471
v 0.04914502 0.00512340 0.00573093 0.94117647 0.52156863 0.41176471
v 0.05161479 0.00512340 0.00572586 0.94117647 0.52156863 0.41176471
v 0.05166259 0.00512340 0.00572417 0.94117647 0.52156863 0.41176471
v 0.05170508 0.00512340 0.00572248 0.94117647 0.52156863 0.41176471
v 0.05170508 -0.00520195 -0.00071039 0.94117647 0.52156863 0.41176471
v 0.05166790 -0.00550547 -0.00071039 0.94117647 0.52156863 0.41176471
v 0.05160948 -0.00572981 -0.01014517 0.94117647 0.52156863 0.41176471
v 0.05158292 -0.00572981 -0.01038505 0.94117647 0.52156863 0.41176471
v 0.05155105 -0.00000133 -0.01050161 0.94117647 0.52156863 0.41176471
v 0.05151387 -0.00572981 -0.01061817 0.94117647 0.52156863 0.41176471
v 0.05140233 -0.00572981 -0.01083609 0.94117647 0.52156863 0.41176471
v 0.05125362 -0.00572981 -0.01103205 0.94117647 0.52156863 0.41176471
v 0.05116332 -0.00000133 -0.01111821 0.94117647 0.52156863 0.41176471
v 0.05106772 -0.00572981 -0.01120267 0.94117647 0.52156863 0.41176471
v 0.05089776 -0.00572981 -0.01130910 0.94117647 0.52156863 0.41176471
v 0.05084465 -0.00572981 -0.01134120 0.94117647 0.52156863 0.41176471
v 0.05079153 -0.00572981 -0.01136485 0.94117647 0.52156863 0.41176471
v 0.05160948 -0.00572981 -0.00578338 0.94117647 0.52156863 0.41176471
v 0.04910784 -0.00520195 0.00573093 0.94117647 0.52156863 0.41176471
v 0.05161479 -0.00000023 0.00573093 0.94117647 0.52156863 0.41176471
v 0.05170508 -0.00520195 0.00572248 0.94117647 0.52156863 0.41176471
v 0.05161479 -0.00520195 0.00572586 0.94117647 0.52156863 0.41176471
f 1 2 3
f 1 3 10
f 1 10 4
f 1 4 11
f 1 11 19
f 1 19 40
f 1 40 71
f 1 71 91
f 1 91 90
f 1 90 89
f 1 89 88
f 1 88 86
f 1 86 85
f 1 85 84
f 1 84 82
f 1 82 81
f 1 81 92
f 1 92 72
f 1 72 42
f 1 42 55
f 1 55 54
f 1 54 53
f 1 53 52
f 1 52 51
f 1 51 50
f 1 50 49
f 1 49 48
f 1 48 47
f 1 47 46
f 1 46 45
f 1 45 41
f 1 41 21
f 1 21 12
f 1 12 5
f 1 5 2
f 2 5 6
f 2 6 7
f 2 7 3
f 3 7 8
f 3 8 9
f 3 9 15
f 3 15 10
f 4 10 17
f 4 17 11
f 5 12 13
f 5 13 6
f 6 13 14
f 6 14 7
f 7 14 8
f 8 14 9
f 9 14 25
f 9 25 15
f 10 15 16
f 10 16 17
f 11 17 18
f 11 18 19
f 12 20 13
f 12 21 22
f 12 22 20
f 13 20 14
f 14 23 24
f 14 24 44
f 14 44 38
f 14 38 37
f 14 37 25
f 14 20 22
f 14 22 26
f 14 26 27
f 14 27 28
f 14 28 29
f 14 29 30
f 14 30 31
f 14 31 32
f 14 32 33
f 14 33 34
f 14 34 35
f 14 35 36
f 14 36 23
f 15 37 16
f 15 25 37
f 16 37 17
f 17 37 38
f 17 38 18
f 18 39 40
f 18 40 19
f 18 38 39
f 21 41 26
f 21 26 22
f 23 42 43
f 23 43 24
f 23 36 42
f 24 43 75
f 24 75 44
f 26 41 27
f 27 41 45
f 27 45 28
f 28 45 46
f 28 46 47
f 28 47 48
f 28 48 29
f 29 48 49
f 29 49 30
f 30 49 31
f 31 49 50
f 31 50 51
f 31 51 32
f 32 51 52
f 32 52 33
f 33 52 53
f 33 53 34
f 34 53 54
f 34 54 35
f 35 54 55
f 35 55 36
f 36 55 42
f 38 44 78
f 38 78 56
f 38 56 79
f 38 79 57
f 38 57 81
f 38 81 58
f 38 58 59
f 38 59 60
f 38 60 61
f 38 61 62
f 38 62 63
f 38 63 64
f 38 64 65
f 38 65 66
f 38 66 67
f 38 67 68
f 38 68 69
f 38 69 70
f 38 70 39
f 39 70 40
f 40 70 71
f 42 72 73
f 42 73 74
f 42 74 43
f 43 74 93
f 43 93 94
f 43 94 75
f 44 75 76
f 44 76 77
f 44 77 78
f 56 78 95
f 56 95 79
f 57 79 95
f 57 95 80
f 57 80 92
f 57 92 81
f 58 81 82
f 58 82 59
f 59 82 83
f 59 83 60
f 60 83 61
f 61 84 62
f 61 83 84
f 62 84 85
f 62 85 63
f 63 85 86
f 63 86 64
f 64 86 87
f 64 87 65
f 65 87 88
f 65 88 66
f 66 88 67
f 67 88 89
f 67 89 68
f 68 89 69
f 69 89 90
f 69 90 91
f 69 91 70
f 70 91 71
f 72 92 80
f 72 80 73
f 73 80 93
f 73 93 74
f 75 94 76
f 76 94 77
f 77 94 78
f 78 94 95
f 80 95 96
f 80 96 93
f 82 84 83
f 86 88 87
f 93 96 94
f 94 96 95