# https://github.com/mikedh/trimesh
v 0.05008763 0.01200166 0.01009810 0.26274510 0.77254902 0.45490196
v 0.03777193 0.01199999 0.01012792 0.26274510 0.77254902 0.45490196
v 0.05008763 0.01198001 0.01033778 0.26274510 0.77254902 0.45490196
v 0.05013557 0.01198001 0.01033440 0.26274510 0.77254902 0.45490196
v 0.05017819 0.01198001 0.01032315 0.26274510 0.77254902 0.45490196
v 0.05022080 0.01198001 0.01030571 0.26274510 0.77254902 0.45490196
v 0.05025809 0.01198001 0.01028208 0.26274510 0.77254902 0.45490196
v 0.05029005 0.01198001 0.01025226 0.26274510 0.77254902 0.45490196
v 0.05031669 0.01198001 0.01021794 0.26274510 0.77254902 0.45490196
v 0.05033799 0.01198001 0.01018024 0.26274510 0.77254902 0.45490196
v 0.05034865 0.01198001 0.01013973 0.26274510 0.77254902 0.45490196
v 0.05035397 0.01198001 0.01009810 0.26274510 0.77254902 0.45490196
v 0.05014623 0.01199833 0.00573149 0.26274510 0.77254902 0.45490196
v 0.05008763 0.01200166 0.00573149 0.26274510 0.77254902 0.45490196
v -0.00280276 0.01200166 0.01010710 0.26274510 0.77254902 0.45490196
v 0.02545091 0.01198667 0.01027814 0.26274510 0.77254902 0.45490196
v 0.03777193 0.01198334 0.01030796 0.26274510 0.77254902 0.45490196
v 0.01314053 0.01199999 0.01012792 0.26274510 0.77254902 0.45490196
v 0.01314053 0.01199500 0.01018812 0.26274510 0.77254902 0.45490196
v 0.02545091 0.01196503 0.01039573 0.26274510 0.77254902 0.45490196
v 0.03777193 0.01194006 0.01048294 0.26274510 0.77254902 0.45490196
v 0.05008763 0.01191509 0.01057015 0.26274510 0.77254902 0.45490196
v -0.00280276 0.01198168 0.01032934 0.26274510 0.77254902 0.45490196
v -0.00280276 0.01197835 0.01034622 0.26274510 0.77254902 0.45490196
v 0.05017819 0.01191509 0.01056283 0.26274510 0.77254902 0.45490196
v 0.05026874 0.01191509 0.01054201 0.26274510 0.77254902 0.45490196
v 0.05034865 0.01191509 0.01050713 0.26274510 0.77254902 0.45490196
v 0.05042322 0.01191509 0.01045987 0.26274510 0.77254902 0.45490196
v 0.05048715 0.01191509 0.01040192 0.26274510 0.77254902 0.45490196
v 0.05054041 0.01191509 0.01033440 0.26274510 0.77254902 0.45490196
v 0.05057770 0.01191509 0.01025957 0.26274510 0.77254902 0.45490196
v 0.05060434 0.01191509 0.01018024 0.26274510 0.77254902 0.45490196
v 0.05035397 0.01198001 0.00573149 0.26274510 0.77254902 0.45490196
v 0.05060966 0.01191509 0.01009810 0.26274510 0.77254902 0.45490196
v 0.05055640 0.01193007 0.00573149 0.26274510 0.77254902 0.45490196
v -0.00280276 0.01200166 0.00573149 0.26274510 0.77254902 0.45490196
v -0.00280276 0.01198334 0.01031133 0.26274510 0.77254902 0.45490196
v -0.00280276 0.01192341 0.01054483 0.26274510 0.77254902 0.45490196
v 0.02545091 0.01183684 0.01073387 0.26274510 0.77254902 0.45490196
v 0.05008763 0.01181020 0.01078845 0.26274510 0.77254902 0.45490196
v 0.05022080 0.01181020 0.01077776 0.26274510 0.77254902 0.45490196
v -0.00280276 0.01191842 0.01056171 0.26274510 0.77254902 0.45490196
v -0.00280276 0.01191509 0.01057015 0.26274510 0.77254902 0.45490196
v -0.00280276 0.01191176 0.01057802 0.26274510 0.77254902 0.45490196
v 0.05034865 0.01181020 0.01074681 0.26274510 0.77254902 0.45490196
v 0.05047116 0.01181020 0.01069561 0.26274510 0.77254902 0.45490196
v 0.05057770 0.01181020 0.01062697 0.26274510 0.77254902 0.45490196
v 0.05067358 0.01181020 0.01054201 0.26274510 0.77254902 0.45490196
v 0.05074816 0.01181020 0.01044299 0.26274510 0.77254902 0.45490196
v 0.05080676 0.01181020 0.01033440 0.26274510 0.77254902 0.45490196
v 0.05083872 0.01181020 0.01021794 0.26274510 0.77254902 0.45490196
v 0.05084937 0.01181020 0.01009810 0.26274510 0.77254902 0.45490196
v 0.05066293 0.01189344 0.00573149 0.26274510 0.77254902 0.45490196
v 0.05060966 0.01191509 0.00573149 0.26274510 0.77254902 0.45490196
v -0.00280276 0.00521427 0.00573149 0.26274510 0.77254902 0.45490196
v -0.00280276 0.01186681 0.01067142 0.26274510 0.77254902 0.45490196
v -0.00280276 0.01181020 0.01078845 0.26274510 0.77254902 0.45490196
v 0.03777193 0.01172030 0.01091166 0.26274510 0.77254902 0.45490196
v 0.05008763 0.01166537 0.01098537 0.26274510 0.77254902 0.45490196
v 0.05025809 0.01166537 0.01097187 0.26274510 0.77254902 0.45490196
v 0.05042322 0.01166537 0.01093192 0.26274510 0.77254902 0.45490196
v 0.05057770 0.01166537 0.01086665 0.26274510 0.77254902 0.45490196
v 0.05072153 0.01166537 0.01077776 0.26274510 0.77254902 0.45490196
v 0.05083872 0.01166537 0.01066861 0.26274510 0.77254902 0.45490196
v 0.05093993 0.01166537 0.01054201 0.26274510 0.77254902 0.45490196
v 0.05100918 0.01166537 0.01040192 0.26274510 0.77254902 0.45490196
v 0.05105712 0.01166537 0.01025226 0.26274510 0.77254902 0.45490196
v 0.05106777 0.01166537 0.01009810 0.26274510 0.77254902 0.45490196
v 0.05089732 0.01177857 0.00573149 0.26274510 0.77254902 0.45490196
v 0.05084937 0.01181020 0.00573149 0.26274510 0.77254902 0.45490196
v 0.05080143 0.01183185 0.00573149 0.26274510 0.77254902 0.45490196
v -0.00280276 0.00501949 0.00999626 0.26274510 0.77254902 0.45490196
v -0.00255239 -0.00500261 0.00573149 0.26274510 0.77254902 0.45490196
v -0.00276014 -0.00500261 0.01001033 0.26274510 0.77254902 0.45490196
v -0.00280276 0.01168201 0.01096399 0.26274510 0.77254902 0.45490196
v 0.01314053 0.01172030 0.01091166 0.26274510 0.77254902 0.45490196
v 0.03777193 0.01164372 0.01100675 0.26274510 0.77254902 0.45490196
v 0.03777193 0.01151054 0.01113447 0.26274510 0.77254902 0.45490196
v 0.05008763 0.01148723 0.01115585 0.26274510 0.77254902 0.45490196
v -0.00280276 0.01166537 0.01098537 0.26274510 0.77254902 0.45490196
v 0.05029005 0.01148723 0.01113953 0.26274510 0.77254902 0.45490196
v 0.05048715 0.01148723 0.01109171 0.26274510 0.77254902 0.45490196
v 0.05067358 0.01148723 0.01101406 0.26274510 0.77254902 0.45490196
v 0.05083872 0.01148723 0.01090829 0.26274510 0.77254902 0.45490196
v 0.05098254 0.01148723 0.01077776 0.26274510 0.77254902 0.45490196
v 0.05109973 0.01148723 0.01062697 0.26274510 0.77254902 0.45490196
v 0.05118497 0.01148723 0.01045987 0.26274510 0.77254902 0.45490196
v 0.05123823 0.01148723 0.01028208 0.26274510 0.77254902 0.45490196
v 0.05125954 0.01148723 0.01009810 0.26274510 0.77254902 0.45490196
v 0.05111039 0.01162708 0.00573149 0.26274510 0.77254902 0.45490196
v 0.05106777 0.01166537 0.00573149 0.26274510 0.77254902 0.45490196
v -0.00280276 0.00501782 0.01003789 0.26274510 0.77254902 0.45490196
v 0.05161644 -0.00500261 0.00573149 0.26274510 0.77254902 0.45490196
v -0.00276014 -0.00500261 0.01014930 0.26274510 0.77254902 0.45490196
v 0.01314053 0.01164372 0.01100675 0.26274510 0.77254902 0.45490196
v -0.00280276 0.01159711 0.01105176 0.26274510 0.77254902 0.45490196
v 0.01314053 0.01151054 0.01113447 0.26274510 0.77254902 0.45490196
v 0.05008763 0.01128246 0.01129369 0.26274510 0.77254902 0.45490196
v 0.05031669 0.01128246 0.01127569 0.26274510 0.77254902 0.45490196
v -0.00280276 0.01148723 0.01115585 0.26274510 0.77254902 0.45490196
v -0.00280276 0.01148057 0.01116091 0.26274510 0.77254902 0.45490196
v 0.02545091 0.01143729 0.01119017 0.26274510 0.77254902 0.45490196
v 0.05054041 0.01128246 0.01122168 0.26274510 0.77254902 0.45490196
v 0.05074816 0.01128246 0.01113334 0.26274510 0.77254902 0.45490196
v 0.05093993 0.01128246 0.01101406 0.26274510 0.77254902 0.45490196
v 0.05109973 0.01128246 0.01086665 0.26274510 0.77254902 0.45490196
v 0.05123290 0.01128246 0.01069561 0.26274510 0.77254902 0.45490196
v 0.05132879 0.01128246 0.01050713 0.26274510 0.77254902 0.45490196
v 0.05138739 0.01128246 0.01030571 0.26274510 0.77254902 0.45490196
v 0.05129150 0.01144395 0.00573149 0.26274510 0.77254902 0.45490196
v 0.05125954 0.01148723 0.00573149 0.26274510 0.77254902 0.45490196
v 0.05140869 0.01128246 0.01009810 0.26274510 0.77254902 0.45490196
v 0.05137673 0.01132741 0.00573149 0.26274510 0.77254902 0.45490196
v -0.00280276 0.00501782 0.01014930 0.26274510 0.77254902 0.45490196
v 0.05161644 0.01056160 0.00573149 0.26274510 0.77254902 0.45490196
v 0.05161644 -0.00500261 0.01009810 0.26274510 0.77254902 0.45490196
v -0.00274949 -0.00500261 0.01026013 0.26274510 0.77254902 0.45490196
v -0.00280276 0.00622480 0.01146023 0.26274510 0.77254902 0.45490196
v -0.00280276 0.00621148 0.01145742 0.26274510 0.77254902 0.45490196
v -0.00280276 0.00601171 0.01141016 0.26274510 0.77254902 0.45490196
v -0.00280276 0.00600005 0.01140735 0.26274510 0.77254902 0.45490196
v -0.00280276 0.00579528 0.01132351 0.26274510 0.77254902 0.45490196
v -0.00280276 0.00578696 0.01131957 0.26274510 0.77254902 0.45490196
v -0.00280276 0.00559717 0.01120480 0.26274510 0.77254902 0.45490196
v -0.00280276 0.00558385 0.01119579 0.26274510 0.77254902 0.45490196
v -0.00280276 0.00542070 0.01105626 0.26274510 0.77254902 0.45490196
v -0.00280276 0.00527087 0.01088016 0.26274510 0.77254902 0.45490196
v -0.00280276 0.00520761 0.01078563 0.26274510 0.77254902 0.45490196
v -0.00280276 0.00515434 0.01068717 0.26274510 0.77254902 0.45490196
v -0.00280276 0.00510939 0.01058421 0.26274510 0.77254902 0.45490196
v -0.00280276 0.00507276 0.01047844 0.26274510 0.77254902 0.45490196
v -0.00280276 0.00504446 0.01037041 0.26274510 0.77254902 0.45490196
v -0.00280276 0.00502615 0.01026013 0.26274510 0.77254902 0.45490196
v 0.03777193 0.01119756 0.01133195 0.26274510 0.77254902 0.45490196
v 0.05008763 0.01105438 0.01139553 0.26274510 0.77254902 0.45490196
v -0.00280276 0.01130577 0.01127850 0.26274510 0.77254902 0.45490196
v -0.00280276 0.01128246 0.01129369 0.26274510 0.77254902 0.45490196
v 0.05033799 0.01105438 0.01137584 0.26274510 0.77254902 0.45490196
v 0.05057770 0.01105438 0.01131676 0.26274510 0.77254902 0.45490196
v 0.05080676 0.01105438 0.01122168 0.26274510 0.77254902 0.45490196
v 0.05100918 0.01105438 0.01109171 0.26274510 0.77254902 0.45490196
v 0.05118497 0.01105438 0.01093192 0.26274510 0.77254902 0.45490196
v 0.05132879 0.01105438 0.01074681 0.26274510 0.77254902 0.45490196
v 0.05143533 0.01105438 0.01054201 0.26274510 0.77254902 0.45490196
v 0.05149925 0.01105438 0.01032315 0.26274510 0.77254902 0.45490196
v 0.05152055 0.01105438 0.01009810 0.26274510 0.77254902 0.45490196
v 0.05149925 0.01110433 0.00573149 0.26274510 0.77254902 0.45490196
v 0.05143533 0.01123252 0.00573149 0.26274510 0.77254902 0.45490196
v 0.05140869 0.01128246 0.00573149 0.26274510 0.77254902 0.45490196
v 0.05161644 0.01056160 0.01009810 0.26274510 0.77254902 0.45490196
v 0.05161111 0.01061654 0.00573149 0.26274510 0.77254902 0.45490196
v 0.05158980 -0.00500261 0.01033778 0.26274510 0.77254902 0.45490196
v -0.00273351 -0.00500261 0.01037041 0.26274510 0.77254902 0.45490196
v -0.00280276 0.00624145 0.01146192 0.26274510 0.77254902 0.45490196
v -0.00270155 -0.00500261 0.01047787 0.26274510 0.77254902 0.45490196
v -0.00266426 -0.00500261 0.01058421 0.26274510 0.77254902 0.45490196
v -0.00261632 -0.00500261 0.01068549 0.26274510 0.77254902 0.45490196
v -0.00280276 0.01117758 0.01134095 0.26274510 0.77254902 0.45490196
v 0.05008763 0.01081299 0.01145742 0.26274510 0.77254902 0.45490196
v 0.05034865 0.01081299 0.01143717 0.26274510 0.77254902 0.45490196
v -0.00280276 0.01105438 0.01139553 0.26274510 0.77254902 0.45490196
v -0.00280276 0.01104606 0.01139778 0.26274510 0.77254902 0.45490196
v 0.02545091 0.01087292 0.01144223 0.26274510 0.77254902 0.45490196
v 0.05060434 0.01081299 0.01137584 0.26274510 0.77254902 0.45490196
v 0.05083872 0.01081299 0.01127569 0.26274510 0.77254902 0.45490196
v 0.05105712 0.01081299 0.01113953 0.26274510 0.77254902 0.45490196
v 0.05123823 0.01081299 0.01097187 0.26274510 0.77254902 0.45490196
v 0.05138739 0.01081299 0.01077776 0.26274510 0.77254902 0.45490196
v 0.05149925 0.01081299 0.01056283 0.26274510 0.77254902 0.45490196
v 0.05156850 0.01081299 0.01033440 0.26274510 0.77254902 0.45490196
v 0.05158980 0.01081299 0.01009810 0.26274510 0.77254902 0.45490196
v 0.05153654 0.01100278 0.00573149 0.26274510 0.77254902 0.45490196
v 0.05152055 0.01105438 0.00573149 0.26274510 0.77254902 0.45490196
v 0.05158980 0.01056160 0.01033778 0.26274510 0.77254902 0.45490196
v 0.05158980 0.01081299 0.00573149 0.26274510 0.77254902 0.45490196
v 0.05157382 -0.00500261 0.01039910 0.26274510 0.77254902 0.45490196
v -0.00280276 0.00643956 0.01147711 0.26274510 0.77254902 0.45490196
v -0.00255772 -0.00500261 0.01078563 0.26274510 0.77254902 0.45490196
v -0.00249380 -0.00500261 0.01088016 0.26274510 0.77254902 0.45490196
v -0.00233932 -0.00500261 0.01105289 0.26274510 0.77254902 0.45490196
v 0.03777193 0.01078136 0.01146023 0.26274510 0.77254902 0.45490196
v 0.05008763 0.01056160 0.01147880 0.26274510 0.77254902 0.45490196
v -0.00280276 0.01081299 0.01145742 0.26274510 0.77254902 0.45490196
v -0.00280276 0.01080300 0.01145855 0.26274510 0.77254902 0.45490196
v 0.05035397 0.01056160 0.01145742 0.26274510 0.77254902 0.45490196
v -0.00280276 0.01083963 0.01145067 0.26274510 0.77254902 0.45490196
v 0.05060966 0.01056160 0.01139553 0.26274510 0.77254902 0.45490196
v 0.05084937 0.01056160 0.01129369 0.26274510 0.77254902 0.45490196
v 0.05106777 0.01056160 0.01115585 0.26274510 0.77254902 0.45490196
v 0.05125954 0.01056160 0.01098537 0.26274510 0.77254902 0.45490196
v 0.05140869 0.01056160 0.01078845 0.26274510 0.77254902 0.45490196
v 0.05152055 0.01056160 0.01057015 0.26274510 0.77254902 0.45490196
v 0.05155784 0.00000012 0.01045424 0.26274510 0.77254902 0.45490196
v 0.05154186 -0.00500261 0.01050938 0.26274510 0.77254902 0.45490196
v -0.00280276 0.00645621 0.01147824 0.26274510 0.77254902 0.45490196
v -0.00216353 -0.00500261 0.01119242 0.26274510 0.77254902 0.45490196
v 0.02545091 0.01074973 0.01146305 0.26274510 0.77254902 0.45490196
v 0.05008763 0.00000012 0.01147880 0.26274510 0.77254902 0.45490196
v 0.05028473 -0.00500261 0.01146305 0.26274510 0.77254902 0.45490196
v 0.01314053 0.01065650 0.01147092 0.26274510 0.77254902 0.45490196
v -0.00280276 0.01056160 0.01147880 0.26274510 0.77254902 0.45490196
v -0.00280276 0.01069645 0.01146755 0.26274510 0.77254902 0.45490196
v 0.05035397 -0.00500261 0.01145742 0.26274510 0.77254902 0.45490196
v 0.05042322 -0.00500261 0.01144110 0.26274510 0.77254902 0.45490196
v 0.05054574 -0.00500261 0.01141185 0.26274510 0.77254902 0.45490196
v 0.05060966 -0.00500261 0.01139553 0.26274510 0.77254902 0.45490196
v 0.05079078 -0.00500261 0.01132014 0.26274510 0.77254902 0.45490196
v 0.05101450 -0.00500261 0.01119186 0.26274510 0.77254902 0.45490196
v 0.05084937 -0.00500261 0.01129369 0.26274510 0.77254902 0.45490196
v 0.05106777 -0.00500261 0.01115585 0.26274510 0.77254902 0.45490196
v 0.05112104 -0.00500261 0.01111084 0.26274510 0.77254902 0.45490196
v 0.05125954 -0.00500261 0.01098537 0.26274510 0.77254902 0.45490196
v 0.05137140 -0.00500261 0.01084021 0.26274510 0.77254902 0.45490196
v 0.05144065 -0.00500261 0.01073106 0.26274510 0.77254902 0.45490196
v 0.05146729 0.00000012 0.01067930 0.26274510 0.77254902 0.45490196
v 0.05140869 -0.00500261 0.01078845 0.26274510 0.77254902 0.45490196
v 0.05149392 -0.00500261 0.01062753 0.26274510 0.77254902 0.45490196
v 0.05152055 -0.00500261 0.01057015 0.26274510 0.77254902 0.45490196
v -0.00280276 0.00659272 0.01147880 0.26274510 0.77254902 0.45490196
v -0.00215288 -0.00500261 0.01120030 0.26274510 0.77254902 0.45490196
v -0.00196111 -0.00500261 0.01131170 0.26274510 0.77254902 0.45490196
v -0.00194513 -0.00500261 0.01131957 0.26274510 0.77254902 0.45490196
v -0.00174271 -0.00500261 0.01140003 0.26274510 0.77254902 0.45490196
v -0.00172140 -0.00500261 0.01140735 0.26274510 0.77254902 0.45490196
v -0.00150833 -0.00500261 0.01145517 0.26274510 0.77254902 0.45490196
v -0.00148170 -0.00500261 0.01146079 0.26274510 0.77254902 0.45490196
v -0.00126862 -0.00500261 0.01147655 0.26274510 0.77254902 0.45490196
v -0.00123666 -0.00500261 0.01147824 0.26274510 0.77254902 0.45490196
v 0.05008763 -0.00500261 0.01147824 0.26274510 0.77254902 0.45490196
v 0.05015688 -0.00500261 0.01147317 0.26274510 0.77254902 0.45490196
v 0.01159574 0.00220431 0.01147880 0.26274510 0.77254902 0.45490196
f 1 2 3
f 1 3 4
f 1 4 5
f 1 5 6
f 1 6 7
f 1 7 8
f 1 8 9
f 1 9 10
f 1 10 11
f 1 11 12
f 1 12 13
f 1 13 14
f 1 14 36
f 1 36 15
f 1 15 2
f 2 16 17
f 2 17 3
f 2 15 18
f 2 18 19
f 2 19 16
f 3 20 21
f 3 21 22
f 3 22 4
f 3 17 23
f 3 23 24
f 3 24 20
f 4 25 26
f 4 26 5
f 4 22 25
f 5 26 6
f 6 26 27
f 6 27 28
f 6 28 7
f 7 28 29
f 7 29 8
f 8 29 30
f 8 30 9
f 9 30 10
f 10 30 31
f 10 31 32
f 10 32 11
f 11 32 12
f 12 33 13
f 12 32 34
f 12 34 35
f 12 35 33
f 13 33 35
f 13 35 54
f 13 54 53
f 13 53 71
f 13 71 70
f 13 70 69
f 13 69 91
f 13 91 90
f 13 90 111
f 13 111 110
f 13 110 113
f 13 113 149
f 13 149 148
f 13 148 147
f 13 147 173
f 13 173 172
f 13 172 175
f 13 175 151
f 13 151 115
f 13 115 93
f 13 93 73
f 13 73 55
f 13 55 36
f 13 36 14
f 15 36 55
f 15 55 72
f 15 72 92
f 15 92 114
f 15 114 133
f 15 133 132
f 15 132 131
f 15 131 130
f 15 130 129
f 15 129 128
f 15 128 127
f 15 127 126
f 15 126 125
f 15 125 124
f 15 124 123
f 15 123 122
f 15 122 121
f 15 121 120
f 15 120 119
f 15 119 118
f 15 118 154
f 15 154 177
f 15 177 195
f 15 195 219
f 15 219 201
f 15 201 202
f 15 202 184
f 15 184 183
f 15 183 186
f 15 186 162
f 15 162 161
f 15 161 158
f 15 158 137
f 15 137 136
f 15 136 101
f 15 101 100
f 15 100 96
f 15 96 80
f 15 80 75
f 15 75 57
f 15 57 56
f 15 56 44
f 15 44 43
f 15 43 42
f 15 42 38
f 15 38 24
f 15 24 23
f 15 23 37
f 15 37 19
f 15 19 18
f 16 19 23
f 16 23 17
f 19 37 23
f 20 24 38
f 20 38 21
f 21 38 22
f 22 39 40
f 22 40 41
f 22 41 25
f 22 38 42
f 22 42 43
f 22 43 44
f 22 44 39
f 25 41 26
f 26 45 46
f 26 46 27
f 26 41 45
f 27 46 28
f 28 46 47
f 28 47 48
f 28 48 29
f 29 48 30
f 30 48 49
f 30 49 50
f 30 50 31
f 31 50 32
f 32 50 51
f 32 51 52
f 32 52 34
f 34 53 54
f 34 54 35
f 34 52 53
f 39 44 56
f 39 56 57
f 39 57 40
f 40 58 59
f 40 59 60
f 40 60 41
f 40 57 76
f 40 76 58
f 41 60 61
f 41 61 45
f 45 61 46
f 46 61 62
f 46 62 63
f 46 63 47
f 47 63 48
f 48 63 64
f 48 64 65
f 48 65 49
f 49 65 50
f 50 65 66
f 50 66 67
f 50 67 51
f 51 67 52
f 52 67 68
f 52 68 69
f 52 69 70
f 52 70 71
f 52 71 53
f 55 73 74
f 55 74 72
f 57 75 76
f 58 76 75
f 58 75 59
f 59 77 78
f 59 78 79
f 59 79 60
f 59 75 80
f 59 80 95
f 59 95 77
f 60 81 61
f 60 79 81
f 61 82 83
f 61 83 62
f 61 81 82
f 62 83 63
f 63 84 85
f 63 85 64
f 63 83 84
f 64 85 65
f 65 85 86
f 65 86 87
f 65 87 66
f 66 87 67
f 67 87 88
f 67 88 89
f 67 89 68
f 68 90 91
f 68 91 69
f 68 89 90
f 72 74 92
f 73 93 116
f 73 116 152
f 73 152 176
f 73 176 194
f 73 194 218
f 73 218 217
f 73 217 214
f 73 214 216
f 73 216 213
f 73 213 212
f 73 212 211
f 73 211 210
f 73 210 208
f 73 208 209
f 73 209 207
f 73 207 206
f 73 206 205
f 73 205 204
f 73 204 203
f 73 203 199
f 73 199 230
f 73 230 229
f 73 229 228
f 73 228 227
f 73 227 226
f 73 226 225
f 73 225 224
f 73 224 223
f 73 223 222
f 73 222 221
f 73 221 220
f 73 220 196
f 73 196 180
f 73 180 179
f 73 179 178
f 73 178 157
f 73 157 156
f 73 156 155
f 73 155 153
f 73 153 117
f 73 117 94
f 73 94 74
f 74 94 114
f 74 114 92
f 77 95 96
f 77 96 78
f 78 96 97
f 78 97 100
f 78 100 79
f 79 98 99
f 79 99 81
f 79 100 101
f 79 101 102
f 79 102 98
f 80 96 95
f 81 99 103
f 81 103 82
f 82 103 83
f 83 104 105
f 83 105 84
f 83 103 104
f 84 105 85
f 85 105 106
f 85 106 107
f 85 107 86
f 86 107 87
f 87 107 108
f 87 108 88
f 88 108 109
f 88 109 89
f 89 110 111
f 89 111 90
f 89 109 112
f 89 112 113
f 89 113 110
f 93 115 150
f 93 150 116
f 94 117 118
f 94 118 119
f 94 119 120
f 94 120 121
f 94 121 122
f 94 122 123
f 94 123 124
f 94 124 125
f 94 125 126
f 94 126 127
f 94 127 128
f 94 128 129
f 94 129 130
f 94 130 131
f 94 131 132
f 94 132 133
f 94 133 114
f 96 100 97
f 98 134 135
f 98 135 99
f 98 102 136
f 98 136 137
f 98 137 158
f 98 158 134
f 99 138 103
f 99 135 138
f 101 136 102
f 103 138 139
f 103 139 140
f 103 140 104
f 104 140 105
f 105 141 142
f 105 142 106
f 105 140 141
f 106 142 107
f 107 142 143
f 107 143 144
f 107 144 108
f 108 144 145
f 108 145 109
f 109 145 112
f 112 145 146
f 112 146 147
f 112 147 148
f 112 148 149
f 112 149 113
f 115 151 150
f 116 150 174
f 116 174 152
f 117 153 118
f 118 153 155
f 118 155 156
f 118 156 157
f 118 157 154
f 134 158 135
f 135 159 160
f 135 160 138
f 135 158 161
f 135 161 162
f 135 162 163
f 135 163 159
f 138 160 164
f 138 164 139
f 139 164 140
f 140 164 165
f 140 165 166
f 140 166 141
f 141 166 142
f 142 167 143
f 142 166 167
f 143 168 169
f 143 169 144
f 143 167 168
f 144 169 170
f 144 170 145
f 145 170 146
f 146 170 171
f 146 171 172
f 146 172 173
f 146 173 147
f 150 151 171
f 150 171 170
f 150 170 174
f 151 175 171
f 152 174 176
f 154 157 178
f 154 178 179
f 154 179 180
f 154 180 177
f 159 181 182
f 159 182 160
f 159 163 186
f 159 186 183
f 159 183 184
f 159 184 181
f 160 182 185
f 160 185 164
f 162 186 163
f 164 185 187
f 164 187 188
f 164 188 165
f 165 188 166
f 166 188 189
f 166 189 190
f 166 190 167
f 167 190 168
f 168 190 191
f 168 191 169
f 169 191 192
f 169 192 170
f 170 192 174
f 171 175 172
f 174 192 193
f 174 193 176
f 176 193 194
f 177 180 196
f 177 196 195
f 181 184 197
f 181 197 182
f 182 198 199
f 182 199 185
f 182 197 200
f 182 200 201
f 182 201 219
f 182 219 231
f 182 231 198
f 184 202 200
f 184 200 197
f 185 199 203
f 185 203 204
f 185 204 205
f 185 205 187
f 187 205 206
f 187 206 207
f 187 207 188
f 188 208 189
f 188 207 209
f 188 209 208
f 189 208 210
f 189 210 211
f 189 211 190
f 190 212 213
f 190 213 191
f 190 211 212
f 191 214 215
f 191 215 192
f 191 213 216
f 191 216 214
f 192 215 217
f 192 217 218
f 192 218 194
f 192 194 193
f 195 196 220
f 195 220 221
f 195 221 222
f 195 222 223
f 195 223 224
f 195 224 225
f 195 225 226
f 195 226 227
f 195 227 228
f 195 228 219
f 198 229 230
f 198 230 199
f 198 231 228
f 198 228 229
f 200 202 201
f 214 217 215
f 219 228 231