# https://github.com/mikedh/trimesh
v -0.00959276 0.01200332 -0.00070966 0.77647059 0.86666667 0.97647059
v -0.00959276 0.01200332 -0.00578405 0.77647059 0.86666667 0.97647059
v -0.02149474 0.01200332 -0.00070966 0.77647059 0.86666667 0.97647059
v 0.05008181 0.01200268 -0.00070966 0.77647059 0.86666667 0.97647059
v -0.02149474 0.01200332 -0.00578405 0.77647059 0.86666667 0.97647059
v 0.05008181 0.01200268 -0.00578405 0.77647059 0.86666667 0.97647059
v -0.02149474 0.00550946 -0.00070966 0.77647059 0.86666667 0.97647059
v 0.05035394 0.01198106 -0.00070966 0.77647059 0.86666667 0.97647059
v 0.05014626 0.01199823 -0.00578405 0.77647059 0.86666667 0.97647059
v -0.02149474 0.00574036 -0.00578405 0.77647059 0.86666667 0.97647059
v -0.00223817 0.00550500 -0.00070966 0.77647059 0.86666667 0.97647059
v -0.00199469 0.00550500 -0.00578405 0.77647059 0.86666667 0.97647059
v -0.00200901 0.00550500 -0.00554265 0.77647059 0.86666667 0.97647059
v 0.05060458 0.01191618 -0.00070966 0.77647059 0.86666667 0.97647059
v 0.05055445 0.01193017 -0.00578405 0.77647059 0.86666667 0.97647059
v 0.05035394 0.01198106 -0.00578405 0.77647059 0.86666667 0.97647059
v 0.05029665 0.01198615 -0.00578405 0.77647059 0.86666667 0.97647059
v 0.05166444 0.00550500 -0.00070966 0.77647059 0.86666667 0.97647059
v 0.04766131 0.00550500 -0.00578405 0.77647059 0.86666667 0.97647059
v 0.05060458 0.01191618 -0.00578405 0.77647059 0.86666667 0.97647059
v 0.05074064 0.01185956 -0.00070966 0.77647059 0.86666667 0.97647059
v 0.05066187 0.01189328 -0.00578405 0.77647059 0.86666667 0.97647059
v 0.05166444 0.00550500 -0.00577312 0.77647059 0.86666667 0.97647059
v 0.05166444 0.00960016 -0.00070966 0.77647059 0.86666667 0.97647059
v 0.05160715 0.00956264 -0.00578405 0.77647059 0.86666667 0.97647059
v 0.05160715 0.00550500 -0.00577908 0.77647059 0.86666667 0.97647059
v 0.05079793 0.01183285 -0.00578405 0.77647059 0.86666667 0.97647059
v 0.05084806 0.01180995 -0.00070966 0.77647059 0.86666667 0.97647059
v 0.05084806 0.01180995 -0.00578405 0.77647059 0.86666667 0.97647059
v 0.05166444 0.00960016 -0.00577312 0.77647059 0.86666667 0.97647059
v 0.05160715 0.01062427 -0.00578405 0.77647059 0.86666667 0.97647059
v 0.05159999 0.01067898 -0.00070966 0.77647059 0.86666667 0.97647059
v 0.05107006 0.01166619 -0.00070966 0.77647059 0.86666667 0.97647059
v 0.05107006 0.01166619 -0.00578405 0.77647059 0.86666667 0.97647059
v 0.05158567 0.01081256 -0.00578405 0.77647059 0.86666667 0.97647059
v 0.05158567 0.01081256 -0.00070966 0.77647059 0.86666667 0.97647059
v 0.05125625 0.01148872 -0.00070966 0.77647059 0.86666667 0.97647059
v 0.05125625 0.01148872 -0.00578405 0.77647059 0.86666667 0.97647059
v 0.05153554 0.01100211 -0.00578405 0.77647059 0.86666667 0.97647059
v 0.05154986 0.01094232 -0.00070966 0.77647059 0.86666667 0.97647059
v 0.05133503 0.01137804 -0.00070966 0.77647059 0.86666667 0.97647059
v 0.05129206 0.01144420 -0.00578405 0.77647059 0.86666667 0.97647059
v 0.05151406 0.01105554 -0.00070966 0.77647059 0.86666667 0.97647059
v 0.05149257 0.01111152 -0.00578405 0.77647059 0.86666667 0.97647059
v 0.05139948 0.01128199 -0.00070966 0.77647059 0.86666667 0.97647059
v 0.05137083 0.01132715 -0.00578405 0.77647059 0.86666667 0.97647059
v 0.05145677 0.01117640 -0.00070966 0.77647059 0.86666667 0.97647059
v 0.05139948 0.01128199 -0.00578405 0.77647059 0.86666667 0.97647059
f 1 2 5
f 1 5 3
f 1 3 7
f 1 7 11
f 1 11 18
f 1 18 24
f 1 24 32
f 1 32 36
f 1 36 40
f 1 40 43
f 1 43 47
f 1 47 45
f 1 45 41
f 1 41 37
f 1 37 33
f 1 33 28
f 1 28 21
f 1 21 14
f 1 14 8
f 1 8 4
f 1 4 6
f 1 6 2
f 2 6 9
f 2 9 17
f 2 17 16
f 2 16 15
f 2 15 20
f 2 20 22
f 2 22 27
f 2 27 29
f 2 29 34
f 2 34 38
f 2 38 42
f 2 42 46
f 2 46 48
f 2 48 44
f 2 44 39
f 2 39 35
f 2 35 31
f 2 31 25
f 2 25 19
f 2 19 12
f 2 12 10
f 2 10 5
f 3 5 10
f 3 10 7
f 4 8 9
f 4 9 6
f 7 10 12
f 7 12 13
f 7 13 11
f 8 14 15
f 8 15 16
f 8 16 17
f 8 17 9
f 11 13 12
f 11 12 19
f 11 19 26
f 11 26 23
f 11 23 18
f 14 20 15
f 14 21 22
f 14 22 20
f 18 23 30
f 18 30 24
f 19 25 26
f 21 27 22
f 21 28 29
f 21 29 27
f 23 26 25
f 23 25 31
f 23 31 30
f 24 30 31
f 24 31 32
f 28 33 34
f 28 34 29
f 31 35 36
f 31 36 32
f 33 37 38
f 33 38 34
f 35 39 36
f 36 39 40
f 37 41 42
f 37 42 38
f 39 43 40
f 39 44 43
f 41 45 46
f 41 46 42
f 43 44 47
f 44 48 45
f 44 45 47
f 45 48 46