# https://github.com/mikedh/trimesh
v 0.05008621 0.01200265 0.00573093 0.56470588 0.92549020 0.07058824
v 0.05029606 0.01198514 0.00573093 0.56470588 0.92549020 0.07058824
v 0.05008621 0.01200265 -0.00070966 0.56470588 0.92549020 0.07058824
v -0.04845491 0.01200265 0.00573093 0.56470588 0.92549020 0.07058824
v 0.05034603 0.01198043 -0.00070966 0.56470588 0.92549020 0.07058824
v 0.05034603 0.01198043 0.00573093 0.56470588 0.92549020 0.07058824
v -0.04845491 0.01200265 -0.00070966 0.56470588 0.92549020 0.07058824
v -0.04871473 0.01198110 0.00573093 0.56470588 0.92549020 0.07058824
v 0.05040599 0.01196629 0.00573093 0.56470588 0.92549020 0.07058824
v 0.05060585 0.01191579 -0.00070966 0.56470588 0.92549020 0.07058824
v -0.04871473 0.01198110 -0.00070966 0.56470588 0.92549020 0.07058824
v -0.04877468 0.01196696 0.00573093 0.56470588 0.92549020 0.07058824
v 0.05060585 0.01191512 0.00573093 0.56470588 0.92549020 0.07058824
v 0.05060585 0.01191579 -0.00002374 0.56470588 0.92549020 0.07058824
v 0.05079572 0.01183231 0.00573093 0.56470588 0.92549020 0.07058824
v 0.05073576 0.01185857 -0.00070966 0.56470588 0.92549020 0.07058824
v -0.04885463 0.01194609 -0.00070966 0.56470588 0.92549020 0.07058824
v -0.04897454 0.01191579 -0.00070966 0.56470588 0.92549020 0.07058824
v -0.04897454 0.01191579 0.00573093 0.56470588 0.92549020 0.07058824
v 0.05084568 0.01180942 0.00573093 0.56470588 0.92549020 0.07058824
v 0.05084568 0.01180942 -0.00070966 0.56470588 0.92549020 0.07058824
v -0.04921438 0.01180942 -0.00070966 0.56470588 0.92549020 0.07058824
v -0.04909446 0.01186328 -0.00002374 0.56470588 0.92549020 0.07058824
v -0.04921438 0.01180942 0.00573093 0.56470588 0.92549020 0.07058824
v 0.05089564 0.01177845 0.00573093 0.56470588 0.92549020 0.07058824
v 0.05096560 0.01173266 -0.00070966 0.56470588 0.92549020 0.07058824
v -0.04943422 0.01166534 -0.00070966 0.56470588 0.92549020 0.07058824
v -0.04926434 0.01177845 0.00573093 0.56470588 0.92549020 0.07058824
v 0.05106553 0.01166534 0.00573093 0.56470588 0.92549020 0.07058824
v 0.05106553 0.01166534 -0.00070966 0.56470588 0.92549020 0.07058824
v -0.04952416 0.01158320 -0.00070966 0.56470588 0.92549020 0.07058824
v -0.04943422 0.01166534 0.00573093 0.56470588 0.92549020 0.07058824
v 0.05125539 0.01148759 0.00573093 0.56470588 0.92549020 0.07058824
v 0.05125539 0.01148759 -0.00070966 0.56470588 0.92549020 0.07058824
v -0.04962409 0.01148826 -0.00070966 0.56470588 0.92549020 0.07058824
v -0.04962409 0.01148826 0.00573093 0.56470588 0.92549020 0.07058824
v 0.05140529 0.01128224 0.00573093 0.56470588 0.92549020 0.07058824
v 0.05140529 0.01128224 -0.00070966 0.56470588 0.92549020 0.07058824
v -0.04977399 0.01128224 -0.00070966 0.56470588 0.92549020 0.07058824
v -0.04977399 0.01128224 0.00573093 0.56470588 0.92549020 0.07058824
v 0.05143527 0.01123309 0.00573093 0.56470588 0.92549020 0.07058824
v 0.05146525 0.01116038 -0.00070966 0.56470588 0.92549020 0.07058824
v -0.04983394 0.01116105 -0.00070966 0.56470588 0.92549020 0.07058824
v -0.04988391 0.01105535 0.00573093 0.56470588 0.92549020 0.07058824
v 0.05151521 0.01105467 0.00573093 0.56470588 0.92549020 0.07058824
v 0.05151521 0.01105467 -0.00070966 0.56470588 0.92549020 0.07058824
v -0.04988391 0.01105535 -0.00070966 0.56470588 0.92549020 0.07058824
v -0.05038356 0.00958559 0.00571076 0.56470588 0.92549020 0.07058824
v -0.04995386 0.01081229 0.00573093 0.56470588 0.92549020 0.07058824
v 0.05153520 0.01100216 0.00573093 0.56470588 0.92549020 0.07058824
v 0.05155519 0.01094156 -0.00070966 0.56470588 0.92549020 0.07058824
v -0.05038356 0.00958559 -0.00070966 0.56470588 0.92549020 0.07058824
v -0.05038356 0.00519380 0.00571076 0.56470588 0.92549020 0.07058824
v -0.04997385 0.01056251 0.00573093 0.56470588 0.92549020 0.07058824
v 0.05158517 0.01081229 0.00573093 0.56470588 0.92549020 0.07058824
v 0.05158517 0.01081229 -0.00070966 0.56470588 0.92549020 0.07058824
v -0.05038356 0.00519380 -0.00070966 0.56470588 0.92549020 0.07058824
v -0.00254700 0.00512513 0.00573093 0.56470588 0.92549020 0.07058824
v -0.04997385 0.00519380 0.00572715 0.56470588 0.92549020 0.07058824
v -0.04997385 0.00958559 0.00573093 0.56470588 0.92549020 0.07058824
v 0.05159515 0.01075843 0.00573093 0.56470588 0.92549020 0.07058824
v 0.05161514 0.01056184 0.00573093 0.56470588 0.92549020 0.07058824
v 0.05170508 0.00959838 -0.00070966 0.56470588 0.92549020 0.07058824
v -0.00254700 0.00512513 0.00561934 0.56470588 0.92549020 0.07058824
v -0.00223721 0.00512513 -0.00070966 0.56470588 0.92549020 0.07058824
v 0.04914687 0.00512513 0.00573093 0.56470588 0.92549020 0.07058824
v -0.04747559 0.00519380 0.00573093 0.56470588 0.92549020 0.07058824
v 0.05170508 0.00959838 0.00572336 0.56470588 0.92549020 0.07058824
v 0.05161514 0.00958693 0.00573093 0.56470588 0.92549020 0.07058824
v 0.05170508 0.00512513 -0.00070966 0.56470588 0.92549020 0.07058824
v 0.05161514 0.00512513 0.00572715 0.56470588 0.92549020 0.07058824
v 0.05170508 0.00512513 0.00572336 0.56470588 0.92549020 0.07058824
f 1 2 3
f 1 3 7
f 1 7 4
f 1 4 8
f 1 8 12
f 1 12 19
f 1 19 24
f 1 24 28
f 1 28 32
f 1 32 36
f 1 36 40
f 1 40 44
f 1 44 49
f 1 49 54
f 1 54 60
f 1 60 67
f 1 67 58
f 1 58 66
f 1 66 69
f 1 69 62
f 1 62 61
f 1 61 55
f 1 55 50
f 1 50 45
f 1 45 41
f 1 41 37
f 1 37 33
f 1 33 29
f 1 29 25
f 1 25 20
f 1 20 15
f 1 15 13
f 1 13 9
f 1 9 6
f 1 6 2
f 2 5 3
f 2 6 5
f 3 5 10
f 3 10 16
f 3 16 21
f 3 21 26
f 3 26 30
f 3 30 34
f 3 34 38
f 3 38 42
f 3 42 46
f 3 46 51
f 3 51 56
f 3 56 63
f 3 63 70
f 3 70 65
f 3 65 57
f 3 57 52
f 3 52 47
f 3 47 43
f 3 43 39
f 3 39 35
f 3 35 31
f 3 31 27
f 3 27 22
f 3 22 18
f 3 18 17
f 3 17 11
f 3 11 7
f 4 7 11
f 4 11 8
f 5 6 9
f 5 9 10
f 8 11 12
f 9 13 14
f 9 14 10
f 10 14 15
f 10 15 16
f 11 17 12
f 12 17 18
f 12 18 19
f 13 15 14
f 15 20 21
f 15 21 16
f 18 22 23
f 18 23 19
f 19 23 24
f 20 25 21
f 21 25 26
f 22 27 28
f 22 28 24
f 22 24 23
f 25 29 26
f 26 29 30
f 27 31 32
f 27 32 28
f 29 33 34
f 29 34 30
f 31 35 36
f 31 36 32
f 33 37 38
f 33 38 34
f 35 39 40
f 35 40 36
f 37 41 38
f 38 41 42
f 39 43 40
f 40 43 44
f 41 45 46
f 41 46 42
f 43 47 44
f 44 47 52
f 44 52 48
f 44 48 49
f 45 50 46
f 46 50 51
f 48 52 57
f 48 57 53
f 48 53 60
f 48 60 54
f 48 54 49
f 50 55 51
f 51 55 56
f 53 57 64
f 53 64 58
f 53 58 59
f 53 59 60
f 55 61 56
f 56 61 62
f 56 62 63
f 57 65 64
f 58 67 59
f 58 64 65
f 58 65 70
f 58 70 72
f 58 72 71
f 58 71 66
f 59 67 60
f 62 68 63
f 62 69 72
f 62 72 68
f 63 68 72
f 63 72 70
f 66 71 69
f 69 71 72