# https://github.com/mikedh/trimesh
v -0.02098872 0.01200332 0.01009810 0.08627451 0.01960784 0.83137255
v -0.02382406 0.01198687 0.01027814 0.08627451 0.01960784 0.83137255
v -0.02098872 0.01198687 0.01027082 0.08627451 0.01960784 0.83137255
v -0.02098872 0.01200332 0.00573149 0.08627451 0.01960784 0.83137255
v -0.04845946 0.01200332 0.01009810 0.08627451 0.01960784 0.83137255
v -0.02098872 0.01197982 0.01033778 0.08627451 0.01960784 0.83137255
v -0.04845946 0.01197982 0.01033778 0.08627451 0.01960784 0.83137255
v -0.02098872 -0.01200332 0.00573149 0.08627451 0.01960784 0.83137255
v -0.04845946 0.01200332 0.00573149 0.08627451 0.01960784 0.83137255
v -0.04872341 0.01197982 0.01009810 0.08627451 0.01960784 0.83137255
v -0.04871773 0.01197982 0.01013973 0.08627451 0.01960784 0.83137255
v -0.04870638 0.01197982 0.01018024 0.08627451 0.01960784 0.83137255
v -0.04868651 0.01197982 0.01021794 0.08627451 0.01960784 0.83137255
v -0.04866097 0.01197982 0.01025226 0.08627451 0.01960784 0.83137255
v -0.04862691 0.01197982 0.01028208 0.08627451 0.01960784 0.83137255
v -0.04859002 0.01197982 0.01030571 0.08627451 0.01960784 0.83137255
v -0.04854744 0.01197982 0.01032315 0.08627451 0.01960784 0.83137255
v -0.04850487 0.01197982 0.01033440 0.08627451 0.01960784 0.83137255
v -0.03613892 0.01197277 0.01036703 0.08627451 0.01960784 0.83137255
v -0.02098872 0.01193047 0.01051951 0.08627451 0.01960784 0.83137255
v -0.04845946 0.01191637 0.01057015 0.08627451 0.01960784 0.83137255
v -0.02098872 -0.01200332 0.01009810 0.08627451 0.01960784 0.83137255
v -0.04845946 -0.01200332 0.00573149 0.08627451 0.01960784 0.83137255
v -0.04872341 0.01197982 0.00573149 0.08627451 0.01960784 0.83137255
v -0.04897033 0.01191637 0.01018024 0.08627451 0.01960784 0.83137255
v -0.04897884 0.01191637 0.01009810 0.08627451 0.01960784 0.83137255
v -0.04894763 0.01191637 0.01025957 0.08627451 0.01960784 0.83137255
v -0.04891073 0.01191637 0.01033440 0.08627451 0.01960784 0.83137255
v -0.04885680 0.01191637 0.01040192 0.08627451 0.01960784 0.83137255
v -0.04879436 0.01191637 0.01045987 0.08627451 0.01960784 0.83137255
v -0.04871773 0.01191637 0.01050713 0.08627451 0.01960784 0.83137255
v -0.04863543 0.01191637 0.01054201 0.08627451 0.01960784 0.83137255
v -0.04854744 0.01191637 0.01056283 0.08627451 0.01960784 0.83137255
v -0.02098872 0.01191637 0.01057015 0.08627451 0.01960784 0.83137255
v -0.04859002 0.01180828 0.01077776 0.08627451 0.01960784 0.83137255
v -0.04845946 0.01180828 0.01078845 0.08627451 0.01960784 0.83137255
v -0.02098872 0.01181298 0.01078226 0.08627451 0.01960784 0.83137255
v -0.03613892 0.01187642 0.01065229 0.08627451 0.01960784 0.83137255
v -0.02098872 0.01189287 0.01061853 0.08627451 0.01960784 0.83137255
v -0.02098872 -0.01198687 0.01027082 0.08627451 0.01960784 0.83137255
v -0.02382406 -0.01198687 0.01027814 0.08627451 0.01960784 0.83137255
v -0.04845946 -0.01200332 0.01009810 0.08627451 0.01960784 0.83137255
v -0.04872341 -0.01197982 0.00573149 0.08627451 0.01960784 0.83137255
v -0.04897884 0.01191637 0.00573149 0.08627451 0.01960784 0.83137255
v -0.04920874 0.01180828 0.01021794 0.08627451 0.01960784 0.83137255
v -0.04916900 0.01183178 0.00573149 0.08627451 0.01960784 0.83137255
v -0.04922009 0.01180828 0.01009810 0.08627451 0.01960784 0.83137255
v -0.04917468 0.01180828 0.01033440 0.08627451 0.01960784 0.83137255
v -0.04911792 0.01180828 0.01044299 0.08627451 0.01960784 0.83137255
v -0.04904129 0.01180828 0.01054201 0.08627451 0.01960784 0.83137255
v -0.04894763 0.01180828 0.01062697 0.08627451 0.01960784 0.83137255
v -0.04883977 0.01180828 0.01069561 0.08627451 0.01960784 0.83137255
v -0.04871773 0.01180828 0.01074681 0.08627451 0.01960784 0.83137255
v -0.04879436 0.01166493 0.01093192 0.08627451 0.01960784 0.83137255
v -0.04862691 0.01166493 0.01097187 0.08627451 0.01960784 0.83137255
v -0.04845946 0.01166493 0.01098537 0.08627451 0.01960784 0.83137255
v -0.03613892 0.01179183 0.01081320 0.08627451 0.01960784 0.83137255
v -0.02098872 0.01180593 0.01079464 0.08627451 0.01960784 0.83137255
v -0.02098872 -0.01197982 0.01033778 0.08627451 0.01960784 0.83137255
v -0.04845946 -0.01197982 0.01033778 0.08627451 0.01960784 0.83137255
v -0.04871773 -0.01195867 0.01033778 0.08627451 0.01960784 0.83137255
v -0.04872341 -0.01197982 0.01009810 0.08627451 0.01960784 0.83137255
v -0.04892492 -0.01193047 0.00573149 0.08627451 0.01960784 0.83137255
v -0.04943863 0.01166493 0.01009810 0.08627451 0.01960784 0.83137255
v -0.04942160 0.01166493 0.01025226 0.08627451 0.01960784 0.83137255
v -0.04937903 0.01166493 0.01040192 0.08627451 0.01960784 0.83137255
v -0.04922009 0.01180828 0.00573149 0.08627451 0.01960784 0.83137255
v -0.04926834 0.01177773 0.00573149 0.08627451 0.01960784 0.83137255
v -0.04930524 0.01166493 0.01054201 0.08627451 0.01960784 0.83137255
v -0.04920874 0.01166493 0.01066861 0.08627451 0.01960784 0.83137255
v -0.04894763 0.01166493 0.01086665 0.08627451 0.01960784 0.83137255
v -0.04908670 0.01166493 0.01077776 0.08627451 0.01960784 0.83137255
v -0.04904129 0.01148869 0.01101406 0.08627451 0.01960784 0.83137255
v -0.04885680 0.01148869 0.01109171 0.08627451 0.01960784 0.83137255
v -0.04866097 0.01148869 0.01113953 0.08627451 0.01960784 0.83137255
v -0.04845946 0.01148869 0.01115585 0.08627451 0.01960784 0.83137255
v -0.03613892 0.01164378 0.01100675 0.08627451 0.01960784 0.83137255
v -0.02098872 0.01166023 0.01099043 0.08627451 0.01960784 0.83137255
v -0.02382406 0.01166493 0.01098537 0.08627451 0.01960784 0.83137255
v -0.02098872 0.01166963 0.01097974 0.08627451 0.01960784 0.83137255
v -0.03613892 0.01168373 0.01096061 0.08627451 0.01960784 0.83137255
v -0.02098872 0.01169783 0.01094205 0.08627451 0.01960784 0.83137255
v -0.02098872 -0.01193047 0.01051895 0.08627451 0.01960784 0.83137255
v -0.03613892 -0.01197277 0.01036703 0.08627451 0.01960784 0.83137255
v -0.04845946 -0.01191637 0.01057015 0.08627451 0.01960784 0.83137255
v -0.04870638 -0.01189522 0.01057015 0.08627451 0.01960784 0.83137255
v -0.04897033 -0.01189522 0.01033778 0.08627451 0.01960784 0.83137255
v -0.04897884 -0.01191637 0.01009810 0.08627451 0.01960784 0.83137255
v -0.04897884 -0.01191637 0.00573149 0.08627451 0.01960784 0.83137255
v -0.04943863 0.01166493 0.00573149 0.08627451 0.01960784 0.83137255
v -0.04958622 0.01152629 0.00573149 0.08627451 0.01960784 0.83137255
v -0.04962595 0.01148869 0.01009810 0.08627451 0.01960784 0.83137255
v -0.04960892 0.01148869 0.01028208 0.08627451 0.01960784 0.83137255
v -0.04955500 0.01148869 0.01045987 0.08627451 0.01960784 0.83137255
v -0.04946985 0.01148869 0.01062697 0.08627451 0.01960784 0.83137255
v -0.04920874 0.01148869 0.01090829 0.08627451 0.01960784 0.83137255
v -0.04935348 0.01148869 0.01077776 0.08627451 0.01960784 0.83137255
v -0.04911792 0.01128190 0.01113334 0.08627451 0.01960784 0.83137255
v -0.04891073 0.01128190 0.01122168 0.08627451 0.01960784 0.83137255
v -0.04868651 0.01128190 0.01127569 0.08627451 0.01960784 0.83137255
v -0.04845946 0.01128190 0.01129369 0.08627451 0.01960784 0.83137255
v -0.02098872 0.01128895 0.01128976 0.08627451 0.01960784 0.83137255
v -0.02382406 0.01148869 0.01115585 0.08627451 0.01960784 0.83137255
v -0.02098872 0.01161559 0.01103376 0.08627451 0.01960784 0.83137255
v -0.02098872 -0.01191637 0.01056339 0.08627451 0.01960784 0.83137255
v -0.02382406 -0.01191637 0.01057015 0.08627451 0.01960784 0.83137255
v -0.04845946 -0.01180828 0.01078845 0.08627451 0.01960784 0.83137255
v -0.04868651 -0.01178948 0.01078845 0.08627451 0.01960784 0.83137255
v -0.02382406 -0.01183648 0.01073387 0.08627451 0.01960784 0.83137255
v -0.02098872 -0.01181298 0.01078170 0.08627451 0.01960784 0.83137255
v -0.04891073 -0.01173308 0.01078845 0.08627451 0.01960784 0.83137255
v -0.04894763 -0.01183413 0.01057015 0.08627451 0.01960784 0.83137255
v -0.04920874 -0.01178948 0.01033778 0.08627451 0.01960784 0.83137255
v -0.04922009 -0.01180828 0.01009810 0.08627451 0.01960784 0.83137255
v -0.04916900 -0.01183178 0.00573149 0.08627451 0.01960784 0.83137255
v -0.04962595 0.01148869 0.00573149 0.08627451 0.01960784 0.83137255
v -0.04977921 0.01128190 0.01009810 0.08627451 0.01960784 0.83137255
v -0.04975651 0.01128190 0.01030571 0.08627451 0.01960784 0.83137255
v -0.04969975 0.01128190 0.01050713 0.08627451 0.01960784 0.83137255
v -0.04960041 0.01128190 0.01069561 0.08627451 0.01960784 0.83137255
v -0.04946985 0.01128190 0.01086665 0.08627451 0.01960784 0.83137255
v -0.04930524 0.01128190 0.01101406 0.08627451 0.01960784 0.83137255
v -0.04937903 0.01105396 0.01109171 0.08627451 0.01960784 0.83137255
v -0.04917468 0.01105396 0.01122168 0.08627451 0.01960784 0.83137255
v -0.04894763 0.01105396 0.01131676 0.08627451 0.01960784 0.83137255
v -0.04870638 0.01105396 0.01137584 0.08627451 0.01960784 0.83137255
v -0.04845946 0.01105396 0.01139553 0.08627451 0.01960784 0.83137255
v -0.03613892 0.01119730 0.01133195 0.08627451 0.01960784 0.83137255
v -0.02098872 0.01123255 0.01131620 0.08627451 0.01960784 0.83137255
v -0.02382406 0.01128190 0.01129369 0.08627451 0.01960784 0.83137255
v -0.02098872 0.01142994 0.01119467 0.08627451 0.01960784 0.83137255
v -0.02098872 0.01127485 0.01129651 0.08627451 0.01960784 0.83137255
v -0.02098872 0.01148164 0.01115979 0.08627451 0.01960784 0.83137255
v -0.02098872 0.01149339 0.01115078 0.08627451 0.01960784 0.83137255
v -0.02098872 -0.01191167 0.01057633 0.08627451 0.01960784 0.83137255
v -0.02098872 -0.01189287 0.01061797 0.08627451 0.01960784 0.83137255
v -0.03613892 -0.01179183 0.01081320 0.08627451 0.01960784 0.83137255
v -0.04845946 -0.01166493 0.01098537 0.08627451 0.01960784 0.83137255
v -0.04866097 -0.01164848 0.01098537 0.08627451 0.01960784 0.83137255
v -0.02098872 -0.01180593 0.01079407 0.08627451 0.01960784 0.83137255
v -0.04885680 -0.01159914 0.01098537 0.08627451 0.01960784 0.83137255
v -0.04911792 -0.01164143 0.01078845 0.08627451 0.01960784 0.83137255
v -0.04917468 -0.01173308 0.01057015 0.08627451 0.01960784 0.83137255
v -0.04937903 -0.01159914 0.01057015 0.08627451 0.01960784 0.83137255
v -0.04942160 -0.01164848 0.01033778 0.08627451 0.01960784 0.83137255
v -0.04943863 -0.01166493 0.01009810 0.08627451 0.01960784 0.83137255
v -0.04926834 -0.01177773 0.00573149 0.08627451 0.01960784 0.83137255
v -0.04922009 -0.01180828 0.00573149 0.08627451 0.01960784 0.83137255
v -0.04977921 0.01128190 0.00573149 0.08627451 0.01960784 0.83137255
v -0.04986720 0.01110331 0.00573149 0.08627451 0.01960784 0.83137255
v -0.04988990 0.01105396 0.01009810 0.08627451 0.01960784 0.83137255
v -0.04986720 0.01105396 0.01032315 0.08627451 0.01960784 0.83137255
v -0.04969975 0.01105396 0.01074681 0.08627451 0.01960784 0.83137255
v -0.04980476 0.01105396 0.01054201 0.08627451 0.01960784 0.83137255
v -0.04955500 0.01105396 0.01093192 0.08627451 0.01960784 0.83137255
v -0.04942160 0.01081192 0.01113953 0.08627451 0.01960784 0.83137255
v -0.04920874 0.01081192 0.01127569 0.08627451 0.01960784 0.83137255
v -0.04960892 0.01081192 0.01097187 0.08627451 0.01960784 0.83137255
v -0.04897033 0.01081192 0.01137584 0.08627451 0.01960784 0.83137255
v -0.04871773 0.01081192 0.01143717 0.08627451 0.01960784 0.83137255
v -0.04845946 0.01081192 0.01145742 0.08627451 0.01960784 0.83137255
v -0.03613892 0.01090356 0.01143435 0.08627451 0.01960784 0.83137255
v -0.02098872 0.01105396 0.01139553 0.08627451 0.01960784 0.83137255
v -0.03613892 -0.01168373 0.01096061 0.08627451 0.01960784 0.83137255
v -0.02098872 -0.01169783 0.01094205 0.08627451 0.01960784 0.83137255
v -0.03613892 -0.01164378 0.01100675 0.08627451 0.01960784 0.83137255
v -0.04845946 -0.01148869 0.01115585 0.08627451 0.01960784 0.83137255
v -0.02382406 -0.01166493 0.01098537 0.08627451 0.01960784 0.83137255
v -0.02098872 -0.01166023 0.01099043 0.08627451 0.01960784 0.83137255
v -0.04862691 -0.01147459 0.01115585 0.08627451 0.01960784 0.83137255
v -0.04879436 -0.01143229 0.01115585 0.08627451 0.01960784 0.83137255
v -0.04894763 -0.01136415 0.01115585 0.08627451 0.01960784 0.83137255
v -0.04904129 -0.01151689 0.01098537 0.08627451 0.01960784 0.83137255
v -0.04920874 -0.01140644 0.01098537 0.08627451 0.01960784 0.83137255
v -0.04930524 -0.01151689 0.01078845 0.08627451 0.01960784 0.83137255
v -0.04946985 -0.01136415 0.01078845 0.08627451 0.01960784 0.83137255
v -0.04955500 -0.01143229 0.01057015 0.08627451 0.01960784 0.83137255
v -0.04960892 -0.01147459 0.01033778 0.08627451 0.01960784 0.83137255
v -0.04958622 -0.01152629 0.00573149 0.08627451 0.01960784 0.83137255
v -0.04943863 -0.01166493 0.00573149 0.08627451 0.01960784 0.83137255
v -0.04962595 -0.01148869 0.01009810 0.08627451 0.01960784 0.83137255
v -0.04988990 0.01105396 0.00573149 0.08627451 0.01960784 0.83137255
v -0.04994383 0.01086362 0.00573149 0.08627451 0.01960784 0.83137255
v -0.04995802 0.01081192 0.01009810 0.08627451 0.01960784 0.83137255
v -0.04993531 0.01081192 0.01033440 0.08627451 0.01960784 0.83137255
v -0.04986720 0.01081192 0.01056283 0.08627451 0.01960784 0.83137255
v -0.04975651 0.01081192 0.01077776 0.08627451 0.01960784 0.83137255
v -0.04943863 0.01056283 0.01115585 0.08627451 0.01960784 0.83137255
v -0.04922009 0.01056283 0.01129369 0.08627451 0.01960784 0.83137255
v -0.04897884 0.01056283 0.01139553 0.08627451 0.01960784 0.83137255
v -0.04977921 0.01056283 0.01078845 0.08627451 0.01960784 0.83137255
v -0.04962595 0.01056283 0.01098537 0.08627451 0.01960784 0.83137255
v -0.04872341 0.01056283 0.01145742 0.08627451 0.01960784 0.83137255
v -0.04845946 0.01056283 0.01147880 0.08627451 0.01960784 0.83137255
v -0.03613892 0.01078137 0.01146023 0.08627451 0.01960784 0.83137255
v -0.02098872 0.01081192 0.01145742 0.08627451 0.01960784 0.83137255
v -0.02098872 0.01081897 0.01145573 0.08627451 0.01960784 0.83137255
v -0.02382406 0.01087302 0.01144223 0.08627451 0.01960784 0.83137255
v -0.02098872 0.01086597 0.01144392 0.08627451 0.01960784 0.83137255
v -0.02098872 -0.01166963 0.01097918 0.08627451 0.01960784 0.83137255
v -0.02098872 -0.01162733 0.01102250 0.08627451 0.01960784 0.83137255
v -0.02382406 -0.01148869 0.01115585 0.08627451 0.01960784 0.83137255
v -0.04845946 -0.01128190 0.01129369 0.08627451 0.01960784 0.83137255
v -0.02098872 -0.01134065 0.01125487 0.08627451 0.01960784 0.83137255
v -0.04859002 -0.01127015 0.01129369 0.08627451 0.01960784 0.83137255
v -0.04871773 -0.01123960 0.01129369 0.08627451 0.01960784 0.83137255
v -0.04883977 -0.01118555 0.01129369 0.08627451 0.01960784 0.83137255
v -0.04894763 -0.01111271 0.01129369 0.08627451 0.01960784 0.83137255
v -0.04908670 -0.01127015 0.01115585 0.08627451 0.01960784 0.83137255
v -0.04920874 -0.01115735 0.01115585 0.08627451 0.01960784 0.83137255
v -0.04935348 -0.01127015 0.01098537 0.08627451 0.01960784 0.83137255
v -0.04946985 -0.01111271 0.01098537 0.08627451 0.01960784 0.83137255
v -0.04960041 -0.01118555 0.01078845 0.08627451 0.01960784 0.83137255
v -0.04969975 -0.01123960 0.01057015 0.08627451 0.01960784 0.83137255
v -0.04975651 -0.01127015 0.01033778 0.08627451 0.01960784 0.83137255
v -0.04977921 -0.01128190 0.01009810 0.08627451 0.01960784 0.83137255
v -0.04962595 -0.01148869 0.00573149 0.08627451 0.01960784 0.83137255
v -0.04995802 0.01081192 0.00573149 0.08627451 0.01960784 0.83137255
v -0.04996369 0.01075787 0.00573149 0.08627451 0.01960784 0.83137255
v -0.04998356 0.01056283 0.01009810 0.08627451 0.01960784 0.83137255
v -0.04995802 0.01056283 0.01033778 0.08627451 0.01960784 0.83137255
v -0.04988990 0.01056283 0.01057015 0.08627451 0.01960784 0.83137255
v -0.04943863 -0.01056283 0.01115585 0.08627451 0.01960784 0.83137255
v -0.04910089 0.00000000 0.01134433 0.08627451 0.01960784 0.83137255
v -0.04922009 -0.01056283 0.01129369 0.08627451 0.01960784 0.83137255
v -0.04897884 -0.01056283 0.01139553 0.08627451 0.01960784 0.83137255
v -0.04977921 -0.01056283 0.01078845 0.08627451 0.01960784 0.83137255
v -0.04962595 -0.01056283 0.01098537 0.08627451 0.01960784 0.83137255
v -0.04872341 -0.01056283 0.01145742 0.08627451 0.01960784 0.83137255
v -0.04845946 0.00000000 0.01147880 0.08627451 0.01960784 0.83137255
v -0.02098872 0.01056283 0.01147880 0.08627451 0.01960784 0.83137255
v -0.02382406 0.01074847 0.01146305 0.08627451 0.01960784 0.83137255
v -0.02098872 0.01074142 0.01146361 0.08627451 0.01960784 0.83137255
v -0.02098872 -0.01160619 0.01104276 0.08627451 0.01960784 0.83137255
v -0.02098872 -0.01149339 0.01115022 0.08627451 0.01960784 0.83137255
v -0.02098872 -0.01148164 0.01115979 0.08627451 0.01960784 0.83137255
v -0.04845946 -0.01105396 0.01139553 0.08627451 0.01960784 0.83137255
v -0.04854744 -0.01104691 0.01139553 0.08627451 0.01960784 0.83137255
v -0.02098872 -0.01128895 0.01128919 0.08627451 0.01960784 0.83137255
v -0.02382406 -0.01128190 0.01129369 0.08627451 0.01960784 0.83137255
v -0.02098872 -0.01110566 0.01137302 0.08627451 0.01960784 0.83137255
v -0.04863543 -0.01102576 0.01139553 0.08627451 0.01960784 0.83137255
v -0.04871773 -0.01098816 0.01139553 0.08627451 0.01960784 0.83137255
v -0.04879436 -0.01093881 0.01139553 0.08627451 0.01960784 0.83137255
v -0.04904129 -0.01102576 0.01129369 0.08627451 0.01960784 0.83137255
v -0.04911792 -0.01092236 0.01129369 0.08627451 0.01960784 0.83137255
v -0.04930524 -0.01102576 0.01115585 0.08627451 0.01960784 0.83137255
v -0.04955500 -0.01093881 0.01098537 0.08627451 0.01960784 0.83137255
v -0.04969975 -0.01098816 0.01078845 0.08627451 0.01960784 0.83137255
v -0.04937903 -0.01087772 0.01115585 0.08627451 0.01960784 0.83137255
v -0.04980476 -0.01102576 0.01057015 0.08627451 0.01960784 0.83137255
v -0.04986720 -0.01104691 0.01033778 0.08627451 0.01960784 0.83137255
v -0.04977921 -0.01128190 0.00573149 0.08627451 0.01960784 0.83137255
v -0.04988990 -0.01105396 0.01009810 0.08627451 0.01960784 0.83137255
v -0.04986720 -0.01110331 0.00573149 0.08627451 0.01960784 0.83137255
v -0.04998356 0.01056283 0.00573149 0.08627451 0.01960784 0.83137255
v -0.04998356 -0.01056283 0.01009810 0.08627451 0.01960784 0.83137255
v -0.04992396 0.00000000 0.01045424 0.08627451 0.01960784 0.83137255
v -0.04995802 -0.01056283 0.01033778 0.08627451 0.01960784 0.83137255
v -0.04988990 -0.01056283 0.01057015 0.08627451 0.01960784 0.83137255
v -0.04942160 -0.01072262 0.01115585 0.08627451 0.01960784 0.83137255
v -0.04920874 -0.01068737 0.01129369 0.08627451 0.01960784 0.83137255
v -0.04960892 -0.01075317 0.01098537 0.08627451 0.01960784 0.83137255
v -0.04897033 -0.01064742 0.01139553 0.08627451 0.01960784 0.83137255
v -0.04975651 -0.01077902 0.01078845 0.08627451 0.01960784 0.83137255
v -0.04986720 -0.01079782 0.01057015 0.08627451 0.01960784 0.83137255
v -0.04871773 -0.01060513 0.01145742 0.08627451 0.01960784 0.83137255
v -0.04845946 -0.01056283 0.01147824 0.08627451 0.01960784 0.83137255
v -0.02098872 -0.01056283 0.01147824 0.08627451 0.01960784 0.83137255
v -0.03549182 0.00205147 0.01147880 0.08627451 0.01960784 0.83137255
v -0.02098872 0.00645754 0.01147880 0.08627451 0.01960784 0.83137255
v -0.03613892 -0.01090356 0.01143435 0.08627451 0.01960784 0.83137255
v -0.04845946 -0.01081192 0.01145742 0.08627451 0.01960784 0.83137255
v -0.02098872 -0.01105396 0.01139553 0.08627451 0.01960784 0.83137255
v -0.02098872 -0.01100226 0.01140903 0.08627451 0.01960784 0.83137255
v -0.04850487 -0.01080722 0.01145742 0.08627451 0.01960784 0.83137255
v -0.04854744 -0.01079782 0.01145742 0.08627451 0.01960784 0.83137255
v -0.02098872 -0.01127485 0.01129651 0.08627451 0.01960784 0.83137255
v -0.04859002 -0.01077902 0.01145742 0.08627451 0.01960784 0.83137255
v -0.04885680 -0.01087772 0.01139553 0.08627451 0.01960784 0.83137255
v -0.04862691 -0.01075317 0.01145742 0.08627451 0.01960784 0.83137255
v -0.04866097 -0.01072262 0.01145742 0.08627451 0.01960784 0.83137255
v -0.04891073 -0.01080722 0.01139553 0.08627451 0.01960784 0.83137255
v -0.04917468 -0.01080722 0.01129369 0.08627451 0.01960784 0.83137255
v -0.04993531 -0.01080722 0.01033778 0.08627451 0.01960784 0.83137255
v -0.04988990 -0.01105396 0.00573149 0.08627451 0.01960784 0.83137255
v -0.04995802 -0.01081192 0.01009810 0.08627451 0.01960784 0.83137255
v -0.04994383 -0.01086362 0.00573149 0.08627451 0.01960784 0.83137255
v -0.04998356 -0.01056283 0.00573149 0.08627451 0.01960784 0.83137255
v -0.04996369 -0.01075787 0.00573149 0.08627451 0.01960784 0.83137255
v -0.04894763 -0.01072967 0.01139553 0.08627451 0.01960784 0.83137255
v -0.04870638 -0.01064742 0.01145742 0.08627451 0.01960784 0.83137255
v -0.04868651 -0.01068737 0.01145742 0.08627451 0.01960784 0.83137255
v -0.03613892 -0.01059338 0.01147599 0.08627451 0.01960784 0.83137255
v -0.02098872 -0.01064742 0.01147149 0.08627451 0.01960784 0.83137255
v -0.02382406 -0.01087302 0.01144223 0.08627451 0.01960784 0.83137255
v -0.03613892 -0.01078137 0.01146023 0.08627451 0.01960784 0.83137255
v -0.02098872 -0.01081897 0.01145573 0.08627451 0.01960784 0.83137255
v -0.02098872 -0.01081192 0.01145742 0.08627451 0.01960784 0.83137255
v -0.02098872 -0.01086597 0.01144392 0.08627451 0.01960784 0.83137255
v -0.04995802 -0.01081192 0.00573149 0.08627451 0.01960784 0.83137255
v -0.02382406 -0.01074847 0.01146305 0.08627451 0.01960784 0.83137255
v -0.02098872 -0.01074142 0.01146361 0.08627451 0.01960784 0.83137255
f 1 2 3
f 1 3 6
f 1 6 20
f 1 20 34
f 1 34 39
f 1 39 37
f 1 37 58
f 1 58 82
f 1 82 80
f 1 80 78
f 1 78 104
f 1 104 134
f 1 134 133
f 1 133 131
f 1 131 102
f 1 102 132
f 1 132 129
f 1 129 163
f 1 163 199
f 1 199 197
f 1 197 196
f 1 196 233
f 1 233 231
f 1 231 271
f 1 271 269
f 1 269 295
f 1 295 303
f 1 303 299
f 1 299 298
f 1 298 300
f 1 300 275
f 1 275 274
f 1 274 241
f 1 241 278
f 1 278 239
f 1 239 204
f 1 204 236
f 1 236 235
f 1 235 234
f 1 234 201
f 1 201 169
f 1 169 200
f 1 200 165
f 1 165 140
f 1 140 110
f 1 110 136
f 1 136 135
f 1 135 105
f 1 105 83
f 1 83 59
f 1 59 40
f 1 40 22
f 1 22 8
f 1 8 4
f 1 4 9
f 1 9 5
f 1 5 2
f 2 6 3
f 2 5 7
f 2 7 6
f 4 8 23
f 4 23 43
f 4 43 63
f 4 63 89
f 4 89 115
f 4 115 148
f 4 148 147
f 4 147 180
f 4 180 179
f 4 179 217
f 4 217 253
f 4 253 255
f 4 255 286
f 4 286 288
f 4 288 301
f 4 301 290
f 4 290 289
f 4 289 256
f 4 256 219
f 4 219 218
f 4 218 183
f 4 183 182
f 4 182 150
f 4 150 149
f 4 149 116
f 4 116 91
f 4 91 90
f 4 90 68
f 4 68 67
f 4 67 46
f 4 46 44
f 4 44 24
f 4 24 9
f 5 9 24
f 5 24 10
f 5 10 11
f 5 11 12
f 5 12 13
f 5 13 14
f 5 14 15
f 5 15 16
f 5 16 17
f 5 17 18
f 5 18 7
f 6 19 20
f 6 7 19
f 7 18 21
f 7 21 19
f 8 22 42
f 8 42 23
f 10 25 11
f 10 24 44
f 10 44 26
f 10 26 25
f 11 25 12
f 12 25 27
f 12 27 28
f 12 28 13
f 13 28 14
f 14 28 29
f 14 29 30
f 14 30 15
f 15 30 16
f 16 30 31
f 16 31 32
f 16 32 17
f 17 32 18
f 18 32 33
f 18 33 21
f 19 21 20
f 20 21 34
f 21 33 35
f 21 35 36
f 21 36 37
f 21 37 38
f 21 38 39
f 21 39 34
f 22 40 41
f 22 41 42
f 23 42 62
f 23 62 43
f 25 26 45
f 25 45 27
f 26 44 46
f 26 46 47
f 26 47 45
f 27 45 48
f 27 48 28
f 28 48 49
f 28 49 50
f 28 50 29
f 29 50 30
f 30 50 51
f 30 51 52
f 30 52 31
f 31 52 32
f 32 35 33
f 32 52 53
f 32 53 35
f 35 53 54
f 35 54 55
f 35 55 36
f 36 55 56
f 36 56 57
f 36 57 58
f 36 58 37
f 37 39 38
f 40 59 41
f 41 59 60
f 41 60 42
f 42 60 61
f 42 61 62
f 43 62 63
f 45 47 64
f 45 64 65
f 45 65 66
f 45 66 48
f 46 67 47
f 47 67 68
f 47 68 64
f 48 66 49
f 49 66 69
f 49 69 70
f 49 70 50
f 50 70 51
f 51 71 52
f 51 70 72
f 51 72 71
f 52 54 53
f 52 71 54
f 54 71 73
f 54 73 74
f 54 74 75
f 54 75 55
f 55 75 76
f 55 76 56
f 56 76 77
f 56 77 78
f 56 78 79
f 56 79 80
f 56 80 81
f 56 81 57
f 57 81 82
f 57 82 58
f 59 83 84
f 59 84 60
f 60 84 85
f 60 85 61
f 61 85 86
f 61 86 87
f 61 87 88
f 61 88 62
f 62 88 63
f 63 88 89
f 64 68 90
f 64 90 91
f 64 91 92
f 64 92 93
f 64 93 65
f 65 93 66
f 66 93 94
f 66 94 95
f 66 95 69
f 69 95 70
f 70 96 72
f 70 95 97
f 70 97 96
f 71 72 96
f 71 96 73
f 73 96 98
f 73 98 99
f 73 99 74
f 74 99 75
f 75 100 76
f 75 99 100
f 76 100 101
f 76 101 102
f 76 102 103
f 76 103 77
f 77 103 104
f 77 104 78
f 78 80 79
f 80 82 81
f 83 105 106
f 83 106 84
f 84 106 85
f 85 107 108
f 85 108 86
f 85 106 109
f 85 109 110
f 85 110 107
f 86 108 111
f 86 111 112
f 86 112 87
f 87 113 88
f 87 112 113
f 88 113 114
f 88 114 115
f 88 115 89
f 91 116 92
f 92 116 149
f 92 149 117
f 92 117 93
f 93 117 118
f 93 118 119
f 93 119 94
f 94 119 95
f 95 119 120
f 95 120 121
f 95 121 97
f 96 97 121
f 96 121 122
f 96 122 98
f 98 122 123
f 98 123 124
f 98 124 99
f 99 125 126
f 99 126 100
f 99 124 125
f 100 126 127
f 100 127 101
f 101 127 128
f 101 128 129
f 101 129 130
f 101 130 102
f 102 131 103
f 102 130 132
f 103 131 133
f 103 133 134
f 103 134 104
f 105 135 106
f 106 135 136
f 106 136 110
f 106 110 109
f 107 137 138
f 107 138 139
f 107 139 108
f 107 110 140
f 107 140 137
f 108 139 111
f 111 139 141
f 111 141 142
f 111 142 112
f 112 142 143
f 112 143 113
f 113 143 144
f 113 144 145
f 113 145 146
f 113 146 114
f 114 146 147
f 114 147 148
f 114 148 115
f 117 149 150
f 117 150 151
f 117 151 152
f 117 152 118
f 118 152 119
f 119 153 120
f 119 152 154
f 119 154 153
f 120 153 121
f 121 155 123
f 121 123 122
f 121 153 155
f 123 156 157
f 123 157 124
f 123 155 158
f 123 158 156
f 124 157 159
f 124 159 125
f 125 159 126
f 126 159 160
f 126 160 127
f 127 160 161
f 127 161 162
f 127 162 163
f 127 163 128
f 128 163 129
f 129 132 130
f 137 164 138
f 137 140 165
f 137 165 164
f 138 166 167
f 138 167 139
f 138 164 165
f 138 165 200
f 138 200 168
f 138 168 169
f 138 169 166
f 139 167 170
f 139 170 141
f 141 171 172
f 141 172 173
f 141 173 142
f 141 170 171
f 142 173 174
f 142 174 175
f 142 175 144
f 142 144 143
f 144 175 176
f 144 176 177
f 144 177 178
f 144 178 145
f 145 178 146
f 146 179 180
f 146 180 147
f 146 178 181
f 146 181 179
f 150 182 151
f 151 182 183
f 151 183 184
f 151 184 185
f 151 185 152
f 152 185 154
f 153 158 155
f 153 154 186
f 153 186 187
f 153 187 158
f 154 185 186
f 156 188 157
f 156 158 188
f 157 189 190
f 157 190 159
f 157 188 189
f 158 187 191
f 158 191 192
f 158 192 188
f 159 190 160
f 160 193 194
f 160 194 161
f 160 190 193
f 161 194 195
f 161 195 196
f 161 196 197
f 161 197 198
f 161 198 162
f 162 198 163
f 163 198 199
f 166 169 201
f 166 201 202
f 166 202 167
f 167 203 170
f 167 202 204
f 167 204 203
f 168 200 169
f 170 203 205
f 170 205 206
f 170 206 171
f 171 206 207
f 171 207 172
f 172 207 208
f 172 208 209
f 172 209 174
f 172 174 173
f 174 209 210
f 174 210 211
f 174 211 176
f 174 176 175
f 176 211 212
f 176 212 213
f 176 213 214
f 176 214 177
f 177 214 178
f 178 214 215
f 178 215 216
f 178 216 181
f 179 181 217
f 181 216 253
f 181 253 217
f 183 218 184
f 184 218 219
f 184 219 220
f 184 220 185
f 185 220 221
f 185 221 222
f 185 222 186
f 186 191 187
f 186 222 191
f 188 223 225
f 188 225 189
f 188 192 228
f 188 228 223
f 189 224 190
f 189 225 224
f 190 224 226
f 190 226 229
f 190 229 193
f 191 227 228
f 191 228 192
f 191 222 260
f 191 260 227
f 193 229 230
f 193 230 194
f 194 230 270
f 194 270 271
f 194 271 231
f 194 231 232
f 194 232 195
f 195 232 196
f 196 232 233
f 197 199 198
f 201 234 202
f 202 234 235
f 202 235 236
f 202 236 204
f 203 237 238
f 203 238 205
f 203 204 239
f 203 239 240
f 203 240 241
f 203 241 237
f 205 238 206
f 206 238 242
f 206 242 207
f 207 242 243
f 207 243 244
f 207 244 208
f 208 244 245
f 208 245 210
f 208 210 209
f 210 245 246
f 210 246 247
f 210 247 212
f 210 212 211
f 212 248 249
f 212 249 213
f 212 247 250
f 212 250 248
f 213 249 214
f 214 249 251
f 214 251 252
f 214 252 215
f 215 252 216
f 216 252 254
f 216 254 255
f 216 255 253
f 219 256 220
f 220 256 289
f 220 289 257
f 220 257 259
f 220 259 221
f 221 258 222
f 221 259 258
f 222 258 260
f 223 261 262
f 223 262 225
f 223 228 263
f 223 263 261
f 224 225 226
f 225 262 226
f 226 262 264
f 226 264 229
f 227 265 263
f 227 263 228
f 227 260 266
f 227 266 265
f 229 267 268
f 229 268 230
f 229 264 267
f 230 268 269
f 230 269 270
f 231 233 232
f 237 272 273
f 237 273 238
f 237 241 274
f 237 274 275
f 237 275 272
f 238 276 277
f 238 277 242
f 238 273 276
f 239 278 240
f 240 278 241
f 242 277 279
f 242 279 243
f 243 279 244
f 244 280 245
f 244 279 281
f 244 281 282
f 244 282 280
f 245 280 283
f 245 283 246
f 246 284 250
f 246 250 247
f 246 283 284
f 248 250 263
f 248 263 249
f 249 263 265
f 249 265 266
f 249 266 251
f 250 261 263
f 250 284 262
f 250 262 261
f 251 266 285
f 251 285 252
f 252 285 254
f 254 286 255
f 254 285 287
f 254 287 288
f 254 288 286
f 257 290 287
f 257 287 285
f 257 285 259
f 257 289 290
f 258 259 260
f 259 285 260
f 260 285 266
f 262 284 291
f 262 291 264
f 264 291 292
f 264 292 267
f 267 292 268
f 268 292 293
f 268 293 282
f 268 282 281
f 268 281 279
f 268 279 277
f 268 277 276
f 268 276 273
f 268 273 294
f 268 294 269
f 269 271 270
f 269 294 295
f 272 275 296
f 272 296 273
f 273 297 294
f 273 296 298
f 273 298 299
f 273 299 297
f 275 300 296
f 280 282 283
f 282 293 283
f 283 293 292
f 283 292 291
f 283 291 284
f 287 290 301
f 287 301 288
f 294 297 302
f 294 302 295
f 295 302 303
f 296 300 298
f 297 299 302
f 299 303 302