# https://github.com/mikedh/trimesh
v -0.02149756 0.01200332 -0.00070966 0.38039216 0.78823529 0.52549020
v -0.02149756 0.00550778 -0.00070966 0.38039216 0.78823529 0.52549020
v -0.02149756 0.01200332 -0.00578405 0.38039216 0.78823529 0.52549020
v -0.04845782 0.01200332 -0.00070966 0.38039216 0.78823529 0.52549020
v -0.02152301 -0.00550551 -0.00070966 0.38039216 0.78823529 0.52549020
v -0.02149756 0.00573915 -0.00578405 0.38039216 0.78823529 0.52549020
v -0.04845782 0.01200332 -0.00578405 0.38039216 0.78823529 0.52549020
v -0.04858225 0.01199304 -0.00070966 0.38039216 0.78823529 0.52549020
v -0.02176903 -0.00550551 -0.00578405 0.38039216 0.78823529 0.52549020
v -0.05038356 -0.00550551 -0.00070966 0.38039216 0.78823529 0.52549020
v -0.04872364 0.01198104 -0.00578405 0.38039216 0.78823529 0.52549020
v -0.04872364 0.01198104 -0.00070966 0.38039216 0.78823529 0.52549020
v -0.04603440 -0.00550551 -0.00578405 0.38039216 0.78823529 0.52549020
v -0.05038356 0.00958506 -0.00070966 0.38039216 0.78823529 0.52549020
v -0.05038356 -0.00550551 -0.00575971 0.38039216 0.78823529 0.52549020
v -0.04877737 0.01196733 -0.00578405 0.38039216 0.78823529 0.52549020
v -0.04897814 0.01191591 -0.00070966 0.38039216 0.78823529 0.52549020
v -0.04998201 -0.00550551 -0.00577908 0.38039216 0.78823529 0.52549020
v -0.04998201 0.00000285 -0.00578405 0.38039216 0.78823529 0.52549020
v -0.05038356 0.00958506 -0.00575971 0.38039216 0.78823529 0.52549020
v -0.04989152 0.01105555 -0.00070966 0.38039216 0.78823529 0.52549020
v -0.04897814 0.01191591 -0.00578405 0.38039216 0.78823529 0.52549020
v -0.04910822 0.01185936 -0.00070966 0.38039216 0.78823529 0.52549020
v -0.04998201 0.01056196 -0.00578405 0.38039216 0.78823529 0.52549020
v -0.04994525 0.01086360 -0.00578405 0.38039216 0.78823529 0.52549020
v -0.04995939 0.01081218 -0.00578405 0.38039216 0.78823529 0.52549020
v -0.04996504 0.01075905 -0.00578405 0.38039216 0.78823529 0.52549020
v -0.04989152 0.01105555 -0.00578405 0.38039216 0.78823529 0.52549020
v -0.04977841 0.01128178 -0.00070966 0.38039216 0.78823529 0.52549020
v -0.04922133 0.01180965 -0.00578405 0.38039216 0.78823529 0.52549020
v -0.04922133 0.01180965 -0.00070966 0.38039216 0.78823529 0.52549020
v -0.04977841 0.01128178 -0.00578405 0.38039216 0.78823529 0.52549020
v -0.04970771 0.01137776 -0.00070966 0.38039216 0.78823529 0.52549020
v -0.04974165 0.01133320 -0.00578405 0.38039216 0.78823529 0.52549020
v -0.04938534 0.01170168 -0.00578405 0.38039216 0.78823529 0.52549020
v -0.04943907 0.01166569 -0.00070966 0.38039216 0.78823529 0.52549020
v -0.04962571 0.01148745 -0.00070966 0.38039216 0.78823529 0.52549020
v -0.04965964 0.01144289 -0.00578405 0.38039216 0.78823529 0.52549020
v -0.04943907 0.01166569 -0.00578405 0.38039216 0.78823529 0.52549020
v -0.04952673 0.01158342 -0.00070966 0.38039216 0.78823529 0.52549020
v -0.04958046 0.01153201 -0.00578405 0.38039216 0.78823529 0.52549020
v -0.04962571 0.01148745 -0.00578405 0.38039216 0.78823529 0.52549020
f 1 2 6
f 1 6 3
f 1 3 7
f 1 7 4
f 1 4 8
f 1 8 12
f 1 12 17
f 1 17 23
f 1 23 31
f 1 31 36
f 1 36 40
f 1 40 37
f 1 37 33
f 1 33 29
f 1 29 21
f 1 21 14
f 1 14 10
f 1 10 5
f 1 5 2
f 2 5 6
f 3 6 9
f 3 9 13
f 3 13 19
f 3 19 24
f 3 24 27
f 3 27 26
f 3 26 25
f 3 25 28
f 3 28 32
f 3 32 34
f 3 34 38
f 3 38 42
f 3 42 41
f 3 41 39
f 3 39 35
f 3 35 30
f 3 30 22
f 3 22 16
f 3 16 11
f 3 11 7
f 4 7 8
f 5 9 6
f 5 10 15
f 5 15 18
f 5 18 13
f 5 13 9
f 7 11 8
f 8 11 12
f 10 14 20
f 10 20 15
f 11 16 12
f 12 16 17
f 13 18 19
f 14 21 28
f 14 28 20
f 15 20 24
f 15 24 19
f 15 19 18
f 16 22 17
f 17 22 23
f 20 25 26
f 20 26 27
f 20 27 24
f 20 28 25
f 21 29 32
f 21 32 28
f 22 30 23
f 23 30 31
f 29 33 34
f 29 34 32
f 30 35 31
f 31 35 36
f 33 37 38
f 33 38 34
f 35 39 36
f 36 39 40
f 37 40 41
f 37 41 42
f 37 42 38
f 39 41 40