# https://github.com/mikedh/trimesh
v -0.02121284 0.00519297 0.00573093 0.79607843 0.45882353 0.78039216
v -0.02120428 -0.00521469 0.00573093 0.79607843 0.45882353 0.78039216
v -0.02121284 0.00519297 0.00570760 0.79607843 0.45882353 0.78039216
v -0.04748163 0.00519297 0.00573093 0.79607843 0.45882353 0.78039216
v -0.02120428 -0.00546213 0.00028140 0.79607843 0.45882353 0.78039216
v -0.02120428 -0.01200332 0.00573093 0.79607843 0.45882353 0.78039216
v -0.02120428 -0.00550758 -0.00070966 0.79607843 0.45882353 0.78039216
v -0.02152132 0.00519297 -0.00067624 0.79607843 0.45882353 0.78039216
v -0.04998083 0.00519297 0.00572715 0.79607843 0.45882353 0.78039216
v -0.04998083 -0.00000160 0.00573093 0.79607843 0.45882353 0.78039216
v -0.02120428 -0.01200332 -0.00070966 0.79607843 0.45882353 0.78039216
v -0.04845846 -0.01200332 0.00573093 0.79607843 0.45882353 0.78039216
v -0.02152417 0.00519297 -0.00070966 0.79607843 0.45882353 0.78039216
v -0.05038070 0.00519297 0.00571139 0.79607843 0.45882353 0.78039216
v -0.04998083 -0.01056244 0.00573093 0.79607843 0.45882353 0.78039216
v -0.04845846 -0.01200332 -0.00070966 0.79607843 0.45882353 0.78039216
v -0.04872409 -0.01198144 0.00573093 0.79607843 0.45882353 0.78039216
v -0.05038070 0.00519297 -0.00070966 0.79607843 0.45882353 0.78039216
v -0.05038070 -0.00958614 0.00571139 0.79607843 0.45882353 0.78039216
v -0.04997798 -0.01061630 0.00573093 0.79607843 0.45882353 0.78039216
v -0.04872409 -0.01198144 -0.00070966 0.79607843 0.45882353 0.78039216
v -0.04897829 -0.01191579 0.00573093 0.79607843 0.45882353 0.78039216
v -0.04886119 -0.01194609 -0.00070966 0.79607843 0.45882353 0.78039216
v -0.05038070 -0.00958614 -0.00070966 0.79607843 0.45882353 0.78039216
v -0.04988943 -0.01105395 0.00573093 0.79607843 0.45882353 0.78039216
v -0.04994370 -0.01086375 0.00573093 0.79607843 0.45882353 0.78039216
v -0.04995798 -0.01081156 0.00573093 0.79607843 0.45882353 0.78039216
v -0.04996370 -0.01075770 0.00573093 0.79607843 0.45882353 0.78039216
v -0.04903256 -0.01189222 0.00573093 0.79607843 0.45882353 0.78039216
v -0.04909254 -0.01186697 -0.00070966 0.79607843 0.45882353 0.78039216
v -0.04897829 -0.01191579 -0.00070966 0.79607843 0.45882353 0.78039216
v -0.04988943 -0.01105395 -0.00070966 0.79607843 0.45882353 0.78039216
v -0.04986659 -0.01110445 0.00573093 0.79607843 0.45882353 0.78039216
v -0.04922107 -0.01180974 0.00573093 0.79607843 0.45882353 0.78039216
v -0.04922107 -0.01180974 -0.00070966 0.79607843 0.45882353 0.78039216
v -0.04983802 -0.01116000 -0.00070966 0.79607843 0.45882353 0.78039216
v -0.04983516 -0.01116842 -0.00002374 0.79607843 0.45882353 0.78039216
v -0.04977804 -0.01128288 0.00573093 0.79607843 0.45882353 0.78039216
v -0.04943815 -0.01166498 0.00573093 0.79607843 0.45882353 0.78039216
v -0.04943815 -0.01166498 -0.00070966 0.79607843 0.45882353 0.78039216
v -0.04977804 -0.01128288 -0.00070966 0.79607843 0.45882353 0.78039216
v -0.04962666 -0.01148824 0.00573093 0.79607843 0.45882353 0.78039216
v -0.04947814 -0.01162795 0.00573093 0.79607843 0.45882353 0.78039216
v -0.04953241 -0.01157745 -0.00002374 0.79607843 0.45882353 0.78039216
v -0.04952669 -0.01158250 -0.00070966 0.79607843 0.45882353 0.78039216
v -0.04962666 -0.01148824 -0.00070966 0.79607843 0.45882353 0.78039216
f 1 2 3
f 1 3 8
f 1 8 13
f 1 13 18
f 1 18 14
f 1 14 9
f 1 9 4
f 1 4 10
f 1 10 15
f 1 15 20
f 1 20 28
f 1 28 27
f 1 27 26
f 1 26 25
f 1 25 33
f 1 33 38
f 1 38 42
f 1 42 43
f 1 43 39
f 1 39 34
f 1 34 29
f 1 29 22
f 1 22 17
f 1 17 12
f 1 12 6
f 1 6 2
f 2 5 3
f 2 6 11
f 2 11 7
f 2 7 5
f 3 5 7
f 3 7 8
f 4 9 10
f 6 12 16
f 6 16 11
f 7 11 16
f 7 16 21
f 7 21 23
f 7 23 31
f 7 31 30
f 7 30 35
f 7 35 40
f 7 40 45
f 7 45 46
f 7 46 41
f 7 41 36
f 7 36 32
f 7 32 24
f 7 24 18
f 7 18 13
f 7 13 8
f 9 14 10
f 10 14 19
f 10 19 15
f 12 17 21
f 12 21 16
f 14 18 24
f 14 24 19
f 15 19 20
f 17 22 23
f 17 23 21
f 19 24 32
f 19 32 25
f 19 25 26
f 19 26 27
f 19 27 28
f 19 28 20
f 22 29 30
f 22 30 31
f 22 31 23
f 25 32 33
f 29 34 30
f 30 34 35
f 32 36 37
f 32 37 33
f 33 37 38
f 34 39 40
f 34 40 35
f 36 41 37
f 37 41 38
f 38 41 46
f 38 46 42
f 39 43 40
f 40 43 44
f 40 44 45
f 42 46 44
f 42 44 43
f 44 46 45