# https://github.com/mikedh/trimesh
v -0.00280542 0.01200332 0.01009767 0.61176471 0.61568627 0.94117647
v -0.00280542 0.01198144 0.01032889 0.61176471 0.61568627 0.94117647
v -0.00280542 0.01200332 0.00573149 0.61176471 0.61568627 0.94117647
v -0.02098872 0.01200332 0.01009767 0.61176471 0.61568627 0.94117647
v -0.00280542 0.01198008 0.01033733 0.61176471 0.61568627 0.94117647
v -0.02098872 0.01198555 0.01028501 0.61176471 0.61568627 0.94117647
v -0.02098872 0.01198008 0.01033733 0.61176471 0.61568627 0.94117647
v -0.00280542 0.00521633 0.00573149 0.61176471 0.61568627 0.94117647
v -0.02098872 0.01200332 0.00573149 0.61176471 0.61568627 0.94117647
v -0.00280542 0.01197803 0.01034577 0.61176471 0.61568627 0.94117647
v -0.02098872 0.01197871 0.01034464 0.61176471 0.61568627 0.94117647
v -0.00280542 0.00502081 0.01001891 0.61176471 0.61568627 0.94117647
v -0.02098872 0.00521633 0.00573149 0.61176471 0.61568627 0.94117647
v -0.01150279 0.01197256 0.01036658 0.61176471 0.61568627 0.94117647
v -0.00280542 0.01192265 0.01054436 0.61176471 0.61568627 0.94117647
v -0.02098872 0.01196230 0.01040315 0.61176471 0.61568627 0.94117647
v -0.00280542 0.00502013 0.01003747 0.61176471 0.61568627 0.94117647
v -0.02098872 0.00502013 0.01003747 0.61176471 0.61568627 0.94117647
v -0.02098872 0.00502081 0.01001947 0.61176471 0.61568627 0.94117647
v -0.01188016 0.01193974 0.01048360 0.61176471 0.61568627 0.94117647
v -0.00280542 0.01191787 0.01056123 0.61176471 0.61568627 0.94117647
v -0.01188194 0.01193974 0.01048360 0.61176471 0.61568627 0.94117647
v -0.02098872 0.01193359 0.01050498 0.61176471 0.61568627 0.94117647
v -0.02098872 0.01191718 0.01056292 0.61176471 0.61568627 0.94117647
v -0.00280542 0.00502013 0.01014886 0.61176471 0.61568627 0.94117647
v -0.02098872 0.00502013 0.01014886 0.61176471 0.61568627 0.94117647
v -0.00280542 0.01191513 0.01056967 0.61176471 0.61568627 0.94117647
v -0.02098872 0.01191513 0.01056967 0.61176471 0.61568627 0.94117647
v -0.00280542 0.00502901 0.01025969 0.61176471 0.61568627 0.94117647
v -0.01187838 0.00502355 0.01020456 0.61176471 0.61568627 0.94117647
v -0.02098872 0.00502901 0.01025969 0.61176471 0.61568627 0.94117647
v -0.00280542 0.01191171 0.01057755 0.61176471 0.61568627 0.94117647
v -0.02098872 0.01191240 0.01057642 0.61176471 0.61568627 0.94117647
v -0.00280542 0.00504679 0.01036996 0.61176471 0.61568627 0.94117647
v -0.02098872 0.00504679 0.01036996 0.61176471 0.61568627 0.94117647
v -0.00280542 0.01186659 0.01067094 0.61176471 0.61568627 0.94117647
v -0.02098872 0.01181259 0.01078176 0.61176471 0.61568627 0.94117647
v -0.00280542 0.00507482 0.01047797 0.61176471 0.61568627 0.94117647
v -0.01188016 0.00506046 0.01042396 0.61176471 0.61568627 0.94117647
v -0.02098872 0.00507413 0.01047797 0.61176471 0.61568627 0.94117647
v -0.00280542 0.01181327 0.01078008 0.61176471 0.61568627 0.94117647
v -0.02098872 0.01180507 0.01079414 0.61176471 0.61568627 0.94117647
v -0.01188194 0.01180917 0.01078795 0.61176471 0.61568627 0.94117647
v -0.00280542 0.01180917 0.01078795 0.61176471 0.61568627 0.94117647
v -0.00280542 0.00511105 0.01058374 0.61176471 0.61568627 0.94117647
v -0.01188016 0.00509259 0.01053085 0.61176471 0.61568627 0.94117647
v -0.01188372 0.00511105 0.01058374 0.61176471 0.61568627 0.94117647
v -0.02098872 0.00511105 0.01058317 0.61176471 0.61568627 0.94117647
v -0.02098872 0.01166971 0.01097923 0.61176471 0.61568627 0.94117647
v -0.01150279 0.01171962 0.01091116 0.61176471 0.61568627 0.94117647
v -0.00280542 0.01180439 0.01079527 0.61176471 0.61568627 0.94117647
v -0.00280542 0.00515617 0.01068669 0.61176471 0.61568627 0.94117647
v -0.01190686 0.00513361 0.01063549 0.61176471 0.61568627 0.94117647
v -0.02098872 0.00515617 0.01068556 0.61176471 0.61568627 0.94117647
v -0.02098872 0.01166014 0.01098992 0.61176471 0.61568627 0.94117647
v -0.01188194 0.01166561 0.01098485 0.61176471 0.61568627 0.94117647
v -0.00280542 0.01168133 0.01096348 0.61176471 0.61568627 0.94117647
v -0.00280542 0.00521017 0.01078514 0.61176471 0.61568627 0.94117647
v -0.02098872 0.00520949 0.01078401 0.61176471 0.61568627 0.94117647
v -0.01188372 0.00515617 0.01068669 0.61176471 0.61568627 0.94117647
v -0.02098872 0.01161502 0.01103324 0.61176471 0.61568627 0.94117647
v -0.01188194 0.01148787 0.01115532 0.61176471 0.61568627 0.94117647
v -0.00280542 0.01166561 0.01098485 0.61176471 0.61568627 0.94117647
v -0.00280542 0.00527238 0.01087965 0.61176471 0.61568627 0.94117647
v -0.01188016 0.00524094 0.01083240 0.61176471 0.61568627 0.94117647
v -0.01188372 0.00521017 0.01078514 0.61176471 0.61568627 0.94117647
v -0.01191576 0.00524094 0.01083240 0.61176471 0.61568627 0.94117647
v -0.02098872 0.00527102 0.01087796 0.61176471 0.61568627 0.94117647
v -0.02098872 0.01152684 0.01111762 0.61176471 0.61568627 0.94117647
v -0.02098872 0.01149265 0.01115025 0.61176471 0.61568627 0.94117647
v -0.02098872 0.01148172 0.01115925 0.61176471 0.61568627 0.94117647
v -0.02098872 0.01128825 0.01128921 0.61176471 0.61568627 0.94117647
v -0.00280542 0.01148035 0.01116038 0.61176471 0.61568627 0.94117647
v -0.00280542 0.01148787 0.01115532 0.61176471 0.61568627 0.94117647
v -0.00280542 0.00541526 0.01104786 0.61176471 0.61568627 0.94117647
v -0.01188372 0.00541868 0.01105236 0.61176471 0.61568627 0.94117647
v -0.01188016 0.00527443 0.01088247 0.61176471 0.61568627 0.94117647
v -0.01188194 0.00527443 0.01088247 0.61176471 0.61568627 0.94117647
v -0.02098872 0.00527648 0.01088472 0.61176471 0.61568627 0.94117647
v -0.02098872 0.01127526 0.01129596 0.61176471 0.61568627 0.94117647
v -0.01188194 0.01128210 0.01129315 0.61176471 0.61568627 0.94117647
v -0.00280542 0.01128210 0.01129315 0.61176471 0.61568627 0.94117647
v -0.00280542 0.00542278 0.01105574 0.61176471 0.61568627 0.94117647
v -0.02098872 0.00541868 0.01105236 0.61176471 0.61568627 0.94117647
v -0.00280542 0.00558617 0.01119526 0.61176471 0.61568627 0.94117647
v -0.02098872 0.01123151 0.01131565 0.61176471 0.61568627 0.94117647
v -0.01188194 0.01119801 0.01133084 0.61176471 0.61568627 0.94117647
v -0.00280542 0.01117682 0.01134040 0.61176471 0.61568627 0.94117647
v -0.02098872 0.00559232 0.01119976 0.61176471 0.61568627 0.94117647
v -0.00280542 0.00559915 0.01120426 0.61176471 0.61568627 0.94117647
v -0.01188372 0.00559232 0.01119976 0.61176471 0.61568627 0.94117647
v -0.02098872 0.01105445 0.01139498 0.61176471 0.61568627 0.94117647
v -0.01188194 0.01108248 0.01138260 0.61176471 0.61568627 0.94117647
v -0.01188016 0.01108248 0.01138260 0.61176471 0.61568627 0.94117647
v -0.00280542 0.01105445 0.01139498 0.61176471 0.61568627 0.94117647
v -0.02098872 0.00560462 0.01120764 0.61176471 0.61568627 0.94117647
v -0.00280542 0.00577963 0.01131396 0.61176471 0.61568627 0.94117647
v -0.01188016 0.00578578 0.01131790 0.61176471 0.61568627 0.94117647
v -0.02098872 0.01081929 0.01145517 0.61176471 0.61568627 0.94117647
v -0.01188194 0.01084185 0.01144954 0.61176471 0.61568627 0.94117647
v -0.01150279 0.01090337 0.01143379 0.61176471 0.61568627 0.94117647
v -0.00280542 0.01096011 0.01141917 0.61176471 0.61568627 0.94117647
v -0.01188194 0.00578578 0.01131790 0.61176471 0.61568627 0.94117647
v -0.02098872 0.00578852 0.01131903 0.61176471 0.61568627 0.94117647
v -0.00280542 0.00578852 0.01131903 0.61176471 0.61568627 0.94117647
v -0.00280542 0.00579740 0.01132296 0.61176471 0.61568627 0.94117647
v -0.02098872 0.01081245 0.01145686 0.61176471 0.61568627 0.94117647
v -0.00280542 0.01081245 0.01145686 0.61176471 0.61568627 0.94117647
v -0.01188016 0.01084185 0.01144954 0.61176471 0.61568627 0.94117647
v -0.00280542 0.01083911 0.01145011 0.61176471 0.61568627 0.94117647
v -0.02098872 0.00579740 0.01132296 0.61176471 0.61568627 0.94117647
v -0.00280542 0.00600181 0.01140679 0.61176471 0.61568627 0.94117647
v -0.02098872 0.01074272 0.01146305 0.61176471 0.61568627 0.94117647
v -0.00280542 0.01080288 0.01145798 0.61176471 0.61568627 0.94117647
v -0.02098872 0.00600181 0.01140679 0.61176471 0.61568627 0.94117647
v -0.00280542 0.00621305 0.01145686 0.61176471 0.61568627 0.94117647
v -0.01188016 0.00611324 0.01143323 0.61176471 0.61568627 0.94117647
v -0.02098872 0.00601343 0.01140960 0.61176471 0.61568627 0.94117647
v -0.02098872 0.01056225 0.01147880 0.61176471 0.61568627 0.94117647
v -0.00280542 0.01056225 0.01147880 0.61176471 0.61568627 0.94117647
v -0.00280542 0.00622740 0.01145967 0.61176471 0.61568627 0.94117647
v -0.01188372 0.00622740 0.01146023 0.61176471 0.61568627 0.94117647
v -0.02098872 0.00622740 0.01146023 0.61176471 0.61568627 0.94117647
v -0.02098872 0.00645915 0.01147880 0.61176471 0.61568627 0.94117647
v -0.00280542 0.00659451 0.01147880 0.61176471 0.61568627 0.94117647
v -0.00280542 0.00624244 0.01146136 0.61176471 0.61568627 0.94117647
v -0.01188372 0.00645915 0.01147880 0.61176471 0.61568627 0.94117647
v -0.00280542 0.00645847 0.01147824 0.61176471 0.61568627 0.94117647
v -0.00280542 0.00644206 0.01147711 0.61176471 0.61568627 0.94117647
f 1 2 5
f 1 5 10
f 1 10 15
f 1 15 21
f 1 21 27
f 1 27 32
f 1 32 36
f 1 36 41
f 1 41 44
f 1 44 51
f 1 51 57
f 1 57 63
f 1 63 74
f 1 74 73
f 1 73 82
f 1 82 88
f 1 88 95
f 1 95 102
f 1 102 110
f 1 110 108
f 1 108 114
f 1 114 120
f 1 120 125
f 1 125 128
f 1 128 129
f 1 129 126
f 1 126 121
f 1 121 116
f 1 116 112
f 1 112 106
f 1 106 105
f 1 105 97
f 1 97 90
f 1 90 85
f 1 85 83
f 1 83 75
f 1 75 64
f 1 64 58
f 1 58 52
f 1 52 45
f 1 45 38
f 1 38 34
f 1 34 29
f 1 29 25
f 1 25 17
f 1 17 12
f 1 12 8
f 1 8 3
f 1 3 9
f 1 9 4
f 1 4 2
f 2 4 6
f 2 6 7
f 2 7 5
f 3 8 13
f 3 13 9
f 4 9 13
f 4 13 19
f 4 19 18
f 4 18 26
f 4 26 31
f 4 31 35
f 4 35 40
f 4 40 48
f 4 48 54
f 4 54 59
f 4 59 68
f 4 68 79
f 4 79 84
f 4 84 89
f 4 89 96
f 4 96 104
f 4 104 111
f 4 111 115
f 4 115 118
f 4 118 123
f 4 123 124
f 4 124 119
f 4 119 113
f 4 113 107
f 4 107 99
f 4 99 92
f 4 92 86
f 4 86 80
f 4 80 72
f 4 72 71
f 4 71 70
f 4 70 69
f 4 69 61
f 4 61 55
f 4 55 49
f 4 49 42
f 4 42 37
f 4 37 33
f 4 33 28
f 4 28 24
f 4 24 23
f 4 23 16
f 4 16 11
f 4 11 7
f 4 7 6
f 5 7 11
f 5 11 10
f 8 12 13
f 10 14 15
f 10 11 14
f 11 16 22
f 11 22 20
f 11 20 14
f 12 17 18
f 12 18 19
f 12 19 13
f 14 20 15
f 15 20 22
f 15 22 23
f 15 23 24
f 15 24 21
f 16 23 22
f 17 25 26
f 17 26 18
f 21 24 28
f 21 28 27
f 25 29 30
f 25 30 26
f 26 30 31
f 27 28 33
f 27 33 32
f 29 34 35
f 29 35 31
f 29 31 30
f 32 33 36
f 33 37 36
f 34 38 39
f 34 39 40
f 34 40 35
f 36 37 41
f 37 42 43
f 37 43 44
f 37 44 41
f 38 45 46
f 38 46 40
f 38 40 39
f 40 47 48
f 40 46 45
f 40 45 47
f 42 49 50
f 42 50 51
f 42 51 43
f 43 51 44
f 45 52 53
f 45 53 47
f 47 53 48
f 48 53 54
f 49 55 56
f 49 56 57
f 49 57 50
f 50 57 51
f 52 58 59
f 52 59 60
f 52 60 53
f 53 60 54
f 54 60 59
f 55 61 56
f 56 61 62
f 56 62 74
f 56 74 63
f 56 63 57
f 58 64 65
f 58 65 67
f 58 67 66
f 58 66 59
f 59 66 67
f 59 67 68
f 61 69 62
f 62 69 70
f 62 70 71
f 62 71 72
f 62 72 73
f 62 73 74
f 64 75 76
f 64 76 77
f 64 77 68
f 64 68 65
f 65 68 67
f 68 78 79
f 68 77 78
f 72 80 81
f 72 81 82
f 72 82 73
f 75 83 76
f 76 84 78
f 76 78 77
f 76 83 85
f 76 85 84
f 78 84 79
f 80 86 81
f 81 86 87
f 81 87 88
f 81 88 82
f 84 85 89
f 85 90 91
f 85 91 89
f 86 92 87
f 87 92 93
f 87 93 88
f 88 94 95
f 88 93 94
f 89 91 90
f 89 90 96
f 90 97 98
f 90 98 96
f 92 99 100
f 92 100 101
f 92 101 95
f 92 95 94
f 92 94 93
f 95 101 102
f 96 103 104
f 96 98 103
f 97 105 98
f 98 105 106
f 98 106 111
f 98 111 103
f 99 107 108
f 99 108 109
f 99 109 100
f 100 109 101
f 101 109 102
f 102 109 110
f 103 111 104
f 106 112 115
f 106 115 111
f 107 113 114
f 107 114 108
f 108 110 109
f 112 116 117
f 112 117 118
f 112 118 115
f 113 119 114
f 114 119 120
f 116 121 122
f 116 122 123
f 116 123 118
f 116 118 117
f 119 124 127
f 119 127 125
f 119 125 120
f 121 126 122
f 122 127 124
f 122 124 123
f 122 126 127
f 125 127 128
f 126 129 127
f 127 129 128