# https://github.com/mikedh/trimesh
v 0.05008488 0.01200267 -0.00578405 0.11764706 0.63921569 0.14117647
v 0.05008488 0.01200267 -0.01014636 0.11764706 0.63921569 0.14117647
v -0.01187362 0.01200267 -0.00578405 0.11764706 0.63921569 0.14117647
v 0.05035340 0.01198051 -0.00578405 0.11764706 0.63921569 0.14117647
v 0.05008488 0.01198051 -0.01038584 0.11764706 0.63921569 0.14117647
v 0.03776280 0.01198898 -0.01029646 0.11764706 0.63921569 0.14117647
v -0.01188356 0.01198116 -0.01038528 0.11764706 0.63921569 0.14117647
v -0.02381778 0.01199745 -0.01020595 0.11764706 0.63921569 0.14117647
v -0.01187362 0.01200267 -0.01014636 0.11764706 0.63921569 0.14117647
v 0.05035340 0.01198051 -0.01014636 0.11764706 0.63921569 0.14117647
v 0.05035340 0.01195900 -0.01038190 0.11764706 0.63921569 0.14117647
v -0.04845200 0.01200267 -0.00578461 0.11764706 0.63921569 0.14117647
v -0.04851167 0.01199811 -0.00578461 0.11764706 0.63921569 0.14117647
v -0.04872052 0.01198116 -0.00578461 0.11764706 0.63921569 0.14117647
v -0.04897910 0.01191598 -0.00578461 0.11764706 0.63921569 0.14117647
v -0.04921778 0.01180975 -0.00578461 0.11764706 0.63921569 0.14117647
v -0.04943657 0.01166571 -0.00578461 0.11764706 0.63921569 0.14117647
v -0.04961559 0.01148778 -0.00578461 0.11764706 0.63921569 0.14117647
v -0.04965537 0.01144411 -0.00578461 0.11764706 0.63921569 0.14117647
v -0.04977471 0.01128247 -0.00578461 0.11764706 0.63921569 0.14117647
v -0.04988411 0.01105501 -0.00578461 0.11764706 0.63921569 0.14117647
v -0.04990400 0.01100287 -0.00578461 0.11764706 0.63921569 0.14117647
v -0.04995372 0.01081255 -0.00578461 0.11764706 0.63921569 0.14117647
v -0.04996367 0.01075845 -0.00578461 0.11764706 0.63921569 0.14117647
v -0.04998356 0.01056227 -0.00578461 0.11764706 0.63921569 0.14117647
v -0.01187362 0.00574118 -0.00578405 0.11764706 0.63921569 0.14117647
v 0.05055231 0.01192967 -0.00578405 0.11764706 0.63921569 0.14117647
v 0.05035340 0.01189513 -0.01061126 0.11764706 0.63921569 0.14117647
v 0.05008488 0.01191533 -0.01061857 0.11764706 0.63921569 0.14117647
v 0.03776280 0.01195639 -0.01047241 0.11764706 0.63921569 0.14117647
v 0.01312858 0.01194010 -0.01053144 0.11764706 0.63921569 0.14117647
v -0.01188356 0.01191598 -0.01061801 0.11764706 0.63921569 0.14117647
v -0.04845200 0.01198116 -0.01038528 0.11764706 0.63921569 0.14117647
v -0.04845200 0.01200267 -0.01014580 0.11764706 0.63921569 0.14117647
v 0.05060203 0.01191533 -0.01014636 0.11764706 0.63921569 0.14117647
v 0.05060203 0.01189513 -0.01037178 0.11764706 0.63921569 0.14117647
v -0.04872052 0.01198116 -0.01014580 0.11764706 0.63921569 0.14117647
v -0.04897910 0.01191598 -0.01014580 0.11764706 0.63921569 0.14117647
v -0.04921778 0.01180975 -0.01014580 0.11764706 0.63921569 0.14117647
v -0.04943657 0.01166571 -0.01014580 0.11764706 0.63921569 0.14117647
v -0.04961559 0.01148778 -0.01014580 0.11764706 0.63921569 0.14117647
v -0.04977471 0.01128247 -0.01014580 0.11764706 0.63921569 0.14117647
v -0.04988411 0.01105501 -0.01014580 0.11764706 0.63921569 0.14117647
v -0.04995372 0.01081255 -0.01014580 0.11764706 0.63921569 0.14117647
v -0.04998356 0.01056227 -0.01014580 0.11764706 0.63921569 0.14117647
v -0.04998356 0.00573988 -0.00578461 0.11764706 0.63921569 0.14117647
v -0.00199805 0.00534491 -0.00578405 0.11764706 0.63921569 0.14117647
v 0.05060203 0.01191533 -0.00578405 0.11764706 0.63921569 0.14117647
v 0.05035340 0.01179019 -0.01082544 0.11764706 0.63921569 0.14117647
v 0.05008488 0.01180910 -0.01083669 0.11764706 0.63921569 0.14117647
v 0.05060203 0.01183386 -0.01058990 0.11764706 0.63921569 0.14117647
v 0.05060203 0.01173414 -0.01079452 0.11764706 0.63921569 0.14117647
v 0.03776280 0.01192381 -0.01058878 0.11764706 0.63921569 0.14117647
v 0.02544071 0.01188926 -0.01067310 0.11764706 0.63921569 0.14117647
v -0.04845200 0.01191598 -0.01061801 0.11764706 0.63921569 0.14117647
v -0.01187362 0.01190295 -0.01064499 0.11764706 0.63921569 0.14117647
v -0.04850173 0.01198116 -0.01038190 0.11764706 0.63921569 0.14117647
v -0.04854150 0.01198116 -0.01037122 0.11764706 0.63921569 0.14117647
v -0.04858129 0.01198116 -0.01035323 0.11764706 0.63921569 0.14117647
v -0.04862107 0.01198116 -0.01032962 0.11764706 0.63921569 0.14117647
v -0.04865091 0.01198116 -0.01029983 0.11764706 0.63921569 0.14117647
v -0.04868074 0.01198116 -0.01026554 0.11764706 0.63921569 0.14117647
v -0.04870063 0.01198116 -0.01022787 0.11764706 0.63921569 0.14117647
v -0.04871058 0.01198116 -0.01018740 0.11764706 0.63921569 0.14117647
v 0.05066170 0.01189252 -0.00578405 0.11764706 0.63921569 0.14117647
v 0.05085066 0.01180910 -0.01014636 0.11764706 0.63921569 0.14117647
v 0.05085066 0.01179019 -0.01035323 0.11764706 0.63921569 0.14117647
v 0.05085066 0.01173414 -0.01055505 0.11764706 0.63921569 0.14117647
v -0.04896915 0.01191598 -0.01022787 0.11764706 0.63921569 0.14117647
v -0.04919789 0.01180975 -0.01026554 0.11764706 0.63921569 0.14117647
v -0.04941669 0.01166571 -0.01029983 0.11764706 0.63921569 0.14117647
v -0.04960565 0.01148778 -0.01032962 0.11764706 0.63921569 0.14117647
v -0.04975482 0.01128247 -0.01035323 0.11764706 0.63921569 0.14117647
v -0.04986422 0.01105501 -0.01037122 0.11764706 0.63921569 0.14117647
v -0.04993383 0.01081255 -0.01038190 0.11764706 0.63921569 0.14117647
v -0.04996367 0.00573988 -0.01033075 0.11764706 0.63921569 0.14117647
v -0.04998356 0.00573988 -0.01014580 0.11764706 0.63921569 0.14117647
v -0.04995372 0.01056227 -0.01038528 0.11764706 0.63921569 0.14117647
v -0.00177925 0.00534491 -0.01020651 0.11764706 0.63921569 0.14117647
v 0.05161644 0.00534491 -0.00578405 0.11764706 0.63921569 0.14117647
v 0.05035340 0.01164876 -0.01101995 0.11764706 0.63921569 0.14117647
v 0.05008488 0.01166571 -0.01103344 0.11764706 0.63921569 0.14117647
v 0.02544071 0.01170155 -0.01098453 0.11764706 0.63921569 0.14117647
v -0.02381778 0.01170221 -0.01098397 0.11764706 0.63921569 0.14117647
v -0.01188356 0.01180975 -0.01083612 0.11764706 0.63921569 0.14117647
v -0.01188356 0.01187688 -0.01069896 0.11764706 0.63921569 0.14117647
v 0.05085066 0.01164224 -0.01074393 0.11764706 0.63921569 0.14117647
v 0.05060203 0.01159858 -0.01097947 0.11764706 0.63921569 0.14117647
v 0.05085066 0.01151776 -0.01091482 0.11764706 0.63921569 0.14117647
v -0.04845200 0.01180975 -0.01083612 0.11764706 0.63921569 0.14117647
v -0.04854150 0.01191598 -0.01061070 0.11764706 0.63921569 0.14117647
v -0.04863102 0.01191598 -0.01058934 0.11764706 0.63921569 0.14117647
v -0.04871058 0.01191598 -0.01055448 0.11764706 0.63921569 0.14117647
v -0.04879014 0.01191598 -0.01050726 0.11764706 0.63921569 0.14117647
v -0.04884981 0.01191598 -0.01044936 0.11764706 0.63921569 0.14117647
v -0.04889954 0.01191598 -0.01038190 0.11764706 0.63921569 0.14117647
v -0.04893931 0.01191598 -0.01030714 0.11764706 0.63921569 0.14117647
v 0.05080093 0.01183256 -0.00578405 0.11764706 0.63921569 0.14117647
v 0.05085066 0.01180910 -0.00578405 0.11764706 0.63921569 0.14117647
v 0.05106946 0.01166506 -0.01014636 0.11764706 0.63921569 0.14117647
v 0.05106946 0.01164876 -0.01032962 0.11764706 0.63921569 0.14117647
v 0.05106946 0.01159858 -0.01050783 0.11764706 0.63921569 0.14117647
v 0.05106946 0.01151776 -0.01067535 0.11764706 0.63921569 0.14117647
v -0.04916806 0.01180975 -0.01038190 0.11764706 0.63921569 0.14117647
v -0.04937690 0.01166571 -0.01044936 0.11764706 0.63921569 0.14117647
v -0.04954597 0.01148778 -0.01050726 0.11764706 0.63921569 0.14117647
v -0.04969515 0.01128247 -0.01055448 0.11764706 0.63921569 0.14117647
v -0.04986422 0.01081255 -0.01061070 0.11764706 0.63921569 0.14117647
v -0.04979460 0.01105501 -0.01058934 0.11764706 0.63921569 0.14117647
v -0.04988411 0.01056227 -0.01061801 0.11764706 0.63921569 0.14117647
v -0.04995372 0.00573988 -0.01038528 0.11764706 0.63921569 0.14117647
v -0.00174942 0.00534491 -0.01043868 0.11764706 0.63921569 0.14117647
v -0.00176931 0.00534491 -0.01032288 0.11764706 0.63921569 0.14117647
v 0.05161644 0.00534491 -0.01014636 0.11764706 0.63921569 0.14117647
v 0.05161644 0.01056227 -0.00578405 0.11764706 0.63921569 0.14117647
v 0.05035340 0.01147409 -0.01118747 0.11764706 0.63921569 0.14117647
v 0.05060203 0.01143172 -0.01114025 0.11764706 0.63921569 0.14117647
v 0.05008488 0.01148778 -0.01120377 0.11764706 0.63921569 0.14117647
v 0.03776280 0.01155426 -0.01114025 0.11764706 0.63921569 0.14117647
v -0.03612992 0.01155491 -0.01113969 0.11764706 0.63921569 0.14117647
v -0.01187362 0.01166571 -0.01103344 0.11764706 0.63921569 0.14117647
v -0.04845200 0.01166571 -0.01103288 0.11764706 0.63921569 0.14117647
v 0.05085066 0.01136394 -0.01106211 0.11764706 0.63921569 0.14117647
v 0.05106946 0.01140696 -0.01082544 0.11764706 0.63921569 0.14117647
v 0.05106946 0.01127139 -0.01095586 0.11764706 0.63921569 0.14117647
v -0.04862107 0.01166571 -0.01101939 0.11764706 0.63921569 0.14117647
v -0.04858129 0.01180975 -0.01082544 0.11764706 0.63921569 0.14117647
v -0.04871058 0.01180975 -0.01079452 0.11764706 0.63921569 0.14117647
v -0.04882992 0.01180975 -0.01074337 0.11764706 0.63921569 0.14117647
v -0.04893931 0.01180975 -0.01067478 0.11764706 0.63921569 0.14117647
v -0.04903877 0.01180975 -0.01058934 0.11764706 0.63921569 0.14117647
v -0.04910838 0.01180975 -0.01049096 0.11764706 0.63921569 0.14117647
v 0.05106946 0.01166506 -0.00578405 0.11764706 0.63921569 0.14117647
v 0.05121863 0.01152623 -0.00578405 0.11764706 0.63921569 0.14117647
v 0.05124847 0.01148778 -0.01014636 0.11764706 0.63921569 0.14117647
v 0.05124847 0.01147409 -0.01030039 0.11764706 0.63921569 0.14117647
v 0.05124847 0.01143172 -0.01044992 0.11764706 0.63921569 0.14117647
v 0.05124847 0.01136394 -0.01058990 0.11764706 0.63921569 0.14117647
v 0.05124847 0.01127139 -0.01071638 0.11764706 0.63921569 0.14117647
v -0.04929734 0.01166571 -0.01058934 0.11764706 0.63921569 0.14117647
v -0.04946641 0.01148778 -0.01067478 0.11764706 0.63921569 0.14117647
v -0.04959570 0.01128247 -0.01074337 0.11764706 0.63921569 0.14117647
v -0.04969515 0.01105501 -0.01079452 0.11764706 0.63921569 0.14117647
v -0.04975482 0.01081255 -0.01082544 0.11764706 0.63921569 0.14117647
v -0.04977471 0.01056227 -0.01083612 0.11764706 0.63921569 0.14117647
v -0.04988411 0.00573988 -0.01061801 0.11764706 0.63921569 0.14117647
v -0.00170964 0.00534491 -0.01055167 0.11764706 0.63921569 0.14117647
v 0.05159654 0.00534491 -0.01032681 0.11764706 0.63921569 0.14117647
v 0.05161644 0.01056227 -0.01014636 0.11764706 0.63921569 0.14117647
v 0.05159654 0.01075845 -0.00578405 0.11764706 0.63921569 0.14117647
v 0.05035340 0.01127139 -0.01132351 0.11764706 0.63921569 0.14117647
v 0.05008488 0.01128247 -0.01134206 0.11764706 0.63921569 0.14117647
v 0.05060203 0.01123880 -0.01126898 0.11764706 0.63921569 0.14117647
v 0.05085066 0.01118601 -0.01118129 0.11764706 0.63921569 0.14117647
v 0.03776280 0.01146236 -0.01122120 0.11764706 0.63921569 0.14117647
v -0.01187362 0.01148778 -0.01120377 0.11764706 0.63921569 0.14117647
v -0.03612992 0.01151059 -0.01118185 0.11764706 0.63921569 0.14117647
v -0.04845200 0.01148778 -0.01120321 0.11764706 0.63921569 0.14117647
v 0.05106946 0.01111366 -0.01106211 0.11764706 0.63921569 0.14117647
v 0.05124847 0.01115733 -0.01082544 0.11764706 0.63921569 0.14117647
v 0.05124847 0.01102503 -0.01091482 0.11764706 0.63921569 0.14117647
v -0.04865091 0.01148778 -0.01118691 0.11764706 0.63921569 0.14117647
v -0.04879014 0.01166571 -0.01097947 0.11764706 0.63921569 0.14117647
v -0.04893931 0.01166571 -0.01091426 0.11764706 0.63921569 0.14117647
v -0.04907855 0.01166571 -0.01082544 0.11764706 0.63921569 0.14117647
v -0.04919789 0.01166571 -0.01071638 0.11764706 0.63921569 0.14117647
v 0.05124847 0.01148778 -0.00578405 0.11764706 0.63921569 0.14117647
v 0.05140759 0.01128247 -0.01014636 0.11764706 0.63921569 0.14117647
v 0.05140759 0.01127139 -0.01026554 0.11764706 0.63921569 0.14117647
v 0.05140759 0.01123880 -0.01038190 0.11764706 0.63921569 0.14117647
v 0.05140759 0.01118601 -0.01049096 0.11764706 0.63921569 0.14117647
v 0.05140759 0.01111366 -0.01058990 0.11764706 0.63921569 0.14117647
v 0.05140759 0.01102503 -0.01067535 0.11764706 0.63921569 0.14117647
v -0.04934707 0.01148778 -0.01082544 0.11764706 0.63921569 0.14117647
v -0.04946641 0.01128247 -0.01091426 0.11764706 0.63921569 0.14117647
v -0.04954597 0.01105501 -0.01097947 0.11764706 0.63921569 0.14117647
v -0.04960565 0.01081255 -0.01101939 0.11764706 0.63921569 0.14117647
v -0.04961559 0.01056227 -0.01103288 0.11764706 0.63921569 0.14117647
v -0.04977471 0.00573988 -0.01083612 0.11764706 0.63921569 0.14117647
v -0.00166986 0.00534491 -0.01066186 0.11764706 0.63921569 0.14117647
v 0.05158660 0.00534491 -0.01038584 0.11764706 0.63921569 0.14117647
v 0.05158660 0.01056227 -0.01038584 0.11764706 0.63921569 0.14117647
v 0.05158660 0.01060529 -0.01038190 0.11764706 0.63921569 0.14117647
v 0.05158660 0.01064765 -0.01037178 0.11764706 0.63921569 0.14117647
v 0.05158660 0.01068741 -0.01035323 0.11764706 0.63921569 0.14117647
v 0.05158660 0.01072261 -0.01032962 0.11764706 0.63921569 0.14117647
v 0.05158660 0.01075389 -0.01030039 0.11764706 0.63921569 0.14117647
v 0.05158660 0.01077866 -0.01026554 0.11764706 0.63921569 0.14117647
v 0.05158660 0.01079691 -0.01022787 0.11764706 0.63921569 0.14117647
v 0.05158660 0.01080864 -0.01018740 0.11764706 0.63921569 0.14117647
v 0.05158660 0.01081190 -0.01014636 0.11764706 0.63921569 0.14117647
v 0.05158660 0.01081190 -0.00578405 0.11764706 0.63921569 0.14117647
v 0.05060203 0.01102503 -0.01136511 0.11764706 0.63921569 0.14117647
v 0.05035340 0.01104719 -0.01142301 0.11764706 0.63921569 0.14117647
v 0.05008488 0.01105435 -0.01144269 0.11764706 0.63921569 0.14117647
v 0.03776280 0.01108303 -0.01143032 0.11764706 0.63921569 0.14117647
v -0.01187362 0.01114234 -0.01140446 0.11764706 0.63921569 0.14117647
v -0.01187362 0.01128247 -0.01134206 0.11764706 0.63921569 0.14117647
v 0.05085066 0.01098853 -0.01126898 0.11764706 0.63921569 0.14117647
v 0.05106946 0.01093964 -0.01114025 0.11764706 0.63921569 0.14117647
v -0.01149570 0.01146236 -0.01122120 0.11764706 0.63921569 0.14117647
v -0.04845200 0.01128247 -0.01134150 0.11764706 0.63921569 0.14117647
v -0.04868074 0.01128247 -0.01132295 0.11764706 0.63921569 0.14117647
v 0.05124847 0.01087903 -0.01097947 0.11764706 0.63921569 0.14117647
v 0.05140759 0.01092205 -0.01074393 0.11764706 0.63921569 0.14117647
v 0.05140759 0.01080864 -0.01079452 0.11764706 0.63921569 0.14117647
v -0.04884981 0.01148778 -0.01113969 0.11764706 0.63921569 0.14117647
v -0.04903877 0.01148778 -0.01106155 0.11764706 0.63921569 0.14117647
v -0.04919789 0.01148778 -0.01095586 0.11764706 0.63921569 0.14117647
v 0.05140759 0.01128247 -0.00578405 0.11764706 0.63921569 0.14117647
v 0.05151699 0.01105435 -0.01014636 0.11764706 0.63921569 0.14117647
v 0.05151699 0.01104719 -0.01022787 0.11764706 0.63921569 0.14117647
v 0.05151699 0.01102503 -0.01030770 0.11764706 0.63921569 0.14117647
v 0.05151699 0.01098853 -0.01038190 0.11764706 0.63921569 0.14117647
v 0.05151699 0.01093964 -0.01044992 0.11764706 0.63921569 0.14117647
v 0.05151699 0.01087903 -0.01050783 0.11764706 0.63921569 0.14117647
v 0.05151699 0.01080864 -0.01055505 0.11764706 0.63921569 0.14117647
v -0.04929734 0.01128247 -0.01106155 0.11764706 0.63921569 0.14117647
v -0.04937690 0.01105501 -0.01113969 0.11764706 0.63921569 0.14117647
v -0.04941669 0.01081255 -0.01118691 0.11764706 0.63921569 0.14117647
v -0.04943657 0.01056227 -0.01120321 0.11764706 0.63921569 0.14117647
v -0.04961559 0.00573988 -0.01103288 0.11764706 0.63921569 0.14117647
v -0.00148090 0.00534491 -0.01096767 0.11764706 0.63921569 0.14117647
v -0.00155051 0.00534491 -0.01087041 0.11764706 0.63921569 0.14117647
v -0.00161019 0.00534491 -0.01077541 0.11764706 0.63921569 0.14117647
v 0.05151699 0.00534491 -0.01061857 0.11764706 0.63921569 0.14117647
v 0.05151699 0.01056227 -0.01061857 0.11764706 0.63921569 0.14117647
v 0.05151699 0.01064765 -0.01061126 0.11764706 0.63921569 0.14117647
v 0.05151699 0.01073043 -0.01058990 0.11764706 0.63921569 0.14117647
v 0.05151699 0.01105435 -0.00578405 0.11764706 0.63921569 0.14117647
v 0.05060203 0.01079691 -0.01142301 0.11764706 0.63921569 0.14117647
v 0.05035340 0.01080864 -0.01148485 0.11764706 0.63921569 0.14117647
v 0.05085066 0.01077866 -0.01132351 0.11764706 0.63921569 0.14117647
v 0.05008488 0.01081190 -0.01150565 0.11764706 0.63921569 0.14117647
v 0.03776280 0.01102437 -0.01145112 0.11764706 0.63921569 0.14117647
v -0.01187362 0.01102503 -0.01145112 0.11764706 0.63921569 0.14117647
v -0.01188356 0.01105501 -0.01144269 0.11764706 0.63921569 0.14117647
v -0.04845200 0.01105501 -0.01144269 0.11764706 0.63921569 0.14117647
v 0.05106946 0.01075389 -0.01118747 0.11764706 0.63921569 0.14117647
v 0.05124847 0.01072261 -0.01101995 0.11764706 0.63921569 0.14117647
v -0.04870063 0.01105501 -0.01142301 0.11764706 0.63921569 0.14117647
v -0.04893931 0.01105501 -0.01136455 0.11764706 0.63921569 0.14117647
v -0.04889954 0.01128247 -0.01126898 0.11764706 0.63921569 0.14117647
v 0.05140759 0.01068741 -0.01082544 0.11764706 0.63921569 0.14117647
v -0.04910838 0.01128247 -0.01118129 0.11764706 0.63921569 0.14117647
v -0.04916806 0.01105501 -0.01126898 0.11764706 0.63921569 0.14117647
v -0.04919789 0.01081255 -0.01132295 0.11764706 0.63921569 0.14117647
v -0.04921778 0.01056227 -0.01134150 0.11764706 0.63921569 0.14117647
v -0.04943657 0.00573988 -0.01120321 0.11764706 0.63921569 0.14117647
v -0.00140134 0.00534491 -0.01105817 0.11764706 0.63921569 0.14117647
v 0.05140759 0.00534491 -0.01083669 0.11764706 0.63921569 0.14117647
v 0.05140759 0.01056227 -0.01083669 0.11764706 0.63921569 0.14117647
v 0.05085066 0.01056227 -0.01134206 0.11764706 0.63921569 0.14117647
v 0.05060203 0.01056227 -0.01144269 0.11764706 0.63921569 0.14117647
v 0.05035340 0.01056227 -0.01150565 0.11764706 0.63921569 0.14117647
v 0.03776280 0.01090315 -0.01148260 0.11764706 0.63921569 0.14117647
v 0.05008488 0.01056227 -0.01152645 0.11764706 0.63921569 0.14117647
v 0.03776280 0.01059356 -0.01152420 0.11764706 0.63921569 0.14117647
v -0.01187362 0.01078192 -0.01150846 0.11764706 0.63921569 0.14117647
v -0.01187362 0.01081190 -0.01150565 0.11764706 0.63921569 0.14117647
v -0.01187362 0.01084318 -0.01149778 0.11764706 0.63921569 0.14117647
v -0.01149570 0.01090315 -0.01148260 0.11764706 0.63921569 0.14117647
v -0.03612992 0.01090380 -0.01148204 0.11764706 0.63921569 0.14117647
v -0.04845200 0.01081255 -0.01150509 0.11764706 0.63921569 0.14117647
v 0.05106946 0.01056227 -0.01120377 0.11764706 0.63921569 0.14117647
v 0.05124847 0.01056227 -0.01103344 0.11764706 0.63921569 0.14117647
v -0.04871058 0.01081255 -0.01148429 0.11764706 0.63921569 0.14117647
v -0.04896915 0.01081255 -0.01142301 0.11764706 0.63921569 0.14117647
v -0.04897910 0.01056227 -0.01144269 0.11764706 0.63921569 0.14117647
v -0.04921778 0.00573988 -0.01134150 0.11764706 0.63921569 0.14117647
v -0.00121238 0.00534491 -0.01122064 0.11764706 0.63921569 0.14117647
v 0.05124847 0.00534491 -0.01103344 0.11764706 0.63921569 0.14117647
v 0.05085066 0.00534491 -0.01134206 0.11764706 0.63921569 0.14117647
v 0.05067165 0.00534491 -0.01141851 0.11764706 0.63921569 0.14117647
v 0.05060203 0.00534491 -0.01144269 0.11764706 0.63921569 0.14117647
v 0.05054236 0.00534491 -0.01145899 0.11764706 0.63921569 0.14117647
v 0.05035340 0.00534491 -0.01150565 0.11764706 0.63921569 0.14117647
v 0.05008488 0.00534491 -0.01152701 0.11764706 0.63921569 0.14117647
v -0.01187362 0.01056227 -0.01152645 0.11764706 0.63921569 0.14117647
v -0.01187362 0.01059421 -0.01152420 0.11764706 0.63921569 0.14117647
v -0.03612992 0.01059356 -0.01152364 0.11764706 0.63921569 0.14117647
v -0.04845200 0.01056227 -0.01152589 0.11764706 0.63921569 0.14117647
v -0.04872052 0.01056227 -0.01150509 0.11764706 0.63921569 0.14117647
v 0.05120868 0.00534491 -0.01107560 0.11764706 0.63921569 0.14117647
v 0.05106946 0.00534491 -0.01120377 0.11764706 0.63921569 0.14117647
v -0.04897910 0.00573988 -0.01144269 0.11764706 0.63921569 0.14117647
v -0.04878020 0.00573988 -0.01149103 0.11764706 0.63921569 0.14117647
v -0.04891942 0.00573988 -0.01145730 0.11764706 0.63921569 0.14117647
v -0.00100353 0.00534491 -0.01135162 0.11764706 0.63921569 0.14117647
v -0.00025764 0.00534491 -0.01152645 0.11764706 0.63921569 0.14117647
v -0.04845200 0.00573988 -0.01152645 0.11764706 0.63921569 0.14117647
v -0.04866085 0.00573988 -0.01151015 0.11764706 0.63921569 0.14117647
v -0.04872052 0.00573988 -0.01150509 0.11764706 0.63921569 0.14117647
v -0.00076485 0.00534491 -0.01144718 0.11764706 0.63921569 0.14117647
v -0.00079468 0.00534491 -0.01143707 0.11764706 0.63921569 0.14117647
v -0.00051622 0.00534491 -0.01150621 0.11764706 0.63921569 0.14117647
v -0.00028748 0.00534491 -0.01152420 0.11764706 0.63921569 0.14117647
v -0.00048638 0.00534491 -0.01150902 0.11764706 0.63921569 0.14117647
f 1 2 9
f 1 9 34
f 1 34 12
f 1 12 3
f 1 3 26
f 1 26 47
f 1 47 80
f 1 80 115
f 1 115 150
f 1 150 192
f 1 192 230
f 1 230 210
f 1 210 167
f 1 167 134
f 1 134 133
f 1 133 99
f 1 99 98
f 1 98 65
f 1 65 48
f 1 48 27
f 1 27 4
f 1 4 10
f 1 10 2
f 2 5 6
f 2 6 7
f 2 7 8
f 2 8 9
f 2 10 11
f 2 11 5
f 3 12 13
f 3 13 14
f 3 14 15
f 3 15 16
f 3 16 17
f 3 17 18
f 3 18 19
f 3 19 20
f 3 20 21
f 3 21 22
f 3 22 23
f 3 23 24
f 3 24 25
f 3 25 46
f 3 46 26
f 4 27 10
f 5 11 28
f 5 28 29
f 5 29 53
f 5 53 30
f 5 30 31
f 5 31 7
f 5 7 6
f 7 32 55
f 7 55 33
f 7 33 8
f 7 31 32
f 8 33 34
f 8 34 9
f 10 27 35
f 10 35 36
f 10 36 11
f 11 36 28
f 12 34 13
f 13 34 37
f 13 37 14
f 14 37 38
f 14 38 15
f 15 38 39
f 15 39 16
f 16 39 40
f 16 40 17
f 17 40 41
f 17 41 18
f 18 41 19
f 19 41 42
f 19 42 20
f 20 42 43
f 20 43 21
f 21 43 22
f 22 43 44
f 22 44 23
f 23 44 24
f 24 44 45
f 24 45 25
f 25 45 77
f 25 77 46
f 26 46 47
f 27 48 35
f 28 49 50
f 28 50 29
f 28 36 51
f 28 51 52
f 28 52 49
f 29 50 54
f 29 54 32
f 29 32 53
f 30 53 31
f 31 53 32
f 32 54 56
f 32 56 86
f 32 86 55
f 33 55 57
f 33 57 34
f 34 57 58
f 34 58 59
f 34 59 60
f 34 60 61
f 34 61 62
f 34 62 63
f 34 63 64
f 34 64 37
f 35 48 65
f 35 65 66
f 35 66 36
f 36 66 67
f 36 67 68
f 36 68 51
f 37 64 69
f 37 69 38
f 38 69 39
f 39 69 70
f 39 70 71
f 39 71 40
f 40 71 72
f 40 72 41
f 41 72 42
f 42 72 73
f 42 73 74
f 42 74 43
f 43 74 75
f 43 75 44
f 44 75 45
f 45 76 77
f 45 75 78
f 45 78 76
f 46 77 47
f 47 79 113
f 47 113 112
f 47 112 147
f 47 147 180
f 47 180 225
f 47 225 224
f 47 224 223
f 47 223 250
f 47 250 271
f 47 271 289
f 47 289 295
f 47 295 294
f 47 294 296
f 47 296 298
f 47 298 297
f 47 297 290
f 47 290 278
f 47 278 277
f 47 277 276
f 47 276 275
f 47 275 274
f 47 274 273
f 47 273 285
f 47 285 284
f 47 284 272
f 47 272 251
f 47 251 226
f 47 226 181
f 47 181 148
f 47 148 114
f 47 114 80
f 47 77 79
f 49 81 50
f 49 52 81
f 50 81 82
f 50 82 83
f 50 83 84
f 50 84 85
f 50 85 86
f 50 86 54
f 51 68 87
f 51 87 52
f 52 88 81
f 52 87 89
f 52 89 88
f 54 86 56
f 55 90 91
f 55 91 57
f 55 86 90
f 57 91 92
f 57 92 58
f 58 92 93
f 58 93 59
f 59 93 94
f 59 94 60
f 60 94 95
f 60 95 61
f 61 95 62
f 62 95 96
f 62 96 97
f 62 97 63
f 63 97 69
f 63 69 64
f 65 98 66
f 66 98 99
f 66 99 133
f 66 133 100
f 66 100 101
f 66 101 67
f 67 101 68
f 68 101 102
f 68 102 103
f 68 103 87
f 69 97 104
f 69 104 70
f 70 104 71
f 71 104 105
f 71 105 72
f 72 106 107
f 72 107 73
f 72 105 106
f 73 107 74
f 74 108 75
f 74 107 109
f 74 109 108
f 75 108 110
f 75 110 78
f 76 111 112
f 76 112 113
f 76 113 77
f 76 78 111
f 77 113 79
f 78 110 146
f 78 146 111
f 80 114 149
f 80 149 115
f 81 116 82
f 81 88 117
f 81 117 116
f 82 118 119
f 82 119 120
f 82 120 121
f 82 121 84
f 82 84 83
f 82 116 118
f 84 122 90
f 84 90 85
f 84 121 122
f 85 90 86
f 87 103 89
f 88 89 117
f 89 123 117
f 89 103 124
f 89 124 125
f 89 125 123
f 90 122 126
f 90 126 127
f 90 127 91
f 91 127 92
f 92 128 129
f 92 129 93
f 92 127 128
f 93 129 94
f 94 129 130
f 94 130 131
f 94 131 95
f 95 131 96
f 96 131 132
f 96 132 104
f 96 104 97
f 100 133 134
f 100 134 135
f 100 135 136
f 100 136 101
f 101 136 102
f 102 136 137
f 102 137 103
f 103 137 138
f 103 138 139
f 103 139 124
f 104 132 105
f 105 140 141
f 105 141 106
f 105 132 140
f 106 141 107
f 107 141 142
f 107 142 143
f 107 143 109
f 108 109 143
f 108 143 144
f 108 144 145
f 108 145 110
f 110 145 179
f 110 179 146
f 111 146 112
f 112 146 147
f 114 148 149
f 115 149 150
f 116 151 152
f 116 152 118
f 116 117 151
f 117 153 151
f 117 123 154
f 117 154 153
f 118 152 155
f 118 155 201
f 118 201 156
f 118 156 120
f 118 120 119
f 120 157 158
f 120 158 122
f 120 122 121
f 120 156 157
f 122 158 126
f 123 125 159
f 123 159 154
f 124 139 125
f 125 139 160
f 125 160 161
f 125 161 159
f 126 158 162
f 126 162 163
f 126 163 127
f 127 163 128
f 128 163 129
f 129 163 164
f 129 164 130
f 130 164 165
f 130 165 131
f 131 165 166
f 131 166 140
f 131 140 132
f 134 167 135
f 135 167 210
f 135 210 168
f 135 168 136
f 136 168 169
f 136 169 170
f 136 170 137
f 137 170 171
f 137 171 138
f 138 171 172
f 138 172 139
f 139 172 173
f 139 173 160
f 140 166 141
f 141 166 174
f 141 174 175
f 141 175 142
f 142 175 143
f 143 175 176
f 143 176 177
f 143 177 144
f 144 177 145
f 145 177 178
f 145 178 222
f 145 222 179
f 146 179 180
f 146 180 147
f 148 181 182
f 148 182 149
f 149 182 183
f 149 183 184
f 149 184 185
f 149 185 186
f 149 186 187
f 149 187 188
f 149 188 189
f 149 189 190
f 149 190 191
f 149 191 150
f 150 191 192
f 151 153 193
f 151 193 194
f 151 194 152
f 152 195 196
f 152 196 197
f 152 197 198
f 152 198 201
f 152 201 155
f 152 194 195
f 153 154 193
f 154 199 193
f 154 159 200
f 154 200 199
f 156 201 158
f 156 158 157
f 158 202 203
f 158 203 162
f 158 201 202
f 159 161 200
f 160 173 161
f 161 204 200
f 161 173 205
f 161 205 206
f 161 206 204
f 162 203 207
f 162 207 163
f 163 207 208
f 163 208 164
f 164 208 165
f 165 209 174
f 165 174 166
f 165 208 209
f 168 210 230
f 168 230 211
f 168 211 212
f 168 212 169
f 169 212 213
f 169 213 170
f 170 213 171
f 171 213 214
f 171 214 215
f 171 215 172
f 172 215 173
f 173 215 216
f 173 216 217
f 173 217 205
f 174 209 175
f 175 209 218
f 175 218 219
f 175 219 176
f 176 219 177
f 177 219 220
f 177 220 221
f 177 221 178
f 178 221 249
f 178 249 222
f 179 222 223
f 179 223 224
f 179 224 225
f 179 225 180
f 181 226 227
f 181 227 182
f 182 227 228
f 182 228 183
f 183 228 184
f 184 228 229
f 184 229 217
f 184 217 185
f 185 217 216
f 185 216 186
f 186 216 187
f 187 216 215
f 187 215 214
f 187 214 188
f 188 214 213
f 188 213 189
f 189 213 190
f 190 213 212
f 190 212 211
f 190 211 191
f 191 211 230
f 191 230 192
f 193 231 232
f 193 232 194
f 193 199 233
f 193 233 231
f 194 232 234
f 194 234 195
f 195 234 256
f 195 256 235
f 195 235 236
f 195 236 237
f 195 237 196
f 196 237 197
f 197 237 238
f 197 238 202
f 197 202 198
f 198 202 201
f 199 200 233
f 200 239 233
f 200 204 240
f 200 240 239
f 202 238 241
f 202 241 203
f 203 241 242
f 203 242 243
f 203 243 207
f 204 206 240
f 205 217 206
f 206 217 229
f 206 229 228
f 206 228 244
f 206 244 240
f 207 243 208
f 208 245 218
f 208 218 209
f 208 243 245
f 218 245 219
f 219 245 246
f 219 246 247
f 219 247 220
f 220 247 248
f 220 248 221
f 221 248 270
f 221 270 249
f 222 249 250
f 222 250 223
f 226 251 252
f 226 252 227
f 227 252 228
f 228 252 244
f 231 233 253
f 231 253 254
f 231 254 255
f 231 255 232
f 232 255 234
f 233 239 253
f 234 255 257
f 234 257 258
f 234 258 259
f 234 259 260
f 234 260 261
f 234 261 256
f 235 256 236
f 236 256 262
f 236 262 263
f 236 263 238
f 236 238 237
f 238 263 264
f 238 264 241
f 239 240 265
f 239 265 253
f 240 266 265
f 240 244 252
f 240 252 266
f 241 267 268
f 241 268 242
f 241 264 267
f 242 268 246
f 242 246 243
f 243 246 245
f 246 268 247
f 247 268 248
f 248 268 269
f 248 269 286
f 248 286 270
f 249 270 271
f 249 271 250
f 251 272 266
f 251 266 252
f 253 265 285
f 253 285 273
f 253 273 274
f 253 274 254
f 254 274 275
f 254 275 276
f 254 276 255
f 255 276 277
f 255 277 278
f 255 278 257
f 256 261 262
f 257 278 279
f 257 279 280
f 257 280 258
f 258 280 259
f 259 280 264
f 259 264 260
f 260 264 261
f 261 264 262
f 262 264 263
f 264 281 282
f 264 282 283
f 264 283 267
f 264 280 281
f 265 266 284
f 265 284 285
f 266 272 284
f 267 283 268
f 268 283 269
f 269 283 287
f 269 287 288
f 269 288 286
f 270 286 289
f 270 289 271
f 278 290 291
f 278 291 279
f 279 291 282
f 279 282 280
f 280 282 281
f 282 291 283
f 283 291 292
f 283 292 293
f 283 293 287
f 286 288 294
f 286 294 295
f 286 295 289
f 287 293 296
f 287 296 294
f 287 294 288
f 290 297 291
f 291 297 298
f 291 298 292
f 292 298 293
f 293 298 296