# https://github.com/mikedh/trimesh
v -0.04844568 -0.01056155 -0.01152702 0.43529412 0.89019608 0.96078431
v -0.04844568 -0.01081149 -0.01150478 0.43529412 0.89019608 0.96078431
v -0.04849563 -0.01080831 -0.01150478 0.43529412 0.89019608 0.96078431
v -0.04853559 -0.01079750 -0.01150478 0.43529412 0.89019608 0.96078431
v -0.04857554 -0.01077842 -0.01150478 0.43529412 0.89019608 0.96078431
v -0.04861550 -0.01075362 -0.01150478 0.43529412 0.89019608 0.96078431
v -0.04864547 -0.01072309 -0.01150478 0.43529412 0.89019608 0.96078431
v -0.04867543 -0.01068748 -0.01150478 0.43529412 0.89019608 0.96078431
v -0.04869541 -0.01064741 -0.01150478 0.43529412 0.89019608 0.96078431
v -0.04870540 -0.01060607 -0.01150478 0.43529412 0.89019608 0.96078431
v -0.04871539 -0.01056155 -0.01150478 0.43529412 0.89019608 0.96078431
v -0.04865545 -0.00573001 -0.01151008 0.43529412 0.89019608 0.96078431
v -0.04844568 -0.00573001 -0.01152702 0.43529412 0.89019608 0.96078431
v 0.05007619 -0.01056155 -0.01152702 0.43529412 0.89019608 0.96078431
v -0.01187582 -0.01084202 -0.01149737 0.43529412 0.89019608 0.96078431
v -0.03612920 -0.01090308 -0.01148149 0.43529412 0.89019608 0.96078431
v -0.04844568 -0.01105444 -0.01144231 0.43529412 0.89019608 0.96078431
v 0.05007619 -0.01081149 -0.01150478 0.43529412 0.89019608 0.96078431
v -0.04853559 -0.01104744 -0.01144231 0.43529412 0.89019608 0.96078431
v -0.04862549 -0.01102518 -0.01144231 0.43529412 0.89019608 0.96078431
v -0.04870540 -0.01098893 -0.01144231 0.43529412 0.89019608 0.96078431
v -0.04878531 -0.01093933 -0.01144231 0.43529412 0.89019608 0.96078431
v -0.04884525 -0.01087891 -0.01144231 0.43529412 0.89019608 0.96078431
v -0.04889519 -0.01080831 -0.01144231 0.43529412 0.89019608 0.96078431
v -0.04893515 -0.01073009 -0.01144231 0.43529412 0.89019608 0.96078431
v -0.04896512 -0.01064741 -0.01144231 0.43529412 0.89019608 0.96078431
v -0.04877532 -0.00573001 -0.01149102 0.43529412 0.89019608 0.96078431
v -0.04871539 -0.00573001 -0.01150478 0.43529412 0.89019608 0.96078431
v -0.04897510 -0.01056155 -0.01144231 0.43529412 0.89019608 0.96078431
v -0.05038356 -0.00550615 -0.00576044 0.43529412 0.89019608 0.96078431
v -0.04997401 -0.00550615 -0.00577950 0.43529412 0.89019608 0.96078431
v -0.04602834 -0.00550615 -0.00578480 0.43529412 0.89019608 0.96078431
v 0.05007619 -0.00573001 -0.01152702 0.43529412 0.89019608 0.96078431
v 0.05034589 -0.01056155 -0.01150478 0.43529412 0.89019608 0.96078431
v 0.05034589 -0.01080831 -0.01148361 0.43529412 0.89019608 0.96078431
v -0.01186583 -0.01084202 -0.01149737 0.43529412 0.89019608 0.96078431
v -0.01187582 -0.01102327 -0.01145078 0.43529412 0.89019608 0.96078431
v -0.03612920 -0.01114030 -0.01140419 0.43529412 0.89019608 0.96078431
v -0.04844568 -0.01128212 -0.01134066 0.43529412 0.89019608 0.96078431
v 0.05007619 -0.01105444 -0.01144231 0.43529412 0.89019608 0.96078431
v 0.05034589 -0.01104744 -0.01142219 0.43529412 0.89019608 0.96078431
v 0.03775970 -0.01090308 -0.01148149 0.43529412 0.89019608 0.96078431
v -0.04857554 -0.01127131 -0.01134066 0.43529412 0.89019608 0.96078431
v -0.04870540 -0.01123887 -0.01134066 0.43529412 0.89019608 0.96078431
v -0.04882527 -0.01118545 -0.01134066 0.43529412 0.89019608 0.96078431
v -0.04893515 -0.01111295 -0.01134066 0.43529412 0.89019608 0.96078431
v -0.04903504 -0.01102518 -0.01134066 0.43529412 0.89019608 0.96078431
v -0.04910496 -0.01092152 -0.01134066 0.43529412 0.89019608 0.96078431
v -0.04916490 -0.01080831 -0.01134066 0.43529412 0.89019608 0.96078431
v -0.04919486 -0.01068748 -0.01134066 0.43529412 0.89019608 0.96078431
v -0.04921484 -0.01056155 -0.01134066 0.43529412 0.89019608 0.96078431
v -0.04891517 -0.00573001 -0.01145713 0.43529412 0.89019608 0.96078431
v -0.04897510 -0.00573001 -0.01144231 0.43529412 0.89019608 0.96078431
v -0.05038356 -0.00958469 -0.00576044 0.43529412 0.89019608 0.96078431
v -0.05038356 -0.00550615 -0.00070966 0.43529412 0.89019608 0.96078431
v -0.04921484 -0.00573001 -0.01134066 0.43529412 0.89019608 0.96078431
v -0.04943460 -0.00573001 -0.01120301 0.43529412 0.89019608 0.96078431
v -0.04961440 -0.00573001 -0.01103253 0.43529412 0.89019608 0.96078431
v -0.04977423 -0.00573001 -0.01083558 0.43529412 0.89019608 0.96078431
v -0.04988411 -0.00573001 -0.01061745 0.43529412 0.89019608 0.96078431
v -0.04994404 -0.00573001 -0.01038450 0.43529412 0.89019608 0.96078431
v -0.04995403 -0.00573001 -0.01033050 0.43529412 0.89019608 0.96078431
v -0.04997401 -0.00573001 -0.01014520 0.43529412 0.89019608 0.96078431
v 0.05159452 -0.00550615 -0.00578480 0.43529412 0.89019608 0.96078431
v 0.05034589 -0.00573001 -0.01150478 0.43529412 0.89019608 0.96078431
v 0.05054567 -0.00573001 -0.01145713 0.43529412 0.89019608 0.96078431
v 0.05059562 -0.01056155 -0.01144231 0.43529412 0.89019608 0.96078431
v 0.05059562 -0.01079750 -0.01142219 0.43529412 0.89019608 0.96078431
v 0.05059562 -0.01102518 -0.01136395 0.43529412 0.89019608 0.96078431
v -0.01186583 -0.01102327 -0.01145078 0.43529412 0.89019608 0.96078431
v 0.03775970 -0.01114030 -0.01140419 0.43529412 0.89019608 0.96078431
v -0.04844568 -0.01148818 -0.01120301 0.43529412 0.89019608 0.96078431
v 0.05007619 -0.01128212 -0.01134066 0.43529412 0.89019608 0.96078431
v 0.05034589 -0.01127131 -0.01132266 0.43529412 0.89019608 0.96078431
v -0.04861550 -0.01147355 -0.01120301 0.43529412 0.89019608 0.96078431
v -0.04878531 -0.01143221 -0.01120301 0.43529412 0.89019608 0.96078431
v -0.04893515 -0.01136416 -0.01120301 0.43529412 0.89019608 0.96078431
v -0.04907500 -0.01127131 -0.01120301 0.43529412 0.89019608 0.96078431
v -0.04919486 -0.01115747 -0.01120301 0.43529412 0.89019608 0.96078431
v -0.04929475 -0.01102518 -0.01120301 0.43529412 0.89019608 0.96078431
v -0.04937467 -0.01087891 -0.01120301 0.43529412 0.89019608 0.96078431
v -0.04941462 -0.01072309 -0.01120301 0.43529412 0.89019608 0.96078431
v -0.04943460 -0.01056155 -0.01120301 0.43529412 0.89019608 0.96078431
v -0.05038356 -0.00958469 -0.00070966 0.43529412 0.89019608 0.96078431
v -0.04997401 -0.01056155 -0.01014520 0.43529412 0.89019608 0.96078431
v -0.04994404 -0.01081149 -0.01014520 0.43529412 0.89019608 0.96078431
v -0.04988411 -0.01105444 -0.01014520 0.43529412 0.89019608 0.96078431
v 0.05166445 -0.00550615 -0.00070966 0.43529412 0.89019608 0.96078431
v -0.04961440 -0.01056155 -0.01103253 0.43529412 0.89019608 0.96078431
v -0.04977423 -0.01056155 -0.01083558 0.43529412 0.89019608 0.96078431
v -0.04988411 -0.01056155 -0.01061745 0.43529412 0.89019608 0.96078431
v -0.04994404 -0.01056155 -0.01038450 0.43529412 0.89019608 0.96078431
v 0.05166445 -0.00550615 -0.00577315 0.43529412 0.89019608 0.96078431
v 0.05059562 -0.00573001 -0.01144231 0.43529412 0.89019608 0.96078431
v 0.05065555 -0.00573001 -0.01141902 0.43529412 0.89019608 0.96078431
v 0.05084534 -0.01056155 -0.01134066 0.43529412 0.89019608 0.96078431
v 0.05084534 -0.01077842 -0.01132266 0.43529412 0.89019608 0.96078431
v 0.05084534 -0.01098893 -0.01126866 0.43529412 0.89019608 0.96078431
v 0.05059562 -0.01123887 -0.01126866 0.43529412 0.89019608 0.96078431
v -0.03612920 -0.01155495 -0.01113947 0.43529412 0.89019608 0.96078431
v -0.03612920 -0.01164399 -0.01105371 0.43529412 0.89019608 0.96078431
v -0.04844568 -0.01166498 -0.01103253 0.43529412 0.89019608 0.96078431
v -0.04864547 -0.01164844 -0.01103253 0.43529412 0.89019608 0.96078431
v 0.05007619 -0.01148818 -0.01120301 0.43529412 0.89019608 0.96078431
v 0.05059562 -0.01143221 -0.01113947 0.43529412 0.89019608 0.96078431
v 0.05034589 -0.01147355 -0.01118607 0.43529412 0.89019608 0.96078431
v -0.04884525 -0.01159884 -0.01103253 0.43529412 0.89019608 0.96078431
v -0.04903504 -0.01151743 -0.01103253 0.43529412 0.89019608 0.96078431
v -0.04919486 -0.01140741 -0.01103253 0.43529412 0.89019608 0.96078431
v -0.04934470 -0.01127131 -0.01103253 0.43529412 0.89019608 0.96078431
v -0.04946457 -0.01111295 -0.01103253 0.43529412 0.89019608 0.96078431
v -0.04954448 -0.01093933 -0.01103253 0.43529412 0.89019608 0.96078431
v -0.04960442 -0.01075362 -0.01103253 0.43529412 0.89019608 0.96078431
v -0.04988411 -0.01105444 -0.00070966 0.43529412 0.89019608 0.96078431
v -0.04992406 -0.01080831 -0.01038450 0.43529412 0.89019608 0.96078431
v -0.04986413 -0.01104744 -0.01038450 0.43529412 0.89019608 0.96078431
v -0.04977423 -0.01128212 -0.01014520 0.43529412 0.89019608 0.96078431
v -0.04986413 -0.01110341 -0.00578480 0.43529412 0.89019608 0.96078431
v 0.05166445 -0.00959995 -0.00070966 0.43529412 0.89019608 0.96078431
v -0.04975425 -0.01077842 -0.01083558 0.43529412 0.89019608 0.96078431
v -0.04986413 -0.01079750 -0.01061745 0.43529412 0.89019608 0.96078431
v 0.05166445 -0.00959995 -0.00577315 0.43529412 0.89019608 0.96078431
v 0.05161450 -0.00573001 -0.01014520 0.43529412 0.89019608 0.96078431
v 0.05159452 -0.00573001 -0.01033050 0.43529412 0.89019608 0.96078431
v 0.05158453 -0.00573001 -0.01038450 0.43529412 0.89019608 0.96078431
v 0.05151461 -0.00573001 -0.01061745 0.43529412 0.89019608 0.96078431
v 0.05149463 -0.00573001 -0.01066722 0.43529412 0.89019608 0.96078431
v 0.05140473 -0.00573001 -0.01083558 0.43529412 0.89019608 0.96078431
v 0.05128486 -0.00573001 -0.01098700 0.43529412 0.89019608 0.96078431
v 0.05124491 -0.00573001 -0.01103253 0.43529412 0.89019608 0.96078431
v 0.05106510 -0.00573001 -0.01120301 0.43529412 0.89019608 0.96078431
v 0.05084534 -0.00573001 -0.01134066 0.43529412 0.89019608 0.96078431
v 0.05106510 -0.01056155 -0.01120301 0.43529412 0.89019608 0.96078431
v 0.05106510 -0.01075362 -0.01118607 0.43529412 0.89019608 0.96078431
v 0.05106510 -0.01093933 -0.01113947 0.43529412 0.89019608 0.96078431
v 0.05084534 -0.01118545 -0.01118077 0.43529412 0.89019608 0.96078431
v 0.03775970 -0.01155495 -0.01113947 0.43529412 0.89019608 0.96078431
v 0.03775970 -0.01164399 -0.01105371 0.43529412 0.89019608 0.96078431
v 0.05007619 -0.01166498 -0.01103253 0.43529412 0.89019608 0.96078431
v -0.03612920 -0.01168342 -0.01100818 0.43529412 0.89019608 0.96078431
v -0.04844568 -0.01180871 -0.01083558 0.43529412 0.89019608 0.96078431
v -0.04867543 -0.01179027 -0.01083558 0.43529412 0.89019608 0.96078431
v 0.05034589 -0.01164844 -0.01101876 0.43529412 0.89019608 0.96078431
v 0.05084534 -0.01136416 -0.01106112 0.43529412 0.89019608 0.96078431
v 0.05084534 -0.01151743 -0.01091394 0.43529412 0.89019608 0.96078431
v 0.05059562 -0.01159884 -0.01097853 0.43529412 0.89019608 0.96078431
v -0.04889519 -0.01173494 -0.01083558 0.43529412 0.89019608 0.96078431
v -0.04910496 -0.01164272 -0.01083558 0.43529412 0.89019608 0.96078431
v -0.04929475 -0.01151743 -0.01083558 0.43529412 0.89019608 0.96078431
v -0.04946457 -0.01136416 -0.01083558 0.43529412 0.89019608 0.96078431
v -0.04959443 -0.01118545 -0.01083558 0.43529412 0.89019608 0.96078431
v -0.04969432 -0.01098893 -0.01083558 0.43529412 0.89019608 0.96078431
v -0.04977423 -0.01128212 -0.00070966 0.43529412 0.89019608 0.96078431
v -0.04979421 -0.01102518 -0.01061745 0.43529412 0.89019608 0.96078431
v -0.04969432 -0.01123887 -0.01061745 0.43529412 0.89019608 0.96078431
v -0.04975425 -0.01127131 -0.01038450 0.43529412 0.89019608 0.96078431
v -0.04960442 -0.01147355 -0.01038450 0.43529412 0.89019608 0.96078431
v -0.04961440 -0.01148818 -0.01014520 0.43529412 0.89019608 0.96078431
v -0.04962439 -0.01148754 -0.00578480 0.43529412 0.89019608 0.96078431
v -0.04974426 -0.01132664 -0.00578480 0.43529412 0.89019608 0.96078431
v -0.04980420 -0.01122615 -0.00578480 0.43529412 0.89019608 0.96078431
v 0.05158453 -0.01067857 -0.00070966 0.43529412 0.89019608 0.96078431
v 0.05161450 -0.01056155 -0.00578480 0.43529412 0.89019608 0.96078431
v 0.05161450 -0.01056155 -0.01014520 0.43529412 0.89019608 0.96078431
v 0.05158453 -0.01056155 -0.01038450 0.43529412 0.89019608 0.96078431
v 0.05151461 -0.01056155 -0.01061745 0.43529412 0.89019608 0.96078431
v 0.05140473 -0.01056155 -0.01083558 0.43529412 0.89019608 0.96078431
v 0.05124491 -0.01056155 -0.01103253 0.43529412 0.89019608 0.96078431
v 0.05124491 -0.01072309 -0.01101876 0.43529412 0.89019608 0.96078431
v 0.05124491 -0.01087891 -0.01097853 0.43529412 0.89019608 0.96078431
v 0.05124491 -0.01102518 -0.01091394 0.43529412 0.89019608 0.96078431
v 0.05106510 -0.01111295 -0.01106112 0.43529412 0.89019608 0.96078431
v 0.05106510 -0.01127131 -0.01095523 0.43529412 0.89019608 0.96078431
v 0.05034589 -0.01179027 -0.01082499 0.43529412 0.89019608 0.96078431
v 0.05007619 -0.01180871 -0.01083558 0.43529412 0.89019608 0.96078431
v 0.03775970 -0.01168342 -0.01100818 0.43529412 0.89019608 0.96078431
v -0.03612920 -0.01179154 -0.01085993 0.43529412 0.89019608 0.96078431
v -0.03612920 -0.01182334 -0.01080805 0.43529412 0.89019608 0.96078431
v -0.04844568 -0.01191555 -0.01061745 0.43529412 0.89019608 0.96078431
v -0.04869541 -0.01189584 -0.01061745 0.43529412 0.89019608 0.96078431
v 0.05059562 -0.01173494 -0.01079429 0.43529412 0.89019608 0.96078431
v 0.05106510 -0.01140741 -0.01082499 0.43529412 0.89019608 0.96078431
v 0.05084534 -0.01164272 -0.01074240 0.43529412 0.89019608 0.96078431
v 0.05106510 -0.01151743 -0.01067463 0.43529412 0.89019608 0.96078431
v -0.04893515 -0.01183415 -0.01061745 0.43529412 0.89019608 0.96078431
v -0.04916490 -0.01173494 -0.01061745 0.43529412 0.89019608 0.96078431
v -0.04937467 -0.01159884 -0.01061745 0.43529412 0.89019608 0.96078431
v -0.04954448 -0.01143221 -0.01061745 0.43529412 0.89019608 0.96078431
v -0.04962439 -0.01148754 -0.00070966 0.43529412 0.89019608 0.96078431
v -0.04941462 -0.01164844 -0.01038450 0.43529412 0.89019608 0.96078431
v -0.04943460 -0.01166498 -0.01014520 0.43529412 0.89019608 0.96078431
v -0.04948455 -0.01162173 -0.00578480 0.43529412 0.89019608 0.96078431
v 0.05157455 -0.01081213 -0.00070966 0.43529412 0.89019608 0.96078431
v 0.05159452 -0.01075807 -0.00578480 0.43529412 0.89019608 0.96078431
v 0.05158453 -0.01081149 -0.01014520 0.43529412 0.89019608 0.96078431
v 0.05158453 -0.01080831 -0.01018650 0.43529412 0.89019608 0.96078431
v 0.05158453 -0.01079750 -0.01022779 0.43529412 0.89019608 0.96078431
v 0.05158453 -0.01077842 -0.01026485 0.43529412 0.89019608 0.96078431
v 0.05158453 -0.01075362 -0.01029980 0.43529412 0.89019608 0.96078431
v 0.05158453 -0.01072309 -0.01032944 0.43529412 0.89019608 0.96078431
v 0.05158453 -0.01068748 -0.01035274 0.43529412 0.89019608 0.96078431
v 0.05158453 -0.01064741 -0.01037074 0.43529412 0.89019608 0.96078431
v 0.05158453 -0.01060607 -0.01038133 0.43529412 0.89019608 0.96078431
v 0.05151461 -0.01064741 -0.01061004 0.43529412 0.89019608 0.96078431
v 0.05140473 -0.01068748 -0.01082499 0.43529412 0.89019608 0.96078431
v 0.05140473 -0.01080831 -0.01079429 0.43529412 0.89019608 0.96078431
v 0.05140473 -0.01092152 -0.01074240 0.43529412 0.89019608 0.96078431
v 0.05140473 -0.01102518 -0.01067463 0.43529412 0.89019608 0.96078431
v 0.05124491 -0.01115747 -0.01082499 0.43529412 0.89019608 0.96078431
v 0.05034589 -0.01189584 -0.01061004 0.43529412 0.89019608 0.96078431
v 0.05007619 -0.01191555 -0.01061745 0.43529412 0.89019608 0.96078431
v 0.03775970 -0.01182334 -0.01080805 0.43529412 0.89019608 0.96078431
v 0.03775970 -0.01179154 -0.01085993 0.43529412 0.89019608 0.96078431
v -0.01187582 -0.01192382 -0.01058992 0.43529412 0.89019608 0.96078431
v -0.04844568 -0.01198106 -0.01038450 0.43529412 0.89019608 0.96078431
v -0.04870540 -0.01195944 -0.01038450 0.43529412 0.89019608 0.96078431
v -0.04896512 -0.01189584 -0.01038450 0.43529412 0.89019608 0.96078431
v 0.05059562 -0.01183415 -0.01058887 0.43529412 0.89019608 0.96078431
v 0.05084534 -0.01173494 -0.01055392 0.43529412 0.89019608 0.96078431
v 0.05124491 -0.01127131 -0.01071593 0.43529412 0.89019608 0.96078431
v 0.05124491 -0.01136416 -0.01058887 0.43529412 0.89019608 0.96078431
v 0.05124491 -0.01143221 -0.01044910 0.43529412 0.89019608 0.96078431
v 0.05106510 -0.01159884 -0.01050733 0.43529412 0.89019608 0.96078431
v -0.04919486 -0.01179027 -0.01038450 0.43529412 0.89019608 0.96078431
v -0.04942461 -0.01166498 -0.00070966 0.43529412 0.89019608 0.96078431
v -0.04921484 -0.01180871 -0.01014520 0.43529412 0.89019608 0.96078431
v -0.04943460 -0.01166498 -0.00578480 0.43529412 0.89019608 0.96078431
v -0.04933471 -0.01173239 -0.00070966 0.43529412 0.89019608 0.96078431
v 0.05155457 -0.01094123 -0.00070966 0.43529412 0.89019608 0.96078431
v 0.05158453 -0.01081149 -0.00578480 0.43529412 0.89019608 0.96078431
v 0.05153459 -0.01100229 -0.00578480 0.43529412 0.89019608 0.96078431
v 0.05151461 -0.01105444 -0.01014520 0.43529412 0.89019608 0.96078431
v 0.05151461 -0.01104744 -0.01022779 0.43529412 0.89019608 0.96078431
v 0.05151461 -0.01102518 -0.01030721 0.43529412 0.89019608 0.96078431
v 0.05151461 -0.01098893 -0.01038133 0.43529412 0.89019608 0.96078431
v 0.05151461 -0.01093933 -0.01044910 0.43529412 0.89019608 0.96078431
v 0.05151461 -0.01087891 -0.01050733 0.43529412 0.89019608 0.96078431
v 0.05151461 -0.01080831 -0.01055392 0.43529412 0.89019608 0.96078431
v 0.05151461 -0.01073009 -0.01058887 0.43529412 0.89019608 0.96078431
v 0.05140473 -0.01111295 -0.01058887 0.43529412 0.89019608 0.96078431
v 0.05059562 -0.01189584 -0.01037074 0.43529412 0.89019608 0.96078431
v 0.05034589 -0.01195944 -0.01038133 0.43529412 0.89019608 0.96078431
v 0.05007619 -0.01198106 -0.01038450 0.43529412 0.89019608 0.96078431
v -0.01186583 -0.01192382 -0.01058992 0.43529412 0.89019608 0.96078431
v -0.01187582 -0.01195689 -0.01047133 0.43529412 0.89019608 0.96078431
v -0.04844568 -0.01200332 -0.01014520 0.43529412 0.89019608 0.96078431
v -0.04871539 -0.01198106 -0.01014520 0.43529412 0.89019608 0.96078431
v -0.04897510 -0.01191555 -0.01014520 0.43529412 0.89019608 0.96078431
v 0.05084534 -0.01179027 -0.01035274 0.43529412 0.89019608 0.96078431
v 0.05106510 -0.01164844 -0.01032944 0.43529412 0.89019608 0.96078431
v 0.05140473 -0.01118545 -0.01049039 0.43529412 0.89019608 0.96078431
v 0.05140473 -0.01123887 -0.01038133 0.43529412 0.89019608 0.96078431
v 0.05140473 -0.01127131 -0.01026485 0.43529412 0.89019608 0.96078431
v 0.05124491 -0.01147355 -0.01029980 0.43529412 0.89019608 0.96078431
v -0.04921484 -0.01180935 -0.00578480 0.43529412 0.89019608 0.96078431
v -0.04921484 -0.01180935 -0.00070966 0.43529412 0.89019608 0.96078431
v 0.05150462 -0.01105444 -0.00070966 0.43529412 0.89019608 0.96078431
v 0.05151461 -0.01105444 -0.00578480 0.43529412 0.89019608 0.96078431
v 0.05140473 -0.01128212 -0.01014520 0.43529412 0.89019608 0.96078431
v 0.05059562 -0.01191555 -0.01014520 0.43529412 0.89019608 0.96078431
v 0.05034589 -0.01198106 -0.01014520 0.43529412 0.89019608 0.96078431
v 0.05084534 -0.01180871 -0.01014520 0.43529412 0.89019608 0.96078431
v 0.05007619 -0.01200332 -0.01014520 0.43529412 0.89019608 0.96078431
v -0.01186583 -0.01195689 -0.01047133 0.43529412 0.89019608 0.96078431
v -0.04845567 -0.01200332 -0.00578480 0.43529412 0.89019608 0.96078431
v -0.04866544 -0.01198551 -0.00578480 0.43529412 0.89019608 0.96078431
v -0.04871539 -0.01198106 -0.00578480 0.43529412 0.89019608 0.96078431
v -0.04885524 -0.01194608 -0.00070966 0.43529412 0.89019608 0.96078431
v -0.04897510 -0.01191555 -0.00070966 0.43529412 0.89019608 0.96078431
v -0.04910496 -0.01185895 -0.00070966 0.43529412 0.89019608 0.96078431
v 0.05106510 -0.01166498 -0.01014520 0.43529412 0.89019608 0.96078431
v 0.05124491 -0.01148818 -0.01014520 0.43529412 0.89019608 0.96078431
v 0.05139474 -0.01128212 -0.00070966 0.43529412 0.89019608 0.96078431
v 0.05140473 -0.01128212 -0.00578480 0.43529412 0.89019608 0.96078431
v 0.05137476 -0.01132664 -0.00578480 0.43529412 0.89019608 0.96078431
v 0.05059562 -0.01191555 -0.00070966 0.43529412 0.89019608 0.96078431
v 0.05035588 -0.01198043 -0.00578480 0.43529412 0.89019608 0.96078431
v 0.05065555 -0.01189266 -0.00578480 0.43529412 0.89019608 0.96078431
v 0.05008618 -0.01200332 -0.00578480 0.43529412 0.89019608 0.96078431
v 0.05084534 -0.01180935 -0.00578480 0.43529412 0.89019608 0.96078431
v 0.05079540 -0.01183161 -0.00578480 0.43529412 0.89019608 0.96078431
v -0.04845567 -0.01200332 -0.00070966 0.43529412 0.89019608 0.96078431
v -0.04871539 -0.01198043 -0.00070966 0.43529412 0.89019608 0.96078431
v 0.05121494 -0.01152634 -0.00578480 0.43529412 0.89019608 0.96078431
v 0.05106510 -0.01166498 -0.00070966 0.43529412 0.89019608 0.96078431
v 0.05124491 -0.01148754 -0.00070966 0.43529412 0.89019608 0.96078431
v 0.05035588 -0.01198043 -0.00070966 0.43529412 0.89019608 0.96078431
v 0.05073546 -0.01185895 -0.00070966 0.43529412 0.89019608 0.96078431
v 0.05008618 -0.01200332 -0.00070966 0.43529412 0.89019608 0.96078431
v 0.05084534 -0.01180935 -0.00070966 0.43529412 0.89019608 0.96078431
f 1 2 3
f 1 3 4
f 1 4 5
f 1 5 6
f 1 6 7
f 1 7 8
f 1 8 9
f 1 9 10
f 1 10 11
f 1 11 12
f 1 12 13
f 1 13 33
f 1 33 14
f 1 14 18
f 1 18 2
f 2 15 16
f 2 16 17
f 2 17 3
f 2 18 36
f 2 36 15
f 3 19 20
f 3 20 4
f 3 17 19
f 4 20 21
f 4 21 5
f 5 21 22
f 5 22 6
f 6 22 23
f 6 23 7
f 7 23 8
f 8 23 24
f 8 24 25
f 8 25 9
f 9 25 26
f 9 26 10
f 10 26 11
f 11 27 28
f 11 28 12
f 11 26 29
f 11 29 27
f 12 28 30
f 12 30 13
f 13 30 31
f 13 31 32
f 13 32 64
f 13 64 33
f 14 33 65
f 14 65 34
f 14 34 35
f 14 35 18
f 15 36 70
f 15 70 37
f 15 37 16
f 16 37 17
f 17 38 39
f 17 39 19
f 17 37 70
f 17 70 40
f 17 40 71
f 17 71 38
f 18 35 41
f 18 41 40
f 18 40 42
f 18 42 36
f 19 43 20
f 19 39 43
f 20 43 44
f 20 44 45
f 20 45 21
f 21 45 22
f 22 45 46
f 22 46 47
f 22 47 23
f 23 47 24
f 24 47 48
f 24 48 49
f 24 49 25
f 25 49 26
f 26 49 50
f 26 50 51
f 26 51 29
f 27 29 52
f 27 52 30
f 27 30 28
f 29 53 52
f 29 51 56
f 29 56 53
f 30 54 84
f 30 84 55
f 30 55 88
f 30 88 93
f 30 93 64
f 30 64 32
f 30 32 31
f 30 52 53
f 30 53 56
f 30 56 57
f 30 57 58
f 30 58 59
f 30 59 60
f 30 60 61
f 30 61 62
f 30 62 63
f 30 63 85
f 30 85 54
f 33 64 65
f 34 65 66
f 34 66 67
f 34 67 68
f 34 68 35
f 35 68 69
f 35 69 41
f 36 42 70
f 38 71 73
f 38 73 39
f 39 72 43
f 39 73 104
f 39 104 72
f 40 70 42
f 40 41 74
f 40 74 73
f 40 73 71
f 41 69 74
f 43 75 76
f 43 76 44
f 43 72 75
f 44 76 45
f 45 76 77
f 45 77 46
f 46 77 78
f 46 78 47
f 47 78 79
f 47 79 80
f 47 80 48
f 48 80 81
f 48 81 49
f 49 81 82
f 49 82 50
f 50 82 51
f 51 82 83
f 51 83 57
f 51 57 56
f 54 85 86
f 54 86 87
f 54 87 114
f 54 114 84
f 55 84 114
f 55 114 153
f 55 153 189
f 55 189 225
f 55 225 228
f 55 228 256
f 55 256 270
f 55 270 269
f 55 269 268
f 55 268 283
f 55 283 282
f 55 282 289
f 55 289 287
f 55 287 276
f 55 276 288
f 55 288 290
f 55 290 285
f 55 285 286
f 55 286 273
f 55 273 257
f 55 257 229
f 55 229 193
f 55 193 162
f 55 162 119
f 55 119 88
f 57 83 89
f 57 89 58
f 58 89 90
f 58 90 59
f 59 90 91
f 59 91 60
f 60 91 92
f 60 92 61
f 61 92 62
f 62 92 85
f 62 85 63
f 64 93 65
f 65 93 66
f 66 94 67
f 66 93 94
f 67 94 95
f 67 95 96
f 67 96 97
f 67 97 68
f 68 97 69
f 69 97 98
f 69 98 99
f 69 99 74
f 72 100 101
f 72 101 102
f 72 102 103
f 72 103 75
f 72 104 137
f 72 137 100
f 73 74 104
f 74 99 105
f 74 105 106
f 74 106 104
f 75 103 76
f 76 107 108
f 76 108 77
f 76 103 107
f 77 108 78
f 78 108 109
f 78 109 110
f 78 110 79
f 79 110 111
f 79 111 80
f 80 111 81
f 81 111 112
f 81 112 113
f 81 113 82
f 82 113 83
f 83 113 89
f 85 92 115
f 85 115 86
f 86 115 87
f 87 116 117
f 87 117 118
f 87 118 114
f 87 115 116
f 88 119 122
f 88 122 93
f 89 113 90
f 90 113 120
f 90 120 121
f 90 121 91
f 91 115 92
f 91 121 115
f 93 122 164
f 93 164 123
f 93 123 124
f 93 124 125
f 93 125 126
f 93 126 127
f 93 127 128
f 93 128 129
f 93 129 130
f 93 130 131
f 93 131 132
f 93 132 95
f 93 95 94
f 95 132 96
f 96 132 131
f 96 131 133
f 96 133 97
f 97 133 134
f 97 134 135
f 97 135 98
f 98 136 99
f 98 135 136
f 99 136 105
f 100 137 138
f 100 138 101
f 101 138 139
f 101 139 102
f 102 139 176
f 102 176 140
f 102 140 141
f 102 141 142
f 102 142 103
f 103 142 107
f 104 106 143
f 104 143 139
f 104 139 138
f 104 138 137
f 105 136 144
f 105 144 145
f 105 145 146
f 105 146 143
f 105 143 106
f 107 142 147
f 107 147 108
f 108 148 149
f 108 149 109
f 108 147 148
f 109 149 150
f 109 150 110
f 110 150 111
f 111 150 151
f 111 151 152
f 111 152 112
f 112 152 113
f 113 152 120
f 114 118 153
f 115 121 116
f 116 121 154
f 116 154 155
f 116 155 156
f 116 156 117
f 117 156 157
f 117 157 158
f 117 158 159
f 117 159 160
f 117 160 153
f 117 153 161
f 117 161 118
f 118 161 153
f 119 162 163
f 119 163 164
f 119 164 122
f 120 152 121
f 121 152 154
f 123 164 124
f 124 164 165
f 124 165 125
f 125 165 166
f 125 166 126
f 126 166 127
f 127 166 167
f 127 167 128
f 128 167 129
f 129 167 168
f 129 168 130
f 130 168 133
f 130 133 131
f 133 168 169
f 133 169 134
f 134 169 135
f 135 169 170
f 135 170 171
f 135 171 172
f 135 172 136
f 136 172 173
f 136 173 144
f 139 143 174
f 139 174 175
f 139 175 176
f 140 177 141
f 140 176 213
f 140 213 177
f 141 177 213
f 141 213 175
f 141 175 212
f 141 212 178
f 141 178 179
f 141 179 180
f 141 180 142
f 142 180 147
f 143 146 181
f 143 181 174
f 144 173 182
f 144 182 145
f 145 183 181
f 145 181 146
f 145 182 184
f 145 184 183
f 147 185 186
f 147 186 148
f 147 180 185
f 148 186 187
f 148 187 149
f 149 187 150
f 150 188 155
f 150 155 151
f 150 187 188
f 151 155 152
f 152 155 154
f 153 160 189
f 155 188 157
f 155 157 156
f 157 188 187
f 157 187 190
f 157 190 191
f 157 191 158
f 158 191 159
f 159 191 192
f 159 192 189
f 159 189 160
f 162 193 163
f 163 193 194
f 163 194 164
f 164 194 195
f 164 195 196
f 164 196 197
f 164 197 198
f 164 198 199
f 164 199 200
f 164 200 201
f 164 201 202
f 164 202 203
f 164 203 165
f 165 203 166
f 166 203 204
f 166 204 205
f 166 205 167
f 167 205 168
f 168 205 169
f 169 205 206
f 169 206 170
f 170 206 171
f 171 206 207
f 171 207 208
f 171 208 209
f 171 209 173
f 171 173 172
f 173 209 182
f 174 181 210
f 174 210 175
f 175 211 212
f 175 213 176
f 175 210 211
f 178 212 211
f 178 211 179
f 179 211 244
f 179 244 214
f 179 214 215
f 179 215 180
f 180 215 216
f 180 216 217
f 180 217 185
f 181 218 210
f 181 183 219
f 181 219 218
f 182 209 220
f 182 220 184
f 183 184 219
f 184 220 221
f 184 221 222
f 184 222 223
f 184 223 219
f 185 217 186
f 186 224 190
f 186 190 187
f 186 217 224
f 189 192 225
f 190 224 226
f 190 226 191
f 191 227 192
f 191 226 228
f 191 228 227
f 192 227 225
f 193 229 194
f 194 230 195
f 194 229 230
f 195 230 229
f 195 229 231
f 195 231 232
f 195 232 196
f 196 232 233
f 196 233 197
f 197 233 234
f 197 234 235
f 197 235 198
f 198 235 199
f 199 235 236
f 199 236 200
f 200 236 237
f 200 237 238
f 200 238 201
f 201 238 202
f 202 238 239
f 202 239 204
f 202 204 203
f 204 239 206
f 204 206 205
f 206 239 238
f 206 238 207
f 207 238 208
f 208 240 220
f 208 220 209
f 208 238 237
f 208 237 236
f 208 236 240
f 210 218 241
f 210 241 242
f 210 242 243
f 210 243 211
f 211 243 244
f 214 245 215
f 214 244 264
f 214 264 245
f 215 246 247
f 215 247 216
f 215 245 264
f 215 264 243
f 215 243 263
f 215 263 246
f 216 247 217
f 217 247 248
f 217 248 226
f 217 226 224
f 218 219 241
f 219 249 241
f 219 223 250
f 219 250 249
f 220 240 251
f 220 251 221
f 221 251 252
f 221 252 222
f 222 252 253
f 222 253 254
f 222 254 250
f 222 250 223
f 225 227 228
f 226 248 255
f 226 255 228
f 228 255 256
f 229 257 258
f 229 258 231
f 231 258 232
f 232 258 274
f 232 274 259
f 232 259 233
f 233 259 253
f 233 253 252
f 233 252 234
f 234 252 235
f 235 252 251
f 235 251 236
f 236 251 240
f 241 260 261
f 241 261 242
f 241 249 262
f 241 262 260
f 242 261 263
f 242 263 243
f 243 264 244
f 246 265 247
f 246 263 279
f 246 279 289
f 246 289 282
f 246 282 265
f 247 265 266
f 247 266 267
f 247 267 268
f 247 268 248
f 248 268 269
f 248 269 270
f 248 270 255
f 249 250 271
f 249 271 262
f 250 254 272
f 250 272 271
f 253 259 272
f 253 272 254
f 255 270 256
f 257 273 274
f 257 274 258
f 259 274 275
f 259 275 272
f 260 276 287
f 260 287 277
f 260 277 261
f 260 262 278
f 260 278 276
f 261 277 279
f 261 279 263
f 262 280 281
f 262 281 278
f 262 271 280
f 265 282 266
f 266 283 267
f 266 282 283
f 267 283 268
f 271 284 285
f 271 285 290
f 271 290 280
f 271 272 284
f 272 275 284
f 273 286 275
f 273 275 274
f 275 286 284
f 276 278 288
f 277 287 289
f 277 289 279
f 278 281 288
f 280 290 288
f 280 288 281
f 284 286 285