# https://github.com/mikedh/trimesh
v 0.05167045 0.00960043 -0.00070905 0.54509804 0.71372549 0.60000000
v 0.06359052 0.00910801 -0.00530187 0.54509804 0.71372549 0.60000000
v 0.05167045 0.00960043 -0.00577342 0.54509804 0.71372549 0.60000000
v 0.05167045 -0.00960043 -0.00070905 0.54509804 0.71372549 0.60000000
v 0.05170766 0.00959855 0.00572384 0.54509804 0.71372549 0.60000000
v 0.06358804 0.00910801 0.00525341 0.54509804 0.71372549 0.60000000
v 0.07555525 0.00861370 0.00477961 0.54509804 0.71372549 0.60000000
v 0.07555525 0.00861370 -0.00482807 0.54509804 0.71372549 0.60000000
v 0.06359052 -0.00910801 -0.00530187 0.54509804 0.71372549 0.60000000
v 0.05167045 -0.00960043 -0.00577342 0.54509804 0.71372549 0.60000000
v 0.05170766 -0.00959855 0.00572384 0.54509804 0.71372549 0.60000000
v 0.06136280 -0.00920010 -0.00070792 0.54509804 0.71372549 0.60000000
v 0.06358804 -0.00910801 0.00525341 0.54509804 0.71372549 0.60000000
v 0.07568425 0.00860242 0.00476948 0.54509804 0.71372549 0.60000000
v 0.07562968 0.00860806 -0.00070905 0.54509804 0.71372549 0.60000000
v 0.07555525 -0.00861370 0.00477961 0.54509804 0.71372549 0.60000000
v 0.07555525 -0.00861370 -0.00482807 0.54509804 0.71372549 0.60000000
v 0.07568425 0.00860242 -0.00481795 0.54509804 0.71372549 0.60000000
v 0.07575868 0.00859115 -0.00070792 0.54509804 0.71372549 0.60000000
v 0.07568425 -0.00860242 0.00476948 0.54509804 0.71372549 0.60000000
v 0.07581325 0.00858175 0.00474922 0.54509804 0.71372549 0.60000000
v 0.07562968 -0.00860806 -0.00070905 0.54509804 0.71372549 0.60000000
v 0.07568425 -0.00860242 -0.00481795 0.54509804 0.71372549 0.60000000
v 0.07581077 0.00858175 -0.00479769 0.54509804 0.71372549 0.60000000
v 0.07574875 0.00000940 -0.00480782 0.54509804 0.71372549 0.60000000
v 0.07581325 0.00858175 -0.00070792 0.54509804 0.71372549 0.60000000
v 0.07575868 -0.00859115 -0.00070792 0.54509804 0.71372549 0.60000000
v 0.07581325 -0.00858175 0.00474922 0.54509804 0.71372549 0.60000000
v 0.07593729 0.00855168 0.00471996 0.54509804 0.71372549 0.60000000
v 0.07581077 -0.00858175 -0.00479769 0.54509804 0.71372549 0.60000000
v 0.07593729 0.00855168 -0.00476843 0.54509804 0.71372549 0.60000000
v 0.07581325 -0.00858175 -0.00070792 0.54509804 0.71372549 0.60000000
v 0.07593729 -0.00855168 0.00471996 0.54509804 0.71372549 0.60000000
v 0.07598939 0.00853476 -0.00070905 0.54509804 0.71372549 0.60000000
v 0.07599931 -0.00001692 0.00470083 0.54509804 0.71372549 0.60000000
v 0.07605885 0.00851033 0.00468057 0.54509804 0.71372549 0.60000000
v 0.07593729 -0.00855168 -0.00476843 0.54509804 0.71372549 0.60000000
v 0.07605885 0.00851033 -0.00472904 0.54509804 0.71372549 0.60000000
v 0.07598939 -0.00853476 -0.00070905 0.54509804 0.71372549 0.60000000
v 0.07605885 -0.00851033 0.00468057 0.54509804 0.71372549 0.60000000
v 0.07617792 0.00845958 0.00463218 0.54509804 0.71372549 0.60000000
v 0.07610846 0.00848965 -0.00070905 0.54509804 0.71372549 0.60000000
v 0.07605885 -0.00851033 -0.00472904 0.54509804 0.71372549 0.60000000
v 0.07617792 0.00845958 -0.00070792 0.54509804 0.71372549 0.60000000
v 0.07617544 0.00845958 -0.00468064 0.54509804 0.71372549 0.60000000
v 0.07611839 0.00002443 -0.00470540 0.54509804 0.71372549 0.60000000
v 0.07610846 -0.00848965 -0.00070905 0.54509804 0.71372549 0.60000000
v 0.07617792 -0.00845958 0.00463218 0.54509804 0.71372549 0.60000000
v 0.07623498 0.00002631 0.00460405 0.54509804 0.71372549 0.60000000
v 0.07628956 0.00839944 0.00457478 0.54509804 0.71372549 0.60000000
v 0.07628956 0.00840132 -0.00070905 0.54509804 0.71372549 0.60000000
v 0.07622506 0.00843515 -0.00070905 0.54509804 0.71372549 0.60000000
v 0.07617544 -0.00845958 -0.00468064 0.54509804 0.71372549 0.60000000
v 0.07617792 -0.00845958 -0.00070792 0.54509804 0.71372549 0.60000000
v 0.07628956 0.00840132 -0.00462437 0.54509804 0.71372549 0.60000000
v 0.07622506 -0.00843515 -0.00070905 0.54509804 0.71372549 0.60000000
v 0.07628956 -0.00840132 -0.00070905 0.54509804 0.71372549 0.60000000
v 0.07628956 -0.00839944 0.00457478 0.54509804 0.71372549 0.60000000
v 0.07639872 0.00833178 0.00450951 0.54509804 0.71372549 0.60000000
v 0.07635158 0.00836185 -0.00070905 0.54509804 0.71372549 0.60000000
v 0.07628956 -0.00840132 -0.00462437 0.54509804 0.71372549 0.60000000
v 0.07639872 0.00833178 -0.00070792 0.54509804 0.71372549 0.60000000
v 0.07639623 0.00833178 -0.00455797 0.54509804 0.71372549 0.60000000
v 0.07635158 -0.00836185 -0.00070905 0.54509804 0.71372549 0.60000000
v 0.07639872 -0.00833178 0.00450951 0.54509804 0.71372549 0.60000000
v 0.07644833 -0.00003571 0.00447350 0.54509804 0.71372549 0.60000000
v 0.07649795 0.00825472 0.00443636 0.54509804 0.71372549 0.60000000
v 0.07639623 -0.00833178 -0.00455797 0.54509804 0.71372549 0.60000000
v 0.07639872 -0.00833178 -0.00070792 0.54509804 0.71372549 0.60000000
v 0.07649795 0.00825472 -0.00070792 0.54509804 0.71372549 0.60000000
v 0.07649546 0.00825472 -0.00448482 0.54509804 0.71372549 0.60000000
v 0.07649795 -0.00825472 0.00443636 0.54509804 0.71372549 0.60000000
v 0.07667656 0.00807805 0.00426755 0.54509804 0.71372549 0.60000000
v 0.07657485 0.00817954 -0.00070792 0.54509804 0.71372549 0.60000000
v 0.07649546 -0.00825472 -0.00448482 0.54509804 0.71372549 0.60000000
v 0.07649795 -0.00825472 -0.00070792 0.54509804 0.71372549 0.60000000
v 0.07667408 0.00807805 -0.00431601 0.54509804 0.71372549 0.60000000
v 0.07667656 -0.00807805 0.00426755 0.54509804 0.71372549 0.60000000
v 0.07667656 0.00807805 -0.00070792 0.54509804 0.71372549 0.60000000
v 0.07682293 0.00787506 0.00407285 0.54509804 0.71372549 0.60000000
v 0.07667408 -0.00807805 -0.00431601 0.54509804 0.71372549 0.60000000
v 0.07667656 -0.00807805 -0.00070792 0.54509804 0.71372549 0.60000000
v 0.07682044 0.00787694 -0.00412131 0.54509804 0.71372549 0.60000000
v 0.07676339 -0.00795776 -0.00070792 0.54509804 0.71372549 0.60000000
v 0.07682293 -0.00787506 0.00407285 0.54509804 0.71372549 0.60000000
v 0.07682293 0.00787506 -0.00070792 0.54509804 0.71372549 0.60000000
v 0.07687502 0.00010901 0.00396706 0.54509804 0.71372549 0.60000000
v 0.07692712 0.00765328 0.00386014 0.54509804 0.71372549 0.60000000
v 0.07686758 0.00778109 -0.00070792 0.54509804 0.71372549 0.60000000
v 0.07682044 -0.00787694 -0.00412131 0.54509804 0.71372549 0.60000000
v 0.07692712 0.00765328 -0.00070792 0.54509804 0.71372549 0.60000000
v 0.07692464 0.00765328 -0.00390861 0.54509804 0.71372549 0.60000000
v 0.07682293 -0.00787506 -0.00070792 0.54509804 0.71372549 0.60000000
v 0.07688494 -0.00774350 -0.00070792 0.54509804 0.71372549 0.60000000
v 0.07692712 -0.00765328 0.00386014 0.54509804 0.71372549 0.60000000
v 0.07696185 0.00011465 0.00374760 0.54509804 0.71372549 0.60000000
v 0.07699410 0.00741646 0.00363394 0.54509804 0.71372549 0.60000000
v 0.07695689 0.00755367 -0.00070792 0.54509804 0.71372549 0.60000000
v 0.07692464 -0.00765328 -0.00390861 0.54509804 0.71372549 0.60000000
v 0.07692712 -0.00765328 -0.00070792 0.54509804 0.71372549 0.60000000
v 0.07699162 0.00741834 -0.00368240 0.54509804 0.71372549 0.60000000
v 0.07695937 -0.00011653 -0.00379494 0.54509804 0.71372549 0.60000000
v 0.07699410 -0.00741646 0.00363394 0.54509804 0.71372549 0.60000000
v 0.07701394 0.00717401 0.00340097 0.54509804 0.71372549 0.60000000
v 0.07699410 0.00741646 -0.00070792 0.54509804 0.71372549 0.60000000
v 0.07699162 -0.00741834 -0.00368240 0.54509804 0.71372549 0.60000000
v 0.07699410 -0.00741646 -0.00070792 0.54509804 0.71372549 0.60000000
v 0.07701394 0.00717401 -0.00070792 0.54509804 0.71372549 0.60000000
v 0.07701146 0.00717401 -0.00344831 0.54509804 0.71372549 0.60000000
v 0.07700650 -0.00726799 -0.00070792 0.54509804 0.71372549 0.60000000
v 0.07701394 -0.00717401 0.00340097 0.54509804 0.71372549 0.60000000
v 0.07701146 -0.00717401 -0.00344831 0.54509804 0.71372549 0.60000000
v 0.07701394 -0.00717401 -0.00070792 0.54509804 0.71372549 0.60000000
f 1 2 3
f 1 3 10
f 1 10 4
f 1 4 11
f 1 11 5
f 1 5 6
f 1 6 7
f 1 7 2
f 2 8 17
f 2 17 9
f 2 9 10
f 2 10 3
f 2 7 8
f 4 10 12
f 4 12 13
f 4 13 11
f 5 11 16
f 5 16 7
f 5 7 6
f 7 14 15
f 7 15 8
f 7 16 20
f 7 20 14
f 8 15 18
f 8 18 23
f 8 23 17
f 9 17 12
f 9 12 10
f 11 13 16
f 12 16 13
f 12 17 16
f 14 19 18
f 14 18 15
f 14 20 28
f 14 28 21
f 14 21 19
f 16 22 20
f 16 17 22
f 17 23 22
f 18 19 24
f 18 24 25
f 18 25 23
f 19 21 26
f 19 26 24
f 20 22 23
f 20 23 27
f 20 27 28
f 21 28 33
f 21 33 29
f 21 29 31
f 21 31 26
f 23 25 30
f 23 30 27
f 24 30 25
f 24 26 31
f 24 31 37
f 24 37 30
f 27 30 32
f 27 32 28
f 28 32 37
f 28 37 33
f 29 34 31
f 29 33 35
f 29 35 36
f 29 36 34
f 30 37 32
f 31 34 38
f 31 38 43
f 31 43 37
f 33 39 40
f 33 40 35
f 33 37 39
f 34 36 38
f 35 40 36
f 36 41 42
f 36 42 38
f 36 40 48
f 36 48 41
f 37 43 39
f 38 42 44
f 38 44 45
f 38 45 46
f 38 46 43
f 39 43 40
f 40 47 48
f 40 43 47
f 41 44 42
f 41 48 49
f 41 49 50
f 41 50 51
f 41 51 52
f 41 52 44
f 43 46 53
f 43 53 54
f 43 54 47
f 44 52 55
f 44 55 45
f 45 53 46
f 45 55 61
f 45 61 53
f 47 54 48
f 48 54 56
f 48 56 57
f 48 57 58
f 48 58 49
f 49 58 50
f 50 58 65
f 50 65 59
f 50 59 51
f 51 55 52
f 51 59 60
f 51 60 55
f 53 61 54
f 54 61 56
f 55 60 62
f 55 62 63
f 55 63 68
f 55 68 61
f 56 61 57
f 57 64 65
f 57 65 58
f 57 61 64
f 59 62 60
f 59 65 66
f 59 66 67
f 59 67 70
f 59 70 62
f 61 68 69
f 61 69 64
f 62 70 63
f 63 70 71
f 63 71 75
f 63 75 68
f 64 69 65
f 65 72 66
f 65 69 76
f 65 76 72
f 66 72 67
f 67 72 78
f 67 78 73
f 67 73 74
f 67 74 70
f 68 75 76
f 68 76 69
f 70 74 71
f 71 74 77
f 71 77 81
f 71 81 75
f 72 76 82
f 72 82 78
f 73 79 74
f 73 78 85
f 73 85 80
f 73 80 86
f 73 86 79
f 74 79 77
f 75 81 82
f 75 82 76
f 77 79 83
f 77 83 90
f 77 90 81
f 78 82 84
f 78 84 85
f 79 86 83
f 80 85 87
f 80 87 88
f 80 88 89
f 80 89 86
f 81 90 82
f 82 90 84
f 83 86 89
f 83 89 91
f 83 91 92
f 83 92 99
f 83 99 90
f 84 90 93
f 84 93 85
f 85 93 94
f 85 94 95
f 85 95 87
f 87 95 88
f 88 95 96
f 88 96 97
f 88 97 98
f 88 98 91
f 88 91 89
f 90 99 100
f 90 100 94
f 90 94 93
f 91 98 92
f 92 98 101
f 92 101 102
f 92 102 99
f 94 100 95
f 95 103 96
f 95 100 107
f 95 107 103
f 96 103 97
f 97 103 111
f 97 111 104
f 97 104 108
f 97 108 105
f 97 105 98
f 98 105 101
f 99 102 106
f 99 106 100
f 100 106 107
f 101 105 108
f 101 108 109
f 101 109 112
f 101 112 106
f 101 106 102
f 103 107 110
f 103 110 111
f 104 111 113
f 104 113 108
f 106 112 110
f 106 110 107
f 108 113 112
f 108 112 109
f 110 112 113
f 110 113 111