# https://github.com/mikedh/trimesh
v -0.02120427 -0.01200263 -0.00070966 0.54117647 0.42352941 0.64313725
v -0.02098303 -0.01200332 0.00573055 0.54117647 0.42352941 0.64313725
v -0.02120427 -0.01200263 0.00573055 0.54117647 0.42352941 0.64313725
v -0.02120427 -0.00550988 -0.00070966 0.54117647 0.42352941 0.64313725
v -0.00947854 -0.01200263 -0.00070966 0.54117647 0.42352941 0.64313725
v -0.02098303 -0.01200332 0.01009720 0.54117647 0.42352941 0.64313725
v -0.01187650 -0.01200332 0.00573055 0.54117647 0.42352941 0.64313725
v -0.02120427 -0.00521597 0.00573055 0.54117647 0.42352941 0.64313725
v -0.02098303 -0.01198619 0.01028332 0.54117647 0.42352941 0.64313725
v -0.02098303 -0.01198071 0.01033701 0.54117647 0.42352941 0.64313725
v -0.02098303 -0.01197934 0.01034417 0.54117647 0.42352941 0.64313725
v -0.02098303 -0.01191768 0.01056250 0.54117647 0.42352941 0.64313725
v -0.02098303 -0.01191220 0.01057562 0.54117647 0.42352941 0.64313725
v -0.02098303 -0.01183958 0.01072595 0.54117647 0.42352941 0.64313725
v -0.02098303 -0.01181286 0.01078083 0.54117647 0.42352941 0.64313725
v -0.02098303 -0.01180464 0.01079276 0.54117647 0.42352941 0.64313725
v -0.02098303 -0.01177792 0.01083094 0.54117647 0.42352941 0.64313725
v -0.02098303 -0.01167036 0.01097888 0.54117647 0.42352941 0.64313725
v -0.02098303 -0.01166008 0.01098962 0.54117647 0.42352941 0.64313725
v -0.02098303 -0.01152717 0.01111728 0.54117647 0.42352941 0.64313725
v -0.02098303 -0.01149292 0.01114949 0.54117647 0.42352941 0.64313725
v -0.02098303 -0.01148127 0.01115904 0.54117647 0.42352941 0.64313725
v -0.02098303 -0.01132849 0.01126164 0.54117647 0.42352941 0.64313725
v -0.02098303 -0.01127574 0.01129624 0.54117647 0.42352941 0.64313725
v -0.02098303 -0.01110515 0.01137260 0.54117647 0.42352941 0.64313725
v -0.02098303 -0.01105445 0.01139407 0.54117647 0.42352941 0.64313725
v -0.02098303 -0.01081192 0.01145730 0.54117647 0.42352941 0.64313725
v -0.02098303 -0.01074272 0.01146327 0.54117647 0.42352941 0.64313725
v -0.02098303 -0.01056186 0.01147878 0.54117647 0.42352941 0.64313725
v -0.02120427 -0.00548111 -0.00008329 0.54117647 0.42352941 0.64313725
v -0.00224184 -0.00520295 -0.00070966 0.54117647 0.42352941 0.64313725
v 0.05008503 -0.01200195 -0.00070966 0.54117647 0.42352941 0.64313725
v -0.01187650 -0.01200332 0.01009720 0.54117647 0.42352941 0.64313725
v 0.02544173 -0.01199784 0.01015805 0.54117647 0.42352941 0.64313725
v -0.01149825 -0.01199510 0.01018787 0.54117647 0.42352941 0.64313725
v -0.01187650 -0.01198140 0.01033701 0.54117647 0.42352941 0.64313725
v -0.02098303 -0.00645875 0.01147878 0.54117647 0.42352941 0.64313725
v -0.02098303 -0.00622719 0.01145969 0.54117647 0.42352941 0.64313725
v -0.02098303 -0.00621348 0.01145730 0.54117647 0.42352941 0.64313725
v -0.02098303 -0.00600247 0.01140720 0.54117647 0.42352941 0.64313725
v -0.02098303 -0.00578803 0.01131891 0.54117647 0.42352941 0.64313725
v -0.02098303 -0.00559894 0.01120318 0.54117647 0.42352941 0.64313725
v -0.02098303 -0.00558661 0.01119483 0.54117647 0.42352941 0.64313725
v -0.02098303 -0.00542219 0.01105524 0.54117647 0.42352941 0.64313725
v -0.02098303 -0.00541465 0.01104808 0.54117647 0.42352941 0.64313725
v -0.02098303 -0.00527420 0.01088105 0.54117647 0.42352941 0.64313725
v -0.02098303 -0.00520980 0.01078560 0.54117647 0.42352941 0.64313725
v -0.02098303 -0.00515773 0.01068777 0.54117647 0.42352941 0.64313725
v -0.02098303 -0.00511046 0.01058398 0.54117647 0.42352941 0.64313725
v -0.02098303 -0.00507415 0.01047779 0.54117647 0.42352941 0.64313725
v -0.02098303 -0.00504743 0.01036922 0.54117647 0.42352941 0.64313725
v -0.02098303 -0.00502962 0.01025946 0.54117647 0.42352941 0.64313725
v -0.02098303 -0.00502071 0.01014850 0.54117647 0.42352941 0.64313725
v -0.02098303 -0.00502071 0.01002085 0.54117647 0.42352941 0.64313725
v -0.01149825 -0.01192385 0.01054102 0.54117647 0.42352941 0.64313725
v -0.01187650 -0.01191563 0.01056966 0.54117647 0.42352941 0.64313725
v -0.01149825 -0.01187589 0.01065198 0.54117647 0.42352941 0.64313725
v -0.01187650 -0.01181012 0.01078799 0.54117647 0.42352941 0.64313725
v -0.01149825 -0.01179231 0.01081304 0.54117647 0.42352941 0.64313725
v -0.01187650 -0.01166556 0.01098485 0.54117647 0.42352941 0.64313725
v 0.03775981 -0.01179231 0.01081304 0.54117647 0.42352941 0.64313725
v 0.05007789 -0.01166556 0.01098485 0.54117647 0.42352941 0.64313725
v -0.01187650 -0.01155732 0.01108984 0.54117647 0.42352941 0.64313725
v -0.01187650 -0.01148743 0.01115546 0.54117647 0.42352941 0.64313725
v -0.01187650 -0.01141207 0.01120676 0.54117647 0.42352941 0.64313725
v 0.05007789 -0.01128122 0.01129266 0.54117647 0.42352941 0.64313725
v -0.01187650 -0.01128122 0.01129266 0.54117647 0.42352941 0.64313725
v -0.01187650 -0.01125518 0.01130578 0.54117647 0.42352941 0.64313725
v -0.01187650 -0.01105513 0.01139527 0.54117647 0.42352941 0.64313725
v 0.02544173 -0.01087358 0.01144179 0.54117647 0.42352941 0.64313725
v -0.01187650 -0.01081192 0.01145730 0.54117647 0.42352941 0.64313725
v 0.05007789 -0.01081123 0.01145730 0.54117647 0.42352941 0.64313725
v -0.01187650 -0.01056186 0.01147878 0.54117647 0.42352941 0.64313725
v -0.00254159 -0.00500427 0.00573055 0.54117647 0.42352941 0.64313725
v 0.05170508 -0.00520295 -0.00070966 0.54117647 0.42352941 0.64313725
v 0.05034909 -0.01198003 -0.00070966 0.54117647 0.42352941 0.64313725
v 0.05034909 -0.01198140 0.00573055 0.54117647 0.42352941 0.64313725
v 0.05013499 -0.01199852 0.00573055 0.54117647 0.42352941 0.64313725
v 0.05008503 -0.01200195 0.00573055 0.54117647 0.42352941 0.64313725
v 0.05007789 -0.01200127 0.01009720 0.54117647 0.42352941 0.64313725
v 0.03775981 -0.01200058 0.01012703 0.54117647 0.42352941 0.64313725
v 0.05007789 -0.01198140 0.01033701 0.54117647 0.42352941 0.64313725
v -0.01187650 -0.00645875 0.01147878 0.54117647 0.42352941 0.64313725
v -0.00123556 -0.00500427 0.01147759 0.54117647 0.42352941 0.64313725
v -0.00147821 -0.00500427 0.01145969 0.54117647 0.42352941 0.64313725
v -0.00171372 -0.00500427 0.01140720 0.54117647 0.42352941 0.64313725
v -0.00193496 -0.00500427 0.01131891 0.54117647 0.42352941 0.64313725
v -0.00215620 -0.00500427 0.01119125 0.54117647 0.42352941 0.64313725
v -0.00233462 -0.00500427 0.01105285 0.54117647 0.42352941 0.64313725
v -0.00248449 -0.00500427 0.01087986 0.54117647 0.42352941 0.64313725
v -0.00254872 -0.00500427 0.01078560 0.54117647 0.42352941 0.64313725
v -0.00260582 -0.00500427 0.01068539 0.54117647 0.42352941 0.64313725
v -0.00265578 -0.00500427 0.01058398 0.54117647 0.42352941 0.64313725
v -0.00269146 -0.00500427 0.01047779 0.54117647 0.42352941 0.64313725
v -0.00272714 -0.00500427 0.01036922 0.54117647 0.42352941 0.64313725
v -0.00274142 -0.00500427 0.01025946 0.54117647 0.42352941 0.64313725
v -0.00275569 -0.00500427 0.01014850 0.54117647 0.42352941 0.64313725
v -0.00275569 -0.00500427 0.01003755 0.54117647 0.42352941 0.64313725
v 0.03775981 -0.01192385 0.01054102 0.54117647 0.42352941 0.64313725
v 0.05007789 -0.01191563 0.01056966 0.54117647 0.42352941 0.64313725
v 0.02544173 -0.01183684 0.01073311 0.54117647 0.42352941 0.64313725
v 0.05007789 -0.01181012 0.01078799 0.54117647 0.42352941 0.64313725
v 0.05007789 -0.01148743 0.01115546 0.54117647 0.42352941 0.64313725
v 0.03775981 -0.01151073 0.01113398 0.54117647 0.42352941 0.64313725
v 0.05034909 -0.01164912 0.01097172 0.54117647 0.42352941 0.64313725
v 0.05007789 -0.01105513 0.01139527 0.54117647 0.42352941 0.64313725
v 0.03775981 -0.01114077 0.01135709 0.54117647 0.42352941 0.64313725
v 0.05034909 -0.01127163 0.01127476 0.54117647 0.42352941 0.64313725
v 0.05007789 -0.01056117 0.01147759 0.54117647 0.42352941 0.64313725
v 0.03775981 -0.01065640 0.01147043 0.54117647 0.42352941 0.64313725
v 0.05034909 -0.01080849 0.01143702 0.54117647 0.42352941 0.64313725
v 0.05034909 -0.01056117 0.01145730 0.54117647 0.42352941 0.64313725
v 0.05161230 -0.00500427 0.00573055 0.54117647 0.42352941 0.64313725
v 0.05170508 -0.00520295 0.00572220 0.54117647 0.42352941 0.64313725
v 0.05170508 -0.00959791 -0.00070966 0.54117647 0.42352941 0.64313725
v 0.05060602 -0.01191494 -0.00070966 0.54117647 0.42352941 0.64313725
v 0.05060602 -0.01191563 0.00573055 0.54117647 0.42352941 0.64313725
v 0.05034909 -0.01198140 0.01009720 0.54117647 0.42352941 0.64313725
v 0.05034909 -0.01195947 0.01033343 0.54117647 0.42352941 0.64313725
v 0.05007789 -0.00500427 0.01147759 0.54117647 0.42352941 0.64313725
v 0.05034909 -0.01189439 0.01056250 0.54117647 0.42352941 0.64313725
v 0.05034909 -0.01179094 0.01077725 0.54117647 0.42352941 0.64313725
v 0.05034909 -0.01147442 0.01113875 0.54117647 0.42352941 0.64313725
v 0.05060602 -0.01159979 0.01093116 0.54117647 0.42352941 0.64313725
v 0.05060602 -0.01143263 0.01109103 0.54117647 0.42352941 0.64313725
v 0.05034909 -0.01104691 0.01137498 0.54117647 0.42352941 0.64313725
v 0.05060602 -0.01123943 0.01122108 0.54117647 0.42352941 0.64313725
v 0.05015640 -0.00500427 0.01147281 0.54117647 0.42352941 0.64313725
v 0.05060602 -0.01102499 0.01131652 0.54117647 0.42352941 0.64313725
v 0.05060602 -0.01079685 0.01137498 0.54117647 0.42352941 0.64313725
v 0.05060602 -0.01056117 0.01139527 0.54117647 0.42352941 0.64313725
v 0.05042046 -0.00500427 0.01144060 0.54117647 0.42352941 0.64313725
v 0.05034909 -0.00500427 0.01145730 0.54117647 0.42352941 0.64313725
v 0.05161230 -0.00500427 0.01009720 0.54117647 0.42352941 0.64313725
v 0.05170508 -0.00959791 0.00572220 0.54117647 0.42352941 0.64313725
v 0.05161230 -0.01056117 0.00573055 0.54117647 0.42352941 0.64313725
v 0.05158376 -0.01081123 -0.00070966 0.54117647 0.42352941 0.64313725
v 0.05083439 -0.01180943 -0.00070966 0.54117647 0.42352941 0.64313725
v 0.05084867 -0.01181012 0.00573055 0.54117647 0.42352941 0.64313725
v 0.05066311 -0.01189302 0.00573055 0.54117647 0.42352941 0.64313725
v 0.05060602 -0.01191563 0.01009720 0.54117647 0.42352941 0.64313725
v 0.05060602 -0.01189439 0.01032269 0.54117647 0.42352941 0.64313725
v 0.05060602 -0.01183478 0.01054102 0.54117647 0.42352941 0.64313725
v 0.05060602 -0.01173339 0.01074623 0.54117647 0.42352941 0.64313725
v 0.05084867 -0.01164227 0.01069493 0.54117647 0.42352941 0.64313725
v 0.05084867 -0.01151826 0.01086554 0.54117647 0.42352941 0.64313725
v 0.05084867 -0.01136412 0.01101348 0.54117647 0.42352941 0.64313725
v 0.05084867 -0.01118599 0.01113279 0.54117647 0.42352941 0.64313725
v 0.05084867 -0.01098936 0.01122108 0.54117647 0.42352941 0.64313725
v 0.05084867 -0.01077904 0.01127476 0.54117647 0.42352941 0.64313725
v 0.05060602 -0.00500427 0.01139527 0.54117647 0.42352941 0.64313725
v 0.05084867 -0.01056117 0.01129266 0.54117647 0.42352941 0.64313725
v 0.05160517 -0.00500427 0.01016043 0.54117647 0.42352941 0.64313725
v 0.05161230 -0.01056117 0.01009720 0.54117647 0.42352941 0.64313725
v 0.05159089 -0.01075711 0.00573055 0.54117647 0.42352941 0.64313725
v 0.05158376 -0.01081123 0.01009720 0.54117647 0.42352941 0.64313725
v 0.05153380 -0.01100169 0.00573055 0.54117647 0.42352941 0.64313725
v 0.05154807 -0.01094141 -0.00070966 0.54117647 0.42352941 0.64313725
v 0.05106277 -0.01166488 -0.00070966 0.54117647 0.42352941 0.64313725
v 0.05106277 -0.01166556 0.00573055 0.54117647 0.42352941 0.64313725
v 0.05084867 -0.01181012 0.01009720 0.54117647 0.42352941 0.64313725
v 0.05084867 -0.01179094 0.01030480 0.54117647 0.42352941 0.64313725
v 0.05084867 -0.01173339 0.01050643 0.54117647 0.42352941 0.64313725
v 0.05106277 -0.01159979 0.01045870 0.54117647 0.42352941 0.64313725
v 0.05106277 -0.01151826 0.01062693 0.54117647 0.42352941 0.64313725
v 0.05106277 -0.01140796 0.01077725 0.54117647 0.42352941 0.64313725
v 0.05106277 -0.01127163 0.01090730 0.54117647 0.42352941 0.64313725
v 0.05106277 -0.01111405 0.01101348 0.54117647 0.42352941 0.64313725
v 0.05106277 -0.01093935 0.01109103 0.54117647 0.42352941 0.64313725
v 0.05106277 -0.01075437 0.01113875 0.54117647 0.42352941 0.64313725
v 0.05106277 -0.01056117 0.01115546 0.54117647 0.42352941 0.64313725
v 0.05084867 -0.00500427 0.01129266 0.54117647 0.42352941 0.64313725
v 0.05158376 -0.01056117 0.01033701 0.54117647 0.42352941 0.64313725
v 0.05158376 -0.00500427 0.01033701 0.54117647 0.42352941 0.64313725
v 0.05158376 -0.01060570 0.01033343 0.54117647 0.42352941 0.64313725
v 0.05158376 -0.01064818 0.01032269 0.54117647 0.42352941 0.64313725
v 0.05158376 -0.01068654 0.01030480 0.54117647 0.42352941 0.64313725
v 0.05158376 -0.01072217 0.01028093 0.54117647 0.42352941 0.64313725
v 0.05158376 -0.01075437 0.01025111 0.54117647 0.42352941 0.64313725
v 0.05158376 -0.01077904 0.01021770 0.54117647 0.42352941 0.64313725
v 0.05158376 -0.01079685 0.01017952 0.54117647 0.42352941 0.64313725
v 0.05158376 -0.01080849 0.01013896 0.54117647 0.42352941 0.64313725
v 0.05151239 -0.01105513 0.01009720 0.54117647 0.42352941 0.64313725
v 0.05151239 -0.01105513 0.00573055 0.54117647 0.42352941 0.64313725
v 0.05150525 -0.01105445 -0.00070966 0.54117647 0.42352941 0.64313725
v 0.05116269 -0.01157033 -0.00070966 0.54117647 0.42352941 0.64313725
v 0.05121264 -0.01152512 0.00573055 0.54117647 0.42352941 0.64313725
v 0.05106277 -0.01166556 0.01009720 0.54117647 0.42352941 0.64313725
v 0.05106277 -0.01164912 0.01028093 0.54117647 0.42352941 0.64313725
v 0.05124833 -0.01147442 0.01025111 0.54117647 0.42352941 0.64313725
v 0.05124833 -0.01143263 0.01040024 0.54117647 0.42352941 0.64313725
v 0.05124833 -0.01136412 0.01054102 0.54117647 0.42352941 0.64313725
v 0.05124833 -0.01127163 0.01066749 0.54117647 0.42352941 0.64313725
v 0.05124833 -0.01115653 0.01077725 0.54117647 0.42352941 0.64313725
v 0.05124833 -0.01102499 0.01086554 0.54117647 0.42352941 0.64313725
v 0.05124833 -0.01087906 0.01093116 0.54117647 0.42352941 0.64313725
v 0.05124833 -0.01072217 0.01097172 0.54117647 0.42352941 0.64313725
v 0.05111273 -0.00500427 0.01111012 0.54117647 0.42352941 0.64313725
v 0.05106277 -0.00500427 0.01115546 0.54117647 0.42352941 0.64313725
v 0.05124833 -0.01056117 0.01098485 0.54117647 0.42352941 0.64313725
v 0.05153380 -0.00500427 0.01050881 0.54117647 0.42352941 0.64313725
v 0.05151239 -0.01056117 0.01056966 0.54117647 0.42352941 0.64313725
v 0.05151239 -0.01064818 0.01056250 0.54117647 0.42352941 0.64313725
v 0.05151239 -0.01073108 0.01054102 0.54117647 0.42352941 0.64313725
v 0.05151239 -0.01080849 0.01050643 0.54117647 0.42352941 0.64313725
v 0.05151239 -0.01087906 0.01045870 0.54117647 0.42352941 0.64313725
v 0.05151239 -0.01093935 0.01040024 0.54117647 0.42352941 0.64313725
v 0.05151239 -0.01098936 0.01033343 0.54117647 0.42352941 0.64313725
v 0.05151239 -0.01102499 0.01025946 0.54117647 0.42352941 0.64313725
v 0.05151239 -0.01104691 0.01017952 0.54117647 0.42352941 0.64313725
v 0.05140534 -0.01127163 0.01021770 0.54117647 0.42352941 0.64313725
v 0.05140534 -0.01128122 0.01009720 0.54117647 0.42352941 0.64313725
v 0.05140534 -0.01128190 0.00573055 0.54117647 0.42352941 0.64313725
v 0.05140534 -0.01128190 -0.00070966 0.54117647 0.42352941 0.64313725
v 0.05146243 -0.01116064 -0.00070966 0.54117647 0.42352941 0.64313725
v 0.05124833 -0.01148812 -0.00070966 0.54117647 0.42352941 0.64313725
v 0.05124833 -0.01148812 0.00573055 0.54117647 0.42352941 0.64313725
v 0.05124833 -0.01148743 0.01009720 0.54117647 0.42352941 0.64313725
v 0.05140534 -0.01123943 0.01033343 0.54117647 0.42352941 0.64313725
v 0.05140534 -0.01118599 0.01044200 0.54117647 0.42352941 0.64313725
v 0.05140534 -0.01111405 0.01054102 0.54117647 0.42352941 0.64313725
v 0.05140534 -0.01102499 0.01062693 0.54117647 0.42352941 0.64313725
v 0.05140534 -0.01092154 0.01069493 0.54117647 0.42352941 0.64313725
v 0.05140534 -0.01080849 0.01074623 0.54117647 0.42352941 0.64313725
v 0.05140534 -0.01068654 0.01077725 0.54117647 0.42352941 0.64313725
v 0.05140534 -0.01056117 0.01078799 0.54117647 0.42352941 0.64313725
v 0.05124833 -0.00500427 0.01098485 0.54117647 0.42352941 0.64313725
v 0.05129115 -0.00500427 0.01093355 0.54117647 0.42352941 0.64313725
v 0.05151239 -0.00500427 0.01056966 0.54117647 0.42352941 0.64313725
v 0.05128401 -0.01144290 0.00573055 0.54117647 0.42352941 0.64313725
v 0.05140534 -0.00500427 0.01078799 0.54117647 0.42352941 0.64313725
f 1 2 6
f 1 6 3
f 1 3 8
f 1 8 30
f 1 30 4
f 1 4 31
f 1 31 75
f 1 75 115
f 1 115 137
f 1 137 158
f 1 158 185
f 1 185 215
f 1 215 214
f 1 214 216
f 1 216 186
f 1 186 159
f 1 159 138
f 1 138 116
f 1 116 76
f 1 76 32
f 1 32 5
f 1 5 7
f 1 7 2
f 2 7 33
f 2 33 6
f 3 6 9
f 3 9 10
f 3 10 11
f 3 11 12
f 3 12 13
f 3 13 14
f 3 14 15
f 3 15 16
f 3 16 17
f 3 17 18
f 3 18 19
f 3 19 20
f 3 20 21
f 3 21 22
f 3 22 23
f 3 23 24
f 3 24 25
f 3 25 26
f 3 26 27
f 3 27 28
f 3 28 29
f 3 29 37
f 3 37 8
f 4 30 31
f 5 32 7
f 6 33 34
f 6 34 35
f 6 35 36
f 6 36 9
f 7 32 79
f 7 79 33
f 8 37 38
f 8 38 39
f 8 39 40
f 8 40 41
f 8 41 42
f 8 42 43
f 8 43 44
f 8 44 45
f 8 45 46
f 8 46 47
f 8 47 48
f 8 48 49
f 8 49 50
f 8 50 51
f 8 51 52
f 8 52 53
f 8 53 54
f 8 54 31
f 8 31 30
f 9 36 10
f 10 36 11
f 11 36 55
f 11 55 12
f 12 56 13
f 12 55 99
f 12 99 100
f 12 100 56
f 13 56 57
f 13 57 14
f 14 58 15
f 14 57 58
f 15 58 16
f 16 58 17
f 17 58 59
f 17 59 18
f 18 60 19
f 18 59 61
f 18 61 62
f 18 62 60
f 19 60 63
f 19 63 20
f 20 63 21
f 21 63 64
f 21 64 22
f 22 64 65
f 22 65 23
f 23 65 66
f 23 66 67
f 23 67 24
f 24 67 66
f 24 66 68
f 24 68 25
f 25 68 69
f 25 69 26
f 26 69 27
f 27 69 70
f 27 70 71
f 27 71 28
f 28 71 72
f 28 72 73
f 28 73 29
f 29 73 83
f 29 83 37
f 31 54 74
f 31 74 113
f 31 113 75
f 32 76 77
f 32 77 78
f 32 78 79
f 33 79 80
f 33 80 81
f 33 81 34
f 34 81 82
f 34 82 36
f 34 36 35
f 36 82 99
f 36 99 55
f 37 83 120
f 37 120 84
f 37 84 38
f 38 84 39
f 39 84 40
f 40 84 41
f 41 84 42
f 42 84 43
f 43 84 44
f 44 84 45
f 45 84 46
f 46 84 47
f 47 84 48
f 48 84 49
f 49 84 50
f 50 84 51
f 51 84 52
f 52 84 85
f 52 85 53
f 53 85 86
f 53 86 87
f 53 87 88
f 53 88 89
f 53 89 90
f 53 90 91
f 53 91 92
f 53 92 93
f 53 93 94
f 53 94 95
f 53 95 96
f 53 96 97
f 53 97 98
f 53 98 54
f 54 98 74
f 56 100 101
f 56 101 57
f 57 101 58
f 58 101 102
f 58 102 61
f 58 61 59
f 60 62 63
f 61 102 62
f 62 103 104
f 62 104 63
f 62 102 105
f 62 105 103
f 63 104 64
f 64 104 103
f 64 103 65
f 65 103 66
f 66 106 107
f 66 107 68
f 66 103 108
f 66 108 106
f 68 107 69
f 69 107 106
f 69 106 70
f 70 106 72
f 70 72 71
f 72 109 110
f 72 110 73
f 72 106 111
f 72 111 112
f 72 112 109
f 73 110 109
f 73 109 120
f 73 120 83
f 74 98 97
f 74 97 96
f 74 96 95
f 74 95 94
f 74 94 93
f 74 93 92
f 74 92 91
f 74 91 90
f 74 90 89
f 74 89 88
f 74 88 87
f 74 87 86
f 74 86 85
f 74 85 84
f 74 84 120
f 74 120 128
f 74 128 133
f 74 133 132
f 74 132 151
f 74 151 172
f 74 172 199
f 74 199 198
f 74 198 227
f 74 227 228
f 74 228 231
f 74 231 229
f 74 229 201
f 74 201 174
f 74 174 153
f 74 153 134
f 74 134 113
f 75 113 134
f 75 134 114
f 75 114 135
f 75 135 115
f 76 116 77
f 77 116 117
f 77 117 141
f 77 141 118
f 77 118 78
f 78 118 80
f 78 80 79
f 80 82 81
f 80 118 82
f 82 100 99
f 82 118 119
f 82 119 100
f 100 102 101
f 100 119 121
f 100 121 122
f 100 122 102
f 102 122 105
f 103 105 123
f 103 123 108
f 105 122 124
f 105 124 125
f 105 125 123
f 106 108 126
f 106 126 111
f 108 123 127
f 108 127 126
f 109 112 128
f 109 128 120
f 111 126 129
f 111 129 130
f 111 130 131
f 111 131 112
f 112 132 133
f 112 133 128
f 112 131 132
f 114 134 154
f 114 154 135
f 115 135 154
f 115 154 136
f 115 136 137
f 116 138 139
f 116 139 140
f 116 140 117
f 117 140 141
f 118 141 119
f 119 141 142
f 119 142 143
f 119 143 121
f 121 143 122
f 122 143 144
f 122 144 124
f 123 125 127
f 124 144 145
f 124 145 146
f 124 146 147
f 124 147 125
f 125 147 127
f 126 127 129
f 127 147 148
f 127 148 149
f 127 149 129
f 129 149 130
f 130 149 150
f 130 150 131
f 131 151 132
f 131 150 152
f 131 152 172
f 131 172 151
f 134 153 154
f 136 154 155
f 136 155 137
f 137 156 157
f 137 157 158
f 137 155 156
f 138 159 139
f 139 159 160
f 139 160 188
f 139 188 161
f 139 161 140
f 140 161 141
f 141 161 162
f 141 162 142
f 142 162 143
f 143 162 163
f 143 163 145
f 143 145 144
f 145 163 164
f 145 164 165
f 145 165 146
f 146 165 166
f 146 166 147
f 147 166 167
f 147 167 168
f 147 168 148
f 148 168 149
f 149 168 169
f 149 169 170
f 149 170 150
f 150 170 171
f 150 171 152
f 152 171 199
f 152 199 172
f 153 173 154
f 153 174 173
f 154 173 175
f 154 175 176
f 154 176 177
f 154 177 178
f 154 178 179
f 154 179 180
f 154 180 181
f 154 181 182
f 154 182 156
f 154 156 155
f 156 182 183
f 156 183 157
f 157 183 184
f 157 184 185
f 157 185 158
f 159 186 187
f 159 187 160
f 160 187 188
f 161 188 189
f 161 189 162
f 162 189 164
f 162 164 163
f 164 190 191
f 164 191 165
f 164 189 190
f 165 191 192
f 165 192 193
f 165 193 166
f 166 193 167
f 167 193 194
f 167 194 168
f 168 194 195
f 168 195 196
f 168 196 169
f 169 196 197
f 169 197 170
f 170 197 171
f 171 198 199
f 171 197 200
f 171 200 198
f 173 174 201
f 173 201 202
f 173 202 175
f 175 202 203
f 175 203 176
f 176 203 204
f 176 204 205
f 176 205 177
f 177 205 178
f 178 205 206
f 178 206 179
f 179 206 207
f 179 207 208
f 179 208 180
f 180 208 209
f 180 209 181
f 181 209 182
f 182 209 210
f 182 210 183
f 183 210 211
f 183 211 212
f 183 212 213
f 183 213 214
f 183 214 184
f 184 214 215
f 184 215 185
f 186 216 187
f 187 216 217
f 187 217 218
f 187 218 188
f 188 218 190
f 188 190 189
f 190 218 211
f 190 211 219
f 190 219 191
f 191 219 192
f 192 219 220
f 192 220 221
f 192 221 193
f 193 221 222
f 193 222 194
f 194 222 195
f 195 222 223
f 195 223 224
f 195 224 196
f 196 224 197
f 197 224 225
f 197 225 226
f 197 226 200
f 198 200 227
f 200 228 227
f 200 226 228
f 201 229 202
f 202 229 231
f 202 231 226
f 202 226 203
f 203 226 225
f 203 225 224
f 203 224 204
f 204 224 205
f 205 224 223
f 205 223 222
f 205 222 206
f 206 222 221
f 206 221 207
f 207 221 208
f 208 221 220
f 208 220 219
f 208 219 209
f 209 219 211
f 209 211 210
f 211 218 212
f 212 230 213
f 212 218 230
f 213 230 214
f 214 230 216
f 216 230 217
f 217 230 218
f 226 231 228