# https://github.com/mikedh/trimesh
v -0.02176672 0.00573926 -0.00578461 0.56470588 0.01568627 0.61568627
v -0.02176672 -0.00572981 -0.00578461 0.56470588 0.01568627 0.61568627
v -0.02196559 0.00573926 -0.00988665 0.56470588 0.01568627 0.61568627
v -0.04998356 0.00573926 -0.00578461 0.56470588 0.01568627 0.61568627
v -0.02197664 -0.00572981 -0.01010364 0.56470588 0.01568627 0.61568627
v -0.04998356 -0.00572981 -0.00578461 0.56470588 0.01568627 0.61568627
v -0.02198216 0.00573926 -0.01020652 0.56470588 0.01568627 0.61568627
v -0.04998356 0.00573926 -0.01014637 0.56470588 0.01568627 0.61568627
v -0.02198216 -0.00572981 -0.01020877 0.56470588 0.01568627 0.61568627
v -0.04998356 -0.00572981 -0.01014637 0.56470588 0.01568627 0.61568627
v -0.02199321 0.00573926 -0.01032513 0.56470588 0.01568627 0.61568627
v -0.04997804 0.00573926 -0.01020090 0.56470588 0.01568627 0.61568627
v -0.04997804 -0.00572981 -0.01020146 0.56470588 0.01568627 0.61568627
v -0.02199321 -0.00572981 -0.01032345 0.56470588 0.01568627 0.61568627
v -0.02201531 -0.00572981 -0.01044094 0.56470588 0.01568627 0.61568627
v -0.02201531 0.00573926 -0.01043869 0.56470588 0.01568627 0.61568627
v -0.04995870 0.00573926 -0.01038585 0.56470588 0.01568627 0.61568627
v -0.04995870 -0.00572981 -0.01038585 0.56470588 0.01568627 0.61568627
v -0.02204845 -0.00572981 -0.01055168 0.56470588 0.01568627 0.61568627
v -0.02204845 0.00573926 -0.01055449 0.56470588 0.01568627 0.61568627
v -0.04990622 0.00573926 -0.01056517 0.56470588 0.01568627 0.61568627
v -0.04992556 0.00000023 -0.01050221 0.56470588 0.01568627 0.61568627
v -0.04990622 -0.00572981 -0.01056517 0.56470588 0.01568627 0.61568627
v -0.02209264 -0.00572981 -0.01066524 0.56470588 0.01568627 0.61568627
v -0.02208988 0.00573926 -0.01066243 0.56470588 0.01568627 0.61568627
v -0.04988966 0.00573926 -0.01061858 0.56470588 0.01568627 0.61568627
v -0.04988966 -0.00572981 -0.01061858 0.56470588 0.01568627 0.61568627
v -0.02214236 -0.00572981 -0.01076867 0.56470588 0.01568627 0.61568627
v -0.02214512 0.00573926 -0.01077205 0.56470588 0.01568627 0.61568627
v -0.04986479 0.00573926 -0.01066805 0.56470588 0.01568627 0.61568627
v -0.04986479 -0.00572981 -0.01066861 0.56470588 0.01568627 0.61568627
v -0.02220865 -0.00572981 -0.01087436 0.56470588 0.01568627 0.61568627
v -0.02220589 0.00573926 -0.01087098 0.56470588 0.01568627 0.61568627
v -0.04977917 0.00573926 -0.01083669 0.56470588 0.01568627 0.61568627
v -0.04977917 -0.00572981 -0.01083669 0.56470588 0.01568627 0.61568627
v -0.02228046 -0.00572981 -0.01096824 0.56470588 0.01568627 0.61568627
v -0.02228322 0.00573926 -0.01097161 0.56470588 0.01568627 0.61568627
v -0.04966040 0.00573926 -0.01098848 0.56470588 0.01568627 0.61568627
v -0.04966040 -0.00572981 -0.01098848 0.56470588 0.01568627 0.61568627
v -0.02236056 -0.00572981 -0.01105874 0.56470588 0.01568627 0.61568627
v -0.02236056 0.00573926 -0.01105874 0.56470588 0.01568627 0.61568627
v -0.04962450 0.00573926 -0.01103345 0.56470588 0.01568627 0.61568627
v -0.04962450 -0.00572981 -0.01103345 0.56470588 0.01568627 0.61568627
v -0.02236885 0.00573926 -0.01106605 0.56470588 0.01568627 0.61568627
v -0.02254838 -0.00572981 -0.01122065 0.56470588 0.01568627 0.61568627
v -0.04958307 0.00573926 -0.01107224 0.56470588 0.01568627 0.61568627
v -0.04958307 -0.00572981 -0.01107280 0.56470588 0.01568627 0.61568627
v -0.02254838 0.00573926 -0.01122065 0.56470588 0.01568627 0.61568627
v -0.02274448 -0.00572981 -0.01134207 0.56470588 0.01568627 0.61568627
v -0.02255942 0.00573926 -0.01122795 0.56470588 0.01568627 0.61568627
v -0.04948087 0.00573926 -0.01116499 0.56470588 0.01568627 0.61568627
v -0.04948087 -0.00572981 -0.01116499 0.56470588 0.01568627 0.61568627
v -0.02276105 -0.00572981 -0.01135163 0.56470588 0.01568627 0.61568627
v -0.02276105 0.00573926 -0.01135163 0.56470588 0.01568627 0.61568627
v -0.04943668 0.00573926 -0.01120378 0.56470588 0.01568627 0.61568627
v -0.04943668 -0.00572981 -0.01120378 0.56470588 0.01568627 0.61568627
v -0.02297649 -0.00572981 -0.01143989 0.56470588 0.01568627 0.61568627
v -0.02299583 0.00573926 -0.01144776 0.56470588 0.01568627 0.61568627
v -0.04922124 0.00573926 -0.01134207 0.56470588 0.01568627 0.61568627
v -0.04922124 -0.00572981 -0.01134207 0.56470588 0.01568627 0.61568627
v -0.02299583 -0.00572981 -0.01144776 0.56470588 0.01568627 0.61568627
v -0.02322231 -0.00572981 -0.01150116 0.56470588 0.01568627 0.61568627
v -0.02324717 0.00573926 -0.01150678 0.56470588 0.01568627 0.61568627
v -0.04916600 0.00573926 -0.01136512 0.56470588 0.01568627 0.61568627
v -0.04916600 -0.00572981 -0.01136512 0.56470588 0.01568627 0.61568627
v -0.02324717 -0.00572981 -0.01150678 0.56470588 0.01568627 0.61568627
v -0.02327203 0.00573926 -0.01150903 0.56470588 0.01568627 0.61568627
v -0.04897818 0.00573926 -0.01144326 0.56470588 0.01568627 0.61568627
v -0.04897818 -0.00572981 -0.01144326 0.56470588 0.01568627 0.61568627
v -0.02327203 -0.00572981 -0.01150903 0.56470588 0.01568627 0.61568627
v -0.02350404 0.00000023 -0.01152702 0.56470588 0.01568627 0.61568627
v -0.02350404 0.00573926 -0.01152646 0.56470588 0.01568627 0.61568627
v -0.04892018 0.00573926 -0.01145787 0.56470588 0.01568627 0.61568627
v -0.04892018 -0.00572981 -0.01145787 0.56470588 0.01568627 0.61568627
v -0.02350404 -0.00572981 -0.01152702 0.56470588 0.01568627 0.61568627
v -0.04845892 0.00000023 -0.01152702 0.56470588 0.01568627 0.61568627
v -0.04845892 0.00573926 -0.01152646 0.56470588 0.01568627 0.61568627
v -0.04878208 0.00573926 -0.01149160 0.56470588 0.01568627 0.61568627
v -0.04878208 -0.00572981 -0.01149160 0.56470588 0.01568627 0.61568627
v -0.04845892 -0.00572981 -0.01152702 0.56470588 0.01568627 0.61568627
v -0.04866331 0.00573926 -0.01151072 0.56470588 0.01568627 0.61568627
v -0.04851969 0.00573926 -0.01152196 0.56470588 0.01568627 0.61568627
v -0.04872408 0.00573926 -0.01150566 0.56470588 0.01568627 0.61568627
v -0.04872408 -0.00572981 -0.01150566 0.56470588 0.01568627 0.61568627
v -0.04866331 -0.00572981 -0.01151072 0.56470588 0.01568627 0.61568627
f 1 2 3
f 1 3 7
f 1 7 11
f 1 11 16
f 1 16 20
f 1 20 25
f 1 25 29
f 1 29 33
f 1 33 37
f 1 37 41
f 1 41 44
f 1 44 48
f 1 48 50
f 1 50 54
f 1 54 58
f 1 58 63
f 1 63 67
f 1 67 72
f 1 72 77
f 1 77 82
f 1 82 81
f 1 81 83
f 1 83 78
f 1 78 73
f 1 73 68
f 1 68 64
f 1 64 59
f 1 59 55
f 1 55 51
f 1 51 46
f 1 46 42
f 1 42 38
f 1 38 34
f 1 34 30
f 1 30 26
f 1 26 21
f 1 21 17
f 1 17 12
f 1 12 8
f 1 8 4
f 1 4 6
f 1 6 2
f 2 5 3
f 2 6 10
f 2 10 13
f 2 13 18
f 2 18 23
f 2 23 27
f 2 27 31
f 2 31 35
f 2 35 39
f 2 39 43
f 2 43 47
f 2 47 52
f 2 52 56
f 2 56 60
f 2 60 65
f 2 65 69
f 2 69 74
f 2 74 79
f 2 79 84
f 2 84 85
f 2 85 80
f 2 80 75
f 2 75 70
f 2 70 66
f 2 66 62
f 2 62 61
f 2 61 57
f 2 57 53
f 2 53 49
f 2 49 45
f 2 45 40
f 2 40 36
f 2 36 32
f 2 32 28
f 2 28 24
f 2 24 19
f 2 19 15
f 2 15 14
f 2 14 9
f 2 9 5
f 3 5 7
f 4 8 10
f 4 10 6
f 5 9 7
f 7 9 11
f 8 12 13
f 8 13 10
f 9 14 11
f 11 14 15
f 11 15 16
f 12 17 13
f 13 17 18
f 15 19 20
f 15 20 16
f 17 21 22
f 17 22 18
f 18 22 23
f 19 24 25
f 19 25 20
f 21 26 27
f 21 27 23
f 21 23 22
f 24 28 25
f 25 28 29
f 26 30 31
f 26 31 27
f 28 32 33
f 28 33 29
f 30 34 31
f 31 34 35
f 32 36 33
f 33 36 37
f 34 38 39
f 34 39 35
f 36 40 37
f 37 40 41
f 38 42 43
f 38 43 39
f 40 44 41
f 40 45 44
f 42 46 47
f 42 47 43
f 44 45 48
f 45 49 50
f 45 50 48
f 46 51 47
f 47 51 52
f 49 53 54
f 49 54 50
f 51 55 56
f 51 56 52
f 53 57 54
f 54 57 58
f 55 59 60
f 55 60 56
f 57 61 58
f 58 61 62
f 58 62 63
f 59 64 65
f 59 65 60
f 62 66 63
f 63 66 70
f 63 70 67
f 64 68 69
f 64 69 65
f 67 70 75
f 67 75 71
f 67 71 72
f 68 73 74
f 68 74 69
f 71 75 80
f 71 80 76
f 71 76 77
f 71 77 72
f 73 78 79
f 73 79 74
f 76 80 85
f 76 85 81
f 76 81 82
f 76 82 77
f 78 83 84
f 78 84 79
f 81 85 84
f 81 84 83