# https://github.com/mikedh/trimesh
v 0.07240001 -0.01700332 -0.01246826
v 0.07240001 -0.01696995 -0.01248383
v 0.07240001 -0.01677968 -0.01257255
v 0.07240001 -0.01677726 -0.01257368
v 0.07240001 -0.01678454 -0.01257029
v 0.07240001 -0.01652066 -0.01264244
v 0.07240001 -0.01625602 -0.01266558
v 0.07543830 -0.01695784 -0.01248948
v 0.07543830 -0.01677726 -0.01257368
v 0.07543830 -0.01683746 -0.01254562
v 0.07543830 -0.01671312 -0.01259086
v 0.07543830 -0.01658482 -0.01262524
v 0.07543830 -0.01652066 -0.01264244
v 0.07543830 -0.01645450 -0.01264822
v 0.07543830 -0.01632218 -0.01265980
v 0.07543830 -0.01625602 -0.01266558
v 0.08206730 -0.01064304 -0.01266558
v 0.08231226 -0.01039806 -0.01264576
v 0.08255088 -0.01015946 -0.01258684
v 0.08277690 -0.00993344 -0.01249030
v 0.08298446 -0.00972586 -0.01235870
v 0.08316818 -0.00954214 -0.01219546
v 0.08332326 -0.00938706 -0.01200478
v 0.08338878 -0.00932156 -0.01190070
v 0.08344568 -0.00926464 -0.01179168
v 0.08349362 -0.00921670 -0.01167842
v 0.08353226 -0.00917806 -0.01156166
v 0.08356136 -0.00914896 -0.01144216
v 0.08358074 -0.00912960 -0.01132072
v 0.08359024 -0.00912008 -0.01119810
v 0.08358984 -0.00912048 -0.01107510
v 0.08486806 -0.01699546 -0.01247194
v 0.08486806 -0.01700332 -0.01246827
v 0.08486806 -0.01696536 -0.01248596
v 0.08486806 -0.01687508 -0.01252806
v 0.08486806 -0.01693526 -0.01250000
v 0.08486806 -0.01677726 -0.01257368
v 0.08486806 -0.01678478 -0.01257016
v 0.08486806 -0.01676924 -0.01257582
v 0.08486806 -0.01675320 -0.01258012
v 0.08486806 -0.01684498 -0.01254210
v 0.08486806 -0.01682994 -0.01254912
v 0.08486806 -0.01679984 -0.01256316
v 0.08486806 -0.01672114 -0.01258872
v 0.08486806 -0.01668906 -0.01259732
v 0.08486806 -0.01662492 -0.01261450
v 0.08486806 -0.01659284 -0.01262310
v 0.08486806 -0.01657680 -0.01262740
v 0.08486806 -0.01654472 -0.01263598
v 0.08486806 -0.01651240 -0.01264316
v 0.08486806 -0.01652066 -0.01264244
v 0.08486806 -0.01652868 -0.01264028
v 0.08486806 -0.01649586 -0.01264460
v 0.08486806 -0.01646278 -0.01264750
v 0.08486806 -0.01644624 -0.01264894
v 0.08486806 -0.01641316 -0.01265184
v 0.08486806 -0.01634700 -0.01265762
v 0.08486806 -0.01631392 -0.01266052
v 0.08486806 -0.01628084 -0.01266342
v 0.08486806 -0.01625602 -0.01266558
v 0.08486806 -0.01626430 -0.01266486
v 0.08206730 -0.00000002 -0.01266558
v 0.08218978 -0.00012252 -0.01265568
v 0.08231226 -0.00000002 -0.01264576
v 0.08243158 -0.00011932 -0.01261630
v 0.08255088 -0.00000002 -0.01258684
v 0.08266388 -0.00011304 -0.01253856
v 0.08277690 -0.00000002 -0.01249030
v 0.08288068 -0.00010382 -0.01242450
v 0.08298446 -0.00000002 -0.01235870
v 0.08307632 -0.00009188 -0.01227708
v 0.08316818 -0.00000002 -0.01219546
v 0.08324572 -0.00007756 -0.01210012
v 0.08332326 -0.00000002 -0.01200478
v 0.08335602 -0.00003278 -0.01195274
v 0.08338878 -0.00000002 -0.01190070
v 0.08344568 -0.00000002 -0.01179168
v 0.08349362 -0.00000002 -0.01167842
v 0.08353226 -0.00000002 -0.01156166
v 0.08354682 -0.00001458 -0.01150192
v 0.08356136 -0.00000002 -0.01144216
v 0.08358074 -0.00000002 -0.01132072
v 0.08359024 -0.00000002 -0.01119810
v 0.08359004 -0.00000022 -0.01113660
v 0.08358984 -0.00000002 -0.01107510
v 0.07240001 -0.01700332 0.01253709
v 0.07240001 -0.01683988 0.01261331
v 0.07240001 -0.01677726 0.01264250
v 0.07240001 -0.01652066 0.01271126
v 0.07240001 -0.01625602 0.01273442
v 0.07240001 -0.01411214 0.01273442
v 0.07240001 -0.01335784 0.01273442
v 0.07342992 -0.01335784 0.01273442
v 0.07543830 -0.01695784 0.01255830
v 0.07543830 -0.01683746 0.01261444
v 0.07543830 -0.01677726 0.01264250
v 0.07543830 -0.01671312 0.01265970
v 0.07543830 -0.01658482 0.01269408
v 0.07543830 -0.01652066 0.01271126
v 0.07543830 -0.01645450 0.01271706
v 0.07543830 -0.01632218 0.01272862
v 0.07543830 -0.01625602 0.01273442
v 0.07543830 -0.01393748 0.01273442
v 0.07585918 -0.01451712 0.01273442
v 0.07619584 -0.01422730 0.01273442
v 0.07590354 -0.01364766 0.01273442
v 0.07717194 -0.01422730 0.01273442
v 0.07733436 -0.01335784 0.01273442
v 0.07838658 -0.01480694 0.01273442
v 0.08310188 -0.00960844 0.00010090
v 0.08841234 -0.00960844 0.00010090
v 0.08184446 -0.01451712 0.01273442
v 0.08416142 -0.01567638 0.01273442
v 0.08423384 -0.01393748 0.01273442
v 0.08437186 -0.01480694 0.01273442
v 0.08109140 -0.01161894 0.01273442
v 0.08134874 -0.01136158 0.01271252
v 0.08159872 -0.01111162 0.01264750
v 0.08183410 -0.01087622 0.01254118
v 0.08204816 -0.01066214 0.01239664
v 0.08261394 -0.01009640 0.01127690
v 0.08258084 -0.01012948 0.01153306
v 0.08260282 -0.01010750 0.01140568
v 0.08245162 -0.01025870 0.01189768
v 0.08254814 -0.01016218 0.01165810
v 0.08250496 -0.01020536 0.01177994
v 0.08231602 -0.01039430 0.01211752
v 0.08223474 -0.01047558 0.01221804
v 0.08238848 -0.01032184 0.01201048
v 0.08486806 -0.01699546 0.01254076
v 0.08486806 -0.01700332 0.01253709
v 0.08486806 -0.01696536 0.01255480
v 0.08486806 -0.01695032 0.01256182
v 0.08486806 -0.01692022 0.01257584
v 0.08486806 -0.01686002 0.01260392
v 0.08486806 -0.01682994 0.01261794
v 0.08486806 -0.01679984 0.01263198
v 0.08486806 -0.01677726 0.01264250
v 0.08486806 -0.01678478 0.01263900
v 0.08486806 -0.01676924 0.01264466
v 0.08486806 -0.01675320 0.01264896
v 0.08486806 -0.01672114 0.01265754
v 0.08486806 -0.01668906 0.01266614
v 0.08486806 -0.01662492 0.01268332
v 0.08486806 -0.01659284 0.01269192
v 0.08486806 -0.01657680 0.01269622
v 0.08486806 -0.01654472 0.01270482
v 0.08486806 -0.01652868 0.01270912
v 0.08486806 -0.01651240 0.01271198
v 0.08486806 -0.01652066 0.01271126
v 0.08486806 -0.01649586 0.01271344
v 0.08486806 -0.01646278 0.01271632
v 0.08486806 -0.01644624 0.01271778
v 0.08486806 -0.01641316 0.01272066
v 0.08486806 -0.01634700 0.01272646
v 0.08486806 -0.01631392 0.01272934
v 0.08486806 -0.01628084 0.01273224
v 0.08486806 -0.01625602 0.01273442
v 0.08486806 -0.01626430 0.01273370
v 0.08574892 -0.01451712 0.01273442
v 0.08770114 -0.01451712 0.01273442
v 0.08877162 -0.01149026 0.01272348
v 0.08890030 -0.01161894 0.01273442
v 0.08285792 -0.00480424 0.00568890
v 0.08109140 -0.00000002 0.01273442
v 0.08134874 -0.00000002 0.01271252
v 0.08159872 -0.00000002 0.01264750
v 0.08261394 -0.00000002 0.01127690
v 0.08260838 -0.00000558 0.01134128
v 0.08258084 -0.00000002 0.01153306
v 0.08260284 -0.00000002 0.01140568
v 0.08259184 -0.00001102 0.01146936
v 0.08245162 -0.00000002 0.01189768
v 0.08256450 -0.00001638 0.01159558
v 0.08254814 -0.00000002 0.01165810
v 0.08250496 -0.00000002 0.01177994
v 0.08247830 -0.00002670 0.01183882
v 0.08183410 -0.00000002 0.01254118
v 0.08204818 -0.00000002 0.01239664
v 0.08231602 -0.00000002 0.01211752
v 0.08238850 -0.00000002 0.01201048
v 0.08235226 -0.00003626 0.01206400
v 0.08223476 -0.00000002 0.01221804
v 0.07583806 0.00266072 -0.01266558
v 0.07240001 0.01274786 -0.01266558
v 0.07330794 0.01274786 -0.01266558
v 0.07240001 0.01380030 -0.01266558
v 0.07418262 0.01380030 -0.01266558
v 0.07240001 0.01625598 -0.01266558
v 0.07240001 0.01652062 -0.01264244
v 0.07240001 0.01678449 -0.01257029
v 0.07240001 0.01677964 -0.01257255
v 0.07240001 0.01677722 -0.01257368
v 0.07240001 0.01683983 -0.01254449
v 0.07240001 0.01686407 -0.01253318
v 0.07240001 0.01700332 -0.01246824
v 0.07543830 0.01344948 -0.01266558
v 0.07589088 0.01380030 -0.01266558
v 0.07645248 0.01309866 -0.01266558
v 0.07598118 0.01415110 -0.01266558
v 0.07543832 0.01625598 -0.01266558
v 0.07543832 0.01632214 -0.01265980
v 0.07543832 0.01645446 -0.01264822
v 0.07543832 0.01652062 -0.01264244
v 0.07543832 0.01658476 -0.01262524
v 0.07543832 0.01671306 -0.01259086
v 0.07543832 0.01677722 -0.01257368
v 0.07543832 0.01683740 -0.01254562
v 0.07543832 0.01695778 -0.01248948
v 0.07672444 0.01274786 -0.01266558
v 0.07674500 0.01380030 -0.01266558
v 0.07808162 0.01450192 -0.01266558
v 0.08341724 0.00002842 -0.01184618
v 0.08346966 0.00002394 -0.01173504
v 0.08351294 0.00001930 -0.01162004
v 0.08357106 0.00000966 -0.01138144
v 0.08358550 0.00000474 -0.01125940
v 0.08231226 0.01039800 -0.01264576
v 0.08255088 0.01015940 -0.01258684
v 0.08206730 0.01064298 -0.01266558
v 0.08316818 0.00954210 -0.01219546
v 0.08332328 0.00938700 -0.01200478
v 0.08338878 0.00932150 -0.01190070
v 0.08344570 0.00926458 -0.01179168
v 0.08349362 0.00921666 -0.01167842
v 0.08353226 0.00917802 -0.01156166
v 0.08356136 0.00914892 -0.01144216
v 0.08358074 0.00912954 -0.01132072
v 0.08359026 0.00912002 -0.01119810
v 0.08277690 0.00993338 -0.01249030
v 0.08298448 0.00972582 -0.01235870
v 0.08358984 0.00912042 -0.01107510
v 0.08221044 0.01415110 -0.01266558
v 0.08472180 0.01344948 -0.01266558
v 0.08431088 0.01450192 -0.01266558
v 0.08403944 0.01555434 -0.01266558
v 0.08562694 0.01415110 -0.01266558
v 0.08486806 0.01625598 -0.01266558
v 0.08486806 0.01626424 -0.01266486
v 0.08486806 0.01628078 -0.01266342
v 0.08486806 0.01631386 -0.01266052
v 0.08486806 0.01634694 -0.01265762
v 0.08486806 0.01641310 -0.01265184
v 0.08486806 0.01644618 -0.01264894
v 0.08486806 0.01646272 -0.01264750
v 0.08486806 0.01649580 -0.01264460
v 0.08486806 0.01652062 -0.01264244
v 0.08486806 0.01651234 -0.01264316
v 0.08486806 0.01652864 -0.01264028
v 0.08486806 0.01654466 -0.01263598
v 0.08486806 0.01657674 -0.01262740
v 0.08486806 0.01660882 -0.01261880
v 0.08486806 0.01667296 -0.01260160
v 0.08486806 0.01670504 -0.01259302
v 0.08486806 0.01672108 -0.01258872
v 0.08486806 0.01675316 -0.01258012
v 0.08486806 0.01676920 -0.01257582
v 0.08486806 0.01678474 -0.01257016
v 0.08486806 0.01677722 -0.01257368
v 0.08486806 0.01679978 -0.01256316
v 0.08486806 0.01682988 -0.01254912
v 0.08486806 0.01684492 -0.01254210
v 0.08486806 0.01687502 -0.01252806
v 0.08486806 0.01693522 -0.01250000
v 0.08486806 0.01696530 -0.01248596
v 0.08486806 0.01699540 -0.01247194
v 0.08486806 0.01700332 -0.01246824
v 0.08733518 0.01415110 -0.01266558
v 0.07510612 0.00290470 0.01273442
v 0.07240001 0.00740085 0.01273442
v 0.07240001 0.01339971 0.01273442
v 0.07342992 0.01335780 0.01273442
v 0.07240001 0.01409590 0.01273442
v 0.07240001 0.01625598 0.01273442
v 0.07240001 0.01626397 0.01273372
v 0.07240001 0.01633546 0.01272745
v 0.07240001 0.01652062 0.01271126
v 0.07240001 0.01671564 0.01265900
v 0.07240001 0.01672598 0.01265624
v 0.07240001 0.01677722 0.01264250
v 0.07240001 0.01700332 0.01253707
v 0.07543830 0.01393744 0.01273442
v 0.07590354 0.01364762 0.01273442
v 0.07585918 0.01451706 0.01273442
v 0.07619584 0.01422724 0.01273442
v 0.07543832 0.01625598 0.01273442
v 0.07543832 0.01632214 0.01272862
v 0.07543832 0.01645446 0.01271706
v 0.07543832 0.01652062 0.01271126
v 0.07543832 0.01658476 0.01269408
v 0.07543832 0.01671306 0.01265970
v 0.07543832 0.01683740 0.01261444
v 0.07543832 0.01677722 0.01264250
v 0.07543832 0.01695778 0.01255830
v 0.07733438 0.01335780 0.01273442
v 0.07717196 0.01422724 0.01273442
v 0.07838658 0.01480688 0.01273442
v 0.08310190 0.00048792 0.00010090
v 0.08122008 0.00012866 0.01272348
v 0.08147374 0.00012496 0.01268002
v 0.08252656 0.00002156 0.01171902
v 0.08214146 0.00009326 0.01230734
v 0.08171642 0.00011768 0.01259434
v 0.08194114 0.00010700 0.01246892
v 0.08242006 0.00003154 0.01195408
v 0.08227538 0.00004062 0.01216778
v 0.08310190 0.00960838 0.00010090
v 0.08261394 0.01009634 0.01127690
v 0.08258084 0.01012944 0.01153306
v 0.08260284 0.01010746 0.01140568
v 0.08245162 0.01025864 0.01189768
v 0.08254814 0.01016214 0.01165810
v 0.08250498 0.01020530 0.01177994
v 0.08238850 0.01032178 0.01201048
v 0.08231604 0.01039424 0.01211752
v 0.08223476 0.01047552 0.01221804
v 0.08109140 0.01161888 0.01273442
v 0.08159872 0.01111156 0.01264750
v 0.08134876 0.01136152 0.01271252
v 0.08183412 0.01087616 0.01254118
v 0.08204818 0.01066210 0.01239664
v 0.08184446 0.01451706 0.01273442
v 0.08423384 0.01393742 0.01273442
v 0.08437186 0.01480688 0.01273442
v 0.08416142 0.01567634 0.01273442
v 0.08890030 0.01161888 0.01273442
v 0.08574892 0.01451706 0.01273442
v 0.08486806 0.01625598 0.01273442
v 0.08486806 0.01626424 0.01273370
v 0.08486806 0.01628078 0.01273224
v 0.08486806 0.01631386 0.01272934
v 0.08486806 0.01634694 0.01272646
v 0.08486806 0.01641310 0.01272066
v 0.08486806 0.01644618 0.01271778
v 0.08486806 0.01646272 0.01271632
v 0.08486806 0.01649580 0.01271344
v 0.08486806 0.01652864 0.01270912
v 0.08486806 0.01652062 0.01271126
v 0.08486806 0.01651234 0.01271198
v 0.08486806 0.01654466 0.01270482
v 0.08486806 0.01657674 0.01269622
v 0.08486806 0.01660882 0.01268762
v 0.08486806 0.01667296 0.01267044
v 0.08486806 0.01672108 0.01265754
v 0.08486806 0.01670504 0.01266184
v 0.08486806 0.01679978 0.01263198
v 0.08486806 0.01682988 0.01261794
v 0.08486806 0.01684492 0.01261094
v 0.08486806 0.01675316 0.01264896
v 0.08486806 0.01676920 0.01264466
v 0.08486806 0.01678474 0.01263900
v 0.08486806 0.01677722 0.01264250
v 0.08486806 0.01693522 0.01256882
v 0.08486806 0.01687502 0.01259690
v 0.08486806 0.01696530 0.01255480
v 0.08486806 0.01699540 0.01254076
v 0.08770114 0.01451706 0.01273442
v 0.08983980 -0.01204628 -0.01266558
v 0.09066842 -0.01134466 -0.01266558
v 0.09429780 -0.01700298 -0.01246842
v 0.09429780 -0.01697288 -0.01248246
v 0.09429780 -0.01691270 -0.01251052
v 0.09429780 -0.01679232 -0.01256666
v 0.09429780 -0.01677726 -0.01257368
v 0.09429780 -0.01676124 -0.01257798
v 0.09429780 -0.01685250 -0.01253860
v 0.09429780 -0.01682242 -0.01255262
v 0.09429780 -0.01672916 -0.01258656
v 0.09429780 -0.01666500 -0.01260376
v 0.09429780 -0.01660086 -0.01262094
v 0.09429780 -0.01656878 -0.01262954
v 0.09429780 -0.01652068 -0.01264244
v 0.09429780 -0.01653670 -0.01263814
v 0.09429780 -0.01650414 -0.01264388
v 0.09429780 -0.01647104 -0.01264678
v 0.09429780 -0.01643796 -0.01264966
v 0.09429780 -0.01637180 -0.01265546
v 0.09429780 -0.01630564 -0.01266124
v 0.09429780 -0.01627256 -0.01266414
v 0.09429780 -0.01625602 -0.01266558
v 0.09472515 -0.01700332 -0.01246826
v 0.09481612 -0.00972586 -0.01235870
v 0.09502370 -0.00993344 -0.01249030
v 0.09441182 -0.00932156 -0.01190070
v 0.09447734 -0.00938706 -0.01200478
v 0.09463242 -0.00954216 -0.01219546
v 0.09430698 -0.00921672 -0.01167842
v 0.09426834 -0.00917806 -0.01156166
v 0.09435492 -0.00926464 -0.01179168
v 0.09423924 -0.00914896 -0.01144216
v 0.09421986 -0.00912960 -0.01132072
v 0.09421034 -0.00912008 -0.01119810
v 0.09421076 -0.00912048 -0.01107510
v 0.09573330 -0.01064304 -0.01266558
v 0.09524972 -0.01015946 -0.01258684
v 0.09548834 -0.01039806 -0.01264576
v 0.09444458 -0.00003278 -0.01195274
v 0.09441182 -0.00000004 -0.01190070
v 0.09447734 -0.00000004 -0.01200478
v 0.09481614 -0.00000002 -0.01235870
v 0.09502370 -0.00000004 -0.01249030
v 0.09463242 -0.00000002 -0.01219546
v 0.09430698 -0.00000002 -0.01167842
v 0.09428766 -0.00001934 -0.01162004
v 0.09426834 -0.00000002 -0.01156166
v 0.09425380 -0.00001458 -0.01150192
v 0.09435492 -0.00000004 -0.01179168
v 0.09438336 -0.00002848 -0.01184618
v 0.09423924 -0.00000002 -0.01144216
v 0.09422956 -0.00000972 -0.01138144
v 0.09421986 -0.00000002 -0.01132072
v 0.09421036 -0.00000004 -0.01119810
v 0.09421076 -0.00000002 -0.01107510
v 0.09524972 -0.00000002 -0.01258684
v 0.09548834 -0.00000002 -0.01264576
v 0.09573330 -0.00000002 -0.01266558
v 0.09761230 -0.01344954 -0.01266558
v 0.09926954 -0.01204628 -0.01266558
v 0.10372754 -0.01699546 -0.01247194
v 0.10372754 -0.01698042 -0.01247896
v 0.10372754 -0.01700332 -0.01246827
v 0.10372754 -0.01695032 -0.01249298
v 0.10372754 -0.01689012 -0.01252106
v 0.10372754 -0.01677728 -0.01257368
v 0.10372754 -0.01678480 -0.01257016
v 0.10372754 -0.01676926 -0.01257582
v 0.10372754 -0.01675322 -0.01258012
v 0.10372754 -0.01686004 -0.01253508
v 0.10372754 -0.01681490 -0.01255614
v 0.10372754 -0.01682994 -0.01254912
v 0.10372754 -0.01679984 -0.01256316
v 0.10372754 -0.01670510 -0.01259302
v 0.10372754 -0.01673718 -0.01258442
v 0.10372754 -0.01660888 -0.01261880
v 0.10372754 -0.01664096 -0.01261020
v 0.10372754 -0.01657680 -0.01262740
v 0.10372754 -0.01656076 -0.01263168
v 0.10372754 -0.01654472 -0.01263598
v 0.10372754 -0.01651240 -0.01264316
v 0.10372754 -0.01652068 -0.01264244
v 0.10372754 -0.01652870 -0.01264028
v 0.10372754 -0.01649586 -0.01264460
v 0.10372754 -0.01647932 -0.01264604
v 0.10372754 -0.01646278 -0.01264750
v 0.10372754 -0.01642970 -0.01265040
v 0.10372754 -0.01639662 -0.01265328
v 0.10372754 -0.01633046 -0.01265908
v 0.10372754 -0.01629738 -0.01266196
v 0.10372754 -0.01628084 -0.01266342
v 0.10372754 -0.01625604 -0.01266558
v 0.10372754 -0.01626430 -0.01266486
v 0.10540581 -0.01699412 -0.01247256
v 0.10540581 -0.01700332 -0.01246827
v 0.10540581 -0.01677728 -0.01257368
v 0.10540581 -0.01683664 -0.01254600
v 0.10540581 -0.01682592 -0.01255099
v 0.10540581 -0.01652068 -0.01264244
v 0.10540581 -0.01625604 -0.01266558
v 0.10538480 -0.01485278 -0.01266558
v 0.10540581 -0.01390635 -0.01266558
v 0.10262618 -0.00728066 -0.01266558
v 0.10540581 -0.00274919 -0.01266558
v 0.09469870 -0.00960844 0.00010090
v 0.09288452 -0.01509676 0.01273442
v 0.09204276 -0.01393748 0.01273442
v 0.09256414 -0.01422730 0.01273442
v 0.08981450 -0.01219858 0.01273442
v 0.09429780 -0.01700298 0.01253726
v 0.09429780 -0.01697288 0.01255128
v 0.09429780 -0.01700332 0.01253710
v 0.09429780 -0.01694280 0.01256532
v 0.09429780 -0.01688260 0.01259338
v 0.09429780 -0.01682242 0.01262146
v 0.09429780 -0.01679232 0.01263548
v 0.09429780 -0.01677726 0.01264250
v 0.09429780 -0.01676124 0.01264680
v 0.09429780 -0.01672916 0.01265540
v 0.09429780 -0.01666500 0.01267258
v 0.09429780 -0.01660086 0.01268978
v 0.09429780 -0.01656878 0.01269838
v 0.09429780 -0.01653670 0.01270696
v 0.09429780 -0.01652068 0.01271126
v 0.09429780 -0.01650414 0.01271270
v 0.09429780 -0.01647104 0.01271560
v 0.09429780 -0.01643796 0.01271850
v 0.09429780 -0.01637180 0.01272428
v 0.09429780 -0.01630564 0.01273008
v 0.09429780 -0.01627256 0.01273296
v 0.09429780 -0.01625602 0.01273442
v 0.09334976 -0.01480694 0.01273442
v 0.09530198 -0.01480694 0.01273442
v 0.09627810 -0.01480694 0.01273442
v 0.09649668 -0.01451712 0.01273442
v 0.09575242 -0.01066216 0.01239664
v 0.09596648 -0.01087622 0.01254118
v 0.09645184 -0.01136158 0.01271252
v 0.09620188 -0.01111162 0.01264750
v 0.09670922 -0.01161894 0.01273442
v 0.09518666 -0.01009640 0.01127690
v 0.09519778 -0.01010750 0.01140568
v 0.09521976 -0.01012948 0.01153306
v 0.09525246 -0.01016218 0.01165810
v 0.09534898 -0.01025872 0.01189768
v 0.09529562 -0.01020536 0.01177994
v 0.09548458 -0.01039430 0.01211752
v 0.09556584 -0.01047558 0.01221804
v 0.09541210 -0.01032184 0.01201048
v 0.09469870 -0.00048798 0.00010090
v 0.09518666 -0.00000004 0.01127690
v 0.09519778 -0.00000002 0.01140568
v 0.09520876 -0.00001102 0.01146936
v 0.09521976 -0.00000002 0.01153306
v 0.09525246 -0.00000002 0.01165810
v 0.09529564 -0.00000002 0.01177994
v 0.09534898 -0.00000004 0.01189768
v 0.09541212 -0.00000004 0.01201048
v 0.09548458 -0.00000002 0.01211752
v 0.09556586 -0.00000002 0.01221804
v 0.09565914 -0.00009332 0.01230734
v 0.09575242 -0.00000002 0.01239664
v 0.09585946 -0.00010706 0.01246892
v 0.09596650 -0.00000002 0.01254118
v 0.09608418 -0.00011772 0.01259434
v 0.09620188 -0.00000004 0.01264750
v 0.09632686 -0.00012502 0.01268002
v 0.09645186 -0.00000002 0.01271252
v 0.09658054 -0.00012872 0.01272348
v 0.09670922 -0.00000002 0.01273442
v 0.09823034 -0.01480694 0.01273442
v 0.09853762 -0.01277822 0.01273442
v 0.10089446 -0.01451712 0.01273442
v 0.10302092 -0.01567640 0.01273442
v 0.10372754 -0.01699546 0.01254076
v 0.10372754 -0.01698042 0.01254778
v 0.10372754 -0.01700332 0.01253709
v 0.10372754 -0.01696536 0.01255480
v 0.10372754 -0.01693528 0.01256882
v 0.10372754 -0.01690518 0.01258286
v 0.10372754 -0.01684498 0.01261094
v 0.10372754 -0.01681490 0.01262496
v 0.10372754 -0.01679984 0.01263198
v 0.10372754 -0.01677728 0.01264250
v 0.10372754 -0.01678480 0.01263900
v 0.10372754 -0.01676926 0.01264466
v 0.10372754 -0.01675322 0.01264896
v 0.10372754 -0.01673718 0.01265324
v 0.10372754 -0.01670510 0.01266184
v 0.10372754 -0.01664096 0.01267904
v 0.10372754 -0.01660888 0.01268762
v 0.10372754 -0.01657680 0.01269622
v 0.10372754 -0.01656076 0.01270052
v 0.10372754 -0.01654472 0.01270482
v 0.10372754 -0.01652870 0.01270912
v 0.10372754 -0.01651240 0.01271198
v 0.10372754 -0.01652068 0.01271126
v 0.10372754 -0.01649586 0.01271344
v 0.10372754 -0.01647932 0.01271488
v 0.10372754 -0.01646278 0.01271632
v 0.10372754 -0.01642970 0.01271922
v 0.10372754 -0.01639662 0.01272212
v 0.10372754 -0.01633046 0.01272790
v 0.10372754 -0.01629738 0.01273080
v 0.10372754 -0.01628084 0.01273224
v 0.10372754 -0.01625604 0.01273442
v 0.10372754 -0.01626430 0.01273370
v 0.10540581 -0.01699948 0.01253889
v 0.10540581 -0.01700332 0.01253709
v 0.10540581 -0.01677728 0.01264250
v 0.10540581 -0.01652068 0.01271126
v 0.10540581 -0.01625604 0.01273442
v 0.10485506 -0.01509676 0.01273442
v 0.10540581 -0.01511063 0.01273442
v 0.10401330 -0.01393748 0.01273442
v 0.10479892 -0.01451712 0.01273442
v 0.10540581 -0.01393748 0.01273442
v 0.10348010 -0.00348440 0.01273442
v 0.09455488 0.00007752 -0.01210012
v 0.09472428 0.00009182 -0.01227708
v 0.09491992 0.00010376 -0.01242450
v 0.09433094 0.00002394 -0.01173504
v 0.09421510 0.00000472 -0.01125940
v 0.09421056 0.00000018 -0.01113660
v 0.09513672 0.00011298 -0.01253856
v 0.09536904 0.00011928 -0.01261630
v 0.09561082 0.00012246 -0.01265568
v 0.09066844 0.01134460 -0.01266558
v 0.09155482 0.01344948 -0.01266558
v 0.09299112 0.01380028 -0.01266558
v 0.09264056 0.01485272 -0.01266558
v 0.09441182 0.00932148 -0.01190070
v 0.09447734 0.00938700 -0.01200478
v 0.09463242 0.00954210 -0.01219546
v 0.09430698 0.00921666 -0.01167842
v 0.09426834 0.00917802 -0.01156166
v 0.09435492 0.00926458 -0.01179168
v 0.09423924 0.00914892 -0.01144216
v 0.09421986 0.00912954 -0.01132072
v 0.09421036 0.00912002 -0.01119810
v 0.09481614 0.00972580 -0.01235870
v 0.09502372 0.00993338 -0.01249030
v 0.09421076 0.00912042 -0.01107510
v 0.09524974 0.01015940 -0.01258684
v 0.09548834 0.01039800 -0.01264576
v 0.09573330 0.01064298 -0.01266558
v 0.09365474 0.01450190 -0.01266558
v 0.09429782 0.01625596 -0.01266558
v 0.09429782 0.01627250 -0.01266414
v 0.09429782 0.01630558 -0.01266124
v 0.09429782 0.01637174 -0.01265546
v 0.09429782 0.01643790 -0.01264966
v 0.09429782 0.01647098 -0.01264678
v 0.09429782 0.01650406 -0.01264388
v 0.09429782 0.01652060 -0.01264244
v 0.09429782 0.01653664 -0.01263814
v 0.09429782 0.01656872 -0.01262954
v 0.09429782 0.01663288 -0.01261236
v 0.09429782 0.01669702 -0.01259516
v 0.09429782 0.01672910 -0.01258656
v 0.09429782 0.01676118 -0.01257798
v 0.09429782 0.01679226 -0.01256666
v 0.09429782 0.01677720 -0.01257368
v 0.09429782 0.01682236 -0.01255262
v 0.09429782 0.01685244 -0.01253860
v 0.09429782 0.01691264 -0.01251052
v 0.09429782 0.01697282 -0.01248246
v 0.09429782 0.01700292 -0.01246842
v 0.09480003 0.01700332 -0.01246823
v 0.09536300 0.01450190 -0.01266558
v 0.09661868 0.01415110 -0.01266558
v 0.09621712 0.01450190 -0.01266558
v 0.10262618 0.00336234 -0.01266558
v 0.10540581 0.00789381 -0.01266558
v 0.09926956 0.01204622 -0.01266558
v 0.09792538 0.01450190 -0.01266558
v 0.10126042 0.01415110 -0.01266558
v 0.10289894 0.01555434 -0.01266558
v 0.10401330 0.01344946 -0.01266558
v 0.10467694 0.01415110 -0.01266558
v 0.10540581 0.01386139 -0.01266558
v 0.10509906 0.01485272 -0.01266558
v 0.10540581 0.01486564 -0.01266558
v 0.10372756 0.01625596 -0.01266558
v 0.10372756 0.01626424 -0.01266486
v 0.10372756 0.01628078 -0.01266342
v 0.10372756 0.01629732 -0.01266196
v 0.10372756 0.01633040 -0.01265908
v 0.10372756 0.01639656 -0.01265328
v 0.10372756 0.01642964 -0.01265040
v 0.10372756 0.01646272 -0.01264750
v 0.10372756 0.01647926 -0.01264604
v 0.10372756 0.01649580 -0.01264460
v 0.10372756 0.01652060 -0.01264244
v 0.10372756 0.01651234 -0.01264316
v 0.10372756 0.01652862 -0.01264028
v 0.10372756 0.01656070 -0.01263168
v 0.10372756 0.01654466 -0.01263598
v 0.10372756 0.01659278 -0.01262310
v 0.10372756 0.01665692 -0.01260590
v 0.10372756 0.01668900 -0.01259732
v 0.10372756 0.01672108 -0.01258872
v 0.10372756 0.01673712 -0.01258442
v 0.10372756 0.01676918 -0.01257582
v 0.10372756 0.01675316 -0.01258012
v 0.10372756 0.01678474 -0.01257016
v 0.10372756 0.01677720 -0.01257368
v 0.10372756 0.01679978 -0.01256316
v 0.10372756 0.01682988 -0.01254912
v 0.10372756 0.01681482 -0.01255614
v 0.10372756 0.01685996 -0.01253508
v 0.10372756 0.01689006 -0.01252106
v 0.10372756 0.01695026 -0.01249298
v 0.10372756 0.01698034 -0.01247896
v 0.10372756 0.01699540 -0.01247194
v 0.10540581 0.01625596 -0.01266558
v 0.10540581 0.01629585 -0.01266209
v 0.10540581 0.01628225 -0.01266329
v 0.10540581 0.01632304 -0.01265972
v 0.10540581 0.01652060 -0.01264244
v 0.10540581 0.01677720 -0.01257368
v 0.10540581 0.01700332 -0.01246824
v 0.09494268 0.00480418 0.00568890
v 0.09519222 0.00000552 0.01134128
v 0.09523610 0.00001632 0.01159558
v 0.09527404 0.00002156 0.01171902
v 0.09532230 0.00002664 0.01183882
v 0.09538054 0.00003154 0.01195408
v 0.09544834 0.00003620 0.01206400
v 0.09552522 0.00004060 0.01216778
v 0.08938826 0.00960838 0.00010090
v 0.09469872 0.00960838 0.00010090
v 0.08902898 0.01149020 0.01272348
v 0.08981452 0.01219852 0.01273442
v 0.09204276 0.01393742 0.01273442
v 0.09256416 0.01422724 0.01273442
v 0.09288454 0.01509670 0.01273442
v 0.09518666 0.01009634 0.01127690
v 0.09519778 0.01010744 0.01140568
v 0.09521976 0.01012942 0.01153306
v 0.09525246 0.01016212 0.01165810
v 0.09529564 0.01020530 0.01177994
v 0.09534898 0.01025864 0.01189768
v 0.09541212 0.01032178 0.01201048
v 0.09548458 0.01039424 0.01211752
v 0.09556586 0.01047552 0.01221804
v 0.09575244 0.01066210 0.01239664
v 0.09596650 0.01087616 0.01254118
v 0.09620188 0.01111156 0.01264750
v 0.09645186 0.01136152 0.01271252
v 0.09670922 0.01161888 0.01273442
v 0.09334978 0.01480688 0.01273442
v 0.09429782 0.01625596 0.01273442
v 0.09429782 0.01627250 0.01273296
v 0.09429782 0.01630558 0.01273008
v 0.09429782 0.01637174 0.01272428
v 0.09429782 0.01643790 0.01271850
v 0.09429782 0.01647098 0.01271560
v 0.09429782 0.01650406 0.01271270
v 0.09429782 0.01653664 0.01270696
v 0.09429782 0.01652060 0.01271126
v 0.09429782 0.01656872 0.01269838
v 0.09429782 0.01663288 0.01268118
v 0.09429782 0.01669702 0.01266400
v 0.09429782 0.01672910 0.01265540
v 0.09429782 0.01682236 0.01262146
v 0.09429782 0.01685244 0.01260742
v 0.09429782 0.01676118 0.01264680
v 0.09429782 0.01679226 0.01263548
v 0.09429782 0.01677720 0.01264250
v 0.09429782 0.01691264 0.01257936
v 0.09429782 0.01697282 0.01255128
v 0.09429782 0.01700292 0.01253726
v 0.09480003 0.01700332 0.01253707
v 0.09530200 0.01480688 0.01273442
v 0.09627812 0.01480688 0.01273442
v 0.09649670 0.01451706 0.01273442
v 0.09853762 0.01277816 0.01273442
v 0.09823034 0.01480688 0.01273442
v 0.10089446 0.01451706 0.01273442
v 0.10302092 0.01567632 0.01273442
v 0.10401330 0.01393742 0.01273442
v 0.10479892 0.01451706 0.01273442
v 0.10540581 0.01393742 0.01273442
v 0.10372756 0.01625596 0.01273442
v 0.10372756 0.01626424 0.01273370
v 0.10372756 0.01628078 0.01273224
v 0.10372756 0.01629732 0.01273080
v 0.10372756 0.01633040 0.01272790
v 0.10372756 0.01639656 0.01272212
v 0.10372756 0.01642964 0.01271922
v 0.10372756 0.01646272 0.01271632
v 0.10372756 0.01647926 0.01271488
v 0.10372756 0.01649580 0.01271344
v 0.10372756 0.01652862 0.01270912
v 0.10372756 0.01652060 0.01271126
v 0.10372756 0.01651234 0.01271198
v 0.10372756 0.01656070 0.01270052
v 0.10372756 0.01654466 0.01270482
v 0.10372756 0.01659278 0.01269192
v 0.10372756 0.01665692 0.01267474
v 0.10372756 0.01668900 0.01266614
v 0.10372756 0.01672108 0.01265754
v 0.10372756 0.01673712 0.01265324
v 0.10372756 0.01679978 0.01263198
v 0.10372756 0.01682988 0.01261794
v 0.10372756 0.01681482 0.01262496
v 0.10372756 0.01685996 0.01260392
v 0.10372756 0.01676918 0.01264466
v 0.10372756 0.01675316 0.01264896
v 0.10372756 0.01678474 0.01263900
v 0.10372756 0.01677720 0.01264250
v 0.10372756 0.01689006 0.01258988
v 0.10372756 0.01695026 0.01256182
v 0.10372756 0.01698034 0.01254778
v 0.10372756 0.01699540 0.01254076
v 0.10372756 0.01700332 0.01253706
v 0.10485508 0.01509670 0.01273442
v 0.10540581 0.01511057 0.01273442
v 0.10540581 0.01625596 0.01273442
v 0.10540581 0.01652060 0.01271126
v 0.10540581 0.01677720 0.01264250
v 0.10540581 0.01688604 0.01259175
v 0.10540581 0.01698168 0.01254715
v 0.10540581 0.01699406 0.01254138
v 0.10540581 0.01700332 0.01253706
f 8 1 2
f 8 2 5
f 9 5 3
f 9 3 4
f 9 4 6
f 13 6 7
f 8 5 10
f 10 5 9
f 11 6 12
f 9 6 11
f 12 6 13
f 13 7 14
f 14 7 15
f 15 7 16
f 8 32 1
f 8 10 35
f 9 11 40
f 10 9 43
f 11 12 46
f 12 13 49
f 13 14 53
f 14 15 56
f 15 16 59
f 16 7 17
f 17 7 62
f 184 7 185
f 62 7 184
f 32 33 1
f 8 34 32
f 8 36 34
f 8 35 36
f 9 38 43
f 9 39 37
f 9 37 38
f 9 40 39
f 10 42 41
f 10 41 35
f 10 43 42
f 11 45 44
f 11 44 40
f 11 46 45
f 12 47 46
f 12 48 47
f 12 49 48
f 13 53 50
f 13 51 52
f 13 50 51
f 13 52 49
f 14 54 53
f 14 55 54
f 14 56 55
f 15 57 56
f 15 58 57
f 15 59 58
f 16 61 59
f 16 60 61
f 16 17 60
f 32 360 33
f 32 34 361
f 34 36 361
f 36 35 362
f 38 363 43
f 37 39 364
f 37 364 38
f 39 40 365
f 41 42 366
f 41 366 35
f 42 43 367
f 40 44 368
f 44 45 368
f 46 47 370
f 45 46 369
f 47 48 370
f 48 49 371
f 51 372 52
f 50 372 51
f 49 52 373
f 50 53 374
f 53 54 375
f 54 55 376
f 55 56 376
f 56 57 377
f 57 58 378
f 58 59 378
f 59 61 379
f 60 380 61
f 60 17 380
f 380 17 358
f 17 18 394
f 18 19 396
f 358 17 359
f 19 20 395
f 20 21 383
f 21 22 382
f 22 23 386
f 23 24 385
f 24 25 389
f 25 26 387
f 26 27 388
f 27 28 390
f 28 29 391
f 29 30 391
f 30 31 393
f 31 111 393
f 31 110 111
f 17 63 18
f 18 65 19
f 19 67 20
f 20 69 21
f 21 71 22
f 22 73 23
f 23 75 24
f 24 76 25
f 25 77 26
f 26 78 27
f 27 80 28
f 28 81 29
f 29 82 30
f 30 84 31
f 17 62 63
f 18 63 64
f 18 64 65
f 19 65 66
f 19 66 67
f 20 67 68
f 20 68 69
f 21 69 70
f 21 70 71
f 22 71 72
f 22 72 73
f 23 73 74
f 23 74 75
f 24 75 76
f 25 76 213
f 25 213 77
f 26 77 214
f 26 214 78
f 27 79 80
f 27 78 215
f 27 215 79
f 28 80 81
f 29 81 216
f 29 216 82
f 30 82 217
f 30 217 83
f 30 83 84
f 31 84 85
f 31 85 298
f 31 298 110
f 95 87 86
f 96 88 87
f 99 89 88
f 102 90 89
f 94 95 86
f 95 96 87
f 96 97 88
f 97 98 88
f 98 99 88
f 99 100 89
f 100 101 89
f 101 102 89
f 104 91 90
f 106 92 91
f 102 109 90
f 104 90 109
f 103 106 91
f 103 91 107
f 105 107 91
f 93 116 92
f 94 86 131
f 94 134 95
f 95 137 96
f 96 141 97
f 97 144 98
f 98 147 99
f 99 151 100
f 100 154 101
f 101 157 102
f 104 112 91
f 105 91 112
f 93 92 114
f 106 114 92
f 108 116 93
f 103 114 106
f 93 114 108
f 102 113 109
f 103 107 114
f 104 109 115
f 105 160 107
f 269 270 92
f 165 269 92
f 116 165 92
f 110 121 111
f 102 158 113
f 94 131 130
f 94 130 132
f 94 132 133
f 94 133 134
f 95 134 135
f 95 135 136
f 95 136 137
f 96 137 139
f 96 138 140
f 96 139 138
f 96 140 141
f 97 141 142
f 97 142 143
f 97 143 144
f 98 144 145
f 98 145 146
f 98 146 147
f 99 147 148
f 99 149 151
f 99 148 150
f 99 150 149
f 100 151 152
f 100 152 153
f 100 153 154
f 101 154 155
f 101 155 156
f 101 156 157
f 102 157 159
f 102 159 158
f 104 115 112
f 105 112 160
f 107 161 114
f 107 160 161
f 108 465 116
f 108 114 465
f 116 162 117
f 113 464 109
f 109 464 115
f 112 115 464
f 158 464 113
f 130 131 470
f 130 469 132
f 132 471 133
f 133 471 134
f 134 472 135
f 135 473 136
f 136 473 137
f 137 474 139
f 138 475 140
f 138 139 475
f 140 476 141
f 141 477 142
f 142 477 143
f 143 478 144
f 144 479 145
f 145 479 146
f 146 480 147
f 147 481 148
f 148 482 150
f 149 150 482
f 149 483 151
f 151 484 152
f 152 485 153
f 153 485 154
f 154 486 155
f 155 487 156
f 156 487 157
f 157 488 159
f 158 159 489
f 112 490 160
f 111 121 499
f 116 467 163
f 116 163 162
f 117 497 118
f 118 495 119
f 119 494 120
f 121 123 500
f 123 122 501
f 122 125 502
f 125 126 502
f 126 124 503
f 124 129 503
f 129 127 505
f 120 506 128
f 127 128 505
f 465 467 116
f 117 162 496
f 110 298 164
f 110 164 121
f 164 298 168
f 121 164 168
f 116 117 165
f 117 118 166
f 118 119 167
f 121 169 123
f 123 172 122
f 125 176 126
f 122 174 125
f 126 177 124
f 120 128 179
f 119 120 178
f 129 182 127
f 127 183 128
f 124 181 129
f 117 299 165
f 117 166 299
f 118 300 166
f 118 167 300
f 121 168 169
f 122 172 170
f 123 169 171
f 123 171 172
f 124 173 305
f 125 174 175
f 122 170 174
f 125 175 301
f 125 301 176
f 126 176 177
f 124 177 173
f 128 302 179
f 119 303 167
f 119 178 303
f 120 179 304
f 120 304 178
f 127 182 180
f 128 183 302
f 127 180 306
f 129 181 182
f 124 305 181
f 127 306 183
f 62 184 220
f 186 220 185
f 199 185 187
f 188 197 187
f 200 187 189
f 201 189 190
f 204 190 193
f 207 192 191
f 207 193 192
f 207 191 194
f 208 194 195
f 209 195 196
f 201 190 202
f 202 190 203
f 203 190 204
f 204 193 205
f 205 193 206
f 206 193 207
f 207 194 208
f 208 195 209
f 197 199 187
f 198 197 188
f 197 198 211
f 188 187 233
f 200 189 212
f 201 212 189
f 184 185 220
f 220 186 210
f 186 185 234
f 200 233 187
f 188 233 198
f 199 234 185
f 186 234 210
f 209 196 267
f 201 202 240
f 202 203 243
f 203 204 246
f 204 205 250
f 205 206 253
f 206 207 256
f 207 208 260
f 208 209 263
f 197 234 199
f 197 211 234
f 198 237 211
f 200 212 235
f 201 236 212
f 62 218 63
f 63 218 64
f 65 64 219
f 65 219 66
f 66 230 67
f 71 70 221
f 71 221 72
f 72 222 73
f 73 222 74
f 74 223 75
f 75 223 76
f 76 223 213
f 77 213 224
f 77 224 214
f 78 214 225
f 79 227 80
f 78 225 215
f 79 215 226
f 80 227 81
f 81 227 216
f 82 216 228
f 82 228 217
f 83 217 229
f 83 229 84
f 84 232 85
f 67 230 68
f 68 231 69
f 69 231 70
f 85 232 298
f 62 220 218
f 64 218 219
f 66 219 230
f 72 221 222
f 74 222 223
f 213 223 224
f 214 224 225
f 79 226 227
f 215 225 226
f 216 227 228
f 217 228 229
f 84 229 232
f 68 230 231
f 70 231 221
f 232 307 298
f 220 210 587
f 200 235 233
f 198 233 237
f 201 238 236
f 201 240 239
f 201 239 238
f 202 241 240
f 202 242 241
f 202 243 242
f 203 244 243
f 203 245 244
f 203 246 245
f 204 248 246
f 204 249 247
f 204 247 248
f 204 250 249
f 205 251 250
f 205 252 251
f 205 253 252
f 206 254 253
f 206 256 255
f 206 255 254
f 207 257 256
f 207 260 258
f 207 258 259
f 207 259 257
f 208 261 260
f 208 262 261
f 208 263 262
f 209 264 263
f 209 265 264
f 209 267 266
f 209 266 265
f 211 268 234
f 211 237 268
f 210 234 587
f 230 219 600
f 219 218 602
f 218 220 603
f 222 590 223
f 222 221 591
f 223 590 224
f 224 595 225
f 225 593 226
f 226 594 227
f 227 596 228
f 228 597 229
f 229 598 232
f 230 599 231
f 231 592 221
f 220 587 586
f 212 589 235
f 233 235 589
f 212 236 589
f 233 605 237
f 236 238 589
f 240 607 239
f 238 239 606
f 240 241 608
f 241 242 608
f 242 243 609
f 243 244 610
f 244 245 610
f 245 246 611
f 246 248 612
f 247 249 613
f 247 613 248
f 249 250 614
f 250 251 615
f 251 252 615
f 252 253 616
f 253 254 617
f 254 255 617
f 255 256 618
f 256 257 619
f 258 260 620
f 258 621 259
f 257 259 621
f 260 261 622
f 261 262 623
f 262 263 623
f 263 264 624
f 264 265 625
f 265 266 625
f 266 267 626
f 232 689 307
f 269 317 270
f 165 317 269
f 272 271 270
f 272 270 295
f 282 273 271
f 286 275 274
f 287 276 275
f 289 277 276
f 291 278 277
f 291 279 278
f 293 280 279
f 294 281 280
f 284 274 273
f 286 287 275
f 287 288 276
f 288 289 276
f 289 290 277
f 290 291 277
f 293 292 280
f 292 294 280
f 291 293 279
f 283 282 271
f 282 296 273
f 285 273 296
f 286 274 297
f 284 297 274
f 317 295 270
f 272 323 271
f 283 271 323
f 285 322 273
f 284 273 322
f 272 295 323
f 283 323 282
f 294 356 281
f 286 330 287
f 287 333 288
f 288 336 289
f 289 340 290
f 290 343 291
f 293 346 292
f 291 349 293
f 292 354 294
f 282 323 296
f 284 324 297
f 285 296 327
f 286 297 325
f 298 307 308
f 168 298 308
f 165 299 317
f 166 319 299
f 166 300 319
f 167 303 318
f 167 318 300
f 168 308 169
f 169 308 171
f 171 310 172
f 172 310 170
f 173 311 305
f 170 309 174
f 174 309 175
f 175 312 301
f 176 301 313
f 177 313 173
f 176 313 177
f 178 304 320
f 178 320 303
f 179 321 304
f 179 302 321
f 181 314 182
f 181 305 314
f 182 314 180
f 180 315 306
f 183 306 316
f 183 316 302
f 299 319 317
f 300 318 319
f 171 308 310
f 170 310 309
f 175 309 312
f 301 312 313
f 173 313 311
f 302 316 321
f 303 320 318
f 304 321 320
f 305 311 314
f 180 314 315
f 306 315 316
f 307 689 308
f 319 326 317
f 284 322 324
f 285 327 322
f 286 325 328
f 286 329 330
f 286 328 329
f 287 330 331
f 287 331 332
f 287 332 333
f 288 333 334
f 288 334 335
f 288 335 336
f 289 337 340
f 289 336 339
f 289 338 337
f 289 339 338
f 290 340 341
f 290 341 342
f 290 342 343
f 291 343 345
f 291 345 344
f 291 344 349
f 292 346 347
f 292 348 354
f 292 347 348
f 293 349 350
f 293 351 346
f 293 352 351
f 293 350 352
f 294 354 353
f 294 353 355
f 294 355 356
f 317 693 295
f 296 323 357
f 296 357 327
f 295 693 323
f 356 731 281
f 308 696 310
f 310 698 309
f 309 698 312
f 312 700 313
f 313 700 311
f 311 701 314
f 314 702 315
f 315 703 316
f 316 705 321
f 320 707 318
f 321 706 320
f 318 708 319
f 319 691 326
f 317 326 692
f 317 692 693
f 322 695 324
f 297 324 695
f 297 695 325
f 322 327 710
f 695 328 325
f 731 732 281
f 330 329 712
f 328 711 329
f 330 713 331
f 331 713 332
f 332 714 333
f 333 715 334
f 334 715 335
f 335 716 336
f 336 717 339
f 337 718 340
f 337 338 719
f 338 339 719
f 340 720 341
f 341 720 342
f 342 721 343
f 343 722 345
f 344 723 349
f 344 345 722
f 346 724 347
f 354 348 725
f 347 725 348
f 349 726 350
f 346 351 727
f 351 352 728
f 350 728 352
f 354 729 353
f 353 730 355
f 355 730 356
f 32 361 360
f 36 362 361
f 35 366 362
f 38 364 363
f 40 368 365
f 39 365 364
f 42 367 366
f 43 363 367
f 45 369 368
f 46 370 369
f 48 371 370
f 49 373 371
f 50 374 372
f 52 372 373
f 53 375 374
f 360 381 33
f 54 376 375
f 56 377 376
f 57 378 377
f 59 379 378
f 61 380 379
f 359 17 394
f 21 382 383
f 22 386 382
f 23 385 386
f 24 384 385
f 25 387 389
f 26 388 387
f 27 390 388
f 24 389 384
f 28 391 390
f 30 392 391
f 30 393 392
f 417 358 359
f 18 396 394
f 19 395 396
f 20 383 395
f 380 358 417
f 417 359 418
f 359 394 418
f 393 111 463
f 382 386 400
f 383 382 401
f 385 384 397
f 386 385 402
f 387 388 404
f 388 390 406
f 384 389 408
f 389 387 407
f 390 391 410
f 391 392 411
f 392 393 582
f 395 383 414
f 395 415 396
f 394 396 416
f 383 401 583
f 382 400 579
f 382 579 401
f 385 577 402
f 384 408 398
f 384 398 397
f 385 397 399
f 385 399 577
f 386 578 400
f 386 402 578
f 387 403 580
f 387 404 403
f 388 405 404
f 388 406 405
f 389 407 408
f 387 580 407
f 390 409 406
f 390 410 409
f 391 411 410
f 392 581 411
f 392 412 581
f 392 582 412
f 393 413 582
f 383 583 414
f 395 414 584
f 395 584 415
f 396 415 585
f 396 585 416
f 393 508 413
f 393 463 508
f 360 361 420
f 361 362 422
f 362 366 423
f 363 364 425
f 365 368 433
f 364 365 426
f 366 367 430
f 367 363 429
f 360 419 381
f 368 369 432
f 370 435 369
f 370 371 436
f 371 373 437
f 372 374 439
f 373 372 441
f 374 375 443
f 375 376 444
f 376 377 446
f 377 378 447
f 378 379 448
f 379 380 451
f 380 417 450
f 360 420 419
f 361 422 420
f 362 423 422
f 363 425 431
f 364 426 424
f 364 424 425
f 365 433 427
f 365 427 426
f 366 430 428
f 366 428 423
f 367 429 430
f 363 431 429
f 419 421 381
f 368 432 433
f 370 434 435
f 369 435 432
f 370 436 434
f 371 437 436
f 373 438 437
f 372 440 441
f 372 439 440
f 373 441 438
f 374 442 439
f 374 443 442
f 375 444 443
f 376 445 444
f 376 446 445
f 377 447 446
f 378 448 447
f 379 449 448
f 379 451 449
f 380 450 451
f 417 418 459
f 418 394 460
f 394 461 460
f 450 417 459
f 419 420 452
f 422 452 420
f 419 453 421
f 422 423 452
f 423 428 452
f 424 426 454
f 426 427 454
f 427 433 454
f 432 454 433
f 428 430 455
f 429 456 430
f 429 431 456
f 425 456 431
f 424 456 425
f 432 435 454
f 434 454 435
f 438 441 454
f 440 454 441
f 434 436 454
f 436 437 454
f 437 438 454
f 439 442 457
f 439 457 440
f 443 444 457
f 442 443 457
f 444 445 457
f 445 446 457
f 446 447 457
f 447 448 457
f 448 449 457
f 449 451 457
f 450 457 451
f 419 452 453
f 428 455 452
f 430 456 455
f 424 454 456
f 440 457 454
f 450 458 457
f 450 459 458
f 459 460 458
f 459 418 460
f 394 416 461
f 461 416 462
f 461 462 460
f 111 499 463
f 158 489 464
f 112 464 490
f 160 491 161
f 114 161 493
f 114 466 465
f 130 470 468
f 130 468 469
f 132 469 471
f 134 471 472
f 135 472 473
f 137 473 474
f 139 474 475
f 141 476 477
f 140 475 476
f 143 477 478
f 144 478 479
f 146 479 480
f 147 480 481
f 148 481 482
f 149 482 483
f 151 483 484
f 152 484 485
f 154 485 486
f 155 486 487
f 157 487 488
f 159 488 489
f 160 490 491
f 114 493 466
f 467 498 163
f 163 496 162
f 117 496 497
f 119 495 494
f 118 497 495
f 121 500 499
f 123 501 500
f 122 502 501
f 126 504 502
f 126 503 504
f 120 494 506
f 128 506 505
f 129 507 503
f 129 505 507
f 161 491 492
f 465 530 467
f 161 492 529
f 161 529 493
f 489 532 464
f 464 571 490
f 466 531 465
f 466 493 531
f 163 498 496
f 467 530 498
f 463 499 508
f 499 500 510
f 500 501 511
f 502 504 514
f 501 502 513
f 504 503 515
f 505 506 518
f 503 507 516
f 507 505 517
f 494 519 506
f 495 521 494
f 497 523 495
f 496 525 497
f 498 527 496
f 499 509 508
f 499 682 509
f 499 510 682
f 500 511 510
f 501 512 511
f 501 683 512
f 501 513 683
f 502 684 513
f 502 514 684
f 504 685 514
f 504 515 685
f 503 686 515
f 506 519 518
f 503 516 686
f 507 687 516
f 507 517 687
f 505 688 517
f 505 518 688
f 494 520 519
f 494 521 520
f 495 522 521
f 495 523 522
f 497 524 523
f 497 525 524
f 496 526 525
f 496 527 526
f 498 528 527
f 468 470 535
f 468 534 469
f 469 536 471
f 471 538 472
f 472 539 473
f 473 540 474
f 474 543 475
f 476 546 477
f 475 544 476
f 477 547 478
f 478 548 479
f 479 550 480
f 480 551 481
f 481 553 482
f 482 554 483
f 483 557 484
f 484 558 485
f 485 560 486
f 486 561 487
f 487 562 488
f 488 565 489
f 490 571 491
f 491 571 492
f 465 573 530
f 492 571 529
f 468 533 534
f 468 535 533
f 469 534 536
f 471 536 537
f 471 537 538
f 472 538 539
f 473 539 540
f 474 540 541
f 474 541 543
f 475 542 544
f 475 543 542
f 476 545 546
f 476 544 545
f 477 546 547
f 478 547 548
f 479 548 549
f 479 549 550
f 480 550 551
f 481 551 552
f 481 552 553
f 482 553 555
f 482 555 554
f 483 554 556
f 483 556 557
f 489 564 532
f 484 557 558
f 485 558 559
f 485 559 560
f 486 560 561
f 487 561 562
f 488 562 563
f 488 563 565
f 489 565 564
f 464 532 572
f 464 572 571
f 465 531 574
f 493 529 572
f 530 575 498
f 465 574 573
f 493 572 531
f 529 571 572
f 573 575 530
f 533 535 566
f 533 568 534
f 536 534 568
f 536 568 537
f 537 568 538
f 538 568 539
f 539 568 540
f 540 568 541
f 541 568 543
f 542 543 568
f 542 569 544
f 544 569 545
f 545 569 546
f 546 569 547
f 547 569 548
f 548 569 549
f 549 569 550
f 550 569 551
f 551 569 552
f 552 569 553
f 553 569 555
f 554 570 556
f 554 555 570
f 556 570 557
f 557 570 558
f 558 570 559
f 559 570 560
f 560 570 561
f 561 570 562
f 562 570 563
f 563 570 565
f 564 565 570
f 564 572 532
f 535 567 566
f 533 566 568
f 542 568 569
f 555 569 570
f 564 570 572
f 531 572 574
f 574 575 573
f 574 572 575
f 498 575 576
f 498 576 528
f 576 575 742
f 399 397 590
f 397 398 590
f 399 591 577
f 403 593 580
f 404 405 594
f 403 404 594
f 405 406 596
f 407 580 595
f 408 407 595
f 398 408 595
f 406 409 596
f 409 410 597
f 410 411 597
f 411 581 597
f 412 598 581
f 412 582 598
f 413 601 582
f 400 578 599
f 401 579 600
f 401 600 583
f 400 599 579
f 402 592 578
f 402 577 592
f 414 583 602
f 414 602 584
f 415 584 603
f 415 603 585
f 416 585 604
f 413 508 601
f 577 591 592
f 399 590 591
f 405 596 594
f 403 594 593
f 398 595 590
f 580 593 595
f 409 597 596
f 581 598 597
f 582 601 598
f 578 592 599
f 579 599 600
f 583 600 602
f 584 602 603
f 585 603 604
f 508 690 601
f 221 592 591
f 222 591 590
f 227 594 596
f 226 593 594
f 224 590 595
f 225 595 593
f 228 596 597
f 229 597 598
f 598 601 232
f 231 599 592
f 219 602 600
f 230 600 599
f 220 586 604
f 218 603 602
f 220 604 603
f 232 601 689
f 234 588 587
f 234 268 629
f 237 628 268
f 233 589 605
f 589 238 606
f 234 629 588
f 237 605 628
f 268 628 630
f 239 607 606
f 240 608 607
f 242 609 608
f 243 610 609
f 245 611 610
f 246 612 611
f 248 613 612
f 249 614 613
f 250 615 614
f 252 616 615
f 253 617 616
f 255 618 617
f 256 619 618
f 257 621 619
f 258 620 621
f 260 622 620
f 261 623 622
f 263 624 623
f 264 625 624
f 266 626 625
f 267 627 626
f 586 587 633
f 586 633 604
f 268 634 629
f 268 630 634
f 587 588 635
f 588 629 635
f 589 640 605
f 589 606 636
f 601 690 689
f 416 631 462
f 416 604 631
f 631 604 632
f 631 632 462
f 604 633 632
f 605 640 628
f 633 587 637
f 587 635 638
f 628 640 630
f 606 607 643
f 607 608 645
f 608 609 646
f 609 610 647
f 610 611 649
f 611 612 650
f 612 613 653
f 613 614 654
f 614 615 655
f 615 616 657
f 616 617 658
f 617 618 660
f 618 619 661
f 619 621 662
f 620 664 621
f 622 623 667
f 620 622 668
f 623 624 670
f 624 625 671
f 625 626 672
f 626 627 673
f 629 634 641
f 630 640 634
f 587 639 637
f 587 638 639
f 629 641 635
f 589 641 640
f 589 636 641
f 606 642 636
f 607 644 643
f 606 643 642
f 607 645 644
f 608 646 645
f 609 647 646
f 610 648 647
f 610 649 648
f 611 650 649
f 612 651 650
f 612 653 651
f 613 654 652
f 613 652 653
f 614 656 654
f 614 655 656
f 615 657 655
f 616 658 657
f 617 660 659
f 617 659 658
f 618 661 660
f 619 663 661
f 619 662 663
f 620 666 664
f 621 664 665
f 621 665 662
f 620 668 666
f 622 667 668
f 623 669 667
f 623 670 669
f 624 671 670
f 625 672 671
f 626 673 672
f 633 637 632
f 637 639 632
f 634 640 641
f 673 627 680
f 635 641 638
f 638 641 639
f 636 642 641
f 643 644 674
f 642 643 674
f 644 645 675
f 645 646 677
f 646 647 677
f 647 648 677
f 648 649 677
f 649 650 677
f 650 651 677
f 651 653 677
f 652 677 653
f 652 654 678
f 654 656 678
f 655 678 656
f 655 657 678
f 657 658 678
f 658 659 678
f 659 660 678
f 660 661 678
f 661 663 678
f 662 678 663
f 662 665 678
f 664 666 679
f 664 679 665
f 666 668 679
f 667 679 668
f 667 669 679
f 669 670 679
f 670 671 679
f 671 672 679
f 672 673 679
f 642 674 641
f 645 677 675
f 644 675 676
f 644 676 674
f 652 678 677
f 665 679 678
f 673 680 679
f 508 509 681
f 508 681 690
f 681 696 690
f 509 682 696
f 510 697 682
f 510 511 697
f 511 512 697
f 512 683 698
f 513 699 683
f 513 684 699
f 514 700 684
f 514 685 700
f 515 701 685
f 515 686 701
f 516 702 686
f 516 687 702
f 517 703 687
f 517 688 703
f 518 704 688
f 518 519 704
f 519 520 704
f 520 521 705
f 521 522 705
f 523 706 522
f 523 524 706
f 525 707 524
f 525 526 707
f 527 708 526
f 527 528 708
f 509 696 681
f 682 697 696
f 512 698 697
f 683 699 698
f 684 700 699
f 685 701 700
f 686 702 701
f 687 703 702
f 688 704 703
f 520 705 704
f 522 706 705
f 524 707 706
f 526 708 707
f 528 709 708
f 689 690 696
f 689 696 308
f 319 708 691
f 310 696 697
f 310 697 698
f 312 698 699
f 312 699 700
f 311 700 701
f 314 701 702
f 315 702 703
f 316 703 704
f 316 704 705
f 321 705 706
f 320 706 707
f 318 707 708
f 691 709 326
f 326 709 692
f 322 710 695
f 323 693 694
f 323 735 357
f 327 357 733
f 695 711 328
f 323 694 735
f 327 733 710
f 329 711 712
f 330 712 713
f 332 713 714
f 333 714 715
f 335 715 716
f 336 716 717
f 337 719 718
f 339 717 719
f 340 718 720
f 342 720 721
f 343 721 722
f 344 722 723
f 346 727 724
f 347 724 725
f 349 723 726
f 350 726 728
f 351 728 727
f 354 725 729
f 353 729 730
f 356 730 731
f 691 708 709
f 692 709 736
f 692 736 693
f 357 734 733
f 357 737 734
f 357 735 737
f 693 738 694
f 694 738 735
f 710 776 695
f 695 739 711
f 576 742 528
f 528 742 709
f 736 740 693
f 710 733 776
f 711 744 712
f 712 746 713
f 713 747 714
f 714 748 715
f 715 750 716
f 716 751 717
f 719 753 718
f 717 755 719
f 718 756 720
f 720 758 721
f 721 759 722
f 722 761 723
f 724 764 725
f 727 765 724
f 723 762 726
f 726 767 728
f 727 728 769
f 725 771 729
f 729 772 730
f 730 773 731
f 731 774 732
f 733 734 776
f 709 742 736
f 693 741 738
f 735 777 737
f 693 740 741
f 735 738 777
f 734 737 776
f 695 777 739
f 695 776 777
f 711 739 743
f 712 744 745
f 711 743 744
f 712 745 746
f 713 746 747
f 714 747 748
f 715 748 749
f 715 749 750
f 716 750 751
f 717 751 752
f 717 752 755
f 718 753 757
f 719 754 753
f 719 755 754
f 718 757 756
f 720 756 758
f 721 758 759
f 722 760 761
f 722 759 760
f 723 761 762
f 727 763 765
f 724 765 764
f 725 764 766
f 725 766 771
f 726 762 768
f 726 768 767
f 727 769 763
f 728 770 769
f 728 767 770
f 729 771 772
f 730 772 773
f 731 773 774
f 774 775 732
f 736 742 740
f 737 777 776
f 738 741 777
f 740 742 741
f 741 742 777
f 739 778 743
f 744 779 745
f 743 779 744
f 745 779 746
f 746 779 747
f 747 779 748
f 748 779 749
f 749 779 750
f 750 779 751
f 751 779 752
f 752 779 755
f 754 755 779
f 756 757 780
f 756 780 758
f 753 754 780
f 753 780 757
f 758 780 759
f 760 780 761
f 759 780 760
f 763 781 765
f 763 769 781
f 769 770 781
f 764 781 766
f 764 765 781
f 761 780 762
f 762 780 768
f 767 768 780
f 767 780 770
f 766 781 771
f 771 782 772
f 774 784 775
f 773 772 782
f 773 783 774
f 739 777 778
f 743 778 779
f 754 779 780
f 770 780 781
f 771 781 782
f 773 782 783
f 774 783 784
f 2 1 86
f 5 2 86
f 3 5 87
f 3 92 4
f 6 4 92
f 6 92 7
f 33 131 1
f 33 381 131
f 5 86 87
f 3 87 88
f 3 88 89
f 3 89 90
f 3 90 91
f 3 91 92
f 1 131 86
f 92 270 7
f 7 274 185
f 185 274 187
f 187 274 189
f 189 274 190
f 193 190 274
f 192 193 274
f 191 192 280
f 191 280 194
f 194 280 195
f 195 280 196
f 196 281 267
f 270 271 7
f 271 273 7
f 273 274 7
f 192 274 275
f 192 275 276
f 192 276 277
f 192 277 278
f 192 279 280
f 192 278 279
f 280 281 196
f 732 267 281
f 381 421 131
f 421 453 567
f 455 456 568
f 453 452 568
f 455 568 452
f 456 454 572
f 454 457 572
f 457 458 572
f 458 460 572
f 460 462 572
f 462 632 572
f 131 421 470
f 470 421 535
f 535 421 567
f 566 567 453
f 568 566 453
f 456 569 568
f 456 570 569
f 456 572 570
f 575 572 641
f 267 775 627
f 632 639 572
f 639 641 572
f 627 775 680
f 674 742 641
f 675 742 676
f 674 676 742
f 677 742 675
f 677 678 742
f 678 679 742
f 679 680 784
f 732 775 267
f 575 641 742
f 679 777 742
f 775 784 680
f 679 778 777
f 679 779 778
f 679 780 779
f 679 782 781
f 679 784 783
f 679 783 782
f 679 781 780