# https://github.com/mikedh/trimesh
v -0.01196587 -0.02102950 -0.07500000 0.54117647 0.42352941 0.64313725
v -0.01131036 -0.02099121 -0.07500000 0.54117647 0.42352941 0.64313725
v -0.01196587 -0.02102950 0.05000000 0.54117647 0.42352941 0.64313725
v -0.01261276 -0.02091617 -0.07500000 0.54117647 0.42352941 0.64313725
v -0.01068073 -0.02080590 -0.07500000 0.54117647 0.42352941 0.64313725
v -0.01131036 -0.02099121 0.05000000 0.54117647 0.42352941 0.64313725
v -0.01261276 -0.02091617 0.05000000 0.54117647 0.42352941 0.64313725
v -0.01321796 -0.02066193 -0.07500000 0.54117647 0.42352941 0.64313725
v -0.01010859 -0.02048274 -0.07500000 0.54117647 0.42352941 0.64313725
v -0.01068073 -0.02080590 0.05000000 0.54117647 0.42352941 0.64313725
v -0.01321796 -0.02066193 0.05000000 0.54117647 0.42352941 0.64313725
v -0.01374841 -0.02027598 -0.07500000 0.54117647 0.42352941 0.64313725
v 0.00001447 -0.01315125 -0.07500000 0.54117647 0.42352941 0.64313725
v -0.01010859 -0.02048274 0.05000000 0.54117647 0.42352941 0.64313725
v -0.01374841 -0.02027598 0.05000000 0.54117647 0.42352941 0.64313725
v -0.01417823 -0.01977976 -0.07500000 0.54117647 0.42352941 0.64313725
v 0.00001447 -0.00538327 -0.07500000 0.54117647 0.42352941 0.64313725
v 0.00001447 -0.01315125 0.05000000 0.54117647 0.42352941 0.64313725
v -0.01417823 -0.01977976 0.05000000 0.54117647 0.42352941 0.64313725
v -0.01448442 -0.01919778 -0.07500000 0.54117647 0.42352941 0.64313725
v -0.01067929 -0.00538327 -0.07500000 0.54117647 0.42352941 0.64313725
v 0.00001447 -0.00538327 0.05000000 0.54117647 0.42352941 0.64313725
v -0.01448442 -0.01919778 0.05000000 0.54117647 0.42352941 0.64313725
v -0.01465117 -0.01856372 -0.07500000 0.54117647 0.42352941 0.64313725
v -0.01454048 -0.01726344 -0.07500000 0.54117647 0.42352941 0.64313725
v -0.01067929 -0.00538327 0.05000000 0.54117647 0.42352941 0.64313725
v -0.01465117 -0.01856372 0.05000000 0.54117647 0.42352941 0.64313725
v -0.01467130 -0.01790669 -0.07500000 0.54117647 0.42352941 0.64313725
v -0.01454048 -0.01726344 0.05000000 0.54117647 0.42352941 0.64313725
v -0.01467130 -0.01790669 0.05000000 0.54117647 0.42352941 0.64313725
f 1 2 6
f 1 6 3
f 1 3 7
f 1 7 4
f 1 4 8
f 1 8 12
f 1 12 16
f 1 16 20
f 1 20 24
f 1 24 28
f 1 28 25
f 1 25 21
f 1 21 17
f 1 17 13
f 1 13 9
f 1 9 5
f 1 5 2
f 2 5 10
f 2 10 6
f 3 6 10
f 3 10 14
f 3 14 18
f 3 18 22
f 3 22 26
f 3 26 29
f 3 29 30
f 3 30 27
f 3 27 23
f 3 23 19
f 3 19 15
f 3 15 11
f 3 11 7
f 4 7 11
f 4 11 8
f 5 9 14
f 5 14 10
f 8 11 15
f 8 15 12
f 9 13 18
f 9 18 14
f 12 15 19
f 12 19 16
f 13 17 22
f 13 22 18
f 16 19 23
f 16 23 20
f 17 21 26
f 17 26 22
f 20 23 27
f 20 27 24
f 21 25 29
f 21 29 26
f 24 27 30
f 24 30 28
f 25 28 30
f 25 30 29