# https://github.com/mikedh/trimesh
v -0.00000235 -0.00681812 0.02500000 0.56470588 0.92549020 0.07058824
v -0.00000235 -0.01314124 0.02500000 0.56470588 0.92549020 0.07058824
v -0.00000235 -0.00681812 -0.07500000 0.56470588 0.92549020 0.07058824
v -0.01114622 -0.00681812 0.02500000 0.56470588 0.92549020 0.07058824
v -0.01010807 -0.02048414 0.02500000 0.56470588 0.92549020 0.07058824
v -0.00000235 -0.01314124 -0.07500000 0.56470588 0.92549020 0.07058824
v -0.01114622 -0.00681812 -0.07500000 0.56470588 0.92549020 0.07058824
v -0.01454064 -0.01726345 0.02500000 0.56470588 0.92549020 0.07058824
v -0.01067955 -0.02080691 0.02500000 0.56470588 0.92549020 0.07058824
v -0.01010807 -0.02048414 -0.07500000 0.56470588 0.92549020 0.07058824
v -0.01454064 -0.01726345 -0.07500000 0.56470588 0.92549020 0.07058824
v -0.01467130 -0.01790759 0.02500000 0.56470588 0.92549020 0.07058824
v -0.01130991 -0.02099194 0.02500000 0.56470588 0.92549020 0.07058824
v -0.01067955 -0.02080691 -0.07500000 0.56470588 0.92549020 0.07058824
v -0.01467130 -0.01790759 -0.07500000 0.56470588 0.92549020 0.07058824
v -0.01465120 -0.01856286 0.02500000 0.56470588 0.92549020 0.07058824
v -0.01196610 -0.02102950 0.02500000 0.56470588 0.92549020 0.07058824
v -0.01130991 -0.02099194 -0.07500000 0.56470588 0.92549020 0.07058824
v -0.01465120 -0.01856286 -0.07500000 0.56470588 0.92549020 0.07058824
v -0.01448463 -0.01919865 0.02500000 0.56470588 0.92549020 0.07058824
v -0.01261225 -0.02091681 0.02500000 0.56470588 0.92549020 0.07058824
v -0.01196610 -0.02102950 -0.07500000 0.56470588 0.92549020 0.07058824
v -0.01448463 -0.01919865 -0.07500000 0.56470588 0.92549020 0.07058824
v -0.01417879 -0.01977879 0.02500000 0.56470588 0.92549020 0.07058824
v -0.01321675 -0.02066083 0.02500000 0.56470588 0.92549020 0.07058824
v -0.01261225 -0.02091681 -0.07500000 0.56470588 0.92549020 0.07058824
v -0.01417879 -0.01977879 -0.07500000 0.56470588 0.92549020 0.07058824
v -0.01374803 -0.02027546 0.02500000 0.56470588 0.92549020 0.07058824
v -0.01321675 -0.02066083 -0.07500000 0.56470588 0.92549020 0.07058824
v -0.01374803 -0.02027546 -0.07500000 0.56470588 0.92549020 0.07058824
f 1 2 6
f 1 6 3
f 1 3 7
f 1 7 4
f 1 4 8
f 1 8 12
f 1 12 16
f 1 16 20
f 1 20 24
f 1 24 28
f 1 28 25
f 1 25 21
f 1 21 17
f 1 17 13
f 1 13 9
f 1 9 5
f 1 5 2
f 2 5 10
f 2 10 6
f 3 6 10
f 3 10 14
f 3 14 18
f 3 18 22
f 3 22 26
f 3 26 29
f 3 29 30
f 3 30 27
f 3 27 23
f 3 23 19
f 3 19 15
f 3 15 11
f 3 11 7
f 4 7 11
f 4 11 8
f 5 9 14
f 5 14 10
f 8 11 15
f 8 15 12
f 9 13 18
f 9 18 14
f 12 15 19
f 12 19 16
f 13 17 22
f 13 22 18
f 16 19 23
f 16 23 20
f 17 21 26
f 17 26 22
f 20 23 27
f 20 27 24
f 21 25 29
f 21 29 26
f 24 27 30
f 24 30 28
f 25 28 30
f 25 30 29