# https://github.com/mikedh/trimesh
v 0.02197470 0.00421134 0.05000000 0.43529412 0.89019608 0.96078431
v 0.02191447 0.00486617 0.05000000 0.43529412 0.89019608 0.96078431
v 0.02188005 0.00356145 0.05000000 0.43529412 0.89019608 0.96078431
v 0.02197470 0.00421134 -0.07500000 0.43529412 0.89019608 0.96078431
v 0.02191447 0.00486617 -0.07500000 0.43529412 0.89019608 0.96078431
v 0.02171228 0.00549022 0.05000000 0.43529412 0.89019608 0.96078431
v 0.02163914 0.00294970 0.05000000 0.43529412 0.89019608 0.96078431
v 0.02188005 0.00356145 -0.07500000 0.43529412 0.89019608 0.96078431
v 0.02171228 0.00549022 -0.07500000 0.43529412 0.89019608 0.96078431
v 0.02137242 0.00605272 0.05000000 0.43529412 0.89019608 0.96078431
v 0.02126917 0.00240812 0.05000000 0.43529412 0.89019608 0.96078431
v 0.02163914 0.00294970 -0.07500000 0.43529412 0.89019608 0.96078431
v 0.02137242 0.00605272 -0.07500000 0.43529412 0.89019608 0.96078431
v 0.02091640 0.00652292 0.05000000 0.43529412 0.89019608 0.96078431
v 0.02078734 0.00196378 0.05000000 0.43529412 0.89019608 0.96078431
v 0.02126917 0.00240812 -0.07500000 0.43529412 0.89019608 0.96078431
v 0.02091640 0.00652292 -0.07500000 0.43529412 0.89019608 0.96078431
v 0.02036574 0.00687864 0.05000000 0.43529412 0.89019608 0.96078431
v 0.01067760 -0.00538327 0.05000000 0.43529412 0.89019608 0.96078431
v 0.02078734 0.00196378 -0.07500000 0.43529412 0.89019608 0.96078431
v 0.02036574 0.00687864 -0.07500000 0.43529412 0.89019608 0.96078431
v 0.01974626 0.00709896 0.05000000 0.43529412 0.89019608 0.96078431
v -0.01067760 -0.00538327 0.05000000 0.43529412 0.89019608 0.96078431
v 0.01067760 -0.00538327 -0.07496329 0.43529412 0.89019608 0.96078431
v 0.01067330 -0.00538327 -0.07500000 0.43529412 0.89019608 0.96078431
v 0.01974626 0.00709896 -0.07500000 0.43529412 0.89019608 0.96078431
v 0.01909235 0.00717404 0.05000000 0.43529412 0.89019608 0.96078431
v -0.02078734 0.00196378 0.05000000 0.43529412 0.89019608 0.96078431
v -0.01067760 -0.00538327 -0.07500000 0.43529412 0.89019608 0.96078431
v 0.01909235 0.00717404 -0.07500000 0.43529412 0.89019608 0.96078431
v 0.00659069 0.00719128 0.05000000 0.43529412 0.89019608 0.96078431
v -0.02126917 0.00240812 0.05000000 0.43529412 0.89019608 0.96078431
v -0.02078734 0.00196378 -0.07500000 0.43529412 0.89019608 0.96078431
v 0.00659069 0.00719128 -0.07500000 0.43529412 0.89019608 0.96078431
v -0.00659069 0.00719128 0.05000000 0.43529412 0.89019608 0.96078431
v -0.02163914 0.00294970 0.05000000 0.43529412 0.89019608 0.96078431
v -0.02126917 0.00240812 -0.07500000 0.43529412 0.89019608 0.96078431
v -0.00659069 0.00719128 -0.07500000 0.43529412 0.89019608 0.96078431
v -0.01909235 0.00717404 0.05000000 0.43529412 0.89019608 0.96078431
v -0.02188005 0.00356145 0.05000000 0.43529412 0.89019608 0.96078431
v -0.02163914 0.00294970 -0.07500000 0.43529412 0.89019608 0.96078431
v -0.01909235 0.00717404 -0.07500000 0.43529412 0.89019608 0.96078431
v -0.01974626 0.00709896 0.05000000 0.43529412 0.89019608 0.96078431
v -0.02197470 0.00421134 0.05000000 0.43529412 0.89019608 0.96078431
v -0.02188005 0.00356145 -0.07500000 0.43529412 0.89019608 0.96078431
v -0.01974626 0.00709896 -0.07500000 0.43529412 0.89019608 0.96078431
v -0.02036574 0.00687864 0.05000000 0.43529412 0.89019608 0.96078431
v -0.02191447 0.00486617 0.05000000 0.43529412 0.89019608 0.96078431
v -0.02197470 0.00421134 -0.07500000 0.43529412 0.89019608 0.96078431
v -0.02036574 0.00687864 -0.07500000 0.43529412 0.89019608 0.96078431
v -0.02091640 0.00652292 0.05000000 0.43529412 0.89019608 0.96078431
v -0.02171228 0.00549022 0.05000000 0.43529412 0.89019608 0.96078431
v -0.02191447 0.00486617 -0.07500000 0.43529412 0.89019608 0.96078431
v -0.02091640 0.00652292 -0.07500000 0.43529412 0.89019608 0.96078431
v -0.02137242 0.00605272 0.05000000 0.43529412 0.89019608 0.96078431
v -0.02171228 0.00549022 -0.07500000 0.43529412 0.89019608 0.96078431
v -0.02137242 0.00605272 -0.07500000 0.43529412 0.89019608 0.96078431
f 1 2 6
f 1 6 10
f 1 10 14
f 1 14 18
f 1 18 22
f 1 22 27
f 1 27 31
f 1 31 35
f 1 35 39
f 1 39 43
f 1 43 47
f 1 47 51
f 1 51 55
f 1 55 52
f 1 52 48
f 1 48 44
f 1 44 40
f 1 40 36
f 1 36 32
f 1 32 28
f 1 28 23
f 1 23 19
f 1 19 15
f 1 15 11
f 1 11 7
f 1 7 3
f 1 3 8
f 1 8 4
f 1 4 5
f 1 5 2
f 2 5 9
f 2 9 6
f 3 7 12
f 3 12 8
f 4 8 12
f 4 12 16
f 4 16 20
f 4 20 25
f 4 25 29
f 4 29 33
f 4 33 37
f 4 37 41
f 4 41 45
f 4 45 49
f 4 49 53
f 4 53 56
f 4 56 57
f 4 57 54
f 4 54 50
f 4 50 46
f 4 46 42
f 4 42 38
f 4 38 34
f 4 34 30
f 4 30 26
f 4 26 21
f 4 21 17
f 4 17 13
f 4 13 9
f 4 9 5
f 6 9 13
f 6 13 10
f 7 11 16
f 7 16 12
f 10 13 17
f 10 17 14
f 11 15 20
f 11 20 16
f 14 17 21
f 14 21 18
f 15 19 24
f 15 24 20
f 18 21 26
f 18 26 22
f 19 23 29
f 19 29 25
f 19 25 24
f 20 24 25
f 22 26 30
f 22 30 27
f 23 28 33
f 23 33 29
f 27 30 34
f 27 34 31
f 28 32 37
f 28 37 33
f 31 34 38
f 31 38 35
f 32 36 41
f 32 41 37
f 35 38 42
f 35 42 39
f 36 40 45
f 36 45 41
f 39 42 46
f 39 46 43
f 40 44 49
f 40 49 45
f 43 46 50
f 43 50 47
f 44 48 53
f 44 53 49
f 47 50 54
f 47 54 51
f 48 52 56
f 48 56 53
f 51 54 57
f 51 57 55
f 52 55 57
f 52 57 56