# https://github.com/mikedh/trimesh
v 0.01196547 -0.02102950 -0.07500000 0.38039216 0.78823529 0.52549020
v 0.01130981 -0.02099121 -0.07500000 0.38039216 0.78823529 0.52549020
v 0.01261251 -0.02091617 -0.07500000 0.38039216 0.78823529 0.52549020
v 0.01196547 -0.02102950 0.05000000 0.38039216 0.78823529 0.52549020
v 0.01067998 -0.02080590 -0.07500000 0.38039216 0.78823529 0.52549020
v 0.01130981 -0.02099121 0.05000000 0.38039216 0.78823529 0.52549020
v 0.01321795 -0.02066193 -0.07500000 0.38039216 0.78823529 0.52549020
v 0.01261251 -0.02091617 0.05000000 0.38039216 0.78823529 0.52549020
v 0.01010897 -0.02048274 -0.07500000 0.38039216 0.78823529 0.52549020
v 0.01067998 -0.02080590 0.05000000 0.38039216 0.78823529 0.52549020
v 0.01374879 -0.02027598 -0.07500000 0.38039216 0.78823529 0.52549020
v 0.01321795 -0.02066193 0.05000000 0.38039216 0.78823529 0.52549020
v 0.00001447 -0.01315125 -0.07500000 0.38039216 0.78823529 0.52549020
v 0.01010897 -0.02048274 0.05000000 0.38039216 0.78823529 0.52549020
v 0.01417920 -0.01977976 -0.07500000 0.38039216 0.78823529 0.52549020
v 0.01374879 -0.02027598 0.05000000 0.38039216 0.78823529 0.52549020
v 0.00001447 -0.00538327 -0.07500000 0.38039216 0.78823529 0.52549020
v 0.00001447 -0.01315125 0.05000000 0.38039216 0.78823529 0.52549020
v 0.01448479 -0.01919778 -0.07500000 0.38039216 0.78823529 0.52549020
v 0.01417920 -0.01977976 0.05000000 0.38039216 0.78823529 0.52549020
v 0.01067424 -0.00538327 -0.07500000 0.38039216 0.78823529 0.52549020
v 0.00001447 -0.00538327 0.05000000 0.38039216 0.78823529 0.52549020
v 0.01465121 -0.01856372 -0.07500000 0.38039216 0.78823529 0.52549020
v 0.01448479 -0.01919778 0.05000000 0.38039216 0.78823529 0.52549020
v 0.01067998 -0.00538327 -0.07496329 0.38039216 0.78823529 0.52549020
v 0.01454074 -0.01726344 -0.07500000 0.38039216 0.78823529 0.52549020
v 0.01067998 -0.00538327 0.05000000 0.38039216 0.78823529 0.52549020
v 0.01467130 -0.01790669 -0.07500000 0.38039216 0.78823529 0.52549020
v 0.01465121 -0.01856372 0.05000000 0.38039216 0.78823529 0.52549020
v 0.01454074 -0.01726344 0.05000000 0.38039216 0.78823529 0.52549020
v 0.01467130 -0.01790669 0.05000000 0.38039216 0.78823529 0.52549020
f 1 2 5
f 1 5 9
f 1 9 13
f 1 13 17
f 1 17 21
f 1 21 26
f 1 26 28
f 1 28 23
f 1 23 19
f 1 19 15
f 1 15 11
f 1 11 7
f 1 7 3
f 1 3 8
f 1 8 4
f 1 4 6
f 1 6 2
f 2 6 10
f 2 10 5
f 3 7 12
f 3 12 8
f 4 8 12
f 4 12 16
f 4 16 20
f 4 20 24
f 4 24 29
f 4 29 31
f 4 31 30
f 4 30 27
f 4 27 22
f 4 22 18
f 4 18 14
f 4 14 10
f 4 10 6
f 5 10 14
f 5 14 9
f 7 11 16
f 7 16 12
f 9 14 18
f 9 18 13
f 11 15 20
f 11 20 16
f 13 18 22
f 13 22 17
f 15 19 24
f 15 24 20
f 17 22 27
f 17 27 25
f 17 25 21
f 19 23 29
f 19 29 24
f 21 25 26
f 23 28 31
f 23 31 29
f 25 27 30
f 25 30 26
f 26 30 31
f 26 31 28