# https://github.com/mikedh/trimesh

o geometry_0
v -0.00659488 0.00719263 -0.07500000 0.54509804 0.71372549 0.60000000
v -0.00273840 0.01905726 -0.07500000 0.54509804 0.71372549 0.60000000
v 0.00659488 0.00719263 -0.07500000 0.54509804 0.71372549 0.60000000
v -0.00659488 0.00719263 0.05000000 0.54509804 0.71372549 0.60000000
v -0.00246598 0.01965462 -0.07500000 0.54509804 0.71372549 0.60000000
v -0.00273840 0.01905726 0.05000000 0.54509804 0.71372549 0.60000000
v 0.00273840 0.01905726 -0.07500000 0.54509804 0.71372549 0.60000000
v 0.00659488 0.00719263 0.05000000 0.54509804 0.71372549 0.60000000
v -0.00206445 0.02017477 -0.07500000 0.54509804 0.71372549 0.60000000
v -0.00246598 0.01965462 0.05000000 0.54509804 0.71372549 0.60000000
v 0.00246598 0.01965462 -0.07500000 0.54509804 0.71372549 0.60000000
v 0.00273840 0.01905726 0.05000000 0.54509804 0.71372549 0.60000000
v -0.00155576 0.02059062 -0.07500000 0.54509804 0.71372549 0.60000000
v -0.00206445 0.02017477 0.05000000 0.54509804 0.71372549 0.60000000
v 0.00206445 0.02017477 -0.07500000 0.54509804 0.71372549 0.60000000
v 0.00246598 0.01965462 0.05000000 0.54509804 0.71372549 0.60000000
v -0.00096703 0.02088050 -0.07500000 0.54509804 0.71372549 0.60000000
v -0.00155576 0.02059062 0.05000000 0.54509804 0.71372549 0.60000000
v 0.00155576 0.02059062 -0.07500000 0.54509804 0.71372549 0.60000000
v 0.00206445 0.02017477 0.05000000 0.54509804 0.71372549 0.60000000
v -0.00032794 0.02102950 -0.07500000 0.54509804 0.71372549 0.60000000
v -0.00096703 0.02088050 0.05000000 0.54509804 0.71372549 0.60000000
v 0.00096703 0.02088050 -0.07500000 0.54509804 0.71372549 0.60000000
v 0.00155576 0.02059062 0.05000000 0.54509804 0.71372549 0.60000000
v 0.00032794 0.02102950 -0.07500000 0.54509804 0.71372549 0.60000000
v -0.00032794 0.02102950 0.05000000 0.54509804 0.71372549 0.60000000
v 0.00096703 0.02088050 0.05000000 0.54509804 0.71372549 0.60000000
v 0.00032794 0.02102950 0.05000000 0.54509804 0.71372549 0.60000000
f 1 2 5
f 1 5 9
f 1 9 13
f 1 13 17
f 1 17 21
f 1 21 25
f 1 25 23
f 1 23 19
f 1 19 15
f 1 15 11
f 1 11 7
f 1 7 3
f 1 3 8
f 1 8 4
f 1 4 6
f 1 6 2
f 2 6 10
f 2 10 5
f 3 7 12
f 3 12 8
f 4 8 12
f 4 12 16
f 4 16 20
f 4 20 24
f 4 24 27
f 4 27 28
f 4 28 26
f 4 26 22
f 4 22 18
f 4 18 14
f 4 14 10
f 4 10 6
f 5 10 14
f 5 14 9
f 7 11 16
f 7 16 12
f 9 14 18
f 9 18 13
f 11 15 20
f 11 20 16
f 13 18 22
f 13 22 17
f 15 19 24
f 15 24 20
f 17 22 26
f 17 26 21
f 19 23 27
f 19 27 24
f 21 26 28
f 21 28 25
f 23 25 28
f 23 28 27

o geometry_1
v -0.01196587 -0.02102950 -0.07500000 0.54117647 0.42352941 0.64313725
v -0.01131036 -0.02099121 -0.07500000 0.54117647 0.42352941 0.64313725
v -0.01196587 -0.02102950 0.05000000 0.54117647 0.42352941 0.64313725
v -0.01261276 -0.02091617 -0.07500000 0.54117647 0.42352941 0.64313725
v -0.01068073 -0.02080590 -0.07500000 0.54117647 0.42352941 0.64313725
v -0.01131036 -0.02099121 0.05000000 0.54117647 0.42352941 0.64313725
v -0.01261276 -0.02091617 0.05000000 0.54117647 0.42352941 0.64313725
v -0.01321796 -0.02066193 -0.07500000 0.54117647 0.42352941 0.64313725
v -0.01010859 -0.02048274 -0.07500000 0.54117647 0.42352941 0.64313725
v -0.01068073 -0.02080590 0.05000000 0.54117647 0.42352941 0.64313725
v -0.01321796 -0.02066193 0.05000000 0.54117647 0.42352941 0.64313725
v -0.01374841 -0.02027598 -0.07500000 0.54117647 0.42352941 0.64313725
v 0.00001447 -0.01315125 -0.07500000 0.54117647 0.42352941 0.64313725
v -0.01010859 -0.02048274 0.05000000 0.54117647 0.42352941 0.64313725
v -0.01374841 -0.02027598 0.05000000 0.54117647 0.42352941 0.64313725
v -0.01417823 -0.01977976 -0.07500000 0.54117647 0.42352941 0.64313725
v 0.00001447 -0.00538327 -0.07500000 0.54117647 0.42352941 0.64313725
v 0.00001447 -0.01315125 0.05000000 0.54117647 0.42352941 0.64313725
v -0.01417823 -0.01977976 0.05000000 0.54117647 0.42352941 0.64313725
v -0.01448442 -0.01919778 -0.07500000 0.54117647 0.42352941 0.64313725
v -0.01067929 -0.00538327 -0.07500000 0.54117647 0.42352941 0.64313725
v 0.00001447 -0.00538327 0.05000000 0.54117647 0.42352941 0.64313725
v -0.01448442 -0.01919778 0.05000000 0.54117647 0.42352941 0.64313725
v -0.01465117 -0.01856372 -0.07500000 0.54117647 0.42352941 0.64313725
v -0.01454048 -0.01726344 -0.07500000 0.54117647 0.42352941 0.64313725
v -0.01067929 -0.00538327 0.05000000 0.54117647 0.42352941 0.64313725
v -0.01465117 -0.01856372 0.05000000 0.54117647 0.42352941 0.64313725
v -0.01467130 -0.01790669 -0.07500000 0.54117647 0.42352941 0.64313725
v -0.01454048 -0.01726344 0.05000000 0.54117647 0.42352941 0.64313725
v -0.01467130 -0.01790669 0.05000000 0.54117647 0.42352941 0.64313725
f 29 30 34
f 29 34 31
f 29 31 35
f 29 35 32
f 29 32 36
f 29 36 40
f 29 40 44
f 29 44 48
f 29 48 52
f 29 52 56
f 29 56 53
f 29 53 49
f 29 49 45
f 29 45 41
f 29 41 37
f 29 37 33
f 29 33 30
f 30 33 38
f 30 38 34
f 31 34 38
f 31 38 42
f 31 42 46
f 31 46 50
f 31 50 54
f 31 54 57
f 31 57 58
f 31 58 55
f 31 55 51
f 31 51 47
f 31 47 43
f 31 43 39
f 31 39 35
f 32 35 39
f 32 39 36
f 33 37 42
f 33 42 38
f 36 39 43
f 36 43 40
f 37 41 46
f 37 46 42
f 40 43 47
f 40 47 44
f 41 45 50
f 41 50 46
f 44 47 51
f 44 51 48
f 45 49 54
f 45 54 50
f 48 51 55
f 48 55 52
f 49 53 57
f 49 57 54
f 52 55 58
f 52 58 56
f 53 56 58
f 53 58 57

o geometry_2
v 0.02197470 0.00421134 0.05000000 0.43529412 0.89019608 0.96078431
v 0.02191447 0.00486617 0.05000000 0.43529412 0.89019608 0.96078431
v 0.02188005 0.00356145 0.05000000 0.43529412 0.89019608 0.96078431
v 0.02197470 0.00421134 -0.07500000 0.43529412 0.89019608 0.96078431
v 0.02191447 0.00486617 -0.07500000 0.43529412 0.89019608 0.96078431
v 0.02171228 0.00549022 0.05000000 0.43529412 0.89019608 0.96078431
v 0.02163914 0.00294970 0.05000000 0.43529412 0.89019608 0.96078431
v 0.02188005 0.00356145 -0.07500000 0.43529412 0.89019608 0.96078431
v 0.02171228 0.00549022 -0.07500000 0.43529412 0.89019608 0.96078431
v 0.02137242 0.00605272 0.05000000 0.43529412 0.89019608 0.96078431
v 0.02126917 0.00240812 0.05000000 0.43529412 0.89019608 0.96078431
v 0.02163914 0.00294970 -0.07500000 0.43529412 0.89019608 0.96078431
v 0.02137242 0.00605272 -0.07500000 0.43529412 0.89019608 0.96078431
v 0.02091640 0.00652292 0.05000000 0.43529412 0.89019608 0.96078431
v 0.02078734 0.00196378 0.05000000 0.43529412 0.89019608 0.96078431
v 0.02126917 0.00240812 -0.07500000 0.43529412 0.89019608 0.96078431
v 0.02091640 0.00652292 -0.07500000 0.43529412 0.89019608 0.96078431
v 0.02036574 0.00687864 0.05000000 0.43529412 0.89019608 0.96078431
v 0.01067760 -0.00538327 0.05000000 0.43529412 0.89019608 0.96078431
v 0.02078734 0.00196378 -0.07500000 0.43529412 0.89019608 0.96078431
v 0.02036574 0.00687864 -0.07500000 0.43529412 0.89019608 0.96078431
v 0.01974626 0.00709896 0.05000000 0.43529412 0.89019608 0.96078431
v -0.01067760 -0.00538327 0.05000000 0.43529412 0.89019608 0.96078431
v 0.01067760 -0.00538327 -0.07496329 0.43529412 0.89019608 0.96078431
v 0.01067330 -0.00538327 -0.07500000 0.43529412 0.89019608 0.96078431
v 0.01974626 0.00709896 -0.07500000 0.43529412 0.89019608 0.96078431
v 0.01909235 0.00717404 0.05000000 0.43529412 0.89019608 0.96078431
v -0.02078734 0.00196378 0.05000000 0.43529412 0.89019608 0.96078431
v -0.01067760 -0.00538327 -0.07500000 0.43529412 0.89019608 0.96078431
v 0.01909235 0.00717404 -0.07500000 0.43529412 0.89019608 0.96078431
v 0.00659069 0.00719128 0.05000000 0.43529412 0.89019608 0.96078431
v -0.02126917 0.00240812 0.05000000 0.43529412 0.89019608 0.96078431
v -0.02078734 0.00196378 -0.07500000 0.43529412 0.89019608 0.96078431
v 0.00659069 0.00719128 -0.07500000 0.43529412 0.89019608 0.96078431
v -0.00659069 0.00719128 0.05000000 0.43529412 0.89019608 0.96078431
v -0.02163914 0.00294970 0.05000000 0.43529412 0.89019608 0.96078431
v -0.02126917 0.00240812 -0.07500000 0.43529412 0.89019608 0.96078431
v -0.00659069 0.00719128 -0.07500000 0.43529412 0.89019608 0.96078431
v -0.01909235 0.00717404 0.05000000 0.43529412 0.89019608 0.96078431
v -0.02188005 0.00356145 0.05000000 0.43529412 0.89019608 0.96078431
v -0.02163914 0.00294970 -0.07500000 0.43529412 0.89019608 0.96078431
v -0.01909235 0.00717404 -0.07500000 0.43529412 0.89019608 0.96078431
v -0.01974626 0.00709896 0.05000000 0.43529412 0.89019608 0.96078431
v -0.02197470 0.00421134 0.05000000 0.43529412 0.89019608 0.96078431
v -0.02188005 0.00356145 -0.07500000 0.43529412 0.89019608 0.96078431
v -0.01974626 0.00709896 -0.07500000 0.43529412 0.89019608 0.96078431
v -0.02036574 0.00687864 0.05000000 0.43529412 0.89019608 0.96078431
v -0.02191447 0.00486617 0.05000000 0.43529412 0.89019608 0.96078431
v -0.02197470 0.00421134 -0.07500000 0.43529412 0.89019608 0.96078431
v -0.02036574 0.00687864 -0.07500000 0.43529412 0.89019608 0.96078431
v -0.02091640 0.00652292 0.05000000 0.43529412 0.89019608 0.96078431
v -0.02171228 0.00549022 0.05000000 0.43529412 0.89019608 0.96078431
v -0.02191447 0.00486617 -0.07500000 0.43529412 0.89019608 0.96078431
v -0.02091640 0.00652292 -0.07500000 0.43529412 0.89019608 0.96078431
v -0.02137242 0.00605272 0.05000000 0.43529412 0.89019608 0.96078431
v -0.02171228 0.00549022 -0.07500000 0.43529412 0.89019608 0.96078431
v -0.02137242 0.00605272 -0.07500000 0.43529412 0.89019608 0.96078431
f 59 60 64
f 59 64 68
f 59 68 72
f 59 72 76
f 59 76 80
f 59 80 85
f 59 85 89
f 59 89 93
f 59 93 97
f 59 97 101
f 59 101 105
f 59 105 109
f 59 109 113
f 59 113 110
f 59 110 106
f 59 106 102
f 59 102 98
f 59 98 94
f 59 94 90
f 59 90 86
f 59 86 81
f 59 81 77
f 59 77 73
f 59 73 69
f 59 69 65
f 59 65 61
f 59 61 66
f 59 66 62
f 59 62 63
f 59 63 60
f 60 63 67
f 60 67 64
f 61 65 70
f 61 70 66
f 62 66 70
f 62 70 74
f 62 74 78
f 62 78 83
f 62 83 87
f 62 87 91
f 62 91 95
f 62 95 99
f 62 99 103
f 62 103 107
f 62 107 111
f 62 111 114
f 62 114 115
f 62 115 112
f 62 112 108
f 62 108 104
f 62 104 100
f 62 100 96
f 62 96 92
f 62 92 88
f 62 88 84
f 62 84 79
f 62 79 75
f 62 75 71
f 62 71 67
f 62 67 63
f 64 67 71
f 64 71 68
f 65 69 74
f 65 74 70
f 68 71 75
f 68 75 72
f 69 73 78
f 69 78 74
f 72 75 79
f 72 79 76
f 73 77 82
f 73 82 78
f 76 79 84
f 76 84 80
f 77 81 87
f 77 87 83
f 77 83 82
f 78 82 83
f 80 84 88
f 80 88 85
f 81 86 91
f 81 91 87
f 85 88 92
f 85 92 89
f 86 90 95
f 86 95 91
f 89 92 96
f 89 96 93
f 90 94 99
f 90 99 95
f 93 96 100
f 93 100 97
f 94 98 103
f 94 103 99
f 97 100 104
f 97 104 101
f 98 102 107
f 98 107 103
f 101 104 108
f 101 108 105
f 102 106 111
f 102 111 107
f 105 108 112
f 105 112 109
f 106 110 114
f 106 114 111
f 109 112 115
f 109 115 113
f 110 113 115
f 110 115 114

o geometry_3
v 0.01196547 -0.02102950 -0.07500000 0.38039216 0.78823529 0.52549020
v 0.01130981 -0.02099121 -0.07500000 0.38039216 0.78823529 0.52549020
v 0.01261251 -0.02091617 -0.07500000 0.38039216 0.78823529 0.52549020
v 0.01196547 -0.02102950 0.05000000 0.38039216 0.78823529 0.52549020
v 0.01067998 -0.02080590 -0.07500000 0.38039216 0.78823529 0.52549020
v 0.01130981 -0.02099121 0.05000000 0.38039216 0.78823529 0.52549020
v 0.01321795 -0.02066193 -0.07500000 0.38039216 0.78823529 0.52549020
v 0.01261251 -0.02091617 0.05000000 0.38039216 0.78823529 0.52549020
v 0.01010897 -0.02048274 -0.07500000 0.38039216 0.78823529 0.52549020
v 0.01067998 -0.02080590 0.05000000 0.38039216 0.78823529 0.52549020
v 0.01374879 -0.02027598 -0.07500000 0.38039216 0.78823529 0.52549020
v 0.01321795 -0.02066193 0.05000000 0.38039216 0.78823529 0.52549020
v 0.00001447 -0.01315125 -0.07500000 0.38039216 0.78823529 0.52549020
v 0.01010897 -0.02048274 0.05000000 0.38039216 0.78823529 0.52549020
v 0.01417920 -0.01977976 -0.07500000 0.38039216 0.78823529 0.52549020
v 0.01374879 -0.02027598 0.05000000 0.38039216 0.78823529 0.52549020
v 0.00001447 -0.00538327 -0.07500000 0.38039216 0.78823529 0.52549020
v 0.00001447 -0.01315125 0.05000000 0.38039216 0.78823529 0.52549020
v 0.01448479 -0.01919778 -0.07500000 0.38039216 0.78823529 0.52549020
v 0.01417920 -0.01977976 0.05000000 0.38039216 0.78823529 0.52549020
v 0.01067424 -0.00538327 -0.07500000 0.38039216 0.78823529 0.52549020
v 0.00001447 -0.00538327 0.05000000 0.38039216 0.78823529 0.52549020
v 0.01465121 -0.01856372 -0.07500000 0.38039216 0.78823529 0.52549020
v 0.01448479 -0.01919778 0.05000000 0.38039216 0.78823529 0.52549020
v 0.01067998 -0.00538327 -0.07496329 0.38039216 0.78823529 0.52549020
v 0.01454074 -0.01726344 -0.07500000 0.38039216 0.78823529 0.52549020
v 0.01067998 -0.00538327 0.05000000 0.38039216 0.78823529 0.52549020
v 0.01467130 -0.01790669 -0.07500000 0.38039216 0.78823529 0.52549020
v 0.01465121 -0.01856372 0.05000000 0.38039216 0.78823529 0.52549020
v 0.01454074 -0.01726344 0.05000000 0.38039216 0.78823529 0.52549020
v 0.01467130 -0.01790669 0.05000000 0.38039216 0.78823529 0.52549020
f 116 117 120
f 116 120 124
f 116 124 128
f 116 128 132
f 116 132 136
f 116 136 141
f 116 141 143
f 116 143 138
f 116 138 134
f 116 134 130
f 116 130 126
f 116 126 122
f 116 122 118
f 116 118 123
f 116 123 119
f 116 119 121
f 116 121 117
f 117 121 125
f 117 125 120
f 118 122 127
f 118 127 123
f 119 123 127
f 119 127 131
f 119 131 135
f 119 135 139
f 119 139 144
f 119 144 146
f 119 146 145
f 119 145 142
f 119 142 137
f 119 137 133
f 119 133 129
f 119 129 125
f 119 125 121
f 120 125 129
f 120 129 124
f 122 126 131
f 122 131 127
f 124 129 133
f 124 133 128
f 126 130 135
f 126 135 131
f 128 133 137
f 128 137 132
f 130 134 139
f 130 139 135
f 132 137 142
f 132 142 140
f 132 140 136
f 134 138 144
f 134 144 139
f 136 140 141
f 138 143 146
f 138 146 144
f 140 142 145
f 140 145 141
f 141 145 146
f 141 146 143