# https://github.com/mikedh/trimesh
v 0.00858200 -0.01019267 0.00006437 0.54117647 0.42352941 0.64313725
v 0.02405455 -0.01019267 0.00006437 0.54117647 0.42352941 0.64313725
v 0.00856205 -0.01019267 0.04999511 0.54117647 0.42352941 0.64313725
v 0.00856205 -0.01019068 0.00006437 0.54117647 0.42352941 0.64313725
v 0.02459731 -0.01013081 0.00006437 0.54117647 0.42352941 0.64313725
v 0.02405455 -0.01019267 0.04999511 0.54117647 0.42352941 0.64313725
v 0.00801929 -0.01013081 0.04999511 0.54117647 0.42352941 0.64313725
v 0.00801729 -0.01013081 0.00006437 0.54117647 0.42352941 0.64313725
v 0.02480483 -0.01005898 0.00006437 0.54117647 0.42352941 0.64313725
v 0.02459731 -0.01013081 0.04999511 0.54117647 0.42352941 0.64313725
v 0.00750048 -0.00994923 0.04999511 0.54117647 0.42352941 0.64313725
v 0.00750048 -0.00994923 0.00006437 0.54117647 0.42352941 0.64313725
v 0.02511413 -0.00994923 0.00006437 0.54117647 0.42352941 0.64313725
v 0.02511413 -0.00994923 0.04999511 0.54117647 0.42352941 0.64313725
v 0.00703754 -0.00965789 0.04999511 0.54117647 0.42352941 0.64313725
v 0.00703754 -0.00965789 0.00006437 0.54117647 0.42352941 0.64313725
v 0.02529970 -0.00983349 0.00006437 0.54117647 0.42352941 0.64313725
v 0.02557906 -0.00965789 0.04999511 0.54117647 0.42352941 0.64313725
v 0.00665043 -0.00927078 0.04999511 0.54117647 0.42352941 0.64313725
v 0.00665043 -0.00927078 0.00006437 0.54117647 0.42352941 0.64313725
v 0.02557906 -0.00965789 0.00006437 0.54117647 0.42352941 0.64313725
v 0.02596617 -0.00927078 0.04999511 0.54117647 0.42352941 0.64313725
v 0.00635909 -0.00880584 0.04999511 0.54117647 0.42352941 0.64313725
v 0.00635909 -0.00880584 0.00006437 0.54117647 0.42352941 0.64313725
v 0.02596617 -0.00927078 0.00006437 0.54117647 0.42352941 0.64313725
v 0.02625751 -0.00880584 0.04999511 0.54117647 0.42352941 0.64313725
v 0.00617751 -0.00828903 0.04999511 0.54117647 0.42352941 0.64313725
v 0.00617751 -0.00828903 0.00006437 0.54117647 0.42352941 0.64313725
v 0.02625751 -0.00880584 0.00006437 0.54117647 0.42352941 0.64313725
v 0.02643909 -0.00828903 0.04999511 0.54117647 0.42352941 0.64313725
v 0.00611565 -0.00774627 0.04999511 0.54117647 0.42352941 0.64313725
v 0.00611565 -0.00774627 0.00006437 0.54117647 0.42352941 0.64313725
v 0.02643909 -0.00828903 0.00006437 0.54117647 0.42352941 0.64313725
v 0.02650095 -0.00774627 0.04999511 0.54117647 0.42352941 0.64313725
v 0.00611565 0.00774627 0.04999511 0.54117647 0.42352941 0.64313725
v 0.00611565 0.00774627 0.00006437 0.54117647 0.42352941 0.64313725
v 0.02650095 -0.00774627 0.00006437 0.54117647 0.42352941 0.64313725
v 0.02650095 0.00774627 0.04999511 0.54117647 0.42352941 0.64313725
v 0.00617751 0.00828903 0.04999511 0.54117647 0.42352941 0.64313725
v 0.00617751 0.00828903 0.00006437 0.54117647 0.42352941 0.64313725
v 0.02650095 0.00774627 0.00006437 0.54117647 0.42352941 0.64313725
v 0.02643909 0.00828903 0.04999511 0.54117647 0.42352941 0.64313725
v 0.00635909 0.00880584 0.04999511 0.54117647 0.42352941 0.64313725
v 0.00635909 0.00880584 0.00006437 0.54117647 0.42352941 0.64313725
v 0.02643909 0.00828903 0.00006437 0.54117647 0.42352941 0.64313725
v 0.02625751 0.00880584 0.04999511 0.54117647 0.42352941 0.64313725
v 0.02636726 0.00849655 0.00006437 0.54117647 0.42352941 0.64313725
v 0.00665043 0.00927078 0.04999511 0.54117647 0.42352941 0.64313725
v 0.00665043 0.00927078 0.00006437 0.54117647 0.42352941 0.64313725
v 0.02596617 0.00927078 0.04999511 0.54117647 0.42352941 0.64313725
v 0.02625751 0.00880584 0.00006437 0.54117647 0.42352941 0.64313725
v 0.02614177 0.00899142 0.00006437 0.54117647 0.42352941 0.64313725
v 0.00703754 0.00965789 0.04999511 0.54117647 0.42352941 0.64313725
v 0.00703754 0.00965789 0.00006437 0.54117647 0.42352941 0.64313725
v 0.02557906 0.00965789 0.04999511 0.54117647 0.42352941 0.64313725
v 0.02596617 0.00927078 0.00006437 0.54117647 0.42352941 0.64313725
v 0.00750048 0.00994923 0.04999511 0.54117647 0.42352941 0.64313725
v 0.00750048 0.00994923 0.00006437 0.54117647 0.42352941 0.64313725
v 0.02511413 0.00994923 0.04999511 0.54117647 0.42352941 0.64313725
v 0.02557906 0.00965789 0.00006437 0.54117647 0.42352941 0.64313725
v 0.00801929 0.01013081 0.04999511 0.54117647 0.42352941 0.64313725
v 0.00801929 0.01013081 0.00006437 0.54117647 0.42352941 0.64313725
v 0.02459731 0.01013081 0.04999511 0.54117647 0.42352941 0.64313725
v 0.02511413 0.00994923 0.00006437 0.54117647 0.42352941 0.64313725
v 0.00856205 0.01019267 0.04999511 0.54117647 0.42352941 0.64313725
v 0.00856205 0.01019267 0.00006437 0.54117647 0.42352941 0.64313725
v 0.02405455 0.01019267 0.04999511 0.54117647 0.42352941 0.64313725
v 0.02459731 0.01013081 0.00006437 0.54117647 0.42352941 0.64313725
v 0.02405455 0.01019267 0.00006437 0.54117647 0.42352941 0.64313725
f 1 2 6
f 1 6 3
f 1 3 4
f 1 4 8
f 1 8 12
f 1 12 16
f 1 16 20
f 1 20 24
f 1 24 28
f 1 28 32
f 1 32 36
f 1 36 40
f 1 40 44
f 1 44 49
f 1 49 54
f 1 54 58
f 1 58 62
f 1 62 66
f 1 66 69
f 1 69 68
f 1 68 64
f 1 64 60
f 1 60 56
f 1 56 52
f 1 52 51
f 1 51 47
f 1 47 45
f 1 45 41
f 1 41 37
f 1 37 33
f 1 33 29
f 1 29 25
f 1 25 21
f 1 21 17
f 1 17 13
f 1 13 9
f 1 9 5
f 1 5 2
f 2 5 10
f 2 10 6
f 3 6 10
f 3 10 14
f 3 14 18
f 3 18 22
f 3 22 26
f 3 26 30
f 3 30 34
f 3 34 38
f 3 38 42
f 3 42 46
f 3 46 50
f 3 50 55
f 3 55 59
f 3 59 63
f 3 63 67
f 3 67 65
f 3 65 61
f 3 61 57
f 3 57 53
f 3 53 48
f 3 48 43
f 3 43 39
f 3 39 35
f 3 35 31
f 3 31 27
f 3 27 23
f 3 23 19
f 3 19 15
f 3 15 11
f 3 11 7
f 3 7 8
f 3 8 4
f 5 9 10
f 7 11 8
f 8 11 12
f 9 13 14
f 9 14 10
f 11 15 16
f 11 16 12
f 13 17 14
f 14 17 18
f 15 19 20
f 15 20 16
f 17 21 18
f 18 21 25
f 18 25 22
f 19 23 24
f 19 24 20
f 22 25 29
f 22 29 26
f 23 27 28
f 23 28 24
f 26 29 33
f 26 33 30
f 27 31 32
f 27 32 28
f 30 33 37
f 30 37 34
f 31 35 36
f 31 36 32
f 34 37 41
f 34 41 38
f 35 39 40
f 35 40 36
f 38 41 45
f 38 45 42
f 39 43 44
f 39 44 40
f 42 45 47
f 42 47 46
f 43 48 49
f 43 49 44
f 46 47 51
f 46 51 52
f 46 52 50
f 48 53 54
f 48 54 49
f 50 52 56
f 50 56 60
f 50 60 55
f 53 57 58
f 53 58 54
f 55 60 64
f 55 64 59
f 57 61 62
f 57 62 58
f 59 64 68
f 59 68 63
f 61 65 66
f 61 66 62
f 63 68 69
f 63 69 67
f 65 67 69
f 65 69 66