# https://github.com/mikedh/trimesh
v 0.02649576 0.00774627 0.00006437 0.54509804 0.71372549 0.60000000
v 0.02649576 -0.00774627 0.00006437 0.54509804 0.71372549 0.60000000
v 0.02649576 0.00774627 -0.07500000 0.54509804 0.71372549 0.60000000
v 0.02647501 0.00796377 0.00006437 0.54509804 0.71372549 0.60000000
v 0.02643869 -0.00828903 0.00006437 0.54509804 0.71372549 0.60000000
v 0.02649576 -0.00774627 -0.07500000 0.54509804 0.71372549 0.60000000
v 0.02643869 0.00828903 -0.07500000 0.54509804 0.71372549 0.60000000
v 0.02643869 0.00828903 0.00006437 0.54509804 0.71372549 0.60000000
v 0.02632974 -0.00860032 0.00006437 0.54509804 0.71372549 0.60000000
v 0.02643869 -0.00828903 -0.07500000 0.54509804 0.71372549 0.60000000
v 0.02625711 0.00880584 -0.07500000 0.54509804 0.71372549 0.60000000
v 0.02636606 0.00849655 0.00006437 0.54509804 0.71372549 0.60000000
v 0.02625711 -0.00880584 0.00006437 0.54509804 0.71372549 0.60000000
v 0.02625711 -0.00880584 -0.07500000 0.54509804 0.71372549 0.60000000
v 0.02596657 0.00927078 -0.07500000 0.54509804 0.71372549 0.60000000
v 0.02625711 0.00880584 0.00006437 0.54509804 0.71372549 0.60000000
v 0.02596657 -0.00927078 0.00006437 0.54509804 0.71372549 0.60000000
v 0.02596657 -0.00927078 -0.07500000 0.54509804 0.71372549 0.60000000
v 0.02557746 0.00965789 -0.07500000 0.54509804 0.71372549 0.60000000
v 0.02596657 0.00927078 0.00006437 0.54509804 0.71372549 0.60000000
v 0.02557746 -0.00965789 0.00006437 0.54509804 0.71372549 0.60000000
v 0.02557746 -0.00965789 -0.07500000 0.54509804 0.71372549 0.60000000
v 0.02511572 0.00994923 -0.07500000 0.54509804 0.71372549 0.60000000
v 0.02557746 0.00965789 0.00006437 0.54509804 0.71372549 0.60000000
v 0.02511572 -0.00994923 0.00006437 0.54509804 0.71372549 0.60000000
v 0.02511572 -0.00994923 -0.07500000 0.54509804 0.71372549 0.60000000
v 0.02459691 0.01013081 -0.07500000 0.54509804 0.71372549 0.60000000
v 0.02511572 0.00994923 0.00006437 0.54509804 0.71372549 0.60000000
v 0.02480443 -0.01005898 0.00006437 0.54509804 0.71372549 0.60000000
v 0.02459691 -0.01013081 -0.07500000 0.54509804 0.71372549 0.60000000
v 0.02405215 0.01019267 -0.07500000 0.54509804 0.71372549 0.60000000
v 0.02459691 0.01013081 0.00006437 0.54509804 0.71372549 0.60000000
v 0.02459691 -0.01013081 0.00006437 0.54509804 0.71372549 0.60000000
v 0.02405215 -0.01019267 -0.07500000 0.54509804 0.71372549 0.60000000
v -0.02405215 0.01019267 -0.07500000 0.54509804 0.71372549 0.60000000
v 0.02405215 0.01019267 0.00006437 0.54509804 0.71372549 0.60000000
v 0.02405215 -0.01019267 0.00006437 0.54509804 0.71372549 0.60000000
v -0.02405215 -0.01019267 -0.07500000 0.54509804 0.71372549 0.60000000
v -0.02459691 0.01013081 -0.07500000 0.54509804 0.71372549 0.60000000
v -0.02405215 0.01019267 0.00006437 0.54509804 0.71372549 0.60000000
v -0.02405215 -0.01019267 0.00006437 0.54509804 0.71372549 0.60000000
v -0.02459691 -0.01013081 -0.07500000 0.54509804 0.71372549 0.60000000
v -0.02511572 0.00994923 -0.07500000 0.54509804 0.71372549 0.60000000
v -0.02480443 0.01005898 0.00006437 0.54509804 0.71372549 0.60000000
v -0.02459691 0.01013081 0.00006437 0.54509804 0.71372549 0.60000000
v -0.02459691 -0.01013081 0.00006437 0.54509804 0.71372549 0.60000000
v -0.02511572 -0.00994923 -0.07500000 0.54509804 0.71372549 0.60000000
v -0.02557746 0.00965789 -0.07500000 0.54509804 0.71372549 0.60000000
v -0.02511572 0.00994923 0.00006437 0.54509804 0.71372549 0.60000000
v -0.02511572 -0.00994923 0.00006437 0.54509804 0.71372549 0.60000000
v -0.02557746 -0.00965789 -0.07500000 0.54509804 0.71372549 0.60000000
v -0.02596657 0.00927078 -0.07500000 0.54509804 0.71372549 0.60000000
v -0.02557746 0.00965789 0.00006437 0.54509804 0.71372549 0.60000000
v -0.02557746 -0.00965789 0.00006437 0.54509804 0.71372549 0.60000000
v -0.02596657 -0.00927078 -0.07500000 0.54509804 0.71372549 0.60000000
v -0.02625711 0.00880584 -0.07500000 0.54509804 0.71372549 0.60000000
v -0.02596657 0.00927078 0.00006437 0.54509804 0.71372549 0.60000000
v -0.02596657 -0.00927078 0.00006437 0.54509804 0.71372549 0.60000000
v -0.02625711 -0.00880584 -0.07500000 0.54509804 0.71372549 0.60000000
v -0.02643869 0.00828903 -0.07500000 0.54509804 0.71372549 0.60000000
v -0.02632974 0.00860032 0.00006437 0.54509804 0.71372549 0.60000000
v -0.02625711 0.00880584 0.00006437 0.54509804 0.71372549 0.60000000
v -0.02625711 -0.00880584 0.00006437 0.54509804 0.71372549 0.60000000
v -0.02643869 -0.00828903 -0.07500000 0.54509804 0.71372549 0.60000000
v -0.02636606 -0.00849655 0.00006437 0.54509804 0.71372549 0.60000000
v -0.02649576 0.00774627 -0.07500000 0.54509804 0.71372549 0.60000000
v -0.02643869 0.00828903 0.00006437 0.54509804 0.71372549 0.60000000
v -0.02649576 -0.00774627 -0.07500000 0.54509804 0.71372549 0.60000000
v -0.02643869 -0.00828903 0.00006437 0.54509804 0.71372549 0.60000000
v -0.02647501 -0.00796377 0.00006437 0.54509804 0.71372549 0.60000000
v -0.02649576 0.00774627 0.00006437 0.54509804 0.71372549 0.60000000
v -0.02649576 -0.00774627 0.00006437 0.54509804 0.71372549 0.60000000
f 1 2 6
f 1 6 3
f 1 3 4
f 1 4 8
f 1 8 12
f 1 12 16
f 1 16 20
f 1 20 24
f 1 24 28
f 1 28 32
f 1 32 36
f 1 36 40
f 1 40 45
f 1 45 44
f 1 44 49
f 1 49 53
f 1 53 57
f 1 57 62
f 1 62 61
f 1 61 67
f 1 67 71
f 1 71 72
f 1 72 70
f 1 70 69
f 1 69 65
f 1 65 63
f 1 63 58
f 1 58 54
f 1 54 50
f 1 50 46
f 1 46 41
f 1 41 37
f 1 37 33
f 1 33 29
f 1 29 25
f 1 25 21
f 1 21 17
f 1 17 13
f 1 13 9
f 1 9 5
f 1 5 2
f 2 5 10
f 2 10 6
f 3 6 10
f 3 10 14
f 3 14 18
f 3 18 22
f 3 22 26
f 3 26 30
f 3 30 34
f 3 34 38
f 3 38 42
f 3 42 47
f 3 47 51
f 3 51 55
f 3 55 59
f 3 59 64
f 3 64 68
f 3 68 66
f 3 66 60
f 3 60 56
f 3 56 52
f 3 52 48
f 3 48 43
f 3 43 39
f 3 39 35
f 3 35 31
f 3 31 27
f 3 27 23
f 3 23 19
f 3 19 15
f 3 15 11
f 3 11 7
f 3 7 4
f 4 7 8
f 5 9 10
f 7 11 12
f 7 12 8
f 9 13 14
f 9 14 10
f 11 15 20
f 11 20 16
f 11 16 12
f 13 17 18
f 13 18 14
f 15 19 24
f 15 24 20
f 17 21 22
f 17 22 18
f 19 23 28
f 19 28 24
f 21 25 26
f 21 26 22
f 23 27 32
f 23 32 28
f 25 29 26
f 26 29 30
f 27 31 36
f 27 36 32
f 29 33 30
f 30 33 37
f 30 37 34
f 31 35 40
f 31 40 36
f 34 37 41
f 34 41 38
f 35 39 45
f 35 45 40
f 38 41 46
f 38 46 42
f 39 43 44
f 39 44 45
f 42 46 50
f 42 50 47
f 43 48 53
f 43 53 49
f 43 49 44
f 47 50 54
f 47 54 51
f 48 52 57
f 48 57 53
f 51 54 58
f 51 58 55
f 52 56 62
f 52 62 57
f 55 58 63
f 55 63 59
f 56 60 61
f 56 61 62
f 59 63 65
f 59 65 64
f 60 66 71
f 60 71 67
f 60 67 61
f 64 65 69
f 64 69 70
f 64 70 68
f 66 68 72
f 66 72 71
f 68 70 72