# https://github.com/mikedh/trimesh

o geometry_0
v 0.02649576 0.00774627 0.00006437 0.54509804 0.71372549 0.60000000
v 0.02649576 -0.00774627 0.00006437 0.54509804 0.71372549 0.60000000
v 0.02649576 0.00774627 -0.07500000 0.54509804 0.71372549 0.60000000
v 0.02647501 0.00796377 0.00006437 0.54509804 0.71372549 0.60000000
v 0.02643869 -0.00828903 0.00006437 0.54509804 0.71372549 0.60000000
v 0.02649576 -0.00774627 -0.07500000 0.54509804 0.71372549 0.60000000
v 0.02643869 0.00828903 -0.07500000 0.54509804 0.71372549 0.60000000
v 0.02643869 0.00828903 0.00006437 0.54509804 0.71372549 0.60000000
v 0.02632974 -0.00860032 0.00006437 0.54509804 0.71372549 0.60000000
v 0.02643869 -0.00828903 -0.07500000 0.54509804 0.71372549 0.60000000
v 0.02625711 0.00880584 -0.07500000 0.54509804 0.71372549 0.60000000
v 0.02636606 0.00849655 0.00006437 0.54509804 0.71372549 0.60000000
v 0.02625711 -0.00880584 0.00006437 0.54509804 0.71372549 0.60000000
v 0.02625711 -0.00880584 -0.07500000 0.54509804 0.71372549 0.60000000
v 0.02596657 0.00927078 -0.07500000 0.54509804 0.71372549 0.60000000
v 0.02625711 0.00880584 0.00006437 0.54509804 0.71372549 0.60000000
v 0.02596657 -0.00927078 0.00006437 0.54509804 0.71372549 0.60000000
v 0.02596657 -0.00927078 -0.07500000 0.54509804 0.71372549 0.60000000
v 0.02557746 0.00965789 -0.07500000 0.54509804 0.71372549 0.60000000
v 0.02596657 0.00927078 0.00006437 0.54509804 0.71372549 0.60000000
v 0.02557746 -0.00965789 0.00006437 0.54509804 0.71372549 0.60000000
v 0.02557746 -0.00965789 -0.07500000 0.54509804 0.71372549 0.60000000
v 0.02511572 0.00994923 -0.07500000 0.54509804 0.71372549 0.60000000
v 0.02557746 0.00965789 0.00006437 0.54509804 0.71372549 0.60000000
v 0.02511572 -0.00994923 0.00006437 0.54509804 0.71372549 0.60000000
v 0.02511572 -0.00994923 -0.07500000 0.54509804 0.71372549 0.60000000
v 0.02459691 0.01013081 -0.07500000 0.54509804 0.71372549 0.60000000
v 0.02511572 0.00994923 0.00006437 0.54509804 0.71372549 0.60000000
v 0.02480443 -0.01005898 0.00006437 0.54509804 0.71372549 0.60000000
v 0.02459691 -0.01013081 -0.07500000 0.54509804 0.71372549 0.60000000
v 0.02405215 0.01019267 -0.07500000 0.54509804 0.71372549 0.60000000
v 0.02459691 0.01013081 0.00006437 0.54509804 0.71372549 0.60000000
v 0.02459691 -0.01013081 0.00006437 0.54509804 0.71372549 0.60000000
v 0.02405215 -0.01019267 -0.07500000 0.54509804 0.71372549 0.60000000
v -0.02405215 0.01019267 -0.07500000 0.54509804 0.71372549 0.60000000
v 0.02405215 0.01019267 0.00006437 0.54509804 0.71372549 0.60000000
v 0.02405215 -0.01019267 0.00006437 0.54509804 0.71372549 0.60000000
v -0.02405215 -0.01019267 -0.07500000 0.54509804 0.71372549 0.60000000
v -0.02459691 0.01013081 -0.07500000 0.54509804 0.71372549 0.60000000
v -0.02405215 0.01019267 0.00006437 0.54509804 0.71372549 0.60000000
v -0.02405215 -0.01019267 0.00006437 0.54509804 0.71372549 0.60000000
v -0.02459691 -0.01013081 -0.07500000 0.54509804 0.71372549 0.60000000
v -0.02511572 0.00994923 -0.07500000 0.54509804 0.71372549 0.60000000
v -0.02480443 0.01005898 0.00006437 0.54509804 0.71372549 0.60000000
v -0.02459691 0.01013081 0.00006437 0.54509804 0.71372549 0.60000000
v -0.02459691 -0.01013081 0.00006437 0.54509804 0.71372549 0.60000000
v -0.02511572 -0.00994923 -0.07500000 0.54509804 0.71372549 0.60000000
v -0.02557746 0.00965789 -0.07500000 0.54509804 0.71372549 0.60000000
v -0.02511572 0.00994923 0.00006437 0.54509804 0.71372549 0.60000000
v -0.02511572 -0.00994923 0.00006437 0.54509804 0.71372549 0.60000000
v -0.02557746 -0.00965789 -0.07500000 0.54509804 0.71372549 0.60000000
v -0.02596657 0.00927078 -0.07500000 0.54509804 0.71372549 0.60000000
v -0.02557746 0.00965789 0.00006437 0.54509804 0.71372549 0.60000000
v -0.02557746 -0.00965789 0.00006437 0.54509804 0.71372549 0.60000000
v -0.02596657 -0.00927078 -0.07500000 0.54509804 0.71372549 0.60000000
v -0.02625711 0.00880584 -0.07500000 0.54509804 0.71372549 0.60000000
v -0.02596657 0.00927078 0.00006437 0.54509804 0.71372549 0.60000000
v -0.02596657 -0.00927078 0.00006437 0.54509804 0.71372549 0.60000000
v -0.02625711 -0.00880584 -0.07500000 0.54509804 0.71372549 0.60000000
v -0.02643869 0.00828903 -0.07500000 0.54509804 0.71372549 0.60000000
v -0.02632974 0.00860032 0.00006437 0.54509804 0.71372549 0.60000000
v -0.02625711 0.00880584 0.00006437 0.54509804 0.71372549 0.60000000
v -0.02625711 -0.00880584 0.00006437 0.54509804 0.71372549 0.60000000
v -0.02643869 -0.00828903 -0.07500000 0.54509804 0.71372549 0.60000000
v -0.02636606 -0.00849655 0.00006437 0.54509804 0.71372549 0.60000000
v -0.02649576 0.00774627 -0.07500000 0.54509804 0.71372549 0.60000000
v -0.02643869 0.00828903 0.00006437 0.54509804 0.71372549 0.60000000
v -0.02649576 -0.00774627 -0.07500000 0.54509804 0.71372549 0.60000000
v -0.02643869 -0.00828903 0.00006437 0.54509804 0.71372549 0.60000000
v -0.02647501 -0.00796377 0.00006437 0.54509804 0.71372549 0.60000000
v -0.02649576 0.00774627 0.00006437 0.54509804 0.71372549 0.60000000
v -0.02649576 -0.00774627 0.00006437 0.54509804 0.71372549 0.60000000
f 1 2 6
f 1 6 3
f 1 3 4
f 1 4 8
f 1 8 12
f 1 12 16
f 1 16 20
f 1 20 24
f 1 24 28
f 1 28 32
f 1 32 36
f 1 36 40
f 1 40 45
f 1 45 44
f 1 44 49
f 1 49 53
f 1 53 57
f 1 57 62
f 1 62 61
f 1 61 67
f 1 67 71
f 1 71 72
f 1 72 70
f 1 70 69
f 1 69 65
f 1 65 63
f 1 63 58
f 1 58 54
f 1 54 50
f 1 50 46
f 1 46 41
f 1 41 37
f 1 37 33
f 1 33 29
f 1 29 25
f 1 25 21
f 1 21 17
f 1 17 13
f 1 13 9
f 1 9 5
f 1 5 2
f 2 5 10
f 2 10 6
f 3 6 10
f 3 10 14
f 3 14 18
f 3 18 22
f 3 22 26
f 3 26 30
f 3 30 34
f 3 34 38
f 3 38 42
f 3 42 47
f 3 47 51
f 3 51 55
f 3 55 59
f 3 59 64
f 3 64 68
f 3 68 66
f 3 66 60
f 3 60 56
f 3 56 52
f 3 52 48
f 3 48 43
f 3 43 39
f 3 39 35
f 3 35 31
f 3 31 27
f 3 27 23
f 3 23 19
f 3 19 15
f 3 15 11
f 3 11 7
f 3 7 4
f 4 7 8
f 5 9 10
f 7 11 12
f 7 12 8
f 9 13 14
f 9 14 10
f 11 15 20
f 11 20 16
f 11 16 12
f 13 17 18
f 13 18 14
f 15 19 24
f 15 24 20
f 17 21 22
f 17 22 18
f 19 23 28
f 19 28 24
f 21 25 26
f 21 26 22
f 23 27 32
f 23 32 28
f 25 29 26
f 26 29 30
f 27 31 36
f 27 36 32
f 29 33 30
f 30 33 37
f 30 37 34
f 31 35 40
f 31 40 36
f 34 37 41
f 34 41 38
f 35 39 45
f 35 45 40
f 38 41 46
f 38 46 42
f 39 43 44
f 39 44 45
f 42 46 50
f 42 50 47
f 43 48 53
f 43 53 49
f 43 49 44
f 47 50 54
f 47 54 51
f 48 52 57
f 48 57 53
f 51 54 58
f 51 58 55
f 52 56 62
f 52 62 57
f 55 58 63
f 55 63 59
f 56 60 61
f 56 61 62
f 59 63 65
f 59 65 64
f 60 66 71
f 60 71 67
f 60 67 61
f 64 65 69
f 64 69 70
f 64 70 68
f 66 68 72
f 66 72 71
f 68 70 72

o geometry_1
v 0.00858200 -0.01019267 0.00006437 0.54117647 0.42352941 0.64313725
v 0.02405455 -0.01019267 0.00006437 0.54117647 0.42352941 0.64313725
v 0.00856205 -0.01019267 0.04999511 0.54117647 0.42352941 0.64313725
v 0.00856205 -0.01019068 0.00006437 0.54117647 0.42352941 0.64313725
v 0.02459731 -0.01013081 0.00006437 0.54117647 0.42352941 0.64313725
v 0.02405455 -0.01019267 0.04999511 0.54117647 0.42352941 0.64313725
v 0.00801929 -0.01013081 0.04999511 0.54117647 0.42352941 0.64313725
v 0.00801729 -0.01013081 0.00006437 0.54117647 0.42352941 0.64313725
v 0.02480483 -0.01005898 0.00006437 0.54117647 0.42352941 0.64313725
v 0.02459731 -0.01013081 0.04999511 0.54117647 0.42352941 0.64313725
v 0.00750048 -0.00994923 0.04999511 0.54117647 0.42352941 0.64313725
v 0.00750048 -0.00994923 0.00006437 0.54117647 0.42352941 0.64313725
v 0.02511413 -0.00994923 0.00006437 0.54117647 0.42352941 0.64313725
v 0.02511413 -0.00994923 0.04999511 0.54117647 0.42352941 0.64313725
v 0.00703754 -0.00965789 0.04999511 0.54117647 0.42352941 0.64313725
v 0.00703754 -0.00965789 0.00006437 0.54117647 0.42352941 0.64313725
v 0.02529970 -0.00983349 0.00006437 0.54117647 0.42352941 0.64313725
v 0.02557906 -0.00965789 0.04999511 0.54117647 0.42352941 0.64313725
v 0.00665043 -0.00927078 0.04999511 0.54117647 0.42352941 0.64313725
v 0.00665043 -0.00927078 0.00006437 0.54117647 0.42352941 0.64313725
v 0.02557906 -0.00965789 0.00006437 0.54117647 0.42352941 0.64313725
v 0.02596617 -0.00927078 0.04999511 0.54117647 0.42352941 0.64313725
v 0.00635909 -0.00880584 0.04999511 0.54117647 0.42352941 0.64313725
v 0.00635909 -0.00880584 0.00006437 0.54117647 0.42352941 0.64313725
v 0.02596617 -0.00927078 0.00006437 0.54117647 0.42352941 0.64313725
v 0.02625751 -0.00880584 0.04999511 0.54117647 0.42352941 0.64313725
v 0.00617751 -0.00828903 0.04999511 0.54117647 0.42352941 0.64313725
v 0.00617751 -0.00828903 0.00006437 0.54117647 0.42352941 0.64313725
v 0.02625751 -0.00880584 0.00006437 0.54117647 0.42352941 0.64313725
v 0.02643909 -0.00828903 0.04999511 0.54117647 0.42352941 0.64313725
v 0.00611565 -0.00774627 0.04999511 0.54117647 0.42352941 0.64313725
v 0.00611565 -0.00774627 0.00006437 0.54117647 0.42352941 0.64313725
v 0.02643909 -0.00828903 0.00006437 0.54117647 0.42352941 0.64313725
v 0.02650095 -0.00774627 0.04999511 0.54117647 0.42352941 0.64313725
v 0.00611565 0.00774627 0.04999511 0.54117647 0.42352941 0.64313725
v 0.00611565 0.00774627 0.00006437 0.54117647 0.42352941 0.64313725
v 0.02650095 -0.00774627 0.00006437 0.54117647 0.42352941 0.64313725
v 0.02650095 0.00774627 0.04999511 0.54117647 0.42352941 0.64313725
v 0.00617751 0.00828903 0.04999511 0.54117647 0.42352941 0.64313725
v 0.00617751 0.00828903 0.00006437 0.54117647 0.42352941 0.64313725
v 0.02650095 0.00774627 0.00006437 0.54117647 0.42352941 0.64313725
v 0.02643909 0.00828903 0.04999511 0.54117647 0.42352941 0.64313725
v 0.00635909 0.00880584 0.04999511 0.54117647 0.42352941 0.64313725
v 0.00635909 0.00880584 0.00006437 0.54117647 0.42352941 0.64313725
v 0.02643909 0.00828903 0.00006437 0.54117647 0.42352941 0.64313725
v 0.02625751 0.00880584 0.04999511 0.54117647 0.42352941 0.64313725
v 0.02636726 0.00849655 0.00006437 0.54117647 0.42352941 0.64313725
v 0.00665043 0.00927078 0.04999511 0.54117647 0.42352941 0.64313725
v 0.00665043 0.00927078 0.00006437 0.54117647 0.42352941 0.64313725
v 0.02596617 0.00927078 0.04999511 0.54117647 0.42352941 0.64313725
v 0.02625751 0.00880584 0.00006437 0.54117647 0.42352941 0.64313725
v 0.02614177 0.00899142 0.00006437 0.54117647 0.42352941 0.64313725
v 0.00703754 0.00965789 0.04999511 0.54117647 0.42352941 0.64313725
v 0.00703754 0.00965789 0.00006437 0.54117647 0.42352941 0.64313725
v 0.02557906 0.00965789 0.04999511 0.54117647 0.42352941 0.64313725
v 0.02596617 0.00927078 0.00006437 0.54117647 0.42352941 0.64313725
v 0.00750048 0.00994923 0.04999511 0.54117647 0.42352941 0.64313725
v 0.00750048 0.00994923 0.00006437 0.54117647 0.42352941 0.64313725
v 0.02511413 0.00994923 0.04999511 0.54117647 0.42352941 0.64313725
v 0.02557906 0.00965789 0.00006437 0.54117647 0.42352941 0.64313725
v 0.00801929 0.01013081 0.04999511 0.54117647 0.42352941 0.64313725
v 0.00801929 0.01013081 0.00006437 0.54117647 0.42352941 0.64313725
v 0.02459731 0.01013081 0.04999511 0.54117647 0.42352941 0.64313725
v 0.02511413 0.00994923 0.00006437 0.54117647 0.42352941 0.64313725
v 0.00856205 0.01019267 0.04999511 0.54117647 0.42352941 0.64313725
v 0.00856205 0.01019267 0.00006437 0.54117647 0.42352941 0.64313725
v 0.02405455 0.01019267 0.04999511 0.54117647 0.42352941 0.64313725
v 0.02459731 0.01013081 0.00006437 0.54117647 0.42352941 0.64313725
v 0.02405455 0.01019267 0.00006437 0.54117647 0.42352941 0.64313725
f 73 74 78
f 73 78 75
f 73 75 76
f 73 76 80
f 73 80 84
f 73 84 88
f 73 88 92
f 73 92 96
f 73 96 100
f 73 100 104
f 73 104 108
f 73 108 112
f 73 112 116
f 73 116 121
f 73 121 126
f 73 126 130
f 73 130 134
f 73 134 138
f 73 138 141
f 73 141 140
f 73 140 136
f 73 136 132
f 73 132 128
f 73 128 124
f 73 124 123
f 73 123 119
f 73 119 117
f 73 117 113
f 73 113 109
f 73 109 105
f 73 105 101
f 73 101 97
f 73 97 93
f 73 93 89
f 73 89 85
f 73 85 81
f 73 81 77
f 73 77 74
f 74 77 82
f 74 82 78
f 75 78 82
f 75 82 86
f 75 86 90
f 75 90 94
f 75 94 98
f 75 98 102
f 75 102 106
f 75 106 110
f 75 110 114
f 75 114 118
f 75 118 122
f 75 122 127
f 75 127 131
f 75 131 135
f 75 135 139
f 75 139 137
f 75 137 133
f 75 133 129
f 75 129 125
f 75 125 120
f 75 120 115
f 75 115 111
f 75 111 107
f 75 107 103
f 75 103 99
f 75 99 95
f 75 95 91
f 75 91 87
f 75 87 83
f 75 83 79
f 75 79 80
f 75 80 76
f 77 81 82
f 79 83 80
f 80 83 84
f 81 85 86
f 81 86 82
f 83 87 88
f 83 88 84
f 85 89 86
f 86 89 90
f 87 91 92
f 87 92 88
f 89 93 90
f 90 93 97
f 90 97 94
f 91 95 96
f 91 96 92
f 94 97 101
f 94 101 98
f 95 99 100
f 95 100 96
f 98 101 105
f 98 105 102
f 99 103 104
f 99 104 100
f 102 105 109
f 102 109 106
f 103 107 108
f 103 108 104
f 106 109 113
f 106 113 110
f 107 111 112
f 107 112 108
f 110 113 117
f 110 117 114
f 111 115 116
f 111 116 112
f 114 117 119
f 114 119 118
f 115 120 121
f 115 121 116
f 118 119 123
f 118 123 124
f 118 124 122
f 120 125 126
f 120 126 121
f 122 124 128
f 122 128 132
f 122 132 127
f 125 129 130
f 125 130 126
f 127 132 136
f 127 136 131
f 129 133 134
f 129 134 130
f 131 136 140
f 131 140 135
f 133 137 138
f 133 138 134
f 135 140 141
f 135 141 139
f 137 139 141
f 137 141 138

o geometry_2
v -0.00611555 0.00774627 0.04999511 0.43529412 0.89019608 0.96078431
v -0.00611555 -0.00774627 0.04999511 0.43529412 0.89019608 0.96078431
v -0.00611555 0.00774627 0.00006437 0.43529412 0.89019608 0.96078431
v -0.00617741 0.00828903 0.04999511 0.43529412 0.89019608 0.96078431
v -0.00617741 -0.00828903 0.04999511 0.43529412 0.89019608 0.96078431
v -0.00617741 -0.00829102 0.00006437 0.43529412 0.89019608 0.96078431
v -0.00611755 -0.00774627 0.00006437 0.43529412 0.89019608 0.96078431
v -0.00611555 0.00772632 0.00006437 0.43529412 0.89019608 0.96078431
v -0.00617741 0.00828903 0.00006437 0.43529412 0.89019608 0.96078431
v -0.00635899 0.00880584 0.04999511 0.43529412 0.89019608 0.96078431
v -0.00635899 -0.00880584 0.04999511 0.43529412 0.89019608 0.96078431
v -0.00635899 -0.00880784 0.00006437 0.43529412 0.89019608 0.96078431
v -0.00635899 0.00880584 0.00006437 0.43529412 0.89019608 0.96078431
v -0.00665033 0.00927078 0.04999511 0.43529412 0.89019608 0.96078431
v -0.00665033 -0.00927078 0.04999511 0.43529412 0.89019608 0.96078431
v -0.00665033 -0.00927078 0.00006437 0.43529412 0.89019608 0.96078431
v -0.00665033 0.00927078 0.00006437 0.43529412 0.89019608 0.96078431
v -0.00703744 0.00965789 0.04999511 0.43529412 0.89019608 0.96078431
v -0.00703744 -0.00965789 0.04999511 0.43529412 0.89019608 0.96078431
v -0.00703744 -0.00965789 0.00006437 0.43529412 0.89019608 0.96078431
v -0.00703744 0.00965789 0.00006437 0.43529412 0.89019608 0.96078431
v -0.00750238 0.00994923 0.04999511 0.43529412 0.89019608 0.96078431
v -0.00750238 -0.00994923 0.04999511 0.43529412 0.89019608 0.96078431
v -0.00750238 -0.00994923 0.00006437 0.43529412 0.89019608 0.96078431
v -0.00750238 0.00994923 0.00006437 0.43529412 0.89019608 0.96078431
v -0.00801920 0.01013081 0.04999511 0.43529412 0.89019608 0.96078431
v -0.00801920 -0.01013081 0.04999511 0.43529412 0.89019608 0.96078431
v -0.00801920 -0.01013081 0.00006437 0.43529412 0.89019608 0.96078431
v -0.00801920 0.01013081 0.00006437 0.43529412 0.89019608 0.96078431
v -0.00856196 0.01019267 0.04999511 0.43529412 0.89019608 0.96078431
v -0.00856196 -0.01019267 0.04999511 0.43529412 0.89019608 0.96078431
v -0.00856196 -0.01019267 0.00006437 0.43529412 0.89019608 0.96078431
v -0.00856196 0.01019267 0.00006437 0.43529412 0.89019608 0.96078431
v -0.02405454 0.01019267 0.04999511 0.43529412 0.89019608 0.96078431
v -0.02405454 -0.01019267 0.04999511 0.43529412 0.89019608 0.96078431
v -0.02405454 -0.01019267 0.00006437 0.43529412 0.89019608 0.96078431
v -0.02405454 0.01019267 0.00006437 0.43529412 0.89019608 0.96078431
v -0.02459730 0.01013081 0.04999511 0.43529412 0.89019608 0.96078431
v -0.02459730 -0.01013081 0.04999511 0.43529412 0.89019608 0.96078431
v -0.02459730 -0.01013081 0.00006437 0.43529412 0.89019608 0.96078431
v -0.02459730 0.01013081 0.00006437 0.43529412 0.89019608 0.96078431
v -0.02511412 0.00994923 0.04999511 0.43529412 0.89019608 0.96078431
v -0.02480483 0.01005898 0.00006437 0.43529412 0.89019608 0.96078431
v -0.02511412 -0.00994923 0.04999511 0.43529412 0.89019608 0.96078431
v -0.02511412 -0.00994923 0.00006437 0.43529412 0.89019608 0.96078431
v -0.02557906 0.00965789 0.04999511 0.43529412 0.89019608 0.96078431
v -0.02511412 0.00994923 0.00006437 0.43529412 0.89019608 0.96078431
v -0.02529969 0.00983349 0.00006437 0.43529412 0.89019608 0.96078431
v -0.02557906 -0.00965789 0.04999511 0.43529412 0.89019608 0.96078431
v -0.02557906 -0.00965789 0.00006437 0.43529412 0.89019608 0.96078431
v -0.02596617 0.00927078 0.04999511 0.43529412 0.89019608 0.96078431
v -0.02557906 0.00965789 0.00006437 0.43529412 0.89019608 0.96078431
v -0.02596617 -0.00927078 0.04999511 0.43529412 0.89019608 0.96078431
v -0.02596617 -0.00927078 0.00006437 0.43529412 0.89019608 0.96078431
v -0.02625751 0.00880584 0.04999511 0.43529412 0.89019608 0.96078431
v -0.02596617 0.00927078 0.00006437 0.43529412 0.89019608 0.96078431
v -0.02625751 -0.00880584 0.04999511 0.43529412 0.89019608 0.96078431
v -0.02614177 -0.00899142 0.00006437 0.43529412 0.89019608 0.96078431
v -0.02643909 0.00828903 0.04999511 0.43529412 0.89019608 0.96078431
v -0.02625751 0.00880584 0.00006437 0.43529412 0.89019608 0.96078431
v -0.02643909 -0.00828903 0.04999511 0.43529412 0.89019608 0.96078431
v -0.02636725 -0.00849655 0.00006437 0.43529412 0.89019608 0.96078431
v -0.02625751 -0.00880584 0.00006437 0.43529412 0.89019608 0.96078431
v -0.02650095 0.00774627 0.04999511 0.43529412 0.89019608 0.96078431
v -0.02643909 0.00828903 0.00006437 0.43529412 0.89019608 0.96078431
v -0.02650095 -0.00774627 0.04999511 0.43529412 0.89019608 0.96078431
v -0.02643909 -0.00828903 0.00006437 0.43529412 0.89019608 0.96078431
v -0.02650095 0.00774627 0.00006437 0.43529412 0.89019608 0.96078431
v -0.02650095 -0.00774627 0.00006437 0.43529412 0.89019608 0.96078431
f 142 143 149
f 142 149 144
f 142 144 150
f 142 150 145
f 142 145 151
f 142 151 155
f 142 155 159
f 142 159 163
f 142 163 167
f 142 167 171
f 142 171 175
f 142 175 179
f 142 179 183
f 142 183 187
f 142 187 192
f 142 192 196
f 142 196 200
f 142 200 205
f 142 205 207
f 142 207 202
f 142 202 198
f 142 198 194
f 142 194 190
f 142 190 185
f 142 185 180
f 142 180 176
f 142 176 172
f 142 172 168
f 142 168 164
f 142 164 160
f 142 160 156
f 142 156 152
f 142 152 146
f 142 146 143
f 143 146 147
f 143 147 148
f 143 148 149
f 144 149 148
f 144 148 147
f 144 147 153
f 144 153 157
f 144 157 161
f 144 161 165
f 144 165 169
f 144 169 173
f 144 173 177
f 144 177 181
f 144 181 186
f 144 186 191
f 144 191 195
f 144 195 199
f 144 199 204
f 144 204 203
f 144 203 208
f 144 208 210
f 144 210 209
f 144 209 206
f 144 206 201
f 144 201 197
f 144 197 193
f 144 193 189
f 144 189 188
f 144 188 184
f 144 184 182
f 144 182 178
f 144 178 174
f 144 174 170
f 144 170 166
f 144 166 162
f 144 162 158
f 144 158 154
f 144 154 150
f 145 150 154
f 145 154 151
f 146 152 153
f 146 153 147
f 151 154 158
f 151 158 155
f 152 156 153
f 153 156 157
f 155 158 162
f 155 162 159
f 156 160 161
f 156 161 157
f 159 162 166
f 159 166 163
f 160 164 165
f 160 165 161
f 163 166 170
f 163 170 167
f 164 168 169
f 164 169 165
f 167 170 174
f 167 174 171
f 168 172 173
f 168 173 169
f 171 174 178
f 171 178 175
f 172 176 177
f 172 177 173
f 175 178 182
f 175 182 179
f 176 180 181
f 176 181 177
f 179 182 184
f 179 184 183
f 180 185 186
f 180 186 181
f 183 184 188
f 183 188 189
f 183 189 187
f 185 190 191
f 185 191 186
f 187 189 193
f 187 193 197
f 187 197 192
f 190 194 195
f 190 195 191
f 192 197 201
f 192 201 196
f 194 198 199
f 194 199 195
f 196 201 206
f 196 206 200
f 198 202 203
f 198 203 204
f 198 204 199
f 200 206 209
f 200 209 205
f 202 207 210
f 202 210 208
f 202 208 203
f 205 209 210
f 205 210 207