# https://github.com/mikedh/trimesh
v -0.02291570 -0.01377170 -0.07500000
v -0.02337170 -0.01331570 -0.07500000
v -0.02371480 -0.01276960 -0.07500000
v -0.02236960 -0.01411480 -0.07500000
v -0.02176090 -0.01432780 -0.07500000
v -0.02112000 -0.01440000 -0.07500000
v -0.02392780 -0.01216090 -0.07500000
v -0.02400000 -0.01152000 -0.07500000
v -0.01801120 -0.01440000 -0.07500000
v -0.01733960 -0.01432060 -0.07500000
v -0.01670500 -0.01408670 -0.07500000
v -0.01614240 -0.01371140 -0.07500000
v -0.01568290 -0.01321510 -0.07500000
v -0.01535180 -0.01262540 -0.07500000
v -0.01516730 -0.01197470 -0.07500000
v -0.01460200 -0.00963430 -0.07500000
v -0.01367780 -0.00741100 -0.07500000
v -0.01241760 -0.00535940 -0.07500000
v -0.01085220 -0.00352990 -0.07500000
v -0.00902020 -0.00196760 -0.07500000
v -0.00696650 -0.00071070 -0.07500000
v -0.02291570 -0.01377170 0.02500000
v -0.02337170 -0.01331570 0.02500000
v -0.02371480 -0.01276960 0.02500000
v -0.02236960 -0.01411480 0.02500000
v -0.02176090 -0.01432780 0.02500000
v -0.02112000 -0.01440000 0.02500000
v -0.02392780 -0.01216090 0.02500000
v -0.02400000 -0.01152000 0.02500000
v -0.01801120 -0.01440000 0.02500000
v -0.01733960 -0.01432060 0.02500000
v -0.01670500 -0.01408670 0.02500000
v -0.01614240 -0.01371140 0.02500000
v -0.01568290 -0.01321510 0.02500000
v -0.01535180 -0.01262540 0.02500000
v -0.01516730 -0.01197470 0.02500000
v -0.01460200 -0.00963430 0.02500000
v -0.01367780 -0.00741100 0.02500000
v -0.01241760 -0.00535940 0.02500000
v -0.01085220 -0.00352990 0.02500000
v -0.00902020 -0.00196760 0.02500000
v -0.00696650 -0.00071070 0.02500000
v -0.02400000 0.01152000 -0.07500000
v -0.02392780 0.01216090 -0.07500000
v -0.02371480 0.01276960 -0.07500000
v -0.02337170 0.01331570 -0.07500000
v -0.02291570 0.01377170 -0.07500000
v -0.02236960 0.01411480 -0.07500000
v -0.02176090 0.01432780 -0.07500000
v -0.02112000 0.01440000 -0.07500000
v -0.00474170 0.00020980 -0.07500000
v -0.00240030 0.00077130 -0.07500000
v -0.02400000 0.01152000 0.02500000
v -0.02392780 0.01216090 0.02500000
v -0.02371480 0.01276960 0.02500000
v -0.02337170 0.01331570 0.02500000
v -0.02291570 0.01377170 0.02500000
v -0.02236960 0.01411480 0.02500000
v -0.02176090 0.01432780 0.02500000
v -0.02112000 0.01440000 0.02500000
v -0.00474170 0.00020980 0.02500000
v -0.00240030 0.00077130 0.02500000
v 0.00696650 -0.00071070 -0.07500000
v 0.00902020 -0.00196760 -0.07500000
v 0.01085220 -0.00352990 -0.07500000
v 0.01614240 -0.01371140 -0.07500000
v 0.01568290 -0.01321510 -0.07500000
v 0.01535180 -0.01262540 -0.07500000
v 0.01670500 -0.01408670 -0.07500000
v 0.01733960 -0.01432060 -0.07500000
v 0.01516730 -0.01197470 -0.07500000
v 0.01460200 -0.00963430 -0.07500000
v 0.01367780 -0.00741100 -0.07500000
v 0.01801120 -0.01440000 -0.07500000
v 0.02112000 -0.01440000 -0.07500000
v 0.02176090 -0.01432780 -0.07500000
v 0.02236960 -0.01411480 -0.07500000
v 0.02291570 -0.01377170 -0.07500000
v 0.02337170 -0.01331570 -0.07500000
v 0.02371480 -0.01276960 -0.07500000
v 0.02392780 -0.01216090 -0.07500000
v 0.02400000 -0.01152000 -0.07500000
v 0.01241760 -0.00535940 -0.07500000
v 0.00696650 -0.00071070 0.02500000
v 0.00902020 -0.00196760 0.02500000
v 0.01085220 -0.00352990 0.02500000
v 0.01614240 -0.01371140 0.02500000
v 0.01568290 -0.01321510 0.02500000
v 0.01535180 -0.01262540 0.02500000
v 0.01670500 -0.01408670 0.02500000
v 0.01733960 -0.01432060 0.02500000
v 0.01516730 -0.01197470 0.02500000
v 0.01460200 -0.00963430 0.02500000
v 0.01367780 -0.00741100 0.02500000
v 0.01801120 -0.01440000 0.02500000
v 0.02112000 -0.01440000 0.02500000
v 0.02176090 -0.01432780 0.02500000
v 0.02236960 -0.01411480 0.02500000
v 0.02291570 -0.01377170 0.02500000
v 0.02337170 -0.01331570 0.02500000
v 0.02371480 -0.01276960 0.02500000
v 0.02392780 -0.01216090 0.02500000
v 0.02400000 -0.01152000 0.02500000
v 0.01241760 -0.00535940 0.02500000
v 0.00000000 0.00096000 -0.07500000
v 0.00240030 0.00077130 -0.07500000
v 0.00474170 0.00020980 -0.07500000
v 0.02400000 0.01152000 -0.07500000
v 0.02392780 0.01216090 -0.07500000
v 0.02112000 0.01440000 -0.07500000
v 0.02176090 0.01432780 -0.07500000
v 0.02236960 0.01411480 -0.07500000
v 0.02371480 0.01276960 -0.07500000
v 0.02337170 0.01331570 -0.07500000
v 0.02291570 0.01377170 -0.07500000
v 0.00000000 0.00096000 0.02500000
v 0.00240030 0.00077130 0.02500000
v 0.00474170 0.00020980 0.02500000
v 0.02400000 0.01152000 0.02500000
v 0.02392780 0.01216090 0.02500000
v 0.02112000 0.01440000 0.02500000
v 0.02176090 0.01432780 0.02500000
v 0.02236960 0.01411480 0.02500000
v 0.02371480 0.01276960 0.02500000
v 0.02337170 0.01331570 0.02500000
v 0.02291570 0.01377170 0.02500000
f 1 2 4
f 2 8 6
f 4 6 5
f 2 6 4
f 6 8 9
f 2 3 8
f 3 7 8
f 8 15 9
f 9 12 10
f 10 12 11
f 9 14 12
f 9 15 14
f 12 14 13
f 8 16 15
f 8 17 16
f 8 18 17
f 1 4 22
f 2 24 3
f 1 23 2
f 4 5 25
f 5 6 26
f 3 28 7
f 7 29 8
f 6 9 27
f 9 10 30
f 10 11 31
f 11 12 32
f 12 13 33
f 13 14 34
f 14 15 35
f 15 16 36
f 16 17 37
f 8 43 18
f 17 18 38
f 18 19 39
f 19 20 40
f 20 21 41
f 21 51 42
f 4 25 22
f 1 22 23
f 2 23 24
f 5 26 25
f 6 27 26
f 3 24 28
f 7 28 29
f 9 30 27
f 10 31 30
f 11 32 31
f 12 33 32
f 13 34 33
f 14 35 34
f 15 36 35
f 16 37 36
f 17 38 37
f 8 29 53
f 18 39 38
f 19 40 39
f 20 41 40
f 21 42 41
f 51 61 42
f 18 43 19
f 19 43 20
f 20 50 21
f 8 53 43
f 20 43 50
f 43 44 46
f 44 45 46
f 43 46 47
f 43 47 48
f 43 48 50
f 48 49 50
f 43 54 44
f 44 55 45
f 45 56 46
f 46 57 47
f 47 58 48
f 48 59 49
f 49 60 50
f 21 50 51
f 50 52 51
f 50 105 52
f 51 52 61
f 52 105 62
f 43 53 54
f 44 54 55
f 45 55 56
f 46 56 57
f 47 57 58
f 48 58 59
f 49 59 60
f 52 62 61
f 105 116 62
f 50 60 121
f 63 118 107
f 65 83 86
f 63 64 84
f 64 65 85
f 66 67 70
f 67 68 71
f 67 71 70
f 66 70 69
f 70 71 74
f 71 72 82
f 72 73 82
f 73 83 82
f 71 82 74
f 75 77 76
f 75 78 77
f 74 82 75
f 75 81 78
f 75 82 81
f 78 81 79
f 79 81 80
f 66 69 87
f 67 89 68
f 66 88 67
f 69 70 90
f 70 74 91
f 68 92 71
f 71 93 72
f 72 94 73
f 74 75 95
f 75 76 96
f 76 77 97
f 77 78 98
f 78 79 99
f 79 80 100
f 80 81 101
f 81 82 102
f 82 83 108
f 73 104 83
f 83 104 86
f 63 84 118
f 64 85 84
f 65 86 85
f 71 92 93
f 66 87 88
f 67 88 89
f 69 90 87
f 70 91 90
f 74 95 91
f 68 89 92
f 72 93 94
f 75 96 95
f 76 97 96
f 77 98 97
f 78 99 98
f 79 100 99
f 80 101 100
f 81 102 101
f 82 103 102
f 73 94 104
f 82 119 103
f 105 110 106
f 106 110 107
f 63 107 110
f 105 106 116
f 106 107 117
f 50 110 105
f 50 121 110
f 64 108 65
f 65 108 83
f 63 110 64
f 82 108 119
f 64 110 108
f 108 114 109
f 110 111 115
f 111 112 115
f 108 110 115
f 108 115 114
f 109 114 113
f 108 109 119
f 109 113 120
f 110 122 111
f 111 123 112
f 114 115 125
f 113 114 124
f 112 126 115
f 106 117 116
f 107 118 117
f 109 120 119
f 113 124 120
f 110 121 122
f 111 122 123
f 114 125 124
f 115 126 125
f 112 123 126
f 25 26 37
f 27 30 35
f 26 27 37
f 22 37 23
f 23 37 24
f 25 37 22
f 24 37 28
f 28 37 29
f 30 31 35
f 27 35 36
f 32 35 31
f 33 34 32
f 34 35 32
f 27 36 37
f 53 29 37
f 38 53 37
f 53 38 39
f 39 54 53
f 39 55 54
f 39 56 55
f 39 40 60
f 41 60 40
f 41 42 60
f 39 57 56
f 39 58 57
f 39 59 58
f 39 60 59
f 61 60 42
f 61 121 60
f 87 91 88
f 88 95 89
f 89 95 92
f 87 90 91
f 95 88 91
f 93 95 96
f 92 95 93
f 93 103 94
f 93 96 97
f 93 97 98
f 93 98 99
f 93 99 100
f 93 100 101
f 93 101 102
f 93 102 103
f 94 119 104
f 94 103 119
f 62 121 61
f 116 121 62
f 117 126 116
f 118 126 117
f 118 84 126
f 85 119 84
f 86 119 85
f 104 119 86
f 121 116 122
f 122 116 123
f 84 125 126
f 123 116 126
f 84 119 120
f 84 120 124
f 84 124 125