# https://github.com/mikedh/trimesh
v -0.02291570 -0.01377170 0.02500000
v -0.02337170 -0.01331570 0.02500000
v -0.02371480 -0.01276960 0.02500000
v -0.02236960 -0.01411480 0.02500000
v -0.02176090 -0.01432780 0.02500000
v -0.02112000 -0.01440000 0.02500000
v -0.02392780 -0.01216090 0.02500000
v -0.02400000 -0.01152000 0.02500000
v -0.01801120 -0.01440000 0.02500000
v -0.01733960 -0.01432060 0.02500000
v -0.01670500 -0.01408670 0.02500000
v -0.01614240 -0.01371140 0.02500000
v -0.01568290 -0.01321510 0.02500000
v -0.01535180 -0.01262540 0.02500000
v -0.01516730 -0.01197470 0.02500000
v -0.01460200 -0.00963430 0.02500000
v -0.01367780 -0.00741100 0.02500000
v -0.01241760 -0.00535940 0.02500000
v -0.01085220 -0.00352990 0.02500000
v -0.00902020 -0.00196760 0.02500000
v -0.00696650 -0.00071070 0.02500000
v -0.02291570 -0.01377170 0.07500000
v -0.02337170 -0.01331570 0.07500000
v -0.02371480 -0.01276960 0.07500000
v -0.02236960 -0.01411480 0.07500000
v -0.02176090 -0.01432780 0.07500000
v -0.02112000 -0.01440000 0.07500000
v -0.02392780 -0.01216090 0.07500000
v -0.02400000 -0.01152000 0.07500000
v -0.01801120 -0.01440000 0.07500000
v -0.01733960 -0.01432060 0.07500000
v -0.01670500 -0.01408670 0.07500000
v -0.01614240 -0.01371140 0.07500000
v -0.01568290 -0.01321510 0.07500000
v -0.01535180 -0.01262540 0.07500000
v -0.01516730 -0.01197470 0.07500000
v -0.01460200 -0.00963430 0.07500000
v -0.01367780 -0.00741100 0.07500000
v -0.01241760 -0.00535940 0.07500000
v -0.01085220 -0.00352990 0.07500000
v -0.00902020 -0.00196760 0.07500000
v -0.00696650 -0.00071070 0.07500000
v -0.02400000 0.01152000 0.02500000
v -0.02392780 0.01216090 0.02500000
v -0.02371480 0.01276960 0.02500000
v -0.02337170 0.01331570 0.02500000
v -0.02291570 0.01377170 0.02500000
v -0.02236960 0.01411480 0.02500000
v -0.02176090 0.01432780 0.02500000
v -0.02112000 0.01440000 0.02500000
v -0.00474170 0.00020980 0.02500000
v -0.00240030 0.00077130 0.02500000
v -0.02400000 0.01152000 0.07500000
v -0.02392780 0.01216090 0.07500000
v -0.02371480 0.01276960 0.07500000
v -0.02337170 0.01331570 0.07500000
v -0.02291570 0.01377170 0.07500000
v -0.02236960 0.01411480 0.07500000
v -0.02176090 0.01432780 0.07500000
v -0.02112000 0.01440000 0.07500000
v -0.00474170 0.00020980 0.07500000
v -0.00240030 0.00077130 0.07500000
v 0.00696650 -0.00071070 0.02500000
v 0.00902020 -0.00196760 0.02500000
v 0.01085220 -0.00352990 0.02500000
v 0.01614240 -0.01371140 0.02500000
v 0.01568290 -0.01321510 0.02500000
v 0.01535180 -0.01262540 0.02500000
v 0.01670500 -0.01408670 0.02500000
v 0.01733960 -0.01432060 0.02500000
v 0.01516730 -0.01197470 0.02500000
v 0.01460200 -0.00963430 0.02500000
v 0.01367780 -0.00741100 0.02500000
v 0.01801120 -0.01440000 0.02500000
v 0.02112000 -0.01440000 0.02500000
v 0.02176090 -0.01432780 0.02500000
v 0.02236960 -0.01411480 0.02500000
v 0.02291570 -0.01377170 0.02500000
v 0.02337170 -0.01331570 0.02500000
v 0.02371480 -0.01276960 0.02500000
v 0.02392780 -0.01216090 0.02500000
v 0.02400000 -0.01152000 0.02500000
v 0.01241760 -0.00535940 0.02500000
v 0.00696650 -0.00071070 0.07500000
v 0.00902020 -0.00196760 0.07500000
v 0.01085220 -0.00352990 0.07500000
v 0.01614240 -0.01371140 0.07500000
v 0.01568290 -0.01321510 0.07500000
v 0.01535180 -0.01262540 0.07500000
v 0.01670500 -0.01408670 0.07500000
v 0.01733960 -0.01432060 0.07500000
v 0.01516730 -0.01197470 0.07500000
v 0.01460200 -0.00963430 0.07500000
v 0.01367780 -0.00741100 0.07500000
v 0.01801120 -0.01440000 0.07500000
v 0.02112000 -0.01440000 0.07500000
v 0.02176090 -0.01432780 0.07500000
v 0.02236960 -0.01411480 0.07500000
v 0.02291570 -0.01377170 0.07500000
v 0.02337170 -0.01331570 0.07500000
v 0.02371480 -0.01276960 0.07500000
v 0.02392780 -0.01216090 0.07500000
v 0.02400000 -0.01152000 0.07500000
v 0.01241760 -0.00535940 0.07500000
v 0.00000000 0.00096000 0.02500000
v 0.00240030 0.00077130 0.02500000
v 0.00474170 0.00020980 0.02500000
v 0.02400000 0.01152000 0.02500000
v 0.02392780 0.01216090 0.02500000
v 0.02112000 0.01440000 0.02500000
v 0.02176090 0.01432780 0.02500000
v 0.02236960 0.01411480 0.02500000
v 0.02371480 0.01276960 0.02500000
v 0.02337170 0.01331570 0.02500000
v 0.02291570 0.01377170 0.02500000
v 0.00000000 0.00096000 0.07500000
v 0.00240030 0.00077130 0.07500000
v 0.00474170 0.00020980 0.07500000
v 0.02400000 0.01152000 0.07500000
v 0.02392780 0.01216090 0.07500000
v 0.02112000 0.01440000 0.07500000
v 0.02176090 0.01432780 0.07500000
v 0.02236960 0.01411480 0.07500000
v 0.02371480 0.01276960 0.07500000
v 0.02337170 0.01331570 0.07500000
v 0.02291570 0.01377170 0.07500000
f 22 1 4
f 24 3 2
f 23 2 1
f 25 4 5
f 26 5 6
f 28 7 3
f 29 8 7
f 27 6 9
f 30 9 10
f 31 10 11
f 32 11 12
f 33 12 13
f 34 13 14
f 35 14 15
f 36 15 16
f 37 16 17
f 38 17 18
f 39 18 19
f 40 19 20
f 41 20 21
f 42 21 51
f 22 4 25
f 22 23 1
f 23 24 2
f 25 5 26
f 26 6 27
f 24 28 3
f 28 29 7
f 27 9 30
f 30 10 31
f 31 11 32
f 32 12 33
f 33 13 34
f 34 14 35
f 35 15 36
f 36 16 37
f 37 17 38
f 22 25 23
f 23 27 29
f 25 26 27
f 23 25 27
f 27 30 29
f 23 29 24
f 24 29 28
f 29 30 36
f 30 31 33
f 31 32 33
f 30 33 35
f 30 35 36
f 33 34 35
f 29 36 37
f 29 37 38
f 29 38 39
f 29 53 8
f 38 18 39
f 29 39 53
f 39 19 40
f 40 20 41
f 41 21 42
f 42 51 61
f 53 43 8
f 54 44 43
f 55 45 44
f 56 46 45
f 57 47 46
f 58 48 47
f 59 49 48
f 60 50 49
f 61 51 52
f 62 52 105
f 39 40 53
f 40 41 53
f 41 42 60
f 53 54 43
f 54 55 44
f 55 56 45
f 56 57 46
f 57 58 47
f 58 59 48
f 59 60 49
f 41 60 53
f 53 56 54
f 54 56 55
f 53 57 56
f 53 58 57
f 53 60 58
f 58 60 59
f 61 52 62
f 62 105 116
f 42 61 60
f 60 61 62
f 60 62 116
f 60 121 50
f 118 107 63
f 86 65 83
f 84 63 64
f 85 64 65
f 87 66 69
f 89 68 67
f 88 67 66
f 90 69 70
f 91 70 74
f 92 71 68
f 93 72 71
f 94 73 72
f 95 74 75
f 96 75 76
f 97 76 77
f 98 77 78
f 99 78 79
f 100 79 80
f 101 80 81
f 102 81 82
f 104 83 73
f 103 82 108
f 86 83 104
f 84 118 63
f 84 64 85
f 85 65 86
f 92 93 71
f 87 88 66
f 88 89 67
f 87 69 90
f 90 70 91
f 91 74 95
f 89 92 68
f 93 94 72
f 95 75 96
f 96 76 97
f 97 77 98
f 98 78 99
f 99 79 100
f 100 80 101
f 101 81 102
f 102 82 103
f 87 91 88
f 88 92 89
f 88 91 92
f 87 90 91
f 91 95 92
f 92 103 93
f 93 103 94
f 94 103 104
f 92 95 103
f 96 97 98
f 96 98 99
f 95 96 103
f 96 99 102
f 96 102 103
f 99 100 102
f 100 101 102
f 94 104 73
f 103 119 104
f 116 105 106
f 117 106 107
f 121 110 50
f 119 108 109
f 120 109 113
f 122 111 110
f 123 112 111
f 125 114 115
f 124 113 114
f 126 115 112
f 116 106 117
f 117 107 118
f 116 117 121
f 117 118 121
f 84 121 118
f 60 116 121
f 103 108 119
f 85 86 119
f 86 104 119
f 84 85 121
f 119 109 120
f 120 113 124
f 121 122 110
f 122 123 111
f 124 114 125
f 125 115 126
f 123 126 112
f 85 119 121
f 119 120 125
f 121 126 122
f 122 126 123
f 119 126 121
f 119 125 126
f 120 124 125
f 2 8 1
f 1 8 4
f 4 8 5
f 6 5 8
f 9 6 8
f 3 8 2
f 7 8 3
f 10 9 8
f 8 11 10
f 11 8 12
f 12 8 13
f 14 13 8
f 8 15 14
f 15 8 16
f 8 17 16
f 17 8 18
f 8 43 18
f 19 18 43
f 19 43 20
f 20 47 21
f 20 43 44
f 20 44 45
f 20 45 46
f 20 46 47
f 48 50 47
f 49 50 48
f 50 105 47
f 21 47 51
f 51 47 52
f 52 47 105
f 105 50 106
f 50 107 106
f 66 70 69
f 66 74 70
f 67 75 66
f 71 75 68
f 68 75 67
f 72 75 71
f 74 66 75
f 72 76 75
f 76 72 77
f 77 72 78
f 78 72 79
f 79 72 80
f 80 72 81
f 81 72 82
f 73 108 72
f 83 108 73
f 82 72 108
f 63 107 110
f 50 110 107
f 63 108 64
f 64 108 65
f 65 108 83
f 63 115 114
f 63 110 111
f 63 111 112
f 63 112 115
f 63 109 108
f 63 113 109
f 63 114 113