# https://github.com/mikedh/trimesh
v -0.01417930 -0.01977980 0.05000000
v -0.01374930 -0.02027610 0.05000000
v -0.01448570 -0.01919910 0.05000000
v -0.01465260 -0.01856410 0.05000000
v -0.01467130 -0.01790780 0.05000000
v -0.01454100 -0.01726430 0.05000000
v -0.01321810 -0.02066200 0.05000000
v -0.01261330 -0.02091760 0.05000000
v -0.01196630 -0.02102950 0.05000000
v -0.01131080 -0.02099210 0.05000000
v -0.01068080 -0.02080710 0.05000000
v -0.01010910 -0.02048420 0.05000000
v -0.01067960 -0.00538030 0.05000000
v -0.01417930 -0.01977980 0.07500000
v -0.01374930 -0.02027610 0.07500000
v -0.01448570 -0.01919910 0.07500000
v -0.01465260 -0.01856410 0.07500000
v -0.01467130 -0.01790780 0.07500000
v -0.01454100 -0.01726430 0.07500000
v -0.01321810 -0.02066200 0.07500000
v -0.01261330 -0.02091760 0.07500000
v -0.01196630 -0.02102950 0.07500000
v -0.01131080 -0.02099210 0.07500000
v -0.01068080 -0.02080710 0.07500000
v -0.01010910 -0.02048420 0.07500000
v -0.01067960 -0.00538030 0.07500000
v -0.02078870 0.00196440 0.05000000
v -0.02127250 0.00240830 0.05000000
v -0.02164310 0.00295030 0.05000000
v -0.02188130 0.00356220 0.05000000
v -0.02197470 0.00421210 0.05000000
v -0.02191850 0.00486630 0.05000000
v -0.02171560 0.00549070 0.05000000
v -0.02137660 0.00605300 0.05000000
v -0.02091900 0.00652390 0.05000000
v -0.02036660 0.00687880 0.05000000
v -0.01974820 0.00709950 0.05000000
v -0.01909590 0.00717430 0.05000000
v -0.00660040 0.00717430 0.05000000
v -0.00273900 0.01905830 0.05000000
v -0.00246630 0.01965550 0.05000000
v -0.00206530 0.02017550 0.05000000
v -0.00155700 0.02059110 0.05000000
v -0.00096780 0.02088080 0.05000000
v -0.00032830 0.02102950 0.05000000
v -0.02078870 0.00196440 0.07500000
v -0.02127250 0.00240830 0.07500000
v -0.02164310 0.00295030 0.07500000
v -0.02188130 0.00356220 0.07500000
v -0.02197470 0.00421210 0.07500000
v -0.02191850 0.00486630 0.07500000
v -0.02171560 0.00549070 0.07500000
v -0.02137660 0.00605300 0.07500000
v -0.02091900 0.00652390 0.07500000
v -0.02036660 0.00687880 0.07500000
v -0.01974820 0.00709950 0.07500000
v -0.01909590 0.00717430 0.07500000
v -0.00660040 0.00717430 0.07500000
v -0.00273900 0.01905830 0.07500000
v -0.00246630 0.01965550 0.07500000
v -0.00206530 0.02017550 0.07500000
v -0.00155700 0.02059110 0.07500000
v -0.00096780 0.02088080 0.07500000
v -0.00032830 0.02102950 0.07500000
v 0.00000000 -0.01313950 0.05000000
v 0.01010910 -0.02048420 0.05000000
v 0.01068080 -0.02080710 0.05000000
v 0.01067960 -0.00538030 0.05000000
v 0.01131080 -0.02099210 0.05000000
v 0.01196630 -0.02102950 0.05000000
v 0.01261330 -0.02091760 0.05000000
v 0.01321810 -0.02066200 0.05000000
v 0.01374930 -0.02027610 0.05000000
v 0.01417930 -0.01977980 0.05000000
v 0.01448570 -0.01919910 0.05000000
v 0.01465260 -0.01856410 0.05000000
v 0.01467130 -0.01790780 0.05000000
v 0.01454100 -0.01726430 0.05000000
v 0.00000000 -0.01313950 0.07500000
v 0.01010910 -0.02048420 0.07500000
v 0.01068080 -0.02080710 0.07500000
v 0.01067960 -0.00538030 0.07500000
v 0.01131080 -0.02099210 0.07500000
v 0.01196630 -0.02102950 0.07500000
v 0.01261330 -0.02091760 0.07500000
v 0.01321810 -0.02066200 0.07500000
v 0.01374930 -0.02027610 0.07500000
v 0.01417930 -0.01977980 0.07500000
v 0.01448570 -0.01919910 0.07500000
v 0.01465260 -0.01856410 0.07500000
v 0.01467130 -0.01790780 0.07500000
v 0.01454100 -0.01726430 0.07500000
v 0.00660040 0.00717430 0.05000000
v 0.00032830 0.02102950 0.05000000
v 0.00096780 0.02088080 0.05000000
v 0.00273900 0.01905830 0.05000000
v 0.00246630 0.01965550 0.05000000
v 0.00155700 0.02059110 0.05000000
v 0.00206530 0.02017550 0.05000000
v 0.02078870 0.00196440 0.05000000
v 0.02127250 0.00240830 0.05000000
v 0.02164310 0.00295030 0.05000000
v 0.02188130 0.00356220 0.05000000
v 0.02197470 0.00421210 0.05000000
v 0.02191850 0.00486630 0.05000000
v 0.01909590 0.00717430 0.05000000
v 0.01974820 0.00709950 0.05000000
v 0.02036660 0.00687880 0.05000000
v 0.02091900 0.00652390 0.05000000
v 0.02171560 0.00549070 0.05000000
v 0.02137660 0.00605300 0.05000000
v 0.00660040 0.00717430 0.07500000
v 0.00032830 0.02102950 0.07500000
v 0.00096780 0.02088080 0.07500000
v 0.00273900 0.01905830 0.07500000
v 0.00246630 0.01965550 0.07500000
v 0.00155700 0.02059110 0.07500000
v 0.00206530 0.02017550 0.07500000
v 0.02078870 0.00196440 0.07500000
v 0.02127250 0.00240830 0.07500000
v 0.02164310 0.00295030 0.07500000
v 0.02188130 0.00356220 0.07500000
v 0.02197470 0.00421210 0.07500000
v 0.02191850 0.00486630 0.07500000
v 0.01909590 0.00717430 0.07500000
v 0.01974820 0.00709950 0.07500000
v 0.02036660 0.00687880 0.07500000
v 0.02091900 0.00652390 0.07500000
v 0.02171560 0.00549070 0.07500000
v 0.02137660 0.00605300 0.07500000
f 14 1 2
f 17 4 3
f 16 3 1
f 18 5 4
f 19 6 5
f 15 2 7
f 20 7 8
f 21 8 9
f 22 9 10
f 23 10 11
f 46 27 13
f 26 13 6
f 24 11 12
f 25 12 65
f 14 2 15
f 16 17 3
f 14 16 1
f 17 18 4
f 18 19 5
f 15 7 20
f 20 8 21
f 21 9 22
f 22 10 23
f 19 26 6
f 14 25 16
f 14 15 25
f 16 25 17
f 17 25 18
f 18 25 19
f 15 20 25
f 20 21 25
f 21 22 25
f 22 23 25
f 26 46 13
f 23 11 24
f 24 12 25
f 25 65 79
f 23 24 25
f 19 25 79
f 19 79 26
f 46 28 27
f 48 29 28
f 49 30 29
f 50 31 30
f 51 32 31
f 52 33 32
f 53 34 33
f 54 35 34
f 55 36 35
f 56 37 36
f 57 38 37
f 58 39 38
f 59 40 39
f 60 41 40
f 61 42 41
f 62 43 42
f 63 44 43
f 64 45 44
f 47 48 28
f 46 47 28
f 48 49 29
f 49 50 30
f 50 51 31
f 51 52 32
f 52 53 33
f 53 54 34
f 54 55 35
f 55 56 36
f 56 57 37
f 57 58 38
f 47 49 48
f 47 50 49
f 47 57 50
f 46 57 47
f 26 57 46
f 51 53 52
f 51 54 53
f 50 57 51
f 51 57 54
f 54 56 55
f 54 57 56
f 26 58 57
f 26 112 58
f 58 59 39
f 59 60 40
f 60 61 41
f 61 62 42
f 62 63 43
f 63 64 44
f 64 113 45
f 58 115 59
f 59 62 60
f 60 62 61
f 59 118 62
f 62 114 63
f 63 113 64
f 79 65 66
f 80 66 67
f 81 67 69
f 83 69 70
f 84 70 71
f 85 71 72
f 86 72 73
f 87 73 74
f 88 74 75
f 89 75 76
f 90 76 77
f 91 77 78
f 92 78 68
f 82 68 100
f 79 66 80
f 80 67 81
f 79 80 92
f 80 81 84
f 79 92 82
f 26 79 82
f 26 82 112
f 81 69 83
f 83 70 84
f 84 71 85
f 85 72 86
f 86 73 87
f 87 74 88
f 88 75 89
f 89 76 90
f 90 77 91
f 91 78 92
f 81 83 84
f 80 84 85
f 80 85 87
f 85 86 87
f 80 87 92
f 87 88 92
f 88 89 92
f 89 90 92
f 90 91 92
f 82 92 68
f 82 100 119
f 112 93 96
f 113 94 45
f 114 95 94
f 117 98 95
f 115 96 97
f 118 99 98
f 116 97 99
f 125 106 93
f 119 100 101
f 120 101 102
f 121 102 103
f 122 103 104
f 123 104 105
f 124 105 110
f 126 107 106
f 127 108 107
f 130 111 109
f 129 110 111
f 128 109 108
f 112 125 93
f 112 96 115
f 113 114 94
f 114 117 95
f 115 97 116
f 117 118 98
f 116 99 118
f 58 112 115
f 59 115 118
f 63 114 113
f 62 118 114
f 115 116 118
f 114 118 117
f 119 101 120
f 120 102 121
f 121 103 122
f 122 104 123
f 123 105 124
f 125 126 106
f 126 127 107
f 127 128 108
f 128 130 109
f 129 111 130
f 124 110 129
f 82 119 112
f 112 119 125
f 119 120 122
f 120 121 122
f 119 122 124
f 119 124 126
f 122 123 124
f 119 126 125
f 126 128 127
f 124 128 126
f 124 129 128
f 128 129 130
f 8 12 9
f 9 12 10
f 13 27 28
f 11 10 12
f 3 4 65
f 5 65 4
f 6 65 5
f 2 65 7
f 2 1 65
f 3 65 1
f 7 65 8
f 8 65 12
f 13 65 6
f 28 67 66
f 13 28 65
f 28 29 69
f 29 30 70
f 30 31 71
f 31 32 72
f 32 33 73
f 33 34 73
f 35 73 34
f 36 76 35
f 37 77 36
f 38 78 37
f 65 28 66
f 39 68 38
f 42 43 96
f 28 69 67
f 29 70 69
f 30 71 70
f 31 72 71
f 32 73 72
f 35 74 73
f 35 75 74
f 35 76 75
f 36 77 76
f 37 78 77
f 38 68 78
f 39 40 68
f 42 93 68
f 40 41 68
f 41 42 68
f 42 96 93
f 43 44 96
f 45 96 44
f 45 94 97
f 94 95 98
f 99 94 98
f 45 97 96
f 94 99 97
f 68 93 100
f 100 93 106
f 100 103 101
f 101 103 102
f 100 104 103
f 100 105 104
f 100 108 109
f 100 109 111
f 100 110 105
f 100 111 110
f 100 106 107
f 100 107 108