# https://github.com/mikedh/trimesh
v -0.01417930 -0.01977980 -0.07500000
v -0.01374930 -0.02027610 -0.07500000
v -0.01448570 -0.01919910 -0.07500000
v -0.01465260 -0.01856410 -0.07500000
v -0.01467130 -0.01790780 -0.07500000
v -0.01454100 -0.01726430 -0.07500000
v -0.01321810 -0.02066200 -0.07500000
v -0.01261330 -0.02091760 -0.07500000
v -0.01196630 -0.02102950 -0.07500000
v -0.01131080 -0.02099210 -0.07500000
v -0.01068080 -0.02080710 -0.07500000
v -0.01010910 -0.02048420 -0.07500000
v -0.01067960 -0.00538030 -0.07500000
v -0.01417930 -0.01977980 0.05000000
v -0.01374930 -0.02027610 0.05000000
v -0.01448570 -0.01919910 0.05000000
v -0.01465260 -0.01856410 0.05000000
v -0.01467130 -0.01790780 0.05000000
v -0.01454100 -0.01726430 0.05000000
v -0.01321810 -0.02066200 0.05000000
v -0.01261330 -0.02091760 0.05000000
v -0.01196630 -0.02102950 0.05000000
v -0.01131080 -0.02099210 0.05000000
v -0.01068080 -0.02080710 0.05000000
v -0.01010910 -0.02048420 0.05000000
v -0.01067960 -0.00538030 0.05000000
v -0.02078870 0.00196440 -0.07500000
v -0.02127250 0.00240830 -0.07500000
v -0.02164310 0.00295030 -0.07500000
v -0.02188130 0.00356220 -0.07500000
v -0.02197470 0.00421210 -0.07500000
v -0.02191850 0.00486630 -0.07500000
v -0.02171560 0.00549070 -0.07500000
v -0.02137660 0.00605300 -0.07500000
v -0.02091900 0.00652390 -0.07500000
v -0.02036660 0.00687880 -0.07500000
v -0.01974820 0.00709950 -0.07500000
v -0.01909590 0.00717430 -0.07500000
v -0.00660040 0.00717430 -0.07500000
v -0.00273900 0.01905830 -0.07500000
v -0.00246630 0.01965550 -0.07500000
v -0.00206530 0.02017550 -0.07500000
v -0.00155700 0.02059110 -0.07500000
v -0.00096780 0.02088080 -0.07500000
v -0.00032830 0.02102950 -0.07500000
v -0.02078870 0.00196440 0.05000000
v -0.02127250 0.00240830 0.05000000
v -0.02164310 0.00295030 0.05000000
v -0.02188130 0.00356220 0.05000000
v -0.02197470 0.00421210 0.05000000
v -0.02191850 0.00486630 0.05000000
v -0.02171560 0.00549070 0.05000000
v -0.02137660 0.00605300 0.05000000
v -0.02091900 0.00652390 0.05000000
v -0.02036660 0.00687880 0.05000000
v -0.01974820 0.00709950 0.05000000
v -0.01909590 0.00717430 0.05000000
v -0.00660040 0.00717430 0.05000000
v -0.00273900 0.01905830 0.05000000
v -0.00246630 0.01965550 0.05000000
v -0.00206530 0.02017550 0.05000000
v -0.00155700 0.02059110 0.05000000
v -0.00096780 0.02088080 0.05000000
v -0.00032830 0.02102950 0.05000000
v 0.00000000 -0.01313950 -0.07500000
v 0.01010910 -0.02048420 -0.07500000
v 0.01068080 -0.02080710 -0.07500000
v 0.01067960 -0.00538030 -0.07500000
v 0.01131080 -0.02099210 -0.07500000
v 0.01196630 -0.02102950 -0.07500000
v 0.01261330 -0.02091760 -0.07500000
v 0.01321810 -0.02066200 -0.07500000
v 0.01374930 -0.02027610 -0.07500000
v 0.01417930 -0.01977980 -0.07500000
v 0.01448570 -0.01919910 -0.07500000
v 0.01465260 -0.01856410 -0.07500000
v 0.01467130 -0.01790780 -0.07500000
v 0.01454100 -0.01726430 -0.07500000
v 0.00000000 -0.01313950 0.05000000
v 0.01010910 -0.02048420 0.05000000
v 0.01068080 -0.02080710 0.05000000
v 0.01067960 -0.00538030 0.05000000
v 0.01131080 -0.02099210 0.05000000
v 0.01196630 -0.02102950 0.05000000
v 0.01261330 -0.02091760 0.05000000
v 0.01321810 -0.02066200 0.05000000
v 0.01374930 -0.02027610 0.05000000
v 0.01417930 -0.01977980 0.05000000
v 0.01448570 -0.01919910 0.05000000
v 0.01465260 -0.01856410 0.05000000
v 0.01467130 -0.01790780 0.05000000
v 0.01454100 -0.01726430 0.05000000
v 0.00660040 0.00717430 -0.07500000
v 0.00032830 0.02102950 -0.07500000
v 0.00096780 0.02088080 -0.07500000
v 0.00273900 0.01905830 -0.07500000
v 0.00246630 0.01965550 -0.07500000
v 0.00155700 0.02059110 -0.07500000
v 0.00206530 0.02017550 -0.07500000
v 0.02078870 0.00196440 -0.07500000
v 0.02127250 0.00240830 -0.07500000
v 0.02164310 0.00295030 -0.07500000
v 0.02188130 0.00356220 -0.07500000
v 0.02197470 0.00421210 -0.07500000
v 0.02191850 0.00486630 -0.07500000
v 0.01909590 0.00717430 -0.07500000
v 0.01974820 0.00709950 -0.07500000
v 0.02036660 0.00687880 -0.07500000
v 0.02091900 0.00652390 -0.07500000
v 0.02171560 0.00549070 -0.07500000
v 0.02137660 0.00605300 -0.07500000
v 0.00660040 0.00717430 0.05000000
v 0.00032830 0.02102950 0.05000000
v 0.00096780 0.02088080 0.05000000
v 0.00273900 0.01905830 0.05000000
v 0.00246630 0.01965550 0.05000000
v 0.00155700 0.02059110 0.05000000
v 0.00206530 0.02017550 0.05000000
v 0.02078870 0.00196440 0.05000000
v 0.02127250 0.00240830 0.05000000
v 0.02164310 0.00295030 0.05000000
v 0.02188130 0.00356220 0.05000000
v 0.02197470 0.00421210 0.05000000
v 0.02191850 0.00486630 0.05000000
v 0.01909590 0.00717430 0.05000000
v 0.01974820 0.00709950 0.05000000
v 0.02036660 0.00687880 0.05000000
v 0.02091900 0.00652390 0.05000000
v 0.02171560 0.00549070 0.05000000
v 0.02137660 0.00605300 0.05000000
f 1 3 12
f 1 12 2
f 3 4 12
f 4 5 12
f 5 6 12
f 2 12 7
f 7 12 8
f 8 12 9
f 9 12 10
f 1 2 14
f 3 17 4
f 1 16 3
f 4 18 5
f 5 19 6
f 2 7 15
f 7 8 20
f 8 9 21
f 9 10 22
f 10 11 23
f 13 46 27
f 6 26 13
f 10 12 11
f 6 65 12
f 6 13 65
f 11 12 24
f 12 65 25
f 13 39 68
f 2 15 14
f 3 16 17
f 1 14 16
f 4 17 18
f 5 18 19
f 7 20 15
f 8 21 20
f 9 22 21
f 10 23 22
f 6 19 26
f 13 26 46
f 11 24 23
f 12 25 24
f 65 79 25
f 28 29 30
f 28 30 31
f 28 31 38
f 27 28 38
f 13 27 38
f 32 33 34
f 32 34 35
f 31 32 38
f 32 35 38
f 35 36 37
f 35 37 38
f 13 38 39
f 27 47 28
f 28 48 29
f 29 49 30
f 30 50 31
f 31 51 32
f 32 52 33
f 33 53 34
f 34 54 35
f 35 55 36
f 36 56 37
f 37 57 38
f 38 58 39
f 39 40 96
f 40 41 43
f 41 42 43
f 40 43 99
f 43 44 95
f 44 45 94
f 39 59 40
f 40 60 41
f 41 61 42
f 42 62 43
f 43 63 44
f 44 64 45
f 28 47 48
f 27 46 47
f 29 48 49
f 30 49 50
f 31 50 51
f 32 51 52
f 33 52 53
f 34 53 54
f 35 54 55
f 36 55 56
f 37 56 57
f 38 57 58
f 39 58 59
f 40 59 60
f 41 60 61
f 42 61 62
f 43 62 63
f 44 63 64
f 45 64 113
f 65 78 66
f 66 70 67
f 65 68 78
f 65 66 79
f 66 67 80
f 67 69 81
f 13 68 65
f 67 70 69
f 66 71 70
f 66 73 71
f 71 73 72
f 66 78 73
f 73 78 74
f 74 78 75
f 75 78 76
f 76 78 77
f 69 70 83
f 70 71 84
f 71 72 85
f 72 73 86
f 73 74 87
f 74 75 88
f 75 76 89
f 76 77 90
f 77 78 91
f 68 92 78
f 68 100 82
f 66 80 79
f 67 81 80
f 69 83 81
f 70 84 83
f 71 85 84
f 72 86 85
f 73 87 86
f 74 88 87
f 75 89 88
f 76 90 89
f 77 91 90
f 78 92 91
f 68 82 92
f 100 119 82
f 39 93 68
f 39 96 93
f 40 99 96
f 44 94 95
f 43 95 99
f 96 99 97
f 95 98 99
f 93 96 112
f 45 113 94
f 94 114 95
f 95 117 98
f 96 97 115
f 98 118 99
f 97 99 116
f 68 93 100
f 93 106 100
f 100 103 101
f 101 103 102
f 100 105 103
f 100 107 105
f 103 105 104
f 100 106 107
f 107 108 109
f 105 107 109
f 105 109 110
f 109 111 110
f 93 125 106
f 100 101 119
f 101 102 120
f 102 103 121
f 103 104 122
f 104 105 123
f 105 110 124
f 106 126 107
f 107 127 108
f 109 130 111
f 110 111 129
f 108 128 109
f 93 112 125
f 96 115 112
f 94 113 114
f 95 114 117
f 97 116 115
f 98 117 118
f 99 118 116
f 101 120 119
f 102 121 120
f 103 122 121
f 104 123 122
f 105 124 123
f 106 125 126
f 107 126 127
f 108 127 128
f 109 128 130
f 111 130 129
f 110 129 124
f 79 24 25
f 16 119 17
f 17 119 18
f 18 119 19
f 20 21 119
f 22 119 21
f 23 119 22
f 23 24 119
f 14 15 119
f 14 119 16
f 20 119 15
f 24 79 82
f 19 122 26
f 49 48 58
f 49 58 50
f 51 50 57
f 51 57 52
f 53 52 55
f 53 55 54
f 55 52 56
f 52 57 56
f 46 112 47
f 48 47 112
f 57 50 58
f 46 26 112
f 58 48 112
f 58 112 59
f 80 83 79
f 84 79 83
f 79 84 85
f 80 81 83
f 86 79 85
f 86 87 79
f 88 79 87
f 88 89 79
f 79 89 90
f 91 79 90
f 92 79 91
f 79 92 82
f 24 82 119
f 19 119 120
f 19 120 121
f 19 121 122
f 26 125 112
f 124 129 26
f 128 26 130
f 130 26 129
f 125 26 126
f 126 26 127
f 128 127 26
f 60 59 112
f 60 112 61
f 115 118 112
f 61 112 62
f 63 62 112
f 63 112 64
f 113 64 112
f 113 112 114
f 115 116 118
f 112 117 114
f 117 112 118
f 123 26 122
f 124 26 123