# https://github.com/mikedh/trimesh
v -0.01176407 -0.00459562 0.07500000 0.54117647 0.42352941 0.64313725
v -0.02400000 -0.00459562 0.07500000 0.54117647 0.42352941 0.64313725
v -0.01535245 -0.01262454 0.07500000 0.54117647 0.42352941 0.64313725
v -0.01176407 -0.00459562 -0.07500000 0.54117647 0.42352941 0.64313725
v -0.02400000 -0.01151992 0.07500000 0.54117647 0.42352941 0.64313725
v -0.02400000 -0.00459562 -0.07500000 0.54117647 0.42352941 0.64313725
v -0.01568302 -0.01321476 0.07500000 0.54117647 0.42352941 0.64313725
v -0.01535245 -0.01262454 -0.07500000 0.54117647 0.42352941 0.64313725
v -0.02392694 -0.01216004 0.07500000 0.54117647 0.42352941 0.64313725
v -0.02400000 -0.01151992 -0.07500000 0.54117647 0.42352941 0.64313725
v -0.01614295 -0.01371093 0.07500000 0.54117647 0.42352941 0.64313725
v -0.01568302 -0.01321476 -0.07500000 0.54117647 0.42352941 0.64313725
v -0.02371375 -0.01276946 0.07500000 0.54117647 0.42352941 0.64313725
v -0.02392694 -0.01216004 -0.07500000 0.54117647 0.42352941 0.64313725
v -0.01670587 -0.01408618 0.07500000 0.54117647 0.42352941 0.64313725
v -0.01614295 -0.01371093 -0.07500000 0.54117647 0.42352941 0.64313725
v -0.02337120 -0.01331553 0.07500000 0.54117647 0.42352941 0.64313725
v -0.02371375 -0.01276946 -0.07500000 0.54117647 0.42352941 0.64313725
v -0.01734067 -0.01432035 0.07500000 0.54117647 0.42352941 0.64313725
v -0.01670587 -0.01408618 -0.07500000 0.54117647 0.42352941 0.64313725
v -0.02291486 -0.01377139 0.07500000 0.54117647 0.42352941 0.64313725
v -0.02337120 -0.01331553 -0.07500000 0.54117647 0.42352941 0.64313725
v -0.01801019 -0.01439904 0.07500000 0.54117647 0.42352941 0.64313725
v -0.01734067 -0.01432035 -0.07500000 0.54117647 0.42352941 0.64313725
v -0.02236870 -0.01411401 0.07500000 0.54117647 0.42352941 0.64313725
v -0.02291486 -0.01377139 -0.07500000 0.54117647 0.42352941 0.64313725
v -0.02111948 -0.01439904 0.07500000 0.54117647 0.42352941 0.64313725
v -0.01801019 -0.01439904 -0.07500000 0.54117647 0.42352941 0.64313725
v -0.02176026 -0.01432706 0.07500000 0.54117647 0.42352941 0.64313725
v -0.02236870 -0.01411401 -0.07500000 0.54117647 0.42352941 0.64313725
v -0.02111948 -0.01439904 -0.07500000 0.54117647 0.42352941 0.64313725
v -0.02176026 -0.01432706 -0.07500000 0.54117647 0.42352941 0.64313725
f 1 2 5
f 1 5 9
f 1 9 13
f 1 13 17
f 1 17 21
f 1 21 25
f 1 25 29
f 1 29 27
f 1 27 23
f 1 23 19
f 1 19 15
f 1 15 11
f 1 11 7
f 1 7 3
f 1 3 8
f 1 8 4
f 1 4 6
f 1 6 2
f 2 6 10
f 2 10 5
f 3 7 12
f 3 12 8
f 4 8 12
f 4 12 16
f 4 16 20
f 4 20 24
f 4 24 28
f 4 28 31
f 4 31 32
f 4 32 30
f 4 30 26
f 4 26 22
f 4 22 18
f 4 18 14
f 4 14 10
f 4 10 6
f 5 10 14
f 5 14 9
f 7 11 16
f 7 16 12
f 9 14 18
f 9 18 13
f 11 15 20
f 11 20 16
f 13 18 22
f 13 22 17
f 15 19 24
f 15 24 20
f 17 22 26
f 17 26 21
f 19 23 28
f 19 28 24
f 21 26 30
f 21 30 25
f 23 27 31
f 23 31 28
f 25 30 32
f 25 32 29
f 27 29 32
f 27 32 31