# https://github.com/mikedh/trimesh
v 0.01251172 -0.00551156 -0.07500000 0.56470588 0.92549020 0.07058824
v 0.00697538 -0.00071447 -0.07500000 0.56470588 0.92549020 0.07058824
v 0.01251172 0.01439805 -0.07500000 0.56470588 0.92549020 0.07058824
v 0.01251172 -0.00551156 0.07500000 0.56470588 0.92549020 0.07058824
v 0.00697538 0.01439805 -0.07500000 0.56470588 0.92549020 0.07058824
v 0.00697538 -0.00071447 0.07500000 0.56470588 0.92549020 0.07058824
v 0.01251172 0.01439805 0.07500000 0.56470588 0.92549020 0.07058824
v 0.00697538 0.01439805 0.07500000 0.56470588 0.92549020 0.07058824
f 1 2 5
f 1 5 3
f 1 3 7
f 1 7 4
f 1 4 6
f 1 6 2
f 2 6 8
f 2 8 5
f 3 5 8
f 3 8 7
f 4 7 8
f 4 8 6