# https://github.com/mikedh/trimesh

o geometry_0
v 0.00697538 -0.00071614 -0.07500000 0.54509804 0.71372549 0.60000000
v -0.00475988 0.00020273 -0.07500000 0.54509804 0.71372549 0.60000000
v 0.00697538 0.01440000 -0.07500000 0.54509804 0.71372549 0.60000000
v 0.00697538 -0.00071614 0.07500000 0.54509804 0.71372549 0.60000000
v -0.00475988 0.01440000 -0.07500000 0.54509804 0.71372549 0.60000000
v -0.00475988 0.00020273 0.07500000 0.54509804 0.71372549 0.60000000
v 0.00697538 0.01440000 0.07500000 0.54509804 0.71372549 0.60000000
v -0.00475988 0.01440000 0.07500000 0.54509804 0.71372549 0.60000000
f 1 2 5
f 1 5 3
f 1 3 7
f 1 7 4
f 1 4 6
f 1 6 2
f 2 6 8
f 2 8 5
f 3 5 8
f 3 8 7
f 4 7 8
f 4 8 6

o geometry_1
v -0.01176407 -0.00459562 0.07500000 0.54117647 0.42352941 0.64313725
v -0.02400000 -0.00459562 0.07500000 0.54117647 0.42352941 0.64313725
v -0.01535245 -0.01262454 0.07500000 0.54117647 0.42352941 0.64313725
v -0.01176407 -0.00459562 -0.07500000 0.54117647 0.42352941 0.64313725
v -0.02400000 -0.01151992 0.07500000 0.54117647 0.42352941 0.64313725
v -0.02400000 -0.00459562 -0.07500000 0.54117647 0.42352941 0.64313725
v -0.01568302 -0.01321476 0.07500000 0.54117647 0.42352941 0.64313725
v -0.01535245 -0.01262454 -0.07500000 0.54117647 0.42352941 0.64313725
v -0.02392694 -0.01216004 0.07500000 0.54117647 0.42352941 0.64313725
v -0.02400000 -0.01151992 -0.07500000 0.54117647 0.42352941 0.64313725
v -0.01614295 -0.01371093 0.07500000 0.54117647 0.42352941 0.64313725
v -0.01568302 -0.01321476 -0.07500000 0.54117647 0.42352941 0.64313725
v -0.02371375 -0.01276946 0.07500000 0.54117647 0.42352941 0.64313725
v -0.02392694 -0.01216004 -0.07500000 0.54117647 0.42352941 0.64313725
v -0.01670587 -0.01408618 0.07500000 0.54117647 0.42352941 0.64313725
v -0.01614295 -0.01371093 -0.07500000 0.54117647 0.42352941 0.64313725
v -0.02337120 -0.01331553 0.07500000 0.54117647 0.42352941 0.64313725
v -0.02371375 -0.01276946 -0.07500000 0.54117647 0.42352941 0.64313725
v -0.01734067 -0.01432035 0.07500000 0.54117647 0.42352941 0.64313725
v -0.01670587 -0.01408618 -0.07500000 0.54117647 0.42352941 0.64313725
v -0.02291486 -0.01377139 0.07500000 0.54117647 0.42352941 0.64313725
v -0.02337120 -0.01331553 -0.07500000 0.54117647 0.42352941 0.64313725
v -0.01801019 -0.01439904 0.07500000 0.54117647 0.42352941 0.64313725
v -0.01734067 -0.01432035 -0.07500000 0.54117647 0.42352941 0.64313725
v -0.02236870 -0.01411401 0.07500000 0.54117647 0.42352941 0.64313725
v -0.02291486 -0.01377139 -0.07500000 0.54117647 0.42352941 0.64313725
v -0.02111948 -0.01439904 0.07500000 0.54117647 0.42352941 0.64313725
v -0.01801019 -0.01439904 -0.07500000 0.54117647 0.42352941 0.64313725
v -0.02176026 -0.01432706 0.07500000 0.54117647 0.42352941 0.64313725
v -0.02236870 -0.01411401 -0.07500000 0.54117647 0.42352941 0.64313725
v -0.02111948 -0.01439904 -0.07500000 0.54117647 0.42352941 0.64313725
v -0.02176026 -0.01432706 -0.07500000 0.54117647 0.42352941 0.64313725
f 9 10 13
f 9 13 17
f 9 17 21
f 9 21 25
f 9 25 29
f 9 29 33
f 9 33 37
f 9 37 35
f 9 35 31
f 9 31 27
f 9 27 23
f 9 23 19
f 9 19 15
f 9 15 11
f 9 11 16
f 9 16 12
f 9 12 14
f 9 14 10
f 10 14 18
f 10 18 13
f 11 15 20
f 11 20 16
f 12 16 20
f 12 20 24
f 12 24 28
f 12 28 32
f 12 32 36
f 12 36 39
f 12 39 40
f 12 40 38
f 12 38 34
f 12 34 30
f 12 30 26
f 12 26 22
f 12 22 18
f 12 18 14
f 13 18 22
f 13 22 17
f 15 19 24
f 15 24 20
f 17 22 26
f 17 26 21
f 19 23 28
f 19 28 24
f 21 26 30
f 21 30 25
f 23 27 32
f 23 32 28
f 25 30 34
f 25 34 29
f 27 31 36
f 27 36 32
f 29 34 38
f 29 38 33
f 31 35 39
f 31 39 36
f 33 38 40
f 33 40 37
f 35 37 40
f 35 40 39

o geometry_2
v -0.00476176 0.01440000 0.07500000 0.43529412 0.89019608 0.96078431
v -0.02111850 0.01440000 0.07500000 0.43529412 0.89019608 0.96078431
v -0.00476176 0.00020349 0.07500000 0.43529412 0.89019608 0.96078431
v -0.00476176 0.01440000 -0.07500000 0.43529412 0.89019608 0.96078431
v -0.02176072 0.01432748 0.07500000 0.43529412 0.89019608 0.96078431
v -0.02111850 0.01440000 -0.07500000 0.43529412 0.89019608 0.96078431
v -0.01176588 -0.00459562 0.07500000 0.43529412 0.89019608 0.96078431
v -0.00476176 0.00020349 -0.07500000 0.43529412 0.89019608 0.96078431
v -0.02236903 0.01411365 0.07500000 0.43529412 0.89019608 0.96078431
v -0.02176072 0.01432748 -0.07500000 0.43529412 0.89019608 0.96078431
v -0.02400000 -0.00459562 0.07500000 0.43529412 0.89019608 0.96078431
v -0.01176588 -0.00459562 -0.07500000 0.43529412 0.89019608 0.96078431
v -0.02291520 0.01377152 0.07500000 0.43529412 0.89019608 0.96078431
v -0.02236903 0.01411365 -0.07500000 0.43529412 0.89019608 0.96078431
v -0.02400000 0.01151979 0.07500000 0.43529412 0.89019608 0.96078431
v -0.02400000 -0.00459562 -0.07500000 0.43529412 0.89019608 0.96078431
v -0.02337097 0.01331411 0.07500000 0.43529412 0.89019608 0.96078431
v -0.02291520 0.01377152 -0.07500000 0.43529412 0.89019608 0.96078431
v -0.02392655 0.01215943 0.07500000 0.43529412 0.89019608 0.96078431
v -0.02400000 0.01151979 -0.07500000 0.43529412 0.89019608 0.96078431
v -0.02371373 0.01276931 0.07500000 0.43529412 0.89019608 0.96078431
v -0.02337097 0.01331411 -0.07500000 0.43529412 0.89019608 0.96078431
v -0.02392655 0.01215943 -0.07500000 0.43529412 0.89019608 0.96078431
v -0.02371373 0.01276931 -0.07500000 0.43529412 0.89019608 0.96078431
f 41 42 45
f 41 45 49
f 41 49 53
f 41 53 57
f 41 57 61
f 41 61 59
f 41 59 55
f 41 55 51
f 41 51 47
f 41 47 43
f 41 43 48
f 41 48 44
f 41 44 46
f 41 46 42
f 42 46 50
f 42 50 45
f 43 47 52
f 43 52 48
f 44 48 52
f 44 52 56
f 44 56 60
f 44 60 63
f 44 63 64
f 44 64 62
f 44 62 58
f 44 58 54
f 44 54 50
f 44 50 46
f 45 50 54
f 45 54 49
f 47 51 56
f 47 56 52
f 49 54 58
f 49 58 53
f 51 55 60
f 51 60 56
f 53 58 62
f 53 62 57
f 55 59 63
f 55 63 60
f 57 62 64
f 57 64 61
f 59 61 64
f 59 64 63

o geometry_3
v 0.01801212 -0.01440000 -0.07500000 0.38039216 0.78823529 0.52549020
v 0.01733968 -0.01431825 -0.07500000 0.38039216 0.78823529 0.52549020
v 0.02111907 -0.01440000 -0.07500000 0.38039216 0.78823529 0.52549020
v 0.01801212 -0.01440000 0.07500000 0.38039216 0.78823529 0.52549020
v 0.01670547 -0.01408426 -0.07500000 0.38039216 0.78823529 0.52549020
v 0.01733968 -0.01431825 0.07500000 0.38039216 0.78823529 0.52549020
v 0.02176003 -0.01432670 -0.07500000 0.38039216 0.78823529 0.52549020
v 0.02111907 -0.01440000 0.07500000 0.38039216 0.78823529 0.52549020
v 0.01614322 -0.01370932 -0.07500000 0.38039216 0.78823529 0.52549020
v 0.01670547 -0.01408426 0.07500000 0.38039216 0.78823529 0.52549020
v 0.02236950 -0.01411245 -0.07500000 0.38039216 0.78823529 0.52549020
v 0.02176003 -0.01432670 0.07500000 0.38039216 0.78823529 0.52549020
v 0.01568331 -0.01321316 -0.07500000 0.38039216 0.78823529 0.52549020
v 0.01614322 -0.01370932 0.07500000 0.38039216 0.78823529 0.52549020
v 0.02291487 -0.01377134 -0.07500000 0.38039216 0.78823529 0.52549020
v 0.02236950 -0.01411245 0.07500000 0.38039216 0.78823529 0.52549020
v 0.01535271 -0.01262396 -0.07500000 0.38039216 0.78823529 0.52549020
v 0.01568331 -0.01321316 0.07500000 0.38039216 0.78823529 0.52549020
v 0.02337141 -0.01331464 -0.07500000 0.38039216 0.78823529 0.52549020
v 0.02291487 -0.01377134 0.07500000 0.38039216 0.78823529 0.52549020
v 0.01251226 -0.00551136 -0.07500000 0.38039216 0.78823529 0.52549020
v 0.01535271 -0.01262396 0.07500000 0.38039216 0.78823529 0.52549020
v 0.02371438 -0.01276774 -0.07500000 0.38039216 0.78823529 0.52549020
v 0.02337141 -0.01331464 0.07500000 0.38039216 0.78823529 0.52549020
v 0.01251226 0.01440000 -0.07500000 0.38039216 0.78823529 0.52549020
v 0.01251226 -0.00551136 0.07500000 0.38039216 0.78823529 0.52549020
v 0.02392691 -0.01215881 -0.07500000 0.38039216 0.78823529 0.52549020
v 0.02371438 -0.01276774 0.07500000 0.38039216 0.78823529 0.52549020
v 0.02111907 0.01440000 -0.07500000 0.38039216 0.78823529 0.52549020
v 0.01251226 0.01440000 0.07500000 0.38039216 0.78823529 0.52549020
v 0.02400000 -0.01151887 -0.07500000 0.38039216 0.78823529 0.52549020
v 0.02392691 -0.01215881 0.07500000 0.38039216 0.78823529 0.52549020
v 0.02176003 0.01432670 -0.07500000 0.38039216 0.78823529 0.52549020
v 0.02111907 0.01440000 0.07500000 0.38039216 0.78823529 0.52549020
v 0.02400000 0.01151887 -0.07500000 0.38039216 0.78823529 0.52549020
v 0.02400000 -0.01151887 0.07500000 0.38039216 0.78823529 0.52549020
v 0.02236950 0.01411245 -0.07500000 0.38039216 0.78823529 0.52549020
v 0.02176003 0.01432670 0.07500000 0.38039216 0.78823529 0.52549020
v 0.02392691 0.01215881 -0.07500000 0.38039216 0.78823529 0.52549020
v 0.02400000 0.01151887 0.07500000 0.38039216 0.78823529 0.52549020
v 0.02291487 0.01377134 -0.07500000 0.38039216 0.78823529 0.52549020
v 0.02236950 0.01411245 0.07500000 0.38039216 0.78823529 0.52549020
v 0.02371438 0.01276774 -0.07500000 0.38039216 0.78823529 0.52549020
v 0.02392691 0.01215881 0.07500000 0.38039216 0.78823529 0.52549020
v 0.02337141 0.01331464 -0.07500000 0.38039216 0.78823529 0.52549020
v 0.02291487 0.01377134 0.07500000 0.38039216 0.78823529 0.52549020
v 0.02371438 0.01276774 0.07500000 0.38039216 0.78823529 0.52549020
v 0.02337141 0.01331464 0.07500000 0.38039216 0.78823529 0.52549020
f 65 66 69
f 65 69 73
f 65 73 77
f 65 77 81
f 65 81 85
f 65 85 89
f 65 89 93
f 65 93 97
f 65 97 101
f 65 101 105
f 65 105 109
f 65 109 107
f 65 107 103
f 65 103 99
f 65 99 95
f 65 95 91
f 65 91 87
f 65 87 83
f 65 83 79
f 65 79 75
f 65 75 71
f 65 71 67
f 65 67 72
f 65 72 68
f 65 68 70
f 65 70 66
f 66 70 74
f 66 74 69
f 67 71 76
f 67 76 72
f 68 72 76
f 68 76 80
f 68 80 84
f 68 84 88
f 68 88 92
f 68 92 96
f 68 96 100
f 68 100 104
f 68 104 108
f 68 108 111
f 68 111 112
f 68 112 110
f 68 110 106
f 68 106 102
f 68 102 98
f 68 98 94
f 68 94 90
f 68 90 86
f 68 86 82
f 68 82 78
f 68 78 74
f 68 74 70
f 69 74 78
f 69 78 73
f 71 75 80
f 71 80 76
f 73 78 82
f 73 82 77
f 75 79 84
f 75 84 80
f 77 82 86
f 77 86 81
f 79 83 88
f 79 88 84
f 81 86 90
f 81 90 85
f 83 87 92
f 83 92 88
f 85 90 94
f 85 94 89
f 87 91 96
f 87 96 92
f 89 94 98
f 89 98 93
f 91 95 100
f 91 100 96
f 93 98 102
f 93 102 97
f 95 99 104
f 95 104 100
f 97 102 106
f 97 106 101
f 99 103 108
f 99 108 104
f 101 106 110
f 101 110 105
f 103 107 111
f 103 111 108
f 105 110 112
f 105 112 109
f 107 109 112
f 107 112 111

o geometry_4
v 0.01251172 -0.00551156 -0.07500000 0.56470588 0.92549020 0.07058824
v 0.00697538 -0.00071447 -0.07500000 0.56470588 0.92549020 0.07058824
v 0.01251172 0.01439805 -0.07500000 0.56470588 0.92549020 0.07058824
v 0.01251172 -0.00551156 0.07500000 0.56470588 0.92549020 0.07058824
v 0.00697538 0.01439805 -0.07500000 0.56470588 0.92549020 0.07058824
v 0.00697538 -0.00071447 0.07500000 0.56470588 0.92549020 0.07058824
v 0.01251172 0.01439805 0.07500000 0.56470588 0.92549020 0.07058824
v 0.00697538 0.01439805 0.07500000 0.56470588 0.92549020 0.07058824
f 113 114 117
f 113 117 115
f 113 115 119
f 113 119 116
f 113 116 118
f 113 118 114
f 114 118 120
f 114 120 117
f 115 117 120
f 115 120 119
f 116 119 120
f 116 120 118