# https://github.com/mikedh/trimesh
v -0.01103750 -0.01733760 -0.07500000
v -0.01059010 -0.01774040 -0.07500000
v -0.01139140 -0.01685050 -0.07500000
v -0.02028860 -0.00144000 -0.07500000
v -0.02053350 -0.00089000 -0.07500000
v -0.02065870 -0.00030100 -0.07500000
v -0.01006860 -0.01804150 -0.07500000
v -0.00949600 -0.01822750 -0.07500000
v -0.00889720 -0.01829050 -0.07500000
v -0.01103750 -0.01733760 0.02500000
v -0.01059010 -0.01774040 0.02500000
v -0.01139140 -0.01685050 0.02500000
v -0.02028860 -0.00144000 0.02500000
v -0.02053350 -0.00089000 0.02500000
v -0.02065870 -0.00030100 0.02500000
v -0.01006860 -0.01804150 0.02500000
v -0.00949600 -0.01822750 0.02500000
v -0.00889720 -0.01829050 0.02500000
v -0.02065870 0.00030100 -0.07500000
v -0.02053350 0.00089000 -0.07500000
v -0.02028860 0.00144000 -0.07500000
v -0.01139140 0.01685050 -0.07500000
v -0.01103750 0.01733760 -0.07500000
v -0.01059010 0.01774040 -0.07500000
v -0.01006860 0.01804150 -0.07500000
v -0.00949600 0.01822750 -0.07500000
v -0.00889720 0.01829050 -0.07500000
v -0.02065870 0.00030100 0.02500000
v -0.02053350 0.00089000 0.02500000
v -0.02028860 0.00144000 0.02500000
v -0.01139140 0.01685050 0.02500000
v -0.01103750 0.01733760 0.02500000
v -0.01059010 0.01774040 0.02500000
v -0.01006860 0.01804150 0.02500000
v -0.00949600 0.01822750 0.02500000
v -0.00889720 0.01829050 0.02500000
v 0.00889720 -0.01829050 -0.07500000
v 0.00949600 -0.01822750 -0.07500000
v 0.01006860 -0.01804150 -0.07500000
v 0.01059010 -0.01774040 -0.07500000
v 0.01103750 -0.01733760 -0.07500000
v 0.01139140 -0.01685050 -0.07500000
v 0.02028860 -0.00144000 -0.07500000
v 0.02053350 -0.00089000 -0.07500000
v 0.02065870 -0.00030100 -0.07500000
v 0.00889720 -0.01829050 0.02500000
v 0.00949600 -0.01822750 0.02500000
v 0.01006860 -0.01804150 0.02500000
v 0.01059010 -0.01774040 0.02500000
v 0.01103750 -0.01733760 0.02500000
v 0.01139140 -0.01685050 0.02500000
v 0.02028860 -0.00144000 0.02500000
v 0.02053350 -0.00089000 0.02500000
v 0.02065870 -0.00030100 0.02500000
v 0.00889720 0.01829050 -0.07500000
v 0.00949600 0.01822750 -0.07500000
v 0.01006860 0.01804150 -0.07500000
v 0.02065870 0.00030100 -0.07500000
v 0.02053350 0.00089000 -0.07500000
v 0.02028860 0.00144000 -0.07500000
v 0.01139140 0.01685050 -0.07500000
v 0.01059010 0.01774040 -0.07500000
v 0.01103750 0.01733760 -0.07500000
v 0.00889720 0.01829050 0.02500000
v 0.00949600 0.01822750 0.02500000
v 0.01006860 0.01804150 0.02500000
v 0.02065870 0.00030100 0.02500000
v 0.02053350 0.00089000 0.02500000
v 0.02028860 0.00144000 0.02500000
v 0.01139140 0.01685050 0.02500000
v 0.01059010 0.01774040 0.02500000
v 0.01103750 0.01733760 0.02500000
f 1 3 2
f 3 4 9
f 2 7 11
f 1 2 10
f 1 12 3
f 4 5 6
f 4 6 19
f 4 22 9
f 3 13 4
f 4 14 5
f 5 15 6
f 2 9 7
f 2 3 9
f 7 9 8
f 7 8 16
f 8 9 17
f 9 37 18
f 9 27 42
f 1 10 12
f 2 11 10
f 3 12 13
f 4 13 14
f 5 14 15
f 6 15 28
f 7 16 11
f 8 17 16
f 9 18 17
f 4 19 21
f 19 20 21
f 4 21 22
f 6 28 19
f 19 29 20
f 20 30 21
f 23 24 25
f 22 23 27
f 21 31 22
f 22 32 23
f 23 33 24
f 9 22 27
f 23 25 26
f 23 26 27
f 24 34 25
f 25 35 26
f 26 36 27
f 19 28 29
f 20 29 30
f 21 30 31
f 22 31 32
f 23 32 33
f 24 33 34
f 25 34 35
f 26 35 36
f 27 36 64
f 9 42 37
f 37 42 38
f 38 42 39
f 37 38 46
f 38 39 47
f 39 40 48
f 27 43 42
f 39 42 40
f 40 42 41
f 40 41 49
f 41 42 50
f 42 43 51
f 43 45 44
f 43 58 45
f 43 44 52
f 44 45 53
f 45 58 54
f 37 46 18
f 38 47 46
f 39 48 47
f 40 49 48
f 41 50 49
f 42 51 50
f 43 52 51
f 44 53 52
f 45 54 53
f 27 55 43
f 55 56 57
f 55 57 61
f 27 64 55
f 55 65 56
f 56 66 57
f 43 60 58
f 58 60 59
f 43 61 60
f 58 59 67
f 59 60 68
f 60 61 69
f 43 55 61
f 57 62 63
f 57 63 61
f 61 63 70
f 62 72 63
f 57 71 62
f 55 64 65
f 56 65 66
f 57 66 71
f 58 67 54
f 59 68 67
f 60 69 68
f 61 70 69
f 62 71 72
f 63 72 70
f 16 69 11
f 10 69 12
f 11 69 10
f 12 69 13
f 14 64 15
f 13 64 14
f 15 64 28
f 28 64 29
f 29 64 30
f 33 32 31
f 33 31 34
f 30 64 31
f 35 34 31
f 36 35 31
f 13 65 64
f 13 66 65
f 31 64 36
f 16 17 69
f 17 18 69
f 18 46 69
f 47 69 46
f 48 69 47
f 49 69 48
f 50 69 49
f 51 69 50
f 51 52 53
f 51 53 54
f 51 68 69
f 51 54 67
f 51 67 68
f 13 69 70
f 13 72 71
f 13 70 72
f 13 71 66