# https://github.com/mikedh/trimesh
v -0.01103750 -0.01733760 0.02500000
v -0.01059010 -0.01774040 0.02500000
v -0.01139140 -0.01685050 0.02500000
v -0.02028860 -0.00144000 0.02500000
v -0.02053350 -0.00089000 0.02500000
v -0.02065870 -0.00030100 0.02500000
v -0.01006860 -0.01804150 0.02500000
v -0.00949600 -0.01822750 0.02500000
v -0.00889720 -0.01829050 0.02500000
v -0.01103750 -0.01733760 0.07500000
v -0.01059010 -0.01774040 0.07500000
v -0.01139140 -0.01685050 0.07500000
v -0.02028860 -0.00144000 0.07500000
v -0.02053350 -0.00089000 0.07500000
v -0.02065870 -0.00030100 0.07500000
v -0.01006860 -0.01804150 0.07500000
v -0.00949600 -0.01822750 0.07500000
v -0.00889720 -0.01829050 0.07500000
v -0.02065870 0.00030100 0.02500000
v -0.02053350 0.00089000 0.02500000
v -0.02028860 0.00144000 0.02500000
v -0.01139140 0.01685050 0.02500000
v -0.01103750 0.01733760 0.02500000
v -0.01059010 0.01774040 0.02500000
v -0.01006860 0.01804150 0.02500000
v -0.00949600 0.01822750 0.02500000
v -0.00889720 0.01829050 0.02500000
v -0.02065870 0.00030100 0.07500000
v -0.02053350 0.00089000 0.07500000
v -0.02028860 0.00144000 0.07500000
v -0.01139140 0.01685050 0.07500000
v -0.01103750 0.01733760 0.07500000
v -0.01059010 0.01774040 0.07500000
v -0.01006860 0.01804150 0.07500000
v -0.00949600 0.01822750 0.07500000
v -0.00889720 0.01829050 0.07500000
v 0.00889720 -0.01829050 0.02500000
v 0.00949600 -0.01822750 0.02500000
v 0.01006860 -0.01804150 0.02500000
v 0.01059010 -0.01774040 0.02500000
v 0.01103750 -0.01733760 0.02500000
v 0.01139140 -0.01685050 0.02500000
v 0.02028860 -0.00144000 0.02500000
v 0.02053350 -0.00089000 0.02500000
v 0.02065870 -0.00030100 0.02500000
v 0.00889720 -0.01829050 0.07500000
v 0.00949600 -0.01822750 0.07500000
v 0.01006860 -0.01804150 0.07500000
v 0.01059010 -0.01774040 0.07500000
v 0.01103750 -0.01733760 0.07500000
v 0.01139140 -0.01685050 0.07500000
v 0.02028860 -0.00144000 0.07500000
v 0.02053350 -0.00089000 0.07500000
v 0.02065870 -0.00030100 0.07500000
v 0.00889720 0.01829050 0.02500000
v 0.00949600 0.01822750 0.02500000
v 0.01006860 0.01804150 0.02500000
v 0.02065870 0.00030100 0.02500000
v 0.02053350 0.00089000 0.02500000
v 0.02028860 0.00144000 0.02500000
v 0.01139140 0.01685050 0.02500000
v 0.01059010 0.01774040 0.02500000
v 0.01103750 0.01733760 0.02500000
v 0.00889720 0.01829050 0.07500000
v 0.00949600 0.01822750 0.07500000
v 0.01006860 0.01804150 0.07500000
v 0.02065870 0.00030100 0.07500000
v 0.02053350 0.00089000 0.07500000
v 0.02028860 0.00144000 0.07500000
v 0.01139140 0.01685050 0.07500000
v 0.01059010 0.01774040 0.07500000
v 0.01103750 0.01733760 0.07500000
f 11 2 7
f 10 1 2
f 12 3 1
f 13 4 3
f 14 5 4
f 15 6 5
f 16 7 8
f 17 8 9
f 18 9 37
f 10 12 1
f 10 2 11
f 12 13 3
f 10 11 12
f 12 18 13
f 13 14 4
f 14 15 5
f 15 28 6
f 13 15 14
f 13 28 15
f 13 18 31
f 11 7 16
f 16 8 17
f 17 9 18
f 11 16 18
f 11 18 12
f 16 17 18
f 18 46 36
f 28 19 6
f 29 20 19
f 30 21 20
f 31 22 21
f 32 23 22
f 33 24 23
f 34 25 24
f 35 26 25
f 36 27 26
f 28 29 19
f 29 30 20
f 30 31 21
f 13 30 28
f 28 30 29
f 13 31 30
f 31 32 22
f 32 33 23
f 33 34 24
f 32 34 33
f 31 36 32
f 18 36 31
f 34 35 25
f 35 36 26
f 36 64 27
f 32 35 34
f 32 36 35
f 46 37 38
f 47 38 39
f 48 39 40
f 49 40 41
f 50 41 42
f 51 42 43
f 52 43 44
f 53 44 45
f 54 45 58
f 18 37 46
f 46 38 47
f 47 39 48
f 46 47 48
f 46 48 49
f 46 49 51
f 46 51 64
f 48 40 49
f 49 41 50
f 50 42 51
f 49 50 51
f 51 43 52
f 52 44 53
f 53 45 54
f 51 52 69
f 52 53 69
f 64 55 27
f 65 56 55
f 66 57 56
f 67 58 59
f 68 59 60
f 69 60 61
f 70 61 63
f 72 63 62
f 71 62 57
f 36 46 64
f 64 65 55
f 65 66 56
f 66 71 57
f 64 66 65
f 64 70 66
f 54 58 67
f 67 59 68
f 68 60 69
f 51 69 64
f 53 54 69
f 54 67 69
f 67 68 69
f 69 61 70
f 71 72 62
f 70 63 72
f 64 69 70
f 66 72 71
f 66 70 72
f 1 3 2
f 2 3 7
f 5 37 4
f 5 6 37
f 6 19 37
f 20 37 19
f 21 37 20
f 9 8 3
f 7 3 8
f 4 37 3
f 3 37 9
f 21 38 37
f 21 39 38
f 22 43 21
f 22 23 43
f 23 24 43
f 24 25 43
f 21 40 39
f 21 41 40
f 21 42 41
f 21 43 42
f 25 26 43
f 26 27 43
f 27 55 61
f 27 61 60
f 56 57 61
f 61 55 56
f 27 44 43
f 27 45 44
f 27 58 45
f 27 59 58
f 27 60 59
f 61 57 62
f 61 62 63