# https://github.com/mikedh/trimesh
v -0.07465964 -0.00840156 -0.00462454
v -0.07442910 -0.00851166 -0.00473004
v -0.07430726 -0.00855246 -0.00476916
v -0.07418220 -0.00858338 -0.00479878
v -0.07405482 -0.00860416 -0.00481868
v -0.07392604 -0.00861466 -0.00482874
v -0.07454684 -0.00846124 -0.00468174
v -0.07476666 -0.00833308 -0.00455892
v -0.07486718 -0.00825626 -0.00448530
v -0.07504580 -0.00807992 -0.00431630
v -0.07519032 -0.00787760 -0.00412242
v -0.07529664 -0.00765512 -0.00390922
v -0.07536168 -0.00741886 -0.00368282
v -0.07538356 -0.00717562 -0.00344970
v -0.07481692 -0.00003840 -0.00452210
v -0.06794042 -0.00406032 -0.00506544
v -0.07519032 -0.00787760 0.00407420
v -0.07504580 -0.00807992 0.00426808
v -0.07529664 -0.00765512 0.00386100
v -0.07536168 -0.00741886 0.00363460
v -0.07465964 -0.00840158 0.00457632
v -0.07454684 -0.00846124 0.00463350
v -0.07442910 -0.00851166 0.00468182
v -0.07430726 -0.00855248 0.00472094
v -0.07418220 -0.00858338 0.00475056
v -0.07405482 -0.00860416 0.00477046
v -0.07392604 -0.00861466 0.00478052
v -0.07486718 -0.00825628 0.00443708
v -0.07476666 -0.00833308 0.00451070
v -0.07538356 -0.00717562 0.00340148
v -0.07537262 -0.00012162 0.00351804
v -0.07532916 -0.00011814 0.00374780
v -0.07524348 -0.00011124 0.00396760
v -0.07511806 -0.00010116 0.00417114
v -0.07495648 -0.00008818 0.00435258
v -0.07471314 -0.00003424 0.00454352
v -0.07460324 -0.00002984 0.00460492
v -0.07448796 -0.00002522 0.00465766
v -0.07411852 -0.00001040 0.00476052
v -0.07399044 -0.00000526 0.00477550
v -0.07460324 0.00002984 -0.00465314
v -0.07465964 0.00000000 -0.00462454
v -0.07476666 0.00000000 -0.00455892
v -0.07471314 0.00003424 -0.00459172
v -0.07486718 0.00000000 -0.00448530
v -0.07495648 0.00008818 -0.00440080
v -0.07442910 0.00000000 -0.00473004
v -0.07448796 0.00002522 -0.00470588
v -0.07424474 0.00001546 -0.00478396
v -0.07436818 0.00002040 -0.00474960
v -0.07430726 0.00000000 -0.00476916
v -0.07418220 0.00000000 -0.00479876
v -0.07411852 0.00001038 -0.00480872
v -0.07405482 0.00000000 -0.00481868
v -0.07399044 0.00000524 -0.00482372
v -0.07392604 0.00000000 -0.00482874
v -0.07454684 0.00000000 -0.00468172
v -0.07504580 0.00000000 -0.00431630
v -0.07511806 0.00010116 -0.00421936
v -0.07519032 0.00000000 -0.00412242
v -0.07524348 0.00011124 -0.00401582
v -0.07529664 0.00000000 -0.00390922
v -0.07532916 0.00011812 -0.00379602
v -0.07536168 0.00000000 -0.00368282
v -0.07537262 0.00012162 -0.00356626
v -0.07538356 0.00717562 -0.00344970
v -0.07476666 0.00833308 -0.00455890
v -0.07486718 0.00825626 -0.00448530
v -0.07465964 0.00840156 -0.00462454
v -0.07442910 0.00851166 -0.00473004
v -0.07430726 0.00855246 -0.00476916
v -0.07418220 0.00858338 -0.00479876
v -0.07405482 0.00860414 -0.00481868
v -0.07392604 0.00861464 -0.00482874
v -0.07454684 0.00846124 -0.00468172
v -0.07536168 0.00741886 -0.00368280
v -0.07529664 0.00765512 -0.00390922
v -0.07504580 0.00807992 -0.00431630
v -0.07519032 0.00787760 -0.00412242
v -0.07538356 0.00000000 -0.00002410
v -0.07536168 0.00000000 0.00363460
v -0.07529664 0.00000000 0.00386100
v -0.07519032 0.00000000 0.00407420
v -0.07504580 0.00000000 0.00426810
v -0.07486718 0.00000000 0.00443708
v -0.07481692 0.00003840 0.00447390
v -0.07476666 0.00000000 0.00451070
v -0.07465964 0.00000000 0.00457632
v -0.07454684 0.00000000 0.00463352
v -0.07442910 0.00000000 0.00468182
v -0.07436818 0.00002040 0.00470138
v -0.07430726 0.00000000 0.00472094
v -0.07424474 0.00001544 0.00473574
v -0.07418220 0.00000000 0.00475056
v -0.07405482 0.00000000 0.00477046
v -0.07392604 0.00000000 0.00478052
v -0.07538356 0.00717562 0.00340150
v -0.07536168 0.00741886 0.00363460
v -0.07529664 0.00765512 0.00386100
v -0.07519032 0.00787760 0.00407422
v -0.07504580 0.00807992 0.00426810
v -0.07486718 0.00825626 0.00443708
v -0.07476666 0.00833308 0.00451070
v -0.07465964 0.00840156 0.00457634
v -0.07454684 0.00846124 0.00463352
v -0.07442910 0.00851166 0.00468182
v -0.07430726 0.00855246 0.00472094
v -0.07418220 0.00858336 0.00475056
v -0.07405482 0.00860414 0.00477046
v -0.07392604 0.00861464 0.00478052
v -0.06794042 0.00406032 0.00501724
v -0.06195480 -0.00910866 -0.00530216
v -0.06195480 -0.00910866 -0.00049752
v -0.05038356 -0.00958615 -0.00575974
v -0.05596918 -0.00455432 -0.00553886
v -0.06195480 -0.00910866 0.00525394
v -0.06195480 -0.00049400 0.00525394
v -0.05596918 -0.00504834 0.00549064
v -0.05038356 -0.00958615 0.00571152
v -0.06195480 0.00049400 -0.00530216
v -0.06195480 0.00910866 -0.00530214
v -0.05038356 0.00001651 -0.00575974
v -0.05596918 0.00504834 -0.00553886
v -0.05038356 0.00929831 -0.00575974
v -0.05038356 0.00958615 -0.00575974
v -0.05038356 0.00958615 -0.00556757
v -0.06195480 0.00910864 0.00044930
v -0.06195480 0.00910864 0.00525394
v -0.05596918 0.00455432 0.00549064
v -0.05038356 0.00030435 0.00571152
v -0.05038356 0.00958615 0.00571152
f 8 9 15
f 1 8 42
f 9 10 45
f 3 52 4
f 2 7 47
f 3 2 51
f 5 4 54
f 5 56 6
f 7 1 57
f 10 11 58
f 11 12 60
f 12 13 62
f 13 14 64
f 7 22 1
f 2 23 7
f 3 4 24
f 3 23 2
f 5 25 4
f 5 6 26
f 8 29 9
f 9 18 10
f 1 21 8
f 10 17 11
f 11 19 12
f 12 20 13
f 13 30 14
f 113 27 6
f 10 58 46
f 1 41 57
f 1 42 41
f 8 15 43
f 8 43 44
f 8 44 42
f 9 45 15
f 10 46 45
f 7 57 48
f 2 47 50
f 7 48 47
f 3 51 49
f 3 49 52
f 2 50 51
f 4 52 53
f 4 53 54
f 5 54 55
f 5 55 56
f 11 59 58
f 11 60 59
f 12 61 60
f 12 62 61
f 13 63 62
f 13 64 63
f 14 65 64
f 6 56 16
f 112 6 16
f 112 113 6
f 16 56 120
f 112 16 120
f 11 17 19
f 10 18 17
f 9 28 18
f 12 19 20
f 13 20 30
f 1 22 21
f 7 23 22
f 3 24 23
f 4 25 24
f 5 26 25
f 6 27 26
f 9 29 28
f 8 21 29
f 30 20 31
f 19 32 20
f 17 33 19
f 18 34 17
f 18 28 35
f 28 29 87
f 21 36 29
f 22 37 21
f 24 25 94
f 22 23 38
f 24 92 23
f 26 39 25
f 26 27 40
f 14 30 80
f 20 81 31
f 20 32 81
f 19 82 32
f 19 33 82
f 18 84 34
f 17 83 33
f 17 34 83
f 18 35 84
f 28 85 35
f 28 86 85
f 28 87 86
f 29 36 87
f 21 88 36
f 21 37 88
f 22 89 37
f 22 38 89
f 23 90 38
f 23 91 90
f 23 92 91
f 24 93 92
f 24 94 93
f 25 39 94
f 26 95 39
f 26 40 95
f 27 96 40
f 30 31 97
f 27 117 96
f 113 116 27
f 116 117 27
f 14 66 65
f 46 58 78
f 15 68 43
f 42 44 69
f 41 42 69
f 44 43 67
f 45 46 68
f 15 45 68
f 48 57 75
f 50 47 70
f 47 48 70
f 51 71 49
f 50 71 51
f 49 72 52
f 52 72 53
f 54 73 55
f 54 53 73
f 56 55 74
f 57 41 75
f 59 60 79
f 60 61 79
f 58 59 78
f 61 62 77
f 62 63 77
f 64 76 63
f 64 65 76
f 56 74 120
f 14 80 66
f 43 68 67
f 41 69 75
f 44 67 69
f 46 78 68
f 48 75 70
f 49 71 72
f 50 70 71
f 53 72 73
f 55 73 74
f 59 79 78
f 61 77 79
f 63 76 77
f 65 66 76
f 67 68 102
f 67 103 69
f 69 104 75
f 70 75 105
f 70 107 71
f 71 108 72
f 72 108 73
f 73 109 74
f 76 66 98
f 76 99 77
f 77 100 79
f 79 101 78
f 68 78 102
f 120 74 121
f 74 127 121
f 30 97 80
f 66 80 97
f 31 81 97
f 32 98 81
f 32 82 98
f 33 99 82
f 33 83 99
f 34 100 83
f 34 84 100
f 35 101 84
f 35 85 101
f 85 86 102
f 36 103 87
f 36 88 103
f 86 87 103
f 37 104 88
f 37 89 104
f 38 105 89
f 38 90 105
f 90 91 106
f 91 92 107
f 93 107 92
f 93 94 108
f 39 108 94
f 39 95 108
f 40 109 95
f 40 96 109
f 96 111 110
f 66 97 98
f 76 98 99
f 77 99 100
f 79 100 101
f 78 101 102
f 67 102 103
f 69 103 104
f 75 104 105
f 70 105 106
f 70 106 107
f 71 107 108
f 73 108 109
f 74 109 110
f 74 110 127
f 81 98 97
f 82 99 98
f 83 100 99
f 84 101 100
f 85 102 101
f 86 103 102
f 88 104 103
f 89 105 104
f 90 106 105
f 91 107 106
f 93 108 107
f 95 109 108
f 96 110 109
f 117 111 96
f 117 128 111
f 111 128 110
f 110 128 127
f 112 119 113
f 112 120 115
f 112 115 114
f 112 114 119
f 115 120 122
f 115 122 114
f 116 118 117
f 113 119 116
f 116 119 118
f 117 118 130
f 118 119 130
f 120 121 123
f 121 127 126
f 120 123 122
f 123 124 122
f 123 121 125
f 121 126 125
f 123 125 124
f 117 129 128
f 127 128 126
f 117 130 129
f 128 131 126
f 129 131 128
f 129 130 131
f 114 122 130
f 119 114 130
f 124 126 122
f 124 125 126
f 131 122 126
f 130 122 131