# https://github.com/mikedh/trimesh
v 0.02640000 0.00000000 0.00006437 0.54509804 0.71372549 0.60000000
v 0.02620877 -0.00193038 0.00006437 0.54509804 0.71372549 0.60000000
v 0.02640000 0.00000000 -0.07500000 0.54509804 0.71372549 0.60000000
v 0.02620877 0.00193038 0.00006437 0.54509804 0.71372549 0.60000000
v 0.02564542 -0.00378712 0.00006437 0.54509804 0.71372549 0.60000000
v 0.02620877 -0.00193038 -0.07500000 0.54509804 0.71372549 0.60000000
v 0.02620877 0.00193038 -0.07500000 0.54509804 0.71372549 0.60000000
v 0.02564542 0.00378712 0.00006437 0.54509804 0.71372549 0.60000000
v 0.02473062 -0.00549849 0.00006437 0.54509804 0.71372549 0.60000000
v 0.02564542 -0.00378712 -0.07500000 0.54509804 0.71372549 0.60000000
v 0.02564542 0.00378712 -0.07500000 0.54509804 0.71372549 0.60000000
v 0.02473062 0.00549849 0.00006437 0.54509804 0.71372549 0.60000000
v 0.02399154 -0.00639973 0.00006437 0.54509804 0.71372549 0.60000000
v 0.02473062 -0.00549849 -0.07500000 0.54509804 0.71372549 0.60000000
v 0.02473062 0.00549849 -0.07500000 0.54509804 0.71372549 0.60000000
v 0.02423962 0.00609931 0.00006437 0.54509804 0.71372549 0.60000000
v 0.02349538 -0.00699861 0.00006437 0.54509804 0.71372549 0.60000000
v 0.02349538 -0.00699861 -0.07500000 0.54509804 0.71372549 0.60000000
v 0.02349538 0.00699861 -0.07500000 0.54509804 0.71372549 0.60000000
v 0.02349538 0.00699861 0.00006437 0.54509804 0.71372549 0.60000000
v 0.02259608 -0.00773898 0.00006437 0.54509804 0.71372549 0.60000000
v 0.02199655 -0.00823126 -0.07500000 0.54509804 0.71372549 0.60000000
v 0.02199655 0.00823126 -0.07500000 0.54509804 0.71372549 0.60000000
v 0.02290102 0.00749090 0.00006437 0.54509804 0.71372549 0.60000000
v 0.02199655 -0.00823126 0.00006437 0.54509804 0.71372549 0.60000000
v 0.02028583 -0.00914606 -0.07500000 0.54509804 0.71372549 0.60000000
v 0.02028583 0.00914606 -0.07500000 0.54509804 0.71372549 0.60000000
v 0.02199655 0.00823126 0.00006437 0.54509804 0.71372549 0.60000000
v 0.02028583 -0.00914606 0.00006437 0.54509804 0.71372549 0.60000000
v 0.01843038 -0.00970812 -0.07500000 0.54509804 0.71372549 0.60000000
v 0.01843038 0.00970812 -0.07500000 0.54509804 0.71372549 0.60000000
v 0.02028583 0.00914606 0.00006437 0.54509804 0.71372549 0.60000000
v 0.01843038 -0.00970812 0.00006437 0.54509804 0.71372549 0.60000000
v 0.01649742 -0.00990000 -0.07500000 0.54509804 0.71372549 0.60000000
v 0.01649742 0.00990000 -0.07500000 0.54509804 0.71372549 0.60000000
v 0.01843038 0.00970812 0.00006437 0.54509804 0.71372549 0.60000000
v 0.01649742 -0.00989806 0.00006437 0.54509804 0.71372549 0.60000000
v 0.01649742 -0.00990000 -0.00000175 0.54509804 0.71372549 0.60000000
v -0.02243586 -0.00990000 -0.07500000 0.54509804 0.71372549 0.60000000
v -0.02243586 0.00990000 -0.07500000 0.54509804 0.71372549 0.60000000
v 0.01649742 0.00990000 -0.00000175 0.54509804 0.71372549 0.60000000
v 0.01649742 0.00989806 0.00006437 0.54509804 0.71372549 0.60000000
v -0.01055897 -0.00990000 0.00006437 0.54509804 0.71372549 0.60000000
v -0.02331965 -0.00979922 -0.07500000 0.54509804 0.71372549 0.60000000
v -0.02243586 -0.00990000 0.00006437 0.54509804 0.71372549 0.60000000
v -0.02296821 -0.00983992 0.00006437 0.54509804 0.71372549 0.60000000
v -0.02331965 0.00979922 -0.07500000 0.54509804 0.71372549 0.60000000
v -0.02243586 0.00990000 0.00006437 0.54509804 0.71372549 0.60000000
v -0.01055897 0.00990000 0.00006437 0.54509804 0.71372549 0.60000000
v -0.02415693 -0.00950656 -0.07500000 0.54509804 0.71372549 0.60000000
v -0.02331965 -0.00979922 0.00006437 0.54509804 0.71372549 0.60000000
v -0.02382099 -0.00962478 0.00006437 0.54509804 0.71372549 0.60000000
v -0.02415693 0.00950656 -0.07500000 0.54509804 0.71372549 0.60000000
v -0.02331965 0.00979922 0.00006437 0.54509804 0.71372549 0.60000000
v -0.02490634 -0.00903559 -0.07500000 0.54509804 0.71372549 0.60000000
v -0.02415693 -0.00950656 0.00006437 0.54509804 0.71372549 0.60000000
v -0.02490634 0.00903559 -0.07500000 0.54509804 0.71372549 0.60000000
v -0.02445669 0.00931856 0.00006437 0.54509804 0.71372549 0.60000000
v -0.02415693 0.00950656 0.00006437 0.54509804 0.71372549 0.60000000
v -0.02553171 -0.00840763 -0.07500000 0.54509804 0.71372549 0.60000000
v -0.02490634 -0.00903559 0.00006437 0.54509804 0.71372549 0.60000000
v -0.02528363 -0.00865765 0.00006437 0.54509804 0.71372549 0.60000000
v -0.02553171 0.00840763 -0.07500000 0.54509804 0.71372549 0.60000000
v -0.02490634 0.00903559 0.00006437 0.54509804 0.71372549 0.60000000
v -0.02600720 -0.00765758 -0.07500000 0.54509804 0.71372549 0.60000000
v -0.02553171 -0.00840763 0.00006437 0.54509804 0.71372549 0.60000000
v -0.02600720 0.00765758 -0.07500000 0.54509804 0.71372549 0.60000000
v -0.02572294 0.00810722 0.00006437 0.54509804 0.71372549 0.60000000
v -0.02553171 0.00840763 0.00006437 0.54509804 0.71372549 0.60000000
v -0.02629663 -0.00682030 -0.07500000 0.54509804 0.71372549 0.60000000
v -0.02600720 -0.00765758 0.00006437 0.54509804 0.71372549 0.60000000
v -0.02618293 -0.00715366 0.00006437 0.54509804 0.71372549 0.60000000
v -0.02629663 0.00682030 -0.07500000 0.54509804 0.71372549 0.60000000
v -0.02600720 0.00765758 0.00006437 0.54509804 0.71372549 0.60000000
v -0.02640000 -0.00593845 -0.07500000 0.54509804 0.71372549 0.60000000
v -0.02629663 -0.00682030 0.00006437 0.54509804 0.71372549 0.60000000
v -0.02640000 0.00593845 -0.07500000 0.54509804 0.71372549 0.60000000
v -0.02629663 0.00682030 0.00006437 0.54509804 0.71372549 0.60000000
v -0.02640000 -0.00593845 0.00006437 0.54509804 0.71372549 0.60000000
v -0.02640000 0.00593845 0.00006437 0.54509804 0.71372549 0.60000000
f 1 2 6
f 1 6 3
f 1 3 7
f 1 7 4
f 1 4 8
f 1 8 12
f 1 12 16
f 1 16 20
f 1 20 24
f 1 24 28
f 1 28 32
f 1 32 36
f 1 36 42
f 1 42 49
f 1 49 48
f 1 48 54
f 1 54 59
f 1 59 58
f 1 58 64
f 1 64 69
f 1 69 68
f 1 68 74
f 1 74 78
f 1 78 80
f 1 80 79
f 1 79 76
f 1 76 72
f 1 72 71
f 1 71 66
f 1 66 62
f 1 62 61
f 1 61 56
f 1 56 52
f 1 52 51
f 1 51 46
f 1 46 45
f 1 45 43
f 1 43 37
f 1 37 33
f 1 33 29
f 1 29 25
f 1 25 21
f 1 21 17
f 1 17 13
f 1 13 9
f 1 9 5
f 1 5 2
f 2 5 10
f 2 10 6
f 3 6 10
f 3 10 14
f 3 14 18
f 3 18 22
f 3 22 26
f 3 26 30
f 3 30 34
f 3 34 39
f 3 39 44
f 3 44 50
f 3 50 55
f 3 55 60
f 3 60 65
f 3 65 70
f 3 70 75
f 3 75 77
f 3 77 73
f 3 73 67
f 3 67 63
f 3 63 57
f 3 57 53
f 3 53 47
f 3 47 40
f 3 40 35
f 3 35 31
f 3 31 27
f 3 27 23
f 3 23 19
f 3 19 15
f 3 15 11
f 3 11 7
f 4 7 11
f 4 11 8
f 5 9 14
f 5 14 10
f 8 11 15
f 8 15 12
f 9 13 14
f 12 15 16
f 13 17 18
f 13 18 14
f 15 19 16
f 16 19 20
f 17 21 18
f 18 21 22
f 19 23 24
f 19 24 20
f 21 25 22
f 22 25 29
f 22 29 26
f 23 27 32
f 23 32 28
f 23 28 24
f 26 29 33
f 26 33 30
f 27 31 36
f 27 36 32
f 30 33 38
f 30 38 34
f 31 35 41
f 31 41 36
f 33 37 38
f 34 38 43
f 34 43 45
f 34 45 39
f 35 40 48
f 35 48 49
f 35 49 41
f 36 41 42
f 37 43 38
f 39 45 46
f 39 46 44
f 40 47 54
f 40 54 48
f 41 49 42
f 44 46 51
f 44 51 52
f 44 52 50
f 47 53 59
f 47 59 54
f 50 52 56
f 50 56 61
f 50 61 55
f 53 57 58
f 53 58 59
f 55 61 62
f 55 62 60
f 57 63 69
f 57 69 64
f 57 64 58
f 60 62 66
f 60 66 71
f 60 71 65
f 63 67 68
f 63 68 69
f 65 71 72
f 65 72 70
f 67 73 78
f 67 78 74
f 67 74 68
f 70 72 76
f 70 76 79
f 70 79 75
f 73 77 80
f 73 80 78
f 75 79 80
f 75 80 77