# https://github.com/mikedh/trimesh
v 0.02640000 0.00000000 0.04999511 0.43529412 0.89019608 0.96078431
v 0.02620813 0.00193038 0.04999511 0.43529412 0.89019608 0.96078431
v 0.02620813 -0.00193038 0.04999511 0.43529412 0.89019608 0.96078431
v 0.02628565 -0.00115901 0.00006437 0.43529412 0.89019608 0.96078431
v 0.02640000 0.00000000 0.00006437 0.43529412 0.89019608 0.96078431
v 0.02620813 0.00193038 0.00006437 0.43529412 0.89019608 0.96078431
v 0.02564606 0.00378712 0.04999511 0.43529412 0.89019608 0.96078431
v 0.02564606 -0.00378712 0.04999511 0.43529412 0.89019608 0.96078431
v 0.02587089 -0.00304481 0.00006437 0.43529412 0.89019608 0.96078431
v 0.02620813 -0.00193038 0.00006437 0.43529412 0.89019608 0.96078431
v 0.02564606 0.00378712 0.00006437 0.43529412 0.89019608 0.96078431
v 0.02473126 0.00549849 0.04999511 0.43529412 0.89019608 0.96078431
v 0.02473126 -0.00549849 0.04999511 0.43529412 0.89019608 0.96078431
v 0.02564606 -0.00378712 0.00006437 0.43529412 0.89019608 0.96078431
v 0.02473126 0.00549849 0.00006437 0.43529412 0.89019608 0.96078431
v 0.02349861 0.00699861 0.04999511 0.43529412 0.89019608 0.96078431
v 0.02423898 0.00609931 0.00006437 0.43529412 0.89019608 0.96078431
v 0.02349861 -0.00699861 0.04999511 0.43529412 0.89019608 0.96078431
v 0.02399090 -0.00639973 0.00006437 0.43529412 0.89019608 0.96078431
v 0.02473126 -0.00549849 0.00006437 0.43529412 0.89019608 0.96078431
v 0.02199849 0.00823126 0.04999511 0.43529412 0.89019608 0.96078431
v 0.02349861 0.00699861 0.00006437 0.43529412 0.89019608 0.96078431
v 0.02289972 0.00749090 0.00006437 0.43529412 0.89019608 0.96078431
v 0.02199849 -0.00823126 0.04999511 0.43529412 0.89019608 0.96078431
v 0.02259931 -0.00773898 0.00006437 0.43529412 0.89019608 0.96078431
v 0.02349861 -0.00699861 0.00006437 0.43529412 0.89019608 0.96078431
v 0.02028712 0.00914606 0.04999511 0.43529412 0.89019608 0.96078431
v 0.02199849 0.00823126 0.00006437 0.43529412 0.89019608 0.96078431
v 0.02028712 -0.00914606 0.04999511 0.43529412 0.89019608 0.96078431
v 0.02199849 -0.00823126 0.00006437 0.43529412 0.89019608 0.96078431
v 0.01843038 0.00970812 0.04999511 0.43529412 0.89019608 0.96078431
v 0.02028712 0.00914606 0.00006437 0.43529412 0.89019608 0.96078431
v 0.01954481 0.00937089 0.00006437 0.43529412 0.89019608 0.96078431
v 0.01843038 -0.00970812 0.04999511 0.43529412 0.89019608 0.96078431
v 0.02028712 -0.00914606 0.00006437 0.43529412 0.89019608 0.96078431
v 0.01650000 0.00990000 0.04999511 0.43529412 0.89019608 0.96078431
v 0.01843038 0.00970812 0.00006437 0.43529412 0.89019608 0.96078431
v 0.01650000 -0.00990000 0.04999511 0.43529412 0.89019608 0.96078431
v 0.01843038 -0.00970812 0.00006437 0.43529412 0.89019608 0.96078431
v 0.01456962 0.00970812 0.04999511 0.43529412 0.89019608 0.96078431
v 0.01650194 0.00989806 0.00006437 0.43529412 0.89019608 0.96078431
v 0.01456962 0.00970812 0.00006437 0.43529412 0.89019608 0.96078431
v 0.01456962 -0.00970812 0.04999511 0.43529412 0.89019608 0.96078431
v 0.01456768 -0.00970812 0.00006437 0.43529412 0.89019608 0.96078431
v 0.01650194 -0.00989806 0.00006437 0.43529412 0.89019608 0.96078431
v 0.01271288 0.00914606 0.04999511 0.43529412 0.89019608 0.96078431
v 0.01271288 0.00914606 0.00006437 0.43529412 0.89019608 0.96078431
v 0.01271288 -0.00914606 0.04999511 0.43529412 0.89019608 0.96078431
v 0.01271094 -0.00914413 0.00006437 0.43529412 0.89019608 0.96078431
v 0.01100151 0.00823126 0.04999511 0.43529412 0.89019608 0.96078431
v 0.01100151 0.00823126 0.00006437 0.43529412 0.89019608 0.96078431
v 0.01100151 -0.00823126 0.04999511 0.43529412 0.89019608 0.96078431
v 0.01100151 -0.00823126 0.00006437 0.43529412 0.89019608 0.96078431
v 0.00950139 0.00699861 0.04999511 0.43529412 0.89019608 0.96078431
v 0.00950139 0.00699861 0.00006437 0.43529412 0.89019608 0.96078431
v 0.00950139 -0.00699861 0.04999511 0.43529412 0.89019608 0.96078431
v 0.00949945 -0.00699667 0.00006437 0.43529412 0.89019608 0.96078431
v 0.00826874 0.00549849 0.04999511 0.43529412 0.89019608 0.96078431
v 0.00826874 0.00549849 0.00006437 0.43529412 0.89019608 0.96078431
v 0.00826874 -0.00549849 0.04999511 0.43529412 0.89019608 0.96078431
v 0.00826874 -0.00549849 0.00006437 0.43529412 0.89019608 0.96078431
v 0.00735394 0.00378712 0.04999511 0.43529412 0.89019608 0.96078431
v 0.00735394 0.00378712 0.00006437 0.43529412 0.89019608 0.96078431
v 0.00735394 -0.00378712 0.04999511 0.43529412 0.89019608 0.96078431
v 0.00735394 -0.00378712 0.00006437 0.43529412 0.89019608 0.96078431
v 0.00679188 0.00193038 0.04999511 0.43529412 0.89019608 0.96078431
v 0.00679188 0.00193038 0.00006437 0.43529412 0.89019608 0.96078431
v 0.00679188 -0.00193038 0.04999511 0.43529412 0.89019608 0.96078431
v 0.00679188 -0.00193038 0.00006437 0.43529412 0.89019608 0.96078431
v 0.00660000 0.00000000 0.04999511 0.43529412 0.89019608 0.96078431
v 0.00660000 0.00000000 0.00006437 0.43529412 0.89019608 0.96078431
f 1 2 7
f 1 7 12
f 1 12 16
f 1 16 21
f 1 21 27
f 1 27 31
f 1 31 36
f 1 36 40
f 1 40 46
f 1 46 50
f 1 50 54
f 1 54 58
f 1 58 62
f 1 62 66
f 1 66 70
f 1 70 68
f 1 68 64
f 1 64 60
f 1 60 56
f 1 56 52
f 1 52 48
f 1 48 43
f 1 43 38
f 1 38 34
f 1 34 29
f 1 29 24
f 1 24 18
f 1 18 13
f 1 13 8
f 1 8 3
f 1 3 4
f 1 4 5
f 1 5 6
f 1 6 2
f 2 6 11
f 2 11 7
f 3 8 9
f 3 9 10
f 3 10 4
f 4 10 9
f 4 9 14
f 4 14 20
f 4 20 19
f 4 19 26
f 4 26 25
f 4 25 30
f 4 30 35
f 4 35 39
f 4 39 45
f 4 45 44
f 4 44 49
f 4 49 53
f 4 53 57
f 4 57 61
f 4 61 65
f 4 65 69
f 4 69 71
f 4 71 67
f 4 67 63
f 4 63 59
f 4 59 55
f 4 55 51
f 4 51 47
f 4 47 42
f 4 42 41
f 4 41 37
f 4 37 33
f 4 33 32
f 4 32 28
f 4 28 23
f 4 23 22
f 4 22 17
f 4 17 15
f 4 15 11
f 4 11 6
f 4 6 5
f 7 11 15
f 7 15 12
f 8 13 20
f 8 20 14
f 8 14 9
f 12 15 17
f 12 17 16
f 13 18 19
f 13 19 20
f 16 17 22
f 16 22 23
f 16 23 21
f 18 24 25
f 18 25 26
f 18 26 19
f 21 23 28
f 21 28 32
f 21 32 27
f 24 29 35
f 24 35 30
f 24 30 25
f 27 32 33
f 27 33 31
f 29 34 39
f 29 39 35
f 31 33 37
f 31 37 36
f 34 38 39
f 36 37 41
f 36 41 42
f 36 42 40
f 38 43 44
f 38 44 45
f 38 45 39
f 40 42 47
f 40 47 46
f 43 48 44
f 44 48 49
f 46 47 51
f 46 51 50
f 48 52 53
f 48 53 49
f 50 51 55
f 50 55 54
f 52 56 53
f 53 56 57
f 54 55 59
f 54 59 58
f 56 60 57
f 57 60 61
f 58 59 63
f 58 63 62
f 60 64 65
f 60 65 61
f 62 63 67
f 62 67 66
f 64 68 69
f 64 69 65
f 66 67 71
f 66 71 70
f 68 70 71
f 68 71 69