# https://github.com/mikedh/trimesh
v -0.00660000 0.00593845 0.04999511 0.54117647 0.42352941 0.64313725
v -0.00660000 -0.00593845 0.04999511 0.54117647 0.42352941 0.64313725
v -0.00660000 0.00593845 0.00006437 0.54117647 0.42352941 0.64313725
v -0.00670078 0.00682030 0.04999511 0.54117647 0.42352941 0.64313725
v -0.00670078 -0.00682030 0.04999511 0.54117647 0.42352941 0.64313725
v -0.00670078 -0.00682030 0.00006437 0.54117647 0.42352941 0.64313725
v -0.00660194 -0.00594039 0.00006437 0.54117647 0.42352941 0.64313725
v -0.00660000 0.00592294 0.00006437 0.54117647 0.42352941 0.64313725
v -0.00670078 0.00681836 0.00006437 0.54117647 0.42352941 0.64313725
v -0.00699344 0.00765758 0.04999511 0.54117647 0.42352941 0.64313725
v -0.00699344 -0.00765758 0.04999511 0.54117647 0.42352941 0.64313725
v -0.00699344 -0.00765758 0.00006437 0.54117647 0.42352941 0.64313725
v -0.00699344 0.00765564 0.00006437 0.54117647 0.42352941 0.64313725
v -0.00746441 0.00840763 0.00006437 0.54117647 0.42352941 0.64313725
v -0.00746441 0.00840763 0.04999511 0.54117647 0.42352941 0.64313725
v -0.00746441 -0.00840763 0.04999511 0.54117647 0.42352941 0.64313725
v -0.00746635 -0.00840957 0.00006437 0.54117647 0.42352941 0.64313725
v -0.00809043 0.00903365 0.00006437 0.54117647 0.42352941 0.64313725
v -0.00809237 0.00903559 0.04999511 0.54117647 0.42352941 0.64313725
v -0.00809237 -0.00903559 0.04999511 0.54117647 0.42352941 0.64313725
v -0.00809237 -0.00903559 0.00006437 0.54117647 0.42352941 0.64313725
v -0.00884242 0.00950656 0.00006437 0.54117647 0.42352941 0.64313725
v -0.00884242 0.00950656 0.04999511 0.54117647 0.42352941 0.64313725
v -0.00884242 -0.00950656 0.04999511 0.54117647 0.42352941 0.64313725
v -0.00884436 -0.00950656 0.00006437 0.54117647 0.42352941 0.64313725
v -0.00967970 0.00979922 0.00006437 0.54117647 0.42352941 0.64313725
v -0.00967970 0.00979922 0.04999511 0.54117647 0.42352941 0.64313725
v -0.00967970 -0.00979922 0.04999511 0.54117647 0.42352941 0.64313725
v -0.00968164 -0.00979922 0.00006437 0.54117647 0.42352941 0.64313725
v -0.01056155 0.00990000 0.00006437 0.54117647 0.42352941 0.64313725
v -0.01056155 0.00990000 0.04999511 0.54117647 0.42352941 0.64313725
v -0.01056155 -0.00990000 0.04999511 0.54117647 0.42352941 0.64313725
v -0.01056155 -0.00990000 0.00006437 0.54117647 0.42352941 0.64313725
v -0.02243845 0.00990000 0.00006437 0.54117647 0.42352941 0.64313725
v -0.02243845 0.00990000 0.04999511 0.54117647 0.42352941 0.64313725
v -0.02243845 -0.00990000 0.04999511 0.54117647 0.42352941 0.64313725
v -0.02243845 -0.00990000 0.00006437 0.54117647 0.42352941 0.64313725
v -0.02332030 0.00979922 0.00006437 0.54117647 0.42352941 0.64313725
v -0.02332030 0.00979922 0.04999511 0.54117647 0.42352941 0.64313725
v -0.02332030 -0.00979922 0.04999511 0.54117647 0.42352941 0.64313725
v -0.02296756 -0.00983992 0.00006437 0.54117647 0.42352941 0.64313725
v -0.02365366 0.00968293 0.00006437 0.54117647 0.42352941 0.64313725
v -0.02415758 0.00950656 0.04999511 0.54117647 0.42352941 0.64313725
v -0.02415758 -0.00950656 0.04999511 0.54117647 0.42352941 0.64313725
v -0.02382228 -0.00962478 0.00006437 0.54117647 0.42352941 0.64313725
v -0.02332030 -0.00979922 0.00006437 0.54117647 0.42352941 0.64313725
v -0.02415758 0.00950656 0.00006437 0.54117647 0.42352941 0.64313725
v -0.02490763 0.00903559 0.04999511 0.54117647 0.42352941 0.64313725
v -0.02445799 0.00931856 0.00006437 0.54117647 0.42352941 0.64313725
v -0.02490763 -0.00903559 0.04999511 0.54117647 0.42352941 0.64313725
v -0.02415758 -0.00950656 0.00006437 0.54117647 0.42352941 0.64313725
v -0.02553559 0.00840763 0.04999511 0.54117647 0.42352941 0.64313725
v -0.02490763 0.00903559 0.00006437 0.54117647 0.42352941 0.64313725
v -0.02553559 -0.00840763 0.04999511 0.54117647 0.42352941 0.64313725
v -0.02490763 -0.00903559 0.00006437 0.54117647 0.42352941 0.64313725
v -0.02600656 0.00765758 0.04999511 0.54117647 0.42352941 0.64313725
v -0.02553559 0.00840763 0.00006437 0.54117647 0.42352941 0.64313725
v -0.02600656 -0.00765758 0.04999511 0.54117647 0.42352941 0.64313725
v -0.02581856 -0.00795799 0.00006437 0.54117647 0.42352941 0.64313725
v -0.02553559 -0.00840763 0.00006437 0.54117647 0.42352941 0.64313725
v -0.02629922 0.00682030 0.04999511 0.54117647 0.42352941 0.64313725
v -0.02600656 0.00765758 0.00006437 0.54117647 0.42352941 0.64313725
v -0.02612478 0.00732228 0.00006437 0.54117647 0.42352941 0.64313725
v -0.02629922 -0.00682030 0.04999511 0.54117647 0.42352941 0.64313725
v -0.02618293 -0.00715366 0.00006437 0.54117647 0.42352941 0.64313725
v -0.02600656 -0.00765758 0.00006437 0.54117647 0.42352941 0.64313725
v -0.02640000 0.00593845 0.04999511 0.54117647 0.42352941 0.64313725
v -0.02629922 0.00682030 0.00006437 0.54117647 0.42352941 0.64313725
v -0.02633992 0.00646756 0.00006437 0.54117647 0.42352941 0.64313725
v -0.02640000 -0.00593845 0.04999511 0.54117647 0.42352941 0.64313725
v -0.02629922 -0.00682030 0.00006437 0.54117647 0.42352941 0.64313725
v -0.02640000 0.00593845 0.00006437 0.54117647 0.42352941 0.64313725
v -0.02640000 -0.00593845 0.00006437 0.54117647 0.42352941 0.64313725
f 1 2 8
f 1 8 3
f 1 3 4
f 1 4 10
f 1 10 15
f 1 15 19
f 1 19 23
f 1 23 27
f 1 27 31
f 1 31 35
f 1 35 39
f 1 39 43
f 1 43 48
f 1 48 52
f 1 52 56
f 1 56 61
f 1 61 67
f 1 67 70
f 1 70 64
f 1 64 58
f 1 58 54
f 1 54 50
f 1 50 44
f 1 44 40
f 1 40 36
f 1 36 32
f 1 32 28
f 1 28 24
f 1 24 20
f 1 20 16
f 1 16 11
f 1 11 5
f 1 5 2
f 2 5 6
f 2 6 7
f 2 7 8
f 3 8 7
f 3 7 6
f 3 6 12
f 3 12 17
f 3 17 21
f 3 21 25
f 3 25 29
f 3 29 33
f 3 33 37
f 3 37 41
f 3 41 46
f 3 46 45
f 3 45 51
f 3 51 55
f 3 55 60
f 3 60 59
f 3 59 66
f 3 66 65
f 3 65 71
f 3 71 73
f 3 73 72
f 3 72 69
f 3 69 68
f 3 68 63
f 3 63 62
f 3 62 57
f 3 57 53
f 3 53 49
f 3 49 47
f 3 47 42
f 3 42 38
f 3 38 34
f 3 34 30
f 3 30 26
f 3 26 22
f 3 22 18
f 3 18 14
f 3 14 13
f 3 13 9
f 3 9 4
f 4 9 13
f 4 13 10
f 5 11 12
f 5 12 6
f 10 13 14
f 10 14 15
f 11 16 12
f 12 16 17
f 14 18 19
f 14 19 15
f 16 20 21
f 16 21 17
f 18 22 19
f 19 22 23
f 20 24 21
f 21 24 25
f 22 26 27
f 22 27 23
f 24 28 29
f 24 29 25
f 26 30 31
f 26 31 27
f 28 32 33
f 28 33 29
f 30 34 35
f 30 35 31
f 32 36 37
f 32 37 33
f 34 38 39
f 34 39 35
f 36 40 41
f 36 41 37
f 38 42 39
f 39 42 43
f 40 44 45
f 40 45 46
f 40 46 41
f 42 47 43
f 43 47 49
f 43 49 48
f 44 50 55
f 44 55 51
f 44 51 45
f 48 49 53
f 48 53 57
f 48 57 52
f 50 54 60
f 50 60 55
f 52 57 62
f 52 62 56
f 54 58 59
f 54 59 60
f 56 62 63
f 56 63 61
f 58 64 65
f 58 65 66
f 58 66 59
f 61 63 68
f 61 68 69
f 61 69 67
f 64 70 73
f 64 73 71
f 64 71 65
f 67 69 72
f 67 72 73
f 67 73 70