# https://github.com/mikedh/trimesh

o geometry_0
v 0.02640000 0.00000000 0.00006437 0.54509804 0.71372549 0.60000000
v 0.02620877 -0.00193038 0.00006437 0.54509804 0.71372549 0.60000000
v 0.02640000 0.00000000 -0.07500000 0.54509804 0.71372549 0.60000000
v 0.02620877 0.00193038 0.00006437 0.54509804 0.71372549 0.60000000
v 0.02564542 -0.00378712 0.00006437 0.54509804 0.71372549 0.60000000
v 0.02620877 -0.00193038 -0.07500000 0.54509804 0.71372549 0.60000000
v 0.02620877 0.00193038 -0.07500000 0.54509804 0.71372549 0.60000000
v 0.02564542 0.00378712 0.00006437 0.54509804 0.71372549 0.60000000
v 0.02473062 -0.00549849 0.00006437 0.54509804 0.71372549 0.60000000
v 0.02564542 -0.00378712 -0.07500000 0.54509804 0.71372549 0.60000000
v 0.02564542 0.00378712 -0.07500000 0.54509804 0.71372549 0.60000000
v 0.02473062 0.00549849 0.00006437 0.54509804 0.71372549 0.60000000
v 0.02399154 -0.00639973 0.00006437 0.54509804 0.71372549 0.60000000
v 0.02473062 -0.00549849 -0.07500000 0.54509804 0.71372549 0.60000000
v 0.02473062 0.00549849 -0.07500000 0.54509804 0.71372549 0.60000000
v 0.02423962 0.00609931 0.00006437 0.54509804 0.71372549 0.60000000
v 0.02349538 -0.00699861 0.00006437 0.54509804 0.71372549 0.60000000
v 0.02349538 -0.00699861 -0.07500000 0.54509804 0.71372549 0.60000000
v 0.02349538 0.00699861 -0.07500000 0.54509804 0.71372549 0.60000000
v 0.02349538 0.00699861 0.00006437 0.54509804 0.71372549 0.60000000
v 0.02259608 -0.00773898 0.00006437 0.54509804 0.71372549 0.60000000
v 0.02199655 -0.00823126 -0.07500000 0.54509804 0.71372549 0.60000000
v 0.02199655 0.00823126 -0.07500000 0.54509804 0.71372549 0.60000000
v 0.02290102 0.00749090 0.00006437 0.54509804 0.71372549 0.60000000
v 0.02199655 -0.00823126 0.00006437 0.54509804 0.71372549 0.60000000
v 0.02028583 -0.00914606 -0.07500000 0.54509804 0.71372549 0.60000000
v 0.02028583 0.00914606 -0.07500000 0.54509804 0.71372549 0.60000000
v 0.02199655 0.00823126 0.00006437 0.54509804 0.71372549 0.60000000
v 0.02028583 -0.00914606 0.00006437 0.54509804 0.71372549 0.60000000
v 0.01843038 -0.00970812 -0.07500000 0.54509804 0.71372549 0.60000000
v 0.01843038 0.00970812 -0.07500000 0.54509804 0.71372549 0.60000000
v 0.02028583 0.00914606 0.00006437 0.54509804 0.71372549 0.60000000
v 0.01843038 -0.00970812 0.00006437 0.54509804 0.71372549 0.60000000
v 0.01649742 -0.00990000 -0.07500000 0.54509804 0.71372549 0.60000000
v 0.01649742 0.00990000 -0.07500000 0.54509804 0.71372549 0.60000000
v 0.01843038 0.00970812 0.00006437 0.54509804 0.71372549 0.60000000
v 0.01649742 -0.00989806 0.00006437 0.54509804 0.71372549 0.60000000
v 0.01649742 -0.00990000 -0.00000175 0.54509804 0.71372549 0.60000000
v -0.02243586 -0.00990000 -0.07500000 0.54509804 0.71372549 0.60000000
v -0.02243586 0.00990000 -0.07500000 0.54509804 0.71372549 0.60000000
v 0.01649742 0.00990000 -0.00000175 0.54509804 0.71372549 0.60000000
v 0.01649742 0.00989806 0.00006437 0.54509804 0.71372549 0.60000000
v -0.01055897 -0.00990000 0.00006437 0.54509804 0.71372549 0.60000000
v -0.02331965 -0.00979922 -0.07500000 0.54509804 0.71372549 0.60000000
v -0.02243586 -0.00990000 0.00006437 0.54509804 0.71372549 0.60000000
v -0.02296821 -0.00983992 0.00006437 0.54509804 0.71372549 0.60000000
v -0.02331965 0.00979922 -0.07500000 0.54509804 0.71372549 0.60000000
v -0.02243586 0.00990000 0.00006437 0.54509804 0.71372549 0.60000000
v -0.01055897 0.00990000 0.00006437 0.54509804 0.71372549 0.60000000
v -0.02415693 -0.00950656 -0.07500000 0.54509804 0.71372549 0.60000000
v -0.02331965 -0.00979922 0.00006437 0.54509804 0.71372549 0.60000000
v -0.02382099 -0.00962478 0.00006437 0.54509804 0.71372549 0.60000000
v -0.02415693 0.00950656 -0.07500000 0.54509804 0.71372549 0.60000000
v -0.02331965 0.00979922 0.00006437 0.54509804 0.71372549 0.60000000
v -0.02490634 -0.00903559 -0.07500000 0.54509804 0.71372549 0.60000000
v -0.02415693 -0.00950656 0.00006437 0.54509804 0.71372549 0.60000000
v -0.02490634 0.00903559 -0.07500000 0.54509804 0.71372549 0.60000000
v -0.02445669 0.00931856 0.00006437 0.54509804 0.71372549 0.60000000
v -0.02415693 0.00950656 0.00006437 0.54509804 0.71372549 0.60000000
v -0.02553171 -0.00840763 -0.07500000 0.54509804 0.71372549 0.60000000
v -0.02490634 -0.00903559 0.00006437 0.54509804 0.71372549 0.60000000
v -0.02528363 -0.00865765 0.00006437 0.54509804 0.71372549 0.60000000
v -0.02553171 0.00840763 -0.07500000 0.54509804 0.71372549 0.60000000
v -0.02490634 0.00903559 0.00006437 0.54509804 0.71372549 0.60000000
v -0.02600720 -0.00765758 -0.07500000 0.54509804 0.71372549 0.60000000
v -0.02553171 -0.00840763 0.00006437 0.54509804 0.71372549 0.60000000
v -0.02600720 0.00765758 -0.07500000 0.54509804 0.71372549 0.60000000
v -0.02572294 0.00810722 0.00006437 0.54509804 0.71372549 0.60000000
v -0.02553171 0.00840763 0.00006437 0.54509804 0.71372549 0.60000000
v -0.02629663 -0.00682030 -0.07500000 0.54509804 0.71372549 0.60000000
v -0.02600720 -0.00765758 0.00006437 0.54509804 0.71372549 0.60000000
v -0.02618293 -0.00715366 0.00006437 0.54509804 0.71372549 0.60000000
v -0.02629663 0.00682030 -0.07500000 0.54509804 0.71372549 0.60000000
v -0.02600720 0.00765758 0.00006437 0.54509804 0.71372549 0.60000000
v -0.02640000 -0.00593845 -0.07500000 0.54509804 0.71372549 0.60000000
v -0.02629663 -0.00682030 0.00006437 0.54509804 0.71372549 0.60000000
v -0.02640000 0.00593845 -0.07500000 0.54509804 0.71372549 0.60000000
v -0.02629663 0.00682030 0.00006437 0.54509804 0.71372549 0.60000000
v -0.02640000 -0.00593845 0.00006437 0.54509804 0.71372549 0.60000000
v -0.02640000 0.00593845 0.00006437 0.54509804 0.71372549 0.60000000
f 1 2 6
f 1 6 3
f 1 3 7
f 1 7 4
f 1 4 8
f 1 8 12
f 1 12 16
f 1 16 20
f 1 20 24
f 1 24 28
f 1 28 32
f 1 32 36
f 1 36 42
f 1 42 49
f 1 49 48
f 1 48 54
f 1 54 59
f 1 59 58
f 1 58 64
f 1 64 69
f 1 69 68
f 1 68 74
f 1 74 78
f 1 78 80
f 1 80 79
f 1 79 76
f 1 76 72
f 1 72 71
f 1 71 66
f 1 66 62
f 1 62 61
f 1 61 56
f 1 56 52
f 1 52 51
f 1 51 46
f 1 46 45
f 1 45 43
f 1 43 37
f 1 37 33
f 1 33 29
f 1 29 25
f 1 25 21
f 1 21 17
f 1 17 13
f 1 13 9
f 1 9 5
f 1 5 2
f 2 5 10
f 2 10 6
f 3 6 10
f 3 10 14
f 3 14 18
f 3 18 22
f 3 22 26
f 3 26 30
f 3 30 34
f 3 34 39
f 3 39 44
f 3 44 50
f 3 50 55
f 3 55 60
f 3 60 65
f 3 65 70
f 3 70 75
f 3 75 77
f 3 77 73
f 3 73 67
f 3 67 63
f 3 63 57
f 3 57 53
f 3 53 47
f 3 47 40
f 3 40 35
f 3 35 31
f 3 31 27
f 3 27 23
f 3 23 19
f 3 19 15
f 3 15 11
f 3 11 7
f 4 7 11
f 4 11 8
f 5 9 14
f 5 14 10
f 8 11 15
f 8 15 12
f 9 13 14
f 12 15 16
f 13 17 18
f 13 18 14
f 15 19 16
f 16 19 20
f 17 21 18
f 18 21 22
f 19 23 24
f 19 24 20
f 21 25 22
f 22 25 29
f 22 29 26
f 23 27 32
f 23 32 28
f 23 28 24
f 26 29 33
f 26 33 30
f 27 31 36
f 27 36 32
f 30 33 38
f 30 38 34
f 31 35 41
f 31 41 36
f 33 37 38
f 34 38 43
f 34 43 45
f 34 45 39
f 35 40 48
f 35 48 49
f 35 49 41
f 36 41 42
f 37 43 38
f 39 45 46
f 39 46 44
f 40 47 54
f 40 54 48
f 41 49 42
f 44 46 51
f 44 51 52
f 44 52 50
f 47 53 59
f 47 59 54
f 50 52 56
f 50 56 61
f 50 61 55
f 53 57 58
f 53 58 59
f 55 61 62
f 55 62 60
f 57 63 69
f 57 69 64
f 57 64 58
f 60 62 66
f 60 66 71
f 60 71 65
f 63 67 68
f 63 68 69
f 65 71 72
f 65 72 70
f 67 73 78
f 67 78 74
f 67 74 68
f 70 72 76
f 70 76 79
f 70 79 75
f 73 77 80
f 73 80 78
f 75 79 80
f 75 80 77

o geometry_1
v -0.00660000 0.00593845 0.04999511 0.54117647 0.42352941 0.64313725
v -0.00660000 -0.00593845 0.04999511 0.54117647 0.42352941 0.64313725
v -0.00660000 0.00593845 0.00006437 0.54117647 0.42352941 0.64313725
v -0.00670078 0.00682030 0.04999511 0.54117647 0.42352941 0.64313725
v -0.00670078 -0.00682030 0.04999511 0.54117647 0.42352941 0.64313725
v -0.00670078 -0.00682030 0.00006437 0.54117647 0.42352941 0.64313725
v -0.00660194 -0.00594039 0.00006437 0.54117647 0.42352941 0.64313725
v -0.00660000 0.00592294 0.00006437 0.54117647 0.42352941 0.64313725
v -0.00670078 0.00681836 0.00006437 0.54117647 0.42352941 0.64313725
v -0.00699344 0.00765758 0.04999511 0.54117647 0.42352941 0.64313725
v -0.00699344 -0.00765758 0.04999511 0.54117647 0.42352941 0.64313725
v -0.00699344 -0.00765758 0.00006437 0.54117647 0.42352941 0.64313725
v -0.00699344 0.00765564 0.00006437 0.54117647 0.42352941 0.64313725
v -0.00746441 0.00840763 0.00006437 0.54117647 0.42352941 0.64313725
v -0.00746441 0.00840763 0.04999511 0.54117647 0.42352941 0.64313725
v -0.00746441 -0.00840763 0.04999511 0.54117647 0.42352941 0.64313725
v -0.00746635 -0.00840957 0.00006437 0.54117647 0.42352941 0.64313725
v -0.00809043 0.00903365 0.00006437 0.54117647 0.42352941 0.64313725
v -0.00809237 0.00903559 0.04999511 0.54117647 0.42352941 0.64313725
v -0.00809237 -0.00903559 0.04999511 0.54117647 0.42352941 0.64313725
v -0.00809237 -0.00903559 0.00006437 0.54117647 0.42352941 0.64313725
v -0.00884242 0.00950656 0.00006437 0.54117647 0.42352941 0.64313725
v -0.00884242 0.00950656 0.04999511 0.54117647 0.42352941 0.64313725
v -0.00884242 -0.00950656 0.04999511 0.54117647 0.42352941 0.64313725
v -0.00884436 -0.00950656 0.00006437 0.54117647 0.42352941 0.64313725
v -0.00967970 0.00979922 0.00006437 0.54117647 0.42352941 0.64313725
v -0.00967970 0.00979922 0.04999511 0.54117647 0.42352941 0.64313725
v -0.00967970 -0.00979922 0.04999511 0.54117647 0.42352941 0.64313725
v -0.00968164 -0.00979922 0.00006437 0.54117647 0.42352941 0.64313725
v -0.01056155 0.00990000 0.00006437 0.54117647 0.42352941 0.64313725
v -0.01056155 0.00990000 0.04999511 0.54117647 0.42352941 0.64313725
v -0.01056155 -0.00990000 0.04999511 0.54117647 0.42352941 0.64313725
v -0.01056155 -0.00990000 0.00006437 0.54117647 0.42352941 0.64313725
v -0.02243845 0.00990000 0.00006437 0.54117647 0.42352941 0.64313725
v -0.02243845 0.00990000 0.04999511 0.54117647 0.42352941 0.64313725
v -0.02243845 -0.00990000 0.04999511 0.54117647 0.42352941 0.64313725
v -0.02243845 -0.00990000 0.00006437 0.54117647 0.42352941 0.64313725
v -0.02332030 0.00979922 0.00006437 0.54117647 0.42352941 0.64313725
v -0.02332030 0.00979922 0.04999511 0.54117647 0.42352941 0.64313725
v -0.02332030 -0.00979922 0.04999511 0.54117647 0.42352941 0.64313725
v -0.02296756 -0.00983992 0.00006437 0.54117647 0.42352941 0.64313725
v -0.02365366 0.00968293 0.00006437 0.54117647 0.42352941 0.64313725
v -0.02415758 0.00950656 0.04999511 0.54117647 0.42352941 0.64313725
v -0.02415758 -0.00950656 0.04999511 0.54117647 0.42352941 0.64313725
v -0.02382228 -0.00962478 0.00006437 0.54117647 0.42352941 0.64313725
v -0.02332030 -0.00979922 0.00006437 0.54117647 0.42352941 0.64313725
v -0.02415758 0.00950656 0.00006437 0.54117647 0.42352941 0.64313725
v -0.02490763 0.00903559 0.04999511 0.54117647 0.42352941 0.64313725
v -0.02445799 0.00931856 0.00006437 0.54117647 0.42352941 0.64313725
v -0.02490763 -0.00903559 0.04999511 0.54117647 0.42352941 0.64313725
v -0.02415758 -0.00950656 0.00006437 0.54117647 0.42352941 0.64313725
v -0.02553559 0.00840763 0.04999511 0.54117647 0.42352941 0.64313725
v -0.02490763 0.00903559 0.00006437 0.54117647 0.42352941 0.64313725
v -0.02553559 -0.00840763 0.04999511 0.54117647 0.42352941 0.64313725
v -0.02490763 -0.00903559 0.00006437 0.54117647 0.42352941 0.64313725
v -0.02600656 0.00765758 0.04999511 0.54117647 0.42352941 0.64313725
v -0.02553559 0.00840763 0.00006437 0.54117647 0.42352941 0.64313725
v -0.02600656 -0.00765758 0.04999511 0.54117647 0.42352941 0.64313725
v -0.02581856 -0.00795799 0.00006437 0.54117647 0.42352941 0.64313725
v -0.02553559 -0.00840763 0.00006437 0.54117647 0.42352941 0.64313725
v -0.02629922 0.00682030 0.04999511 0.54117647 0.42352941 0.64313725
v -0.02600656 0.00765758 0.00006437 0.54117647 0.42352941 0.64313725
v -0.02612478 0.00732228 0.00006437 0.54117647 0.42352941 0.64313725
v -0.02629922 -0.00682030 0.04999511 0.54117647 0.42352941 0.64313725
v -0.02618293 -0.00715366 0.00006437 0.54117647 0.42352941 0.64313725
v -0.02600656 -0.00765758 0.00006437 0.54117647 0.42352941 0.64313725
v -0.02640000 0.00593845 0.04999511 0.54117647 0.42352941 0.64313725
v -0.02629922 0.00682030 0.00006437 0.54117647 0.42352941 0.64313725
v -0.02633992 0.00646756 0.00006437 0.54117647 0.42352941 0.64313725
v -0.02640000 -0.00593845 0.04999511 0.54117647 0.42352941 0.64313725
v -0.02629922 -0.00682030 0.00006437 0.54117647 0.42352941 0.64313725
v -0.02640000 0.00593845 0.00006437 0.54117647 0.42352941 0.64313725
v -0.02640000 -0.00593845 0.00006437 0.54117647 0.42352941 0.64313725
f 81 82 88
f 81 88 83
f 81 83 84
f 81 84 90
f 81 90 95
f 81 95 99
f 81 99 103
f 81 103 107
f 81 107 111
f 81 111 115
f 81 115 119
f 81 119 123
f 81 123 128
f 81 128 132
f 81 132 136
f 81 136 141
f 81 141 147
f 81 147 150
f 81 150 144
f 81 144 138
f 81 138 134
f 81 134 130
f 81 130 124
f 81 124 120
f 81 120 116
f 81 116 112
f 81 112 108
f 81 108 104
f 81 104 100
f 81 100 96
f 81 96 91
f 81 91 85
f 81 85 82
f 82 85 86
f 82 86 87
f 82 87 88
f 83 88 87
f 83 87 86
f 83 86 92
f 83 92 97
f 83 97 101
f 83 101 105
f 83 105 109
f 83 109 113
f 83 113 117
f 83 117 121
f 83 121 126
f 83 126 125
f 83 125 131
f 83 131 135
f 83 135 140
f 83 140 139
f 83 139 146
f 83 146 145
f 83 145 151
f 83 151 153
f 83 153 152
f 83 152 149
f 83 149 148
f 83 148 143
f 83 143 142
f 83 142 137
f 83 137 133
f 83 133 129
f 83 129 127
f 83 127 122
f 83 122 118
f 83 118 114
f 83 114 110
f 83 110 106
f 83 106 102
f 83 102 98
f 83 98 94
f 83 94 93
f 83 93 89
f 83 89 84
f 84 89 93
f 84 93 90
f 85 91 92
f 85 92 86
f 90 93 94
f 90 94 95
f 91 96 92
f 92 96 97
f 94 98 99
f 94 99 95
f 96 100 101
f 96 101 97
f 98 102 99
f 99 102 103
f 100 104 101
f 101 104 105
f 102 106 107
f 102 107 103
f 104 108 109
f 104 109 105
f 106 110 111
f 106 111 107
f 108 112 113
f 108 113 109
f 110 114 115
f 110 115 111
f 112 116 117
f 112 117 113
f 114 118 119
f 114 119 115
f 116 120 121
f 116 121 117
f 118 122 119
f 119 122 123
f 120 124 125
f 120 125 126
f 120 126 121
f 122 127 123
f 123 127 129
f 123 129 128
f 124 130 135
f 124 135 131
f 124 131 125
f 128 129 133
f 128 133 137
f 128 137 132
f 130 134 140
f 130 140 135
f 132 137 142
f 132 142 136
f 134 138 139
f 134 139 140
f 136 142 143
f 136 143 141
f 138 144 145
f 138 145 146
f 138 146 139
f 141 143 148
f 141 148 149
f 141 149 147
f 144 150 153
f 144 153 151
f 144 151 145
f 147 149 152
f 147 152 153
f 147 153 150

o geometry_2
v 0.02640000 0.00000000 0.04999511 0.43529412 0.89019608 0.96078431
v 0.02620813 0.00193038 0.04999511 0.43529412 0.89019608 0.96078431
v 0.02620813 -0.00193038 0.04999511 0.43529412 0.89019608 0.96078431
v 0.02628565 -0.00115901 0.00006437 0.43529412 0.89019608 0.96078431
v 0.02640000 0.00000000 0.00006437 0.43529412 0.89019608 0.96078431
v 0.02620813 0.00193038 0.00006437 0.43529412 0.89019608 0.96078431
v 0.02564606 0.00378712 0.04999511 0.43529412 0.89019608 0.96078431
v 0.02564606 -0.00378712 0.04999511 0.43529412 0.89019608 0.96078431
v 0.02587089 -0.00304481 0.00006437 0.43529412 0.89019608 0.96078431
v 0.02620813 -0.00193038 0.00006437 0.43529412 0.89019608 0.96078431
v 0.02564606 0.00378712 0.00006437 0.43529412 0.89019608 0.96078431
v 0.02473126 0.00549849 0.04999511 0.43529412 0.89019608 0.96078431
v 0.02473126 -0.00549849 0.04999511 0.43529412 0.89019608 0.96078431
v 0.02564606 -0.00378712 0.00006437 0.43529412 0.89019608 0.96078431
v 0.02473126 0.00549849 0.00006437 0.43529412 0.89019608 0.96078431
v 0.02349861 0.00699861 0.04999511 0.43529412 0.89019608 0.96078431
v 0.02423898 0.00609931 0.00006437 0.43529412 0.89019608 0.96078431
v 0.02349861 -0.00699861 0.04999511 0.43529412 0.89019608 0.96078431
v 0.02399090 -0.00639973 0.00006437 0.43529412 0.89019608 0.96078431
v 0.02473126 -0.00549849 0.00006437 0.43529412 0.89019608 0.96078431
v 0.02199849 0.00823126 0.04999511 0.43529412 0.89019608 0.96078431
v 0.02349861 0.00699861 0.00006437 0.43529412 0.89019608 0.96078431
v 0.02289972 0.00749090 0.00006437 0.43529412 0.89019608 0.96078431
v 0.02199849 -0.00823126 0.04999511 0.43529412 0.89019608 0.96078431
v 0.02259931 -0.00773898 0.00006437 0.43529412 0.89019608 0.96078431
v 0.02349861 -0.00699861 0.00006437 0.43529412 0.89019608 0.96078431
v 0.02028712 0.00914606 0.04999511 0.43529412 0.89019608 0.96078431
v 0.02199849 0.00823126 0.00006437 0.43529412 0.89019608 0.96078431
v 0.02028712 -0.00914606 0.04999511 0.43529412 0.89019608 0.96078431
v 0.02199849 -0.00823126 0.00006437 0.43529412 0.89019608 0.96078431
v 0.01843038 0.00970812 0.04999511 0.43529412 0.89019608 0.96078431
v 0.02028712 0.00914606 0.00006437 0.43529412 0.89019608 0.96078431
v 0.01954481 0.00937089 0.00006437 0.43529412 0.89019608 0.96078431
v 0.01843038 -0.00970812 0.04999511 0.43529412 0.89019608 0.96078431
v 0.02028712 -0.00914606 0.00006437 0.43529412 0.89019608 0.96078431
v 0.01650000 0.00990000 0.04999511 0.43529412 0.89019608 0.96078431
v 0.01843038 0.00970812 0.00006437 0.43529412 0.89019608 0.96078431
v 0.01650000 -0.00990000 0.04999511 0.43529412 0.89019608 0.96078431
v 0.01843038 -0.00970812 0.00006437 0.43529412 0.89019608 0.96078431
v 0.01456962 0.00970812 0.04999511 0.43529412 0.89019608 0.96078431
v 0.01650194 0.00989806 0.00006437 0.43529412 0.89019608 0.96078431
v 0.01456962 0.00970812 0.00006437 0.43529412 0.89019608 0.96078431
v 0.01456962 -0.00970812 0.04999511 0.43529412 0.89019608 0.96078431
v 0.01456768 -0.00970812 0.00006437 0.43529412 0.89019608 0.96078431
v 0.01650194 -0.00989806 0.00006437 0.43529412 0.89019608 0.96078431
v 0.01271288 0.00914606 0.04999511 0.43529412 0.89019608 0.96078431
v 0.01271288 0.00914606 0.00006437 0.43529412 0.89019608 0.96078431
v 0.01271288 -0.00914606 0.04999511 0.43529412 0.89019608 0.96078431
v 0.01271094 -0.00914413 0.00006437 0.43529412 0.89019608 0.96078431
v 0.01100151 0.00823126 0.04999511 0.43529412 0.89019608 0.96078431
v 0.01100151 0.00823126 0.00006437 0.43529412 0.89019608 0.96078431
v 0.01100151 -0.00823126 0.04999511 0.43529412 0.89019608 0.96078431
v 0.01100151 -0.00823126 0.00006437 0.43529412 0.89019608 0.96078431
v 0.00950139 0.00699861 0.04999511 0.43529412 0.89019608 0.96078431
v 0.00950139 0.00699861 0.00006437 0.43529412 0.89019608 0.96078431
v 0.00950139 -0.00699861 0.04999511 0.43529412 0.89019608 0.96078431
v 0.00949945 -0.00699667 0.00006437 0.43529412 0.89019608 0.96078431
v 0.00826874 0.00549849 0.04999511 0.43529412 0.89019608 0.96078431
v 0.00826874 0.00549849 0.00006437 0.43529412 0.89019608 0.96078431
v 0.00826874 -0.00549849 0.04999511 0.43529412 0.89019608 0.96078431
v 0.00826874 -0.00549849 0.00006437 0.43529412 0.89019608 0.96078431
v 0.00735394 0.00378712 0.04999511 0.43529412 0.89019608 0.96078431
v 0.00735394 0.00378712 0.00006437 0.43529412 0.89019608 0.96078431
v 0.00735394 -0.00378712 0.04999511 0.43529412 0.89019608 0.96078431
v 0.00735394 -0.00378712 0.00006437 0.43529412 0.89019608 0.96078431
v 0.00679188 0.00193038 0.04999511 0.43529412 0.89019608 0.96078431
v 0.00679188 0.00193038 0.00006437 0.43529412 0.89019608 0.96078431
v 0.00679188 -0.00193038 0.04999511 0.43529412 0.89019608 0.96078431
v 0.00679188 -0.00193038 0.00006437 0.43529412 0.89019608 0.96078431
v 0.00660000 0.00000000 0.04999511 0.43529412 0.89019608 0.96078431
v 0.00660000 0.00000000 0.00006437 0.43529412 0.89019608 0.96078431
f 154 155 160
f 154 160 165
f 154 165 169
f 154 169 174
f 154 174 180
f 154 180 184
f 154 184 189
f 154 189 193
f 154 193 199
f 154 199 203
f 154 203 207
f 154 207 211
f 154 211 215
f 154 215 219
f 154 219 223
f 154 223 221
f 154 221 217
f 154 217 213
f 154 213 209
f 154 209 205
f 154 205 201
f 154 201 196
f 154 196 191
f 154 191 187
f 154 187 182
f 154 182 177
f 154 177 171
f 154 171 166
f 154 166 161
f 154 161 156
f 154 156 157
f 154 157 158
f 154 158 159
f 154 159 155
f 155 159 164
f 155 164 160
f 156 161 162
f 156 162 163
f 156 163 157
f 157 163 162
f 157 162 167
f 157 167 173
f 157 173 172
f 157 172 179
f 157 179 178
f 157 178 183
f 157 183 188
f 157 188 192
f 157 192 198
f 157 198 197
f 157 197 202
f 157 202 206
f 157 206 210
f 157 210 214
f 157 214 218
f 157 218 222
f 157 222 224
f 157 224 220
f 157 220 216
f 157 216 212
f 157 212 208
f 157 208 204
f 157 204 200
f 157 200 195
f 157 195 194
f 157 194 190
f 157 190 186
f 157 186 185
f 157 185 181
f 157 181 176
f 157 176 175
f 157 175 170
f 157 170 168
f 157 168 164
f 157 164 159
f 157 159 158
f 160 164 168
f 160 168 165
f 161 166 173
f 161 173 167
f 161 167 162
f 165 168 170
f 165 170 169
f 166 171 172
f 166 172 173
f 169 170 175
f 169 175 176
f 169 176 174
f 171 177 178
f 171 178 179
f 171 179 172
f 174 176 181
f 174 181 185
f 174 185 180
f 177 182 188
f 177 188 183
f 177 183 178
f 180 185 186
f 180 186 184
f 182 187 192
f 182 192 188
f 184 186 190
f 184 190 189
f 187 191 192
f 189 190 194
f 189 194 195
f 189 195 193
f 191 196 197
f 191 197 198
f 191 198 192
f 193 195 200
f 193 200 199
f 196 201 197
f 197 201 202
f 199 200 204
f 199 204 203
f 201 205 206
f 201 206 202
f 203 204 208
f 203 208 207
f 205 209 206
f 206 209 210
f 207 208 212
f 207 212 211
f 209 213 210
f 210 213 214
f 211 212 216
f 211 216 215
f 213 217 218
f 213 218 214
f 215 216 220
f 215 220 219
f 217 221 222
f 217 222 218
f 219 220 224
f 219 224 223
f 221 223 224
f 221 224 222