# https://github.com/mikedh/trimesh
v -0.01651430 -0.00929265 -0.07500000
v -0.01836990 -0.00758505 -0.07500000
v -0.01423140 -0.01084425 -0.07500000
v -0.01154270 -0.01218375 -0.07500000
v -0.01979590 -0.00576975 -0.07500000
v -0.02080150 -0.00388465 -0.07500000
v -0.02139690 -0.00196715 -0.07500000
v -0.02159660 -0.00001365 -0.07500000
v -0.00849440 -0.01325245 -0.07500000
v -0.00516000 -0.01399615 -0.07500000
v -0.00163780 -0.01437205 -0.07500000
v -0.01651430 -0.00929265 0.02500000
v -0.01836990 -0.00758505 0.02500000
v -0.01423140 -0.01084425 0.02500000
v -0.01154270 -0.01218375 0.02500000
v -0.01979590 -0.00576975 0.02500000
v -0.02080150 -0.00388465 0.02500000
v -0.02139690 -0.00196715 0.02500000
v -0.02159660 -0.00001365 0.02500000
v -0.00849440 -0.01325245 0.02500000
v -0.00516000 -0.01399615 0.02500000
v -0.00163780 -0.01437205 0.02500000
v -0.02149320 0.00139355 -0.07500000
v -0.02118410 0.00278725 -0.07500000
v -0.02048720 0.00454205 -0.07500000
v -0.01943620 0.00626375 -0.07500000
v -0.01801890 0.00792375 -0.07500000
v -0.01623090 0.00948505 -0.07500000
v -0.01408000 0.01090455 -0.07500000
v -0.01159140 0.01213585 -0.07500000
v -0.00880880 0.01313345 -0.07500000
v -0.00579450 0.01385785 -0.07500000
v -0.00262660 0.01427925 -0.07500000
v -0.02149320 0.00139355 0.02500000
v -0.02118410 0.00278725 0.02500000
v -0.02048720 0.00454205 0.02500000
v -0.01943620 0.00626375 0.02500000
v -0.01801890 0.00792375 0.02500000
v -0.01623090 0.00948505 0.02500000
v -0.01408000 0.01090455 0.02500000
v -0.01159140 0.01213585 0.02500000
v -0.00880880 0.01313345 0.02500000
v -0.00579450 0.01385785 0.02500000
v -0.00262660 0.01427925 0.02500000
v 0.00195510 -0.01435475 -0.07500000
v 0.00514420 -0.01399985 -0.07500000
v 0.00819780 -0.01333715 -0.07500000
v 0.01103490 -0.01239405 -0.07500000
v 0.01358980 -0.01120835 -0.07500000
v 0.01581440 -0.00982455 -0.07500000
v 0.01768000 -0.00828935 -0.07500000
v 0.01917530 -0.00664685 -0.07500000
v 0.02030260 -0.00493535 -0.07500000
v 0.02107280 -0.00318565 -0.07500000
v 0.02150020 -0.00141985 -0.07500000
v 0.00195510 -0.01435475 0.02500000
v 0.00514420 -0.01399985 0.02500000
v 0.00819780 -0.01333715 0.02500000
v 0.01103490 -0.01239405 0.02500000
v 0.01358980 -0.01120835 0.02500000
v 0.01581440 -0.00982455 0.02500000
v 0.01768000 -0.00828935 0.02500000
v 0.01917530 -0.00664685 0.02500000
v 0.02030260 -0.00493535 0.02500000
v 0.02107280 -0.00318565 0.02500000
v 0.02150020 -0.00141985 0.02500000
v 0.00096550 0.01437205 -0.07500000
v 0.00274740 0.01426965 -0.07500000
v 0.00451050 0.01406935 -0.07500000
v 0.00788870 0.01339255 -0.07500000
v 0.02159660 0.00034675 -0.07500000
v 0.02132360 0.00229675 -0.07500000
v 0.02103600 0.00326535 -0.07500000
v 0.02064950 0.00421845 -0.07500000
v 0.01956510 0.00609275 -0.07500000
v 0.01612100 0.00957295 -0.07500000
v 0.01099760 0.01238145 -0.07500000
v 0.01375890 0.01108885 -0.07500000
v 0.01805820 0.00789085 -0.07500000
v 0.00096550 0.01437205 0.02500000
v 0.00274740 0.01426965 0.02500000
v 0.00451050 0.01406935 0.02500000
v 0.00788870 0.01339255 0.02500000
v 0.02159660 0.00034675 0.02500000
v 0.02132360 0.00229675 0.02500000
v 0.02103600 0.00326535 0.02500000
v 0.02064950 0.00421845 0.02500000
v 0.01956510 0.00609275 0.02500000
v 0.01612100 0.00957295 0.02500000
v 0.01099760 0.01238145 0.02500000
v 0.01375890 0.01108885 0.02500000
v 0.01805820 0.00789085 0.02500000
f 1 13 2
f 3 4 14
f 1 3 12
f 2 5 26
f 6 7 24
f 5 6 25
f 7 8 23
f 1 2 27
f 3 29 4
f 1 28 3
f 2 16 5
f 5 17 6
f 6 18 7
f 7 19 8
f 4 9 15
f 9 10 20
f 10 11 21
f 11 45 22
f 4 31 9
f 9 32 10
f 10 33 11
f 1 12 13
f 4 15 14
f 3 14 12
f 5 16 17
f 2 13 16
f 6 17 18
f 7 18 19
f 9 20 15
f 10 21 20
f 11 22 21
f 7 23 24
f 6 24 25
f 5 25 26
f 2 26 27
f 1 27 28
f 3 28 29
f 4 29 30
f 8 34 23
f 23 35 24
f 24 36 25
f 25 37 26
f 26 38 27
f 27 39 28
f 28 40 29
f 29 41 30
f 4 30 31
f 9 31 32
f 10 32 33
f 11 33 67
f 30 42 31
f 31 43 32
f 32 44 33
f 33 80 67
f 8 19 34
f 23 34 35
f 24 35 36
f 25 36 37
f 26 37 38
f 27 38 39
f 28 39 40
f 29 40 41
f 30 41 42
f 31 42 43
f 32 43 44
f 33 44 80
f 45 46 56
f 46 47 57
f 47 48 58
f 11 67 45
f 45 68 46
f 46 70 47
f 47 77 48
f 48 49 59
f 49 50 60
f 50 51 61
f 51 52 62
f 48 77 49
f 49 78 50
f 50 76 51
f 51 79 52
f 52 75 53
f 53 74 54
f 54 72 55
f 52 53 63
f 53 54 64
f 54 55 65
f 55 71 66
f 45 56 22
f 46 57 56
f 47 58 57
f 48 59 58
f 49 60 59
f 50 61 60
f 51 62 61
f 52 63 62
f 53 64 63
f 54 65 64
f 55 66 65
f 71 84 66
f 45 67 68
f 46 68 69
f 46 69 70
f 47 70 77
f 67 81 68
f 68 82 69
f 69 83 70
f 70 90 77
f 49 77 78
f 50 78 76
f 51 76 79
f 53 75 74
f 55 72 71
f 54 73 72
f 54 74 73
f 52 79 75
f 71 72 84
f 72 73 85
f 73 74 86
f 74 75 87
f 75 79 88
f 76 78 89
f 77 91 78
f 76 92 79
f 67 80 81
f 68 81 82
f 69 82 83
f 70 83 90
f 72 85 84
f 73 86 85
f 74 87 86
f 75 88 87
f 78 91 89
f 77 90 91
f 79 92 88
f 76 89 92
f 18 34 19
f 17 36 18
f 16 37 17
f 13 12 38
f 13 38 16
f 15 89 14
f 15 20 89
f 14 89 12
f 18 35 34
f 18 36 35
f 17 37 36
f 16 38 37
f 12 39 38
f 12 40 39
f 12 41 40
f 42 41 12
f 42 12 43
f 43 12 44
f 80 44 12
f 80 12 81
f 81 12 82
f 83 82 12
f 21 89 20
f 22 89 21
f 22 56 89
f 56 57 89
f 58 89 57
f 59 89 58
f 59 60 89
f 61 89 60
f 62 92 61
f 63 92 62
f 64 92 63
f 65 88 64
f 66 87 65
f 83 12 90
f 90 12 91
f 91 12 89
f 61 92 89
f 84 86 66
f 64 88 92
f 65 87 88
f 66 86 87
f 84 85 86