# https://github.com/mikedh/trimesh
v -0.01651430 -0.00929265 0.05000000
v -0.01836990 -0.00758505 0.05000000
v -0.01423140 -0.01084425 0.05000000
v -0.01154270 -0.01218375 0.05000000
v -0.01979590 -0.00576975 0.05000000
v -0.02080150 -0.00388465 0.05000000
v -0.02139690 -0.00196715 0.05000000
v -0.02159660 -0.00001365 0.05000000
v -0.00849440 -0.01325245 0.05000000
v -0.00516000 -0.01399615 0.05000000
v -0.00163780 -0.01437205 0.05000000
v -0.01651430 -0.00929265 0.07500000
v -0.01836990 -0.00758505 0.07500000
v -0.01423140 -0.01084425 0.07500000
v -0.01154270 -0.01218375 0.07500000
v -0.01979590 -0.00576975 0.07500000
v -0.02080150 -0.00388465 0.07500000
v -0.02139690 -0.00196715 0.07500000
v -0.02159660 -0.00001365 0.07500000
v -0.00849440 -0.01325245 0.07500000
v -0.00516000 -0.01399615 0.07500000
v -0.00163780 -0.01437205 0.07500000
v -0.02149320 0.00139355 0.05000000
v -0.02118410 0.00278725 0.05000000
v -0.02048720 0.00454205 0.05000000
v -0.01943620 0.00626375 0.05000000
v -0.01801890 0.00792375 0.05000000
v -0.01623090 0.00948505 0.05000000
v -0.01408000 0.01090455 0.05000000
v -0.01159140 0.01213585 0.05000000
v -0.00880880 0.01313345 0.05000000
v -0.00579450 0.01385785 0.05000000
v -0.00262660 0.01427925 0.05000000
v -0.02149320 0.00139355 0.07500000
v -0.02118410 0.00278725 0.07500000
v -0.02048720 0.00454205 0.07500000
v -0.01943620 0.00626375 0.07500000
v -0.01801890 0.00792375 0.07500000
v -0.01623090 0.00948505 0.07500000
v -0.01408000 0.01090455 0.07500000
v -0.01159140 0.01213585 0.07500000
v -0.00880880 0.01313345 0.07500000
v -0.00579450 0.01385785 0.07500000
v -0.00262660 0.01427925 0.07500000
v 0.00195510 -0.01435475 0.05000000
v 0.00514420 -0.01399985 0.05000000
v 0.00819780 -0.01333715 0.05000000
v 0.01103490 -0.01239405 0.05000000
v 0.01358980 -0.01120835 0.05000000
v 0.01581440 -0.00982455 0.05000000
v 0.01768000 -0.00828935 0.05000000
v 0.01917530 -0.00664685 0.05000000
v 0.02030260 -0.00493535 0.05000000
v 0.02107280 -0.00318565 0.05000000
v 0.02150020 -0.00141985 0.05000000
v 0.00195510 -0.01435475 0.07500000
v 0.00514420 -0.01399985 0.07500000
v 0.00819780 -0.01333715 0.07500000
v 0.01103490 -0.01239405 0.07500000
v 0.01358980 -0.01120835 0.07500000
v 0.01581440 -0.00982455 0.07500000
v 0.01768000 -0.00828935 0.07500000
v 0.01917530 -0.00664685 0.07500000
v 0.02030260 -0.00493535 0.07500000
v 0.02107280 -0.00318565 0.07500000
v 0.02150020 -0.00141985 0.07500000
v 0.00096550 0.01437205 0.05000000
v 0.00274740 0.01426965 0.05000000
v 0.00451050 0.01406935 0.05000000
v 0.00788870 0.01339255 0.05000000
v 0.02159660 0.00034675 0.05000000
v 0.02132360 0.00229675 0.05000000
v 0.02103600 0.00326535 0.05000000
v 0.02064950 0.00421845 0.05000000
v 0.01956510 0.00609275 0.05000000
v 0.01612100 0.00957295 0.05000000
v 0.01099760 0.01238145 0.05000000
v 0.01375890 0.01108885 0.05000000
v 0.01805820 0.00789085 0.05000000
v 0.00096550 0.01437205 0.07500000
v 0.00274740 0.01426965 0.07500000
v 0.00451050 0.01406935 0.07500000
v 0.00788870 0.01339255 0.07500000
v 0.02159660 0.00034675 0.07500000
v 0.02132360 0.00229675 0.07500000
v 0.02103600 0.00326535 0.07500000
v 0.02064950 0.00421845 0.07500000
v 0.01956510 0.00609275 0.07500000
v 0.01612100 0.00957295 0.07500000
v 0.01099760 0.01238145 0.07500000
v 0.01375890 0.01108885 0.07500000
v 0.01805820 0.00789085 0.07500000
f 13 2 1
f 14 3 4
f 12 1 3
f 16 5 2
f 17 6 5
f 18 7 6
f 19 8 7
f 15 4 9
f 20 9 10
f 21 10 11
f 22 11 45
f 12 13 1
f 14 4 15
f 12 3 14
f 16 17 5
f 13 16 2
f 17 18 6
f 18 19 7
f 13 37 16
f 17 35 18
f 16 36 17
f 18 34 19
f 12 38 13
f 14 15 40
f 12 14 39
f 15 9 20
f 20 10 21
f 21 11 22
f 15 20 42
f 20 21 43
f 21 22 44
f 34 23 8
f 35 24 23
f 36 25 24
f 37 26 25
f 38 27 26
f 39 28 27
f 40 29 28
f 41 30 29
f 42 31 30
f 43 32 31
f 44 33 32
f 80 67 33
f 19 34 8
f 34 35 23
f 35 36 24
f 36 37 25
f 37 38 26
f 18 35 34
f 17 36 35
f 16 37 36
f 13 38 37
f 12 39 38
f 14 40 39
f 15 41 40
f 38 39 27
f 39 40 28
f 40 41 29
f 15 42 41
f 20 43 42
f 21 44 43
f 22 80 44
f 41 42 30
f 42 43 31
f 43 44 32
f 44 80 33
f 56 45 46
f 57 46 47
f 58 47 48
f 59 48 49
f 60 49 50
f 61 50 51
f 62 51 52
f 63 52 53
f 64 53 54
f 65 54 55
f 66 55 71
f 22 45 56
f 56 46 57
f 57 47 58
f 58 48 59
f 22 56 80
f 56 57 81
f 57 58 83
f 58 59 90
f 59 49 60
f 60 50 61
f 61 51 62
f 62 52 63
f 63 53 64
f 64 54 65
f 65 55 66
f 66 71 84
f 59 60 90
f 60 61 91
f 61 62 89
f 62 63 92
f 63 64 88
f 64 65 87
f 65 66 85
f 81 68 67
f 82 69 68
f 83 70 69
f 90 77 70
f 84 71 72
f 85 72 73
f 86 73 74
f 87 74 75
f 88 75 79
f 89 76 78
f 91 78 77
f 92 79 76
f 56 81 80
f 57 82 81
f 57 83 82
f 58 90 83
f 80 81 67
f 81 82 68
f 82 83 69
f 83 90 70
f 84 72 85
f 85 73 86
f 86 74 87
f 87 75 88
f 60 91 90
f 61 89 91
f 62 92 89
f 64 87 88
f 66 84 85
f 65 85 86
f 65 86 87
f 63 88 92
f 89 78 91
f 90 91 77
f 88 79 92
f 89 92 76
f 5 25 2
f 7 24 6
f 6 25 5
f 1 2 26
f 4 3 28
f 4 28 9
f 3 1 28
f 9 28 10
f 10 28 11
f 11 28 45
f 46 45 28
f 46 28 47
f 7 8 24
f 8 23 24
f 6 24 25
f 2 25 26
f 1 26 27
f 1 27 28
f 29 50 28
f 29 30 50
f 30 31 50
f 47 28 48
f 48 28 49
f 49 28 50
f 50 76 51
f 51 76 52
f 52 79 53
f 53 79 54
f 32 50 31
f 33 50 32
f 33 67 50
f 50 67 68
f 50 68 69
f 50 69 70
f 50 70 77
f 50 77 78
f 50 78 76
f 54 75 55
f 55 74 71
f 71 73 72
f 71 74 73
f 55 75 74
f 52 76 79
f 54 79 75