# https://github.com/mikedh/trimesh

o geometry_0
v -0.02159960 0.05943976 -0.00000000 0.54509804 0.71372549 0.60000000
v -0.03295037 0.05943976 -0.00000000 0.54509804 0.71372549 0.60000000
v -0.02781113 0.06840490 -0.00000000 0.54509804 0.71372549 0.60000000
v -0.02780335 0.06840490 0.01694401 0.54509804 0.71372549 0.60000000
v -0.02780335 0.06840490 0.03305599 0.54509804 0.71372549 0.60000000
v -0.02161071 0.05943976 0.02500000 0.54509804 0.71372549 0.60000000
v -0.03295037 0.06840490 -0.00000000 0.54509804 0.71372549 0.60000000
v -0.03295037 0.05943976 0.05000000 0.54509804 0.71372549 0.60000000
v -0.02781669 0.06840490 0.05000000 0.54509804 0.71372549 0.60000000
v -0.02162627 0.05943976 0.03333007 0.54509804 0.71372549 0.60000000
v -0.03295037 0.06840490 0.05000000 0.54509804 0.71372549 0.60000000
v -0.02167405 0.05943976 0.05000000 0.54509804 0.71372549 0.60000000
v -0.02167294 0.05944152 0.05000000 0.54509804 0.71372549 0.60000000
v -0.02167183 0.05943976 0.04996574 0.54509804 0.71372549 0.60000000
f 1 2 7
f 1 7 3
f 1 3 4
f 1 4 5
f 1 5 6
f 1 6 10
f 1 10 14
f 1 14 12
f 1 12 8
f 1 8 2
f 2 8 11
f 2 11 7
f 3 7 11
f 3 11 9
f 3 9 5
f 3 5 4
f 5 9 6
f 6 9 10
f 8 12 13
f 8 13 9
f 8 9 11
f 9 13 10
f 10 13 14
f 12 14 13

o geometry_1
v -0.03295037 0.06840490 -0.00000000 0.54117647 0.42352941 0.64313725
v -0.03295037 0.07517341 -0.00000000 0.54117647 0.42352941 0.64313725
v -0.02781231 0.06840490 -0.00000000 0.54117647 0.42352941 0.64313725
v -0.03295037 0.06840490 0.05000000 0.54117647 0.42352941 0.64313725
v -0.02691732 0.07517341 -0.00000000 0.54117647 0.42352941 0.64313725
v -0.03295037 0.07517341 0.05000000 0.54117647 0.42352941 0.64313725
v -0.02780462 0.06840490 0.01694401 0.54117647 0.42352941 0.64313725
v -0.02781823 0.06840490 0.05000000 0.54117647 0.42352941 0.64313725
v -0.02690727 0.07517341 0.05000000 0.54117647 0.42352941 0.64313725
v -0.02780462 0.06840490 0.03305599 0.54117647 0.42352941 0.64313725
v -0.02781764 0.06840557 0.05000000 0.54117647 0.42352941 0.64313725
v -0.02781764 0.06840490 0.04999511 0.54117647 0.42352941 0.64313725
f 15 16 19
f 15 19 17
f 15 17 21
f 15 21 24
f 15 24 26
f 15 26 22
f 15 22 18
f 15 18 20
f 15 20 16
f 16 20 23
f 16 23 19
f 17 19 21
f 18 22 25
f 18 25 23
f 18 23 20
f 19 23 21
f 21 23 24
f 22 26 25
f 23 25 26
f 23 26 24

o geometry_2
v 0.00269064 0.04954623 -0.00000000 0.43529412 0.89019608 0.96078431
v 0.00269064 0.05542070 -0.00000000 0.43529412 0.89019608 0.96078431
v 0.00951594 0.04954623 -0.00000000 0.43529412 0.89019608 0.96078431
v 0.00269064 0.04954623 0.05000000 0.43529412 0.89019608 0.96078431
v 0.00951594 0.05799125 -0.00000000 0.43529412 0.89019608 0.96078431
v 0.00269064 0.05542070 0.03055501 0.43529412 0.89019608 0.96078431
v 0.00951594 0.04954623 0.05000000 0.43529412 0.89019608 0.96078431
v 0.00269064 0.05541822 0.05000000 0.43529412 0.89019608 0.96078431
v 0.00951594 0.05798381 0.02622847 0.43529412 0.89019608 0.96078431
v 0.00951594 0.05796066 0.05000000 0.43529412 0.89019608 0.96078431
v 0.00951594 0.05797967 0.03333007 0.43529412 0.89019608 0.96078431
f 27 28 31
f 27 31 29
f 27 29 33
f 27 33 30
f 27 30 34
f 27 34 32
f 27 32 28
f 28 32 31
f 29 31 35
f 29 35 37
f 29 37 36
f 29 36 33
f 30 33 36
f 30 36 34
f 31 32 34
f 31 34 35
f 34 36 37
f 34 37 35

o geometry_3
v 0.01111081 0.08175907 0.02083496 0.38039216 0.78823529 0.52549020
v 0.00587396 0.08444655 -0.00000000 0.38039216 0.78823529 0.52549020
v 0.01111081 0.08183918 -0.00000000 0.38039216 0.78823529 0.52549020
v 0.01111081 0.08175907 0.02916504 0.38039216 0.78823529 0.52549020
v 0.00587396 0.08439625 0.02451547 0.38039216 0.78823529 0.52549020
v 0.00587396 0.09127470 -0.00000000 0.38039216 0.78823529 0.52549020
v 0.01111081 0.09127470 -0.00000000 0.38039216 0.78823529 0.52549020
v 0.01111081 0.08184757 0.05000000 0.38039216 0.78823529 0.52549020
v 0.00587396 0.08445027 0.05000000 0.38039216 0.78823529 0.52549020
v 0.00587396 0.08440929 0.03160728 0.38039216 0.78823529 0.52549020
v 0.00587396 0.08439625 0.02548453 0.38039216 0.78823529 0.52549020
v 0.00587396 0.09127470 0.05000000 0.38039216 0.78823529 0.52549020
v 0.01111081 0.09127470 0.05000000 0.38039216 0.78823529 0.52549020
f 38 39 40
f 38 40 44
f 38 44 50
f 38 50 45
f 38 45 41
f 38 41 48
f 38 48 42
f 38 42 39
f 39 43 44
f 39 44 40
f 39 42 48
f 39 48 47
f 39 47 46
f 39 46 49
f 39 49 43
f 41 45 46
f 41 46 47
f 41 47 48
f 43 49 50
f 43 50 44
f 45 50 49
f 45 49 46

o geometry_4
v 0.00269064 0.05541807 0.05000000 0.56470588 0.92549020 0.07058824
v -0.00492362 0.05455586 0.05000000 0.56470588 0.92549020 0.07058824
v 0.00269064 0.04954540 0.05000000 0.56470588 0.92549020 0.07058824
v 0.00269064 0.05542152 0.03055501 0.56470588 0.92549020 0.07058824
v -0.00492362 0.05458117 0.02916504 0.56470588 0.92549020 0.07058824
v -0.00492362 0.04954540 0.05000000 0.56470588 0.92549020 0.07058824
v 0.00269064 0.04954540 -0.00000000 0.56470588 0.92549020 0.07058824
v 0.00269064 0.05542152 0.01944499 0.56470588 0.92549020 0.07058824
v -0.00492362 0.05458117 0.02083496 0.56470588 0.92549020 0.07058824
v -0.00492362 0.04954540 -0.00000000 0.56470588 0.92549020 0.07058824
v 0.00269064 0.05542037 -0.00000000 0.56470588 0.92549020 0.07058824
v -0.00492362 0.05451445 -0.00000000 0.56470588 0.92549020 0.07058824
f 51 52 56
f 51 56 53
f 51 53 57
f 51 57 61
f 51 61 58
f 51 58 54
f 51 54 55
f 51 55 52
f 52 55 59
f 52 59 62
f 52 62 60
f 52 60 56
f 53 56 60
f 53 60 57
f 54 58 59
f 54 59 55
f 57 60 62
f 57 62 61
f 58 61 59
f 59 61 62

o geometry_5
v 0.02317813 0.07040394 0.05000000 0.08627451 0.01960784 0.83137255
v 0.01817441 0.07040394 0.05000000 0.08627451 0.01960784 0.83137255
v 0.02317813 0.06126936 0.05000000 0.08627451 0.01960784 0.83137255
v 0.02317813 0.07040394 -0.00000000 0.08627451 0.01960784 0.83137255
v 0.01403271 0.06126936 0.03333007 0.08627451 0.01960784 0.83137255
v 0.01403898 0.06126936 0.05000000 0.08627451 0.01960784 0.83137255
v 0.01818426 0.07040394 -0.00000000 0.08627451 0.01960784 0.83137255
v 0.01402375 0.06126936 -0.00000000 0.08627451 0.01960784 0.83137255
v 0.02317813 0.06126936 -0.00000000 0.08627451 0.01960784 0.83137255
f 63 64 68
f 63 68 65
f 63 65 71
f 63 71 66
f 63 66 69
f 63 69 64
f 64 67 68
f 64 69 70
f 64 70 67
f 65 68 67
f 65 67 70
f 65 70 71
f 66 71 70
f 66 70 69

o geometry_6
v -0.00492467 0.09127563 0.05000000 0.77647059 0.86666667 0.97647059
v -0.01560320 0.09127563 0.05000000 0.77647059 0.86666667 0.97647059
v -0.00492467 0.08629284 0.05000000 0.77647059 0.86666667 0.97647059
v -0.00492467 0.09127563 -0.00000000 0.77647059 0.86666667 0.97647059
v -0.01560320 0.08449138 0.05000000 0.77647059 0.86666667 0.97647059
v -0.01560320 0.09127563 -0.00000000 0.77647059 0.86666667 0.97647059
v -0.00492467 0.08626225 0.03333007 0.77647059 0.86666667 0.97647059
v -0.00492467 0.08625494 -0.00000000 0.77647059 0.86666667 0.97647059
v -0.01560320 0.08448340 0.03333007 0.77647059 0.86666667 0.97647059
v -0.01560320 0.08448273 -0.00000000 0.77647059 0.86666667 0.97647059
f 72 73 76
f 72 76 74
f 72 74 78
f 72 78 79
f 72 79 75
f 72 75 77
f 72 77 73
f 73 77 81
f 73 81 80
f 73 80 76
f 74 76 78
f 75 79 81
f 75 81 77
f 76 80 78
f 78 80 79
f 79 80 81

o geometry_7
v 0.01574912 0.07751843 0.02083496 0.79607843 0.45882353 0.78039216
v 0.01111132 0.08176032 0.02083496 0.79607843 0.45882353 0.78039216
v 0.01574912 0.07757094 -0.00000000 0.79607843 0.45882353 0.78039216
v 0.01574912 0.07751843 0.02916504 0.79607843 0.45882353 0.78039216
v 0.01111132 0.08183977 -0.00000000 0.79607843 0.45882353 0.78039216
v 0.01111132 0.08176032 0.02916504 0.79607843 0.45882353 0.78039216
v 0.01574912 0.09127563 -0.00000000 0.79607843 0.45882353 0.78039216
v 0.01574912 0.07757094 0.05000000 0.79607843 0.45882353 0.78039216
v 0.01111132 0.09127563 -0.00000000 0.79607843 0.45882353 0.78039216
v 0.01111132 0.08184785 0.05000000 0.79607843 0.45882353 0.78039216
v 0.01574912 0.09127563 0.05000000 0.79607843 0.45882353 0.78039216
v 0.01111132 0.09127563 0.05000000 0.79607843 0.45882353 0.78039216
f 82 83 84
f 82 84 88
f 82 88 92
f 82 92 89
f 82 89 85
f 82 85 87
f 82 87 83
f 83 86 84
f 83 87 91
f 83 91 93
f 83 93 90
f 83 90 86
f 84 86 90
f 84 90 88
f 85 89 87
f 87 89 91
f 88 90 93
f 88 93 92
f 89 92 93
f 89 93 91

o geometry_8
v -0.00492362 0.05455576 0.05000000 0.11764706 0.63921569 0.14117647
v -0.01616690 0.05653329 0.05000000 0.11764706 0.63921569 0.14117647
v -0.00492362 0.04954540 0.05000000 0.11764706 0.63921569 0.14117647
v -0.00492362 0.05458115 0.02916504 0.11764706 0.63921569 0.14117647
v -0.01616690 0.04954540 0.05000000 0.11764706 0.63921569 0.14117647
v -0.01616690 0.05654632 0.02500000 0.11764706 0.63921569 0.14117647
v -0.00492362 0.04954540 -0.00000000 0.11764706 0.63921569 0.14117647
v -0.00492362 0.05458115 0.02083496 0.11764706 0.63921569 0.14117647
v -0.01616690 0.05655456 -0.00000000 0.11764706 0.63921569 0.14117647
v -0.01616690 0.04954540 -0.00000000 0.11764706 0.63921569 0.14117647
v -0.00492362 0.05451391 -0.00000000 0.11764706 0.63921569 0.14117647
f 94 95 98
f 94 98 96
f 94 96 100
f 94 100 104
f 94 104 101
f 94 101 97
f 94 97 95
f 95 97 99
f 95 99 102
f 95 102 103
f 95 103 98
f 96 98 103
f 96 103 100
f 97 101 102
f 97 102 99
f 100 103 102
f 100 102 104
f 101 104 102

o geometry_9
v -0.03295037 0.07517341 -0.00000000 0.94117647 0.52156863 0.41176471
v -0.03295037 0.09127563 -0.00000000 0.94117647 0.52156863 0.41176471
v -0.02691759 0.07517341 -0.00000000 0.94117647 0.52156863 0.41176471
v -0.03295037 0.07517341 0.05000000 0.94117647 0.52156863 0.41176471
v -0.02219935 0.09127563 -0.00000000 0.94117647 0.52156863 0.41176471
v -0.03295037 0.09127563 0.05000000 0.94117647 0.52156863 0.41176471
v -0.02219935 0.08092803 -0.00000000 0.94117647 0.52156863 0.41176471
v -0.02690811 0.07517341 0.05000000 0.94117647 0.52156863 0.41176471
v -0.02219935 0.09127563 0.05000000 0.94117647 0.52156863 0.41176471
v -0.02219935 0.08092173 0.05000000 0.94117647 0.52156863 0.41176471
f 105 106 109
f 105 109 111
f 105 111 107
f 105 107 112
f 105 112 108
f 105 108 110
f 105 110 106
f 106 110 113
f 106 113 109
f 107 111 112
f 108 112 114
f 108 114 113
f 108 113 110
f 109 113 114
f 109 114 111
f 111 114 112

o geometry_10
v -0.01616690 0.05653324 0.05000000 0.26274510 0.77254902 0.45490196
v -0.02167213 0.05943879 0.04996574 0.26274510 0.77254902 0.45490196
v -0.02167377 0.05943879 0.05000000 0.26274510 0.77254902 0.45490196
v -0.01616690 0.04954540 0.05000000 0.26274510 0.77254902 0.45490196
v -0.01616690 0.05654583 0.02500000 0.26274510 0.77254902 0.45490196
v -0.02160970 0.05943879 0.02500000 0.26274510 0.77254902 0.45490196
v -0.02162613 0.05943879 0.03333007 0.26274510 0.77254902 0.45490196
v -0.03295037 0.05943879 0.05000000 0.26274510 0.77254902 0.45490196
v -0.03295037 0.04954540 0.05000000 0.26274510 0.77254902 0.45490196
v -0.01616690 0.04954540 -0.00000000 0.26274510 0.77254902 0.45490196
v -0.01616690 0.05655455 -0.00000000 0.26274510 0.77254902 0.45490196
v -0.02159984 0.05943879 -0.00000000 0.26274510 0.77254902 0.45490196
v -0.03295037 0.05943879 -0.00000000 0.26274510 0.77254902 0.45490196
v -0.03295037 0.04954540 -0.00000000 0.26274510 0.77254902 0.45490196
f 115 116 117
f 115 117 122
f 115 122 123
f 115 123 118
f 115 118 124
f 115 124 125
f 115 125 119
f 115 119 120
f 115 120 121
f 115 121 116
f 116 121 120
f 116 120 126
f 116 126 127
f 116 127 122
f 116 122 117
f 118 123 128
f 118 128 124
f 119 125 120
f 120 125 126
f 122 127 128
f 122 128 123
f 124 128 127
f 124 127 126
f 124 126 125

o geometry_11
v 0.01818376 0.07040598 -0.00000000 0.56470588 0.01568627 0.61568627
v 0.01574912 0.07751984 0.02083496 0.56470588 0.01568627 0.61568627
v 0.01574912 0.07757092 -0.00000000 0.56470588 0.01568627 0.61568627
v 0.02317813 0.07040598 -0.00000000 0.56470588 0.01568627 0.61568627
v 0.01817431 0.07040598 0.05000000 0.56470588 0.01568627 0.61568627
v 0.01574912 0.07751984 0.02916504 0.56470588 0.01568627 0.61568627
v 0.01574912 0.09127359 -0.00000000 0.56470588 0.01568627 0.61568627
v 0.02317813 0.09127359 -0.00000000 0.56470588 0.01568627 0.61568627
v 0.02317813 0.07040598 0.05000000 0.56470588 0.01568627 0.61568627
v 0.01574912 0.07757092 0.05000000 0.56470588 0.01568627 0.61568627
v 0.01574912 0.09127359 0.05000000 0.56470588 0.01568627 0.61568627
v 0.02317813 0.09127359 0.05000000 0.56470588 0.01568627 0.61568627
f 129 130 131
f 129 131 135
f 129 135 136
f 129 136 132
f 129 132 137
f 129 137 133
f 129 133 130
f 130 133 134
f 130 134 138
f 130 138 139
f 130 139 135
f 130 135 131
f 132 136 140
f 132 140 137
f 133 137 140
f 133 140 139
f 133 139 138
f 133 138 134
f 135 139 140
f 135 140 136

o geometry_12
v 0.02317679 0.06126935 0.05000000 0.61176471 0.61568627 0.94117647
v 0.01404014 0.06126935 0.05000000 0.61176471 0.61568627 0.94117647
v 0.02317679 0.04954655 0.05000000 0.61176471 0.61568627 0.94117647
v 0.02317679 0.06126935 -0.00000000 0.61176471 0.61568627 0.94117647
v 0.01403345 0.06126935 0.03373630 0.61176471 0.61568627 0.94117647
v 0.00951595 0.05799179 -0.00000000 0.61176471 0.61568627 0.94117647
v 0.00951595 0.05798376 0.02622847 0.61176471 0.61568627 0.94117647
v 0.00951595 0.05798031 0.03333007 0.61176471 0.61568627 0.94117647
v 0.00951595 0.05796080 0.05000000 0.61176471 0.61568627 0.94117647
v 0.00951595 0.04954655 0.05000000 0.61176471 0.61568627 0.94117647
v 0.02317679 0.04954655 -0.00000000 0.61176471 0.61568627 0.94117647
v 0.01402409 0.06126935 -0.00000000 0.61176471 0.61568627 0.94117647
v 0.01403078 0.06126935 0.02500000 0.61176471 0.61568627 0.94117647
v 0.00951595 0.04954655 -0.00000000 0.61176471 0.61568627 0.94117647
f 141 142 149
f 141 149 150
f 141 150 143
f 141 143 151
f 141 151 144
f 141 144 152
f 141 152 153
f 141 153 145
f 141 145 142
f 142 145 146
f 142 146 147
f 142 147 148
f 142 148 149
f 143 150 154
f 143 154 151
f 144 151 154
f 144 154 146
f 144 146 152
f 145 153 146
f 146 153 152
f 146 154 150
f 146 150 149
f 146 149 148
f 146 148 147

o geometry_13
v 0.00587396 0.09127563 0.05000000 0.67843137 0.35686275 0.43529412
v -0.00492362 0.09127563 0.05000000 0.67843137 0.35686275 0.43529412
v 0.00587396 0.08445054 0.05000000 0.67843137 0.35686275 0.43529412
v 0.00587396 0.09127563 -0.00000000 0.67843137 0.35686275 0.43529412
v -0.00492362 0.08629301 0.05000000 0.67843137 0.35686275 0.43529412
v -0.00492362 0.09127563 -0.00000000 0.67843137 0.35686275 0.43529412
v 0.00587396 0.08440946 0.03160728 0.67843137 0.35686275 0.43529412
v 0.00587396 0.08444650 -0.00000000 0.67843137 0.35686275 0.43529412
v -0.00492362 0.08626204 0.03333007 0.67843137 0.35686275 0.43529412
v 0.00587396 0.08439667 0.02548453 0.67843137 0.35686275 0.43529412
v -0.00492362 0.08625463 -0.00000000 0.67843137 0.35686275 0.43529412
v 0.00587396 0.08439667 0.02451547 0.67843137 0.35686275 0.43529412
f 155 156 159
f 155 159 157
f 155 157 161
f 155 161 164
f 155 164 166
f 155 166 162
f 155 162 158
f 155 158 160
f 155 160 156
f 156 160 165
f 156 165 163
f 156 163 159
f 157 159 161
f 158 162 165
f 158 165 160
f 159 163 164
f 159 164 161
f 162 166 165
f 163 165 164
f 164 165 166

o geometry_14
v -0.02219765 0.08092245 0.05000000 0.69411765 0.05882353 0.66666667
v -0.01560385 0.08448398 0.03333007 0.69411765 0.05882353 0.66666667
v -0.01560385 0.08449209 0.05000000 0.69411765 0.05882353 0.66666667
v -0.02219765 0.09127563 0.05000000 0.69411765 0.05882353 0.66666667
v -0.02219765 0.08092751 -0.00000000 0.69411765 0.05882353 0.66666667
v -0.01560385 0.08448297 -0.00000000 0.69411765 0.05882353 0.66666667
v -0.01560385 0.09127563 0.05000000 0.69411765 0.05882353 0.66666667
v -0.02219765 0.09127563 -0.00000000 0.69411765 0.05882353 0.66666667
v -0.01560385 0.09127563 -0.00000000 0.69411765 0.05882353 0.66666667
f 167 168 169
f 167 169 173
f 167 173 170
f 167 170 174
f 167 174 171
f 167 171 172
f 167 172 168
f 168 172 175
f 168 175 173
f 168 173 169
f 170 173 175
f 170 175 174
f 171 174 175
f 171 175 172