# https://github.com/mikedh/trimesh
v -0.02400000 -0.00353590 -0.07500000 0.56470588 0.92549020 0.07058824
v -0.02400000 0.01151895 -0.07500000 0.56470588 0.92549020 0.07058824
v -0.01085733 -0.00353590 -0.07500000 0.56470588 0.92549020 0.07058824
v -0.02400000 -0.00353590 0.05000000 0.56470588 0.92549020 0.07058824
v -0.02392662 0.01215977 -0.07500000 0.56470588 0.92549020 0.07058824
v -0.02400000 0.01151895 0.05000000 0.56470588 0.92549020 0.07058824
v -0.00696339 -0.00070927 -0.07500000 0.56470588 0.92549020 0.07058824
v -0.01085733 -0.00353590 0.05000000 0.56470588 0.92549020 0.07058824
v -0.02371317 0.01276898 -0.07500000 0.56470588 0.92549020 0.07058824
v -0.02392662 0.01215977 0.05000000 0.56470588 0.92549020 0.07058824
v -0.00696339 0.01440000 -0.07500000 0.56470588 0.92549020 0.07058824
v -0.00696339 -0.00070927 0.05000000 0.56470588 0.92549020 0.07058824
v -0.02337130 0.01331500 -0.07500000 0.56470588 0.92549020 0.07058824
v -0.02371317 0.01276898 0.05000000 0.56470588 0.92549020 0.07058824
v -0.02111999 0.01440000 -0.07500000 0.56470588 0.92549020 0.07058824
v -0.00696339 0.01440000 0.05000000 0.56470588 0.92549020 0.07058824
v -0.02291437 0.01377147 -0.07500000 0.56470588 0.92549020 0.07058824
v -0.02337130 0.01331500 0.05000000 0.56470588 0.92549020 0.07058824
v -0.02176036 0.01432626 -0.07500000 0.56470588 0.92549020 0.07058824
v -0.02111999 0.01440000 0.05000000 0.56470588 0.92549020 0.07058824
v -0.02236905 0.01411383 -0.07500000 0.56470588 0.92549020 0.07058824
v -0.02291437 0.01377147 0.05000000 0.56470588 0.92549020 0.07058824
v -0.02176036 0.01432626 0.05000000 0.56470588 0.92549020 0.07058824
v -0.02236905 0.01411383 0.05000000 0.56470588 0.92549020 0.07058824
f 1 2 5
f 1 5 9
f 1 9 13
f 1 13 17
f 1 17 21
f 1 21 19
f 1 19 15
f 1 15 11
f 1 11 7
f 1 7 3
f 1 3 8
f 1 8 4
f 1 4 6
f 1 6 2
f 2 6 10
f 2 10 5
f 3 7 12
f 3 12 8
f 4 8 12
f 4 12 16
f 4 16 20
f 4 20 23
f 4 23 24
f 4 24 22
f 4 22 18
f 4 18 14
f 4 14 10
f 4 10 6
f 5 10 14
f 5 14 9
f 7 11 16
f 7 16 12
f 9 14 18
f 9 18 13
f 11 15 20
f 11 20 16
f 13 18 22
f 13 22 17
f 15 19 23
f 15 23 20
f 17 22 24
f 17 24 21
f 19 21 24
f 19 24 23