# https://github.com/mikedh/trimesh
v -0.00798892 -0.00133644 -0.07500000 0.43529412 0.89019608 0.96078431
v -0.00240356 0.00077387 -0.07500000 0.43529412 0.89019608 0.96078431
v -0.00240356 0.00077079 -0.07485317 0.43529412 0.89019608 0.96078431
v -0.00798892 -0.00133644 0.02500000 0.43529412 0.89019608 0.96078431
v -0.00798892 0.01440000 -0.07500000 0.43529412 0.89019608 0.96078431
v -0.00240356 0.01440000 -0.07500000 0.43529412 0.89019608 0.96078431
v -0.00240356 0.00077079 0.02500000 0.43529412 0.89019608 0.96078431
v -0.00798892 0.01440000 0.02500000 0.43529412 0.89019608 0.96078431
v -0.00240356 0.01440000 0.02500000 0.43529412 0.89019608 0.96078431
f 1 2 3
f 1 3 7
f 1 7 4
f 1 4 8
f 1 8 5
f 1 5 6
f 1 6 2
f 2 6 9
f 2 9 7
f 2 7 3
f 4 7 9
f 4 9 8
f 5 8 9
f 5 9 6