# https://github.com/mikedh/trimesh
v 0.01317366 -0.00659090 -0.07500000 0.38039216 0.78823529 0.52549020
v 0.00919917 -0.00211985 -0.07500000 0.38039216 0.78823529 0.52549020
v 0.01317366 0.01440000 -0.07500000 0.38039216 0.78823529 0.52549020
v 0.01317366 -0.00659090 0.02500000 0.38039216 0.78823529 0.52549020
v 0.00919917 -0.00211985 0.02500000 0.38039216 0.78823529 0.52549020
v 0.00919917 0.01440000 -0.07500000 0.38039216 0.78823529 0.52549020
v 0.01317366 0.01440000 0.02500000 0.38039216 0.78823529 0.52549020
v 0.00919917 0.01440000 0.02500000 0.38039216 0.78823529 0.52549020
f 1 2 6
f 1 6 3
f 1 3 7
f 1 7 4
f 1 4 5
f 1 5 2
f 2 5 8
f 2 8 6
f 3 6 8
f 3 8 7
f 4 7 8
f 4 8 5