# https://github.com/mikedh/trimesh
v 0.00919917 -0.00212022 -0.07500000 0.54117647 0.42352941 0.64313725
v 0.00474171 0.00021001 -0.07500000 0.54117647 0.42352941 0.64313725
v 0.00919917 0.01440000 -0.07500000 0.54117647 0.42352941 0.64313725
v 0.00919917 -0.00212022 0.02500000 0.54117647 0.42352941 0.64313725
v 0.00474084 0.00021163 -0.07500000 0.54117647 0.42352941 0.64313725
v 0.00474171 0.00021001 0.02500000 0.54117647 0.42352941 0.64313725
v 0.00474084 0.01440000 -0.07500000 0.54117647 0.42352941 0.64313725
v 0.00919917 0.01440000 0.02500000 0.54117647 0.42352941 0.64313725
v 0.00474084 0.00021163 0.02500000 0.54117647 0.42352941 0.64313725
v 0.00474084 0.01440000 0.02500000 0.54117647 0.42352941 0.64313725
f 1 2 5
f 1 5 7
f 1 7 3
f 1 3 8
f 1 8 4
f 1 4 6
f 1 6 2
f 2 6 9
f 2 9 5
f 3 7 10
f 3 10 8
f 4 8 10
f 4 10 9
f 4 9 6
f 5 9 10
f 5 10 7