# https://github.com/mikedh/trimesh

o geometry_0
v -0.01085862 -0.00353696 0.05000000 0.54509804 0.71372549 0.60000000
v -0.01535229 -0.01262512 0.05000000 0.54509804 0.71372549 0.60000000
v -0.01085862 -0.00353696 -0.07500000 0.54509804 0.71372549 0.60000000
v -0.02400000 -0.00353696 0.05000000 0.54509804 0.71372549 0.60000000
v -0.01568291 -0.01321426 0.05000000 0.54509804 0.71372549 0.60000000
v -0.01535229 -0.01262512 -0.07500000 0.54509804 0.71372549 0.60000000
v -0.02400000 -0.00353696 -0.07500000 0.54509804 0.71372549 0.60000000
v -0.02400000 -0.01151914 0.05000000 0.54509804 0.71372549 0.60000000
v -0.01614347 -0.01371089 0.05000000 0.54509804 0.71372549 0.60000000
v -0.01568291 -0.01321426 -0.07500000 0.54509804 0.71372549 0.60000000
v -0.02400000 -0.01151914 -0.07500000 0.54509804 0.71372549 0.60000000
v -0.02392667 -0.01216039 0.05000000 0.54509804 0.71372549 0.60000000
v -0.01670566 -0.01408628 0.05000000 0.54509804 0.71372549 0.60000000
v -0.01614347 -0.01371089 -0.07500000 0.54509804 0.71372549 0.60000000
v -0.02392667 -0.01216039 -0.07500000 0.54509804 0.71372549 0.60000000
v -0.02371440 -0.01276868 0.05000000 0.54509804 0.71372549 0.60000000
v -0.01733990 -0.01432024 0.05000000 0.54509804 0.71372549 0.60000000
v -0.01670566 -0.01408628 -0.07500000 0.54509804 0.71372549 0.60000000
v -0.02371440 -0.01276868 -0.07500000 0.54509804 0.71372549 0.60000000
v -0.02337091 -0.01331529 0.05000000 0.54509804 0.71372549 0.60000000
v -0.01801015 -0.01440000 0.05000000 0.54509804 0.71372549 0.60000000
v -0.01733990 -0.01432024 -0.07500000 0.54509804 0.71372549 0.60000000
v -0.02337091 -0.01331529 -0.07500000 0.54509804 0.71372549 0.60000000
v -0.02291550 -0.01377151 0.05000000 0.54509804 0.71372549 0.60000000
v -0.02111957 -0.01440000 0.05000000 0.54509804 0.71372549 0.60000000
v -0.01801015 -0.01440000 -0.07500000 0.54509804 0.71372549 0.60000000
v -0.02291550 -0.01377151 -0.07500000 0.54509804 0.71372549 0.60000000
v -0.02236874 -0.01411393 0.05000000 0.54509804 0.71372549 0.60000000
v -0.02176024 -0.01432769 0.05000000 0.54509804 0.71372549 0.60000000
v -0.02111957 -0.01440000 -0.07500000 0.54509804 0.71372549 0.60000000
v -0.02236874 -0.01411393 -0.07500000 0.54509804 0.71372549 0.60000000
v -0.02176024 -0.01432769 -0.07500000 0.54509804 0.71372549 0.60000000
f 1 2 6
f 1 6 3
f 1 3 7
f 1 7 4
f 1 4 8
f 1 8 12
f 1 12 16
f 1 16 20
f 1 20 24
f 1 24 28
f 1 28 29
f 1 29 25
f 1 25 21
f 1 21 17
f 1 17 13
f 1 13 9
f 1 9 5
f 1 5 2
f 2 5 10
f 2 10 6
f 3 6 10
f 3 10 14
f 3 14 18
f 3 18 22
f 3 22 26
f 3 26 30
f 3 30 32
f 3 32 31
f 3 31 27
f 3 27 23
f 3 23 19
f 3 19 15
f 3 15 11
f 3 11 7
f 4 7 11
f 4 11 8
f 5 9 14
f 5 14 10
f 8 11 15
f 8 15 12
f 9 13 18
f 9 18 14
f 12 15 19
f 12 19 16
f 13 17 22
f 13 22 18
f 16 19 23
f 16 23 20
f 17 21 26
f 17 26 22
f 20 23 27
f 20 27 24
f 21 25 30
f 21 30 26
f 24 27 31
f 24 31 28
f 25 29 32
f 25 32 30
f 28 31 32
f 28 32 29

o geometry_1
v 0.01030658 -0.00306461 -0.07500000 0.54117647 0.42352941 0.64313725
v 0.00000285 0.00096135 -0.07500000 0.54117647 0.42352941 0.64313725
v 0.01030658 0.01440000 -0.07500000 0.54117647 0.42352941 0.64313725
v 0.01030658 -0.00306461 0.05000000 0.54117647 0.42352941 0.64313725
v 0.00000285 0.01440000 -0.07500000 0.54117647 0.42352941 0.64313725
v 0.00000285 0.00096135 0.05000000 0.54117647 0.42352941 0.64313725
v 0.01030658 0.01440000 0.05000000 0.54117647 0.42352941 0.64313725
v 0.00000285 0.01440000 0.05000000 0.54117647 0.42352941 0.64313725
f 33 34 37
f 33 37 35
f 33 35 39
f 33 39 36
f 33 36 38
f 33 38 34
f 34 38 40
f 34 40 37
f 35 37 40
f 35 40 39
f 36 39 40
f 36 40 38

o geometry_2
v 0.01801114 -0.01440000 -0.07500000 0.43529412 0.89019608 0.96078431
v 0.02111950 -0.01440000 -0.07500000 0.43529412 0.89019608 0.96078431
v 0.01801114 -0.01440000 0.05000000 0.43529412 0.89019608 0.96078431
v 0.01733826 -0.01431825 -0.07500000 0.43529412 0.89019608 0.96078431
v 0.02176021 -0.01432670 -0.07500000 0.43529412 0.89019608 0.96078431
v 0.02111950 -0.01440000 0.05000000 0.43529412 0.89019608 0.96078431
v 0.01733826 -0.01431825 0.05000000 0.43529412 0.89019608 0.96078431
v 0.01670560 -0.01408426 -0.07500000 0.43529412 0.89019608 0.96078431
v 0.02236875 -0.01411245 -0.07500000 0.43529412 0.89019608 0.96078431
v 0.02176021 -0.01432670 0.05000000 0.43529412 0.89019608 0.96078431
v 0.01670560 -0.01408426 0.05000000 0.43529412 0.89019608 0.96078431
v 0.01614264 -0.01370932 -0.07500000 0.43529412 0.89019608 0.96078431
v 0.02291562 -0.01377134 -0.07500000 0.43529412 0.89019608 0.96078431
v 0.02236875 -0.01411245 0.05000000 0.43529412 0.89019608 0.96078431
v 0.01614264 -0.01370932 0.05000000 0.43529412 0.89019608 0.96078431
v 0.01568422 -0.01321316 -0.07500000 0.43529412 0.89019608 0.96078431
v 0.02337136 -0.01331464 -0.07500000 0.43529412 0.89019608 0.96078431
v 0.02291562 -0.01377134 0.05000000 0.43529412 0.89019608 0.96078431
v 0.01568422 -0.01321316 0.05000000 0.43529412 0.89019608 0.96078431
v 0.01535181 -0.01262396 -0.07500000 0.43529412 0.89019608 0.96078431
v 0.02371450 -0.01276774 -0.07500000 0.43529412 0.89019608 0.96078431
v 0.02337136 -0.01331464 0.05000000 0.43529412 0.89019608 0.96078431
v 0.01535181 -0.01262396 0.05000000 0.43529412 0.89019608 0.96078431
v 0.01030658 -0.00306437 -0.07500000 0.43529412 0.89019608 0.96078431
v 0.02392762 -0.01215881 -0.07500000 0.43529412 0.89019608 0.96078431
v 0.02371450 -0.01276774 0.05000000 0.43529412 0.89019608 0.96078431
v 0.01030658 -0.00306437 0.05000000 0.43529412 0.89019608 0.96078431
v 0.01030658 0.01440000 -0.07500000 0.43529412 0.89019608 0.96078431
v 0.02400000 -0.01151887 -0.07500000 0.43529412 0.89019608 0.96078431
v 0.02392762 -0.01215881 0.05000000 0.43529412 0.89019608 0.96078431
v 0.01030658 0.01440000 0.05000000 0.43529412 0.89019608 0.96078431
v 0.02111950 0.01440000 -0.07500000 0.43529412 0.89019608 0.96078431
v 0.02400000 0.01151887 -0.07500000 0.43529412 0.89019608 0.96078431
v 0.02400000 -0.01151887 0.05000000 0.43529412 0.89019608 0.96078431
v 0.02111950 0.01440000 0.05000000 0.43529412 0.89019608 0.96078431
v 0.02176021 0.01432670 -0.07500000 0.43529412 0.89019608 0.96078431
v 0.02392762 0.01215881 -0.07500000 0.43529412 0.89019608 0.96078431
v 0.02400000 0.01151887 0.05000000 0.43529412 0.89019608 0.96078431
v 0.02176021 0.01432670 0.05000000 0.43529412 0.89019608 0.96078431
v 0.02236875 0.01411245 -0.07500000 0.43529412 0.89019608 0.96078431
v 0.02371450 0.01276774 -0.07500000 0.43529412 0.89019608 0.96078431
v 0.02392762 0.01215881 0.05000000 0.43529412 0.89019608 0.96078431
v 0.02236875 0.01411245 0.05000000 0.43529412 0.89019608 0.96078431
v 0.02291562 0.01377134 -0.07500000 0.43529412 0.89019608 0.96078431
v 0.02337136 0.01331464 -0.07500000 0.43529412 0.89019608 0.96078431
v 0.02371450 0.01276774 0.05000000 0.43529412 0.89019608 0.96078431
v 0.02291562 0.01377134 0.05000000 0.43529412 0.89019608 0.96078431
v 0.02337136 0.01331464 0.05000000 0.43529412 0.89019608 0.96078431
f 41 42 46
f 41 46 43
f 41 43 47
f 41 47 44
f 41 44 48
f 41 48 52
f 41 52 56
f 41 56 60
f 41 60 64
f 41 64 68
f 41 68 72
f 41 72 76
f 41 76 80
f 41 80 84
f 41 84 85
f 41 85 81
f 41 81 77
f 41 77 73
f 41 73 69
f 41 69 65
f 41 65 61
f 41 61 57
f 41 57 53
f 41 53 49
f 41 49 45
f 41 45 42
f 42 45 50
f 42 50 46
f 43 46 50
f 43 50 54
f 43 54 58
f 43 58 62
f 43 62 66
f 43 66 70
f 43 70 74
f 43 74 78
f 43 78 82
f 43 82 86
f 43 86 88
f 43 88 87
f 43 87 83
f 43 83 79
f 43 79 75
f 43 75 71
f 43 71 67
f 43 67 63
f 43 63 59
f 43 59 55
f 43 55 51
f 43 51 47
f 44 47 51
f 44 51 48
f 45 49 54
f 45 54 50
f 48 51 55
f 48 55 52
f 49 53 58
f 49 58 54
f 52 55 59
f 52 59 56
f 53 57 62
f 53 62 58
f 56 59 63
f 56 63 60
f 57 61 66
f 57 66 62
f 60 63 67
f 60 67 64
f 61 65 70
f 61 70 66
f 64 67 71
f 64 71 68
f 65 69 74
f 65 74 70
f 68 71 75
f 68 75 72
f 69 73 78
f 69 78 74
f 72 75 79
f 72 79 76
f 73 77 82
f 73 82 78
f 76 79 83
f 76 83 80
f 77 81 86
f 77 86 82
f 80 83 87
f 80 87 84
f 81 85 88
f 81 88 86
f 84 87 88
f 84 88 85

o geometry_3
v -0.00696271 -0.00070941 -0.07500000 0.38039216 0.78823529 0.52549020
v -0.00696271 0.01440000 -0.07500000 0.38039216 0.78823529 0.52549020
v 0.00000116 0.00096037 -0.07500000 0.38039216 0.78823529 0.52549020
v -0.00696271 -0.00070941 0.05000000 0.38039216 0.78823529 0.52549020
v 0.00000116 0.01440000 -0.07500000 0.38039216 0.78823529 0.52549020
v -0.00696271 0.01440000 0.05000000 0.38039216 0.78823529 0.52549020
v 0.00000116 0.00096037 0.05000000 0.38039216 0.78823529 0.52549020
v 0.00000116 0.01440000 0.05000000 0.38039216 0.78823529 0.52549020
f 89 90 93
f 89 93 91
f 89 91 95
f 89 95 92
f 89 92 94
f 89 94 90
f 90 94 96
f 90 96 93
f 91 93 96
f 91 96 95
f 92 95 96
f 92 96 94

o geometry_4
v -0.02400000 -0.00353590 -0.07500000 0.56470588 0.92549020 0.07058824
v -0.02400000 0.01151895 -0.07500000 0.56470588 0.92549020 0.07058824
v -0.01085733 -0.00353590 -0.07500000 0.56470588 0.92549020 0.07058824
v -0.02400000 -0.00353590 0.05000000 0.56470588 0.92549020 0.07058824
v -0.02392662 0.01215977 -0.07500000 0.56470588 0.92549020 0.07058824
v -0.02400000 0.01151895 0.05000000 0.56470588 0.92549020 0.07058824
v -0.00696339 -0.00070927 -0.07500000 0.56470588 0.92549020 0.07058824
v -0.01085733 -0.00353590 0.05000000 0.56470588 0.92549020 0.07058824
v -0.02371317 0.01276898 -0.07500000 0.56470588 0.92549020 0.07058824
v -0.02392662 0.01215977 0.05000000 0.56470588 0.92549020 0.07058824
v -0.00696339 0.01440000 -0.07500000 0.56470588 0.92549020 0.07058824
v -0.00696339 -0.00070927 0.05000000 0.56470588 0.92549020 0.07058824
v -0.02337130 0.01331500 -0.07500000 0.56470588 0.92549020 0.07058824
v -0.02371317 0.01276898 0.05000000 0.56470588 0.92549020 0.07058824
v -0.02111999 0.01440000 -0.07500000 0.56470588 0.92549020 0.07058824
v -0.00696339 0.01440000 0.05000000 0.56470588 0.92549020 0.07058824
v -0.02291437 0.01377147 -0.07500000 0.56470588 0.92549020 0.07058824
v -0.02337130 0.01331500 0.05000000 0.56470588 0.92549020 0.07058824
v -0.02176036 0.01432626 -0.07500000 0.56470588 0.92549020 0.07058824
v -0.02111999 0.01440000 0.05000000 0.56470588 0.92549020 0.07058824
v -0.02236905 0.01411383 -0.07500000 0.56470588 0.92549020 0.07058824
v -0.02291437 0.01377147 0.05000000 0.56470588 0.92549020 0.07058824
v -0.02176036 0.01432626 0.05000000 0.56470588 0.92549020 0.07058824
v -0.02236905 0.01411383 0.05000000 0.56470588 0.92549020 0.07058824
f 97 98 101
f 97 101 105
f 97 105 109
f 97 109 113
f 97 113 117
f 97 117 115
f 97 115 111
f 97 111 107
f 97 107 103
f 97 103 99
f 97 99 104
f 97 104 100
f 97 100 102
f 97 102 98
f 98 102 106
f 98 106 101
f 99 103 108
f 99 108 104
f 100 104 108
f 100 108 112
f 100 112 116
f 100 116 119
f 100 119 120
f 100 120 118
f 100 118 114
f 100 114 110
f 100 110 106
f 100 106 102
f 101 106 110
f 101 110 105
f 103 107 112
f 103 112 108
f 105 110 114
f 105 114 109
f 107 111 116
f 107 116 112
f 109 114 118
f 109 118 113
f 111 115 119
f 111 119 116
f 113 118 120
f 113 120 117
f 115 117 120
f 115 120 119