# https://github.com/mikedh/trimesh
v 0.00599988 -0.00866649 -0.03323011 0.54117647 0.42352941 0.64313725
v 0.00583074 -0.01005654 -0.03323011 0.54117647 0.42352941 0.64313725
v 0.00599519 -0.00862097 -0.03323011 0.54117647 0.42352941 0.64313725
v 0.00586833 -0.00741299 0.01997537 0.54117647 0.42352941 0.64313725
v 0.00599636 -0.00886840 0.01997537 0.54117647 0.42352941 0.64313725
v 0.00582369 -0.01010206 -0.03323011 0.54117647 0.42352941 0.64313725
v 0.00582604 -0.00723092 -0.03323011 0.54117647 0.42352941 0.64313725
v 0.00539261 -0.00603111 0.01997537 0.54117647 0.42352941 0.64313725
v 0.00576731 -0.01031331 0.01997537 0.54117647 0.42352941 0.64313725
v 0.00532683 -0.01141157 -0.03323011 0.54117647 0.42352941 0.64313725
v 0.00581077 -0.00718657 -0.03323011 0.54117647 0.42352941 0.64313725
v 0.00531508 -0.00587705 -0.03323011 0.54117647 0.42352941 0.64313725
v 0.00459622 -0.00480446 0.01997537 0.54117647 0.42352941 0.64313725
v 0.00519527 -0.01165901 0.01997537 0.54117647 0.42352941 0.64313725
v 0.00530803 -0.01145476 -0.03323011 0.54117647 0.42352941 0.64313725
v 0.00528924 -0.00583854 -0.03323011 0.54117647 0.42352941 0.64313725
v 0.00352614 -0.00380656 0.01997537 0.54117647 0.42352941 0.64313725
v 0.00449403 -0.00468658 -0.03323011 0.54117647 0.42352941 0.64313725
v 0.00445996 -0.00465390 -0.03323011 0.54117647 0.42352941 0.64313725
v 0.00449050 -0.01263823 0.01997537 0.54117647 0.42352941 0.64313725
v 0.00449050 -0.01263823 -0.03323011 0.54117647 0.42352941 0.64313725
v 0.00451282 -0.01260671 -0.03323011 0.54117647 0.42352941 0.64313725
v 0.00224698 -0.00309812 0.01997537 0.54117647 0.42352941 0.64313725
v 0.00341220 -0.00372603 -0.03323011 0.54117647 0.42352941 0.64313725
v 0.00379043 -0.01325914 0.01997537 0.54117647 0.42352941 0.64313725
v 0.00446818 -0.01265807 -0.03323011 0.54117647 0.42352941 0.64313725
v 0.00083392 -0.00271880 0.01997537 0.54117647 0.42352941 0.64313725
v 0.00336992 -0.00370269 -0.03323011 0.54117647 0.42352941 0.64313725
v 0.00213070 -0.00305260 -0.03323011 0.54117647 0.42352941 0.64313725
v 0.00208606 -0.00303976 -0.03323011 0.54117647 0.42352941 0.64313725
v 0.00340751 -0.01359761 0.01997537 0.54117647 0.42352941 0.64313725
v 0.00340751 -0.01359761 -0.03323011 0.54117647 0.42352941 0.64313725
v -0.00062613 -0.00269429 0.01997537 0.54117647 0.42352941 0.64313725
v 0.00072586 -0.00270480 -0.03323011 0.54117647 0.42352941 0.64313725
v 0.00212717 -0.01426987 0.01997537 0.54117647 0.42352941 0.64313725
v 0.00338166 -0.01361161 -0.03323011 0.54117647 0.42352941 0.64313725
v -0.00205211 -0.00302225 0.01997537 0.54117647 0.42352941 0.64313725
v -0.00072010 -0.00270480 -0.03323011 0.54117647 0.42352941 0.64313725
v -0.00076591 -0.00271530 -0.03323011 0.54117647 0.42352941 0.64313725
v 0.00121919 -0.01449396 0.01997537 0.54117647 0.42352941 0.64313725
v 0.00212717 -0.01426987 -0.03323011 0.54117647 0.42352941 0.64313725
v -0.00335476 -0.00368635 0.01997537 0.54117647 0.42352941 0.64313725
v -0.00212494 -0.00305027 -0.03323011 0.54117647 0.42352941 0.64313725
v 0.00072233 -0.01461651 0.01997537 0.54117647 0.42352941 0.64313725
v 0.00072233 -0.01461651 -0.03323011 0.54117647 0.42352941 0.64313725
v -0.00445773 -0.00464573 0.01997537 0.54117647 0.42352941 0.64313725
v -0.00216605 -0.00307127 -0.03323011 0.54117647 0.42352941 0.64313725
v -0.00340645 -0.00372136 -0.03323011 0.54117647 0.42352941 0.64313725
v -0.00072245 -0.01461651 0.01997537 0.54117647 0.42352941 0.64313725
v -0.00072245 -0.01461651 -0.03323011 0.54117647 0.42352941 0.64313725
v -0.00529758 -0.00584437 0.01997537 0.54117647 0.42352941 0.64313725
v -0.00448944 -0.00468074 -0.03323011 0.54117647 0.42352941 0.64313725
v -0.00451646 -0.00471926 -0.03323011 0.54117647 0.42352941 0.64313725
v -0.00212729 -0.01426987 0.01997537 0.54117647 0.42352941 0.64313725
v -0.00212729 -0.01426987 -0.03323011 0.54117647 0.42352941 0.64313725
v -0.00582146 -0.00720874 0.01997537 0.54117647 0.42352941 0.64313725
v -0.00531167 -0.00587122 -0.03323011 0.54117647 0.42352941 0.64313725
v -0.00213669 -0.01426520 0.01997537 0.54117647 0.42352941 0.64313725
v -0.00340762 -0.01359761 -0.03323011 0.54117647 0.42352941 0.64313725
v -0.00600000 -0.00865949 0.01997537 0.54117647 0.42352941 0.64313725
v -0.00582498 -0.00722392 -0.03323011 0.54117647 0.42352941 0.64313725
v -0.00583086 -0.00727060 -0.03323011 0.54117647 0.42352941 0.64313725
v -0.00340762 -0.01359761 0.01997537 0.54117647 0.42352941 0.64313725
v -0.00449062 -0.01263823 -0.03323011 0.54117647 0.42352941 0.64313725
v -0.00341584 -0.01359060 0.01997537 0.54117647 0.42352941 0.64313725
v -0.00590838 -0.00970173 0.01997537 0.54117647 0.42352941 0.64313725
v -0.00600000 -0.00865949 -0.03323011 0.54117647 0.42352941 0.64313725
v -0.00449062 -0.01263823 0.01997537 0.54117647 0.42352941 0.64313725
v -0.00519539 -0.01166017 0.01997537 0.54117647 0.42352941 0.64313725
v -0.00451294 -0.01260671 -0.03323011 0.54117647 0.42352941 0.64313725
v -0.00563704 -0.01071246 0.01997537 0.54117647 0.42352941 0.64313725
v -0.00599648 -0.00869333 -0.03323011 0.54117647 0.42352941 0.64313725
v -0.00582733 -0.01008338 -0.03323011 0.54117647 0.42352941 0.64313725
v -0.00581911 -0.01011490 -0.03323011 0.54117647 0.42352941 0.64313725
v -0.00530815 -0.01145476 -0.03323011 0.54117647 0.42352941 0.64313725
v -0.00532225 -0.01142441 -0.03323011 0.54117647 0.42352941 0.64313725
f 1 2 6
f 1 6 10
f 1 10 15
f 1 15 22
f 1 22 21
f 1 21 26
f 1 26 32
f 1 32 36
f 1 36 41
f 1 41 45
f 1 45 50
f 1 50 55
f 1 55 59
f 1 59 64
f 1 64 70
f 1 70 75
f 1 75 76
f 1 76 74
f 1 74 73
f 1 73 72
f 1 72 67
f 1 67 62
f 1 62 61
f 1 61 57
f 1 57 53
f 1 53 52
f 1 52 48
f 1 48 47
f 1 47 43
f 1 43 39
f 1 39 38
f 1 38 34
f 1 34 30
f 1 30 29
f 1 29 28
f 1 28 24
f 1 24 19
f 1 19 18
f 1 18 16
f 1 16 12
f 1 12 11
f 1 11 7
f 1 7 3
f 1 3 4
f 1 4 5
f 1 5 2
f 2 5 6
f 3 7 4
f 4 7 8
f 4 8 13
f 4 13 17
f 4 17 23
f 4 23 27
f 4 27 33
f 4 33 37
f 4 37 42
f 4 42 46
f 4 46 51
f 4 51 56
f 4 56 60
f 4 60 66
f 4 66 71
f 4 71 69
f 4 69 68
f 4 68 65
f 4 65 63
f 4 63 58
f 4 58 54
f 4 54 49
f 4 49 44
f 4 44 40
f 4 40 35
f 4 35 31
f 4 31 25
f 4 25 20
f 4 20 14
f 4 14 9
f 4 9 5
f 5 9 6
f 6 9 10
f 7 11 8
f 8 11 12
f 8 12 13
f 9 14 10
f 10 14 15
f 12 16 13
f 13 16 18
f 13 18 19
f 13 19 17
f 14 20 21
f 14 21 22
f 14 22 15
f 17 19 24
f 17 24 23
f 20 25 26
f 20 26 21
f 23 24 28
f 23 28 29
f 23 29 30
f 23 30 27
f 25 31 32
f 25 32 26
f 27 30 34
f 27 34 33
f 31 35 36
f 31 36 32
f 33 34 38
f 33 38 39
f 33 39 37
f 35 40 41
f 35 41 36
f 37 39 43
f 37 43 42
f 40 44 45
f 40 45 41
f 42 43 47
f 42 47 48
f 42 48 46
f 44 49 50
f 44 50 45
f 46 48 52
f 46 52 53
f 46 53 51
f 49 54 55
f 49 55 50
f 51 53 57
f 51 57 56
f 54 58 55
f 55 58 59
f 56 57 61
f 56 61 62
f 56 62 60
f 58 63 59
f 59 63 65
f 59 65 64
f 60 62 67
f 60 67 66
f 64 65 68
f 64 68 69
f 64 69 70
f 66 67 72
f 66 72 73
f 66 73 74
f 66 74 71
f 69 71 75
f 69 75 70
f 71 74 76
f 71 76 75