# https://github.com/mikedh/trimesh
v 0.00000321 0.01866026 -0.03500050 0.38039216 0.78823529 0.52549020
v -0.00930134 0.01461727 -0.03323420 0.38039216 0.78823529 0.52549020
v -0.00925434 0.01461102 -0.03323420 0.38039216 0.78823529 0.52549020
v -0.00789547 0.01427671 -0.03323420 0.38039216 0.78823529 0.52549020
v -0.00785044 0.01425952 -0.03323420 0.38039216 0.78823529 0.52549020
v -0.00661101 0.01360808 -0.03323420 0.38039216 0.78823529 0.52549020
v -0.00657185 0.01358153 -0.03323420 0.38039216 0.78823529 0.52549020
v -0.00552430 0.01265357 -0.03323420 0.38039216 0.78823529 0.52549020
v -0.00549297 0.01261608 -0.03323420 0.38039216 0.78823529 0.52549020
v -0.00469801 0.01146473 -0.03323420 0.38039216 0.78823529 0.52549020
v -0.00467648 0.01142255 -0.03323420 0.38039216 0.78823529 0.52549020
v -0.00418110 0.01011499 -0.03323420 0.38039216 0.78823529 0.52549020
v -0.00417131 0.01006812 -0.03323420 0.38039216 0.78823529 0.52549020
v -0.00400096 0.00867932 -0.03323420 0.38039216 0.78823529 0.52549020
v 0.00000321 0.00270075 -0.03500050 0.38039216 0.78823529 0.52549020
v 0.00000321 0.01866026 -0.07500000 0.38039216 0.78823529 0.52549020
v -0.01699834 0.01866026 -0.03500050 0.38039216 0.78823529 0.52549020
v -0.01069937 0.01461727 -0.03323420 0.38039216 0.78823529 0.52549020
v -0.00400291 0.00863089 -0.03323420 0.38039216 0.78823529 0.52549020
v -0.00417131 0.00724209 -0.03323420 0.38039216 0.78823529 0.52549020
v -0.00418501 0.00719679 -0.03323420 0.38039216 0.78823529 0.52549020
v -0.00468039 0.00588766 -0.03323420 0.38039216 0.78823529 0.52549020
v -0.00470585 0.00584548 -0.03323420 0.38039216 0.78823529 0.52549020
v -0.00550081 0.00469413 -0.03323420 0.38039216 0.78823529 0.52549020
v -0.00553409 0.00465976 -0.03323420 0.38039216 0.78823529 0.52549020
v -0.00658164 0.00373181 -0.03323420 0.38039216 0.78823529 0.52549020
v -0.00662080 0.00370681 -0.03323420 0.38039216 0.78823529 0.52549020
v -0.00786023 0.00305537 -0.03323420 0.38039216 0.78823529 0.52549020
v -0.00790722 0.00304131 -0.03323420 0.38039216 0.78823529 0.52549020
v -0.00926609 0.00270700 -0.03323420 0.38039216 0.78823529 0.52549020
v -0.00931309 0.00270388 -0.03323420 0.38039216 0.78823529 0.52549020
v -0.02000000 0.00270075 -0.03500050 0.38039216 0.78823529 0.52549020
v 0.00000321 0.00270075 -0.07500000 0.38039216 0.78823529 0.52549020
v -0.01699834 0.01866026 -0.07500000 0.38039216 0.78823529 0.52549020
v -0.01766603 0.01858371 -0.03500050 0.38039216 0.78823529 0.52549020
v -0.01072287 0.01461571 -0.03323420 0.38039216 0.78823529 0.52549020
v -0.01071112 0.00270388 -0.03323420 0.38039216 0.78823529 0.52549020
v -0.02000000 0.01565926 -0.03500050 0.38039216 0.78823529 0.52549020
v -0.02000000 0.00270075 -0.07500000 0.38039216 0.78823529 0.52549020
v -0.01075811 0.00271169 -0.03323420 0.38039216 0.78823529 0.52549020
v -0.01211698 0.00304756 -0.03323420 0.38039216 0.78823529 0.52549020
v -0.01216006 0.00306787 -0.03323420 0.38039216 0.78823529 0.52549020
v -0.01339949 0.00371775 -0.03323420 0.38039216 0.78823529 0.52549020
v -0.01343669 0.00374743 -0.03323420 0.38039216 0.78823529 0.52549020
v -0.01448424 0.00467538 -0.03323420 0.38039216 0.78823529 0.52549020
v -0.01451361 0.00471444 -0.03323420 0.38039216 0.78823529 0.52549020
v -0.01530857 0.00586578 -0.03323420 0.38039216 0.78823529 0.52549020
v -0.01582548 0.00722491 -0.03323420 0.38039216 0.78823529 0.52549020
v -0.01599975 0.00866057 -0.03323420 0.38039216 0.78823529 0.52549020
v -0.01766603 0.01858371 -0.07500000 0.38039216 0.78823529 0.52549020
v -0.01830043 0.01836188 -0.03500050 0.38039216 0.78823529 0.52549020
v -0.01212677 0.01426890 -0.03323420 0.38039216 0.78823529 0.52549020
v -0.01209740 0.01427671 -0.03323420 0.38039216 0.78823529 0.52549020
v -0.01992364 0.01632632 -0.03500050 0.38039216 0.78823529 0.52549020
v -0.02000000 0.01565926 -0.07500000 0.38039216 0.78823529 0.52549020
v -0.01582548 0.01009624 -0.03323420 0.38039216 0.78823529 0.52549020
v -0.01830043 0.01836188 -0.07500000 0.38039216 0.78823529 0.52549020
v -0.01887022 0.01800570 -0.03500050 0.38039216 0.78823529 0.52549020
v -0.01340732 0.01359715 -0.03323420 0.38039216 0.78823529 0.52549020
v -0.01970238 0.01696058 -0.03500050 0.38039216 0.78823529 0.52549020
v -0.01992364 0.01632632 -0.07500000 0.38039216 0.78823529 0.52549020
v -0.01531248 0.01144755 -0.03323420 0.38039216 0.78823529 0.52549020
v -0.01887022 0.01800570 -0.07500000 0.38039216 0.78823529 0.52549020
v -0.01934406 0.01752922 -0.03500050 0.38039216 0.78823529 0.52549020
v -0.01449011 0.01263795 -0.03323420 0.38039216 0.78823529 0.52549020
v -0.01970238 0.01696058 -0.07500000 0.38039216 0.78823529 0.52549020
v -0.01934406 0.01752922 -0.07500000 0.38039216 0.78823529 0.52549020
f 1 2 3
f 1 3 4
f 1 4 5
f 1 5 6
f 1 6 7
f 1 7 8
f 1 8 9
f 1 9 10
f 1 10 11
f 1 11 12
f 1 12 13
f 1 13 14
f 1 14 15
f 1 15 33
f 1 33 16
f 1 16 34
f 1 34 17
f 1 17 18
f 1 18 2
f 2 18 36
f 2 36 53
f 2 53 52
f 2 52 59
f 2 59 65
f 2 65 62
f 2 62 56
f 2 56 49
f 2 49 48
f 2 48 47
f 2 47 46
f 2 46 45
f 2 45 44
f 2 44 43
f 2 43 42
f 2 42 41
f 2 41 40
f 2 40 37
f 2 37 31
f 2 31 30
f 2 30 29
f 2 29 28
f 2 28 27
f 2 27 26
f 2 26 25
f 2 25 24
f 2 24 23
f 2 23 22
f 2 22 21
f 2 21 20
f 2 20 19
f 2 19 14
f 2 14 13
f 2 13 12
f 2 12 11
f 2 11 10
f 2 10 9
f 2 9 8
f 2 8 7
f 2 7 6
f 2 6 5
f 2 5 4
f 2 4 3
f 14 19 15
f 15 19 20
f 15 20 21
f 15 21 22
f 15 22 23
f 15 23 24
f 15 24 25
f 15 25 26
f 15 26 27
f 15 27 28
f 15 28 29
f 15 29 30
f 15 30 31
f 15 31 37
f 15 37 32
f 15 32 39
f 15 39 33
f 16 33 39
f 16 39 55
f 16 55 61
f 16 61 66
f 16 66 67
f 16 67 63
f 16 63 57
f 16 57 50
f 16 50 34
f 17 34 50
f 17 50 35
f 17 35 36
f 17 36 18
f 32 38 55
f 32 55 39
f 32 37 40
f 32 40 41
f 32 41 42
f 32 42 43
f 32 43 44
f 32 44 45
f 32 45 46
f 32 46 47
f 32 47 48
f 32 48 49
f 32 49 38
f 35 51 52
f 35 52 53
f 35 53 36
f 35 50 57
f 35 57 51
f 38 49 54
f 38 54 61
f 38 61 55
f 49 56 54
f 51 58 59
f 51 59 52
f 51 57 63
f 51 63 58
f 54 56 60
f 54 60 66
f 54 66 61
f 56 62 60
f 58 64 65
f 58 65 59
f 58 63 67
f 58 67 64
f 60 62 64
f 60 64 67
f 60 67 66
f 62 65 64