# https://github.com/mikedh/trimesh
v -0.00400200 0.00867763 -0.03322495 0.79607843 0.45882353 0.78039216
v -0.00400317 0.00863070 -0.03322495 0.79607843 0.45882353 0.78039216
v -0.00416996 0.01006699 -0.03322495 0.79607843 0.45882353 0.78039216
v -0.00402549 0.00920803 0.01949554 0.79607843 0.45882353 0.78039216
v -0.00417113 0.00724133 -0.03322495 0.79607843 0.45882353 0.78039216
v -0.00407130 0.00774944 0.01949554 0.79607843 0.45882353 0.78039216
v -0.00407247 0.00773536 0.01949554 0.79607843 0.45882353 0.78039216
v -0.00418053 0.01011393 -0.03322495 0.79607843 0.45882353 0.78039216
v -0.00434027 0.01064902 0.01949554 0.79607843 0.45882353 0.78039216
v -0.00402784 0.00922094 0.01949554 0.79607843 0.45882353 0.78039216
v -0.00418405 0.00719557 -0.03322495 0.79607843 0.45882353 0.78039216
v -0.00447182 0.00633074 0.01949554 0.79607843 0.45882353 0.78039216
v -0.00467619 0.01142232 -0.03322495 0.79607843 0.45882353 0.78039216
v -0.00434497 0.01066076 0.01949554 0.79607843 0.45882353 0.78039216
v -0.00468089 0.00588718 -0.03322495 0.79607843 0.45882353 0.78039216
v -0.00447652 0.00631783 0.01949554 0.79607843 0.45882353 0.78039216
v -0.00469733 0.01146457 -0.03322495 0.79607843 0.45882353 0.78039216
v -0.00499567 0.01196915 0.01949554 0.79607843 0.45882353 0.78039216
v -0.00470438 0.00584611 -0.03322495 0.79607843 0.45882353 0.78039216
v -0.00520826 0.00505286 0.01949554 0.79607843 0.45882353 0.78039216
v -0.00549250 0.01261689 -0.03322495 0.79607843 0.45882353 0.78039216
v -0.00500389 0.01197971 0.01949554 0.79607843 0.45882353 0.78039216
v -0.00549955 0.00469378 -0.03322495 0.79607843 0.45882353 0.78039216
v -0.00521531 0.00504230 0.01949554 0.79607843 0.45882353 0.78039216
v -0.00552421 0.01265327 -0.03322495 0.79607843 0.45882353 0.78039216
v -0.00595410 0.01308979 0.01949554 0.79607843 0.45882353 0.78039216
v -0.00553243 0.00465975 -0.03322495 0.79607843 0.45882353 0.78039216
v -0.00623246 0.00399324 0.01949554 0.79607843 0.45882353 0.78039216
v -0.00657191 0.01358147 -0.03322495 0.79607843 0.45882353 0.78039216
v -0.00596467 0.01309801 0.01949554 0.79607843 0.45882353 0.78039216
v -0.00658130 0.00373156 -0.03322495 0.79607843 0.45882353 0.78039216
v -0.00624186 0.00398385 0.01949554 0.79607843 0.45882353 0.78039216
v -0.00661067 0.01360846 -0.03322495 0.79607843 0.45882353 0.78039216
v -0.00715683 0.01394289 0.01949554 0.79607843 0.45882353 0.78039216
v -0.00662124 0.00370691 -0.03322495 0.79607843 0.45882353 0.78039216
v -0.00748453 0.00321524 0.01949554 0.79607843 0.45882353 0.78039216
v -0.00784982 0.01425972 -0.03322495 0.79607843 0.45882353 0.78039216
v -0.00716858 0.01394876 0.01949554 0.79607843 0.45882353 0.78039216
v -0.00786039 0.00305565 -0.03322495 0.79607843 0.45882353 0.78039216
v -0.00749628 0.00320820 0.01949554 0.79607843 0.45882353 0.78039216
v -0.00789445 0.01427615 -0.03322495 0.79607843 0.45882353 0.78039216
v -0.00853105 0.01447681 0.01949554 0.79607843 0.45882353 0.78039216
v -0.00790619 0.00304157 -0.03322495 0.79607843 0.45882353 0.78039216
v -0.00888929 0.00276581 0.01949554 0.79607843 0.45882353 0.78039216
v -0.00925340 0.01461175 -0.03322495 0.79607843 0.45882353 0.78039216
v -0.00854397 0.01447915 0.01949554 0.79607843 0.45882353 0.78039216
v -0.00926515 0.00270596 -0.03322495 0.79607843 0.45882353 0.78039216
v -0.00890104 0.00276229 0.01949554 0.79607843 0.45882353 0.78039216
v -0.00930038 0.01461762 -0.03322495 0.79607843 0.45882353 0.78039216
v -0.00999454 0.01465869 0.01949554 0.79607843 0.45882353 0.78039216
v -0.00931213 0.00270362 -0.03322495 0.79607843 0.45882353 0.78039216
v -0.01035865 0.00267193 0.01949554 0.79607843 0.45882353 0.78039216
v -0.01069927 0.01461762 -0.03322495 0.79607843 0.45882353 0.78039216
v -0.01000629 0.01465869 0.01949554 0.79607843 0.45882353 0.78039216
v -0.01071101 0.00270362 -0.03322495 0.79607843 0.45882353 0.78039216
v -0.01037157 0.00267193 0.01949554 0.79607843 0.45882353 0.78039216
v -0.01072276 0.01461645 -0.03322495 0.79607843 0.45882353 0.78039216
v -0.01072276 0.01461645 0.01949554 0.79607843 0.45882353 0.78039216
v -0.01075800 0.00271183 -0.03322495 0.79607843 0.45882353 0.78039216
v -0.01180804 0.00294065 0.01949554 0.79607843 0.45882353 0.78039216
v -0.01212752 0.01427028 -0.03322495 0.79607843 0.45882353 0.78039216
v -0.01212752 0.01427028 0.01949554 0.79607843 0.45882353 0.78039216
v -0.01211695 0.00304744 -0.03322495 0.79607843 0.45882353 0.78039216
v -0.01182096 0.00294417 0.01949554 0.79607843 0.45882353 0.78039216
v -0.01340777 0.01359789 -0.03322495 0.79607843 0.45882353 0.78039216
v -0.01340777 0.01359789 0.01949554 0.79607843 0.45882353 0.78039216
v -0.01216041 0.00306739 -0.03322495 0.79607843 0.45882353 0.78039216
v -0.01314820 0.00355437 0.01949554 0.79607843 0.45882353 0.78039216
v -0.01446839 0.01265796 -0.03322495 0.79607843 0.45882353 0.78039216
v -0.01448249 0.01264623 0.01949554 0.79607843 0.45882353 0.78039216
v -0.01339955 0.00371748 -0.03322495 0.79607843 0.45882353 0.78039216
v -0.01315995 0.00356141 0.01949554 0.79607843 0.45882353 0.78039216
v -0.01449071 0.01263802 -0.03322495 0.79607843 0.45882353 0.78039216
v -0.01449071 0.01263802 0.01949554 0.79607843 0.45882353 0.78039216
v -0.01343714 0.00374798 -0.03322495 0.79607843 0.45882353 0.78039216
v -0.01429808 0.00447669 0.01949554 0.79607843 0.45882353 0.78039216
v -0.01529527 0.01147278 -0.03322495 0.79607843 0.45882353 0.78039216
v -0.01530584 0.01145753 0.01949554 0.79607843 0.45882353 0.78039216
v -0.01448483 0.00467618 -0.03322495 0.79607843 0.45882353 0.78039216
v -0.01430865 0.00448608 0.01949554 0.79607843 0.45882353 0.78039216
v -0.01531172 0.01144814 -0.03322495 0.79607843 0.45882353 0.78039216
v -0.01531172 0.01144814 0.01949554 0.79607843 0.45882353 0.78039216
v -0.01451302 0.00471373 -0.03322495 0.79607843 0.45882353 0.78039216
v -0.01518956 0.00565249 0.01949554 0.79607843 0.45882353 0.78039216
v -0.01581442 0.01012332 -0.03322495 0.79607843 0.45882353 0.78039216
v -0.01582147 0.01010572 0.01949554 0.79607843 0.45882353 0.78039216
v -0.01530819 0.00586606 -0.03322495 0.79607843 0.45882353 0.78039216
v -0.01519661 0.00566305 0.01949554 0.79607843 0.45882353 0.78039216
v -0.01582499 0.01009516 -0.03322495 0.79607843 0.45882353 0.78039216
v -0.01582499 0.01009516 0.01949554 0.79607843 0.45882353 0.78039216
v -0.01582499 0.00722491 -0.03322495 0.79607843 0.45882353 0.78039216
v -0.01582499 0.00722491 0.01949554 0.79607843 0.45882353 0.78039216
v -0.01599883 0.00866120 -0.03322495 0.79607843 0.45882353 0.78039216
v -0.01599883 0.00866120 0.01949554 0.79607843 0.45882353 0.78039216
v -0.01593658 0.00814606 0.01949554 0.79607843 0.45882353 0.78039216
f 1 2 5
f 1 5 11
f 1 11 15
f 1 15 19
f 1 19 23
f 1 23 27
f 1 27 31
f 1 31 35
f 1 35 39
f 1 39 43
f 1 43 47
f 1 47 51
f 1 51 55
f 1 55 59
f 1 59 63
f 1 63 67
f 1 67 71
f 1 71 75
f 1 75 79
f 1 79 83
f 1 83 87
f 1 87 91
f 1 91 93
f 1 93 89
f 1 89 85
f 1 85 81
f 1 81 77
f 1 77 73
f 1 73 69
f 1 69 65
f 1 65 61
f 1 61 57
f 1 57 53
f 1 53 49
f 1 49 45
f 1 45 41
f 1 41 37
f 1 37 33
f 1 33 29
f 1 29 25
f 1 25 21
f 1 21 17
f 1 17 13
f 1 13 8
f 1 8 3
f 1 3 4
f 1 4 2
f 2 4 6
f 2 6 7
f 2 7 5
f 3 8 9
f 3 9 10
f 3 10 4
f 4 10 9
f 4 9 14
f 4 14 18
f 4 18 22
f 4 22 26
f 4 26 30
f 4 30 34
f 4 34 38
f 4 38 42
f 4 42 46
f 4 46 50
f 4 50 54
f 4 54 58
f 4 58 62
f 4 62 66
f 4 66 70
f 4 70 74
f 4 74 78
f 4 78 82
f 4 82 86
f 4 86 90
f 4 90 94
f 4 94 95
f 4 95 92
f 4 92 88
f 4 88 84
f 4 84 80
f 4 80 76
f 4 76 72
f 4 72 68
f 4 68 64
f 4 64 60
f 4 60 56
f 4 56 52
f 4 52 48
f 4 48 44
f 4 44 40
f 4 40 36
f 4 36 32
f 4 32 28
f 4 28 24
f 4 24 20
f 4 20 16
f 4 16 12
f 4 12 7
f 4 7 6
f 5 7 11
f 7 12 11
f 8 13 9
f 9 13 14
f 11 12 16
f 11 16 15
f 13 17 18
f 13 18 14
f 15 16 19
f 16 20 19
f 17 21 18
f 18 21 22
f 19 20 24
f 19 24 23
f 21 25 26
f 21 26 22
f 23 24 27
f 24 28 27
f 25 29 26
f 26 29 30
f 27 28 32
f 27 32 31
f 29 33 34
f 29 34 30
f 31 32 36
f 31 36 35
f 33 37 34
f 34 37 38
f 35 36 40
f 35 40 39
f 37 41 42
f 37 42 38
f 39 40 44
f 39 44 43
f 41 45 42
f 42 45 46
f 43 44 48
f 43 48 47
f 45 49 46
f 46 49 50
f 47 48 52
f 47 52 51
f 49 53 54
f 49 54 50
f 51 52 56
f 51 56 55
f 53 57 54
f 54 57 58
f 55 56 59
f 56 60 59
f 57 61 62
f 57 62 58
f 59 60 63
f 60 64 63
f 61 65 66
f 61 66 62
f 63 64 67
f 64 68 67
f 65 69 70
f 65 70 66
f 67 68 71
f 68 72 71
f 69 73 70
f 70 73 74
f 71 72 76
f 71 76 75
f 73 77 78
f 73 78 74
f 75 76 79
f 76 80 79
f 77 81 78
f 78 81 82
f 79 80 84
f 79 84 83
f 81 85 86
f 81 86 82
f 83 84 87
f 84 88 87
f 85 89 86
f 86 89 90
f 87 88 92
f 87 92 91
f 89 93 94
f 89 94 90
f 91 92 95
f 91 95 93
f 93 95 94