# https://github.com/mikedh/trimesh
v 0.00399510 0.01466026 0.02499971 0.77647059 0.86666667 0.97647059
v 0.00399510 0.01466026 0.02000013 0.77647059 0.86666667 0.97647059
v -0.00378248 0.01466026 0.02499971 0.77647059 0.86666667 0.97647059
v -0.00999828 0.01465908 0.02501644 0.77647059 0.86666667 0.97647059
v -0.00853632 0.01447697 0.02501644 0.77647059 0.86666667 0.97647059
v -0.00716046 0.01394471 0.02501644 0.77647059 0.86666667 0.97647059
v -0.00595879 0.01309286 0.02501644 0.77647059 0.86666667 0.97647059
v -0.00499981 0.01197312 0.02501644 0.77647059 0.86666667 0.97647059
v -0.00434222 0.01065246 0.02501644 0.77647059 0.86666667 0.97647059
v -0.00402712 0.00921195 0.02501644 0.77647059 0.86666667 0.97647059
v 0.00399510 0.00265682 0.02499971 0.77647059 0.86666667 0.97647059
v 0.00399510 0.00265682 0.02000013 0.77647059 0.86666667 0.97647059
v -0.00402712 0.00922017 0.01950071 0.77647059 0.86666667 0.97647059
v -0.00434222 0.01064776 0.01950071 0.77647059 0.86666667 0.97647059
v -0.00434613 0.01066068 0.01950071 0.77647059 0.86666667 0.97647059
v -0.00499589 0.01196842 0.01950071 0.77647059 0.86666667 0.97647059
v -0.00595488 0.01308816 0.01950071 0.77647059 0.86666667 0.97647059
v -0.00596467 0.01309756 0.01950071 0.77647059 0.86666667 0.97647059
v -0.00715655 0.01394118 0.01950071 0.77647059 0.86666667 0.97647059
v -0.00716829 0.01394706 0.01950071 0.77647059 0.86666667 0.97647059
v -0.00853045 0.01447579 0.01950071 0.77647059 0.86666667 0.97647059
v -0.00854219 0.01447814 0.01950071 0.77647059 0.86666667 0.97647059
v -0.00999241 0.01465908 0.01950071 0.77647059 0.86666667 0.97647059
v -0.00378248 0.01466026 0.02000013 0.77647059 0.86666667 0.97647059
v -0.00999828 0.01466026 0.02499917 0.77647059 0.86666667 0.97647059
v -0.01005895 0.01465556 0.02501644 0.77647059 0.86666667 0.97647059
v -0.00407213 0.00774089 0.02501644 0.77647059 0.86666667 0.97647059
v -0.00447726 0.00632271 0.02501644 0.77647059 0.86666667 0.97647059
v -0.00521509 0.00504553 0.02501644 0.77647059 0.86666667 0.97647059
v -0.00623866 0.00398688 0.02501644 0.77647059 0.86666667 0.97647059
v -0.00749317 0.00321141 0.02501644 0.77647059 0.86666667 0.97647059
v -0.00889838 0.00276374 0.02501644 0.77647059 0.86666667 0.97647059
v -0.01036818 0.00267327 0.02501644 0.77647059 0.86666667 0.97647059
v 0.00266231 0.00265682 0.02499971 0.77647059 0.86666667 0.97647059
v -0.00378248 0.00265682 0.02000013 0.77647059 0.86666667 0.97647059
v -0.01035839 0.00267327 0.01950071 0.77647059 0.86666667 0.97647059
v -0.00890034 0.00276374 0.01950071 0.77647059 0.86666667 0.97647059
v -0.00888664 0.00276727 0.01950071 0.77647059 0.86666667 0.97647059
v -0.00749513 0.00321023 0.01950071 0.77647059 0.86666667 0.97647059
v -0.00748339 0.00321611 0.01950071 0.77647059 0.86666667 0.97647059
v -0.00624062 0.00398453 0.01950071 0.77647059 0.86666667 0.97647059
v -0.00623083 0.00399393 0.01950071 0.77647059 0.86666667 0.97647059
v -0.00521705 0.00504318 0.01950071 0.77647059 0.86666667 0.97647059
v -0.00520922 0.00505375 0.01950071 0.77647059 0.86666667 0.97647059
v -0.00447726 0.00631919 0.01950071 0.77647059 0.86666667 0.97647059
v -0.00447334 0.00633094 0.01950071 0.77647059 0.86666667 0.97647059
v -0.00407409 0.00773619 0.01950071 0.77647059 0.86666667 0.97647059
v -0.00407213 0.00774912 0.01950071 0.77647059 0.86666667 0.97647059
v -0.00402712 0.00920725 0.01950071 0.77647059 0.86666667 0.97647059
v -0.01000611 0.01465908 0.01950071 0.77647059 0.86666667 0.97647059
v -0.00999828 0.01466026 0.02000067 0.77647059 0.86666667 0.97647059
v -0.01071459 0.01461561 0.02501644 0.77647059 0.86666667 0.97647059
v -0.01181840 0.00294469 0.02501644 0.77647059 0.86666667 0.97647059
v -0.01346042 0.00265682 0.02499917 0.77647059 0.86666667 0.97647059
v -0.01346042 0.00265682 0.02000067 0.77647059 0.86666667 0.97647059
v -0.01037209 0.00267327 0.01950071 0.77647059 0.86666667 0.97647059
v -0.01071263 0.01461561 0.01950071 0.77647059 0.86666667 0.97647059
v -0.01072242 0.01461444 0.01950071 0.77647059 0.86666667 0.97647059
v -0.01072242 0.01461444 0.02501644 0.77647059 0.86666667 0.97647059
v -0.01315707 0.00356155 0.02501644 0.77647059 0.86666667 0.97647059
v -0.01430590 0.00448507 0.02501644 0.77647059 0.86666667 0.97647059
v -0.01519443 0.00566238 0.02501644 0.77647059 0.86666667 0.97647059
v -0.01519443 0.00566121 0.02000067 0.77647059 0.86666667 0.97647059
v -0.01518856 0.00565298 0.01950071 0.77647059 0.86666667 0.97647059
v -0.01430786 0.00448742 0.01950071 0.77647059 0.86666667 0.97647059
v -0.01429807 0.00447802 0.01950071 0.77647059 0.86666667 0.97647059
v -0.01315903 0.00356155 0.01950071 0.77647059 0.86666667 0.97647059
v -0.01314729 0.00355567 0.01950071 0.77647059 0.86666667 0.97647059
v -0.01182036 0.00294586 0.01950071 0.77647059 0.86666667 0.97647059
v -0.01180666 0.00294234 0.01950071 0.77647059 0.86666667 0.97647059
v -0.01122540 0.01449106 0.01950071 0.77647059 0.86666667 0.97647059
v -0.01113341 0.01451339 0.02501644 0.77647059 0.86666667 0.97647059
v -0.01582462 0.00722626 0.02501644 0.77647059 0.86666667 0.97647059
v -0.01519443 0.00566356 0.01950071 0.77647059 0.86666667 0.97647059
v -0.01582462 0.00722626 0.01950071 0.77647059 0.86666667 0.97647059
v -0.01212567 0.01426900 0.01950071 0.77647059 0.86666667 0.97647059
v -0.01211784 0.01427135 0.02501644 0.77647059 0.86666667 0.97647059
v -0.01582658 0.00723448 0.02501644 0.77647059 0.86666667 0.97647059
v -0.01599880 0.00865854 0.01950071 0.77647059 0.86666667 0.97647059
v -0.01212567 0.01426900 0.02501644 0.77647059 0.86666667 0.97647059
v -0.01340562 0.01359692 0.01950071 0.77647059 0.86666667 0.97647059
v -0.01599880 0.00865854 0.02501644 0.77647059 0.86666667 0.97647059
v -0.01599880 0.00866794 0.02501644 0.77647059 0.86666667 0.97647059
v -0.01582462 0.01009435 0.01950071 0.77647059 0.86666667 0.97647059
v -0.01340562 0.01359692 0.02501644 0.77647059 0.86666667 0.97647059
v -0.01448204 0.01264520 0.01950071 0.77647059 0.86666667 0.97647059
v -0.01582462 0.01009435 0.02501644 0.77647059 0.86666667 0.97647059
v -0.01546255 0.01104959 0.02501644 0.77647059 0.86666667 0.97647059
v -0.01531186 0.01144673 0.01950071 0.77647059 0.86666667 0.97647059
v -0.01448987 0.01263697 0.02501644 0.77647059 0.86666667 0.97647059
v -0.01448987 0.01263697 0.01950071 0.77647059 0.86666667 0.97647059
v -0.01531186 0.01144673 0.02501644 0.77647059 0.86666667 0.97647059
v -0.01530599 0.01145613 0.01950071 0.77647059 0.86666667 0.97647059
f 1 2 24
f 1 24 51
f 1 51 25
f 1 25 3
f 1 3 4
f 1 4 5
f 1 5 6
f 1 6 7
f 1 7 8
f 1 8 9
f 1 9 10
f 1 10 11
f 1 11 12
f 1 12 2
f 2 12 49
f 2 49 13
f 2 13 14
f 2 14 15
f 2 15 16
f 2 16 17
f 2 17 18
f 2 18 19
f 2 19 20
f 2 20 21
f 2 21 22
f 2 22 23
f 2 23 50
f 2 50 24
f 3 25 4
f 4 26 52
f 4 52 59
f 4 59 72
f 4 72 77
f 4 77 80
f 4 80 85
f 4 85 90
f 4 90 92
f 4 92 88
f 4 88 87
f 4 87 83
f 4 83 82
f 4 82 78
f 4 78 73
f 4 73 62
f 4 62 61
f 4 61 60
f 4 60 53
f 4 53 33
f 4 33 32
f 4 32 31
f 4 31 30
f 4 30 29
f 4 29 28
f 4 28 27
f 4 27 10
f 4 10 9
f 4 9 8
f 4 8 7
f 4 7 6
f 4 6 5
f 4 25 26
f 10 27 11
f 11 27 28
f 11 28 29
f 11 29 30
f 11 30 31
f 11 31 32
f 11 32 33
f 11 33 34
f 11 34 54
f 11 54 55
f 11 55 35
f 11 35 12
f 12 35 56
f 12 56 36
f 12 36 37
f 12 37 38
f 12 38 39
f 12 39 40
f 12 40 41
f 12 41 42
f 12 42 43
f 12 43 44
f 12 44 45
f 12 45 46
f 12 46 47
f 12 47 48
f 12 48 49
f 13 49 48
f 13 48 47
f 13 47 46
f 13 46 45
f 13 45 44
f 13 44 43
f 13 43 42
f 13 42 41
f 13 41 40
f 13 40 39
f 13 39 38
f 13 38 37
f 13 37 36
f 13 36 56
f 13 56 70
f 13 70 69
f 13 69 68
f 13 68 67
f 13 67 66
f 13 66 65
f 13 65 64
f 13 64 74
f 13 74 75
f 13 75 79
f 13 79 84
f 13 84 89
f 13 89 93
f 13 93 91
f 13 91 86
f 13 86 81
f 13 81 76
f 13 76 71
f 13 71 58
f 13 58 57
f 13 57 50
f 13 50 23
f 13 23 22
f 13 22 21
f 13 21 20
f 13 20 19
f 13 19 18
f 13 18 17
f 13 17 16
f 13 16 15
f 13 15 14
f 24 50 51
f 25 51 52
f 25 52 26
f 33 53 54
f 33 54 34
f 35 55 56
f 50 57 51
f 51 57 52
f 52 57 58
f 52 58 59
f 53 60 54
f 54 60 61
f 54 61 62
f 54 62 63
f 54 63 55
f 55 63 64
f 55 64 65
f 55 65 66
f 55 66 67
f 55 67 68
f 55 68 69
f 55 69 70
f 55 70 56
f 58 71 59
f 59 71 72
f 62 73 63
f 63 74 64
f 63 73 75
f 63 75 74
f 71 76 77
f 71 77 72
f 73 78 75
f 75 78 79
f 76 80 77
f 76 81 85
f 76 85 80
f 78 82 79
f 79 82 83
f 79 83 84
f 81 86 85
f 83 87 84
f 84 87 88
f 84 88 89
f 85 86 90
f 86 91 90
f 88 92 89
f 89 92 93
f 90 91 93
f 90 93 92