# https://github.com/mikedh/trimesh
v 0.00399704 0.00265682 0.02000022 0.94117647 0.52156863 0.41176471
v 0.00416977 0.00724551 0.01844787 0.94117647 0.52156863 0.41176471
v 0.00465388 0.00594822 0.01844787 0.94117647 0.52156863 0.41176471
v 0.00466798 0.00591062 0.01844787 0.94117647 0.52156863 0.41176471
v 0.00544468 0.00476374 0.01844787 0.94117647 0.52156863 0.41176471
v 0.00546701 0.00473084 0.01844787 0.94117647 0.52156863 0.41176471
v 0.00649163 0.00379900 0.01844787 0.94117647 0.52156863 0.41176471
v 0.00652218 0.00377197 0.01844787 0.94117647 0.52156863 0.41176471
v 0.00773717 0.00310805 0.01844787 0.94117647 0.52156863 0.41176471
v 0.00777359 0.00308925 0.01844787 0.94117647 0.52156863 0.41176471
v 0.00911078 0.00273085 0.01844787 0.94117647 0.52156863 0.41176471
v 0.00915073 0.00272145 0.01844787 0.94117647 0.52156863 0.41176471
v 0.01053375 0.00268855 0.01844787 0.94117647 0.52156863 0.41176471
v 0.01346075 0.00265682 0.02000022 0.94117647 0.52156863 0.41176471
v 0.00399704 0.00265682 0.02499993 0.94117647 0.52156863 0.41176471
v 0.00399704 0.01466026 0.02000022 0.94117647 0.52156863 0.41176471
v 0.00400056 0.00865913 0.01844787 0.94117647 0.52156863 0.41176471
v 0.01057370 0.00268855 0.01844787 0.94117647 0.52156863 0.41176471
v 0.01346075 0.00265682 0.02499993 0.94117647 0.52156863 0.41176471
v 0.01192734 0.00298232 0.01844787 0.94117647 0.52156863 0.41176471
v 0.01196611 0.00299290 0.01844787 0.94117647 0.52156863 0.41176471
v 0.01321165 0.00359689 0.01844787 0.94117647 0.52156863 0.41176471
v 0.01324807 0.00361686 0.01844787 0.94117647 0.52156863 0.41176471
v 0.01431500 0.00449817 0.01844787 0.94117647 0.52156863 0.41176471
v 0.01434555 0.00452520 0.01844787 0.94117647 0.52156863 0.41176471
v 0.01517513 0.00563330 0.01844787 0.94117647 0.52156863 0.41176471
v 0.01519863 0.00566738 0.01844787 0.94117647 0.52156863 0.41176471
v 0.01519510 0.00566033 0.02000022 0.94117647 0.52156863 0.41176471
v 0.01056195 0.00268855 0.02529766 0.94117647 0.52156863 0.41176471
v 0.00914721 0.00272145 0.02529766 0.94117647 0.52156863 0.41176471
v 0.00777947 0.00308808 0.02529766 0.94117647 0.52156863 0.41176471
v 0.00777124 0.00309043 0.02529766 0.94117647 0.52156863 0.41176471
v 0.00776419 0.00309395 0.02529766 0.94117647 0.52156863 0.41176471
v 0.00652806 0.00376845 0.02529766 0.94117647 0.52156863 0.41176471
v 0.00652101 0.00377315 0.02529766 0.94117647 0.52156863 0.41176471
v 0.00651396 0.00377902 0.02529766 0.94117647 0.52156863 0.41176471
v 0.00546583 0.00473084 0.02529766 0.94117647 0.52156863 0.41176471
v 0.00467268 0.00590474 0.02529766 0.94117647 0.52156863 0.41176471
v 0.00466798 0.00591179 0.02529766 0.94117647 0.52156863 0.41176471
v 0.00466446 0.00591884 0.02529766 0.94117647 0.52156863 0.41176471
v 0.00416977 0.00724668 0.02529766 0.94117647 0.52156863 0.41176471
v 0.00416859 0.00725491 0.02529766 0.94117647 0.52156863 0.41176471
v 0.00400056 0.00865913 0.02529766 0.94117647 0.52156863 0.41176471
v 0.00399704 0.01466026 0.02499993 0.94117647 0.52156863 0.41176471
v 0.00999911 0.01466026 0.02000022 0.94117647 0.52156863 0.41176471
v 0.00998031 0.01465791 0.01844787 0.94117647 0.52156863 0.41176471
v 0.00868307 0.01451220 0.01844787 0.94117647 0.52156863 0.41176471
v 0.00864312 0.01450280 0.01844787 0.94117647 0.52156863 0.41176471
v 0.00741051 0.01407154 0.01844787 0.94117647 0.52156863 0.41176471
v 0.00737408 0.01405274 0.01844787 0.94117647 0.52156863 0.41176471
v 0.00626955 0.01335710 0.01844787 0.94117647 0.52156863 0.41176471
v 0.00623900 0.01333007 0.01844787 0.94117647 0.52156863 0.41176471
v 0.00531543 0.01240763 0.01844787 0.94117647 0.52156863 0.41176471
v 0.00529193 0.01237355 0.01844787 0.94117647 0.52156863 0.41176471
v 0.00459748 0.01126781 0.01844787 0.94117647 0.52156863 0.41176471
v 0.00458338 0.01123020 0.01844787 0.94117647 0.52156863 0.41176471
v 0.00415214 0.00999754 0.01844787 0.94117647 0.52156863 0.41176471
v 0.00414627 0.00995759 0.01844787 0.94117647 0.52156863 0.41176471
v 0.01323632 0.00360981 0.02529766 0.94117647 0.52156863 0.41176471
v 0.01197081 0.00299525 0.02529766 0.94117647 0.52156863 0.41176471
v 0.01196259 0.00299172 0.02529766 0.94117647 0.52156863 0.41176471
v 0.01195436 0.00298937 0.02529766 0.94117647 0.52156863 0.41176471
v 0.01057957 0.00268973 0.02529766 0.94117647 0.52156863 0.41176471
v 0.01057017 0.00268855 0.02529766 0.94117647 0.52156863 0.41176471
v 0.01519510 0.00566033 0.02499993 0.94117647 0.52156863 0.41176471
v 0.01519158 0.00565445 0.02529766 0.94117647 0.52156863 0.41176471
v 0.01434790 0.00452755 0.02529766 0.94117647 0.52156863 0.41176471
v 0.01434320 0.00452167 0.02529766 0.94117647 0.52156863 0.41176471
v 0.01433615 0.00451580 0.02529766 0.94117647 0.52156863 0.41176471
v 0.01325042 0.00361921 0.02529766 0.94117647 0.52156863 0.41176471
v 0.01324455 0.00361451 0.02529766 0.94117647 0.52156863 0.41176471
v 0.01521390 0.00570498 0.01844787 0.94117647 0.52156863 0.41176471
v 0.01519980 0.00566973 0.02529766 0.94117647 0.52156863 0.41176471
v 0.00414979 0.00998697 0.02529766 0.94117647 0.52156863 0.41176471
v 0.00415097 0.00999519 0.02529766 0.94117647 0.52156863 0.41176471
v 0.00415332 0.01000342 0.02529766 0.94117647 0.52156863 0.41176471
v 0.00459513 0.01126428 0.02529766 0.94117647 0.52156863 0.41176471
v 0.00530603 0.01239471 0.02529766 0.94117647 0.52156863 0.41176471
v 0.00531660 0.01240763 0.02529766 0.94117647 0.52156863 0.41176471
v 0.00626133 0.01335240 0.02529766 0.94117647 0.52156863 0.41176471
v 0.00739993 0.01406684 0.02529766 0.94117647 0.52156863 0.41176471
v 0.00866074 0.01450750 0.02529766 0.94117647 0.52156863 0.41176471
v 0.00866897 0.01450985 0.02529766 0.94117647 0.52156863 0.41176471
v 0.00867719 0.01451102 0.02529766 0.94117647 0.52156863 0.41176471
v 0.00999676 0.01465908 0.02529766 0.94117647 0.52156863 0.41176471
v 0.00999911 0.01466026 0.02499993 0.94117647 0.52156863 0.41176471
v 0.01002026 0.01465791 0.01844787 0.94117647 0.52156863 0.41176471
v 0.01072293 0.01461561 0.01844787 0.94117647 0.52156863 0.41176471
v 0.01519628 0.00566268 0.02529766 0.94117647 0.52156863 0.41176471
v 0.01581787 0.00720556 0.01844787 0.94117647 0.52156863 0.41176471
v 0.01581904 0.00721026 0.02529766 0.94117647 0.52156863 0.41176471
v 0.01000851 0.01465908 0.02529766 0.94117647 0.52156863 0.41176471
v 0.01012719 0.01465203 0.02529766 0.94117647 0.52156863 0.41176471
v 0.01072293 0.01461561 0.02529766 0.94117647 0.52156863 0.41176471
v 0.01073350 0.01461326 0.01844787 0.94117647 0.52156863 0.41176471
v 0.01582492 0.00722553 0.01844787 0.94117647 0.52156863 0.41176471
v 0.01582492 0.00722553 0.02529766 0.94117647 0.52156863 0.41176471
v 0.01212709 0.01427013 0.02529766 0.94117647 0.52156863 0.41176471
v 0.01212709 0.01427013 0.01844787 0.94117647 0.52156863 0.41176471
v 0.01600000 0.00865913 0.01844787 0.94117647 0.52156863 0.41176471
v 0.01600000 0.00865913 0.02529766 0.94117647 0.52156863 0.41176471
v 0.01340788 0.01359799 0.02529766 0.94117647 0.52156863 0.41176471
v 0.01340788 0.01359799 0.01844787 0.94117647 0.52156863 0.41176471
v 0.01582492 0.01009508 0.01844787 0.94117647 0.52156863 0.41176471
v 0.01582609 0.01008685 0.02529766 0.94117647 0.52156863 0.41176471
v 0.01341493 0.01359211 0.02529766 0.94117647 0.52156863 0.41176471
v 0.01417635 0.01291762 0.02529766 0.94117647 0.52156863 0.41176471
v 0.01449008 0.01263795 0.01844787 0.94117647 0.52156863 0.41176471
v 0.01563456 0.01059801 0.01844787 0.94117647 0.52156863 0.41176471
v 0.01556524 0.01078250 0.02529766 0.94117647 0.52156863 0.41176471
v 0.01582492 0.01009508 0.02529766 0.94117647 0.52156863 0.41176471
v 0.01449008 0.01263795 0.02529766 0.94117647 0.52156863 0.41176471
v 0.01449596 0.01263090 0.02529766 0.94117647 0.52156863 0.41176471
v 0.01449713 0.01262855 0.01844787 0.94117647 0.52156863 0.41176471
v 0.01531261 0.01144759 0.01844787 0.94117647 0.52156863 0.41176471
v 0.01531261 0.01144759 0.02529766 0.94117647 0.52156863 0.41176471
v 0.01489547 0.01205276 0.02529766 0.94117647 0.52156863 0.41176471
f 1 2 3
f 1 3 4
f 1 4 5
f 1 5 6
f 1 6 7
f 1 7 8
f 1 8 9
f 1 9 10
f 1 10 11
f 1 11 12
f 1 12 13
f 1 13 18
f 1 18 14
f 1 14 19
f 1 19 15
f 1 15 44
f 1 44 16
f 1 16 17
f 1 17 2
f 2 17 58
f 2 58 57
f 2 57 56
f 2 56 55
f 2 55 54
f 2 54 53
f 2 53 52
f 2 52 51
f 2 51 50
f 2 50 49
f 2 49 48
f 2 48 47
f 2 47 46
f 2 46 87
f 2 87 88
f 2 88 95
f 2 95 99
f 2 99 103
f 2 103 108
f 2 108 114
f 2 114 115
f 2 115 109
f 2 109 104
f 2 104 100
f 2 100 96
f 2 96 90
f 2 90 72
f 2 72 27
f 2 27 26
f 2 26 25
f 2 25 24
f 2 24 23
f 2 23 22
f 2 22 21
f 2 21 20
f 2 20 18
f 2 18 13
f 2 13 12
f 2 12 11
f 2 11 10
f 2 10 9
f 2 9 8
f 2 8 7
f 2 7 6
f 2 6 5
f 2 5 4
f 2 4 3
f 14 18 20
f 14 20 21
f 14 21 22
f 14 22 23
f 14 23 24
f 14 24 25
f 14 25 26
f 14 26 27
f 14 27 28
f 14 28 65
f 14 65 19
f 15 19 64
f 15 64 29
f 15 29 30
f 15 30 31
f 15 31 32
f 15 32 33
f 15 33 34
f 15 34 35
f 15 35 36
f 15 36 37
f 15 37 38
f 15 38 39
f 15 39 40
f 15 40 41
f 15 41 42
f 15 42 43
f 15 43 44
f 16 44 86
f 16 86 45
f 16 45 87
f 16 87 46
f 16 46 47
f 16 47 48
f 16 48 49
f 16 49 50
f 16 50 51
f 16 51 52
f 16 52 53
f 16 53 54
f 16 54 55
f 16 55 56
f 16 56 57
f 16 57 58
f 16 58 17
f 19 59 60
f 19 60 61
f 19 61 62
f 19 62 63
f 19 63 64
f 19 65 66
f 19 66 67
f 19 67 68
f 19 68 69
f 19 69 70
f 19 70 71
f 19 71 59
f 27 72 73
f 27 73 89
f 27 89 65
f 27 65 28
f 29 64 63
f 29 63 62
f 29 62 61
f 29 61 60
f 29 60 59
f 29 59 71
f 29 71 70
f 29 70 69
f 29 69 68
f 29 68 67
f 29 67 66
f 29 66 89
f 29 89 73
f 29 73 91
f 29 91 97
f 29 97 101
f 29 101 105
f 29 105 111
f 29 111 110
f 29 110 116
f 29 116 117
f 29 117 113
f 29 113 112
f 29 112 107
f 29 107 106
f 29 106 102
f 29 102 98
f 29 98 94
f 29 94 93
f 29 93 92
f 29 92 85
f 29 85 84
f 29 84 83
f 29 83 82
f 29 82 81
f 29 81 80
f 29 80 79
f 29 79 78
f 29 78 77
f 29 77 76
f 29 76 75
f 29 75 74
f 29 74 43
f 29 43 42
f 29 42 41
f 29 41 40
f 29 40 39
f 29 39 38
f 29 38 37
f 29 37 36
f 29 36 35
f 29 35 34
f 29 34 33
f 29 33 32
f 29 32 31
f 29 31 30
f 43 74 44
f 44 74 75
f 44 75 76
f 44 76 77
f 44 77 78
f 44 78 79
f 44 79 80
f 44 80 81
f 44 81 82
f 44 82 83
f 44 83 84
f 44 84 85
f 44 85 92
f 44 92 86
f 45 86 94
f 45 94 88
f 45 88 87
f 65 89 66
f 72 90 73
f 73 90 91
f 86 92 93
f 86 93 94
f 88 94 95
f 90 96 97
f 90 97 91
f 94 98 95
f 95 98 99
f 96 100 101
f 96 101 97
f 98 102 103
f 98 103 99
f 100 104 105
f 100 105 101
f 102 106 103
f 103 106 107
f 103 107 108
f 104 109 110
f 104 110 111
f 104 111 105
f 107 112 108
f 108 112 113
f 108 113 114
f 109 115 110
f 110 115 116
f 113 117 114
f 114 117 115
f 115 117 116