# https://github.com/mikedh/trimesh
v 0.02000000 0.01565926 -0.03500050 0.43529412 0.89019608 0.96078431
v 0.02000000 0.00270075 -0.03500050 0.43529412 0.89019608 0.96078431
v 0.02000000 0.01565926 -0.07500000 0.43529412 0.89019608 0.96078431
v 0.01992366 0.01632632 -0.03500050 0.43529412 0.89019608 0.96078431
v 0.01599908 0.00866057 -0.03323420 0.43529412 0.89019608 0.96078431
v 0.01582487 0.00722491 -0.03323420 0.43529412 0.89019608 0.96078431
v 0.01530811 0.00586578 -0.03323420 0.43529412 0.89019608 0.96078431
v 0.01451341 0.00471444 -0.03323420 0.43529412 0.89019608 0.96078431
v 0.01448601 0.00467695 -0.03323420 0.43529412 0.89019608 0.96078431
v 0.01343684 0.00374899 -0.03323420 0.43529412 0.89019608 0.96078431
v 0.01340161 0.00371931 -0.03323420 0.43529412 0.89019608 0.96078431
v 0.01216257 0.00306943 -0.03323420 0.43529412 0.89019608 0.96078431
v 0.01212147 0.00304913 -0.03323420 0.43529412 0.89019608 0.96078431
v 0.01076303 0.00271325 -0.03323420 0.43529412 0.89019608 0.96078431
v 0.01071801 0.00270388 -0.03323420 0.43529412 0.89019608 0.96078431
v 0.00000321 0.00270075 -0.03500050 0.43529412 0.89019608 0.96078431
v 0.02000000 0.00270075 -0.07500000 0.43529412 0.89019608 0.96078431
v 0.01992366 0.01632632 -0.07500000 0.43529412 0.89019608 0.96078431
v 0.01970248 0.01696058 -0.03500050 0.43529412 0.89019608 0.96078431
v 0.01582487 0.01009624 -0.03323420 0.43529412 0.89019608 0.96078431
v 0.01582878 0.01006656 -0.03323420 0.43529412 0.89019608 0.96078431
v 0.00931847 0.00270388 -0.03323420 0.43529412 0.89019608 0.96078431
v 0.00000321 0.01866026 -0.03500050 0.43529412 0.89019608 0.96078431
v 0.00000321 0.00270075 -0.07500000 0.43529412 0.89019608 0.96078431
v 0.00927345 0.00270544 -0.03323420 0.43529412 0.89019608 0.96078431
v 0.00791502 0.00303975 -0.03323420 0.43529412 0.89019608 0.96078431
v 0.00787000 0.00305225 -0.03323420 0.43529412 0.89019608 0.96078431
v 0.00663096 0.00370213 -0.03323420 0.43529412 0.89019608 0.96078431
v 0.00658986 0.00372400 -0.03323420 0.43529412 0.89019608 0.96078431
v 0.00554265 0.00465351 -0.03323420 0.43529412 0.89019608 0.96078431
v 0.00550937 0.00468319 -0.03323420 0.43529412 0.89019608 0.96078431
v 0.00471271 0.00583610 -0.03323420 0.43529412 0.89019608 0.96078431
v 0.00468727 0.00587360 -0.03323420 0.43529412 0.89019608 0.96078431
v 0.00417443 0.00722647 -0.03323420 0.43529412 0.89019608 0.96078431
v 0.00400022 0.00866057 -0.03323420 0.43529412 0.89019608 0.96078431
v 0.01970248 0.01696058 -0.07500000 0.43529412 0.89019608 0.96078431
v 0.01934427 0.01752922 -0.03500050 0.43529412 0.89019608 0.96078431
v 0.01531203 0.01144755 -0.03323420 0.43529412 0.89019608 0.96078431
v 0.00417443 0.01009312 -0.03323420 0.43529412 0.89019608 0.96078431
v 0.00418813 0.01013373 -0.03323420 0.43529412 0.89019608 0.96078431
v 0.00468531 0.01144130 -0.03323420 0.43529412 0.89019608 0.96078431
v 0.00470880 0.01147879 -0.03323420 0.43529412 0.89019608 0.96078431
v 0.00550350 0.01263014 -0.03323420 0.43529412 0.89019608 0.96078431
v 0.00553482 0.01266139 -0.03323420 0.43529412 0.89019608 0.96078431
v 0.00658203 0.01358934 -0.03323420 0.43529412 0.89019608 0.96078431
v 0.00661922 0.01361277 -0.03323420 0.43529412 0.89019608 0.96078431
v 0.00785825 0.01426265 -0.03323420 0.43529412 0.89019608 0.96078431
v 0.00789936 0.01427671 -0.03323420 0.43529412 0.89019608 0.96078431
v 0.00925779 0.01461258 -0.03323420 0.43529412 0.89019608 0.96078431
v 0.00930086 0.01461727 -0.03323420 0.43529412 0.89019608 0.96078431
v 0.01699931 0.01866026 -0.03500050 0.43529412 0.89019608 0.96078431
v 0.00000321 0.01866026 -0.07500000 0.43529412 0.89019608 0.96078431
v 0.01934427 0.01752922 -0.07500000 0.43529412 0.89019608 0.96078431
v 0.01886862 0.01800570 -0.03500050 0.43529412 0.89019608 0.96078431
v 0.01448992 0.01263795 -0.03323420 0.43529412 0.89019608 0.96078431
v 0.01450754 0.01261296 -0.03323420 0.43529412 0.89019608 0.96078431
v 0.01069844 0.01461727 -0.03323420 0.43529412 0.89019608 0.96078431
v 0.01072193 0.01461571 -0.03323420 0.43529412 0.89019608 0.96078431
v 0.01766678 0.01858371 -0.03500050 0.43529412 0.89019608 0.96078431
v 0.01699931 0.01866026 -0.07500000 0.43529412 0.89019608 0.96078431
v 0.01886862 0.01800570 -0.07500000 0.43529412 0.89019608 0.96078431
v 0.01830098 0.01836188 -0.03500050 0.43529412 0.89019608 0.96078431
v 0.01340748 0.01359715 -0.03323420 0.43529412 0.89019608 0.96078431
v 0.01212734 0.01426890 -0.03323420 0.43529412 0.89019608 0.96078431
v 0.01766678 0.01858371 -0.07500000 0.43529412 0.89019608 0.96078431
v 0.01830098 0.01836188 -0.07500000 0.43529412 0.89019608 0.96078431
f 1 2 17
f 1 17 3
f 1 3 18
f 1 18 4
f 1 4 5
f 1 5 2
f 2 5 6
f 2 6 7
f 2 7 8
f 2 8 9
f 2 9 10
f 2 10 11
f 2 11 12
f 2 12 13
f 2 13 14
f 2 14 15
f 2 15 22
f 2 22 16
f 2 16 24
f 2 24 17
f 3 17 24
f 3 24 52
f 3 52 60
f 3 60 65
f 3 65 66
f 3 66 61
f 3 61 53
f 3 53 36
f 3 36 18
f 4 18 36
f 4 36 19
f 4 19 20
f 4 20 21
f 4 21 5
f 5 21 20
f 5 20 38
f 5 38 56
f 5 56 55
f 5 55 63
f 5 63 64
f 5 64 58
f 5 58 57
f 5 57 50
f 5 50 49
f 5 49 48
f 5 48 47
f 5 47 46
f 5 46 45
f 5 45 44
f 5 44 43
f 5 43 42
f 5 42 41
f 5 41 40
f 5 40 39
f 5 39 35
f 5 35 34
f 5 34 33
f 5 33 32
f 5 32 31
f 5 31 30
f 5 30 29
f 5 29 28
f 5 28 27
f 5 27 26
f 5 26 25
f 5 25 22
f 5 22 15
f 5 15 14
f 5 14 13
f 5 13 12
f 5 12 11
f 5 11 10
f 5 10 9
f 5 9 8
f 5 8 7
f 5 7 6
f 16 23 52
f 16 52 24
f 16 22 25
f 16 25 26
f 16 26 27
f 16 27 28
f 16 28 29
f 16 29 30
f 16 30 31
f 16 31 32
f 16 32 33
f 16 33 34
f 16 34 35
f 16 35 23
f 19 36 53
f 19 53 37
f 19 37 38
f 19 38 20
f 23 35 39
f 23 39 40
f 23 40 41
f 23 41 42
f 23 42 43
f 23 43 44
f 23 44 45
f 23 45 46
f 23 46 47
f 23 47 48
f 23 48 49
f 23 49 50
f 23 50 57
f 23 57 51
f 23 51 60
f 23 60 52
f 37 53 61
f 37 61 54
f 37 54 55
f 37 55 56
f 37 56 38
f 51 57 58
f 51 58 59
f 51 59 65
f 51 65 60
f 54 61 66
f 54 66 62
f 54 62 63
f 54 63 55
f 58 64 59
f 59 62 66
f 59 66 65
f 59 64 62
f 62 64 63