# https://github.com/mikedh/trimesh
v -0.00400003 0.00866005 -0.03497723 0.08627451 0.01960784 0.83137255
v -0.00417505 0.00722489 -0.03497723 0.08627451 0.01960784 0.83137255
v -0.00417505 0.01009522 -0.03497723 0.08627451 0.01960784 0.83137255
v -0.00415391 0.00997083 -0.02729319 0.08627451 0.01960784 0.83137255
v -0.00402705 0.00921042 0.01972672 0.08627451 0.01960784 0.83137255
v -0.00402587 0.00918577 0.01748309 0.08627451 0.01960784 0.83137255
v -0.00406933 0.00778229 0.01748309 0.08627451 0.01960784 0.83137255
v -0.00468836 0.00587187 -0.03497723 0.08627451 0.01960784 0.83137255
v -0.00407755 0.00771658 0.01748309 0.08627451 0.01960784 0.83137255
v -0.00411397 0.00759102 0.01972672 0.08627451 0.01960784 0.83137255
v -0.00447458 0.00632835 0.01972672 0.08627451 0.01960784 0.83137255
v -0.00447693 0.00632131 0.01972672 0.08627451 0.01960784 0.83137255
v -0.00465782 0.00593641 -0.02729319 0.08627451 0.01960784 0.83137255
v -0.00468836 0.01144706 -0.03497723 0.08627451 0.01960784 0.83137255
v -0.00463903 0.01133676 -0.02729319 0.08627451 0.01960784 0.83137255
v -0.00435829 0.01069017 0.01748309 0.08627451 0.01960784 0.83137255
v -0.00434184 0.01065144 0.01972672 0.08627451 0.01960784 0.83137255
v -0.00433480 0.01062798 0.01748309 0.08627451 0.01960784 0.83137255
v -0.00433245 0.01061741 0.01748309 0.08627451 0.01960784 0.83137255
v -0.00402822 0.00921746 0.01972672 0.08627451 0.01960784 0.83137255
v -0.00403174 0.00905786 0.01972672 0.08627451 0.01960784 0.83137255
v -0.00407286 0.00774709 0.01972672 0.08627451 0.01960784 0.83137255
v -0.00476119 0.00575687 -0.02729319 0.08627451 0.01960784 0.83137255
v -0.00550942 0.00468314 -0.03497723 0.08627451 0.01960784 0.83137255
v -0.00449102 0.00629198 0.01748309 0.08627451 0.01960784 0.83137255
v -0.00407403 0.00774005 0.01972672 0.08627451 0.01960784 0.83137255
v -0.00521107 0.00504927 0.01972672 0.08627451 0.01960784 0.83137255
v -0.00448632 0.00630137 0.01748309 0.08627451 0.01960784 0.83137255
v -0.00550707 0.01263462 -0.03497723 0.08627451 0.01960784 0.83137255
v -0.00473182 0.01152099 -0.02729319 0.08627451 0.01960784 0.83137255
v -0.00499846 0.01197161 0.01972672 0.08627451 0.01960784 0.83137255
v -0.00522751 0.00502814 0.01748309 0.08627451 0.01960784 0.83137255
v -0.00561161 0.00458457 -0.02729319 0.08627451 0.01960784 0.83137255
v -0.00659360 0.00372324 -0.03497723 0.08627451 0.01960784 0.83137255
v -0.00521577 0.00504340 0.01972672 0.08627451 0.01960784 0.83137255
v -0.00659360 0.01359687 -0.03497723 0.08627451 0.01960784 0.83137255
v -0.00557285 0.01270268 -0.02729319 0.08627451 0.01960784 0.83137255
v -0.00543777 0.01254426 -0.02729319 0.08627451 0.01960784 0.83137255
v -0.00500198 0.01197747 0.01972672 0.08627451 0.01960784 0.83137255
v -0.00532148 0.00493309 0.01972672 0.08627451 0.01960784 0.83137255
v -0.00654427 0.00375961 -0.02729319 0.08627451 0.01960784 0.83137255
v -0.00623652 0.00398962 0.01972672 0.08627451 0.01960784 0.83137255
v -0.00787277 0.00305083 -0.03497723 0.08627451 0.01960784 0.83137255
v -0.00671811 0.00365165 -0.02729319 0.08627451 0.01960784 0.83137255
v -0.00787277 0.01426927 -0.03497723 0.08627451 0.01960784 0.83137255
v -0.00719501 0.01396065 0.01748309 0.08627451 0.01960784 0.83137255
v -0.00716682 0.01394774 0.01972672 0.08627451 0.01960784 0.83137255
v -0.00713628 0.01392897 0.01748309 0.08627451 0.01960784 0.83137255
v -0.00667230 0.01364498 -0.02729319 0.08627451 0.01960784 0.83137255
v -0.00650316 0.01352646 -0.02729319 0.08627451 0.01960784 0.83137255
v -0.00596283 0.01309580 0.01972672 0.08627451 0.01960784 0.83137255
v -0.00593934 0.01307233 0.01748309 0.08627451 0.01960784 0.83137255
v -0.00595813 0.01309110 0.01972672 0.08627451 0.01960784 0.83137255
v -0.00625648 0.00397436 0.01748309 0.08627451 0.01960784 0.83137255
v -0.00626588 0.00396849 0.01748309 0.08627451 0.01960784 0.83137255
v -0.00624239 0.00398492 0.01972672 0.08627451 0.01960784 0.83137255
v -0.00927879 0.00270466 -0.03497723 0.08627451 0.01960784 0.83137255
v -0.00751098 0.00320221 0.01748309 0.08627451 0.01960784 0.83137255
v -0.00890056 0.00276216 0.01972672 0.08627451 0.01960784 0.83137255
v -0.00891584 0.00275981 0.01748309 0.08627451 0.01960784 0.83137255
v -0.00748867 0.00321277 0.01972672 0.08627451 0.01960784 0.83137255
v -0.00749454 0.00320925 0.01972672 0.08627451 0.01960784 0.83137255
v -0.00927879 0.01461545 -0.03497723 0.08627451 0.01960784 0.83137255
v -0.00917308 0.01459667 -0.02729319 0.08627451 0.01960784 0.83137255
v -0.00796556 0.01429861 -0.02729319 0.08627451 0.01960784 0.83137255
v -0.00849767 0.01446525 0.01748309 0.08627451 0.01960784 0.83137255
v -0.00715977 0.01394305 0.01972672 0.08627451 0.01960784 0.83137255
v -0.00839195 0.01442183 0.01972672 0.08627451 0.01960784 0.83137255
v -0.00943150 0.00269996 -0.02729319 0.08627451 0.01960784 0.83137255
v -0.01072358 0.00270466 -0.03497723 0.08627451 0.01960784 0.83137255
v -0.01036062 0.00267180 0.01972672 0.08627451 0.01960784 0.83137255
v -0.01072123 0.01461545 -0.03497723 0.08627451 0.01960784 0.83137255
v -0.00999884 0.01466004 0.01972672 0.08627451 0.01960784 0.83137255
v -0.00857167 0.01448520 0.01748309 0.08627451 0.01960784 0.83137255
v -0.00854230 0.01447933 0.01972672 0.08627451 0.01960784 0.83137255
v -0.00850824 0.01446877 0.01748309 0.08627451 0.01960784 0.83137255
v -0.00853526 0.01447698 0.01972672 0.08627451 0.01960784 0.83137255
v -0.01067190 0.00269996 -0.02729319 0.08627451 0.01960784 0.83137255
v -0.01212726 0.00305083 -0.03497723 0.08627451 0.01960784 0.83137255
v -0.01036885 0.00267180 0.01972672 0.08627451 0.01960784 0.83137255
v -0.01181129 0.00294170 0.01972672 0.08627451 0.01960784 0.83137255
v -0.01183126 0.00294757 0.01748309 0.08627451 0.01960784 0.83137255
v -0.01212726 0.01426927 -0.03497723 0.08627451 0.01960784 0.83137255
v -0.01210024 0.01427632 0.01748309 0.08627451 0.01960784 0.83137255
v -0.01072123 0.01461545 0.01972672 0.08627451 0.01960784 0.83137255
v -0.01071066 0.01461662 0.01972672 0.08627451 0.01960784 0.83137255
v -0.01000354 0.01466004 0.01972672 0.08627451 0.01960784 0.83137255
v -0.01337236 0.00369977 -0.02729319 0.08627451 0.01960784 0.83137255
v -0.01340290 0.00372089 -0.03497723 0.08627451 0.01960784 0.83137255
v -0.01315036 0.00355660 0.01972672 0.08627451 0.01960784 0.83137255
v -0.01315741 0.00356012 0.01972672 0.08627451 0.01960784 0.83137255
v -0.01181833 0.00294405 0.01972672 0.08627451 0.01960784 0.83137255
v -0.01195694 0.00300741 0.01972672 0.08627451 0.01960784 0.83137255
v -0.01340643 0.01359687 -0.03497723 0.08627451 0.01960784 0.83137255
v -0.01324198 0.01368371 -0.02729319 0.08627451 0.01960784 0.83137255
v -0.01340643 0.01359805 0.01748309 0.08627451 0.01960784 0.83137255
v -0.01228701 0.01418596 0.01748309 0.08627451 0.01960784 0.83137255
v -0.01212726 0.01426927 -0.02729319 0.08627451 0.01960784 0.83137255
v -0.01212609 0.01426927 0.01972672 0.08627451 0.01960784 0.83137255
v -0.01210847 0.01427397 0.01972672 0.08627451 0.01960784 0.83137255
v -0.01341113 0.00372558 -0.03497723 0.08627451 0.01960784 0.83137255
v -0.01430149 0.00448013 0.01972672 0.08627451 0.01960784 0.83137255
v -0.01449061 0.01263814 -0.03497723 0.08627451 0.01960784 0.83137255
v -0.01340643 0.01359805 0.01972672 0.08627451 0.01960784 0.83137255
v -0.01223885 0.01421060 0.01972672 0.08627451 0.01960784 0.83137255
v -0.01446476 0.00465498 -0.02729319 0.08627451 0.01960784 0.83137255
v -0.01449061 0.00468314 -0.03497723 0.08627451 0.01960784 0.83137255
v -0.01430619 0.00448482 0.01972672 0.08627451 0.01960784 0.83137255
v -0.01431441 0.00449304 0.01748309 0.08627451 0.01960784 0.83137255
v -0.01531167 0.01144706 -0.03497723 0.08627451 0.01960784 0.83137255
v -0.01520595 0.01160079 -0.02729319 0.08627451 0.01960784 0.83137255
v -0.01449061 0.01263814 -0.02729319 0.08627451 0.01960784 0.83137255
v -0.01447534 0.01265105 0.01972672 0.08627451 0.01960784 0.83137255
v -0.01519186 0.00565595 0.01972672 0.08627451 0.01960784 0.83137255
v -0.01531049 0.00586953 -0.03497723 0.08627451 0.01960784 0.83137255
v -0.01439899 0.00460686 0.01972672 0.08627451 0.01960784 0.83137255
v -0.01582381 0.01009522 -0.03497723 0.08627451 0.01960784 0.83137255
v -0.01575920 0.01026889 -0.02729319 0.08627451 0.01960784 0.83137255
v -0.01581558 0.01012103 0.01748309 0.08627451 0.01960784 0.83137255
v -0.01535631 0.01132971 0.01972672 0.08627451 0.01960784 0.83137255
v -0.01531167 0.01144706 -0.02729319 0.08627451 0.01960784 0.83137255
v -0.01529522 0.01147053 0.01748309 0.08627451 0.01960784 0.83137255
v -0.01480658 0.01217931 0.01972672 0.08627451 0.01960784 0.83137255
v -0.01456226 0.01253370 0.01972672 0.08627451 0.01960784 0.83137255
v -0.01448943 0.01263814 0.01972672 0.08627451 0.01960784 0.83137255
v -0.01519538 0.00566182 0.01972672 0.08627451 0.01960784 0.83137255
v -0.01520008 0.00567003 0.01748309 0.08627451 0.01960784 0.83137255
v -0.01582381 0.00722489 -0.03497723 0.08627451 0.01960784 0.83137255
v -0.01582498 0.00722606 0.01972672 0.08627451 0.01960784 0.83137255
v -0.01582498 0.00722606 0.01748309 0.08627451 0.01960784 0.83137255
v -0.01600000 0.00866123 -0.03497723 0.08627451 0.01960784 0.83137255
v -0.01600000 0.00866240 -0.02729319 0.08627451 0.01960784 0.83137255
v -0.01582498 0.01009287 0.01748309 0.08627451 0.01960784 0.83137255
v -0.01582498 0.01009287 0.01972672 0.08627451 0.01960784 0.83137255
v -0.01531049 0.01144824 0.01972672 0.08627451 0.01960784 0.83137255
v -0.01600000 0.00866357 0.01972672 0.08627451 0.01960784 0.83137255
v -0.01600000 0.00866240 0.01748309 0.08627451 0.01960784 0.83137255
v -0.01600000 0.00866123 -0.02729319 0.08627451 0.01960784 0.83137255
v -0.01600000 0.00866357 0.01748309 0.08627451 0.01960784 0.83137255
f 1 2 8
f 1 8 24
f 1 24 34
f 1 34 43
f 1 43 57
f 1 57 70
f 1 70 79
f 1 79 89
f 1 89 101
f 1 101 107
f 1 107 115
f 1 115 128
f 1 128 131
f 1 131 117
f 1 117 110
f 1 110 103
f 1 103 94
f 1 94 83
f 1 83 72
f 1 72 63
f 1 63 45
f 1 45 36
f 1 36 29
f 1 29 14
f 1 14 3
f 1 3 4
f 1 4 5
f 1 5 6
f 1 6 7
f 1 7 2
f 2 7 9
f 2 9 10
f 2 10 11
f 2 11 12
f 2 12 13
f 2 13 8
f 3 14 15
f 3 15 16
f 3 16 17
f 3 17 18
f 3 18 19
f 3 19 4
f 4 19 20
f 4 20 5
f 5 20 17
f 5 17 31
f 5 31 39
f 5 39 53
f 5 53 51
f 5 51 67
f 5 67 47
f 5 47 68
f 5 68 77
f 5 77 75
f 5 75 73
f 5 73 87
f 5 87 86
f 5 86 85
f 5 85 100
f 5 100 99
f 5 99 105
f 5 105 104
f 5 104 113
f 5 113 125
f 5 125 124
f 5 124 123
f 5 123 135
f 5 135 120
f 5 120 134
f 5 134 136
f 5 136 129
f 5 129 126
f 5 126 114
f 5 114 116
f 5 116 108
f 5 108 102
f 5 102 91
f 5 91 90
f 5 90 93
f 5 93 92
f 5 92 81
f 5 81 80
f 5 80 71
f 5 71 59
f 5 59 62
f 5 62 61
f 5 61 56
f 5 56 42
f 5 42 40
f 5 40 35
f 5 35 27
f 5 27 12
f 5 12 11
f 5 11 10
f 5 10 26
f 5 26 22
f 5 22 21
f 5 21 6
f 6 21 7
f 7 21 22
f 7 22 9
f 8 23 24
f 8 13 25
f 8 25 23
f 9 22 26
f 9 26 10
f 12 27 25
f 12 25 28
f 12 28 13
f 13 28 25
f 14 29 30
f 14 30 15
f 15 31 16
f 15 30 31
f 16 31 17
f 17 20 19
f 17 19 18
f 23 25 27
f 23 27 32
f 23 32 24
f 24 33 34
f 24 32 33
f 27 35 32
f 29 36 37
f 29 37 38
f 29 38 39
f 29 39 30
f 30 39 31
f 32 35 40
f 32 40 33
f 33 41 34
f 33 40 42
f 33 42 41
f 34 41 44
f 34 44 43
f 36 45 46
f 36 46 47
f 36 47 48
f 36 48 49
f 36 49 50
f 36 50 37
f 37 50 51
f 37 51 52
f 37 52 39
f 37 39 38
f 39 52 53
f 41 42 54
f 41 54 55
f 41 55 44
f 42 56 54
f 43 44 58
f 43 58 59
f 43 59 60
f 43 60 57
f 44 55 61
f 44 61 62
f 44 62 58
f 45 63 64
f 45 64 65
f 45 65 46
f 46 66 47
f 46 65 66
f 47 67 48
f 47 66 68
f 48 67 51
f 48 51 50
f 48 50 49
f 51 53 52
f 54 56 55
f 55 56 61
f 57 69 78
f 57 78 70
f 57 60 69
f 58 62 59
f 59 71 60
f 60 71 69
f 63 72 87
f 63 87 73
f 63 73 64
f 64 73 74
f 64 74 65
f 65 74 75
f 65 75 76
f 65 76 66
f 66 76 75
f 66 75 77
f 66 77 68
f 69 71 80
f 69 80 78
f 70 78 80
f 70 80 81
f 70 81 82
f 70 82 79
f 72 83 84
f 72 84 85
f 72 85 86
f 72 86 87
f 73 75 74
f 79 88 89
f 79 82 90
f 79 90 91
f 79 91 88
f 81 92 82
f 82 92 93
f 82 93 90
f 83 94 95
f 83 95 96
f 83 96 97
f 83 97 98
f 83 98 84
f 84 99 100
f 84 100 85
f 84 98 99
f 88 101 89
f 88 91 102
f 88 102 101
f 94 103 96
f 94 96 95
f 96 104 97
f 96 103 112
f 96 112 104
f 97 104 105
f 97 105 99
f 97 99 98
f 101 106 107
f 101 102 106
f 102 108 109
f 102 109 106
f 103 110 111
f 103 111 112
f 104 112 113
f 106 109 114
f 106 114 107
f 107 114 115
f 108 116 109
f 109 116 114
f 110 117 118
f 110 118 119
f 110 119 120
f 110 120 121
f 110 121 111
f 111 121 122
f 111 122 123
f 111 123 124
f 111 124 112
f 112 124 125
f 112 125 113
f 114 126 127
f 114 127 115
f 115 127 129
f 115 129 130
f 115 130 128
f 117 131 132
f 117 132 133
f 117 133 119
f 117 119 118
f 119 133 134
f 119 134 120
f 120 135 121
f 121 135 122
f 122 135 123
f 126 129 127
f 128 130 131
f 129 136 137
f 129 137 138
f 129 138 131
f 129 131 130
f 131 138 137
f 131 137 136
f 131 136 139
f 131 139 132
f 132 139 133
f 133 139 136
f 133 136 134