# https://github.com/mikedh/trimesh
v 0.02000000 0.00270075 -0.03500050 0.54509804 0.71372549 0.60000000
v 0.00067737 -0.00270432 -0.03323420 0.54509804 0.71372549 0.60000000
v 0.00072435 -0.00270641 -0.03323420 0.54509804 0.71372549 0.60000000
v 0.00208301 -0.00304096 -0.03323420 0.54509804 0.71372549 0.60000000
v 0.00212999 -0.00305351 -0.03323420 0.54509804 0.71372549 0.60000000
v 0.00336727 -0.00370379 -0.03323420 0.54509804 0.71372549 0.60000000
v 0.00341034 -0.00372679 -0.03323420 0.54509804 0.71372549 0.60000000
v 0.00445967 -0.00465516 -0.03323420 0.54509804 0.71372549 0.60000000
v 0.00449099 -0.00468653 -0.03323420 0.54509804 0.71372549 0.60000000
v 0.00528974 -0.00583863 -0.03323420 0.54509804 0.71372549 0.60000000
v 0.00531323 -0.00587836 -0.03323420 0.54509804 0.71372549 0.60000000
v 0.00581049 -0.00718729 -0.03323420 0.54509804 0.71372549 0.60000000
v 0.00582615 -0.00723120 -0.03323420 0.54509804 0.71372549 0.60000000
v 0.00599452 -0.00861958 -0.03323420 0.54509804 0.71372549 0.60000000
v 0.00599843 -0.00866558 -0.03323420 0.54509804 0.71372549 0.60000000
v 0.02000000 -0.00041892 -0.03500050 0.54509804 0.71372549 0.60000000
v 0.02000000 0.00270075 -0.07500000 0.54509804 0.71372549 0.60000000
v -0.02000000 0.00270075 -0.03500050 0.54509804 0.71372549 0.60000000
v -0.00071652 -0.00270432 -0.03323420 0.54509804 0.71372549 0.60000000
v 0.00583007 -0.01005605 -0.03323420 0.54509804 0.71372549 0.60000000
v 0.01994127 -0.00100439 -0.03500050 0.54509804 0.71372549 0.60000000
v 0.02000000 -0.00041892 -0.07500000 0.54509804 0.71372549 0.60000000
v -0.02000000 0.00270075 -0.07500000 0.54509804 0.71372549 0.60000000
v -0.00599843 -0.00865931 -0.03323420 0.54509804 0.71372549 0.60000000
v -0.00583007 -0.00727093 -0.03323420 0.54509804 0.71372549 0.60000000
v -0.00582224 -0.00722492 -0.03323420 0.54509804 0.71372549 0.60000000
v -0.00532890 -0.00591600 -0.03323420 0.54509804 0.71372549 0.60000000
v -0.00530932 -0.00587209 -0.03323420 0.54509804 0.71372549 0.60000000
v -0.00451449 -0.00471998 -0.03323420 0.54509804 0.71372549 0.60000000
v -0.00448708 -0.00468235 -0.03323420 0.54509804 0.71372549 0.60000000
v -0.00340642 -0.00372261 -0.03323420 0.54509804 0.71372549 0.60000000
v -0.00212216 -0.00304932 -0.03323420 0.54509804 0.71372549 0.60000000
v -0.00076351 -0.00271477 -0.03323420 0.54509804 0.71372549 0.60000000
v -0.02000000 -0.00041892 -0.03500050 0.54509804 0.71372549 0.60000000
v 0.00582224 -0.01010205 -0.03323420 0.54509804 0.71372549 0.60000000
v 0.01976899 -0.00156685 -0.03500050 0.54509804 0.71372549 0.60000000
v 0.01994127 -0.00100439 -0.07500000 0.54509804 0.71372549 0.60000000
v -0.02000000 -0.00041892 -0.07500000 0.54509804 0.71372549 0.60000000
v -0.00599452 -0.00869276 -0.03323420 0.54509804 0.71372549 0.60000000
v -0.01994127 -0.00100439 -0.03500050 0.54509804 0.71372549 0.60000000
v 0.00532498 -0.01141098 -0.03323420 0.54509804 0.71372549 0.60000000
v 0.01949099 -0.00208540 -0.03500050 0.54509804 0.71372549 0.60000000
v 0.01976899 -0.00156685 -0.07500000 0.54509804 0.71372549 0.60000000
v 0.00530540 -0.01145489 -0.03323420 0.54509804 0.71372549 0.60000000
v -0.01994127 -0.00100439 -0.07500000 0.54509804 0.71372549 0.60000000
v -0.00582615 -0.01008324 -0.03323420 0.54509804 0.71372549 0.60000000
v -0.01976899 -0.00156685 -0.03500050 0.54509804 0.71372549 0.60000000
v -0.00581832 -0.01011460 -0.03323420 0.54509804 0.71372549 0.60000000
v 0.01911903 -0.00253914 -0.03500050 0.54509804 0.71372549 0.60000000
v 0.01949099 -0.00208540 -0.07500000 0.54509804 0.71372549 0.60000000
v 0.00449099 -0.01263836 -0.03323420 0.54509804 0.71372549 0.60000000
v -0.01976899 -0.00156685 -0.07500000 0.54509804 0.71372549 0.60000000
v -0.01949099 -0.00208540 -0.03500050 0.54509804 0.71372549 0.60000000
v -0.00530540 -0.01145489 -0.03323420 0.54509804 0.71372549 0.60000000
v -0.00532106 -0.01142353 -0.03323420 0.54509804 0.71372549 0.60000000
v 0.00387627 -0.01777998 -0.03500050 0.54509804 0.71372549 0.60000000
v 0.01911903 -0.00253914 -0.07500000 0.54509804 0.71372549 0.60000000
v 0.00340642 -0.01359810 -0.03323420 0.54509804 0.71372549 0.60000000
v -0.01949099 -0.00208540 -0.07500000 0.54509804 0.71372549 0.60000000
v -0.01911903 -0.00253914 -0.03500050 0.54509804 0.71372549 0.60000000
v -0.00449099 -0.01263836 -0.03323420 0.54509804 0.71372549 0.60000000
v 0.00342208 -0.01815425 -0.03500050 0.54509804 0.71372549 0.60000000
v 0.00387627 -0.01777998 -0.07500000 0.54509804 0.71372549 0.60000000
v 0.00212608 -0.01426929 -0.03323420 0.54509804 0.71372549 0.60000000
v 0.00290525 -0.01843026 -0.03500050 0.54509804 0.71372549 0.60000000
v -0.01911903 -0.00253914 -0.07500000 0.54509804 0.71372549 0.60000000
v -0.00387627 -0.01777998 -0.03500050 0.54509804 0.71372549 0.60000000
v -0.00340642 -0.01359810 -0.03323420 0.54509804 0.71372549 0.60000000
v 0.00342208 -0.01815425 -0.07500000 0.54509804 0.71372549 0.60000000
v 0.00072044 -0.01461639 -0.03323420 0.54509804 0.71372549 0.60000000
v 0.00234143 -0.01860172 -0.03500050 0.54509804 0.71372549 0.60000000
v 0.00290525 -0.01843026 -0.07500000 0.54509804 0.71372549 0.60000000
v -0.00387627 -0.01777998 -0.07500000 0.54509804 0.71372549 0.60000000
v -0.00342208 -0.01815425 -0.03500050 0.54509804 0.71372549 0.60000000
v -0.00212608 -0.01426929 -0.03323420 0.54509804 0.71372549 0.60000000
v -0.00290525 -0.01843026 -0.03500050 0.54509804 0.71372549 0.60000000
v -0.00072044 -0.01461639 -0.03323420 0.54509804 0.71372549 0.60000000
v 0.00175411 -0.01866026 -0.03500050 0.54509804 0.71372549 0.60000000
v 0.00234143 -0.01860172 -0.07500000 0.54509804 0.71372549 0.60000000
v -0.00342208 -0.01815425 -0.07500000 0.54509804 0.71372549 0.60000000
v -0.00234143 -0.01860172 -0.03500050 0.54509804 0.71372549 0.60000000
v -0.00290525 -0.01843026 -0.07500000 0.54509804 0.71372549 0.60000000
v -0.00175411 -0.01866026 -0.03500050 0.54509804 0.71372549 0.60000000
v 0.00175411 -0.01866026 -0.07500000 0.54509804 0.71372549 0.60000000
v -0.00234143 -0.01860172 -0.07500000 0.54509804 0.71372549 0.60000000
v -0.00175411 -0.01866026 -0.07500000 0.54509804 0.71372549 0.60000000
f 1 2 3
f 1 3 4
f 1 4 5
f 1 5 6
f 1 6 7
f 1 7 8
f 1 8 9
f 1 9 10
f 1 10 11
f 1 11 12
f 1 12 13
f 1 13 14
f 1 14 15
f 1 15 16
f 1 16 22
f 1 22 17
f 1 17 23
f 1 23 18
f 1 18 19
f 1 19 2
f 2 19 33
f 2 33 32
f 2 32 31
f 2 31 30
f 2 30 29
f 2 29 28
f 2 28 27
f 2 27 26
f 2 26 25
f 2 25 24
f 2 24 39
f 2 39 46
f 2 46 48
f 2 48 55
f 2 55 54
f 2 54 61
f 2 61 68
f 2 68 75
f 2 75 77
f 2 77 70
f 2 70 64
f 2 64 58
f 2 58 51
f 2 51 44
f 2 44 41
f 2 41 35
f 2 35 20
f 2 20 15
f 2 15 14
f 2 14 13
f 2 13 12
f 2 12 11
f 2 11 10
f 2 10 9
f 2 9 8
f 2 8 7
f 2 7 6
f 2 6 5
f 2 5 4
f 2 4 3
f 15 20 21
f 15 21 16
f 16 21 37
f 16 37 22
f 17 22 37
f 17 37 43
f 17 43 50
f 17 50 57
f 17 57 63
f 17 63 69
f 17 69 72
f 17 72 79
f 17 79 84
f 17 84 86
f 17 86 85
f 17 85 82
f 17 82 80
f 17 80 73
f 17 73 66
f 17 66 59
f 17 59 52
f 17 52 45
f 17 45 38
f 17 38 23
f 18 24 25
f 18 25 26
f 18 26 27
f 18 27 28
f 18 28 29
f 18 29 30
f 18 30 31
f 18 31 32
f 18 32 33
f 18 33 19
f 18 23 38
f 18 38 34
f 18 34 24
f 20 35 21
f 21 36 43
f 21 43 37
f 21 35 36
f 24 34 40
f 24 40 39
f 34 38 45
f 34 45 40
f 35 41 36
f 36 42 50
f 36 50 43
f 36 41 44
f 36 44 42
f 39 40 46
f 40 47 48
f 40 48 46
f 40 45 52
f 40 52 47
f 42 49 57
f 42 57 50
f 42 44 51
f 42 51 49
f 47 53 54
f 47 54 55
f 47 55 48
f 47 52 59
f 47 59 53
f 49 51 56
f 49 56 63
f 49 63 57
f 51 58 56
f 53 60 61
f 53 61 54
f 53 59 66
f 53 66 60
f 56 62 69
f 56 69 63
f 56 58 62
f 58 64 65
f 58 65 62
f 60 66 73
f 60 73 67
f 60 67 61
f 61 67 68
f 62 65 72
f 62 72 69
f 64 70 71
f 64 71 65
f 65 71 79
f 65 79 72
f 67 74 68
f 67 73 80
f 67 80 74
f 68 74 76
f 68 76 75
f 70 77 83
f 70 83 78
f 70 78 71
f 71 78 84
f 71 84 79
f 74 80 82
f 74 82 76
f 75 76 81
f 75 81 77
f 76 82 85
f 76 85 81
f 77 81 83
f 78 83 86
f 78 86 84
f 81 85 86
f 81 86 83