# https://github.com/mikedh/trimesh
v -0.01036897 0.00267174 0.02501644 0.11764706 0.63921569 0.14117647
v -0.00889873 0.00276327 0.02501644 0.11764706 0.63921569 0.14117647
v -0.00908765 0.00273394 0.05000000 0.11764706 0.63921569 0.14117647
v -0.00982335 0.00268817 0.05000000 0.11764706 0.63921569 0.14117647
v -0.01054615 0.00268817 0.05000000 0.11764706 0.63921569 0.14117647
v -0.01181926 0.00294399 0.02501644 0.11764706 0.63921569 0.14117647
v -0.00749303 0.00321038 0.02501644 0.11764706 0.63921569 0.14117647
v -0.00838597 0.00290644 0.05000000 0.11764706 0.63921569 0.14117647
v -0.01127012 0.00282430 0.05000000 0.11764706 0.63921569 0.14117647
v -0.01197298 0.00299680 0.05000000 0.11764706 0.63921569 0.14117647
v -0.01315809 0.00356008 0.02501644 0.11764706 0.63921569 0.14117647
v -0.00623987 0.00398606 0.02501644 0.11764706 0.63921569 0.14117647
v -0.00704245 0.00346620 0.05000000 0.11764706 0.63921569 0.14117647
v -0.00768312 0.00313058 0.05000000 0.11764706 0.63921569 0.14117647
v -0.01264297 0.00330543 0.05000000 0.11764706 0.63921569 0.14117647
v -0.01328246 0.00364105 0.05000000 0.11764706 0.63921569 0.14117647
v -0.01430682 0.00448363 0.02501644 0.11764706 0.63921569 0.14117647
v -0.00521316 0.00504456 0.02501644 0.11764706 0.63921569 0.14117647
v -0.00587377 0.00433459 0.05000000 0.11764706 0.63921569 0.14117647
v -0.00641587 0.00385463 0.05000000 0.11764706 0.63921569 0.14117647
v -0.01385742 0.00410341 0.05000000 0.11764706 0.63921569 0.14117647
v -0.01439834 0.00458338 0.05000000 0.11764706 0.63921569 0.14117647
v -0.01484305 0.00517130 0.05000000 0.11764706 0.63921569 0.14117647
v -0.01519624 0.00566183 0.02501644 0.11764706 0.63921569 0.14117647
v -0.00447511 0.00632133 0.02501644 0.11764706 0.63921569 0.14117647
v -0.00495033 0.00545881 0.05000000 0.11764706 0.63921569 0.14117647
v -0.00536101 0.00486384 0.05000000 0.11764706 0.63921569 0.14117647
v -0.01525373 0.00576627 0.05000000 0.11764706 0.63921569 0.14117647
v -0.01582517 0.00722493 0.02501644 0.11764706 0.63921569 0.14117647
v -0.00407147 0.00774010 0.02501644 0.11764706 0.63921569 0.14117647
v -0.00432492 0.00677313 0.05000000 0.11764706 0.63921569 0.14117647
v -0.00458189 0.00609719 0.05000000 0.11764706 0.63921569 0.14117647
v -0.01582517 0.00722493 0.05000000 0.11764706 0.63921569 0.14117647
v -0.01582634 0.00723432 0.02501644 0.11764706 0.63921569 0.14117647
v -0.00402571 0.00921285 0.02501644 0.11764706 0.63921569 0.14117647
v -0.00401280 0.00893590 0.05000000 0.11764706 0.63921569 0.14117647
v -0.00403627 0.00820011 0.05000000 0.11764706 0.63921569 0.14117647
v -0.00412310 0.00748310 0.05000000 0.11764706 0.63921569 0.14117647
v -0.01600000 0.00866130 0.05000000 0.11764706 0.63921569 0.14117647
v -0.01600000 0.00866130 0.02501644 0.11764706 0.63921569 0.14117647
v -0.00434134 0.01065273 0.02501644 0.11764706 0.63921569 0.14117647
v -0.00425803 0.01037461 0.05000000 0.11764706 0.63921569 0.14117647
v -0.00410080 0.00965408 0.05000000 0.11764706 0.63921569 0.14117647
v -0.01582517 0.01009532 0.05000000 0.11764706 0.63921569 0.14117647
v -0.01587680 0.00967403 0.02501644 0.11764706 0.63921569 0.14117647
v -0.00499961 0.01197410 0.02501644 0.11764706 0.63921569 0.14117647
v -0.00484355 0.01171123 0.05000000 0.11764706 0.63921569 0.14117647
v -0.00451500 0.01105055 0.05000000 0.11764706 0.63921569 0.14117647
v -0.01531240 0.01144837 0.05000000 0.11764706 0.63921569 0.14117647
v -0.01582517 0.01009532 0.02501644 0.11764706 0.63921569 0.14117647
v -0.00595826 0.01309362 0.02501644 0.11764706 0.63921569 0.14117647
v -0.00525423 0.01230620 0.05000000 0.11764706 0.63921569 0.14117647
v -0.01448987 0.01263830 0.05000000 0.11764706 0.63921569 0.14117647
v -0.01531240 0.01144837 0.02501644 0.11764706 0.63921569 0.14117647
v -0.00716097 0.01394558 0.02501644 0.11764706 0.63921569 0.14117647
v -0.00627507 0.01334592 0.05000000 0.11764706 0.63921569 0.14117647
v -0.00573414 0.01286596 0.05000000 0.11764706 0.63921569 0.14117647
v -0.01340801 0.01359705 0.05000000 0.11764706 0.63921569 0.14117647
v -0.01448400 0.01264417 0.02501644 0.11764706 0.63921569 0.14117647
v -0.01448987 0.01263830 0.02501644 0.11764706 0.63921569 0.14117647
v -0.00853733 0.01447835 0.02501644 0.11764706 0.63921569 0.14117647
v -0.00820527 0.01437391 0.05000000 0.11764706 0.63921569 0.14117647
v -0.00751767 0.01410753 0.05000000 0.11764706 0.63921569 0.14117647
v -0.00687701 0.01377190 0.05000000 0.11764706 0.63921569 0.14117647
v -0.01212669 0.01426947 0.05000000 0.11764706 0.63921569 0.14117647
v -0.01250334 0.01407232 0.02501644 0.11764706 0.63921569 0.14117647
v -0.01339980 0.01360175 0.02501644 0.11764706 0.63921569 0.14117647
v -0.01340801 0.01359705 0.02501644 0.11764706 0.63921569 0.14117647
v -0.01000053 0.01466025 0.02501644 0.11764706 0.63921569 0.14117647
v -0.00890695 0.01454759 0.05000000 0.11764706 0.63921569 0.14117647
v -0.01072216 0.01461565 0.05000000 0.11764706 0.63921569 0.14117647
v -0.01113519 0.01451473 0.02501644 0.11764706 0.63921569 0.14117647
v -0.01211848 0.01427182 0.02501644 0.11764706 0.63921569 0.14117647
v -0.01212669 0.01426947 0.02501644 0.11764706 0.63921569 0.14117647
v -0.01071512 0.01461683 0.02501644 0.11764706 0.63921569 0.14117647
v -0.01036076 0.01463795 0.05000000 0.11764706 0.63921569 0.14117647
v -0.00963913 0.01463795 0.05000000 0.11764706 0.63921569 0.14117647
v -0.01072216 0.01461565 0.02501644 0.11764706 0.63921569 0.14117647
f 1 2 3
f 1 3 4
f 1 4 5
f 1 5 6
f 1 6 11
f 1 11 17
f 1 17 24
f 1 24 29
f 1 29 34
f 1 34 40
f 1 40 45
f 1 45 50
f 1 50 54
f 1 54 60
f 1 60 59
f 1 59 68
f 1 68 67
f 1 67 66
f 1 66 74
f 1 74 73
f 1 73 72
f 1 72 78
f 1 78 75
f 1 75 69
f 1 69 61
f 1 61 55
f 1 55 51
f 1 51 46
f 1 46 41
f 1 41 35
f 1 35 30
f 1 30 25
f 1 25 18
f 1 18 12
f 1 12 7
f 1 7 2
f 2 7 8
f 2 8 3
f 3 8 14
f 3 14 13
f 3 13 20
f 3 20 19
f 3 19 27
f 3 27 26
f 3 26 32
f 3 32 31
f 3 31 38
f 3 38 37
f 3 37 36
f 3 36 43
f 3 43 42
f 3 42 48
f 3 48 47
f 3 47 52
f 3 52 57
f 3 57 56
f 3 56 64
f 3 64 63
f 3 63 62
f 3 62 70
f 3 70 77
f 3 77 76
f 3 76 71
f 3 71 65
f 3 65 58
f 3 58 53
f 3 53 49
f 3 49 44
f 3 44 39
f 3 39 33
f 3 33 28
f 3 28 23
f 3 23 22
f 3 22 21
f 3 21 16
f 3 16 15
f 3 15 10
f 3 10 9
f 3 9 5
f 3 5 4
f 5 9 6
f 6 9 10
f 6 10 11
f 7 12 13
f 7 13 14
f 7 14 8
f 10 15 11
f 11 15 16
f 11 16 17
f 12 18 19
f 12 19 20
f 12 20 13
f 16 21 17
f 17 21 22
f 17 22 23
f 17 23 24
f 18 25 26
f 18 26 27
f 18 27 19
f 23 28 24
f 24 28 29
f 25 30 31
f 25 31 32
f 25 32 26
f 28 33 29
f 29 33 34
f 30 35 36
f 30 36 37
f 30 37 38
f 30 38 31
f 33 39 34
f 34 39 40
f 35 41 42
f 35 42 43
f 35 43 36
f 39 44 45
f 39 45 40
f 41 46 47
f 41 47 48
f 41 48 42
f 44 49 54
f 44 54 50
f 44 50 45
f 46 51 52
f 46 52 47
f 49 53 60
f 49 60 54
f 51 55 56
f 51 56 57
f 51 57 52
f 53 58 59
f 53 59 60
f 55 61 62
f 55 62 63
f 55 63 64
f 55 64 56
f 58 65 66
f 58 66 67
f 58 67 68
f 58 68 59
f 61 69 70
f 61 70 62
f 65 71 72
f 65 72 73
f 65 73 74
f 65 74 66
f 69 75 76
f 69 76 77
f 69 77 70
f 71 76 75
f 71 75 78
f 71 78 72