# https://github.com/mikedh/trimesh
v 0.00999843 0.01466026 0.02500000 0.56470588 0.92549020 0.07058824
v 0.01072200 0.01461561 0.02500000 0.56470588 0.92549020 0.07058824
v 0.00999843 0.01466026 0.02000048 0.56470588 0.92549020 0.07058824
v -0.00999843 0.01466026 0.02500000 0.56470588 0.92549020 0.07058824
v 0.01073767 0.01461208 0.01997623 0.56470588 0.92549020 0.07058824
v 0.01072200 0.01461561 0.01997623 0.56470588 0.92549020 0.07058824
v 0.01212529 0.01427013 0.02500000 0.56470588 0.92549020 0.07058824
v 0.00999843 0.01465908 0.01997623 0.56470588 0.92549020 0.07058824
v -0.00999530 0.01465908 0.01972746 0.56470588 0.92549020 0.07058824
v -0.00398747 0.01466026 0.02000048 0.56470588 0.92549020 0.07058824
v -0.00999843 0.01466026 0.02000100 0.56470588 0.92549020 0.07058824
v -0.01070947 0.01461678 0.01972746 0.56470588 0.92549020 0.07058824
v -0.01072200 0.01461561 0.02500000 0.56470588 0.92549020 0.07058824
v 0.01212529 0.01427013 0.01997623 0.56470588 0.92549020 0.07058824
v -0.00853876 0.01447812 0.01972746 0.56470588 0.92549020 0.07058824
v 0.01340642 0.01359799 0.02500000 0.56470588 0.92549020 0.07058824
v -0.01000157 0.01465908 0.01972746 0.56470588 0.92549020 0.07058824
v -0.01072200 0.01461561 0.01972746 0.56470588 0.92549020 0.07058824
v -0.01126390 0.01448282 0.01972746 0.56470588 0.92549020 0.07058824
v -0.01212529 0.01427013 0.02500000 0.56470588 0.92549020 0.07058824
v 0.01340642 0.01359799 0.01997623 0.56470588 0.92549020 0.07058824
v -0.00716366 0.01394699 0.01972746 0.56470588 0.92549020 0.07058824
v -0.00853250 0.01447577 0.01972746 0.56470588 0.92549020 0.07058824
v 0.01448708 0.01263795 0.02500000 0.56470588 0.92549020 0.07058824
v 0.01439937 0.01271903 0.01997623 0.56470588 0.92549020 0.07058824
v -0.01210650 0.01427483 0.01972746 0.56470588 0.92549020 0.07058824
v -0.01212529 0.01427013 0.01972746 0.56470588 0.92549020 0.07058824
v -0.01340642 0.01359799 0.02500000 0.56470588 0.92549020 0.07058824
v -0.00596085 0.01309623 0.01972746 0.56470588 0.92549020 0.07058824
v -0.00703211 0.01385533 0.01972746 0.56470588 0.92549020 0.07058824
v -0.00715740 0.01394346 0.01972746 0.56470588 0.92549020 0.07058824
v 0.01449961 0.01262385 0.01997623 0.56470588 0.92549020 0.07058824
v 0.01448708 0.01263795 0.01997623 0.56470588 0.92549020 0.07058824
v 0.01531088 0.01144759 0.02500000 0.56470588 0.92549020 0.07058824
v -0.01340642 0.01359799 0.01972746 0.56470588 0.92549020 0.07058824
v -0.01449021 0.01263795 0.02500000 0.56470588 0.92549020 0.07058824
v -0.00595458 0.01309035 0.01972746 0.56470588 0.92549020 0.07058824
v 0.01531088 0.01144759 0.01997623 0.56470588 0.92549020 0.07058824
v -0.00499922 0.01197755 0.01972746 0.56470588 0.92549020 0.07058824
v 0.01582146 0.01009508 0.02500000 0.56470588 0.92549020 0.07058824
v 0.01578074 0.01020906 0.01997623 0.56470588 0.92549020 0.07058824
v 0.01531715 0.01143114 0.01997623 0.56470588 0.92549020 0.07058824
v -0.01449021 0.01263795 0.01972746 0.56470588 0.92549020 0.07058824
v -0.01531088 0.01144759 0.02500000 0.56470588 0.92549020 0.07058824
v -0.00433829 0.01065089 0.01972746 0.56470588 0.92549020 0.07058824
v -0.00499608 0.01197168 0.01972746 0.56470588 0.92549020 0.07058824
v 0.01600000 0.00865795 0.02500000 0.56470588 0.92549020 0.07058824
v 0.01582772 0.01007628 0.01997623 0.56470588 0.92549020 0.07058824
v 0.01582146 0.01009508 0.01997623 0.56470588 0.92549020 0.07058824
v -0.01531088 0.01144759 0.01972746 0.56470588 0.92549020 0.07058824
v -0.01582459 0.01009508 0.02500000 0.56470588 0.92549020 0.07058824
v -0.00402506 0.00921612 0.01972746 0.56470588 0.92549020 0.07058824
v 0.01600000 0.00865795 0.01997623 0.56470588 0.92549020 0.07058824
v 0.01582146 0.00722553 0.02500000 0.56470588 0.92549020 0.07058824
v 0.01583712 0.00734657 0.01997623 0.56470588 0.92549020 0.07058824
v -0.01582459 0.01009508 0.01972746 0.56470588 0.92549020 0.07058824
v -0.01600000 0.00865795 0.02500000 0.56470588 0.92549020 0.07058824
v -0.00402506 0.00921024 0.01972746 0.56470588 0.92549020 0.07058824
v -0.00406891 0.00774609 0.01972746 0.56470588 0.92549020 0.07058824
v 0.01581519 0.00720438 0.01997623 0.56470588 0.92549020 0.07058824
v 0.01582146 0.00722553 0.01997623 0.56470588 0.92549020 0.07058824
v 0.01519499 0.00566033 0.02500000 0.56470588 0.92549020 0.07058824
v -0.01600000 0.00865795 0.01972746 0.56470588 0.92549020 0.07058824
v -0.01582459 0.00722553 0.02500000 0.56470588 0.92549020 0.07058824
v -0.00411276 0.00759098 0.01972746 0.56470588 0.92549020 0.07058824
v 0.01519499 0.00566033 0.02000048 0.56470588 0.92549020 0.07058824
v 0.01519499 0.00566150 0.01997623 0.56470588 0.92549020 0.07058824
v -0.00447298 0.00631955 0.01972746 0.56470588 0.92549020 0.07058824
v 0.01345967 0.00265565 0.02500000 0.56470588 0.92549020 0.07058824
v -0.01582459 0.00722553 0.01972746 0.56470588 0.92549020 0.07058824
v -0.01526390 0.00583071 0.01972746 0.56470588 0.92549020 0.07058824
v -0.01519499 0.00566033 0.02500000 0.56470588 0.92549020 0.07058824
v 0.01345967 0.00265565 0.02000048 0.56470588 0.92549020 0.07058824
v 0.01433986 0.00452050 0.01997623 0.56470588 0.92549020 0.07058824
v -0.00521222 0.00504341 0.01972746 0.56470588 0.92549020 0.07058824
v -0.01345967 0.00265565 0.02500000 0.56470588 0.92549020 0.07058824
v -0.01519499 0.00566150 0.01972746 0.56470588 0.92549020 0.07058824
v -0.01519499 0.00566033 0.02000100 0.56470588 0.92549020 0.07058824
v 0.01324041 0.00361334 0.01997623 0.56470588 0.92549020 0.07058824
v -0.00398747 0.00265565 0.02000048 0.56470588 0.92549020 0.07058824
v -0.01036178 0.00267210 0.01972746 0.56470588 0.92549020 0.07058824
v -0.00904933 0.00275318 0.01972746 0.56470588 0.92549020 0.07058824
v -0.00889898 0.00276258 0.01972746 0.56470588 0.92549020 0.07058824
v -0.00749256 0.00320911 0.01972746 0.56470588 0.92549020 0.07058824
v -0.00623336 0.00398936 0.01972746 0.56470588 0.92549020 0.07058824
v -0.00531872 0.00493295 0.01972746 0.56470588 0.92549020 0.07058824
v -0.01345967 0.00265565 0.02000100 0.56470588 0.92549020 0.07058824
v -0.01519185 0.00565680 0.01972746 0.56470588 0.92549020 0.07058824
v -0.00748630 0.00321264 0.01972746 0.56470588 0.92549020 0.07058824
v -0.00623962 0.00398466 0.01972746 0.56470588 0.92549020 0.07058824
v -0.01036805 0.00267210 0.01972746 0.56470588 0.92549020 0.07058824
v -0.01430540 0.00448525 0.01972746 0.56470588 0.92549020 0.07058824
v -0.01327799 0.00365564 0.01972746 0.56470588 0.92549020 0.07058824
v -0.01315897 0.00356046 0.01972746 0.56470588 0.92549020 0.07058824
v -0.01181832 0.00294354 0.01972746 0.56470588 0.92549020 0.07058824
f 1 2 6
f 1 6 3
f 1 3 10
f 1 10 11
f 1 11 4
f 1 4 13
f 1 13 20
f 1 20 28
f 1 28 36
f 1 36 44
f 1 44 51
f 1 51 57
f 1 57 64
f 1 64 72
f 1 72 76
f 1 76 69
f 1 69 62
f 1 62 54
f 1 54 47
f 1 47 40
f 1 40 34
f 1 34 24
f 1 24 16
f 1 16 7
f 1 7 2
f 2 5 6
f 2 7 5
f 3 6 8
f 3 8 9
f 3 9 17
f 3 17 10
f 4 11 12
f 4 12 13
f 5 7 14
f 5 14 15
f 5 15 6
f 6 15 9
f 6 9 8
f 7 16 21
f 7 21 14
f 9 15 23
f 9 23 22
f 9 22 31
f 9 31 30
f 9 30 29
f 9 29 37
f 9 37 39
f 9 39 46
f 9 46 45
f 9 45 52
f 9 52 58
f 9 58 59
f 9 59 65
f 9 65 68
f 9 68 75
f 9 75 86
f 9 86 85
f 9 85 90
f 9 90 89
f 9 89 84
f 9 84 83
f 9 83 82
f 9 82 81
f 9 81 91
f 9 91 95
f 9 95 94
f 9 94 93
f 9 93 92
f 9 92 88
f 9 88 77
f 9 77 71
f 9 71 70
f 9 70 63
f 9 63 56
f 9 56 50
f 9 50 43
f 9 43 35
f 9 35 27
f 9 27 26
f 9 26 19
f 9 19 18
f 9 18 12
f 9 12 17
f 10 17 11
f 11 17 12
f 12 18 13
f 13 18 19
f 13 19 20
f 14 21 22
f 14 22 23
f 14 23 15
f 16 24 25
f 16 25 21
f 19 26 20
f 20 26 27
f 20 27 35
f 20 35 28
f 21 25 29
f 21 29 30
f 21 30 31
f 21 31 22
f 24 32 33
f 24 33 25
f 24 34 32
f 25 33 29
f 28 35 43
f 28 43 36
f 29 33 37
f 32 34 38
f 32 38 39
f 32 39 37
f 32 37 33
f 34 40 41
f 34 41 42
f 34 42 38
f 36 43 50
f 36 50 44
f 38 42 45
f 38 45 46
f 38 46 39
f 40 47 48
f 40 48 49
f 40 49 41
f 41 49 45
f 41 45 42
f 44 50 56
f 44 56 51
f 45 49 48
f 45 48 52
f 47 53 48
f 47 54 55
f 47 55 53
f 48 53 52
f 51 56 63
f 51 63 57
f 52 53 58
f 53 55 59
f 53 59 58
f 54 60 61
f 54 61 55
f 54 62 60
f 55 61 59
f 57 63 70
f 57 70 64
f 59 61 65
f 60 62 66
f 60 66 67
f 60 67 68
f 60 68 61
f 61 68 65
f 62 69 73
f 62 73 66
f 64 71 72
f 64 70 71
f 66 73 67
f 67 73 74
f 67 74 75
f 67 75 68
f 69 76 87
f 69 87 80
f 69 80 73
f 71 77 78
f 71 78 72
f 72 78 87
f 72 87 76
f 73 79 74
f 73 80 91
f 73 91 81
f 73 81 82
f 73 82 83
f 73 83 84
f 73 84 79
f 74 79 85
f 74 85 86
f 74 86 75
f 77 88 87
f 77 87 78
f 79 84 89
f 79 89 90
f 79 90 85
f 80 87 91
f 87 88 92
f 87 92 93
f 87 93 94
f 87 94 95
f 87 95 91