# https://github.com/mikedh/trimesh
v 0.01600000 0.00866057 0.01844720 0.26274510 0.77254902 0.45490196
v 0.01582498 0.00722511 0.01844720 0.26274510 0.77254902 0.45490196
v 0.01600000 0.00866057 -0.03323011 0.26274510 0.77254902 0.45490196
v 0.01582498 0.01009603 0.01844720 0.26274510 0.77254902 0.45490196
v 0.01581793 0.00720637 0.01844720 0.26274510 0.77254902 0.45490196
v 0.01582498 0.00722511 -0.03323011 0.26274510 0.77254902 0.45490196
v 0.01582498 0.01009603 -0.03323011 0.26274510 0.77254902 0.45490196
v 0.01532342 0.01142016 -0.03323011 0.26274510 0.77254902 0.45490196
v 0.01531637 0.01143774 0.01844720 0.26274510 0.77254902 0.45490196
v 0.01519891 0.00566662 0.01844720 0.26274510 0.77254902 0.45490196
v 0.01530815 0.00586582 -0.03323011 0.26274510 0.77254902 0.45490196
v 0.01531167 0.01144829 -0.03323011 0.26274510 0.77254902 0.45490196
v 0.01531167 0.01144829 0.01844720 0.26274510 0.77254902 0.45490196
v 0.01517541 0.00563264 0.01844720 0.26274510 0.77254902 0.45490196
v 0.01451292 0.00471394 -0.03323011 0.26274510 0.77254902 0.45490196
v 0.01449060 0.01263884 -0.03323011 0.26274510 0.77254902 0.45490196
v 0.01500744 0.01189006 0.01844720 0.26274510 0.77254902 0.45490196
v 0.01434612 0.00452528 0.01844720 0.26274510 0.77254902 0.45490196
v 0.01448590 0.00467644 -0.03323011 0.26274510 0.77254902 0.45490196
v 0.01340760 0.01359737 -0.03323011 0.26274510 0.77254902 0.45490196
v 0.01341582 0.01359034 0.01844720 0.26274510 0.77254902 0.45490196
v 0.01449060 0.01263884 0.01844720 0.26274510 0.77254902 0.45490196
v 0.01431558 0.00449833 0.01844720 0.26274510 0.77254902 0.45490196
v 0.01343814 0.00374838 -0.03323011 0.26274510 0.77254902 0.45490196
v 0.01215427 0.01425593 -0.03323011 0.26274510 0.77254902 0.45490196
v 0.01340760 0.01359737 0.01844720 0.26274510 0.77254902 0.45490196
v 0.01324785 0.00361596 0.01844720 0.26274510 0.77254902 0.45490196
v 0.01340290 0.00371908 -0.03323011 0.26274510 0.77254902 0.45490196
v 0.01212725 0.01426999 -0.03323011 0.26274510 0.77254902 0.45490196
v 0.01212725 0.01426999 0.01844720 0.26274510 0.77254902 0.45490196
v 0.01321143 0.00359722 0.01844720 0.26274510 0.77254902 0.45490196
v 0.01216249 0.00306873 -0.03323011 0.26274510 0.77254902 0.45490196
v 0.01075176 0.01460864 -0.03323011 0.26274510 0.77254902 0.45490196
v 0.01073414 0.01461332 0.01844720 0.26274510 0.77254902 0.45490196
v 0.01196633 0.00299257 0.01844720 0.26274510 0.77254902 0.45490196
v 0.01212138 0.00304881 -0.03323011 0.26274510 0.77254902 0.45490196
v 0.01072240 0.01461567 -0.03323011 0.26274510 0.77254902 0.45490196
v 0.01072240 0.01461567 0.01844720 0.26274510 0.77254902 0.45490196
v 0.01192639 0.00298319 0.01844720 0.26274510 0.77254902 0.45490196
v 0.01076233 0.00271368 -0.03323011 0.26274510 0.77254902 0.45490196
v 0.01069890 0.01461684 -0.03323011 0.26274510 0.77254902 0.45490196
v 0.01001997 0.01465902 0.01844720 0.26274510 0.77254902 0.45490196
v 0.01057439 0.00268907 0.01844720 0.26274510 0.77254902 0.45490196
v 0.01071770 0.00270430 -0.03323011 0.26274510 0.77254902 0.45490196
v 0.00930110 0.01461684 -0.03323011 0.26274510 0.77254902 0.45490196
v 0.00998003 0.01465902 0.01844720 0.26274510 0.77254902 0.45490196
v 0.01053328 0.00268907 0.01844720 0.26274510 0.77254902 0.45490196
v 0.00931872 0.00270430 -0.03323011 0.26274510 0.77254902 0.45490196
v 0.00925764 0.01461215 -0.03323011 0.26274510 0.77254902 0.45490196
v 0.00868324 0.01451255 0.01844720 0.26274510 0.77254902 0.45490196
v 0.00915074 0.00272188 0.01844720 0.26274510 0.77254902 0.45490196
v 0.00927291 0.00270547 -0.03323011 0.26274510 0.77254902 0.45490196
v 0.00789859 0.01427702 -0.03323011 0.26274510 0.77254902 0.45490196
v 0.00864330 0.01450200 0.01844720 0.26274510 0.77254902 0.45490196
v 0.00911081 0.00273125 0.01844720 0.26274510 0.77254902 0.45490196
v 0.00791386 0.00304061 -0.03323011 0.26274510 0.77254902 0.45490196
v 0.00785748 0.01426296 -0.03323011 0.26274510 0.77254902 0.45490196
v 0.00741112 0.01407078 0.01844720 0.26274510 0.77254902 0.45490196
v 0.00777408 0.00308983 0.01844720 0.26274510 0.77254902 0.45490196
v 0.00786922 0.00305233 -0.03323011 0.26274510 0.77254902 0.45490196
v 0.00661825 0.01361261 -0.03323011 0.26274510 0.77254902 0.45490196
v 0.00737471 0.01405203 0.01844720 0.26274510 0.77254902 0.45490196
v 0.00773767 0.00310857 0.01844720 0.26274510 0.77254902 0.45490196
v 0.00662999 0.00370268 -0.03323011 0.26274510 0.77254902 0.45490196
v 0.00658183 0.01358917 -0.03323011 0.26274510 0.77254902 0.45490196
v 0.00626938 0.01335715 0.01844720 0.26274510 0.77254902 0.45490196
v 0.00652193 0.00377181 0.01844720 0.26274510 0.77254902 0.45490196
v 0.00659006 0.00372494 -0.03323011 0.26274510 0.77254902 0.45490196
v 0.00553406 0.01266110 -0.03323011 0.26274510 0.77254902 0.45490196
v 0.00623884 0.01333020 0.01844720 0.26274510 0.77254902 0.45490196
v 0.00649139 0.00379877 0.01844720 0.26274510 0.77254902 0.45490196
v 0.00554229 0.00465301 -0.03323011 0.26274510 0.77254902 0.45490196
v 0.00550352 0.01263064 -0.03323011 0.26274510 0.77254902 0.45490196
v 0.00531558 0.01240682 0.01844720 0.26274510 0.77254902 0.45490196
v 0.00546711 0.00473035 0.01844720 0.26274510 0.77254902 0.45490196
v 0.00550822 0.00468348 -0.03323011 0.26274510 0.77254902 0.45490196
v 0.00470830 0.01147875 -0.03323011 0.26274510 0.77254902 0.45490196
v 0.00529209 0.01237401 0.01844720 0.26274510 0.77254902 0.45490196
v 0.00544362 0.00476433 0.01844720 0.26274510 0.77254902 0.45490196
v 0.00471300 0.00583536 -0.03323011 0.26274510 0.77254902 0.45490196
v 0.00468481 0.01144243 -0.03323011 0.26274510 0.77254902 0.45490196
v 0.00459789 0.01126783 0.01844720 0.26274510 0.77254902 0.45490196
v 0.00466836 0.00591035 0.01844720 0.26274510 0.77254902 0.45490196
v 0.00468716 0.00587403 -0.03323011 0.26274510 0.77254902 0.45490196
v 0.00418794 0.01013353 -0.03323011 0.26274510 0.77254902 0.45490196
v 0.00458262 0.01123033 0.01844720 0.26274510 0.77254902 0.45490196
v 0.00465309 0.00594902 0.01844720 0.26274510 0.77254902 0.45490196
v 0.00419029 0.00718293 -0.03323011 0.26274510 0.77254902 0.45490196
v 0.00417385 0.01009251 -0.03323011 0.26274510 0.77254902 0.45490196
v 0.00415153 0.00999760 0.01844720 0.26274510 0.77254902 0.45490196
v 0.00417032 0.00724621 0.01844720 0.26274510 0.77254902 0.45490196
v 0.00417502 0.00722511 -0.03323011 0.26274510 0.77254902 0.45490196
v 0.00400000 0.00866057 -0.03323011 0.26274510 0.77254902 0.45490196
v 0.00414683 0.00995658 0.01844720 0.26274510 0.77254902 0.45490196
v 0.00416445 0.00728605 0.01844720 0.26274510 0.77254902 0.45490196
v 0.00400000 0.00866057 0.01844720 0.26274510 0.77254902 0.45490196
f 1 2 6
f 1 6 3
f 1 3 7
f 1 7 4
f 1 4 9
f 1 9 13
f 1 13 17
f 1 17 22
f 1 22 21
f 1 21 26
f 1 26 30
f 1 30 34
f 1 34 38
f 1 38 42
f 1 42 46
f 1 46 50
f 1 50 54
f 1 54 58
f 1 58 62
f 1 62 66
f 1 66 70
f 1 70 74
f 1 74 78
f 1 78 82
f 1 82 86
f 1 86 90
f 1 90 94
f 1 94 96
f 1 96 95
f 1 95 91
f 1 91 87
f 1 87 83
f 1 83 79
f 1 79 75
f 1 75 71
f 1 71 67
f 1 67 63
f 1 63 59
f 1 59 55
f 1 55 51
f 1 51 47
f 1 47 43
f 1 43 39
f 1 39 35
f 1 35 31
f 1 31 27
f 1 27 23
f 1 23 18
f 1 18 14
f 1 14 10
f 1 10 5
f 1 5 2
f 2 5 6
f 3 6 11
f 3 11 15
f 3 15 19
f 3 19 24
f 3 24 28
f 3 28 32
f 3 32 36
f 3 36 40
f 3 40 44
f 3 44 48
f 3 48 52
f 3 52 56
f 3 56 60
f 3 60 64
f 3 64 68
f 3 68 72
f 3 72 76
f 3 76 80
f 3 80 84
f 3 84 88
f 3 88 92
f 3 92 93
f 3 93 89
f 3 89 85
f 3 85 81
f 3 81 77
f 3 77 73
f 3 73 69
f 3 69 65
f 3 65 61
f 3 61 57
f 3 57 53
f 3 53 49
f 3 49 45
f 3 45 41
f 3 41 37
f 3 37 33
f 3 33 29
f 3 29 25
f 3 25 20
f 3 20 16
f 3 16 12
f 3 12 8
f 3 8 7
f 4 7 8
f 4 8 9
f 5 10 11
f 5 11 6
f 8 12 9
f 9 12 13
f 10 14 15
f 10 15 11
f 12 16 17
f 12 17 13
f 14 18 19
f 14 19 15
f 16 20 21
f 16 21 22
f 16 22 17
f 18 23 24
f 18 24 19
f 20 25 26
f 20 26 21
f 23 27 28
f 23 28 24
f 25 29 30
f 25 30 26
f 27 31 32
f 27 32 28
f 29 33 34
f 29 34 30
f 31 35 32
f 32 35 36
f 33 37 34
f 34 37 38
f 35 39 40
f 35 40 36
f 37 41 42
f 37 42 38
f 39 43 40
f 40 43 44
f 41 45 46
f 41 46 42
f 43 47 48
f 43 48 44
f 45 49 46
f 46 49 50
f 47 51 48
f 48 51 52
f 49 53 50
f 50 53 54
f 51 55 52
f 52 55 56
f 53 57 54
f 54 57 58
f 55 59 60
f 55 60 56
f 57 61 62
f 57 62 58
f 59 63 60
f 60 63 64
f 61 65 66
f 61 66 62
f 63 67 64
f 64 67 68
f 65 69 70
f 65 70 66
f 67 71 68
f 68 71 72
f 69 73 70
f 70 73 74
f 71 75 76
f 71 76 72
f 73 77 78
f 73 78 74
f 75 79 76
f 76 79 80
f 77 81 78
f 78 81 82
f 79 83 80
f 80 83 84
f 81 85 86
f 81 86 82
f 83 87 84
f 84 87 88
f 85 89 90
f 85 90 86
f 87 91 88
f 88 91 92
f 89 93 90
f 90 93 94
f 91 95 92
f 92 95 93
f 93 95 96
f 93 96 94