# https://github.com/mikedh/trimesh
v 0.01600000 0.00866087 0.05000000 0.56470588 0.01568627 0.61568627
v 0.01582498 0.01009532 0.05000000 0.56470588 0.01568627 0.61568627
v 0.01582498 0.00722526 0.05000000 0.56470588 0.01568627 0.61568627
v 0.01600000 0.00866087 0.02529766 0.56470588 0.01568627 0.61568627
v 0.01582616 0.01008712 0.02529766 0.56470588 0.01568627 0.61568627
v 0.01582498 0.01009532 0.02529766 0.56470588 0.01568627 0.61568627
v 0.01567580 0.01048909 0.02529766 0.56470588 0.01568627 0.61568627
v 0.01531519 0.01143953 0.02529766 0.56470588 0.01568627 0.61568627
v 0.01531167 0.01144773 0.05000000 0.56470588 0.01568627 0.61568627
v 0.01525411 0.00576620 0.05000000 0.56470588 0.01568627 0.61568627
v 0.01581911 0.00721002 0.02529766 0.56470588 0.01568627 0.61568627
v 0.01582498 0.00722526 0.02529766 0.56470588 0.01568627 0.61568627
v 0.01531167 0.01144773 0.02529766 0.56470588 0.01568627 0.61568627
v 0.01489468 0.01205245 0.02529766 0.56470588 0.01568627 0.61568627
v 0.01449060 0.01263842 0.05000000 0.56470588 0.01568627 0.61568627
v 0.01484299 0.00517203 0.05000000 0.56470588 0.01568627 0.61568627
v 0.01519186 0.00565486 0.02529766 0.56470588 0.01568627 0.61568627
v 0.01519656 0.00566190 0.02529766 0.56470588 0.01568627 0.61568627
v 0.01525176 0.00579901 0.02529766 0.56470588 0.01568627 0.61568627
v 0.01449060 0.01263842 0.02529766 0.56470588 0.01568627 0.61568627
v 0.01340760 0.01359706 0.05000000 0.56470588 0.01568627 0.61568627
v 0.01394088 0.01312594 0.02529766 0.56470588 0.01568627 0.61568627
v 0.01441660 0.00460130 0.05000000 0.56470588 0.01568627 0.61568627
v 0.01434260 0.00452160 0.02529766 0.56470588 0.01568627 0.61568627
v 0.01212725 0.01426975 0.05000000 0.56470588 0.01568627 0.61568627
v 0.01341464 0.01359120 0.02529766 0.56470588 0.01568627 0.61568627
v 0.01340760 0.01359706 0.02529766 0.56470588 0.01568627 0.61568627
v 0.01275803 0.01393926 0.02529766 0.56470588 0.01568627 0.61568627
v 0.01387510 0.00412198 0.05000000 0.56470588 0.01568627 0.61568627
v 0.01433673 0.00451575 0.02529766 0.56470588 0.01568627 0.61568627
v 0.01072240 0.01461547 0.05000000 0.56470588 0.01568627 0.61568627
v 0.01212725 0.01426975 0.02529766 0.56470588 0.01568627 0.61568627
v 0.01073179 0.01461430 0.02529766 0.56470588 0.01568627 0.61568627
v 0.01332537 0.00366844 0.05000000 0.56470588 0.01568627 0.61568627
v 0.01325137 0.00361922 0.02529766 0.56470588 0.01568627 0.61568627
v 0.01036061 0.01463773 0.05000000 0.56470588 0.01568627 0.61568627
v 0.01072240 0.01461547 0.02529766 0.56470588 0.01568627 0.61568627
v 0.01268520 0.00333209 0.05000000 0.56470588 0.01568627 0.61568627
v 0.01323610 0.00360984 0.02529766 0.56470588 0.01568627 0.61568627
v 0.01324432 0.00361453 0.02529766 0.56470588 0.01568627 0.61568627
v 0.00963939 0.01463773 0.05000000 0.56470588 0.01568627 0.61568627
v 0.01012686 0.01465180 0.02529766 0.56470588 0.01568627 0.61568627
v 0.01000822 0.01465883 0.02529766 0.56470588 0.01568627 0.61568627
v 0.01204503 0.00302036 0.05000000 0.56470588 0.01568627 0.61568627
v 0.01196280 0.00299106 0.02529766 0.56470588 0.01568627 0.61568627
v 0.00897103 0.01456273 0.05000000 0.56470588 0.01568627 0.61568627
v 0.00999648 0.01465883 0.02529766 0.56470588 0.01568627 0.61568627
v 0.00867737 0.01451116 0.02529766 0.56470588 0.01568627 0.61568627
v 0.01134260 0.00284808 0.05000000 0.56470588 0.01568627 0.61568627
v 0.01195458 0.00298872 0.02529766 0.56470588 0.01568627 0.61568627
v 0.00826977 0.01438928 0.05000000 0.56470588 0.01568627 0.61568627
v 0.00866915 0.01450999 0.02529766 0.56470588 0.01568627 0.61568627
v 0.01064605 0.00269573 0.05000000 0.56470588 0.01568627 0.61568627
v 0.01057087 0.00268753 0.02529766 0.56470588 0.01568627 0.61568627
v 0.00763547 0.01416779 0.05000000 0.56470588 0.01568627 0.61568627
v 0.00866092 0.01450765 0.02529766 0.56470588 0.01568627 0.61568627
v 0.00992365 0.00269573 0.05000000 0.56470588 0.01568627 0.61568627
v 0.01056265 0.00268753 0.02529766 0.56470588 0.01568627 0.61568627
v 0.00699530 0.01383144 0.05000000 0.56470588 0.01568627 0.61568627
v 0.00740055 0.01406700 0.02529766 0.56470588 0.01568627 0.61568627
v 0.00921183 0.00271331 0.05000000 0.56470588 0.01568627 0.61568627
v 0.00914722 0.00272152 0.02529766 0.56470588 0.01568627 0.61568627
v 0.00642561 0.01347400 0.05000000 0.56470588 0.01568627 0.61568627
v 0.00739233 0.01406231 0.02529766 0.56470588 0.01568627 0.61568627
v 0.00850940 0.00288676 0.05000000 0.56470588 0.01568627 0.61568627
v 0.00782224 0.00307075 0.05000000 0.56470588 0.01568627 0.61568627
v 0.00777995 0.00308833 0.02529766 0.56470588 0.01568627 0.61568627
v 0.00588410 0.01299468 0.05000000 0.56470588 0.01568627 0.61568627
v 0.00626821 0.01335681 0.02529766 0.56470588 0.01568627 0.61568627
v 0.00626116 0.01335212 0.02529766 0.56470588 0.01568627 0.61568627
v 0.00718207 0.00340710 0.05000000 0.56470588 0.01568627 0.61568627
v 0.00776351 0.00309419 0.02529766 0.56470588 0.01568627 0.61568627
v 0.00777173 0.00309067 0.02529766 0.56470588 0.01568627 0.61568627
v 0.00540955 0.01252005 0.05000000 0.56470588 0.01568627 0.61568627
v 0.00625529 0.01334626 0.02529766 0.56470588 0.01568627 0.61568627
v 0.00655599 0.00374813 0.05000000 0.56470588 0.01568627 0.61568627
v 0.00652075 0.00377274 0.02529766 0.56470588 0.01568627 0.61568627
v 0.00499843 0.01192471 0.05000000 0.56470588 0.01568627 0.61568627
v 0.00531676 0.01240755 0.02529766 0.56470588 0.01568627 0.61568627
v 0.00530619 0.01239465 0.02529766 0.56470588 0.01568627 0.61568627
v 0.00601449 0.00422745 0.05000000 0.56470588 0.01568627 0.61568627
v 0.00651370 0.00377860 0.02529766 0.56470588 0.01568627 0.61568627
v 0.00464135 0.01135515 0.05000000 0.56470588 0.01568627 0.61568627
v 0.00459906 0.01127077 0.02529766 0.56470588 0.01568627 0.61568627
v 0.00548825 0.00470677 0.05000000 0.56470588 0.01568627 0.61568627
v 0.00546594 0.00473138 0.02529766 0.56470588 0.01568627 0.61568627
v 0.00438528 0.01067894 0.05000000 0.56470588 0.01568627 0.61568627
v 0.00459554 0.01126374 0.02529766 0.56470588 0.01568627 0.61568627
v 0.00459201 0.01125553 0.02529766 0.56470588 0.01568627 0.61568627
v 0.00507713 0.00530211 0.05000000 0.56470588 0.01568627 0.61568627
v 0.00467776 0.00589160 0.05000000 0.56470588 0.01568627 0.61568627
v 0.00467189 0.00590449 0.02529766 0.56470588 0.01568627 0.61568627
v 0.00416327 0.01004493 0.05000000 0.56470588 0.01568627 0.61568627
v 0.00415388 0.01000274 0.02529766 0.56470588 0.01568627 0.61568627
v 0.00442169 0.00656780 0.05000000 0.56470588 0.01568627 0.61568627
v 0.00466719 0.00591152 0.02529766 0.56470588 0.01568627 0.61568627
v 0.00407635 0.00932770 0.05000000 0.56470588 0.01568627 0.61568627
v 0.00415153 0.00999571 0.02529766 0.56470588 0.01568627 0.61568627
v 0.00415035 0.00998633 0.02529766 0.56470588 0.01568627 0.61568627
v 0.00417267 0.00723580 0.05000000 0.56470588 0.01568627 0.61568627
v 0.00417267 0.00723815 0.02529766 0.56470588 0.01568627 0.61568627
v 0.00400000 0.00866087 0.05000000 0.56470588 0.01568627 0.61568627
v 0.00400000 0.00866087 0.02529766 0.56470588 0.01568627 0.61568627
v 0.00408575 0.00795303 0.05000000 0.56470588 0.01568627 0.61568627
v 0.00416915 0.00725455 0.02529766 0.56470588 0.01568627 0.61568627
v 0.00417032 0.00724635 0.02529766 0.56470588 0.01568627 0.61568627
f 1 2 9
f 1 9 15
f 1 15 21
f 1 21 25
f 1 25 31
f 1 31 36
f 1 36 41
f 1 41 46
f 1 46 51
f 1 51 55
f 1 55 59
f 1 59 63
f 1 63 68
f 1 68 74
f 1 74 78
f 1 78 83
f 1 83 87
f 1 87 93
f 1 93 97
f 1 97 102
f 1 102 104
f 1 104 100
f 1 100 95
f 1 95 91
f 1 91 90
f 1 90 85
f 1 85 81
f 1 81 76
f 1 76 71
f 1 71 66
f 1 66 65
f 1 65 61
f 1 61 57
f 1 57 53
f 1 53 49
f 1 49 44
f 1 44 38
f 1 38 34
f 1 34 29
f 1 29 23
f 1 23 16
f 1 16 10
f 1 10 3
f 1 3 12
f 1 12 4
f 1 4 5
f 1 5 2
f 2 5 6
f 2 6 7
f 2 7 8
f 2 8 9
f 3 10 11
f 3 11 12
f 4 12 11
f 4 11 19
f 4 19 18
f 4 18 17
f 4 17 24
f 4 24 30
f 4 30 35
f 4 35 40
f 4 40 39
f 4 39 45
f 4 45 50
f 4 50 54
f 4 54 58
f 4 58 62
f 4 62 67
f 4 67 73
f 4 73 72
f 4 72 77
f 4 77 82
f 4 82 86
f 4 86 92
f 4 92 96
f 4 96 101
f 4 101 106
f 4 106 105
f 4 105 103
f 4 103 99
f 4 99 98
f 4 98 94
f 4 94 89
f 4 89 88
f 4 88 84
f 4 84 80
f 4 80 79
f 4 79 75
f 4 75 70
f 4 70 69
f 4 69 64
f 4 64 60
f 4 60 56
f 4 56 52
f 4 52 48
f 4 48 47
f 4 47 43
f 4 43 42
f 4 42 37
f 4 37 33
f 4 33 32
f 4 32 28
f 4 28 27
f 4 27 26
f 4 26 22
f 4 22 20
f 4 20 14
f 4 14 13
f 4 13 8
f 4 8 7
f 4 7 6
f 4 6 5
f 8 13 9
f 9 13 14
f 9 14 15
f 10 16 17
f 10 17 18
f 10 18 19
f 10 19 11
f 14 20 15
f 15 20 22
f 15 22 21
f 16 23 17
f 17 23 24
f 21 22 26
f 21 26 27
f 21 27 28
f 21 28 25
f 23 29 30
f 23 30 24
f 25 28 32
f 25 32 33
f 25 33 31
f 29 34 35
f 29 35 30
f 31 33 37
f 31 37 36
f 34 38 39
f 34 39 40
f 34 40 35
f 36 37 42
f 36 42 43
f 36 43 47
f 36 47 41
f 38 44 39
f 39 44 45
f 41 47 48
f 41 48 46
f 44 49 50
f 44 50 45
f 46 48 52
f 46 52 51
f 49 53 50
f 50 53 54
f 51 52 56
f 51 56 55
f 53 57 58
f 53 58 54
f 55 56 60
f 55 60 59
f 57 61 62
f 57 62 58
f 59 60 64
f 59 64 63
f 61 65 62
f 62 65 66
f 62 66 67
f 63 64 69
f 63 69 70
f 63 70 68
f 66 71 72
f 66 72 73
f 66 73 67
f 68 70 75
f 68 75 74
f 71 76 72
f 72 76 77
f 74 75 79
f 74 79 80
f 74 80 78
f 76 81 82
f 76 82 77
f 78 80 84
f 78 84 83
f 81 85 86
f 81 86 82
f 83 84 88
f 83 88 89
f 83 89 87
f 85 90 86
f 86 90 91
f 86 91 92
f 87 89 93
f 89 94 93
f 91 95 96
f 91 96 92
f 93 94 98
f 93 98 99
f 93 99 97
f 95 100 96
f 96 100 101
f 97 99 102
f 99 103 102
f 100 104 105
f 100 105 106
f 100 106 101
f 102 103 105
f 102 105 104