# https://github.com/mikedh/trimesh

o geometry_0
v 0.02000000 0.00270075 -0.03500050 0.54509804 0.71372549 0.60000000
v 0.00067737 -0.00270432 -0.03323420 0.54509804 0.71372549 0.60000000
v 0.00072435 -0.00270641 -0.03323420 0.54509804 0.71372549 0.60000000
v 0.00208301 -0.00304096 -0.03323420 0.54509804 0.71372549 0.60000000
v 0.00212999 -0.00305351 -0.03323420 0.54509804 0.71372549 0.60000000
v 0.00336727 -0.00370379 -0.03323420 0.54509804 0.71372549 0.60000000
v 0.00341034 -0.00372679 -0.03323420 0.54509804 0.71372549 0.60000000
v 0.00445967 -0.00465516 -0.03323420 0.54509804 0.71372549 0.60000000
v 0.00449099 -0.00468653 -0.03323420 0.54509804 0.71372549 0.60000000
v 0.00528974 -0.00583863 -0.03323420 0.54509804 0.71372549 0.60000000
v 0.00531323 -0.00587836 -0.03323420 0.54509804 0.71372549 0.60000000
v 0.00581049 -0.00718729 -0.03323420 0.54509804 0.71372549 0.60000000
v 0.00582615 -0.00723120 -0.03323420 0.54509804 0.71372549 0.60000000
v 0.00599452 -0.00861958 -0.03323420 0.54509804 0.71372549 0.60000000
v 0.00599843 -0.00866558 -0.03323420 0.54509804 0.71372549 0.60000000
v 0.02000000 -0.00041892 -0.03500050 0.54509804 0.71372549 0.60000000
v 0.02000000 0.00270075 -0.07500000 0.54509804 0.71372549 0.60000000
v -0.02000000 0.00270075 -0.03500050 0.54509804 0.71372549 0.60000000
v -0.00071652 -0.00270432 -0.03323420 0.54509804 0.71372549 0.60000000
v 0.00583007 -0.01005605 -0.03323420 0.54509804 0.71372549 0.60000000
v 0.01994127 -0.00100439 -0.03500050 0.54509804 0.71372549 0.60000000
v 0.02000000 -0.00041892 -0.07500000 0.54509804 0.71372549 0.60000000
v -0.02000000 0.00270075 -0.07500000 0.54509804 0.71372549 0.60000000
v -0.00599843 -0.00865931 -0.03323420 0.54509804 0.71372549 0.60000000
v -0.00583007 -0.00727093 -0.03323420 0.54509804 0.71372549 0.60000000
v -0.00582224 -0.00722492 -0.03323420 0.54509804 0.71372549 0.60000000
v -0.00532890 -0.00591600 -0.03323420 0.54509804 0.71372549 0.60000000
v -0.00530932 -0.00587209 -0.03323420 0.54509804 0.71372549 0.60000000
v -0.00451449 -0.00471998 -0.03323420 0.54509804 0.71372549 0.60000000
v -0.00448708 -0.00468235 -0.03323420 0.54509804 0.71372549 0.60000000
v -0.00340642 -0.00372261 -0.03323420 0.54509804 0.71372549 0.60000000
v -0.00212216 -0.00304932 -0.03323420 0.54509804 0.71372549 0.60000000
v -0.00076351 -0.00271477 -0.03323420 0.54509804 0.71372549 0.60000000
v -0.02000000 -0.00041892 -0.03500050 0.54509804 0.71372549 0.60000000
v 0.00582224 -0.01010205 -0.03323420 0.54509804 0.71372549 0.60000000
v 0.01976899 -0.00156685 -0.03500050 0.54509804 0.71372549 0.60000000
v 0.01994127 -0.00100439 -0.07500000 0.54509804 0.71372549 0.60000000
v -0.02000000 -0.00041892 -0.07500000 0.54509804 0.71372549 0.60000000
v -0.00599452 -0.00869276 -0.03323420 0.54509804 0.71372549 0.60000000
v -0.01994127 -0.00100439 -0.03500050 0.54509804 0.71372549 0.60000000
v 0.00532498 -0.01141098 -0.03323420 0.54509804 0.71372549 0.60000000
v 0.01949099 -0.00208540 -0.03500050 0.54509804 0.71372549 0.60000000
v 0.01976899 -0.00156685 -0.07500000 0.54509804 0.71372549 0.60000000
v 0.00530540 -0.01145489 -0.03323420 0.54509804 0.71372549 0.60000000
v -0.01994127 -0.00100439 -0.07500000 0.54509804 0.71372549 0.60000000
v -0.00582615 -0.01008324 -0.03323420 0.54509804 0.71372549 0.60000000
v -0.01976899 -0.00156685 -0.03500050 0.54509804 0.71372549 0.60000000
v -0.00581832 -0.01011460 -0.03323420 0.54509804 0.71372549 0.60000000
v 0.01911903 -0.00253914 -0.03500050 0.54509804 0.71372549 0.60000000
v 0.01949099 -0.00208540 -0.07500000 0.54509804 0.71372549 0.60000000
v 0.00449099 -0.01263836 -0.03323420 0.54509804 0.71372549 0.60000000
v -0.01976899 -0.00156685 -0.07500000 0.54509804 0.71372549 0.60000000
v -0.01949099 -0.00208540 -0.03500050 0.54509804 0.71372549 0.60000000
v -0.00530540 -0.01145489 -0.03323420 0.54509804 0.71372549 0.60000000
v -0.00532106 -0.01142353 -0.03323420 0.54509804 0.71372549 0.60000000
v 0.00387627 -0.01777998 -0.03500050 0.54509804 0.71372549 0.60000000
v 0.01911903 -0.00253914 -0.07500000 0.54509804 0.71372549 0.60000000
v 0.00340642 -0.01359810 -0.03323420 0.54509804 0.71372549 0.60000000
v -0.01949099 -0.00208540 -0.07500000 0.54509804 0.71372549 0.60000000
v -0.01911903 -0.00253914 -0.03500050 0.54509804 0.71372549 0.60000000
v -0.00449099 -0.01263836 -0.03323420 0.54509804 0.71372549 0.60000000
v 0.00342208 -0.01815425 -0.03500050 0.54509804 0.71372549 0.60000000
v 0.00387627 -0.01777998 -0.07500000 0.54509804 0.71372549 0.60000000
v 0.00212608 -0.01426929 -0.03323420 0.54509804 0.71372549 0.60000000
v 0.00290525 -0.01843026 -0.03500050 0.54509804 0.71372549 0.60000000
v -0.01911903 -0.00253914 -0.07500000 0.54509804 0.71372549 0.60000000
v -0.00387627 -0.01777998 -0.03500050 0.54509804 0.71372549 0.60000000
v -0.00340642 -0.01359810 -0.03323420 0.54509804 0.71372549 0.60000000
v 0.00342208 -0.01815425 -0.07500000 0.54509804 0.71372549 0.60000000
v 0.00072044 -0.01461639 -0.03323420 0.54509804 0.71372549 0.60000000
v 0.00234143 -0.01860172 -0.03500050 0.54509804 0.71372549 0.60000000
v 0.00290525 -0.01843026 -0.07500000 0.54509804 0.71372549 0.60000000
v -0.00387627 -0.01777998 -0.07500000 0.54509804 0.71372549 0.60000000
v -0.00342208 -0.01815425 -0.03500050 0.54509804 0.71372549 0.60000000
v -0.00212608 -0.01426929 -0.03323420 0.54509804 0.71372549 0.60000000
v -0.00290525 -0.01843026 -0.03500050 0.54509804 0.71372549 0.60000000
v -0.00072044 -0.01461639 -0.03323420 0.54509804 0.71372549 0.60000000
v 0.00175411 -0.01866026 -0.03500050 0.54509804 0.71372549 0.60000000
v 0.00234143 -0.01860172 -0.07500000 0.54509804 0.71372549 0.60000000
v -0.00342208 -0.01815425 -0.07500000 0.54509804 0.71372549 0.60000000
v -0.00234143 -0.01860172 -0.03500050 0.54509804 0.71372549 0.60000000
v -0.00290525 -0.01843026 -0.07500000 0.54509804 0.71372549 0.60000000
v -0.00175411 -0.01866026 -0.03500050 0.54509804 0.71372549 0.60000000
v 0.00175411 -0.01866026 -0.07500000 0.54509804 0.71372549 0.60000000
v -0.00234143 -0.01860172 -0.07500000 0.54509804 0.71372549 0.60000000
v -0.00175411 -0.01866026 -0.07500000 0.54509804 0.71372549 0.60000000
f 1 2 3
f 1 3 4
f 1 4 5
f 1 5 6
f 1 6 7
f 1 7 8
f 1 8 9
f 1 9 10
f 1 10 11
f 1 11 12
f 1 12 13
f 1 13 14
f 1 14 15
f 1 15 16
f 1 16 22
f 1 22 17
f 1 17 23
f 1 23 18
f 1 18 19
f 1 19 2
f 2 19 33
f 2 33 32
f 2 32 31
f 2 31 30
f 2 30 29
f 2 29 28
f 2 28 27
f 2 27 26
f 2 26 25
f 2 25 24
f 2 24 39
f 2 39 46
f 2 46 48
f 2 48 55
f 2 55 54
f 2 54 61
f 2 61 68
f 2 68 75
f 2 75 77
f 2 77 70
f 2 70 64
f 2 64 58
f 2 58 51
f 2 51 44
f 2 44 41
f 2 41 35
f 2 35 20
f 2 20 15
f 2 15 14
f 2 14 13
f 2 13 12
f 2 12 11
f 2 11 10
f 2 10 9
f 2 9 8
f 2 8 7
f 2 7 6
f 2 6 5
f 2 5 4
f 2 4 3
f 15 20 21
f 15 21 16
f 16 21 37
f 16 37 22
f 17 22 37
f 17 37 43
f 17 43 50
f 17 50 57
f 17 57 63
f 17 63 69
f 17 69 72
f 17 72 79
f 17 79 84
f 17 84 86
f 17 86 85
f 17 85 82
f 17 82 80
f 17 80 73
f 17 73 66
f 17 66 59
f 17 59 52
f 17 52 45
f 17 45 38
f 17 38 23
f 18 24 25
f 18 25 26
f 18 26 27
f 18 27 28
f 18 28 29
f 18 29 30
f 18 30 31
f 18 31 32
f 18 32 33
f 18 33 19
f 18 23 38
f 18 38 34
f 18 34 24
f 20 35 21
f 21 36 43
f 21 43 37
f 21 35 36
f 24 34 40
f 24 40 39
f 34 38 45
f 34 45 40
f 35 41 36
f 36 42 50
f 36 50 43
f 36 41 44
f 36 44 42
f 39 40 46
f 40 47 48
f 40 48 46
f 40 45 52
f 40 52 47
f 42 49 57
f 42 57 50
f 42 44 51
f 42 51 49
f 47 53 54
f 47 54 55
f 47 55 48
f 47 52 59
f 47 59 53
f 49 51 56
f 49 56 63
f 49 63 57
f 51 58 56
f 53 60 61
f 53 61 54
f 53 59 66
f 53 66 60
f 56 62 69
f 56 69 63
f 56 58 62
f 58 64 65
f 58 65 62
f 60 66 73
f 60 73 67
f 60 67 61
f 61 67 68
f 62 65 72
f 62 72 69
f 64 70 71
f 64 71 65
f 65 71 79
f 65 79 72
f 67 74 68
f 67 73 80
f 67 80 74
f 68 74 76
f 68 76 75
f 70 77 83
f 70 83 78
f 70 78 71
f 71 78 84
f 71 84 79
f 74 80 82
f 74 82 76
f 75 76 81
f 75 81 77
f 76 82 85
f 76 85 81
f 77 81 83
f 78 83 86
f 78 86 84
f 81 85 86
f 81 86 83

o geometry_1
v 0.00599988 -0.00866649 -0.03323011 0.54117647 0.42352941 0.64313725
v 0.00583074 -0.01005654 -0.03323011 0.54117647 0.42352941 0.64313725
v 0.00599519 -0.00862097 -0.03323011 0.54117647 0.42352941 0.64313725
v 0.00586833 -0.00741299 0.01997537 0.54117647 0.42352941 0.64313725
v 0.00599636 -0.00886840 0.01997537 0.54117647 0.42352941 0.64313725
v 0.00582369 -0.01010206 -0.03323011 0.54117647 0.42352941 0.64313725
v 0.00582604 -0.00723092 -0.03323011 0.54117647 0.42352941 0.64313725
v 0.00539261 -0.00603111 0.01997537 0.54117647 0.42352941 0.64313725
v 0.00576731 -0.01031331 0.01997537 0.54117647 0.42352941 0.64313725
v 0.00532683 -0.01141157 -0.03323011 0.54117647 0.42352941 0.64313725
v 0.00581077 -0.00718657 -0.03323011 0.54117647 0.42352941 0.64313725
v 0.00531508 -0.00587705 -0.03323011 0.54117647 0.42352941 0.64313725
v 0.00459622 -0.00480446 0.01997537 0.54117647 0.42352941 0.64313725
v 0.00519527 -0.01165901 0.01997537 0.54117647 0.42352941 0.64313725
v 0.00530803 -0.01145476 -0.03323011 0.54117647 0.42352941 0.64313725
v 0.00528924 -0.00583854 -0.03323011 0.54117647 0.42352941 0.64313725
v 0.00352614 -0.00380656 0.01997537 0.54117647 0.42352941 0.64313725
v 0.00449403 -0.00468658 -0.03323011 0.54117647 0.42352941 0.64313725
v 0.00445996 -0.00465390 -0.03323011 0.54117647 0.42352941 0.64313725
v 0.00449050 -0.01263823 0.01997537 0.54117647 0.42352941 0.64313725
v 0.00449050 -0.01263823 -0.03323011 0.54117647 0.42352941 0.64313725
v 0.00451282 -0.01260671 -0.03323011 0.54117647 0.42352941 0.64313725
v 0.00224698 -0.00309812 0.01997537 0.54117647 0.42352941 0.64313725
v 0.00341220 -0.00372603 -0.03323011 0.54117647 0.42352941 0.64313725
v 0.00379043 -0.01325914 0.01997537 0.54117647 0.42352941 0.64313725
v 0.00446818 -0.01265807 -0.03323011 0.54117647 0.42352941 0.64313725
v 0.00083392 -0.00271880 0.01997537 0.54117647 0.42352941 0.64313725
v 0.00336992 -0.00370269 -0.03323011 0.54117647 0.42352941 0.64313725
v 0.00213070 -0.00305260 -0.03323011 0.54117647 0.42352941 0.64313725
v 0.00208606 -0.00303976 -0.03323011 0.54117647 0.42352941 0.64313725
v 0.00340751 -0.01359761 0.01997537 0.54117647 0.42352941 0.64313725
v 0.00340751 -0.01359761 -0.03323011 0.54117647 0.42352941 0.64313725
v -0.00062613 -0.00269429 0.01997537 0.54117647 0.42352941 0.64313725
v 0.00072586 -0.00270480 -0.03323011 0.54117647 0.42352941 0.64313725
v 0.00212717 -0.01426987 0.01997537 0.54117647 0.42352941 0.64313725
v 0.00338166 -0.01361161 -0.03323011 0.54117647 0.42352941 0.64313725
v -0.00205211 -0.00302225 0.01997537 0.54117647 0.42352941 0.64313725
v -0.00072010 -0.00270480 -0.03323011 0.54117647 0.42352941 0.64313725
v -0.00076591 -0.00271530 -0.03323011 0.54117647 0.42352941 0.64313725
v 0.00121919 -0.01449396 0.01997537 0.54117647 0.42352941 0.64313725
v 0.00212717 -0.01426987 -0.03323011 0.54117647 0.42352941 0.64313725
v -0.00335476 -0.00368635 0.01997537 0.54117647 0.42352941 0.64313725
v -0.00212494 -0.00305027 -0.03323011 0.54117647 0.42352941 0.64313725
v 0.00072233 -0.01461651 0.01997537 0.54117647 0.42352941 0.64313725
v 0.00072233 -0.01461651 -0.03323011 0.54117647 0.42352941 0.64313725
v -0.00445773 -0.00464573 0.01997537 0.54117647 0.42352941 0.64313725
v -0.00216605 -0.00307127 -0.03323011 0.54117647 0.42352941 0.64313725
v -0.00340645 -0.00372136 -0.03323011 0.54117647 0.42352941 0.64313725
v -0.00072245 -0.01461651 0.01997537 0.54117647 0.42352941 0.64313725
v -0.00072245 -0.01461651 -0.03323011 0.54117647 0.42352941 0.64313725
v -0.00529758 -0.00584437 0.01997537 0.54117647 0.42352941 0.64313725
v -0.00448944 -0.00468074 -0.03323011 0.54117647 0.42352941 0.64313725
v -0.00451646 -0.00471926 -0.03323011 0.54117647 0.42352941 0.64313725
v -0.00212729 -0.01426987 0.01997537 0.54117647 0.42352941 0.64313725
v -0.00212729 -0.01426987 -0.03323011 0.54117647 0.42352941 0.64313725
v -0.00582146 -0.00720874 0.01997537 0.54117647 0.42352941 0.64313725
v -0.00531167 -0.00587122 -0.03323011 0.54117647 0.42352941 0.64313725
v -0.00213669 -0.01426520 0.01997537 0.54117647 0.42352941 0.64313725
v -0.00340762 -0.01359761 -0.03323011 0.54117647 0.42352941 0.64313725
v -0.00600000 -0.00865949 0.01997537 0.54117647 0.42352941 0.64313725
v -0.00582498 -0.00722392 -0.03323011 0.54117647 0.42352941 0.64313725
v -0.00583086 -0.00727060 -0.03323011 0.54117647 0.42352941 0.64313725
v -0.00340762 -0.01359761 0.01997537 0.54117647 0.42352941 0.64313725
v -0.00449062 -0.01263823 -0.03323011 0.54117647 0.42352941 0.64313725
v -0.00341584 -0.01359060 0.01997537 0.54117647 0.42352941 0.64313725
v -0.00590838 -0.00970173 0.01997537 0.54117647 0.42352941 0.64313725
v -0.00600000 -0.00865949 -0.03323011 0.54117647 0.42352941 0.64313725
v -0.00449062 -0.01263823 0.01997537 0.54117647 0.42352941 0.64313725
v -0.00519539 -0.01166017 0.01997537 0.54117647 0.42352941 0.64313725
v -0.00451294 -0.01260671 -0.03323011 0.54117647 0.42352941 0.64313725
v -0.00563704 -0.01071246 0.01997537 0.54117647 0.42352941 0.64313725
v -0.00599648 -0.00869333 -0.03323011 0.54117647 0.42352941 0.64313725
v -0.00582733 -0.01008338 -0.03323011 0.54117647 0.42352941 0.64313725
v -0.00581911 -0.01011490 -0.03323011 0.54117647 0.42352941 0.64313725
v -0.00530815 -0.01145476 -0.03323011 0.54117647 0.42352941 0.64313725
v -0.00532225 -0.01142441 -0.03323011 0.54117647 0.42352941 0.64313725
f 87 88 92
f 87 92 96
f 87 96 101
f 87 101 108
f 87 108 107
f 87 107 112
f 87 112 118
f 87 118 122
f 87 122 127
f 87 127 131
f 87 131 136
f 87 136 141
f 87 141 145
f 87 145 150
f 87 150 156
f 87 156 161
f 87 161 162
f 87 162 160
f 87 160 159
f 87 159 158
f 87 158 153
f 87 153 148
f 87 148 147
f 87 147 143
f 87 143 139
f 87 139 138
f 87 138 134
f 87 134 133
f 87 133 129
f 87 129 125
f 87 125 124
f 87 124 120
f 87 120 116
f 87 116 115
f 87 115 114
f 87 114 110
f 87 110 105
f 87 105 104
f 87 104 102
f 87 102 98
f 87 98 97
f 87 97 93
f 87 93 89
f 87 89 90
f 87 90 91
f 87 91 88
f 88 91 92
f 89 93 90
f 90 93 94
f 90 94 99
f 90 99 103
f 90 103 109
f 90 109 113
f 90 113 119
f 90 119 123
f 90 123 128
f 90 128 132
f 90 132 137
f 90 137 142
f 90 142 146
f 90 146 152
f 90 152 157
f 90 157 155
f 90 155 154
f 90 154 151
f 90 151 149
f 90 149 144
f 90 144 140
f 90 140 135
f 90 135 130
f 90 130 126
f 90 126 121
f 90 121 117
f 90 117 111
f 90 111 106
f 90 106 100
f 90 100 95
f 90 95 91
f 91 95 92
f 92 95 96
f 93 97 94
f 94 97 98
f 94 98 99
f 95 100 96
f 96 100 101
f 98 102 99
f 99 102 104
f 99 104 105
f 99 105 103
f 100 106 107
f 100 107 108
f 100 108 101
f 103 105 110
f 103 110 109
f 106 111 112
f 106 112 107
f 109 110 114
f 109 114 115
f 109 115 116
f 109 116 113
f 111 117 118
f 111 118 112
f 113 116 120
f 113 120 119
f 117 121 122
f 117 122 118
f 119 120 124
f 119 124 125
f 119 125 123
f 121 126 127
f 121 127 122
f 123 125 129
f 123 129 128
f 126 130 131
f 126 131 127
f 128 129 133
f 128 133 134
f 128 134 132
f 130 135 136
f 130 136 131
f 132 134 138
f 132 138 139
f 132 139 137
f 135 140 141
f 135 141 136
f 137 139 143
f 137 143 142
f 140 144 141
f 141 144 145
f 142 143 147
f 142 147 148
f 142 148 146
f 144 149 145
f 145 149 151
f 145 151 150
f 146 148 153
f 146 153 152
f 150 151 154
f 150 154 155
f 150 155 156
f 152 153 158
f 152 158 159
f 152 159 160
f 152 160 157
f 155 157 161
f 155 161 156
f 157 160 162
f 157 162 161

o geometry_2
v 0.02000000 0.01565926 -0.03500050 0.43529412 0.89019608 0.96078431
v 0.02000000 0.00270075 -0.03500050 0.43529412 0.89019608 0.96078431
v 0.02000000 0.01565926 -0.07500000 0.43529412 0.89019608 0.96078431
v 0.01992366 0.01632632 -0.03500050 0.43529412 0.89019608 0.96078431
v 0.01599908 0.00866057 -0.03323420 0.43529412 0.89019608 0.96078431
v 0.01582487 0.00722491 -0.03323420 0.43529412 0.89019608 0.96078431
v 0.01530811 0.00586578 -0.03323420 0.43529412 0.89019608 0.96078431
v 0.01451341 0.00471444 -0.03323420 0.43529412 0.89019608 0.96078431
v 0.01448601 0.00467695 -0.03323420 0.43529412 0.89019608 0.96078431
v 0.01343684 0.00374899 -0.03323420 0.43529412 0.89019608 0.96078431
v 0.01340161 0.00371931 -0.03323420 0.43529412 0.89019608 0.96078431
v 0.01216257 0.00306943 -0.03323420 0.43529412 0.89019608 0.96078431
v 0.01212147 0.00304913 -0.03323420 0.43529412 0.89019608 0.96078431
v 0.01076303 0.00271325 -0.03323420 0.43529412 0.89019608 0.96078431
v 0.01071801 0.00270388 -0.03323420 0.43529412 0.89019608 0.96078431
v 0.00000321 0.00270075 -0.03500050 0.43529412 0.89019608 0.96078431
v 0.02000000 0.00270075 -0.07500000 0.43529412 0.89019608 0.96078431
v 0.01992366 0.01632632 -0.07500000 0.43529412 0.89019608 0.96078431
v 0.01970248 0.01696058 -0.03500050 0.43529412 0.89019608 0.96078431
v 0.01582487 0.01009624 -0.03323420 0.43529412 0.89019608 0.96078431
v 0.01582878 0.01006656 -0.03323420 0.43529412 0.89019608 0.96078431
v 0.00931847 0.00270388 -0.03323420 0.43529412 0.89019608 0.96078431
v 0.00000321 0.01866026 -0.03500050 0.43529412 0.89019608 0.96078431
v 0.00000321 0.00270075 -0.07500000 0.43529412 0.89019608 0.96078431
v 0.00927345 0.00270544 -0.03323420 0.43529412 0.89019608 0.96078431
v 0.00791502 0.00303975 -0.03323420 0.43529412 0.89019608 0.96078431
v 0.00787000 0.00305225 -0.03323420 0.43529412 0.89019608 0.96078431
v 0.00663096 0.00370213 -0.03323420 0.43529412 0.89019608 0.96078431
v 0.00658986 0.00372400 -0.03323420 0.43529412 0.89019608 0.96078431
v 0.00554265 0.00465351 -0.03323420 0.43529412 0.89019608 0.96078431
v 0.00550937 0.00468319 -0.03323420 0.43529412 0.89019608 0.96078431
v 0.00471271 0.00583610 -0.03323420 0.43529412 0.89019608 0.96078431
v 0.00468727 0.00587360 -0.03323420 0.43529412 0.89019608 0.96078431
v 0.00417443 0.00722647 -0.03323420 0.43529412 0.89019608 0.96078431
v 0.00400022 0.00866057 -0.03323420 0.43529412 0.89019608 0.96078431
v 0.01970248 0.01696058 -0.07500000 0.43529412 0.89019608 0.96078431
v 0.01934427 0.01752922 -0.03500050 0.43529412 0.89019608 0.96078431
v 0.01531203 0.01144755 -0.03323420 0.43529412 0.89019608 0.96078431
v 0.00417443 0.01009312 -0.03323420 0.43529412 0.89019608 0.96078431
v 0.00418813 0.01013373 -0.03323420 0.43529412 0.89019608 0.96078431
v 0.00468531 0.01144130 -0.03323420 0.43529412 0.89019608 0.96078431
v 0.00470880 0.01147879 -0.03323420 0.43529412 0.89019608 0.96078431
v 0.00550350 0.01263014 -0.03323420 0.43529412 0.89019608 0.96078431
v 0.00553482 0.01266139 -0.03323420 0.43529412 0.89019608 0.96078431
v 0.00658203 0.01358934 -0.03323420 0.43529412 0.89019608 0.96078431
v 0.00661922 0.01361277 -0.03323420 0.43529412 0.89019608 0.96078431
v 0.00785825 0.01426265 -0.03323420 0.43529412 0.89019608 0.96078431
v 0.00789936 0.01427671 -0.03323420 0.43529412 0.89019608 0.96078431
v 0.00925779 0.01461258 -0.03323420 0.43529412 0.89019608 0.96078431
v 0.00930086 0.01461727 -0.03323420 0.43529412 0.89019608 0.96078431
v 0.01699931 0.01866026 -0.03500050 0.43529412 0.89019608 0.96078431
v 0.00000321 0.01866026 -0.07500000 0.43529412 0.89019608 0.96078431
v 0.01934427 0.01752922 -0.07500000 0.43529412 0.89019608 0.96078431
v 0.01886862 0.01800570 -0.03500050 0.43529412 0.89019608 0.96078431
v 0.01448992 0.01263795 -0.03323420 0.43529412 0.89019608 0.96078431
v 0.01450754 0.01261296 -0.03323420 0.43529412 0.89019608 0.96078431
v 0.01069844 0.01461727 -0.03323420 0.43529412 0.89019608 0.96078431
v 0.01072193 0.01461571 -0.03323420 0.43529412 0.89019608 0.96078431
v 0.01766678 0.01858371 -0.03500050 0.43529412 0.89019608 0.96078431
v 0.01699931 0.01866026 -0.07500000 0.43529412 0.89019608 0.96078431
v 0.01886862 0.01800570 -0.07500000 0.43529412 0.89019608 0.96078431
v 0.01830098 0.01836188 -0.03500050 0.43529412 0.89019608 0.96078431
v 0.01340748 0.01359715 -0.03323420 0.43529412 0.89019608 0.96078431
v 0.01212734 0.01426890 -0.03323420 0.43529412 0.89019608 0.96078431
v 0.01766678 0.01858371 -0.07500000 0.43529412 0.89019608 0.96078431
v 0.01830098 0.01836188 -0.07500000 0.43529412 0.89019608 0.96078431
f 163 164 179
f 163 179 165
f 163 165 180
f 163 180 166
f 163 166 167
f 163 167 164
f 164 167 168
f 164 168 169
f 164 169 170
f 164 170 171
f 164 171 172
f 164 172 173
f 164 173 174
f 164 174 175
f 164 175 176
f 164 176 177
f 164 177 184
f 164 184 178
f 164 178 186
f 164 186 179
f 165 179 186
f 165 186 214
f 165 214 222
f 165 222 227
f 165 227 228
f 165 228 223
f 165 223 215
f 165 215 198
f 165 198 180
f 166 180 198
f 166 198 181
f 166 181 182
f 166 182 183
f 166 183 167
f 167 183 182
f 167 182 200
f 167 200 218
f 167 218 217
f 167 217 225
f 167 225 226
f 167 226 220
f 167 220 219
f 167 219 212
f 167 212 211
f 167 211 210
f 167 210 209
f 167 209 208
f 167 208 207
f 167 207 206
f 167 206 205
f 167 205 204
f 167 204 203
f 167 203 202
f 167 202 201
f 167 201 197
f 167 197 196
f 167 196 195
f 167 195 194
f 167 194 193
f 167 193 192
f 167 192 191
f 167 191 190
f 167 190 189
f 167 189 188
f 167 188 187
f 167 187 184
f 167 184 177
f 167 177 176
f 167 176 175
f 167 175 174
f 167 174 173
f 167 173 172
f 167 172 171
f 167 171 170
f 167 170 169
f 167 169 168
f 178 185 214
f 178 214 186
f 178 184 187
f 178 187 188
f 178 188 189
f 178 189 190
f 178 190 191
f 178 191 192
f 178 192 193
f 178 193 194
f 178 194 195
f 178 195 196
f 178 196 197
f 178 197 185
f 181 198 215
f 181 215 199
f 181 199 200
f 181 200 182
f 185 197 201
f 185 201 202
f 185 202 203
f 185 203 204
f 185 204 205
f 185 205 206
f 185 206 207
f 185 207 208
f 185 208 209
f 185 209 210
f 185 210 211
f 185 211 212
f 185 212 219
f 185 219 213
f 185 213 222
f 185 222 214
f 199 215 223
f 199 223 216
f 199 216 217
f 199 217 218
f 199 218 200
f 213 219 220
f 213 220 221
f 213 221 227
f 213 227 222
f 216 223 228
f 216 228 224
f 216 224 225
f 216 225 217
f 220 226 221
f 221 224 228
f 221 228 227
f 221 226 224
f 224 226 225

o geometry_3
v 0.00000321 0.01866026 -0.03500050 0.38039216 0.78823529 0.52549020
v -0.00930134 0.01461727 -0.03323420 0.38039216 0.78823529 0.52549020
v -0.00925434 0.01461102 -0.03323420 0.38039216 0.78823529 0.52549020
v -0.00789547 0.01427671 -0.03323420 0.38039216 0.78823529 0.52549020
v -0.00785044 0.01425952 -0.03323420 0.38039216 0.78823529 0.52549020
v -0.00661101 0.01360808 -0.03323420 0.38039216 0.78823529 0.52549020
v -0.00657185 0.01358153 -0.03323420 0.38039216 0.78823529 0.52549020
v -0.00552430 0.01265357 -0.03323420 0.38039216 0.78823529 0.52549020
v -0.00549297 0.01261608 -0.03323420 0.38039216 0.78823529 0.52549020
v -0.00469801 0.01146473 -0.03323420 0.38039216 0.78823529 0.52549020
v -0.00467648 0.01142255 -0.03323420 0.38039216 0.78823529 0.52549020
v -0.00418110 0.01011499 -0.03323420 0.38039216 0.78823529 0.52549020
v -0.00417131 0.01006812 -0.03323420 0.38039216 0.78823529 0.52549020
v -0.00400096 0.00867932 -0.03323420 0.38039216 0.78823529 0.52549020
v 0.00000321 0.00270075 -0.03500050 0.38039216 0.78823529 0.52549020
v 0.00000321 0.01866026 -0.07500000 0.38039216 0.78823529 0.52549020
v -0.01699834 0.01866026 -0.03500050 0.38039216 0.78823529 0.52549020
v -0.01069937 0.01461727 -0.03323420 0.38039216 0.78823529 0.52549020
v -0.00400291 0.00863089 -0.03323420 0.38039216 0.78823529 0.52549020
v -0.00417131 0.00724209 -0.03323420 0.38039216 0.78823529 0.52549020
v -0.00418501 0.00719679 -0.03323420 0.38039216 0.78823529 0.52549020
v -0.00468039 0.00588766 -0.03323420 0.38039216 0.78823529 0.52549020
v -0.00470585 0.00584548 -0.03323420 0.38039216 0.78823529 0.52549020
v -0.00550081 0.00469413 -0.03323420 0.38039216 0.78823529 0.52549020
v -0.00553409 0.00465976 -0.03323420 0.38039216 0.78823529 0.52549020
v -0.00658164 0.00373181 -0.03323420 0.38039216 0.78823529 0.52549020
v -0.00662080 0.00370681 -0.03323420 0.38039216 0.78823529 0.52549020
v -0.00786023 0.00305537 -0.03323420 0.38039216 0.78823529 0.52549020
v -0.00790722 0.00304131 -0.03323420 0.38039216 0.78823529 0.52549020
v -0.00926609 0.00270700 -0.03323420 0.38039216 0.78823529 0.52549020
v -0.00931309 0.00270388 -0.03323420 0.38039216 0.78823529 0.52549020
v -0.02000000 0.00270075 -0.03500050 0.38039216 0.78823529 0.52549020
v 0.00000321 0.00270075 -0.07500000 0.38039216 0.78823529 0.52549020
v -0.01699834 0.01866026 -0.07500000 0.38039216 0.78823529 0.52549020
v -0.01766603 0.01858371 -0.03500050 0.38039216 0.78823529 0.52549020
v -0.01072287 0.01461571 -0.03323420 0.38039216 0.78823529 0.52549020
v -0.01071112 0.00270388 -0.03323420 0.38039216 0.78823529 0.52549020
v -0.02000000 0.01565926 -0.03500050 0.38039216 0.78823529 0.52549020
v -0.02000000 0.00270075 -0.07500000 0.38039216 0.78823529 0.52549020
v -0.01075811 0.00271169 -0.03323420 0.38039216 0.78823529 0.52549020
v -0.01211698 0.00304756 -0.03323420 0.38039216 0.78823529 0.52549020
v -0.01216006 0.00306787 -0.03323420 0.38039216 0.78823529 0.52549020
v -0.01339949 0.00371775 -0.03323420 0.38039216 0.78823529 0.52549020
v -0.01343669 0.00374743 -0.03323420 0.38039216 0.78823529 0.52549020
v -0.01448424 0.00467538 -0.03323420 0.38039216 0.78823529 0.52549020
v -0.01451361 0.00471444 -0.03323420 0.38039216 0.78823529 0.52549020
v -0.01530857 0.00586578 -0.03323420 0.38039216 0.78823529 0.52549020
v -0.01582548 0.00722491 -0.03323420 0.38039216 0.78823529 0.52549020
v -0.01599975 0.00866057 -0.03323420 0.38039216 0.78823529 0.52549020
v -0.01766603 0.01858371 -0.07500000 0.38039216 0.78823529 0.52549020
v -0.01830043 0.01836188 -0.03500050 0.38039216 0.78823529 0.52549020
v -0.01212677 0.01426890 -0.03323420 0.38039216 0.78823529 0.52549020
v -0.01209740 0.01427671 -0.03323420 0.38039216 0.78823529 0.52549020
v -0.01992364 0.01632632 -0.03500050 0.38039216 0.78823529 0.52549020
v -0.02000000 0.01565926 -0.07500000 0.38039216 0.78823529 0.52549020
v -0.01582548 0.01009624 -0.03323420 0.38039216 0.78823529 0.52549020
v -0.01830043 0.01836188 -0.07500000 0.38039216 0.78823529 0.52549020
v -0.01887022 0.01800570 -0.03500050 0.38039216 0.78823529 0.52549020
v -0.01340732 0.01359715 -0.03323420 0.38039216 0.78823529 0.52549020
v -0.01970238 0.01696058 -0.03500050 0.38039216 0.78823529 0.52549020
v -0.01992364 0.01632632 -0.07500000 0.38039216 0.78823529 0.52549020
v -0.01531248 0.01144755 -0.03323420 0.38039216 0.78823529 0.52549020
v -0.01887022 0.01800570 -0.07500000 0.38039216 0.78823529 0.52549020
v -0.01934406 0.01752922 -0.03500050 0.38039216 0.78823529 0.52549020
v -0.01449011 0.01263795 -0.03323420 0.38039216 0.78823529 0.52549020
v -0.01970238 0.01696058 -0.07500000 0.38039216 0.78823529 0.52549020
v -0.01934406 0.01752922 -0.07500000 0.38039216 0.78823529 0.52549020
f 229 230 231
f 229 231 232
f 229 232 233
f 229 233 234
f 229 234 235
f 229 235 236
f 229 236 237
f 229 237 238
f 229 238 239
f 229 239 240
f 229 240 241
f 229 241 242
f 229 242 243
f 229 243 261
f 229 261 244
f 229 244 262
f 229 262 245
f 229 245 246
f 229 246 230
f 230 246 264
f 230 264 281
f 230 281 280
f 230 280 287
f 230 287 293
f 230 293 290
f 230 290 284
f 230 284 277
f 230 277 276
f 230 276 275
f 230 275 274
f 230 274 273
f 230 273 272
f 230 272 271
f 230 271 270
f 230 270 269
f 230 269 268
f 230 268 265
f 230 265 259
f 230 259 258
f 230 258 257
f 230 257 256
f 230 256 255
f 230 255 254
f 230 254 253
f 230 253 252
f 230 252 251
f 230 251 250
f 230 250 249
f 230 249 248
f 230 248 247
f 230 247 242
f 230 242 241
f 230 241 240
f 230 240 239
f 230 239 238
f 230 238 237
f 230 237 236
f 230 236 235
f 230 235 234
f 230 234 233
f 230 233 232
f 230 232 231
f 242 247 243
f 243 247 248
f 243 248 249
f 243 249 250
f 243 250 251
f 243 251 252
f 243 252 253
f 243 253 254
f 243 254 255
f 243 255 256
f 243 256 257
f 243 257 258
f 243 258 259
f 243 259 265
f 243 265 260
f 243 260 267
f 243 267 261
f 244 261 267
f 244 267 283
f 244 283 289
f 244 289 294
f 244 294 295
f 244 295 291
f 244 291 285
f 244 285 278
f 244 278 262
f 245 262 278
f 245 278 263
f 245 263 264
f 245 264 246
f 260 266 283
f 260 283 267
f 260 265 268
f 260 268 269
f 260 269 270
f 260 270 271
f 260 271 272
f 260 272 273
f 260 273 274
f 260 274 275
f 260 275 276
f 260 276 277
f 260 277 266
f 263 279 280
f 263 280 281
f 263 281 264
f 263 278 285
f 263 285 279
f 266 277 282
f 266 282 289
f 266 289 283
f 277 284 282
f 279 286 287
f 279 287 280
f 279 285 291
f 279 291 286
f 282 284 288
f 282 288 294
f 282 294 289
f 284 290 288
f 286 292 293
f 286 293 287
f 286 291 295
f 286 295 292
f 288 290 292
f 288 292 295
f 288 295 294
f 290 293 292

o geometry_4
v 0.01346149 0.00265565 0.02499966 0.56470588 0.92549020 0.07058824
v 0.00083282 -0.00271908 0.02500803 0.56470588 0.92549020 0.07058824
v 0.00224538 -0.00309779 0.02500803 0.56470588 0.92549020 0.07058824
v 0.00352617 -0.00380619 0.02500803 0.56470588 0.92549020 0.07058824
v 0.00459612 -0.00480371 0.02500803 0.56470588 0.92549020 0.07058824
v 0.00539200 -0.00602946 0.02500803 0.56470588 0.92549020 0.07058824
v 0.00586637 -0.00741245 0.02500803 0.56470588 0.92549020 0.07058824
v 0.00599550 -0.00886983 0.02500803 0.56470588 0.92549020 0.07058824
v 0.00576623 -0.01031369 0.02500803 0.56470588 0.92549020 0.07058824
v 0.00519435 -0.01165948 0.02500803 0.56470588 0.92549020 0.07058824
v 0.01346149 0.00265565 0.02000001 0.56470588 0.92549020 0.07058824
v -0.01346139 0.00265565 0.02499966 0.56470588 0.92549020 0.07058824
v -0.00062717 -0.00269372 0.02500803 0.56470588 0.92549020 0.07058824
v 0.00507840 -0.01182348 0.02500803 0.56470588 0.92549020 0.07058824
v 0.00519435 -0.01165948 0.01997537 0.56470588 0.92549020 0.07058824
v 0.00576623 -0.01031369 0.01997537 0.56470588 0.92549020 0.07058824
v 0.00599550 -0.00886814 0.01997537 0.56470588 0.92549020 0.07058824
v 0.00586637 -0.00741245 0.01997537 0.56470588 0.92549020 0.07058824
v 0.00539200 -0.00602946 0.01997537 0.56470588 0.92549020 0.07058824
v 0.00459612 -0.00480371 0.01997537 0.56470588 0.92549020 0.07058824
v 0.00352617 -0.00380619 0.01997537 0.56470588 0.92549020 0.07058824
v 0.00224538 -0.00309779 0.01997537 0.56470588 0.92549020 0.07058824
v 0.00083282 -0.00271908 0.01997537 0.56470588 0.92549020 0.07058824
v -0.00062453 -0.00269372 0.01997537 0.56470588 0.92549020 0.07058824
v -0.01346139 0.00265565 0.02000001 0.56470588 0.92549020 0.07058824
v -0.00519425 -0.01165948 0.02500803 0.56470588 0.92549020 0.07058824
v -0.00563699 -0.01071100 0.02500803 0.56470588 0.92549020 0.07058824
v -0.00590844 -0.00970165 0.02500803 0.56470588 0.92549020 0.07058824
v -0.00599804 -0.00866019 0.02500803 0.56470588 0.92549020 0.07058824
v -0.00582147 -0.00720788 0.02500803 0.56470588 0.92549020 0.07058824
v -0.00529703 -0.00584518 0.02500803 0.56470588 0.92549020 0.07058824
v -0.00445635 -0.00464647 0.02500803 0.56470588 0.92549020 0.07058824
v -0.00335477 -0.00368785 0.02500803 0.56470588 0.92549020 0.07058824
v -0.00205026 -0.00302340 0.02500803 0.56470588 0.92549020 0.07058824
v 0.00449071 -0.01263839 0.02500803 0.56470588 0.92549020 0.07058824
v 0.00449071 -0.01263839 0.01997537 0.56470588 0.92549020 0.07058824
v -0.00205026 -0.00302340 0.01997537 0.56470588 0.92549020 0.07058824
v -0.00335477 -0.00368616 0.01997537 0.56470588 0.92549020 0.07058824
v -0.00445635 -0.00464647 0.01997537 0.56470588 0.92549020 0.07058824
v -0.00529703 -0.00584348 0.01997537 0.56470588 0.92549020 0.07058824
v -0.00582147 -0.00720788 0.01997537 0.56470588 0.92549020 0.07058824
v -0.00599804 -0.00866019 0.01997537 0.56470588 0.92549020 0.07058824
v -0.00590844 -0.00970165 0.01997537 0.56470588 0.92549020 0.07058824
v -0.00563699 -0.01071269 0.01997537 0.56470588 0.92549020 0.07058824
v -0.00519425 -0.01165948 0.01997537 0.56470588 0.92549020 0.07058824
v -0.00513627 -0.01174063 0.02500803 0.56470588 0.92549020 0.07058824
v 0.00340757 -0.01359702 0.02500803 0.56470588 0.92549020 0.07058824
v 0.00378970 -0.01325888 0.01997537 0.56470588 0.92549020 0.07058824
v -0.00449061 -0.01263839 0.01997537 0.56470588 0.92549020 0.07058824
v -0.00449061 -0.01263839 0.02500803 0.56470588 0.92549020 0.07058824
v 0.00339967 -0.01360209 0.02500803 0.56470588 0.92549020 0.07058824
v 0.00340757 -0.01359702 0.01997537 0.56470588 0.92549020 0.07058824
v -0.00341538 -0.01359026 0.01997537 0.56470588 0.92549020 0.07058824
v -0.00417173 -0.01292074 0.02500803 0.56470588 0.92549020 0.07058824
v 0.00212679 -0.01426992 0.02500803 0.56470588 0.92549020 0.07058824
v 0.00212679 -0.01426992 0.01997537 0.56470588 0.92549020 0.07058824
v -0.00340748 -0.01359702 0.01997537 0.56470588 0.92549020 0.07058824
v -0.00340748 -0.01359702 0.02500803 0.56470588 0.92549020 0.07058824
v 0.00072214 -0.01461651 0.02500803 0.56470588 0.92549020 0.07058824
v 0.00072214 -0.01461651 0.01997537 0.56470588 0.92549020 0.07058824
v -0.00295419 -0.01383541 0.01997537 0.56470588 0.92549020 0.07058824
v -0.00212669 -0.01426992 0.02500803 0.56470588 0.92549020 0.07058824
v -0.00072204 -0.01461651 0.02500803 0.56470588 0.92549020 0.07058824
v -0.00072204 -0.01461651 0.01997537 0.56470588 0.92549020 0.07058824
v -0.00212669 -0.01426992 0.01997537 0.56470588 0.92549020 0.07058824
f 296 297 298
f 296 298 299
f 296 299 300
f 296 300 301
f 296 301 302
f 296 302 303
f 296 303 304
f 296 304 305
f 296 305 310
f 296 310 306
f 296 306 320
f 296 320 307
f 296 307 308
f 296 308 297
f 297 308 329
f 297 329 328
f 297 328 327
f 297 327 326
f 297 326 325
f 297 325 324
f 297 324 323
f 297 323 322
f 297 322 321
f 297 321 341
f 297 341 345
f 297 345 349
f 297 349 353
f 297 353 357
f 297 357 358
f 297 358 354
f 297 354 350
f 297 350 346
f 297 346 342
f 297 342 330
f 297 330 309
f 297 309 305
f 297 305 304
f 297 304 303
f 297 303 302
f 297 302 301
f 297 301 300
f 297 300 299
f 297 299 298
f 305 309 310
f 306 310 311
f 306 311 312
f 306 312 313
f 306 313 314
f 306 314 315
f 306 315 316
f 306 316 317
f 306 317 318
f 306 318 319
f 306 319 320
f 307 320 340
f 307 340 321
f 307 321 322
f 307 322 323
f 307 323 324
f 307 324 325
f 307 325 326
f 307 326 327
f 307 327 328
f 307 328 329
f 307 329 308
f 309 330 331
f 309 331 310
f 310 331 343
f 310 343 347
f 310 347 351
f 310 351 355
f 310 355 359
f 310 359 360
f 310 360 356
f 310 356 352
f 310 352 348
f 310 348 344
f 310 344 340
f 310 340 339
f 310 339 338
f 310 338 337
f 310 337 336
f 310 336 335
f 310 335 334
f 310 334 333
f 310 333 332
f 310 332 319
f 310 319 318
f 310 318 317
f 310 317 316
f 310 316 315
f 310 315 314
f 310 314 313
f 310 313 312
f 310 312 311
f 319 332 320
f 320 332 333
f 320 333 334
f 320 334 335
f 320 335 336
f 320 336 337
f 320 337 338
f 320 338 339
f 320 339 340
f 321 340 341
f 330 342 343
f 330 343 331
f 340 344 341
f 341 344 345
f 342 346 347
f 342 347 343
f 344 348 349
f 344 349 345
f 346 350 351
f 346 351 347
f 348 352 353
f 348 353 349
f 350 354 355
f 350 355 351
f 352 356 353
f 353 356 357
f 354 358 359
f 354 359 355
f 356 360 357
f 357 360 359
f 357 359 358

o geometry_5
v 0.00599703 -0.00876455 0.05000000 0.08627451 0.01960784 0.83137255
v 0.00591012 -0.00948233 0.05000000 0.08627451 0.01960784 0.83137255
v 0.00599585 -0.00886959 0.02501097 0.08627451 0.01960784 0.83137255
v 0.00593361 -0.00803744 0.05000000 0.08627451 0.01960784 0.83137255
v 0.00579619 -0.01020478 0.05000000 0.08627451 0.01960784 0.83137255
v 0.00576683 -0.01031333 0.02501097 0.08627451 0.01960784 0.83137255
v 0.00586784 -0.00741303 0.02501097 0.08627451 0.01960784 0.83137255
v 0.00584670 -0.00731965 0.05000000 0.08627451 0.01960784 0.83137255
v 0.00554016 -0.01088055 0.05000000 0.08627451 0.01960784 0.83137255
v 0.00519487 -0.01166019 0.02501097 0.08627451 0.01960784 0.83137255
v 0.00539218 -0.00602998 0.02501097 0.08627451 0.01960784 0.83137255
v 0.00560828 -0.00662755 0.05000000 0.08627451 0.01960784 0.83137255
v 0.00525360 -0.01155398 0.05000000 0.08627451 0.01960784 0.83137255
v 0.00507743 -0.01182358 0.02501097 0.08627451 0.01960784 0.83137255
v 0.00484254 -0.01214921 0.05000000 0.08627451 0.01960784 0.83137255
v 0.00459590 -0.00480450 0.02501097 0.08627451 0.01960784 0.83137255
v 0.00495411 -0.00533788 0.05000000 0.08627451 0.01960784 0.83137255
v 0.00535225 -0.00595179 0.05000000 0.08627451 0.01960784 0.83137255
v 0.00449020 -0.01263824 0.05000000 0.08627451 0.01960784 0.83137255
v 0.00449020 -0.01263824 0.02501097 0.08627451 0.01960784 0.83137255
v 0.00352598 -0.00380661 0.02501097 0.08627451 0.01960784 0.83137255
v 0.00454305 -0.00474265 0.05000000 0.08627451 0.01960784 0.83137255
v 0.00340736 -0.01359761 0.05000000 0.08627451 0.01960784 0.83137255
v 0.00390768 -0.01315527 0.02501097 0.08627451 0.01960784 0.83137255
v 0.00224700 -0.00309817 0.02501097 0.08627451 0.01960784 0.83137255
v 0.00282718 -0.00340979 0.05000000 0.08627451 0.01960784 0.83137255
v 0.00346726 -0.00376460 0.05000000 0.08627451 0.01960784 0.83137255
v 0.00400868 -0.00424429 0.05000000 0.08627451 0.01960784 0.83137255
v 0.00212721 -0.01426987 0.05000000 0.08627451 0.01960784 0.83137255
v 0.00340031 -0.01360228 0.02501097 0.08627451 0.01960784 0.83137255
v 0.00340736 -0.01359761 0.02501097 0.08627451 0.01960784 0.83137255
v 0.00083414 -0.00271886 0.02501097 0.08627451 0.01960784 0.83137255
v 0.00218710 -0.00307366 0.05000000 0.08627451 0.01960784 0.83137255
v 0.00072256 -0.01461651 0.05000000 0.08627451 0.01960784 0.83137255
v 0.00137086 -0.01445661 0.02501097 0.08627451 0.01960784 0.83137255
v 0.00211781 -0.01427221 0.02501097 0.08627451 0.01960784 0.83137255
v 0.00212721 -0.01426987 0.02501097 0.08627451 0.01960784 0.83137255
v 0.00250421 -0.01407263 0.02501097 0.08627451 0.01960784 0.83137255
v -0.00062688 -0.00269318 0.02501097 0.08627451 0.01960784 0.83137255
v 0.00077894 -0.00271185 0.05000000 0.08627451 0.01960784 0.83137255
v 0.00148126 -0.00288459 0.05000000 0.08627451 0.01960784 0.83137255
v -0.00072319 -0.01461651 0.05000000 0.08627451 0.01960784 0.83137255
v 0.00072256 -0.01461651 0.02501097 0.08627451 0.01960784 0.83137255
v -0.00205149 -0.00302231 0.02501097 0.08627451 0.01960784 0.83137255
v -0.00067504 -0.00269901 0.05000000 0.08627451 0.01960784 0.83137255
v 0.00004725 -0.00269901 0.05000000 0.08627451 0.01960784 0.83137255
v -0.00212666 -0.01426987 0.05000000 0.08627451 0.01960784 0.83137255
v -0.00072319 -0.01461651 0.02501097 0.08627451 0.01960784 0.83137255
v -0.00335513 -0.00368640 0.02501097 0.08627451 0.01960784 0.83137255
v -0.00208908 -0.00303631 0.05000000 0.08627451 0.01960784 0.83137255
v -0.00138675 -0.00286358 0.05000000 0.08627451 0.01960784 0.83137255
v -0.00340798 -0.01359761 0.05000000 0.08627451 0.01960784 0.83137255
v -0.00212666 -0.01426987 0.02501097 0.08627451 0.01960784 0.83137255
v -0.00445795 -0.00464578 0.02501097 0.08627451 0.01960784 0.83137255
v -0.00393296 -0.00418476 0.05000000 0.08627451 0.01960784 0.83137255
v -0.00338097 -0.00370507 0.05000000 0.08627451 0.01960784 0.83137255
v -0.00274090 -0.00336894 0.05000000 0.08627451 0.01960784 0.83137255
v -0.00449083 -0.01263824 0.05000000 0.08627451 0.01960784 0.83137255
v -0.00417255 -0.01292068 0.02501097 0.08627451 0.01960784 0.83137255
v -0.00341503 -0.01359178 0.02501097 0.08627451 0.01960784 0.83137255
v -0.00340798 -0.01359761 0.02501097 0.08627451 0.01960784 0.83137255
v -0.00529768 -0.00584441 0.02501097 0.08627451 0.01960784 0.83137255
v -0.00447439 -0.00466445 0.05000000 0.08627451 0.01960784 0.83137255
v -0.00484317 -0.01214921 0.05000000 0.08627451 0.01960784 0.83137255
v -0.00513678 -0.01174188 0.02501097 0.08627451 0.01960784 0.83137255
v -0.00449083 -0.01263824 0.02501097 0.08627451 0.01960784 0.83137255
v -0.00582148 -0.00720995 0.02501097 0.08627451 0.01960784 0.83137255
v -0.00530472 -0.00585842 0.05000000 0.08627451 0.01960784 0.83137255
v -0.00489367 -0.00526318 0.05000000 0.08627451 0.01960784 0.83137255
v -0.00525422 -0.01155398 0.05000000 0.08627451 0.01960784 0.83137255
v -0.00519550 -0.01166019 0.02501097 0.08627451 0.01960784 0.83137255
v -0.00599883 -0.00865951 0.02501097 0.08627451 0.01960784 0.83137255
v -0.00591192 -0.00794290 0.05000000 0.08627451 0.01960784 0.83137255
v -0.00582266 -0.00721695 0.05000000 0.08627451 0.01960784 0.83137255
v -0.00556663 -0.00654118 0.05000000 0.08627451 0.01960784 0.83137255
v -0.00547502 -0.01108013 0.05000000 0.08627451 0.01960784 0.83137255
v -0.00563709 -0.01071248 0.02501097 0.08627451 0.01960784 0.83137255
v -0.00590839 -0.00970175 0.02501097 0.08627451 0.01960784 0.83137255
v -0.00595420 -0.00918005 0.05000000 0.08627451 0.01960784 0.83137255
v -0.00599883 -0.00865951 0.05000000 0.08627451 0.01960784 0.83137255
v -0.00573105 -0.01040319 0.05000000 0.08627451 0.01960784 0.83137255
v -0.00586611 -0.00989900 0.05000000 0.08627451 0.01960784 0.83137255
f 361 362 363
f 361 363 364
f 361 364 368
f 361 368 372
f 361 372 378
f 361 378 377
f 361 377 382
f 361 382 388
f 361 388 387
f 361 387 386
f 361 386 393
f 361 393 401
f 361 401 400
f 361 400 406
f 361 406 405
f 361 405 411
f 361 411 410
f 361 410 417
f 361 417 416
f 361 416 415
f 361 415 423
f 361 423 429
f 361 429 428
f 361 428 435
f 361 435 434
f 361 434 433
f 361 433 440
f 361 440 439
f 361 439 442
f 361 442 441
f 361 441 436
f 361 436 430
f 361 430 424
f 361 424 418
f 361 418 412
f 361 412 407
f 361 407 402
f 361 402 394
f 361 394 389
f 361 389 383
f 361 383 379
f 361 379 375
f 361 375 373
f 361 373 369
f 361 369 365
f 361 365 362
f 362 365 363
f 363 366 370
f 363 370 374
f 363 374 380
f 363 380 384
f 363 384 391
f 363 391 390
f 363 390 398
f 363 398 397
f 363 397 396
f 363 396 395
f 363 395 403
f 363 403 408
f 363 408 413
f 363 413 421
f 363 421 420
f 363 420 419
f 363 419 426
f 363 426 425
f 363 425 431
f 363 431 437
f 363 437 438
f 363 438 432
f 363 432 427
f 363 427 422
f 363 422 414
f 363 414 409
f 363 409 404
f 363 404 399
f 363 399 392
f 363 392 385
f 363 385 381
f 363 381 376
f 363 376 371
f 363 371 367
f 363 367 364
f 363 365 366
f 364 367 368
f 365 369 366
f 366 369 370
f 367 371 368
f 368 371 372
f 369 373 370
f 370 373 375
f 370 375 374
f 371 376 377
f 371 377 378
f 371 378 372
f 374 375 379
f 374 379 380
f 376 381 382
f 376 382 377
f 379 383 384
f 379 384 380
f 381 385 386
f 381 386 387
f 381 387 388
f 381 388 382
f 383 389 390
f 383 390 391
f 383 391 384
f 385 392 393
f 385 393 386
f 389 394 395
f 389 395 396
f 389 396 397
f 389 397 398
f 389 398 390
f 392 399 400
f 392 400 401
f 392 401 393
f 394 402 408
f 394 408 403
f 394 403 395
f 399 404 405
f 399 405 406
f 399 406 400
f 402 407 413
f 402 413 408
f 404 409 410
f 404 410 411
f 404 411 405
f 407 412 421
f 407 421 413
f 409 414 415
f 409 415 416
f 409 416 417
f 409 417 410
f 412 418 419
f 412 419 420
f 412 420 421
f 414 422 423
f 414 423 415
f 418 424 425
f 418 425 426
f 418 426 419
f 422 427 435
f 422 435 428
f 422 428 429
f 422 429 423
f 424 430 431
f 424 431 425
f 427 432 433
f 427 433 434
f 427 434 435
f 430 436 437
f 430 437 431
f 432 438 439
f 432 439 440
f 432 440 433
f 436 441 437
f 437 441 438
f 438 441 442
f 438 442 439

o geometry_6
v 0.00399510 0.01466026 0.02499971 0.77647059 0.86666667 0.97647059
v 0.00399510 0.01466026 0.02000013 0.77647059 0.86666667 0.97647059
v -0.00378248 0.01466026 0.02499971 0.77647059 0.86666667 0.97647059
v -0.00999828 0.01465908 0.02501644 0.77647059 0.86666667 0.97647059
v -0.00853632 0.01447697 0.02501644 0.77647059 0.86666667 0.97647059
v -0.00716046 0.01394471 0.02501644 0.77647059 0.86666667 0.97647059
v -0.00595879 0.01309286 0.02501644 0.77647059 0.86666667 0.97647059
v -0.00499981 0.01197312 0.02501644 0.77647059 0.86666667 0.97647059
v -0.00434222 0.01065246 0.02501644 0.77647059 0.86666667 0.97647059
v -0.00402712 0.00921195 0.02501644 0.77647059 0.86666667 0.97647059
v 0.00399510 0.00265682 0.02499971 0.77647059 0.86666667 0.97647059
v 0.00399510 0.00265682 0.02000013 0.77647059 0.86666667 0.97647059
v -0.00402712 0.00922017 0.01950071 0.77647059 0.86666667 0.97647059
v -0.00434222 0.01064776 0.01950071 0.77647059 0.86666667 0.97647059
v -0.00434613 0.01066068 0.01950071 0.77647059 0.86666667 0.97647059
v -0.00499589 0.01196842 0.01950071 0.77647059 0.86666667 0.97647059
v -0.00595488 0.01308816 0.01950071 0.77647059 0.86666667 0.97647059
v -0.00596467 0.01309756 0.01950071 0.77647059 0.86666667 0.97647059
v -0.00715655 0.01394118 0.01950071 0.77647059 0.86666667 0.97647059
v -0.00716829 0.01394706 0.01950071 0.77647059 0.86666667 0.97647059
v -0.00853045 0.01447579 0.01950071 0.77647059 0.86666667 0.97647059
v -0.00854219 0.01447814 0.01950071 0.77647059 0.86666667 0.97647059
v -0.00999241 0.01465908 0.01950071 0.77647059 0.86666667 0.97647059
v -0.00378248 0.01466026 0.02000013 0.77647059 0.86666667 0.97647059
v -0.00999828 0.01466026 0.02499917 0.77647059 0.86666667 0.97647059
v -0.01005895 0.01465556 0.02501644 0.77647059 0.86666667 0.97647059
v -0.00407213 0.00774089 0.02501644 0.77647059 0.86666667 0.97647059
v -0.00447726 0.00632271 0.02501644 0.77647059 0.86666667 0.97647059
v -0.00521509 0.00504553 0.02501644 0.77647059 0.86666667 0.97647059
v -0.00623866 0.00398688 0.02501644 0.77647059 0.86666667 0.97647059
v -0.00749317 0.00321141 0.02501644 0.77647059 0.86666667 0.97647059
v -0.00889838 0.00276374 0.02501644 0.77647059 0.86666667 0.97647059
v -0.01036818 0.00267327 0.02501644 0.77647059 0.86666667 0.97647059
v 0.00266231 0.00265682 0.02499971 0.77647059 0.86666667 0.97647059
v -0.00378248 0.00265682 0.02000013 0.77647059 0.86666667 0.97647059
v -0.01035839 0.00267327 0.01950071 0.77647059 0.86666667 0.97647059
v -0.00890034 0.00276374 0.01950071 0.77647059 0.86666667 0.97647059
v -0.00888664 0.00276727 0.01950071 0.77647059 0.86666667 0.97647059
v -0.00749513 0.00321023 0.01950071 0.77647059 0.86666667 0.97647059
v -0.00748339 0.00321611 0.01950071 0.77647059 0.86666667 0.97647059
v -0.00624062 0.00398453 0.01950071 0.77647059 0.86666667 0.97647059
v -0.00623083 0.00399393 0.01950071 0.77647059 0.86666667 0.97647059
v -0.00521705 0.00504318 0.01950071 0.77647059 0.86666667 0.97647059
v -0.00520922 0.00505375 0.01950071 0.77647059 0.86666667 0.97647059
v -0.00447726 0.00631919 0.01950071 0.77647059 0.86666667 0.97647059
v -0.00447334 0.00633094 0.01950071 0.77647059 0.86666667 0.97647059
v -0.00407409 0.00773619 0.01950071 0.77647059 0.86666667 0.97647059
v -0.00407213 0.00774912 0.01950071 0.77647059 0.86666667 0.97647059
v -0.00402712 0.00920725 0.01950071 0.77647059 0.86666667 0.97647059
v -0.01000611 0.01465908 0.01950071 0.77647059 0.86666667 0.97647059
v -0.00999828 0.01466026 0.02000067 0.77647059 0.86666667 0.97647059
v -0.01071459 0.01461561 0.02501644 0.77647059 0.86666667 0.97647059
v -0.01181840 0.00294469 0.02501644 0.77647059 0.86666667 0.97647059
v -0.01346042 0.00265682 0.02499917 0.77647059 0.86666667 0.97647059
v -0.01346042 0.00265682 0.02000067 0.77647059 0.86666667 0.97647059
v -0.01037209 0.00267327 0.01950071 0.77647059 0.86666667 0.97647059
v -0.01071263 0.01461561 0.01950071 0.77647059 0.86666667 0.97647059
v -0.01072242 0.01461444 0.01950071 0.77647059 0.86666667 0.97647059
v -0.01072242 0.01461444 0.02501644 0.77647059 0.86666667 0.97647059
v -0.01315707 0.00356155 0.02501644 0.77647059 0.86666667 0.97647059
v -0.01430590 0.00448507 0.02501644 0.77647059 0.86666667 0.97647059
v -0.01519443 0.00566238 0.02501644 0.77647059 0.86666667 0.97647059
v -0.01519443 0.00566121 0.02000067 0.77647059 0.86666667 0.97647059
v -0.01518856 0.00565298 0.01950071 0.77647059 0.86666667 0.97647059
v -0.01430786 0.00448742 0.01950071 0.77647059 0.86666667 0.97647059
v -0.01429807 0.00447802 0.01950071 0.77647059 0.86666667 0.97647059
v -0.01315903 0.00356155 0.01950071 0.77647059 0.86666667 0.97647059
v -0.01314729 0.00355567 0.01950071 0.77647059 0.86666667 0.97647059
v -0.01182036 0.00294586 0.01950071 0.77647059 0.86666667 0.97647059
v -0.01180666 0.00294234 0.01950071 0.77647059 0.86666667 0.97647059
v -0.01122540 0.01449106 0.01950071 0.77647059 0.86666667 0.97647059
v -0.01113341 0.01451339 0.02501644 0.77647059 0.86666667 0.97647059
v -0.01582462 0.00722626 0.02501644 0.77647059 0.86666667 0.97647059
v -0.01519443 0.00566356 0.01950071 0.77647059 0.86666667 0.97647059
v -0.01582462 0.00722626 0.01950071 0.77647059 0.86666667 0.97647059
v -0.01212567 0.01426900 0.01950071 0.77647059 0.86666667 0.97647059
v -0.01211784 0.01427135 0.02501644 0.77647059 0.86666667 0.97647059
v -0.01582658 0.00723448 0.02501644 0.77647059 0.86666667 0.97647059
v -0.01599880 0.00865854 0.01950071 0.77647059 0.86666667 0.97647059
v -0.01212567 0.01426900 0.02501644 0.77647059 0.86666667 0.97647059
v -0.01340562 0.01359692 0.01950071 0.77647059 0.86666667 0.97647059
v -0.01599880 0.00865854 0.02501644 0.77647059 0.86666667 0.97647059
v -0.01599880 0.00866794 0.02501644 0.77647059 0.86666667 0.97647059
v -0.01582462 0.01009435 0.01950071 0.77647059 0.86666667 0.97647059
v -0.01340562 0.01359692 0.02501644 0.77647059 0.86666667 0.97647059
v -0.01448204 0.01264520 0.01950071 0.77647059 0.86666667 0.97647059
v -0.01582462 0.01009435 0.02501644 0.77647059 0.86666667 0.97647059
v -0.01546255 0.01104959 0.02501644 0.77647059 0.86666667 0.97647059
v -0.01531186 0.01144673 0.01950071 0.77647059 0.86666667 0.97647059
v -0.01448987 0.01263697 0.02501644 0.77647059 0.86666667 0.97647059
v -0.01448987 0.01263697 0.01950071 0.77647059 0.86666667 0.97647059
v -0.01531186 0.01144673 0.02501644 0.77647059 0.86666667 0.97647059
v -0.01530599 0.01145613 0.01950071 0.77647059 0.86666667 0.97647059
f 443 444 466
f 443 466 493
f 443 493 467
f 443 467 445
f 443 445 446
f 443 446 447
f 443 447 448
f 443 448 449
f 443 449 450
f 443 450 451
f 443 451 452
f 443 452 453
f 443 453 454
f 443 454 444
f 444 454 491
f 444 491 455
f 444 455 456
f 444 456 457
f 444 457 458
f 444 458 459
f 444 459 460
f 444 460 461
f 444 461 462
f 444 462 463
f 444 463 464
f 444 464 465
f 444 465 492
f 444 492 466
f 445 467 446
f 446 468 494
f 446 494 501
f 446 501 514
f 446 514 519
f 446 519 522
f 446 522 527
f 446 527 532
f 446 532 534
f 446 534 530
f 446 530 529
f 446 529 525
f 446 525 524
f 446 524 520
f 446 520 515
f 446 515 504
f 446 504 503
f 446 503 502
f 446 502 495
f 446 495 475
f 446 475 474
f 446 474 473
f 446 473 472
f 446 472 471
f 446 471 470
f 446 470 469
f 446 469 452
f 446 452 451
f 446 451 450
f 446 450 449
f 446 449 448
f 446 448 447
f 446 467 468
f 452 469 453
f 453 469 470
f 453 470 471
f 453 471 472
f 453 472 473
f 453 473 474
f 453 474 475
f 453 475 476
f 453 476 496
f 453 496 497
f 453 497 477
f 453 477 454
f 454 477 498
f 454 498 478
f 454 478 479
f 454 479 480
f 454 480 481
f 454 481 482
f 454 482 483
f 454 483 484
f 454 484 485
f 454 485 486
f 454 486 487
f 454 487 488
f 454 488 489
f 454 489 490
f 454 490 491
f 455 491 490
f 455 490 489
f 455 489 488
f 455 488 487
f 455 487 486
f 455 486 485
f 455 485 484
f 455 484 483
f 455 483 482
f 455 482 481
f 455 481 480
f 455 480 479
f 455 479 478
f 455 478 498
f 455 498 512
f 455 512 511
f 455 511 510
f 455 510 509
f 455 509 508
f 455 508 507
f 455 507 506
f 455 506 516
f 455 516 517
f 455 517 521
f 455 521 526
f 455 526 531
f 455 531 535
f 455 535 533
f 455 533 528
f 455 528 523
f 455 523 518
f 455 518 513
f 455 513 500
f 455 500 499
f 455 499 492
f 455 492 465
f 455 465 464
f 455 464 463
f 455 463 462
f 455 462 461
f 455 461 460
f 455 460 459
f 455 459 458
f 455 458 457
f 455 457 456
f 466 492 493
f 467 493 494
f 467 494 468
f 475 495 496
f 475 496 476
f 477 497 498
f 492 499 493
f 493 499 494
f 494 499 500
f 494 500 501
f 495 502 496
f 496 502 503
f 496 503 504
f 496 504 505
f 496 505 497
f 497 505 506
f 497 506 507
f 497 507 508
f 497 508 509
f 497 509 510
f 497 510 511
f 497 511 512
f 497 512 498
f 500 513 501
f 501 513 514
f 504 515 505
f 505 516 506
f 505 515 517
f 505 517 516
f 513 518 519
f 513 519 514
f 515 520 517
f 517 520 521
f 518 522 519
f 518 523 527
f 518 527 522
f 520 524 521
f 521 524 525
f 521 525 526
f 523 528 527
f 525 529 526
f 526 529 530
f 526 530 531
f 527 528 532
f 528 533 532
f 530 534 531
f 531 534 535
f 532 533 535
f 532 535 534

o geometry_7
v -0.00400200 0.00867763 -0.03322495 0.79607843 0.45882353 0.78039216
v -0.00400317 0.00863070 -0.03322495 0.79607843 0.45882353 0.78039216
v -0.00416996 0.01006699 -0.03322495 0.79607843 0.45882353 0.78039216
v -0.00402549 0.00920803 0.01949554 0.79607843 0.45882353 0.78039216
v -0.00417113 0.00724133 -0.03322495 0.79607843 0.45882353 0.78039216
v -0.00407130 0.00774944 0.01949554 0.79607843 0.45882353 0.78039216
v -0.00407247 0.00773536 0.01949554 0.79607843 0.45882353 0.78039216
v -0.00418053 0.01011393 -0.03322495 0.79607843 0.45882353 0.78039216
v -0.00434027 0.01064902 0.01949554 0.79607843 0.45882353 0.78039216
v -0.00402784 0.00922094 0.01949554 0.79607843 0.45882353 0.78039216
v -0.00418405 0.00719557 -0.03322495 0.79607843 0.45882353 0.78039216
v -0.00447182 0.00633074 0.01949554 0.79607843 0.45882353 0.78039216
v -0.00467619 0.01142232 -0.03322495 0.79607843 0.45882353 0.78039216
v -0.00434497 0.01066076 0.01949554 0.79607843 0.45882353 0.78039216
v -0.00468089 0.00588718 -0.03322495 0.79607843 0.45882353 0.78039216
v -0.00447652 0.00631783 0.01949554 0.79607843 0.45882353 0.78039216
v -0.00469733 0.01146457 -0.03322495 0.79607843 0.45882353 0.78039216
v -0.00499567 0.01196915 0.01949554 0.79607843 0.45882353 0.78039216
v -0.00470438 0.00584611 -0.03322495 0.79607843 0.45882353 0.78039216
v -0.00520826 0.00505286 0.01949554 0.79607843 0.45882353 0.78039216
v -0.00549250 0.01261689 -0.03322495 0.79607843 0.45882353 0.78039216
v -0.00500389 0.01197971 0.01949554 0.79607843 0.45882353 0.78039216
v -0.00549955 0.00469378 -0.03322495 0.79607843 0.45882353 0.78039216
v -0.00521531 0.00504230 0.01949554 0.79607843 0.45882353 0.78039216
v -0.00552421 0.01265327 -0.03322495 0.79607843 0.45882353 0.78039216
v -0.00595410 0.01308979 0.01949554 0.79607843 0.45882353 0.78039216
v -0.00553243 0.00465975 -0.03322495 0.79607843 0.45882353 0.78039216
v -0.00623246 0.00399324 0.01949554 0.79607843 0.45882353 0.78039216
v -0.00657191 0.01358147 -0.03322495 0.79607843 0.45882353 0.78039216
v -0.00596467 0.01309801 0.01949554 0.79607843 0.45882353 0.78039216
v -0.00658130 0.00373156 -0.03322495 0.79607843 0.45882353 0.78039216
v -0.00624186 0.00398385 0.01949554 0.79607843 0.45882353 0.78039216
v -0.00661067 0.01360846 -0.03322495 0.79607843 0.45882353 0.78039216
v -0.00715683 0.01394289 0.01949554 0.79607843 0.45882353 0.78039216
v -0.00662124 0.00370691 -0.03322495 0.79607843 0.45882353 0.78039216
v -0.00748453 0.00321524 0.01949554 0.79607843 0.45882353 0.78039216
v -0.00784982 0.01425972 -0.03322495 0.79607843 0.45882353 0.78039216
v -0.00716858 0.01394876 0.01949554 0.79607843 0.45882353 0.78039216
v -0.00786039 0.00305565 -0.03322495 0.79607843 0.45882353 0.78039216
v -0.00749628 0.00320820 0.01949554 0.79607843 0.45882353 0.78039216
v -0.00789445 0.01427615 -0.03322495 0.79607843 0.45882353 0.78039216
v -0.00853105 0.01447681 0.01949554 0.79607843 0.45882353 0.78039216
v -0.00790619 0.00304157 -0.03322495 0.79607843 0.45882353 0.78039216
v -0.00888929 0.00276581 0.01949554 0.79607843 0.45882353 0.78039216
v -0.00925340 0.01461175 -0.03322495 0.79607843 0.45882353 0.78039216
v -0.00854397 0.01447915 0.01949554 0.79607843 0.45882353 0.78039216
v -0.00926515 0.00270596 -0.03322495 0.79607843 0.45882353 0.78039216
v -0.00890104 0.00276229 0.01949554 0.79607843 0.45882353 0.78039216
v -0.00930038 0.01461762 -0.03322495 0.79607843 0.45882353 0.78039216
v -0.00999454 0.01465869 0.01949554 0.79607843 0.45882353 0.78039216
v -0.00931213 0.00270362 -0.03322495 0.79607843 0.45882353 0.78039216
v -0.01035865 0.00267193 0.01949554 0.79607843 0.45882353 0.78039216
v -0.01069927 0.01461762 -0.03322495 0.79607843 0.45882353 0.78039216
v -0.01000629 0.01465869 0.01949554 0.79607843 0.45882353 0.78039216
v -0.01071101 0.00270362 -0.03322495 0.79607843 0.45882353 0.78039216
v -0.01037157 0.00267193 0.01949554 0.79607843 0.45882353 0.78039216
v -0.01072276 0.01461645 -0.03322495 0.79607843 0.45882353 0.78039216
v -0.01072276 0.01461645 0.01949554 0.79607843 0.45882353 0.78039216
v -0.01075800 0.00271183 -0.03322495 0.79607843 0.45882353 0.78039216
v -0.01180804 0.00294065 0.01949554 0.79607843 0.45882353 0.78039216
v -0.01212752 0.01427028 -0.03322495 0.79607843 0.45882353 0.78039216
v -0.01212752 0.01427028 0.01949554 0.79607843 0.45882353 0.78039216
v -0.01211695 0.00304744 -0.03322495 0.79607843 0.45882353 0.78039216
v -0.01182096 0.00294417 0.01949554 0.79607843 0.45882353 0.78039216
v -0.01340777 0.01359789 -0.03322495 0.79607843 0.45882353 0.78039216
v -0.01340777 0.01359789 0.01949554 0.79607843 0.45882353 0.78039216
v -0.01216041 0.00306739 -0.03322495 0.79607843 0.45882353 0.78039216
v -0.01314820 0.00355437 0.01949554 0.79607843 0.45882353 0.78039216
v -0.01446839 0.01265796 -0.03322495 0.79607843 0.45882353 0.78039216
v -0.01448249 0.01264623 0.01949554 0.79607843 0.45882353 0.78039216
v -0.01339955 0.00371748 -0.03322495 0.79607843 0.45882353 0.78039216
v -0.01315995 0.00356141 0.01949554 0.79607843 0.45882353 0.78039216
v -0.01449071 0.01263802 -0.03322495 0.79607843 0.45882353 0.78039216
v -0.01449071 0.01263802 0.01949554 0.79607843 0.45882353 0.78039216
v -0.01343714 0.00374798 -0.03322495 0.79607843 0.45882353 0.78039216
v -0.01429808 0.00447669 0.01949554 0.79607843 0.45882353 0.78039216
v -0.01529527 0.01147278 -0.03322495 0.79607843 0.45882353 0.78039216
v -0.01530584 0.01145753 0.01949554 0.79607843 0.45882353 0.78039216
v -0.01448483 0.00467618 -0.03322495 0.79607843 0.45882353 0.78039216
v -0.01430865 0.00448608 0.01949554 0.79607843 0.45882353 0.78039216
v -0.01531172 0.01144814 -0.03322495 0.79607843 0.45882353 0.78039216
v -0.01531172 0.01144814 0.01949554 0.79607843 0.45882353 0.78039216
v -0.01451302 0.00471373 -0.03322495 0.79607843 0.45882353 0.78039216
v -0.01518956 0.00565249 0.01949554 0.79607843 0.45882353 0.78039216
v -0.01581442 0.01012332 -0.03322495 0.79607843 0.45882353 0.78039216
v -0.01582147 0.01010572 0.01949554 0.79607843 0.45882353 0.78039216
v -0.01530819 0.00586606 -0.03322495 0.79607843 0.45882353 0.78039216
v -0.01519661 0.00566305 0.01949554 0.79607843 0.45882353 0.78039216
v -0.01582499 0.01009516 -0.03322495 0.79607843 0.45882353 0.78039216
v -0.01582499 0.01009516 0.01949554 0.79607843 0.45882353 0.78039216
v -0.01582499 0.00722491 -0.03322495 0.79607843 0.45882353 0.78039216
v -0.01582499 0.00722491 0.01949554 0.79607843 0.45882353 0.78039216
v -0.01599883 0.00866120 -0.03322495 0.79607843 0.45882353 0.78039216
v -0.01599883 0.00866120 0.01949554 0.79607843 0.45882353 0.78039216
v -0.01593658 0.00814606 0.01949554 0.79607843 0.45882353 0.78039216
f 536 537 540
f 536 540 546
f 536 546 550
f 536 550 554
f 536 554 558
f 536 558 562
f 536 562 566
f 536 566 570
f 536 570 574
f 536 574 578
f 536 578 582
f 536 582 586
f 536 586 590
f 536 590 594
f 536 594 598
f 536 598 602
f 536 602 606
f 536 606 610
f 536 610 614
f 536 614 618
f 536 618 622
f 536 622 626
f 536 626 628
f 536 628 624
f 536 624 620
f 536 620 616
f 536 616 612
f 536 612 608
f 536 608 604
f 536 604 600
f 536 600 596
f 536 596 592
f 536 592 588
f 536 588 584
f 536 584 580
f 536 580 576
f 536 576 572
f 536 572 568
f 536 568 564
f 536 564 560
f 536 560 556
f 536 556 552
f 536 552 548
f 536 548 543
f 536 543 538
f 536 538 539
f 536 539 537
f 537 539 541
f 537 541 542
f 537 542 540
f 538 543 544
f 538 544 545
f 538 545 539
f 539 545 544
f 539 544 549
f 539 549 553
f 539 553 557
f 539 557 561
f 539 561 565
f 539 565 569
f 539 569 573
f 539 573 577
f 539 577 581
f 539 581 585
f 539 585 589
f 539 589 593
f 539 593 597
f 539 597 601
f 539 601 605
f 539 605 609
f 539 609 613
f 539 613 617
f 539 617 621
f 539 621 625
f 539 625 629
f 539 629 630
f 539 630 627
f 539 627 623
f 539 623 619
f 539 619 615
f 539 615 611
f 539 611 607
f 539 607 603
f 539 603 599
f 539 599 595
f 539 595 591
f 539 591 587
f 539 587 583
f 539 583 579
f 539 579 575
f 539 575 571
f 539 571 567
f 539 567 563
f 539 563 559
f 539 559 555
f 539 555 551
f 539 551 547
f 539 547 542
f 539 542 541
f 540 542 546
f 542 547 546
f 543 548 544
f 544 548 549
f 546 547 551
f 546 551 550
f 548 552 553
f 548 553 549
f 550 551 554
f 551 555 554
f 552 556 553
f 553 556 557
f 554 555 559
f 554 559 558
f 556 560 561
f 556 561 557
f 558 559 562
f 559 563 562
f 560 564 561
f 561 564 565
f 562 563 567
f 562 567 566
f 564 568 569
f 564 569 565
f 566 567 571
f 566 571 570
f 568 572 569
f 569 572 573
f 570 571 575
f 570 575 574
f 572 576 577
f 572 577 573
f 574 575 579
f 574 579 578
f 576 580 577
f 577 580 581
f 578 579 583
f 578 583 582
f 580 584 581
f 581 584 585
f 582 583 587
f 582 587 586
f 584 588 589
f 584 589 585
f 586 587 591
f 586 591 590
f 588 592 589
f 589 592 593
f 590 591 594
f 591 595 594
f 592 596 597
f 592 597 593
f 594 595 598
f 595 599 598
f 596 600 601
f 596 601 597
f 598 599 602
f 599 603 602
f 600 604 605
f 600 605 601
f 602 603 606
f 603 607 606
f 604 608 605
f 605 608 609
f 606 607 611
f 606 611 610
f 608 612 613
f 608 613 609
f 610 611 614
f 611 615 614
f 612 616 613
f 613 616 617
f 614 615 619
f 614 619 618
f 616 620 621
f 616 621 617
f 618 619 622
f 619 623 622
f 620 624 621
f 621 624 625
f 622 623 627
f 622 627 626
f 624 628 629
f 624 629 625
f 626 627 630
f 626 630 628
f 628 630 629

o geometry_8
v -0.01036897 0.00267174 0.02501644 0.11764706 0.63921569 0.14117647
v -0.00889873 0.00276327 0.02501644 0.11764706 0.63921569 0.14117647
v -0.00908765 0.00273394 0.05000000 0.11764706 0.63921569 0.14117647
v -0.00982335 0.00268817 0.05000000 0.11764706 0.63921569 0.14117647
v -0.01054615 0.00268817 0.05000000 0.11764706 0.63921569 0.14117647
v -0.01181926 0.00294399 0.02501644 0.11764706 0.63921569 0.14117647
v -0.00749303 0.00321038 0.02501644 0.11764706 0.63921569 0.14117647
v -0.00838597 0.00290644 0.05000000 0.11764706 0.63921569 0.14117647
v -0.01127012 0.00282430 0.05000000 0.11764706 0.63921569 0.14117647
v -0.01197298 0.00299680 0.05000000 0.11764706 0.63921569 0.14117647
v -0.01315809 0.00356008 0.02501644 0.11764706 0.63921569 0.14117647
v -0.00623987 0.00398606 0.02501644 0.11764706 0.63921569 0.14117647
v -0.00704245 0.00346620 0.05000000 0.11764706 0.63921569 0.14117647
v -0.00768312 0.00313058 0.05000000 0.11764706 0.63921569 0.14117647
v -0.01264297 0.00330543 0.05000000 0.11764706 0.63921569 0.14117647
v -0.01328246 0.00364105 0.05000000 0.11764706 0.63921569 0.14117647
v -0.01430682 0.00448363 0.02501644 0.11764706 0.63921569 0.14117647
v -0.00521316 0.00504456 0.02501644 0.11764706 0.63921569 0.14117647
v -0.00587377 0.00433459 0.05000000 0.11764706 0.63921569 0.14117647
v -0.00641587 0.00385463 0.05000000 0.11764706 0.63921569 0.14117647
v -0.01385742 0.00410341 0.05000000 0.11764706 0.63921569 0.14117647
v -0.01439834 0.00458338 0.05000000 0.11764706 0.63921569 0.14117647
v -0.01484305 0.00517130 0.05000000 0.11764706 0.63921569 0.14117647
v -0.01519624 0.00566183 0.02501644 0.11764706 0.63921569 0.14117647
v -0.00447511 0.00632133 0.02501644 0.11764706 0.63921569 0.14117647
v -0.00495033 0.00545881 0.05000000 0.11764706 0.63921569 0.14117647
v -0.00536101 0.00486384 0.05000000 0.11764706 0.63921569 0.14117647
v -0.01525373 0.00576627 0.05000000 0.11764706 0.63921569 0.14117647
v -0.01582517 0.00722493 0.02501644 0.11764706 0.63921569 0.14117647
v -0.00407147 0.00774010 0.02501644 0.11764706 0.63921569 0.14117647
v -0.00432492 0.00677313 0.05000000 0.11764706 0.63921569 0.14117647
v -0.00458189 0.00609719 0.05000000 0.11764706 0.63921569 0.14117647
v -0.01582517 0.00722493 0.05000000 0.11764706 0.63921569 0.14117647
v -0.01582634 0.00723432 0.02501644 0.11764706 0.63921569 0.14117647
v -0.00402571 0.00921285 0.02501644 0.11764706 0.63921569 0.14117647
v -0.00401280 0.00893590 0.05000000 0.11764706 0.63921569 0.14117647
v -0.00403627 0.00820011 0.05000000 0.11764706 0.63921569 0.14117647
v -0.00412310 0.00748310 0.05000000 0.11764706 0.63921569 0.14117647
v -0.01600000 0.00866130 0.05000000 0.11764706 0.63921569 0.14117647
v -0.01600000 0.00866130 0.02501644 0.11764706 0.63921569 0.14117647
v -0.00434134 0.01065273 0.02501644 0.11764706 0.63921569 0.14117647
v -0.00425803 0.01037461 0.05000000 0.11764706 0.63921569 0.14117647
v -0.00410080 0.00965408 0.05000000 0.11764706 0.63921569 0.14117647
v -0.01582517 0.01009532 0.05000000 0.11764706 0.63921569 0.14117647
v -0.01587680 0.00967403 0.02501644 0.11764706 0.63921569 0.14117647
v -0.00499961 0.01197410 0.02501644 0.11764706 0.63921569 0.14117647
v -0.00484355 0.01171123 0.05000000 0.11764706 0.63921569 0.14117647
v -0.00451500 0.01105055 0.05000000 0.11764706 0.63921569 0.14117647
v -0.01531240 0.01144837 0.05000000 0.11764706 0.63921569 0.14117647
v -0.01582517 0.01009532 0.02501644 0.11764706 0.63921569 0.14117647
v -0.00595826 0.01309362 0.02501644 0.11764706 0.63921569 0.14117647
v -0.00525423 0.01230620 0.05000000 0.11764706 0.63921569 0.14117647
v -0.01448987 0.01263830 0.05000000 0.11764706 0.63921569 0.14117647
v -0.01531240 0.01144837 0.02501644 0.11764706 0.63921569 0.14117647
v -0.00716097 0.01394558 0.02501644 0.11764706 0.63921569 0.14117647
v -0.00627507 0.01334592 0.05000000 0.11764706 0.63921569 0.14117647
v -0.00573414 0.01286596 0.05000000 0.11764706 0.63921569 0.14117647
v -0.01340801 0.01359705 0.05000000 0.11764706 0.63921569 0.14117647
v -0.01448400 0.01264417 0.02501644 0.11764706 0.63921569 0.14117647
v -0.01448987 0.01263830 0.02501644 0.11764706 0.63921569 0.14117647
v -0.00853733 0.01447835 0.02501644 0.11764706 0.63921569 0.14117647
v -0.00820527 0.01437391 0.05000000 0.11764706 0.63921569 0.14117647
v -0.00751767 0.01410753 0.05000000 0.11764706 0.63921569 0.14117647
v -0.00687701 0.01377190 0.05000000 0.11764706 0.63921569 0.14117647
v -0.01212669 0.01426947 0.05000000 0.11764706 0.63921569 0.14117647
v -0.01250334 0.01407232 0.02501644 0.11764706 0.63921569 0.14117647
v -0.01339980 0.01360175 0.02501644 0.11764706 0.63921569 0.14117647
v -0.01340801 0.01359705 0.02501644 0.11764706 0.63921569 0.14117647
v -0.01000053 0.01466025 0.02501644 0.11764706 0.63921569 0.14117647
v -0.00890695 0.01454759 0.05000000 0.11764706 0.63921569 0.14117647
v -0.01072216 0.01461565 0.05000000 0.11764706 0.63921569 0.14117647
v -0.01113519 0.01451473 0.02501644 0.11764706 0.63921569 0.14117647
v -0.01211848 0.01427182 0.02501644 0.11764706 0.63921569 0.14117647
v -0.01212669 0.01426947 0.02501644 0.11764706 0.63921569 0.14117647
v -0.01071512 0.01461683 0.02501644 0.11764706 0.63921569 0.14117647
v -0.01036076 0.01463795 0.05000000 0.11764706 0.63921569 0.14117647
v -0.00963913 0.01463795 0.05000000 0.11764706 0.63921569 0.14117647
v -0.01072216 0.01461565 0.02501644 0.11764706 0.63921569 0.14117647
f 631 632 633
f 631 633 634
f 631 634 635
f 631 635 636
f 631 636 641
f 631 641 647
f 631 647 654
f 631 654 659
f 631 659 664
f 631 664 670
f 631 670 675
f 631 675 680
f 631 680 684
f 631 684 690
f 631 690 689
f 631 689 698
f 631 698 697
f 631 697 696
f 631 696 704
f 631 704 703
f 631 703 702
f 631 702 708
f 631 708 705
f 631 705 699
f 631 699 691
f 631 691 685
f 631 685 681
f 631 681 676
f 631 676 671
f 631 671 665
f 631 665 660
f 631 660 655
f 631 655 648
f 631 648 642
f 631 642 637
f 631 637 632
f 632 637 638
f 632 638 633
f 633 638 644
f 633 644 643
f 633 643 650
f 633 650 649
f 633 649 657
f 633 657 656
f 633 656 662
f 633 662 661
f 633 661 668
f 633 668 667
f 633 667 666
f 633 666 673
f 633 673 672
f 633 672 678
f 633 678 677
f 633 677 682
f 633 682 687
f 633 687 686
f 633 686 694
f 633 694 693
f 633 693 692
f 633 692 700
f 633 700 707
f 633 707 706
f 633 706 701
f 633 701 695
f 633 695 688
f 633 688 683
f 633 683 679
f 633 679 674
f 633 674 669
f 633 669 663
f 633 663 658
f 633 658 653
f 633 653 652
f 633 652 651
f 633 651 646
f 633 646 645
f 633 645 640
f 633 640 639
f 633 639 635
f 633 635 634
f 635 639 636
f 636 639 640
f 636 640 641
f 637 642 643
f 637 643 644
f 637 644 638
f 640 645 641
f 641 645 646
f 641 646 647
f 642 648 649
f 642 649 650
f 642 650 643
f 646 651 647
f 647 651 652
f 647 652 653
f 647 653 654
f 648 655 656
f 648 656 657
f 648 657 649
f 653 658 654
f 654 658 659
f 655 660 661
f 655 661 662
f 655 662 656
f 658 663 659
f 659 663 664
f 660 665 666
f 660 666 667
f 660 667 668
f 660 668 661
f 663 669 664
f 664 669 670
f 665 671 672
f 665 672 673
f 665 673 666
f 669 674 675
f 669 675 670
f 671 676 677
f 671 677 678
f 671 678 672
f 674 679 684
f 674 684 680
f 674 680 675
f 676 681 682
f 676 682 677
f 679 683 690
f 679 690 684
f 681 685 686
f 681 686 687
f 681 687 682
f 683 688 689
f 683 689 690
f 685 691 692
f 685 692 693
f 685 693 694
f 685 694 686
f 688 695 696
f 688 696 697
f 688 697 698
f 688 698 689
f 691 699 700
f 691 700 692
f 695 701 702
f 695 702 703
f 695 703 704
f 695 704 696
f 699 705 706
f 699 706 707
f 699 707 700
f 701 706 705
f 701 705 708
f 701 708 702

o geometry_9
v 0.00399704 0.00265682 0.02000022 0.94117647 0.52156863 0.41176471
v 0.00416977 0.00724551 0.01844787 0.94117647 0.52156863 0.41176471
v 0.00465388 0.00594822 0.01844787 0.94117647 0.52156863 0.41176471
v 0.00466798 0.00591062 0.01844787 0.94117647 0.52156863 0.41176471
v 0.00544468 0.00476374 0.01844787 0.94117647 0.52156863 0.41176471
v 0.00546701 0.00473084 0.01844787 0.94117647 0.52156863 0.41176471
v 0.00649163 0.00379900 0.01844787 0.94117647 0.52156863 0.41176471
v 0.00652218 0.00377197 0.01844787 0.94117647 0.52156863 0.41176471
v 0.00773717 0.00310805 0.01844787 0.94117647 0.52156863 0.41176471
v 0.00777359 0.00308925 0.01844787 0.94117647 0.52156863 0.41176471
v 0.00911078 0.00273085 0.01844787 0.94117647 0.52156863 0.41176471
v 0.00915073 0.00272145 0.01844787 0.94117647 0.52156863 0.41176471
v 0.01053375 0.00268855 0.01844787 0.94117647 0.52156863 0.41176471
v 0.01346075 0.00265682 0.02000022 0.94117647 0.52156863 0.41176471
v 0.00399704 0.00265682 0.02499993 0.94117647 0.52156863 0.41176471
v 0.00399704 0.01466026 0.02000022 0.94117647 0.52156863 0.41176471
v 0.00400056 0.00865913 0.01844787 0.94117647 0.52156863 0.41176471
v 0.01057370 0.00268855 0.01844787 0.94117647 0.52156863 0.41176471
v 0.01346075 0.00265682 0.02499993 0.94117647 0.52156863 0.41176471
v 0.01192734 0.00298232 0.01844787 0.94117647 0.52156863 0.41176471
v 0.01196611 0.00299290 0.01844787 0.94117647 0.52156863 0.41176471
v 0.01321165 0.00359689 0.01844787 0.94117647 0.52156863 0.41176471
v 0.01324807 0.00361686 0.01844787 0.94117647 0.52156863 0.41176471
v 0.01431500 0.00449817 0.01844787 0.94117647 0.52156863 0.41176471
v 0.01434555 0.00452520 0.01844787 0.94117647 0.52156863 0.41176471
v 0.01517513 0.00563330 0.01844787 0.94117647 0.52156863 0.41176471
v 0.01519863 0.00566738 0.01844787 0.94117647 0.52156863 0.41176471
v 0.01519510 0.00566033 0.02000022 0.94117647 0.52156863 0.41176471
v 0.01056195 0.00268855 0.02529766 0.94117647 0.52156863 0.41176471
v 0.00914721 0.00272145 0.02529766 0.94117647 0.52156863 0.41176471
v 0.00777947 0.00308808 0.02529766 0.94117647 0.52156863 0.41176471
v 0.00777124 0.00309043 0.02529766 0.94117647 0.52156863 0.41176471
v 0.00776419 0.00309395 0.02529766 0.94117647 0.52156863 0.41176471
v 0.00652806 0.00376845 0.02529766 0.94117647 0.52156863 0.41176471
v 0.00652101 0.00377315 0.02529766 0.94117647 0.52156863 0.41176471
v 0.00651396 0.00377902 0.02529766 0.94117647 0.52156863 0.41176471
v 0.00546583 0.00473084 0.02529766 0.94117647 0.52156863 0.41176471
v 0.00467268 0.00590474 0.02529766 0.94117647 0.52156863 0.41176471
v 0.00466798 0.00591179 0.02529766 0.94117647 0.52156863 0.41176471
v 0.00466446 0.00591884 0.02529766 0.94117647 0.52156863 0.41176471
v 0.00416977 0.00724668 0.02529766 0.94117647 0.52156863 0.41176471
v 0.00416859 0.00725491 0.02529766 0.94117647 0.52156863 0.41176471
v 0.00400056 0.00865913 0.02529766 0.94117647 0.52156863 0.41176471
v 0.00399704 0.01466026 0.02499993 0.94117647 0.52156863 0.41176471
v 0.00999911 0.01466026 0.02000022 0.94117647 0.52156863 0.41176471
v 0.00998031 0.01465791 0.01844787 0.94117647 0.52156863 0.41176471
v 0.00868307 0.01451220 0.01844787 0.94117647 0.52156863 0.41176471
v 0.00864312 0.01450280 0.01844787 0.94117647 0.52156863 0.41176471
v 0.00741051 0.01407154 0.01844787 0.94117647 0.52156863 0.41176471
v 0.00737408 0.01405274 0.01844787 0.94117647 0.52156863 0.41176471
v 0.00626955 0.01335710 0.01844787 0.94117647 0.52156863 0.41176471
v 0.00623900 0.01333007 0.01844787 0.94117647 0.52156863 0.41176471
v 0.00531543 0.01240763 0.01844787 0.94117647 0.52156863 0.41176471
v 0.00529193 0.01237355 0.01844787 0.94117647 0.52156863 0.41176471
v 0.00459748 0.01126781 0.01844787 0.94117647 0.52156863 0.41176471
v 0.00458338 0.01123020 0.01844787 0.94117647 0.52156863 0.41176471
v 0.00415214 0.00999754 0.01844787 0.94117647 0.52156863 0.41176471
v 0.00414627 0.00995759 0.01844787 0.94117647 0.52156863 0.41176471
v 0.01323632 0.00360981 0.02529766 0.94117647 0.52156863 0.41176471
v 0.01197081 0.00299525 0.02529766 0.94117647 0.52156863 0.41176471
v 0.01196259 0.00299172 0.02529766 0.94117647 0.52156863 0.41176471
v 0.01195436 0.00298937 0.02529766 0.94117647 0.52156863 0.41176471
v 0.01057957 0.00268973 0.02529766 0.94117647 0.52156863 0.41176471
v 0.01057017 0.00268855 0.02529766 0.94117647 0.52156863 0.41176471
v 0.01519510 0.00566033 0.02499993 0.94117647 0.52156863 0.41176471
v 0.01519158 0.00565445 0.02529766 0.94117647 0.52156863 0.41176471
v 0.01434790 0.00452755 0.02529766 0.94117647 0.52156863 0.41176471
v 0.01434320 0.00452167 0.02529766 0.94117647 0.52156863 0.41176471
v 0.01433615 0.00451580 0.02529766 0.94117647 0.52156863 0.41176471
v 0.01325042 0.00361921 0.02529766 0.94117647 0.52156863 0.41176471
v 0.01324455 0.00361451 0.02529766 0.94117647 0.52156863 0.41176471
v 0.01521390 0.00570498 0.01844787 0.94117647 0.52156863 0.41176471
v 0.01519980 0.00566973 0.02529766 0.94117647 0.52156863 0.41176471
v 0.00414979 0.00998697 0.02529766 0.94117647 0.52156863 0.41176471
v 0.00415097 0.00999519 0.02529766 0.94117647 0.52156863 0.41176471
v 0.00415332 0.01000342 0.02529766 0.94117647 0.52156863 0.41176471
v 0.00459513 0.01126428 0.02529766 0.94117647 0.52156863 0.41176471
v 0.00530603 0.01239471 0.02529766 0.94117647 0.52156863 0.41176471
v 0.00531660 0.01240763 0.02529766 0.94117647 0.52156863 0.41176471
v 0.00626133 0.01335240 0.02529766 0.94117647 0.52156863 0.41176471
v 0.00739993 0.01406684 0.02529766 0.94117647 0.52156863 0.41176471
v 0.00866074 0.01450750 0.02529766 0.94117647 0.52156863 0.41176471
v 0.00866897 0.01450985 0.02529766 0.94117647 0.52156863 0.41176471
v 0.00867719 0.01451102 0.02529766 0.94117647 0.52156863 0.41176471
v 0.00999676 0.01465908 0.02529766 0.94117647 0.52156863 0.41176471
v 0.00999911 0.01466026 0.02499993 0.94117647 0.52156863 0.41176471
v 0.01002026 0.01465791 0.01844787 0.94117647 0.52156863 0.41176471
v 0.01072293 0.01461561 0.01844787 0.94117647 0.52156863 0.41176471
v 0.01519628 0.00566268 0.02529766 0.94117647 0.52156863 0.41176471
v 0.01581787 0.00720556 0.01844787 0.94117647 0.52156863 0.41176471
v 0.01581904 0.00721026 0.02529766 0.94117647 0.52156863 0.41176471
v 0.01000851 0.01465908 0.02529766 0.94117647 0.52156863 0.41176471
v 0.01012719 0.01465203 0.02529766 0.94117647 0.52156863 0.41176471
v 0.01072293 0.01461561 0.02529766 0.94117647 0.52156863 0.41176471
v 0.01073350 0.01461326 0.01844787 0.94117647 0.52156863 0.41176471
v 0.01582492 0.00722553 0.01844787 0.94117647 0.52156863 0.41176471
v 0.01582492 0.00722553 0.02529766 0.94117647 0.52156863 0.41176471
v 0.01212709 0.01427013 0.02529766 0.94117647 0.52156863 0.41176471
v 0.01212709 0.01427013 0.01844787 0.94117647 0.52156863 0.41176471
v 0.01600000 0.00865913 0.01844787 0.94117647 0.52156863 0.41176471
v 0.01600000 0.00865913 0.02529766 0.94117647 0.52156863 0.41176471
v 0.01340788 0.01359799 0.02529766 0.94117647 0.52156863 0.41176471
v 0.01340788 0.01359799 0.01844787 0.94117647 0.52156863 0.41176471
v 0.01582492 0.01009508 0.01844787 0.94117647 0.52156863 0.41176471
v 0.01582609 0.01008685 0.02529766 0.94117647 0.52156863 0.41176471
v 0.01341493 0.01359211 0.02529766 0.94117647 0.52156863 0.41176471
v 0.01417635 0.01291762 0.02529766 0.94117647 0.52156863 0.41176471
v 0.01449008 0.01263795 0.01844787 0.94117647 0.52156863 0.41176471
v 0.01563456 0.01059801 0.01844787 0.94117647 0.52156863 0.41176471
v 0.01556524 0.01078250 0.02529766 0.94117647 0.52156863 0.41176471
v 0.01582492 0.01009508 0.02529766 0.94117647 0.52156863 0.41176471
v 0.01449008 0.01263795 0.02529766 0.94117647 0.52156863 0.41176471
v 0.01449596 0.01263090 0.02529766 0.94117647 0.52156863 0.41176471
v 0.01449713 0.01262855 0.01844787 0.94117647 0.52156863 0.41176471
v 0.01531261 0.01144759 0.01844787 0.94117647 0.52156863 0.41176471
v 0.01531261 0.01144759 0.02529766 0.94117647 0.52156863 0.41176471
v 0.01489547 0.01205276 0.02529766 0.94117647 0.52156863 0.41176471
f 709 710 711
f 709 711 712
f 709 712 713
f 709 713 714
f 709 714 715
f 709 715 716
f 709 716 717
f 709 717 718
f 709 718 719
f 709 719 720
f 709 720 721
f 709 721 726
f 709 726 722
f 709 722 727
f 709 727 723
f 709 723 752
f 709 752 724
f 709 724 725
f 709 725 710
f 710 725 766
f 710 766 765
f 710 765 764
f 710 764 763
f 710 763 762
f 710 762 761
f 710 761 760
f 710 760 759
f 710 759 758
f 710 758 757
f 710 757 756
f 710 756 755
f 710 755 754
f 710 754 795
f 710 795 796
f 710 796 803
f 710 803 807
f 710 807 811
f 710 811 816
f 710 816 822
f 710 822 823
f 710 823 817
f 710 817 812
f 710 812 808
f 710 808 804
f 710 804 798
f 710 798 780
f 710 780 735
f 710 735 734
f 710 734 733
f 710 733 732
f 710 732 731
f 710 731 730
f 710 730 729
f 710 729 728
f 710 728 726
f 710 726 721
f 710 721 720
f 710 720 719
f 710 719 718
f 710 718 717
f 710 717 716
f 710 716 715
f 710 715 714
f 710 714 713
f 710 713 712
f 710 712 711
f 722 726 728
f 722 728 729
f 722 729 730
f 722 730 731
f 722 731 732
f 722 732 733
f 722 733 734
f 722 734 735
f 722 735 736
f 722 736 773
f 722 773 727
f 723 727 772
f 723 772 737
f 723 737 738
f 723 738 739
f 723 739 740
f 723 740 741
f 723 741 742
f 723 742 743
f 723 743 744
f 723 744 745
f 723 745 746
f 723 746 747
f 723 747 748
f 723 748 749
f 723 749 750
f 723 750 751
f 723 751 752
f 724 752 794
f 724 794 753
f 724 753 795
f 724 795 754
f 724 754 755
f 724 755 756
f 724 756 757
f 724 757 758
f 724 758 759
f 724 759 760
f 724 760 761
f 724 761 762
f 724 762 763
f 724 763 764
f 724 764 765
f 724 765 766
f 724 766 725
f 727 767 768
f 727 768 769
f 727 769 770
f 727 770 771
f 727 771 772
f 727 773 774
f 727 774 775
f 727 775 776
f 727 776 777
f 727 777 778
f 727 778 779
f 727 779 767
f 735 780 781
f 735 781 797
f 735 797 773
f 735 773 736
f 737 772 771
f 737 771 770
f 737 770 769
f 737 769 768
f 737 768 767
f 737 767 779
f 737 779 778
f 737 778 777
f 737 777 776
f 737 776 775
f 737 775 774
f 737 774 797
f 737 797 781
f 737 781 799
f 737 799 805
f 737 805 809
f 737 809 813
f 737 813 819
f 737 819 818
f 737 818 824
f 737 824 825
f 737 825 821
f 737 821 820
f 737 820 815
f 737 815 814
f 737 814 810
f 737 810 806
f 737 806 802
f 737 802 801
f 737 801 800
f 737 800 793
f 737 793 792
f 737 792 791
f 737 791 790
f 737 790 789
f 737 789 788
f 737 788 787
f 737 787 786
f 737 786 785
f 737 785 784
f 737 784 783
f 737 783 782
f 737 782 751
f 737 751 750
f 737 750 749
f 737 749 748
f 737 748 747
f 737 747 746
f 737 746 745
f 737 745 744
f 737 744 743
f 737 743 742
f 737 742 741
f 737 741 740
f 737 740 739
f 737 739 738
f 751 782 752
f 752 782 783
f 752 783 784
f 752 784 785
f 752 785 786
f 752 786 787
f 752 787 788
f 752 788 789
f 752 789 790
f 752 790 791
f 752 791 792
f 752 792 793
f 752 793 800
f 752 800 794
f 753 794 802
f 753 802 796
f 753 796 795
f 773 797 774
f 780 798 781
f 781 798 799
f 794 800 801
f 794 801 802
f 796 802 803
f 798 804 805
f 798 805 799
f 802 806 803
f 803 806 807
f 804 808 809
f 804 809 805
f 806 810 811
f 806 811 807
f 808 812 813
f 808 813 809
f 810 814 811
f 811 814 815
f 811 815 816
f 812 817 818
f 812 818 819
f 812 819 813
f 815 820 816
f 816 820 821
f 816 821 822
f 817 823 818
f 818 823 824
f 821 825 822
f 822 825 823
f 823 825 824

o geometry_10
v 0.01600000 0.00866057 0.01844720 0.26274510 0.77254902 0.45490196
v 0.01582498 0.00722511 0.01844720 0.26274510 0.77254902 0.45490196
v 0.01600000 0.00866057 -0.03323011 0.26274510 0.77254902 0.45490196
v 0.01582498 0.01009603 0.01844720 0.26274510 0.77254902 0.45490196
v 0.01581793 0.00720637 0.01844720 0.26274510 0.77254902 0.45490196
v 0.01582498 0.00722511 -0.03323011 0.26274510 0.77254902 0.45490196
v 0.01582498 0.01009603 -0.03323011 0.26274510 0.77254902 0.45490196
v 0.01532342 0.01142016 -0.03323011 0.26274510 0.77254902 0.45490196
v 0.01531637 0.01143774 0.01844720 0.26274510 0.77254902 0.45490196
v 0.01519891 0.00566662 0.01844720 0.26274510 0.77254902 0.45490196
v 0.01530815 0.00586582 -0.03323011 0.26274510 0.77254902 0.45490196
v 0.01531167 0.01144829 -0.03323011 0.26274510 0.77254902 0.45490196
v 0.01531167 0.01144829 0.01844720 0.26274510 0.77254902 0.45490196
v 0.01517541 0.00563264 0.01844720 0.26274510 0.77254902 0.45490196
v 0.01451292 0.00471394 -0.03323011 0.26274510 0.77254902 0.45490196
v 0.01449060 0.01263884 -0.03323011 0.26274510 0.77254902 0.45490196
v 0.01500744 0.01189006 0.01844720 0.26274510 0.77254902 0.45490196
v 0.01434612 0.00452528 0.01844720 0.26274510 0.77254902 0.45490196
v 0.01448590 0.00467644 -0.03323011 0.26274510 0.77254902 0.45490196
v 0.01340760 0.01359737 -0.03323011 0.26274510 0.77254902 0.45490196
v 0.01341582 0.01359034 0.01844720 0.26274510 0.77254902 0.45490196
v 0.01449060 0.01263884 0.01844720 0.26274510 0.77254902 0.45490196
v 0.01431558 0.00449833 0.01844720 0.26274510 0.77254902 0.45490196
v 0.01343814 0.00374838 -0.03323011 0.26274510 0.77254902 0.45490196
v 0.01215427 0.01425593 -0.03323011 0.26274510 0.77254902 0.45490196
v 0.01340760 0.01359737 0.01844720 0.26274510 0.77254902 0.45490196
v 0.01324785 0.00361596 0.01844720 0.26274510 0.77254902 0.45490196
v 0.01340290 0.00371908 -0.03323011 0.26274510 0.77254902 0.45490196
v 0.01212725 0.01426999 -0.03323011 0.26274510 0.77254902 0.45490196
v 0.01212725 0.01426999 0.01844720 0.26274510 0.77254902 0.45490196
v 0.01321143 0.00359722 0.01844720 0.26274510 0.77254902 0.45490196
v 0.01216249 0.00306873 -0.03323011 0.26274510 0.77254902 0.45490196
v 0.01075176 0.01460864 -0.03323011 0.26274510 0.77254902 0.45490196
v 0.01073414 0.01461332 0.01844720 0.26274510 0.77254902 0.45490196
v 0.01196633 0.00299257 0.01844720 0.26274510 0.77254902 0.45490196
v 0.01212138 0.00304881 -0.03323011 0.26274510 0.77254902 0.45490196
v 0.01072240 0.01461567 -0.03323011 0.26274510 0.77254902 0.45490196
v 0.01072240 0.01461567 0.01844720 0.26274510 0.77254902 0.45490196
v 0.01192639 0.00298319 0.01844720 0.26274510 0.77254902 0.45490196
v 0.01076233 0.00271368 -0.03323011 0.26274510 0.77254902 0.45490196
v 0.01069890 0.01461684 -0.03323011 0.26274510 0.77254902 0.45490196
v 0.01001997 0.01465902 0.01844720 0.26274510 0.77254902 0.45490196
v 0.01057439 0.00268907 0.01844720 0.26274510 0.77254902 0.45490196
v 0.01071770 0.00270430 -0.03323011 0.26274510 0.77254902 0.45490196
v 0.00930110 0.01461684 -0.03323011 0.26274510 0.77254902 0.45490196
v 0.00998003 0.01465902 0.01844720 0.26274510 0.77254902 0.45490196
v 0.01053328 0.00268907 0.01844720 0.26274510 0.77254902 0.45490196
v 0.00931872 0.00270430 -0.03323011 0.26274510 0.77254902 0.45490196
v 0.00925764 0.01461215 -0.03323011 0.26274510 0.77254902 0.45490196
v 0.00868324 0.01451255 0.01844720 0.26274510 0.77254902 0.45490196
v 0.00915074 0.00272188 0.01844720 0.26274510 0.77254902 0.45490196
v 0.00927291 0.00270547 -0.03323011 0.26274510 0.77254902 0.45490196
v 0.00789859 0.01427702 -0.03323011 0.26274510 0.77254902 0.45490196
v 0.00864330 0.01450200 0.01844720 0.26274510 0.77254902 0.45490196
v 0.00911081 0.00273125 0.01844720 0.26274510 0.77254902 0.45490196
v 0.00791386 0.00304061 -0.03323011 0.26274510 0.77254902 0.45490196
v 0.00785748 0.01426296 -0.03323011 0.26274510 0.77254902 0.45490196
v 0.00741112 0.01407078 0.01844720 0.26274510 0.77254902 0.45490196
v 0.00777408 0.00308983 0.01844720 0.26274510 0.77254902 0.45490196
v 0.00786922 0.00305233 -0.03323011 0.26274510 0.77254902 0.45490196
v 0.00661825 0.01361261 -0.03323011 0.26274510 0.77254902 0.45490196
v 0.00737471 0.01405203 0.01844720 0.26274510 0.77254902 0.45490196
v 0.00773767 0.00310857 0.01844720 0.26274510 0.77254902 0.45490196
v 0.00662999 0.00370268 -0.03323011 0.26274510 0.77254902 0.45490196
v 0.00658183 0.01358917 -0.03323011 0.26274510 0.77254902 0.45490196
v 0.00626938 0.01335715 0.01844720 0.26274510 0.77254902 0.45490196
v 0.00652193 0.00377181 0.01844720 0.26274510 0.77254902 0.45490196
v 0.00659006 0.00372494 -0.03323011 0.26274510 0.77254902 0.45490196
v 0.00553406 0.01266110 -0.03323011 0.26274510 0.77254902 0.45490196
v 0.00623884 0.01333020 0.01844720 0.26274510 0.77254902 0.45490196
v 0.00649139 0.00379877 0.01844720 0.26274510 0.77254902 0.45490196
v 0.00554229 0.00465301 -0.03323011 0.26274510 0.77254902 0.45490196
v 0.00550352 0.01263064 -0.03323011 0.26274510 0.77254902 0.45490196
v 0.00531558 0.01240682 0.01844720 0.26274510 0.77254902 0.45490196
v 0.00546711 0.00473035 0.01844720 0.26274510 0.77254902 0.45490196
v 0.00550822 0.00468348 -0.03323011 0.26274510 0.77254902 0.45490196
v 0.00470830 0.01147875 -0.03323011 0.26274510 0.77254902 0.45490196
v 0.00529209 0.01237401 0.01844720 0.26274510 0.77254902 0.45490196
v 0.00544362 0.00476433 0.01844720 0.26274510 0.77254902 0.45490196
v 0.00471300 0.00583536 -0.03323011 0.26274510 0.77254902 0.45490196
v 0.00468481 0.01144243 -0.03323011 0.26274510 0.77254902 0.45490196
v 0.00459789 0.01126783 0.01844720 0.26274510 0.77254902 0.45490196
v 0.00466836 0.00591035 0.01844720 0.26274510 0.77254902 0.45490196
v 0.00468716 0.00587403 -0.03323011 0.26274510 0.77254902 0.45490196
v 0.00418794 0.01013353 -0.03323011 0.26274510 0.77254902 0.45490196
v 0.00458262 0.01123033 0.01844720 0.26274510 0.77254902 0.45490196
v 0.00465309 0.00594902 0.01844720 0.26274510 0.77254902 0.45490196
v 0.00419029 0.00718293 -0.03323011 0.26274510 0.77254902 0.45490196
v 0.00417385 0.01009251 -0.03323011 0.26274510 0.77254902 0.45490196
v 0.00415153 0.00999760 0.01844720 0.26274510 0.77254902 0.45490196
v 0.00417032 0.00724621 0.01844720 0.26274510 0.77254902 0.45490196
v 0.00417502 0.00722511 -0.03323011 0.26274510 0.77254902 0.45490196
v 0.00400000 0.00866057 -0.03323011 0.26274510 0.77254902 0.45490196
v 0.00414683 0.00995658 0.01844720 0.26274510 0.77254902 0.45490196
v 0.00416445 0.00728605 0.01844720 0.26274510 0.77254902 0.45490196
v 0.00400000 0.00866057 0.01844720 0.26274510 0.77254902 0.45490196
f 826 827 831
f 826 831 828
f 826 828 832
f 826 832 829
f 826 829 834
f 826 834 838
f 826 838 842
f 826 842 847
f 826 847 846
f 826 846 851
f 826 851 855
f 826 855 859
f 826 859 863
f 826 863 867
f 826 867 871
f 826 871 875
f 826 875 879
f 826 879 883
f 826 883 887
f 826 887 891
f 826 891 895
f 826 895 899
f 826 899 903
f 826 903 907
f 826 907 911
f 826 911 915
f 826 915 919
f 826 919 921
f 826 921 920
f 826 920 916
f 826 916 912
f 826 912 908
f 826 908 904
f 826 904 900
f 826 900 896
f 826 896 892
f 826 892 888
f 826 888 884
f 826 884 880
f 826 880 876
f 826 876 872
f 826 872 868
f 826 868 864
f 826 864 860
f 826 860 856
f 826 856 852
f 826 852 848
f 826 848 843
f 826 843 839
f 826 839 835
f 826 835 830
f 826 830 827
f 827 830 831
f 828 831 836
f 828 836 840
f 828 840 844
f 828 844 849
f 828 849 853
f 828 853 857
f 828 857 861
f 828 861 865
f 828 865 869
f 828 869 873
f 828 873 877
f 828 877 881
f 828 881 885
f 828 885 889
f 828 889 893
f 828 893 897
f 828 897 901
f 828 901 905
f 828 905 909
f 828 909 913
f 828 913 917
f 828 917 918
f 828 918 914
f 828 914 910
f 828 910 906
f 828 906 902
f 828 902 898
f 828 898 894
f 828 894 890
f 828 890 886
f 828 886 882
f 828 882 878
f 828 878 874
f 828 874 870
f 828 870 866
f 828 866 862
f 828 862 858
f 828 858 854
f 828 854 850
f 828 850 845
f 828 845 841
f 828 841 837
f 828 837 833
f 828 833 832
f 829 832 833
f 829 833 834
f 830 835 836
f 830 836 831
f 833 837 834
f 834 837 838
f 835 839 840
f 835 840 836
f 837 841 842
f 837 842 838
f 839 843 844
f 839 844 840
f 841 845 846
f 841 846 847
f 841 847 842
f 843 848 849
f 843 849 844
f 845 850 851
f 845 851 846
f 848 852 853
f 848 853 849
f 850 854 855
f 850 855 851
f 852 856 857
f 852 857 853
f 854 858 859
f 854 859 855
f 856 860 857
f 857 860 861
f 858 862 859
f 859 862 863
f 860 864 865
f 860 865 861
f 862 866 867
f 862 867 863
f 864 868 865
f 865 868 869
f 866 870 871
f 866 871 867
f 868 872 873
f 868 873 869
f 870 874 871
f 871 874 875
f 872 876 873
f 873 876 877
f 874 878 875
f 875 878 879
f 876 880 877
f 877 880 881
f 878 882 879
f 879 882 883
f 880 884 885
f 880 885 881
f 882 886 887
f 882 887 883
f 884 888 885
f 885 888 889
f 886 890 891
f 886 891 887
f 888 892 889
f 889 892 893
f 890 894 895
f 890 895 891
f 892 896 893
f 893 896 897
f 894 898 895
f 895 898 899
f 896 900 901
f 896 901 897
f 898 902 903
f 898 903 899
f 900 904 901
f 901 904 905
f 902 906 903
f 903 906 907
f 904 908 905
f 905 908 909
f 906 910 911
f 906 911 907
f 908 912 909
f 909 912 913
f 910 914 915
f 910 915 911
f 912 916 913
f 913 916 917
f 914 918 915
f 915 918 919
f 916 920 917
f 917 920 918
f 918 920 921
f 918 921 919

o geometry_11
v 0.01600000 0.00866087 0.05000000 0.56470588 0.01568627 0.61568627
v 0.01582498 0.01009532 0.05000000 0.56470588 0.01568627 0.61568627
v 0.01582498 0.00722526 0.05000000 0.56470588 0.01568627 0.61568627
v 0.01600000 0.00866087 0.02529766 0.56470588 0.01568627 0.61568627
v 0.01582616 0.01008712 0.02529766 0.56470588 0.01568627 0.61568627
v 0.01582498 0.01009532 0.02529766 0.56470588 0.01568627 0.61568627
v 0.01567580 0.01048909 0.02529766 0.56470588 0.01568627 0.61568627
v 0.01531519 0.01143953 0.02529766 0.56470588 0.01568627 0.61568627
v 0.01531167 0.01144773 0.05000000 0.56470588 0.01568627 0.61568627
v 0.01525411 0.00576620 0.05000000 0.56470588 0.01568627 0.61568627
v 0.01581911 0.00721002 0.02529766 0.56470588 0.01568627 0.61568627
v 0.01582498 0.00722526 0.02529766 0.56470588 0.01568627 0.61568627
v 0.01531167 0.01144773 0.02529766 0.56470588 0.01568627 0.61568627
v 0.01489468 0.01205245 0.02529766 0.56470588 0.01568627 0.61568627
v 0.01449060 0.01263842 0.05000000 0.56470588 0.01568627 0.61568627
v 0.01484299 0.00517203 0.05000000 0.56470588 0.01568627 0.61568627
v 0.01519186 0.00565486 0.02529766 0.56470588 0.01568627 0.61568627
v 0.01519656 0.00566190 0.02529766 0.56470588 0.01568627 0.61568627
v 0.01525176 0.00579901 0.02529766 0.56470588 0.01568627 0.61568627
v 0.01449060 0.01263842 0.02529766 0.56470588 0.01568627 0.61568627
v 0.01340760 0.01359706 0.05000000 0.56470588 0.01568627 0.61568627
v 0.01394088 0.01312594 0.02529766 0.56470588 0.01568627 0.61568627
v 0.01441660 0.00460130 0.05000000 0.56470588 0.01568627 0.61568627
v 0.01434260 0.00452160 0.02529766 0.56470588 0.01568627 0.61568627
v 0.01212725 0.01426975 0.05000000 0.56470588 0.01568627 0.61568627
v 0.01341464 0.01359120 0.02529766 0.56470588 0.01568627 0.61568627
v 0.01340760 0.01359706 0.02529766 0.56470588 0.01568627 0.61568627
v 0.01275803 0.01393926 0.02529766 0.56470588 0.01568627 0.61568627
v 0.01387510 0.00412198 0.05000000 0.56470588 0.01568627 0.61568627
v 0.01433673 0.00451575 0.02529766 0.56470588 0.01568627 0.61568627
v 0.01072240 0.01461547 0.05000000 0.56470588 0.01568627 0.61568627
v 0.01212725 0.01426975 0.02529766 0.56470588 0.01568627 0.61568627
v 0.01073179 0.01461430 0.02529766 0.56470588 0.01568627 0.61568627
v 0.01332537 0.00366844 0.05000000 0.56470588 0.01568627 0.61568627
v 0.01325137 0.00361922 0.02529766 0.56470588 0.01568627 0.61568627
v 0.01036061 0.01463773 0.05000000 0.56470588 0.01568627 0.61568627
v 0.01072240 0.01461547 0.02529766 0.56470588 0.01568627 0.61568627
v 0.01268520 0.00333209 0.05000000 0.56470588 0.01568627 0.61568627
v 0.01323610 0.00360984 0.02529766 0.56470588 0.01568627 0.61568627
v 0.01324432 0.00361453 0.02529766 0.56470588 0.01568627 0.61568627
v 0.00963939 0.01463773 0.05000000 0.56470588 0.01568627 0.61568627
v 0.01012686 0.01465180 0.02529766 0.56470588 0.01568627 0.61568627
v 0.01000822 0.01465883 0.02529766 0.56470588 0.01568627 0.61568627
v 0.01204503 0.00302036 0.05000000 0.56470588 0.01568627 0.61568627
v 0.01196280 0.00299106 0.02529766 0.56470588 0.01568627 0.61568627
v 0.00897103 0.01456273 0.05000000 0.56470588 0.01568627 0.61568627
v 0.00999648 0.01465883 0.02529766 0.56470588 0.01568627 0.61568627
v 0.00867737 0.01451116 0.02529766 0.56470588 0.01568627 0.61568627
v 0.01134260 0.00284808 0.05000000 0.56470588 0.01568627 0.61568627
v 0.01195458 0.00298872 0.02529766 0.56470588 0.01568627 0.61568627
v 0.00826977 0.01438928 0.05000000 0.56470588 0.01568627 0.61568627
v 0.00866915 0.01450999 0.02529766 0.56470588 0.01568627 0.61568627
v 0.01064605 0.00269573 0.05000000 0.56470588 0.01568627 0.61568627
v 0.01057087 0.00268753 0.02529766 0.56470588 0.01568627 0.61568627
v 0.00763547 0.01416779 0.05000000 0.56470588 0.01568627 0.61568627
v 0.00866092 0.01450765 0.02529766 0.56470588 0.01568627 0.61568627
v 0.00992365 0.00269573 0.05000000 0.56470588 0.01568627 0.61568627
v 0.01056265 0.00268753 0.02529766 0.56470588 0.01568627 0.61568627
v 0.00699530 0.01383144 0.05000000 0.56470588 0.01568627 0.61568627
v 0.00740055 0.01406700 0.02529766 0.56470588 0.01568627 0.61568627
v 0.00921183 0.00271331 0.05000000 0.56470588 0.01568627 0.61568627
v 0.00914722 0.00272152 0.02529766 0.56470588 0.01568627 0.61568627
v 0.00642561 0.01347400 0.05000000 0.56470588 0.01568627 0.61568627
v 0.00739233 0.01406231 0.02529766 0.56470588 0.01568627 0.61568627
v 0.00850940 0.00288676 0.05000000 0.56470588 0.01568627 0.61568627
v 0.00782224 0.00307075 0.05000000 0.56470588 0.01568627 0.61568627
v 0.00777995 0.00308833 0.02529766 0.56470588 0.01568627 0.61568627
v 0.00588410 0.01299468 0.05000000 0.56470588 0.01568627 0.61568627
v 0.00626821 0.01335681 0.02529766 0.56470588 0.01568627 0.61568627
v 0.00626116 0.01335212 0.02529766 0.56470588 0.01568627 0.61568627
v 0.00718207 0.00340710 0.05000000 0.56470588 0.01568627 0.61568627
v 0.00776351 0.00309419 0.02529766 0.56470588 0.01568627 0.61568627
v 0.00777173 0.00309067 0.02529766 0.56470588 0.01568627 0.61568627
v 0.00540955 0.01252005 0.05000000 0.56470588 0.01568627 0.61568627
v 0.00625529 0.01334626 0.02529766 0.56470588 0.01568627 0.61568627
v 0.00655599 0.00374813 0.05000000 0.56470588 0.01568627 0.61568627
v 0.00652075 0.00377274 0.02529766 0.56470588 0.01568627 0.61568627
v 0.00499843 0.01192471 0.05000000 0.56470588 0.01568627 0.61568627
v 0.00531676 0.01240755 0.02529766 0.56470588 0.01568627 0.61568627
v 0.00530619 0.01239465 0.02529766 0.56470588 0.01568627 0.61568627
v 0.00601449 0.00422745 0.05000000 0.56470588 0.01568627 0.61568627
v 0.00651370 0.00377860 0.02529766 0.56470588 0.01568627 0.61568627
v 0.00464135 0.01135515 0.05000000 0.56470588 0.01568627 0.61568627
v 0.00459906 0.01127077 0.02529766 0.56470588 0.01568627 0.61568627
v 0.00548825 0.00470677 0.05000000 0.56470588 0.01568627 0.61568627
v 0.00546594 0.00473138 0.02529766 0.56470588 0.01568627 0.61568627
v 0.00438528 0.01067894 0.05000000 0.56470588 0.01568627 0.61568627
v 0.00459554 0.01126374 0.02529766 0.56470588 0.01568627 0.61568627
v 0.00459201 0.01125553 0.02529766 0.56470588 0.01568627 0.61568627
v 0.00507713 0.00530211 0.05000000 0.56470588 0.01568627 0.61568627
v 0.00467776 0.00589160 0.05000000 0.56470588 0.01568627 0.61568627
v 0.00467189 0.00590449 0.02529766 0.56470588 0.01568627 0.61568627
v 0.00416327 0.01004493 0.05000000 0.56470588 0.01568627 0.61568627
v 0.00415388 0.01000274 0.02529766 0.56470588 0.01568627 0.61568627
v 0.00442169 0.00656780 0.05000000 0.56470588 0.01568627 0.61568627
v 0.00466719 0.00591152 0.02529766 0.56470588 0.01568627 0.61568627
v 0.00407635 0.00932770 0.05000000 0.56470588 0.01568627 0.61568627
v 0.00415153 0.00999571 0.02529766 0.56470588 0.01568627 0.61568627
v 0.00415035 0.00998633 0.02529766 0.56470588 0.01568627 0.61568627
v 0.00417267 0.00723580 0.05000000 0.56470588 0.01568627 0.61568627
v 0.00417267 0.00723815 0.02529766 0.56470588 0.01568627 0.61568627
v 0.00400000 0.00866087 0.05000000 0.56470588 0.01568627 0.61568627
v 0.00400000 0.00866087 0.02529766 0.56470588 0.01568627 0.61568627
v 0.00408575 0.00795303 0.05000000 0.56470588 0.01568627 0.61568627
v 0.00416915 0.00725455 0.02529766 0.56470588 0.01568627 0.61568627
v 0.00417032 0.00724635 0.02529766 0.56470588 0.01568627 0.61568627
f 922 923 930
f 922 930 936
f 922 936 942
f 922 942 946
f 922 946 952
f 922 952 957
f 922 957 962
f 922 962 967
f 922 967 972
f 922 972 976
f 922 976 980
f 922 980 984
f 922 984 989
f 922 989 995
f 922 995 999
f 922 999 1004
f 922 1004 1008
f 922 1008 1014
f 922 1014 1018
f 922 1018 1023
f 922 1023 1025
f 922 1025 1021
f 922 1021 1016
f 922 1016 1012
f 922 1012 1011
f 922 1011 1006
f 922 1006 1002
f 922 1002 997
f 922 997 992
f 922 992 987
f 922 987 986
f 922 986 982
f 922 982 978
f 922 978 974
f 922 974 970
f 922 970 965
f 922 965 959
f 922 959 955
f 922 955 950
f 922 950 944
f 922 944 937
f 922 937 931
f 922 931 924
f 922 924 933
f 922 933 925
f 922 925 926
f 922 926 923
f 923 926 927
f 923 927 928
f 923 928 929
f 923 929 930
f 924 931 932
f 924 932 933
f 925 933 932
f 925 932 940
f 925 940 939
f 925 939 938
f 925 938 945
f 925 945 951
f 925 951 956
f 925 956 961
f 925 961 960
f 925 960 966
f 925 966 971
f 925 971 975
f 925 975 979
f 925 979 983
f 925 983 988
f 925 988 994
f 925 994 993
f 925 993 998
f 925 998 1003
f 925 1003 1007
f 925 1007 1013
f 925 1013 1017
f 925 1017 1022
f 925 1022 1027
f 925 1027 1026
f 925 1026 1024
f 925 1024 1020
f 925 1020 1019
f 925 1019 1015
f 925 1015 1010
f 925 1010 1009
f 925 1009 1005
f 925 1005 1001
f 925 1001 1000
f 925 1000 996
f 925 996 991
f 925 991 990
f 925 990 985
f 925 985 981
f 925 981 977
f 925 977 973
f 925 973 969
f 925 969 968
f 925 968 964
f 925 964 963
f 925 963 958
f 925 958 954
f 925 954 953
f 925 953 949
f 925 949 948
f 925 948 947
f 925 947 943
f 925 943 941
f 925 941 935
f 925 935 934
f 925 934 929
f 925 929 928
f 925 928 927
f 925 927 926
f 929 934 930
f 930 934 935
f 930 935 936
f 931 937 938
f 931 938 939
f 931 939 940
f 931 940 932
f 935 941 936
f 936 941 943
f 936 943 942
f 937 944 938
f 938 944 945
f 942 943 947
f 942 947 948
f 942 948 949
f 942 949 946
f 944 950 951
f 944 951 945
f 946 949 953
f 946 953 954
f 946 954 952
f 950 955 956
f 950 956 951
f 952 954 958
f 952 958 957
f 955 959 960
f 955 960 961
f 955 961 956
f 957 958 963
f 957 963 964
f 957 964 968
f 957 968 962
f 959 965 960
f 960 965 966
f 962 968 969
f 962 969 967
f 965 970 971
f 965 971 966
f 967 969 973
f 967 973 972
f 970 974 971
f 971 974 975
f 972 973 977
f 972 977 976
f 974 978 979
f 974 979 975
f 976 977 981
f 976 981 980
f 978 982 983
f 978 983 979
f 980 981 985
f 980 985 984
f 982 986 983
f 983 986 987
f 983 987 988
f 984 985 990
f 984 990 991
f 984 991 989
f 987 992 993
f 987 993 994
f 987 994 988
f 989 991 996
f 989 996 995
f 992 997 993
f 993 997 998
f 995 996 1000
f 995 1000 1001
f 995 1001 999
f 997 1002 1003
f 997 1003 998
f 999 1001 1005
f 999 1005 1004
f 1002 1006 1007
f 1002 1007 1003
f 1004 1005 1009
f 1004 1009 1010
f 1004 1010 1008
f 1006 1011 1007
f 1007 1011 1012
f 1007 1012 1013
f 1008 1010 1014
f 1010 1015 1014
f 1012 1016 1017
f 1012 1017 1013
f 1014 1015 1019
f 1014 1019 1020
f 1014 1020 1018
f 1016 1021 1017
f 1017 1021 1022
f 1018 1020 1023
f 1020 1024 1023
f 1021 1025 1026
f 1021 1026 1027
f 1021 1027 1022
f 1023 1024 1026
f 1023 1026 1025