# https://github.com/mikedh/trimesh
v -0.00525440 -0.01155442 0.05000000
v -0.00547540 -0.01108048 0.05000000
v -0.00484355 -0.01214961 0.05000000
v -0.00449100 -0.01263898 0.05000000
v -0.00573185 -0.01040426 0.05000000
v -0.00586720 -0.00989914 0.05000000
v -0.00595440 -0.00918120 0.05000000
v -0.00600000 -0.00866025 0.05000000
v -0.00591280 -0.00794230 0.05000000
v -0.00340830 -0.01359816 0.05000000
v -0.00212760 -0.01427035 0.05000000
v -0.00072320 -0.01461651 0.05000000
v -0.00582365 -0.00721654 0.05000000
v -0.00556720 -0.00654032 0.05000000
v -0.00530515 -0.00585767 0.05000000
v -0.00489430 -0.00526247 0.05000000
v -0.00447490 -0.00466348 0.05000000
v -0.00393355 -0.00418391 0.05000000
v -0.00338170 -0.00370418 0.05000000
v -0.00274135 -0.00336809 0.05000000
v -0.00208985 -0.00303612 0.05000000
v -0.00138765 -0.00286304 0.05000000
v -0.00067515 -0.00269855 0.05000000
v -0.00531270 -0.01144859 0.07500000
v -0.00449100 -0.01263898 0.07500000
v -0.00582560 -0.01009615 0.07500000
v -0.00600000 -0.00866025 0.07500000
v -0.00340830 -0.01359816 0.07500000
v -0.00212760 -0.01427035 0.07500000
v -0.00072320 -0.01461651 0.07500000
v -0.00582560 -0.00722436 0.07500000
v -0.00531270 -0.00587191 0.07500000
v -0.00449100 -0.00468151 0.07500000
v -0.00340830 -0.00372235 0.07500000
v -0.00212760 -0.00305015 0.07500000
v -0.00072320 -0.00270399 0.07500000
v -0.01328345 0.00364066 0.05000000
v -0.01264310 0.00330456 0.05000000
v -0.01484355 0.00517089 0.05000000
v -0.01439920 0.00458249 0.05000000
v -0.01525440 0.00576609 0.05000000
v -0.01551085 0.00644231 0.05000000
v -0.01582560 0.00722437 0.05000000
v -0.01385785 0.00410291 0.05000000
v -0.01197325 0.00299638 0.05000000
v -0.01127105 0.00282331 0.05000000
v -0.01054625 0.00268782 0.05000000
v -0.00982300 0.00268782 0.05000000
v -0.00908710 0.00273322 0.05000000
v -0.00838490 0.00290629 0.05000000
v -0.01600000 0.00866026 0.05000000
v -0.01582560 0.01009615 0.05000000
v -0.01531270 0.01144860 0.05000000
v -0.01449100 0.01263900 0.05000000
v -0.01340830 0.01359816 0.05000000
v -0.01212760 0.01427036 0.05000000
v -0.01072320 0.01461651 0.05000000
v -0.01036160 0.01463838 0.05000000
v -0.00963835 0.01463838 0.05000000
v -0.00890660 0.01454777 0.05000000
v -0.00820440 0.01437470 0.05000000
v -0.00768225 0.00312981 0.05000000
v -0.00704190 0.00346591 0.05000000
v -0.00641500 0.00385407 0.05000000
v -0.00587365 0.00433365 0.05000000
v -0.00536040 0.00486299 0.05000000
v -0.00494955 0.00545818 0.05000000
v -0.00458085 0.00609673 0.05000000
v -0.00432440 0.00677295 0.05000000
v -0.00412265 0.00748214 0.05000000
v -0.00403550 0.00820008 0.05000000
v -0.00401280 0.00893707 0.05000000
v -0.00409995 0.00965501 0.05000000
v -0.00425765 0.01037527 0.05000000
v -0.00751685 0.01410834 0.05000000
v -0.00627470 0.01334623 0.05000000
v -0.00687650 0.01377225 0.05000000
v -0.00525360 0.01230672 0.05000000
v -0.00451410 0.01105149 0.05000000
v -0.00484275 0.01171153 0.05000000
v -0.00573335 0.01286666 0.05000000
v -0.01212760 0.00305016 0.07500000
v -0.01449100 0.00468152 0.07500000
v -0.01531270 0.00587192 0.07500000
v -0.01582560 0.00722437 0.07500000
v -0.01340830 0.00372236 0.07500000
v -0.01072320 0.00270401 0.07500000
v -0.00927670 0.00270401 0.07500000
v -0.01600000 0.00866026 0.07500000
v -0.01582560 0.01009615 0.07500000
v -0.01531270 0.01144860 0.07500000
v -0.01449100 0.01263900 0.07500000
v -0.01340830 0.01359816 0.07500000
v -0.01212760 0.01427036 0.07500000
v -0.01072320 0.01461651 0.07500000
v -0.00927670 0.01461651 0.07500000
v -0.00787230 0.00305016 0.07500000
v -0.00659160 0.00372236 0.07500000
v -0.00550890 0.00468152 0.07500000
v -0.00468720 0.00587192 0.07500000
v -0.00417430 0.00722437 0.07500000
v -0.00417430 0.01009615 0.07500000
v -0.00787230 0.01427036 0.07500000
v -0.00659160 0.01359816 0.07500000
v -0.00550890 0.01263900 0.07500000
v -0.00468720 0.01144860 0.07500000
v -0.00400000 0.00866026 0.07500000
v 0.00072330 -0.01461651 0.05000000
v 0.00212770 -0.01427035 0.05000000
v 0.00340840 -0.01359816 0.05000000
v 0.00449110 -0.01263898 0.05000000
v 0.00484365 -0.01214961 0.05000000
v 0.00525450 -0.01155442 0.05000000
v 0.00554020 -0.01088133 0.05000000
v 0.00579665 -0.01020511 0.05000000
v 0.00591105 -0.00948290 0.05000000
v 0.00599820 -0.00876495 0.05000000
v 0.00593445 -0.00803651 0.05000000
v 0.00584730 -0.00731857 0.05000000
v 0.00346760 -0.00376425 0.05000000
v 0.00004810 -0.00269855 0.05000000
v 0.00077920 -0.00271132 0.05000000
v 0.00148140 -0.00288439 0.05000000
v 0.00218770 -0.00307365 0.05000000
v 0.00282805 -0.00340975 0.05000000
v 0.00560925 -0.00662719 0.05000000
v 0.00535280 -0.00595096 0.05000000
v 0.00495455 -0.00533772 0.05000000
v 0.00454370 -0.00474252 0.05000000
v 0.00400895 -0.00424383 0.05000000
v 0.00072330 -0.01461651 0.07500000
v 0.00212770 -0.01427035 0.07500000
v 0.00340840 -0.01359816 0.07500000
v 0.00449110 -0.01263898 0.07500000
v 0.00531280 -0.01144859 0.07500000
v 0.00582570 -0.01009615 0.07500000
v 0.00600000 -0.00866025 0.07500000
v 0.00340840 -0.00372235 0.07500000
v 0.00072330 -0.00270399 0.07500000
v 0.00212770 -0.00305015 0.07500000
v 0.00582570 -0.00722436 0.07500000
v 0.00531280 -0.00587191 0.07500000
v 0.00449110 -0.00468151 0.07500000
v 0.00718090 0.00340620 0.05000000
v 0.00782125 0.00307011 0.05000000
v 0.00548725 0.00470631 0.05000000
v 0.00507640 0.00530151 0.05000000
v 0.00467715 0.00589141 0.05000000
v 0.00442070 0.00656763 0.05000000
v 0.00417180 0.00723504 0.05000000
v 0.00601435 0.00422716 0.05000000
v 0.00655570 0.00374758 0.05000000
v 0.00408460 0.00795298 0.05000000
v 0.00400000 0.00866026 0.05000000
v 0.00407525 0.00932783 0.05000000
v 0.00416245 0.01004577 0.05000000
v 0.00438430 0.01067986 0.05000000
v 0.00464075 0.01135608 0.05000000
v 0.00499820 0.01192490 0.05000000
v 0.00540905 0.01252010 0.05000000
v 0.00588405 0.01299513 0.05000000
v 0.00642540 0.01347470 0.05000000
v 0.00699420 0.01383212 0.05000000
v 0.00763455 0.01416821 0.05000000
v 0.00850930 0.00288574 0.05000000
v 0.00921150 0.00271267 0.05000000
v 0.00992360 0.00269572 0.05000000
v 0.01064685 0.00269572 0.05000000
v 0.01134285 0.00284713 0.05000000
v 0.01204505 0.00302020 0.05000000
v 0.01268580 0.00333145 0.05000000
v 0.01332615 0.00366755 0.05000000
v 0.01387540 0.00412107 0.05000000
v 0.01441675 0.00460065 0.05000000
v 0.01484365 0.00517089 0.05000000
v 0.01525450 0.00576609 0.05000000
v 0.01551095 0.00644231 0.05000000
v 0.01582570 0.00722437 0.05000000
v 0.00826865 0.01439010 0.05000000
v 0.00897085 0.01456317 0.05000000
v 0.00963840 0.01463838 0.05000000
v 0.01036165 0.01463838 0.05000000
v 0.01072330 0.01461651 0.05000000
v 0.01600000 0.00866026 0.05000000
v 0.01582570 0.01009615 0.05000000
v 0.01212770 0.01427036 0.05000000
v 0.01340840 0.01359816 0.05000000
v 0.01449110 0.01263900 0.05000000
v 0.01531280 0.01144860 0.05000000
v 0.00787240 0.00305016 0.07500000
v 0.00550900 0.00468152 0.07500000
v 0.00468730 0.00587192 0.07500000
v 0.00417440 0.00722437 0.07500000
v 0.00659170 0.00372236 0.07500000
v 0.00400000 0.00866026 0.07500000
v 0.00417440 0.01009615 0.07500000
v 0.00468730 0.01144860 0.07500000
v 0.00550900 0.01263900 0.07500000
v 0.00659170 0.01359816 0.07500000
v 0.00787240 0.01427036 0.07500000
v 0.00927680 0.00270401 0.07500000
v 0.01072330 0.00270401 0.07500000
v 0.01212770 0.00305016 0.07500000
v 0.01340840 0.00372236 0.07500000
v 0.01449110 0.00468152 0.07500000
v 0.01531280 0.00587192 0.07500000
v 0.01582570 0.00722437 0.07500000
v 0.00927680 0.01461651 0.07500000
v 0.01072330 0.01461651 0.07500000
v 0.01600000 0.00866026 0.07500000
v 0.01582570 0.01009615 0.07500000
v 0.01212770 0.01427036 0.07500000
v 0.01340840 0.01359816 0.07500000
v 0.01449110 0.01263900 0.07500000
v 0.01531280 0.01144860 0.07500000
f 25 4 10
f 24 1 3
f 24 2 1
f 25 3 4
f 26 5 2
f 26 6 5
f 26 7 6
f 27 8 7
f 27 9 8
f 31 13 9
f 28 10 11
f 29 11 12
f 30 12 108
f 31 14 13
f 32 15 14
f 32 16 15
f 33 17 16
f 33 18 17
f 34 19 18
f 34 20 19
f 35 21 20
f 35 22 21
f 36 23 22
f 36 121 23
f 24 3 25
f 24 26 2
f 26 27 7
f 27 31 9
f 25 10 28
f 29 28 11
f 29 12 30
f 24 25 28
f 24 28 26
f 26 31 27
f 29 30 28
f 30 133 28
f 26 143 31
f 26 28 143
f 31 32 14
f 32 33 16
f 33 34 18
f 34 35 20
f 35 36 22
f 31 34 32
f 32 34 33
f 31 143 34
f 34 36 35
f 86 37 38
f 82 38 45
f 83 40 44
f 83 39 40
f 84 41 39
f 84 42 41
f 85 43 42
f 86 44 37
f 82 45 46
f 87 46 47
f 87 47 48
f 88 48 49
f 88 49 50
f 89 51 43
f 90 52 51
f 91 53 52
f 92 54 53
f 93 55 54
f 94 56 55
f 95 57 56
f 95 58 57
f 95 59 58
f 96 60 59
f 103 61 60
f 97 50 62
f 97 62 63
f 98 63 64
f 98 64 65
f 99 65 66
f 99 66 67
f 100 67 68
f 100 68 69
f 101 69 70
f 101 70 71
f 107 71 72
f 107 72 73
f 102 73 74
f 102 74 79
f 103 75 61
f 104 76 77
f 104 77 75
f 105 78 81
f 106 79 80
f 106 80 78
f 105 81 76
f 86 38 82
f 84 39 83
f 84 85 42
f 86 83 44
f 82 46 87
f 87 48 88
f 88 50 97
f 86 82 87
f 84 83 86
f 84 86 85
f 86 87 98
f 87 88 98
f 86 98 100
f 85 89 43
f 89 90 51
f 90 91 52
f 91 92 53
f 92 93 54
f 93 94 55
f 94 95 56
f 95 96 59
f 96 103 60
f 85 90 89
f 85 105 90
f 90 93 91
f 91 93 92
f 93 95 94
f 85 86 105
f 90 105 93
f 93 105 95
f 95 103 96
f 95 105 103
f 97 63 98
f 98 65 99
f 99 67 100
f 100 69 101
f 88 97 98
f 86 100 107
f 98 99 100
f 100 101 107
f 101 71 107
f 107 73 102
f 102 79 106
f 104 75 103
f 104 105 76
f 105 106 78
f 86 107 102
f 86 102 105
f 104 103 105
f 105 102 106
f 131 108 109
f 132 109 110
f 133 110 111
f 134 111 112
f 135 112 113
f 135 113 114
f 136 114 115
f 136 115 116
f 137 116 117
f 137 117 118
f 141 118 119
f 138 130 120
f 139 123 122
f 139 122 121
f 140 124 123
f 140 125 124
f 138 120 125
f 141 119 126
f 142 126 127
f 142 127 128
f 143 128 129
f 143 129 130
f 30 108 131
f 131 109 132
f 132 110 133
f 133 111 134
f 134 112 135
f 135 114 136
f 136 116 137
f 137 118 141
f 30 131 133
f 28 133 135
f 131 132 133
f 28 135 137
f 28 137 141
f 28 141 143
f 133 134 135
f 135 136 137
f 143 130 138
f 36 139 121
f 139 140 123
f 140 138 125
f 141 126 142
f 143 142 128
f 34 143 36
f 143 138 140
f 36 140 139
f 36 143 140
f 143 141 142
f 194 152 144
f 190 144 145
f 191 146 151
f 191 147 146
f 192 148 147
f 192 149 148
f 193 150 149
f 194 151 152
f 193 153 150
f 195 154 153
f 195 155 154
f 196 156 155
f 196 157 156
f 197 158 157
f 197 159 158
f 198 160 159
f 198 161 160
f 199 162 161
f 199 163 162
f 200 164 163
f 200 179 164
f 190 145 165
f 201 165 166
f 201 166 167
f 202 167 168
f 202 168 169
f 203 169 170
f 203 170 171
f 204 171 172
f 204 172 173
f 205 173 174
f 205 174 175
f 206 175 176
f 206 176 177
f 207 177 178
f 208 180 179
f 208 181 180
f 208 182 181
f 209 183 182
f 212 186 183
f 207 178 184
f 210 184 185
f 211 185 189
f 213 187 186
f 215 189 188
f 214 188 187
f 194 144 190
f 192 147 191
f 192 193 149
f 194 191 151
f 194 190 201
f 192 191 194
f 192 194 193
f 193 195 153
f 195 196 155
f 196 197 157
f 197 198 159
f 198 199 161
f 199 200 163
f 193 196 195
f 193 214 196
f 196 199 197
f 197 199 198
f 199 208 200
f 190 165 201
f 201 167 202
f 202 169 203
f 203 171 204
f 204 173 205
f 205 175 206
f 206 177 207
f 194 201 204
f 201 202 204
f 194 204 206
f 202 203 204
f 194 206 210
f 204 205 206
f 206 207 210
f 200 208 179
f 208 209 182
f 209 212 183
f 207 184 210
f 210 185 211
f 213 186 212
f 213 214 187
f 214 215 188
f 211 189 215
f 193 194 214
f 196 214 199
f 199 214 208
f 208 212 209
f 208 214 212
f 194 210 211
f 194 211 214
f 213 212 214
f 214 211 215
f 11 10 108
f 11 108 12
f 10 109 108
f 1 130 3
f 1 2 130
f 5 130 2
f 5 6 130
f 6 7 130
f 7 8 130
f 10 4 130
f 4 3 130
f 9 130 8
f 9 13 120
f 14 120 13
f 16 17 121
f 18 19 20
f 14 15 124
f 15 16 124
f 18 121 17
f 14 124 125
f 16 123 124
f 18 20 23
f 20 21 22
f 18 23 121
f 20 22 23
f 16 121 122
f 16 122 123
f 40 39 53
f 44 40 54
f 45 38 54
f 37 44 54
f 37 54 38
f 45 54 46
f 47 46 54
f 47 54 48
f 48 54 49
f 54 50 49
f 54 62 50
f 54 63 62
f 54 64 63
f 54 65 64
f 54 66 65
f 42 43 51
f 42 52 41
f 41 53 39
f 42 51 52
f 41 52 53
f 40 53 54
f 54 55 67
f 54 67 66
f 56 59 55
f 56 57 58
f 55 59 60
f 56 58 59
f 55 60 61
f 55 61 75
f 55 75 77
f 55 77 76
f 55 81 78
f 55 76 81
f 55 68 67
f 55 69 68
f 55 70 69
f 55 71 70
f 55 72 71
f 55 73 72
f 55 74 73
f 55 79 74
f 55 80 79
f 55 78 80
f 10 110 109
f 10 111 110
f 10 112 111
f 10 113 112
f 10 114 113
f 10 115 114
f 10 116 115
f 10 130 129
f 10 117 116
f 10 118 117
f 10 119 118
f 10 126 119
f 10 128 127
f 10 127 126
f 10 129 128
f 14 125 120
f 9 120 130
f 149 188 148
f 149 150 188
f 153 188 150
f 153 154 188
f 155 188 154
f 155 156 188
f 156 157 188
f 158 188 157
f 151 146 188
f 144 188 145
f 144 152 188
f 151 188 152
f 165 145 188
f 165 188 166
f 166 188 167
f 167 188 168
f 169 168 188
f 169 188 170
f 171 170 188
f 171 188 172
f 173 172 188
f 173 188 174
f 175 177 176
f 147 188 146
f 147 148 188
f 158 159 188
f 160 188 159
f 160 161 188
f 162 188 161
f 162 163 188
f 163 164 188
f 164 179 188
f 180 187 179
f 181 187 180
f 181 182 186
f 183 186 182
f 181 186 187
f 174 188 175
f 175 188 177
f 178 177 188
f 184 178 188
f 185 184 188
f 179 187 188
f 185 188 189