# https://github.com/mikedh/trimesh
v -0.01912130 -0.00253893 -0.07500000
v -0.01949440 -0.00208432 -0.07500000
v -0.01977160 -0.00156566 -0.07500000
v -0.01994230 -0.00100288 -0.07500000
v -0.02000000 -0.00041761 -0.07500000
v -0.01912130 -0.00253893 -0.03500000
v -0.01949440 -0.00208432 -0.03500000
v -0.01977160 -0.00156566 -0.03500000
v -0.01994230 -0.00100288 -0.03500000
v -0.02000000 -0.00041761 -0.03500000
v -0.00387860 -0.01778157 -0.07500000
v -0.00342400 -0.01815467 -0.07500000
v -0.00290540 -0.01843189 -0.07500000
v -0.00234260 -0.01860260 -0.07500000
v -0.00175730 -0.01866026 -0.07500000
v -0.00531270 -0.01144859 -0.03500000
v -0.00582560 -0.01009615 -0.03500000
v -0.00387860 -0.01778157 -0.03500000
v -0.00342400 -0.01815467 -0.03500000
v -0.00290540 -0.01843189 -0.03500000
v -0.00234260 -0.01860260 -0.03500000
v -0.00175730 -0.01866026 -0.03500000
v -0.00212760 -0.01427035 -0.03500000
v -0.00072320 -0.01461651 -0.03500000
v -0.00449100 -0.01263898 -0.03500000
v -0.00340830 -0.01359816 -0.03500000
v -0.00600000 -0.00866025 -0.03500000
v -0.00582560 -0.00722436 -0.03500000
v -0.00531270 -0.00587191 -0.03500000
v -0.00449100 -0.00468151 -0.03500000
v -0.00340830 -0.00372235 -0.03500000
v -0.00212760 -0.00305015 -0.03500000
v -0.00072320 -0.00270399 -0.03500000
v -0.00563810 -0.01071237 0.02000000
v -0.00519610 -0.01166025 0.02000000
v -0.00563810 -0.01071237 0.02500000
v -0.00519610 -0.01166025 0.02500000
v -0.00590880 -0.00970214 0.02000000
v -0.00590880 -0.00970214 0.02500000
v -0.00547540 -0.01108048 0.05000000
v -0.00525440 -0.01155442 0.05000000
v -0.00573185 -0.01040426 0.05000000
v -0.00586720 -0.00989914 0.05000000
v -0.00212760 -0.01427035 0.05000000
v -0.00072320 -0.01461651 0.05000000
v -0.00449100 -0.01263898 0.05000000
v -0.00484355 -0.01214961 0.05000000
v -0.00340830 -0.01359816 0.05000000
v -0.00600000 -0.00866025 0.02000000
v -0.00600000 -0.00866025 0.02500000
v -0.00582170 -0.00720872 0.02000000
v -0.00582170 -0.00720872 0.02500000
v -0.00529760 -0.00584342 0.02000000
v -0.00529760 -0.00584342 0.02500000
v -0.00595440 -0.00918120 0.05000000
v -0.00600000 -0.00866025 0.05000000
v -0.00591280 -0.00794230 0.05000000
v -0.00582365 -0.00721654 0.05000000
v -0.00556720 -0.00654032 0.05000000
v -0.00530515 -0.00585767 0.05000000
v -0.00489430 -0.00526247 0.05000000
v -0.00445880 -0.00464546 0.02000000
v -0.00445880 -0.00464546 0.02500000
v -0.00335510 -0.00368602 0.02000000
v -0.00335510 -0.00368602 0.02500000
v -0.00205210 -0.00302209 0.02000000
v -0.00205210 -0.00302209 0.02500000
v -0.00062710 -0.00269312 0.02000000
v -0.00062710 -0.00269312 0.02500000
v -0.00447490 -0.00466348 0.05000000
v -0.00393355 -0.00418391 0.05000000
v -0.00338170 -0.00370418 0.05000000
v -0.00274135 -0.00336809 0.05000000
v -0.00208985 -0.00303612 0.05000000
v -0.00138765 -0.00286304 0.05000000
v -0.00067515 -0.00269855 0.05000000
v -0.01531270 0.00587192 -0.03500000
v -0.01582560 0.00722437 -0.03500000
v -0.01600000 0.00866026 -0.03500000
v -0.01340830 0.00372236 -0.03500000
v -0.01212760 0.00305016 -0.03500000
v -0.01072320 0.00270401 -0.03500000
v -0.01449100 0.00468152 -0.03500000
v -0.02000000 0.01566026 -0.07500000
v -0.01992470 0.01632782 -0.07500000
v -0.01970290 0.01696191 -0.07500000
v -0.01934550 0.01753073 -0.07500000
v -0.01887040 0.01800575 -0.07500000
v -0.01830160 0.01836317 -0.07500000
v -0.01766750 0.01858504 -0.07500000
v -0.01700000 0.01866026 -0.07500000
v -0.01582560 0.01009615 -0.03500000
v -0.01531270 0.01144860 -0.03500000
v -0.02000000 0.01566026 -0.03500000
v -0.01992470 0.01632782 -0.03500000
v -0.01970290 0.01696191 -0.03500000
v -0.01934550 0.01753073 -0.03500000
v -0.01887040 0.01800575 -0.03500000
v -0.01830160 0.01836317 -0.03500000
v -0.01766750 0.01858504 -0.03500000
v -0.01700000 0.01866026 -0.03500000
v -0.01449100 0.01263900 -0.03500000
v -0.01340830 0.01359816 -0.03500000
v -0.01212760 0.01427036 -0.03500000
v -0.01072320 0.01461651 -0.03500000
v -0.00927670 0.00270401 -0.03500000
v -0.00787230 0.00305016 -0.03500000
v -0.00659160 0.00372236 -0.03500000
v -0.00550890 0.00468152 -0.03500000
v -0.00468720 0.00587192 -0.03500000
v -0.00417430 0.00722437 -0.03500000
v -0.00400000 0.00866026 -0.03500000
v -0.00659160 0.01359816 -0.03500000
v -0.00550890 0.01263900 -0.03500000
v -0.00927670 0.01461651 -0.03500000
v -0.00787230 0.01427036 -0.03500000
v -0.00417430 0.01009615 -0.03500000
v -0.00468720 0.01144860 -0.03500000
v -0.01519610 0.00566026 0.02000000
v -0.01519610 0.00566026 0.02500000
v -0.01525440 0.00576609 0.05000000
v -0.01551085 0.00644231 0.05000000
v -0.01582560 0.00722437 0.05000000
v -0.01600000 0.00866026 0.05000000
v -0.01430740 0.00448346 0.02000000
v -0.01430740 0.00448346 0.02500000
v -0.01315860 0.00355896 0.02000000
v -0.01315860 0.00355896 0.02500000
v -0.01181890 0.00294261 0.02000000
v -0.01181890 0.00294261 0.02500000
v -0.01036930 0.00267164 0.02000000
v -0.01036930 0.00267164 0.02500000
v -0.01439920 0.00458249 0.05000000
v -0.01385785 0.00410291 0.05000000
v -0.01264310 0.00330456 0.05000000
v -0.01328345 0.00364066 0.05000000
v -0.01197325 0.00299638 0.05000000
v -0.01127105 0.00282331 0.05000000
v -0.01054625 0.00268782 0.05000000
v -0.01484355 0.00517089 0.05000000
v -0.01582560 0.01009615 0.05000000
v -0.01531270 0.01144860 0.05000000
v -0.01449100 0.01263900 0.05000000
v -0.01340830 0.01359816 0.05000000
v -0.01212760 0.01427036 0.05000000
v -0.01072320 0.01461651 0.05000000
v -0.01036160 0.01463838 0.05000000
v -0.00889750 0.00276242 0.02000000
v -0.00889750 0.00276242 0.02500000
v -0.00749220 0.00320947 0.02000000
v -0.00749220 0.00320947 0.02500000
v -0.00623840 0.00398578 0.02000000
v -0.00623840 0.00398578 0.02500000
v -0.00982300 0.00268782 0.05000000
v -0.00908710 0.00273322 0.05000000
v -0.00838490 0.00290629 0.05000000
v -0.00768225 0.00312981 0.05000000
v -0.00704190 0.00346591 0.05000000
v -0.00641500 0.00385407 0.05000000
v -0.00587365 0.00433365 0.05000000
v -0.00521190 0.00504445 0.02000000
v -0.00521190 0.00504445 0.02500000
v -0.00536040 0.00486299 0.05000000
v -0.00447450 0.00632154 0.02000000
v -0.00447450 0.00632154 0.02500000
v -0.00407100 0.00773991 0.02000000
v -0.00407100 0.00773991 0.02500000
v -0.00402560 0.00921387 0.02000000
v -0.00402560 0.00921387 0.02500000
v -0.00494955 0.00545818 0.05000000
v -0.00458085 0.00609673 0.05000000
v -0.00432440 0.00677295 0.05000000
v -0.00412265 0.00748214 0.05000000
v -0.00403550 0.00820008 0.05000000
v -0.00401280 0.00893707 0.05000000
v -0.00716140 0.01394633 0.02000000
v -0.00716140 0.01394633 0.02500000
v -0.00595780 0.01309431 0.02000000
v -0.00595780 0.01309431 0.02500000
v -0.00687650 0.01377225 0.05000000
v -0.00627470 0.01334623 0.05000000
v -0.00525360 0.01230672 0.05000000
v -0.00573335 0.01286666 0.05000000
v -0.01000000 0.01466026 0.02000000
v -0.01000000 0.01466026 0.02500000
v -0.00853650 0.01447904 0.02000000
v -0.00853650 0.01447904 0.02500000
v -0.00963835 0.01463838 0.05000000
v -0.00890660 0.01454777 0.05000000
v -0.00820440 0.01437470 0.05000000
v -0.00751685 0.01410834 0.05000000
v -0.00434100 0.01065439 0.02000000
v -0.00434100 0.01065439 0.02500000
v -0.00499830 0.01197445 0.02000000
v -0.00499830 0.01197445 0.02500000
v -0.00409995 0.00965501 0.05000000
v -0.00425765 0.01037527 0.05000000
v -0.00451410 0.01105149 0.05000000
v -0.00484275 0.01171153 0.05000000
v 0.00175740 -0.01866026 -0.07500000
v 0.00234270 -0.01860260 -0.07500000
v 0.00290540 -0.01843189 -0.07500000
v 0.00342410 -0.01815467 -0.07500000
v 0.00387870 -0.01778157 -0.07500000
v 0.00175740 -0.01866026 -0.03500000
v 0.00234270 -0.01860260 -0.03500000
v 0.00072330 -0.01461651 -0.03500000
v 0.00212770 -0.01427035 -0.03500000
v 0.00290540 -0.01843189 -0.03500000
v 0.00342410 -0.01815467 -0.03500000
v 0.00387870 -0.01778157 -0.03500000
v 0.00340840 -0.01359816 -0.03500000
v 0.00449110 -0.01263898 -0.03500000
v 0.00531280 -0.01144859 -0.03500000
v 0.00582570 -0.01009615 -0.03500000
v 0.00449110 -0.00468151 -0.03500000
v 0.00072330 -0.00270399 -0.03500000
v 0.00212770 -0.00305015 -0.03500000
v 0.00340840 -0.00372235 -0.03500000
v 0.00600000 -0.00866025 -0.03500000
v 0.00582570 -0.00722436 -0.03500000
v 0.00531280 -0.00587191 -0.03500000
v 0.01912140 -0.00253893 -0.07500000
v 0.01949440 -0.00208432 -0.07500000
v 0.01977170 -0.00156566 -0.07500000
v 0.01994240 -0.00100288 -0.07500000
v 0.02000000 -0.00041761 -0.07500000
v 0.01912140 -0.00253893 -0.03500000
v 0.01949440 -0.00208432 -0.03500000
v 0.01977170 -0.00156566 -0.03500000
v 0.01994240 -0.00100288 -0.03500000
v 0.02000000 -0.00041761 -0.03500000
v 0.00072330 -0.01461651 0.05000000
v 0.00212770 -0.01427035 0.05000000
v 0.00340840 -0.01359816 0.05000000
v 0.00449110 -0.01263898 0.05000000
v 0.00484365 -0.01214961 0.05000000
v 0.00519620 -0.01166025 0.02000000
v 0.00519620 -0.01166025 0.02500000
v 0.00576760 -0.01031407 0.02000000
v 0.00576760 -0.01031407 0.02500000
v 0.00525450 -0.01155442 0.05000000
v 0.00554020 -0.01088133 0.05000000
v 0.00579665 -0.01020511 0.05000000
v 0.00591105 -0.00948290 0.05000000
v 0.00459630 -0.00480352 0.02000000
v 0.00459630 -0.00480352 0.02500000
v 0.00495455 -0.00533772 0.05000000
v 0.00454370 -0.00474252 0.05000000
v 0.00083510 -0.00271864 0.02000000
v 0.00083510 -0.00271864 0.02500000
v 0.00224770 -0.00309715 0.02000000
v 0.00224770 -0.00309715 0.02500000
v 0.00352680 -0.00380615 0.02000000
v 0.00352680 -0.00380615 0.02500000
v 0.00004810 -0.00269855 0.05000000
v 0.00077920 -0.00271132 0.05000000
v 0.00148140 -0.00288439 0.05000000
v 0.00218770 -0.00307365 0.05000000
v 0.00346760 -0.00376425 0.05000000
v 0.00282805 -0.00340975 0.05000000
v 0.00400895 -0.00424383 0.05000000
v 0.00599640 -0.00886965 0.02000000
v 0.00599640 -0.00886965 0.02500000
v 0.00586890 -0.00741278 0.02000000
v 0.00586890 -0.00741278 0.02500000
v 0.00539280 -0.00603002 0.02000000
v 0.00539280 -0.00603002 0.02500000
v 0.00599820 -0.00876495 0.05000000
v 0.00593445 -0.00803651 0.05000000
v 0.00584730 -0.00731857 0.05000000
v 0.00560925 -0.00662719 0.05000000
v 0.00535280 -0.00595096 0.05000000
v 0.00468730 0.00587192 -0.03500000
v 0.00417440 0.00722437 -0.03500000
v 0.00400000 0.00866026 -0.03500000
v 0.00659170 0.00372236 -0.03500000
v 0.00787240 0.00305016 -0.03500000
v 0.00927680 0.00270401 -0.03500000
v 0.00550900 0.00468152 -0.03500000
v 0.00417440 0.01009615 -0.03500000
v 0.00468730 0.01144860 -0.03500000
v 0.00550900 0.01263900 -0.03500000
v 0.00659170 0.01359816 -0.03500000
v 0.00787240 0.01427036 -0.03500000
v 0.00927680 0.01461651 -0.03500000
v 0.01072330 0.00270401 -0.03500000
v 0.01212770 0.00305016 -0.03500000
v 0.01340840 0.00372236 -0.03500000
v 0.01449110 0.00468152 -0.03500000
v 0.01531280 0.00587192 -0.03500000
v 0.01582570 0.00722437 -0.03500000
v 0.01600000 0.00866026 -0.03500000
v 0.01700000 0.01866026 -0.07500000
v 0.02000000 0.01566026 -0.07500000
v 0.01766760 0.01858504 -0.07500000
v 0.01830170 0.01836317 -0.07500000
v 0.01992480 0.01632782 -0.07500000
v 0.01970290 0.01696191 -0.07500000
v 0.01887050 0.01800575 -0.07500000
v 0.01934550 0.01753073 -0.07500000
v 0.01340840 0.01359816 -0.03500000
v 0.01449110 0.01263900 -0.03500000
v 0.01072330 0.01461651 -0.03500000
v 0.01212770 0.01427036 -0.03500000
v 0.01582570 0.01009615 -0.03500000
v 0.01531280 0.01144860 -0.03500000
v 0.01700000 0.01866026 -0.03500000
v 0.02000000 0.01566026 -0.03500000
v 0.01766760 0.01858504 -0.03500000
v 0.01830170 0.01836317 -0.03500000
v 0.01992480 0.01632782 -0.03500000
v 0.01970290 0.01696191 -0.03500000
v 0.01887050 0.01800575 -0.03500000
v 0.01934550 0.01753073 -0.03500000
v 0.00466700 0.00591090 0.02000000
v 0.00466700 0.00591090 0.02500000
v 0.00416920 0.00724571 0.02000000
v 0.00416920 0.00724571 0.02500000
v 0.00400000 0.00866026 0.02000000
v 0.00400000 0.00866026 0.02500000
v 0.00467715 0.00589141 0.05000000
v 0.00442070 0.00656763 0.05000000
v 0.00417180 0.00723504 0.05000000
v 0.00408460 0.00795298 0.05000000
v 0.00400000 0.00866026 0.05000000
v 0.00407525 0.00932783 0.05000000
v 0.00651970 0.00377280 0.02000000
v 0.00651970 0.00377280 0.02500000
v 0.00777010 0.00309005 0.02000000
v 0.00777010 0.00309005 0.02500000
v 0.00914620 0.00272133 0.02000000
v 0.00914620 0.00272133 0.02500000
v 0.00601435 0.00422716 0.05000000
v 0.00718090 0.00340620 0.05000000
v 0.00655570 0.00374758 0.05000000
v 0.00782125 0.00307011 0.05000000
v 0.00850930 0.00288574 0.05000000
v 0.00921150 0.00271267 0.05000000
v 0.00992360 0.00269572 0.05000000
v 0.00546550 0.00473110 0.02000000
v 0.00546550 0.00473110 0.02500000
v 0.00548725 0.00470631 0.05000000
v 0.00507640 0.00530151 0.05000000
v 0.00415050 0.00999539 0.02000000
v 0.00415050 0.00999539 0.02500000
v 0.00459420 0.01126356 0.02000000
v 0.00459420 0.01126356 0.02500000
v 0.00416245 0.01004577 0.05000000
v 0.00438430 0.01067986 0.05000000
v 0.00464075 0.01135608 0.05000000
v 0.00499820 0.01192490 0.05000000
v 0.00530910 0.01240120 0.02000000
v 0.00530910 0.01240120 0.02500000
v 0.00625910 0.01335125 0.02000000
v 0.00625910 0.01335125 0.02500000
v 0.00540905 0.01252010 0.05000000
v 0.00588405 0.01299513 0.05000000
v 0.00642540 0.01347470 0.05000000
v 0.00699420 0.01383212 0.05000000
v 0.00739670 0.01406607 0.02000000
v 0.00739670 0.01406607 0.02500000
v 0.00866490 0.01450983 0.02000000
v 0.00866490 0.01450983 0.02500000
v 0.00763455 0.01416821 0.05000000
v 0.00826865 0.01439010 0.05000000
v 0.00897085 0.01456317 0.05000000
v 0.00963840 0.01463838 0.05000000
v 0.01057040 0.00268743 0.02000000
v 0.01057040 0.00268743 0.02500000
v 0.01196240 0.00299025 0.02000000
v 0.01196240 0.00299025 0.02500000
v 0.01324390 0.00361274 0.02000000
v 0.01324390 0.00361274 0.02500000
v 0.01434240 0.00451979 0.02000000
v 0.01434240 0.00451979 0.02500000
v 0.01064685 0.00269572 0.05000000
v 0.01134285 0.00284713 0.05000000
v 0.01204505 0.00302020 0.05000000
v 0.01268580 0.00333145 0.05000000
v 0.01332615 0.00366755 0.05000000
v 0.01387540 0.00412107 0.05000000
v 0.01441675 0.00460065 0.05000000
v 0.01484365 0.00517089 0.05000000
v 0.01519620 0.00566026 0.02000000
v 0.01519620 0.00566026 0.02500000
v 0.01525450 0.00576609 0.05000000
v 0.01551095 0.00644231 0.05000000
v 0.01582570 0.00722437 0.05000000
v 0.01600000 0.00866026 0.05000000
v 0.01340840 0.01359816 0.05000000
v 0.01449110 0.01263900 0.05000000
v 0.01000000 0.01466026 0.02000000
v 0.01000000 0.01466026 0.02500000
v 0.01036165 0.01463838 0.05000000
v 0.01072330 0.01461651 0.05000000
v 0.01212770 0.01427036 0.05000000
v 0.01582570 0.01009615 0.05000000
v 0.01531280 0.01144860 0.05000000
f 1 6 2
f 2 3 5
f 1 2 5
f 3 4 5
f 2 7 3
f 3 8 4
f 4 10 5
f 4 8 9
f 3 7 8
f 2 6 7
f 4 9 10
f 1 18 6
f 7 10 8
f 6 10 7
f 8 10 9
f 6 16 17
f 6 17 27
f 6 27 28
f 6 28 82
f 1 11 18
f 1 204 11
f 11 15 12
f 12 15 13
f 11 12 19
f 12 13 20
f 13 14 20
f 13 15 14
f 11 200 15
f 14 15 21
f 12 20 19
f 11 19 18
f 14 21 20
f 15 22 21
f 15 205 22
f 6 18 16
f 16 34 17
f 17 38 27
f 18 19 23
f 19 20 23
f 18 26 25
f 18 23 26
f 20 21 23
f 21 22 24
f 22 205 24
f 21 24 23
f 16 18 25
f 16 25 35
f 27 49 28
f 28 51 29
f 29 53 30
f 29 106 82
f 28 29 82
f 29 30 106
f 30 31 107
f 31 32 108
f 32 33 109
f 30 62 31
f 31 64 32
f 32 66 33
f 33 68 217
f 34 119 125
f 37 120 119
f 36 126 120
f 38 125 127
f 49 127 129
f 39 128 126
f 50 130 128
f 16 35 34
f 17 34 38
f 23 24 44
f 24 207 45
f 25 26 46
f 23 48 26
f 25 46 35
f 35 47 37
f 36 37 40
f 36 42 39
f 37 47 41
f 37 41 40
f 36 40 42
f 39 42 43
f 39 43 55
f 23 44 48
f 24 45 44
f 26 48 46
f 35 46 47
f 27 38 49
f 28 49 51
f 29 51 53
f 30 53 62
f 31 62 64
f 32 64 66
f 33 66 68
f 35 37 119
f 34 35 119
f 34 125 38
f 38 127 49
f 36 120 37
f 36 39 126
f 39 50 128
f 39 55 50
f 50 57 52
f 52 59 54
f 50 55 56
f 50 56 57
f 52 57 58
f 52 58 59
f 54 59 60
f 54 60 61
f 49 129 51
f 50 52 130
f 51 129 131
f 52 132 130
f 53 131 148
f 54 149 132
f 51 131 53
f 52 54 132
f 53 148 62
f 54 63 149
f 62 150 64
f 63 65 151
f 54 61 63
f 63 61 70
f 63 71 65
f 65 73 67
f 64 152 66
f 65 67 153
f 66 161 68
f 67 69 162
f 67 75 69
f 63 70 71
f 65 71 72
f 65 72 73
f 67 73 74
f 67 74 75
f 69 75 76
f 69 76 256
f 1 5 91
f 5 10 84
f 6 80 10
f 10 83 77
f 10 77 78
f 10 80 83
f 10 79 94
f 10 78 79
f 77 119 78
f 6 82 81
f 6 81 80
f 80 125 83
f 80 81 127
f 81 82 129
f 82 106 131
f 77 83 119
f 5 84 91
f 10 94 84
f 84 94 85
f 84 85 90
f 85 86 89
f 86 87 88
f 86 88 89
f 85 89 90
f 84 90 91
f 85 96 86
f 86 96 87
f 87 97 88
f 88 98 89
f 89 99 90
f 90 101 91
f 85 94 95
f 85 95 96
f 87 96 97
f 88 97 98
f 89 98 99
f 90 99 100
f 90 100 101
f 79 92 94
f 92 93 94
f 93 102 94
f 95 97 96
f 94 101 95
f 95 101 97
f 97 101 98
f 98 101 99
f 99 101 100
f 94 102 101
f 101 102 103
f 101 103 104
f 101 104 105
f 101 105 115
f 101 115 116
f 1 91 223
f 30 107 106
f 31 108 107
f 106 107 148
f 107 108 150
f 108 109 152
f 109 110 161
f 32 109 108
f 33 110 109
f 33 217 110
f 110 274 111
f 111 275 112
f 112 276 117
f 110 111 164
f 111 112 166
f 112 117 168
f 91 101 294
f 113 116 176
f 114 194 118
f 113 178 114
f 101 116 285
f 105 184 115
f 115 186 116
f 113 284 116
f 117 281 118
f 114 118 282
f 113 114 283
f 117 118 192
f 78 124 79
f 78 119 123
f 80 127 125
f 81 129 127
f 82 131 129
f 83 125 119
f 119 120 123
f 78 123 124
f 79 124 141
f 120 140 121
f 120 121 122
f 120 122 123
f 126 128 134
f 128 130 135
f 130 132 138
f 126 134 133
f 128 136 134
f 128 135 136
f 130 137 135
f 130 138 137
f 132 139 138
f 132 154 139
f 120 126 140
f 126 133 140
f 79 141 92
f 92 142 93
f 93 143 102
f 102 144 103
f 103 145 104
f 104 146 105
f 105 146 184
f 92 141 142
f 93 142 143
f 102 143 144
f 103 144 145
f 104 145 146
f 184 147 185
f 184 146 147
f 106 148 131
f 107 150 148
f 108 152 150
f 109 161 152
f 110 164 161
f 111 166 164
f 112 168 166
f 132 149 154
f 149 151 156
f 62 148 150
f 63 151 149
f 64 150 152
f 65 153 151
f 151 153 158
f 153 162 160
f 149 155 154
f 149 156 155
f 151 157 156
f 151 158 157
f 153 159 158
f 153 160 159
f 162 163 160
f 162 170 163
f 66 152 161
f 67 162 153
f 68 161 316
f 69 317 162
f 162 165 170
f 165 167 172
f 167 169 174
f 161 164 316
f 162 317 165
f 164 166 318
f 165 319 167
f 166 168 320
f 167 321 169
f 165 171 170
f 165 172 171
f 167 173 172
f 167 174 173
f 169 175 174
f 169 196 175
f 113 176 178
f 114 178 194
f 115 184 186
f 116 186 176
f 117 192 168
f 118 194 192
f 177 181 179
f 179 182 195
f 177 191 180
f 177 180 181
f 179 183 182
f 195 182 199
f 179 181 183
f 185 189 187
f 177 187 191
f 185 147 188
f 185 188 189
f 187 189 190
f 187 190 191
f 169 193 196
f 193 195 198
f 168 192 345
f 169 346 193
f 192 194 347
f 193 348 195
f 178 353 194
f 179 195 354
f 176 355 178
f 177 179 356
f 193 197 196
f 195 199 198
f 193 198 197
f 184 363 186
f 184 185 393
f 176 186 361
f 185 187 364
f 177 362 187
f 11 204 200
f 200 202 201
f 15 200 205
f 200 201 206
f 200 203 202
f 200 204 203
f 201 202 209
f 202 203 210
f 203 204 210
f 200 206 205
f 201 209 206
f 202 210 209
f 204 211 210
f 204 228 211
f 205 206 207
f 206 209 208
f 24 205 207
f 206 208 207
f 208 209 210
f 208 210 211
f 208 211 212
f 211 213 212
f 211 214 213
f 211 228 214
f 213 214 238
f 214 215 240
f 1 223 204
f 216 246 222
f 217 218 280
f 218 219 277
f 217 250 218
f 218 252 219
f 216 219 254
f 215 220 263
f 220 221 265
f 221 222 267
f 216 222 279
f 221 287 222
f 216 278 219
f 222 287 279
f 204 223 228
f 223 225 224
f 223 227 225
f 225 227 226
f 223 224 229
f 224 225 230
f 225 226 230
f 226 227 231
f 223 229 228
f 224 230 229
f 226 231 230
f 227 232 231
f 214 228 215
f 215 228 220
f 220 228 221
f 221 228 287
f 228 229 232
f 229 230 232
f 230 231 232
f 207 208 233
f 208 212 234
f 212 213 235
f 213 238 236
f 214 240 238
f 215 263 240
f 207 233 45
f 208 234 233
f 212 235 234
f 213 236 235
f 238 239 236
f 239 237 236
f 239 241 243
f 241 264 245
f 239 242 237
f 239 243 242
f 241 244 243
f 241 245 244
f 68 250 217
f 218 250 252
f 219 252 254
f 216 254 246
f 220 265 263
f 221 267 265
f 222 246 267
f 247 248 268
f 247 249 248
f 69 256 251
f 251 258 253
f 253 261 255
f 247 255 262
f 250 341 252
f 251 253 342
f 252 328 254
f 253 255 329
f 251 256 257
f 251 257 258
f 253 258 259
f 253 259 261
f 255 261 260
f 255 260 262
f 247 262 249
f 264 266 270
f 266 268 272
f 238 385 239
f 238 240 375
f 240 263 373
f 239 376 241
f 241 374 264
f 264 269 245
f 264 270 269
f 266 271 270
f 266 272 271
f 268 273 272
f 268 248 273
f 265 267 369
f 266 370 268
f 246 332 267
f 247 268 333
f 246 254 330
f 247 331 255
f 263 265 371
f 264 372 266
f 267 332 369
f 268 370 333
f 265 369 371
f 266 372 370
f 263 371 373
f 240 373 375
f 264 374 372
f 241 376 374
f 238 375 385
f 239 385 386
f 239 386 376
f 110 217 274
f 218 277 280
f 217 280 274
f 111 274 275
f 112 275 276
f 274 316 275
f 275 318 276
f 219 278 277
f 216 279 278
f 277 328 280
f 277 278 330
f 278 279 332
f 274 280 341
f 91 294 223
f 101 308 294
f 117 276 281
f 118 281 282
f 114 282 283
f 113 283 284
f 276 345 281
f 281 347 282
f 116 284 285
f 101 285 308
f 282 353 283
f 283 355 284
f 284 361 285
f 285 363 286
f 223 294 227
f 227 309 232
f 228 288 287
f 228 289 288
f 279 287 369
f 287 288 371
f 288 289 373
f 289 290 375
f 232 290 289
f 232 291 290
f 232 292 291
f 228 232 289
f 232 293 292
f 232 309 293
f 290 291 385
f 291 292 385
f 227 294 295
f 227 295 309
f 294 310 296
f 295 298 312
f 294 296 295
f 296 297 300
f 295 296 300
f 295 300 298
f 298 301 299
f 298 300 301
f 296 311 297
f 297 311 300
f 298 299 313
f 299 301 315
f 300 314 301
f 294 308 310
f 295 312 309
f 296 310 311
f 300 311 314
f 298 313 312
f 299 315 313
f 301 314 315
f 285 286 308
f 286 304 308
f 304 305 308
f 302 303 308
f 302 308 305
f 286 393 304
f 293 309 306
f 306 309 307
f 303 307 309
f 303 309 308
f 309 312 313
f 308 309 314
f 308 314 310
f 310 314 311
f 309 313 315
f 309 315 314
f 274 341 316
f 275 316 318
f 276 318 320
f 276 320 345
f 280 328 341
f 277 330 328
f 278 332 330
f 279 369 332
f 68 316 250
f 69 251 317
f 252 341 328
f 253 329 342
f 250 316 341
f 251 342 317
f 164 318 316
f 165 317 319
f 166 320 318
f 167 319 321
f 168 345 320
f 169 321 346
f 317 323 319
f 319 325 321
f 321 327 346
f 317 344 322
f 317 322 323
f 319 323 324
f 319 324 325
f 321 325 326
f 321 326 327
f 254 328 330
f 255 331 329
f 246 330 332
f 247 333 331
f 329 334 342
f 329 331 335
f 331 333 338
f 333 370 340
f 342 334 343
f 329 336 334
f 329 335 336
f 331 337 335
f 331 338 337
f 333 339 338
f 333 340 339
f 317 342 344
f 342 343 344
f 281 345 347
f 282 347 353
f 283 353 355
f 284 355 361
f 285 361 363
f 286 363 393
f 192 347 345
f 193 346 348
f 194 353 347
f 195 348 354
f 178 355 353
f 176 361 355
f 179 354 356
f 177 356 362
f 346 350 348
f 348 352 354
f 346 327 349
f 346 349 350
f 348 350 351
f 348 351 352
f 186 363 361
f 184 393 363
f 187 362 364
f 185 364 394
f 185 394 393
f 354 358 356
f 356 360 362
f 354 352 357
f 354 357 358
f 356 358 359
f 356 359 360
f 362 366 364
f 364 368 394
f 362 360 365
f 362 365 366
f 364 366 367
f 364 367 368
f 287 371 369
f 288 373 371
f 289 375 373
f 290 385 375
f 292 293 389
f 293 306 390
f 292 389 385
f 370 372 378
f 372 374 380
f 374 376 382
f 370 377 340
f 370 378 377
f 372 379 378
f 372 380 379
f 374 381 380
f 374 382 381
f 376 383 382
f 376 386 384
f 376 384 383
f 385 388 386
f 293 390 389
f 386 387 384
f 386 388 387
f 385 389 388
f 302 305 391
f 302 392 303
f 304 397 305
f 304 393 396
f 306 307 398
f 303 399 307
f 303 392 399
f 302 391 392
f 304 396 397
f 393 394 396
f 305 397 391
f 394 368 395
f 394 395 396
f 306 398 390
f 307 399 398
f 48 44 45
f 46 48 45
f 46 45 233
f 46 233 234
f 46 262 47
f 42 262 43
f 43 262 55
f 55 262 56
f 57 56 262
f 57 260 58
f 59 58 260
f 59 259 60
f 60 259 61
f 41 262 40
f 41 47 262
f 42 40 262
f 71 73 72
f 61 256 70
f 71 70 256
f 61 257 256
f 71 76 73
f 73 75 74
f 73 76 75
f 71 256 76
f 61 258 257
f 59 261 259
f 61 259 258
f 122 121 140
f 136 135 144
f 137 144 135
f 134 144 133
f 133 144 140
f 122 140 144
f 123 122 144
f 136 144 134
f 137 138 144
f 139 144 138
f 139 154 144
f 154 155 144
f 144 155 156
f 123 144 124
f 124 144 141
f 141 144 142
f 144 143 142
f 144 159 145
f 144 156 157
f 144 157 158
f 144 158 159
f 145 159 160
f 145 160 163
f 145 163 170
f 145 170 171
f 145 171 172
f 145 181 180
f 145 182 183
f 145 183 181
f 145 172 173
f 145 173 174
f 145 174 175
f 145 175 196
f 145 196 197
f 145 197 198
f 145 199 182
f 145 198 199
f 145 180 146
f 147 146 190
f 147 189 188
f 147 190 189
f 146 191 190
f 146 180 191
f 46 234 235
f 46 235 236
f 46 236 237
f 46 237 242
f 46 242 243
f 46 243 244
f 46 244 245
f 46 245 269
f 46 269 270
f 46 270 271
f 46 271 272
f 46 272 273
f 46 249 262
f 46 248 249
f 46 273 248
f 57 262 260
f 59 260 261
f 323 391 324
f 334 399 343
f 334 336 399
f 335 399 336
f 343 399 344
f 344 391 322
f 323 322 391
f 325 324 391
f 325 391 326
f 327 326 391
f 327 391 349
f 349 391 350
f 351 350 391
f 351 391 352
f 357 352 391
f 357 391 358
f 359 358 391
f 359 391 360
f 360 391 365
f 368 367 366
f 365 397 366
f 368 366 395
f 366 396 395
f 338 399 337
f 338 339 399
f 335 337 399
f 339 340 399
f 340 377 399
f 378 399 377
f 378 379 399
f 380 399 379
f 380 381 399
f 382 399 381
f 382 383 399
f 383 384 399
f 384 387 399
f 387 388 398
f 389 390 388
f 387 398 399
f 390 398 388
f 344 392 391
f 392 344 399
f 366 397 396
f 365 391 397