# https://github.com/mikedh/trimesh
v 0.05022465 0.01049142 -0.00530041 0.77647059 0.86666667 0.97647059
v 0.05022465 -0.01523840 -0.00530041 0.77647059 0.86666667 0.97647059
v 0.05022465 0.01049142 -0.00799630 0.77647059 0.86666667 0.97647059
v 0.00049525 0.01015639 -0.00683306 0.77647059 0.86666667 0.97647059
v 0.01064460 0.01015639 -0.00530041 0.77647059 0.86666667 0.97647059
v 0.05016624 -0.01524344 -0.00530041 0.77647059 0.86666667 0.97647059
v 0.05022465 -0.01523840 -0.01117532 0.77647059 0.86666667 0.97647059
v 0.05022465 0.01048890 -0.01117532 0.77647059 0.86666667 0.97647059
v 0.00049525 0.01015639 -0.01117677 0.77647059 0.86666667 0.97647059
v 0.00049525 0.01013623 -0.00658824 0.77647059 0.86666667 0.97647059
v 0.00049525 0.01010601 -0.00646438 0.77647059 0.86666667 0.97647059
v 0.00049525 0.01007578 -0.00634994 0.77647059 0.86666667 0.97647059
v 0.00049525 0.01003043 -0.00624129 0.77647059 0.86666667 0.97647059
v 0.00049525 0.00998005 -0.00612395 0.77647059 0.86666667 0.97647059
v 0.00049525 0.00991708 -0.00602400 0.77647059 0.86666667 0.97647059
v 0.00049525 0.00984906 -0.00591607 0.77647059 0.86666667 0.97647059
v 0.01040121 0.01013623 -0.00530041 0.77647059 0.86666667 0.97647059
v 0.05016624 -0.01524344 -0.01117532 0.77647059 0.86666667 0.97647059
v 0.01162303 -0.01524344 -0.00530041 0.77647059 0.86666667 0.97647059
v 0.05022465 -0.01523336 -0.01123833 0.77647059 0.86666667 0.97647059
v 0.05022465 0.01048639 -0.01121516 0.77647059 0.86666667 0.97647059
v 0.00049525 0.01013371 -0.01143607 0.77647059 0.86666667 0.97647059
v 0.00049525 0.00977097 -0.00582843 0.77647059 0.86666667 0.97647059
v 0.01018216 0.01008082 -0.00530041 0.77647059 0.86666667 0.97647059
v 0.00049525 0.00968532 -0.00573282 0.77647059 0.86666667 0.97647059
v 0.00049525 0.00959463 -0.00565822 0.77647059 0.86666667 0.97647059
v 0.00049525 0.00948883 -0.00557420 0.77647059 0.86666667 0.97647059
v 0.00049525 0.00938555 -0.00550901 0.77647059 0.86666667 0.97647059
v 0.00049525 0.00933265 -0.00548149 0.77647059 0.86666667 0.97647059
v 0.00049525 0.00927471 -0.00545251 0.77647059 0.86666667 0.97647059
v 0.00049525 0.00922181 -0.00542934 0.77647059 0.86666667 0.97647059
v 0.00049525 0.00916135 -0.00540471 0.77647059 0.86666667 0.97647059
v 0.00049525 0.00905051 -0.00536849 0.77647059 0.86666667 0.97647059
v 0.00049525 0.00904547 -0.00536704 0.77647059 0.86666667 0.97647059
v 0.00049525 0.00893212 -0.00533952 0.77647059 0.86666667 0.97647059
v 0.00049525 0.00892456 -0.00533807 0.77647059 0.86666667 0.97647059
v 0.00049525 0.00881120 -0.00531996 0.77647059 0.86666667 0.97647059
v 0.00049525 0.00874570 -0.00531489 0.77647059 0.86666667 0.97647059
v 0.00049525 0.00868777 -0.00531055 0.77647059 0.86666667 0.97647059
v 0.02508736 -0.01522581 -0.01137378 0.77647059 0.86666667 0.97647059
v 0.03762193 -0.01522832 -0.01134119 0.77647059 0.86666667 0.97647059
v 0.05016624 -0.01521825 -0.01144042 0.77647059 0.86666667 0.97647059
v 0.05022465 -0.01521573 -0.01144042 0.77647059 0.86666667 0.97647059
v 0.01254304 -0.01524344 -0.01117532 0.77647059 0.86666667 0.97647059
v 0.01136504 -0.01522077 -0.00530041 0.77647059 0.86666667 0.97647059
v 0.00049525 -0.01515527 -0.00730169 0.77647059 0.86666667 0.97647059
v 0.00049525 -0.01521825 -0.00754071 0.77647059 0.86666667 0.97647059
v 0.00049525 -0.01522077 -0.00755158 0.77647059 0.86666667 0.97647059
v 0.00049525 -0.01524344 -0.00780943 0.77647059 0.86666667 0.97647059
v 0.05022465 0.01046120 -0.01144042 0.77647059 0.86666667 0.97647059
v 0.00049525 0.01006318 -0.01169827 0.77647059 0.86666667 0.97647059
v 0.01016269 0.01007578 -0.00530041 0.77647059 0.86666667 0.97647059
v 0.00049525 0.00856433 -0.00531055 0.77647059 0.86666667 0.97647059
v 0.00912098 0.00868777 -0.00530041 0.77647059 0.86666667 0.97647059
v 0.00913072 0.00881120 -0.00530041 0.77647059 0.86666667 0.97647059
v 0.00915019 0.00893212 -0.00530041 0.77647059 0.86666667 0.97647059
v 0.00917940 0.00905051 -0.00530041 0.77647059 0.86666667 0.97647059
v 0.00921834 0.00916639 -0.00530041 0.77647059 0.86666667 0.97647059
v 0.00926702 0.00928227 -0.00530041 0.77647059 0.86666667 0.97647059
v 0.00932056 0.00938807 -0.00530041 0.77647059 0.86666667 0.97647059
v 0.00938871 0.00949387 -0.00530041 0.77647059 0.86666667 0.97647059
v 0.00954448 0.00968532 -0.00530041 0.77647059 0.86666667 0.97647059
v 0.00954935 0.00969036 -0.00530041 0.77647059 0.86666667 0.97647059
v 0.00972946 0.00984906 -0.00530041 0.77647059 0.86666667 0.97647059
v 0.00993390 0.00998005 -0.00530041 0.77647059 0.86666667 0.97647059
v 0.00049525 -0.01523084 -0.01130932 0.77647059 0.86666667 0.97647059
v 0.00049525 -0.01521825 -0.01144404 0.77647059 0.86666667 0.97647059
v 0.03762193 -0.01521069 -0.01147229 0.77647059 0.86666667 0.97647059
v 0.05016624 -0.01515023 -0.01169683 0.77647059 0.86666667 0.97647059
v 0.05022465 -0.01514520 -0.01169683 0.77647059 0.86666667 0.97647059
v 0.00049525 -0.01524344 -0.01103190 0.77647059 0.86666667 0.97647059
v 0.00049525 -0.01524092 -0.01117677 0.77647059 0.86666667 0.97647059
v 0.01111191 -0.01515527 -0.00530041 0.77647059 0.86666667 0.97647059
v 0.00049525 -0.01446001 -0.00647887 0.77647059 0.86666667 0.97647059
v 0.00049525 -0.01451795 -0.00651219 0.77647059 0.86666667 0.97647059
v 0.00049525 -0.01462627 -0.00658462 0.77647059 0.86666667 0.97647059
v 0.00049525 -0.01472703 -0.00666574 0.77647059 0.86666667 0.97647059
v 0.00049525 -0.01489581 -0.00684392 0.77647059 0.86666667 0.97647059
v 0.00049525 -0.01490336 -0.00685261 0.77647059 0.86666667 0.97647059
v 0.00049525 -0.01497390 -0.00695329 0.77647059 0.86666667 0.97647059
v 0.00049525 -0.01504947 -0.00706629 0.77647059 0.86666667 0.97647059
v 0.00049525 -0.01509985 -0.00717783 0.77647059 0.86666667 0.97647059
v 0.05022465 0.01044104 -0.01150343 0.77647059 0.86666667 0.97647059
v 0.00049525 0.01000776 -0.01181851 0.77647059 0.86666667 0.97647059
v 0.05022465 0.01037807 -0.01169683 0.77647059 0.86666667 0.97647059
v 0.00912098 0.00856433 -0.00530041 0.77647059 0.86666667 0.97647059
v 0.00049525 -0.01320803 -0.00626157 0.77647059 0.86666667 0.97647059
v 0.01020650 -0.01428871 -0.00530041 0.77647059 0.86666667 0.97647059
v 0.01020163 -0.01427611 -0.00530041 0.77647059 0.86666667 0.97647059
v 0.01016269 -0.01416528 -0.00530041 0.77647059 0.86666667 0.97647059
v 0.01013348 -0.01405192 -0.00530041 0.77647059 0.86666667 0.97647059
v 0.01010915 -0.01391337 -0.00530041 0.77647059 0.86666667 0.97647059
v 0.01009941 -0.01379497 -0.00530041 0.77647059 0.86666667 0.97647059
v 0.00049525 -0.01515023 -0.01169827 0.77647059 0.86666667 0.97647059
v 0.02508736 -0.01516787 -0.01163309 0.77647059 0.86666667 0.97647059
v 0.02508736 -0.01506710 -0.01187718 0.77647059 0.86666667 0.97647059
v 0.03762193 -0.01505199 -0.01190760 0.77647059 0.86666667 0.97647059
v 0.05016624 -0.01503687 -0.01193730 0.77647059 0.86666667 0.97647059
v 0.05022465 -0.01503435 -0.01193730 0.77647059 0.86666667 0.97647059
v 0.01087826 -0.01504947 -0.00530041 0.77647059 0.86666667 0.97647059
v 0.00049525 -0.01416528 -0.00635284 0.77647059 0.86666667 0.97647059
v 0.00049525 -0.01423077 -0.00637529 0.77647059 0.86666667 0.97647059
v 0.00049525 -0.01428871 -0.00639557 0.77647059 0.86666667 0.97647059
v 0.00049525 -0.01440459 -0.00644917 0.77647059 0.86666667 0.97647059
v 0.00049525 0.00994982 -0.01194092 0.77647059 0.86666667 0.97647059
v 0.05022465 0.01024204 -0.01193730 0.77647059 0.86666667 0.97647059
v 0.00049525 -0.01378489 -0.00628692 0.77647059 0.86666667 0.97647059
v 0.01026005 -0.01440459 -0.00530041 0.77647059 0.86666667 0.97647059
v 0.00049525 -0.01503687 -0.01194092 0.77647059 0.86666667 0.97647059
v 0.03762193 -0.01501924 -0.01196482 0.77647059 0.86666667 0.97647059
v 0.05016624 -0.01488573 -0.01215532 0.77647059 0.86666667 0.97647059
v 0.05022465 -0.01488069 -0.01215532 0.77647059 0.86666667 0.97647059
v 0.01084905 -0.01503184 -0.00530041 0.77647059 0.86666667 0.97647059
v 0.00049525 -0.01404184 -0.00631952 0.77647059 0.86666667 0.97647059
v 0.00049525 -0.01410734 -0.00633690 0.77647059 0.86666667 0.97647059
v 0.00049525 0.00979616 -0.01215821 0.77647059 0.86666667 0.97647059
v 0.05022465 0.01006570 -0.01214445 0.77647059 0.86666667 0.97647059
v 0.00049525 -0.01391337 -0.00629779 0.77647059 0.86666667 0.97647059
v 0.01039635 -0.01462627 -0.00530041 0.77647059 0.86666667 0.97647059
v 0.01032333 -0.01451795 -0.00530041 0.77647059 0.86666667 0.97647059
v 0.01026492 -0.01441466 -0.00530041 0.77647059 0.86666667 0.97647059
v 0.00049525 -0.01488573 -0.01215387 0.77647059 0.86666667 0.97647059
v 0.01254304 -0.01490588 -0.01212779 0.77647059 0.86666667 0.97647059
v 0.03762193 -0.01490588 -0.01212779 0.77647059 0.86666667 0.97647059
v 0.03762193 -0.01486306 -0.01217849 0.77647059 0.86666667 0.97647059
v 0.03762193 -0.01472199 -0.01231974 0.77647059 0.86666667 0.97647059
v 0.05016624 -0.01469680 -0.01234291 0.77647059 0.86666667 0.97647059
v 0.05022465 -0.01469428 -0.01234291 0.77647059 0.86666667 0.97647059
v 0.05022465 -0.01481268 -0.01222413 0.77647059 0.86666667 0.97647059
v 0.01254304 -0.01488573 -0.01215532 0.77647059 0.86666667 0.97647059
v 0.01066407 -0.01490336 -0.00530041 0.77647059 0.86666667 0.97647059
v 0.00049525 0.00970295 -0.01225165 0.77647059 0.86666667 0.97647059
v 0.05022465 0.01005562 -0.01215532 0.77647059 0.86666667 0.97647059
v 0.01063974 -0.01488069 -0.00530041 0.77647059 0.86666667 0.97647059
v 0.01047910 -0.01472703 -0.00530041 0.77647059 0.86666667 0.97647059
v 0.00049525 -0.01469932 -0.01234219 0.77647059 0.86666667 0.97647059
v 0.01254304 -0.01486306 -0.01217849 0.77647059 0.86666667 0.97647059
v 0.01254304 -0.01472199 -0.01231974 0.77647059 0.86666667 0.97647059
v 0.03762193 -0.01467161 -0.01236247 0.77647059 0.86666667 0.97647059
v 0.05016624 -0.01448016 -0.01249574 0.77647059 0.86666667 0.97647059
v 0.05022465 -0.01447512 -0.01249574 0.77647059 0.86666667 0.97647059
v 0.00049525 0.00960723 -0.01234509 0.77647059 0.86666667 0.97647059
v 0.05022465 0.00984906 -0.01234291 0.77647059 0.86666667 0.97647059
v 0.00049525 -0.01459100 -0.01241824 0.77647059 0.86666667 0.97647059
v 0.01254304 -0.01467161 -0.01236247 0.77647059 0.86666667 0.97647059
v 0.02508736 -0.01453558 -0.01245735 0.77647059 0.86666667 0.97647059
v 0.05016624 -0.01423833 -0.01260801 0.77647059 0.86666667 0.97647059
v 0.05022465 -0.01423581 -0.01260801 0.77647059 0.86666667 0.97647059
v 0.00049525 -0.01448016 -0.01249574 0.77647059 0.86666667 0.97647059
v 0.00049525 -0.01436428 -0.01255007 0.77647059 0.86666667 0.97647059
v 0.00049525 0.00949891 -0.01242186 0.77647059 0.86666667 0.97647059
v 0.05022465 0.00960975 -0.01249574 0.77647059 0.86666667 0.97647059
v 0.00049525 0.00939311 -0.01249574 0.77647059 0.86666667 0.97647059
v 0.05016624 -0.01398390 -0.01267682 0.77647059 0.86666667 0.97647059
v 0.00049525 -0.01424337 -0.01260584 0.77647059 0.86666667 0.97647059
v 0.01254304 -0.01423833 -0.01260801 0.77647059 0.86666667 0.97647059
v 0.00049525 -0.01423581 -0.01260874 0.77647059 0.86666667 0.97647059
v 0.05022465 -0.01407207 -0.01265147 0.77647059 0.86666667 0.97647059
v 0.05021005 -0.01397886 -0.01267682 0.77647059 0.86666667 0.97647059
v 0.05022465 0.00934524 -0.01260801 0.77647059 0.86666667 0.97647059
v 0.00049525 0.00915632 -0.01260584 0.77647059 0.86666667 0.97647059
v 0.00049525 0.00927219 -0.01255224 0.77647059 0.86666667 0.97647059
v 0.03762193 -0.01388314 -0.01268551 0.77647059 0.86666667 0.97647059
v 0.05016624 -0.01371940 -0.01269928 0.77647059 0.86666667 0.97647059
v 0.01254304 -0.01398390 -0.01267682 0.77647059 0.86666667 0.97647059
v 0.01254304 -0.01381764 -0.01269131 0.77647059 0.86666667 0.97647059
v 0.00049525 -0.01411237 -0.01264205 0.77647059 0.86666667 0.97647059
v 0.05022465 -0.01397634 -0.01267682 0.77647059 0.86666667 0.97647059
v 0.05022465 -0.01389070 -0.01268407 0.77647059 0.86666667 0.97647059
v 0.05022465 0.00906311 -0.01267682 0.77647059 0.86666667 0.97647059
v 0.00049525 0.00889181 -0.01267682 0.77647059 0.86666667 0.97647059
v 0.00049525 0.00902028 -0.01264350 0.77647059 0.86666667 0.97647059
v 0.00049525 0.00914876 -0.01260874 0.77647059 0.86666667 0.97647059
v 0.05022465 -0.01366398 -0.01269928 0.77647059 0.86666667 0.97647059
v 0.05022465 -0.01377482 -0.01269276 0.77647059 0.86666667 0.97647059
v 0.05022465 -0.01382772 -0.01268914 0.77647059 0.86666667 0.97647059
v 0.00049525 -0.01371940 -0.01269928 0.77647059 0.86666667 0.97647059
v 0.00049525 -0.01398390 -0.01267610 0.77647059 0.86666667 0.97647059
v 0.00049525 -0.01385291 -0.01268769 0.77647059 0.86666667 0.97647059
v 0.05022465 0.00879105 -0.01269928 0.77647059 0.86666667 0.97647059
v 0.00049525 0.00863235 -0.01269928 0.77647059 0.86666667 0.97647059
v 0.00049525 0.00876082 -0.01268841 0.77647059 0.86666667 0.97647059
f 1 2 7
f 1 7 20
f 1 20 43
f 1 43 70
f 1 70 99
f 1 99 112
f 1 112 129
f 1 129 128
f 1 128 141
f 1 141 148
f 1 148 158
f 1 158 168
f 1 168 169
f 1 169 176
f 1 176 175
f 1 175 174
f 1 174 180
f 1 180 170
f 1 170 160
f 1 160 152
f 1 152 143
f 1 143 133
f 1 133 117
f 1 117 106
f 1 106 85
f 1 85 83
f 1 83 50
f 1 50 21
f 1 21 8
f 1 8 3
f 1 3 9
f 1 9 4
f 1 4 5
f 1 5 17
f 1 17 24
f 1 24 52
f 1 52 65
f 1 65 64
f 1 64 63
f 1 63 62
f 1 62 61
f 1 61 60
f 1 60 59
f 1 59 58
f 1 58 57
f 1 57 56
f 1 56 55
f 1 55 54
f 1 54 86
f 1 86 93
f 1 93 92
f 1 92 91
f 1 91 90
f 1 90 89
f 1 89 88
f 1 88 108
f 1 108 121
f 1 121 120
f 1 120 119
f 1 119 135
f 1 135 134
f 1 134 131
f 1 131 113
f 1 113 100
f 1 100 73
f 1 73 45
f 1 45 19
f 1 19 6
f 1 6 2
f 2 6 18
f 2 18 7
f 3 8 9
f 4 9 22
f 4 22 51
f 4 51 84
f 4 84 105
f 4 105 116
f 4 116 132
f 4 132 142
f 4 142 151
f 4 151 153
f 4 153 162
f 4 162 161
f 4 161 173
f 4 173 172
f 4 172 171
f 4 171 182
f 4 182 181
f 4 181 177
f 4 177 179
f 4 179 178
f 4 178 167
f 4 167 157
f 4 157 155
f 4 155 150
f 4 150 149
f 4 149 144
f 4 144 136
f 4 136 122
f 4 122 109
f 4 109 94
f 4 94 67
f 4 67 66
f 4 66 72
f 4 72 71
f 4 71 49
f 4 49 48
f 4 48 47
f 4 47 46
f 4 46 82
f 4 82 81
f 4 81 80
f 4 80 79
f 4 79 78
f 4 78 77
f 4 77 76
f 4 76 75
f 4 75 74
f 4 74 104
f 4 104 103
f 4 103 102
f 4 102 101
f 4 101 115
f 4 115 114
f 4 114 118
f 4 118 107
f 4 107 87
f 4 87 53
f 4 53 39
f 4 39 38
f 4 38 37
f 4 37 36
f 4 36 35
f 4 35 34
f 4 34 33
f 4 33 32
f 4 32 31
f 4 31 30
f 4 30 29
f 4 29 28
f 4 28 27
f 4 27 26
f 4 26 25
f 4 25 23
f 4 23 16
f 4 16 15
f 4 15 14
f 4 14 13
f 4 13 12
f 4 12 11
f 4 11 10
f 4 10 5
f 5 10 11
f 5 11 12
f 5 12 13
f 5 13 14
f 5 14 15
f 5 15 16
f 5 16 17
f 6 19 49
f 6 49 71
f 6 71 44
f 6 44 18
f 7 18 20
f 8 21 9
f 9 21 22
f 16 23 17
f 17 23 25
f 17 25 26
f 17 26 27
f 17 27 28
f 17 28 29
f 17 29 30
f 17 30 31
f 17 31 32
f 17 32 33
f 17 33 34
f 17 34 35
f 17 35 36
f 17 36 37
f 17 37 38
f 17 38 39
f 17 39 24
f 18 40 41
f 18 41 42
f 18 42 43
f 18 43 20
f 18 44 40
f 19 45 46
f 19 46 47
f 19 47 48
f 19 48 49
f 21 50 22
f 22 50 51
f 24 39 52
f 39 53 86
f 39 86 54
f 39 54 55
f 39 55 56
f 39 56 57
f 39 57 58
f 39 58 59
f 39 59 60
f 39 60 61
f 39 61 62
f 39 62 63
f 39 63 64
f 39 64 65
f 39 65 52
f 40 42 41
f 40 44 66
f 40 66 67
f 40 67 42
f 42 68 69
f 42 69 43
f 42 67 68
f 43 69 70
f 44 71 72
f 44 72 66
f 45 73 74
f 45 74 75
f 45 75 76
f 45 76 77
f 45 77 78
f 45 78 79
f 45 79 80
f 45 80 81
f 45 81 82
f 45 82 46
f 50 83 51
f 51 83 85
f 51 85 84
f 53 87 88
f 53 88 89
f 53 89 90
f 53 90 91
f 53 91 92
f 53 92 93
f 53 93 86
f 67 94 95
f 67 95 68
f 68 95 69
f 69 96 97
f 69 97 98
f 69 98 99
f 69 99 70
f 69 95 94
f 69 94 96
f 73 100 101
f 73 101 102
f 73 102 103
f 73 103 104
f 73 104 74
f 84 85 105
f 85 106 105
f 87 107 88
f 88 107 108
f 94 109 96
f 96 109 97
f 97 109 98
f 98 110 111
f 98 111 99
f 98 109 110
f 99 111 112
f 100 113 114
f 100 114 115
f 100 115 101
f 105 106 116
f 106 117 116
f 107 118 119
f 107 119 120
f 107 120 121
f 107 121 108
f 109 122 123
f 109 123 124
f 109 124 110
f 110 124 111
f 111 125 126
f 111 126 127
f 111 127 128
f 111 128 129
f 111 129 112
f 111 124 123
f 111 123 130
f 111 130 137
f 111 137 125
f 113 131 118
f 113 118 114
f 116 117 133
f 116 133 132
f 118 131 134
f 118 134 135
f 118 135 119
f 122 136 137
f 122 137 130
f 122 130 123
f 125 137 138
f 125 138 126
f 126 138 136
f 126 136 127
f 127 139 140
f 127 140 128
f 127 136 139
f 128 140 141
f 132 133 142
f 133 143 142
f 136 138 137
f 136 144 145
f 136 145 139
f 139 146 140
f 139 145 146
f 140 147 148
f 140 148 141
f 140 146 149
f 140 149 150
f 140 150 147
f 142 143 151
f 143 152 153
f 143 153 151
f 144 149 145
f 145 149 146
f 147 154 148
f 147 150 155
f 147 155 156
f 147 156 157
f 147 157 154
f 148 154 159
f 148 159 158
f 152 160 161
f 152 161 162
f 152 162 153
f 154 163 164
f 154 164 159
f 154 157 165
f 154 165 166
f 154 166 163
f 155 157 156
f 157 167 165
f 158 159 168
f 159 164 169
f 159 169 168
f 160 170 171
f 160 171 172
f 160 172 173
f 160 173 161
f 163 166 164
f 164 174 175
f 164 175 176
f 164 176 169
f 164 166 177
f 164 177 181
f 164 181 180
f 164 180 174
f 165 167 178
f 165 178 179
f 165 179 166
f 166 179 177
f 170 180 181
f 170 181 182
f 170 182 171