# https://github.com/mikedh/trimesh
v -0.01064635 0.01015654 0.00530720 0.08627451 0.01960784 0.83137255
v -0.01039842 0.01013665 0.00530720 0.08627451 0.01960784 0.83137255
v -0.01064635 0.01015654 -0.00529474 0.08627451 0.01960784 0.83137255
v -0.04869563 0.01015654 0.00530720 0.08627451 0.01960784 0.83137255
v -0.01039842 0.01013665 -0.00529474 0.08627451 0.01960784 0.83137255
v -0.01018148 0.01008195 0.00530720 0.08627451 0.01960784 0.83137255
v -0.04869563 0.01015654 -0.00529474 0.08627451 0.01960784 0.83137255
v -0.04869563 -0.01524344 0.00530720 0.08627451 0.01960784 0.83137255
v -0.01016211 0.01007698 -0.00529474 0.08627451 0.01960784 0.83137255
v -0.01016211 0.01007698 0.00530720 0.08627451 0.01960784 0.83137255
v -0.04869563 -0.01524344 -0.00529474 0.08627451 0.01960784 0.83137255
v -0.01162257 -0.01524344 0.00530720 0.08627451 0.01960784 0.83137255
v -0.01014274 0.01006952 -0.00529474 0.08627451 0.01960784 0.83137255
v -0.00994905 0.00998747 0.00530720 0.08627451 0.01960784 0.83137255
v -0.01162257 -0.01524344 -0.00529474 0.08627451 0.01960784 0.83137255
v -0.01136302 -0.01522106 0.00530720 0.08627451 0.01960784 0.83137255
v -0.00993355 0.00998001 -0.00529474 0.08627451 0.01960784 0.83137255
v -0.00993355 0.00998001 0.00530720 0.08627451 0.01960784 0.83137255
v -0.01136302 -0.01522106 -0.00529474 0.08627451 0.01960784 0.83137255
v -0.01132428 -0.01521112 0.00530720 0.08627451 0.01960784 0.83137255
v -0.00971662 0.00984078 -0.00529474 0.08627451 0.01960784 0.83137255
v -0.00972824 0.00984824 0.00530720 0.08627451 0.01960784 0.83137255
v -0.01111509 -0.01515642 -0.00529474 0.08627451 0.01960784 0.83137255
v -0.01111509 -0.01515642 0.00530720 0.08627451 0.01960784 0.83137255
v -0.00955004 0.00969160 0.00530720 0.08627451 0.01960784 0.83137255
v -0.00954229 0.00968414 -0.00529474 0.08627451 0.01960784 0.83137255
v -0.01090590 -0.01506194 -0.00529474 0.08627451 0.01960784 0.83137255
v -0.01108022 -0.01514150 0.00530720 0.08627451 0.01960784 0.83137255
v -0.00954229 0.00968414 0.00530720 0.08627451 0.01960784 0.83137255
v -0.00939121 0.00950016 0.00530720 0.08627451 0.01960784 0.83137255
v -0.00938734 0.00949270 -0.00529474 0.08627451 0.01960784 0.83137255
v -0.01087878 -0.01504951 -0.00529474 0.08627451 0.01960784 0.83137255
v -0.01087878 -0.01504951 0.00530720 0.08627451 0.01960784 0.83137255
v -0.00932535 0.00939076 0.00530720 0.08627451 0.01960784 0.83137255
v -0.00932535 0.00939076 -0.00529474 0.08627451 0.01960784 0.83137255
v -0.01066572 -0.01490530 -0.00529474 0.08627451 0.01960784 0.83137255
v -0.01066572 -0.01490530 0.00530720 0.08627451 0.01960784 0.83137255
v -0.00926725 0.00928137 0.00530720 0.08627451 0.01960784 0.83137255
v -0.00926725 0.00928137 -0.00529474 0.08627451 0.01960784 0.83137255
v -0.01047590 -0.01472629 -0.00529474 0.08627451 0.01960784 0.83137255
v -0.01047590 -0.01472629 0.00530720 0.08627451 0.01960784 0.83137255
v -0.00921689 0.00916700 0.00530720 0.08627451 0.01960784 0.83137255
v -0.00921689 0.00916700 -0.00529474 0.08627451 0.01960784 0.83137255
v -0.01040229 -0.01463430 -0.00529474 0.08627451 0.01960784 0.83137255
v -0.01039455 -0.01462435 0.00530720 0.08627451 0.01960784 0.83137255
v -0.00917815 0.00905014 0.00530720 0.08627451 0.01960784 0.83137255
v -0.00917815 0.00905014 -0.00529474 0.08627451 0.01960784 0.83137255
v -0.01039455 -0.01462435 -0.00529474 0.08627451 0.01960784 0.83137255
v -0.01032869 -0.01452739 0.00530720 0.08627451 0.01960784 0.83137255
v -0.00915103 0.00893328 0.00530720 0.08627451 0.01960784 0.83137255
v -0.00915103 0.00893080 -0.00529474 0.08627451 0.01960784 0.83137255
v -0.01032481 -0.01451744 -0.00529474 0.08627451 0.01960784 0.83137255
v -0.01031707 -0.01450750 0.00530720 0.08627451 0.01960784 0.83137255
v -0.01025896 -0.01440556 -0.00529474 0.08627451 0.01960784 0.83137255
v -0.00913166 0.00881145 0.00530720 0.08627451 0.01960784 0.83137255
v -0.00913166 0.00881145 -0.00529474 0.08627451 0.01960784 0.83137255
v -0.01025896 -0.01440556 0.00530720 0.08627451 0.01960784 0.83137255
v -0.01020860 -0.01428870 -0.00529474 0.08627451 0.01960784 0.83137255
v -0.01021247 -0.01429865 0.00530720 0.08627451 0.01960784 0.83137255
v -0.00912391 0.00868714 0.00530720 0.08627451 0.01960784 0.83137255
v -0.00912391 0.00868714 -0.00529474 0.08627451 0.01960784 0.83137255
v -0.01016599 -0.01417682 0.00530720 0.08627451 0.01960784 0.83137255
v -0.01020860 -0.01428870 0.00530720 0.08627451 0.01960784 0.83137255
v -0.01016599 -0.01416688 -0.00529474 0.08627451 0.01960784 0.83137255
v -0.00912391 0.00855785 0.00530720 0.08627451 0.01960784 0.83137255
v -0.00912391 0.00853548 -0.00529474 0.08627451 0.01960784 0.83137255
v -0.01013112 -0.01404007 0.00530720 0.08627451 0.01960784 0.83137255
v -0.01016211 -0.01415444 -0.00529474 0.08627451 0.01960784 0.83137255
v -0.01013112 -0.01404007 -0.00529474 0.08627451 0.01960784 0.83137255
v -0.01001491 -0.01189689 0.00530720 0.08627451 0.01960784 0.83137255
v -0.01002653 -0.01214800 -0.00529474 0.08627451 0.01960784 0.83137255
v -0.01010788 -0.01391327 0.00530720 0.08627451 0.01960784 0.83137255
v -0.01010788 -0.01391327 -0.00529474 0.08627451 0.01960784 0.83137255
v -0.01010013 -0.01379393 0.00530720 0.08627451 0.01960784 0.83137255
v -0.01010013 -0.01378399 -0.00529474 0.08627451 0.01960784 0.83137255
f 1 2 5
f 1 5 3
f 1 3 7
f 1 7 4
f 1 4 8
f 1 8 12
f 1 12 16
f 1 16 20
f 1 20 24
f 1 24 28
f 1 28 33
f 1 33 37
f 1 37 41
f 1 41 45
f 1 45 49
f 1 49 53
f 1 53 57
f 1 57 59
f 1 59 63
f 1 63 62
f 1 62 67
f 1 67 72
f 1 72 74
f 1 74 70
f 1 70 65
f 1 65 60
f 1 60 55
f 1 55 50
f 1 50 46
f 1 46 42
f 1 42 38
f 1 38 34
f 1 34 30
f 1 30 29
f 1 29 25
f 1 25 22
f 1 22 18
f 1 18 14
f 1 14 10
f 1 10 6
f 1 6 2
f 2 6 5
f 3 5 9
f 3 9 13
f 3 13 17
f 3 17 21
f 3 21 26
f 3 26 31
f 3 31 35
f 3 35 39
f 3 39 43
f 3 43 47
f 3 47 51
f 3 51 56
f 3 56 61
f 3 61 66
f 3 66 71
f 3 71 75
f 3 75 73
f 3 73 69
f 3 69 68
f 3 68 64
f 3 64 58
f 3 58 54
f 3 54 52
f 3 52 48
f 3 48 44
f 3 44 40
f 3 40 36
f 3 36 32
f 3 32 27
f 3 27 23
f 3 23 19
f 3 19 15
f 3 15 11
f 3 11 7
f 4 7 11
f 4 11 8
f 5 6 9
f 6 10 9
f 8 11 15
f 8 15 12
f 9 10 13
f 10 14 13
f 12 15 19
f 12 19 16
f 13 14 17
f 14 18 17
f 16 19 20
f 17 18 22
f 17 22 21
f 19 23 20
f 20 23 24
f 21 22 25
f 21 25 26
f 23 27 28
f 23 28 24
f 25 29 26
f 26 29 30
f 26 30 31
f 27 32 33
f 27 33 28
f 30 34 35
f 30 35 31
f 32 36 37
f 32 37 33
f 34 38 39
f 34 39 35
f 36 40 41
f 36 41 37
f 38 42 43
f 38 43 39
f 40 44 41
f 41 44 45
f 42 46 47
f 42 47 43
f 44 48 45
f 45 48 49
f 46 50 47
f 47 50 51
f 48 52 49
f 49 52 54
f 49 54 53
f 50 55 56
f 50 56 51
f 53 54 57
f 54 58 59
f 54 59 57
f 55 60 61
f 55 61 56
f 58 62 63
f 58 63 59
f 58 64 62
f 60 65 66
f 60 66 61
f 62 64 68
f 62 68 69
f 62 69 67
f 65 70 66
f 66 70 71
f 67 69 73
f 67 73 72
f 70 74 71
f 71 74 75
f 72 73 74
f 73 75 74