# https://github.com/mikedh/trimesh
v 0.05022466 0.01049143 0.00529472 0.56470588 0.92549020 0.07058824
v 0.05022466 -0.01523840 0.00529472 0.56470588 0.92549020 0.07058824
v 0.05022466 0.01048891 -0.00530041 0.56470588 0.92549020 0.07058824
v 0.01064497 0.01015639 -0.00530041 0.56470588 0.92549020 0.07058824
v 0.01064497 0.01015639 0.00529472 0.56470588 0.92549020 0.07058824
v 0.05016832 -0.01524344 0.00529472 0.56470588 0.92549020 0.07058824
v 0.05022466 -0.01523840 -0.00530041 0.56470588 0.92549020 0.07058824
v 0.01039953 0.01013624 -0.00530041 0.56470588 0.92549020 0.07058824
v 0.01039953 0.01013624 0.00529472 0.56470588 0.92549020 0.07058824
v 0.05016832 -0.01524344 -0.00530041 0.56470588 0.92549020 0.07058824
v 0.01162269 -0.01524344 0.00529472 0.56470588 0.92549020 0.07058824
v 0.01016214 0.01007578 -0.00530041 0.56470588 0.92549020 0.07058824
v 0.01016214 0.01007578 0.00529472 0.56470588 0.92549020 0.07058824
v 0.01162269 -0.01524344 -0.00530041 0.56470588 0.92549020 0.07058824
v 0.01136518 -0.01522077 0.00529472 0.56470588 0.92549020 0.07058824
v 0.00995292 0.00998762 -0.00530041 0.56470588 0.92549020 0.07058824
v 0.01014202 0.01006823 0.00529472 0.56470588 0.92549020 0.07058824
v 0.01136518 -0.01522077 -0.00530041 0.56470588 0.92549020 0.07058824
v 0.01111170 -0.01515527 0.00529472 0.56470588 0.92549020 0.07058824
v 0.00993682 0.00998006 -0.00530041 0.56470588 0.92549020 0.07058824
v 0.00993682 0.00998006 0.00529472 0.56470588 0.92549020 0.07058824
v 0.01111170 -0.01515527 -0.00530041 0.56470588 0.92549020 0.07058824
v 0.01087833 -0.01504947 0.00529472 0.56470588 0.92549020 0.07058824
v 0.00972760 0.00984907 -0.00530041 0.56470588 0.92549020 0.07058824
v 0.00972760 0.00984907 0.00529472 0.56470588 0.92549020 0.07058824
v 0.01087833 -0.01504947 -0.00530041 0.56470588 0.92549020 0.07058824
v 0.01068923 -0.01492100 0.00529472 0.56470588 0.92549020 0.07058824
v 0.01085017 -0.01503184 -0.00530041 0.56470588 0.92549020 0.07058824
v 0.00954251 0.00968533 -0.00530041 0.56470588 0.92549020 0.07058824
v 0.00954251 0.00968533 0.00529472 0.56470588 0.92549020 0.07058824
v 0.01066509 -0.01490336 0.00529472 0.56470588 0.92549020 0.07058824
v 0.01066509 -0.01490336 -0.00530041 0.56470588 0.92549020 0.07058824
v 0.00938962 0.00949388 -0.00530041 0.56470588 0.92549020 0.07058824
v 0.00938560 0.00949136 0.00529472 0.56470588 0.92549020 0.07058824
v 0.01047598 -0.01472703 0.00529472 0.56470588 0.92549020 0.07058824
v 0.01047598 -0.01472703 -0.00530041 0.56470588 0.92549020 0.07058824
v 0.00932122 0.00938808 -0.00530041 0.56470588 0.92549020 0.07058824
v 0.00932524 0.00939060 0.00529472 0.56470588 0.92549020 0.07058824
v 0.01039551 -0.01462627 0.00529472 0.56470588 0.92549020 0.07058824
v 0.01039551 -0.01462627 -0.00530041 0.56470588 0.92549020 0.07058824
v 0.00926489 0.00928228 -0.00530041 0.56470588 0.92549020 0.07058824
v 0.00926489 0.00927976 0.00529472 0.56470588 0.92549020 0.07058824
v 0.01032308 -0.01451795 0.00529472 0.56470588 0.92549020 0.07058824
v 0.01032308 -0.01451795 -0.00530041 0.56470588 0.92549020 0.07058824
v 0.00921661 0.00916640 -0.00530041 0.56470588 0.92549020 0.07058824
v 0.00922063 0.00916892 0.00529472 0.56470588 0.92549020 0.07058824
v 0.01025871 -0.01440459 0.00529472 0.56470588 0.92549020 0.07058824
v 0.01025871 -0.01440459 -0.00530041 0.56470588 0.92549020 0.07058824
v 0.00918039 0.00905052 -0.00530041 0.56470588 0.92549020 0.07058824
v 0.00918039 0.00905052 0.00529472 0.56470588 0.92549020 0.07058824
v 0.01020640 -0.01428871 0.00529472 0.56470588 0.92549020 0.07058824
v 0.01021042 -0.01429879 -0.00530041 0.56470588 0.92549020 0.07058824
v 0.00915223 0.00893212 -0.00530041 0.56470588 0.92549020 0.07058824
v 0.00915223 0.00893212 0.00529472 0.56470588 0.92549020 0.07058824
v 0.01016617 -0.01417535 0.00529472 0.56470588 0.92549020 0.07058824
v 0.01020640 -0.01428871 -0.00530041 0.56470588 0.92549020 0.07058824
v 0.00913211 0.00881121 -0.00530041 0.56470588 0.92549020 0.07058824
v 0.00913211 0.00881121 0.00529472 0.56470588 0.92549020 0.07058824
v 0.01016617 -0.01416528 -0.00530041 0.56470588 0.92549020 0.07058824
v 0.01012995 -0.01404184 0.00529472 0.56470588 0.92549020 0.07058824
v 0.01012995 -0.01404184 -0.00530041 0.56470588 0.92549020 0.07058824
v 0.00912406 0.00868777 -0.00530041 0.56470588 0.92549020 0.07058824
v 0.00912004 0.00868777 0.00529472 0.56470588 0.92549020 0.07058824
v 0.01010984 -0.01391337 0.00529472 0.56470588 0.92549020 0.07058824
v 0.01010984 -0.01392344 -0.00530041 0.56470588 0.92549020 0.07058824
v 0.00912406 0.00854167 -0.00530041 0.56470588 0.92549020 0.07058824
v 0.00912406 0.00853411 0.00529472 0.56470588 0.92549020 0.07058824
v 0.01009776 -0.01378490 0.00529472 0.56470588 0.92549020 0.07058824
v 0.01009776 -0.01379497 -0.00530041 0.56470588 0.92549020 0.07058824
v 0.01002534 -0.01214750 0.00529472 0.56470588 0.92549020 0.07058824
f 1 2 7
f 1 7 3
f 1 3 4
f 1 4 5
f 1 5 9
f 1 9 13
f 1 13 17
f 1 17 21
f 1 21 25
f 1 25 30
f 1 30 34
f 1 34 38
f 1 38 42
f 1 42 46
f 1 46 50
f 1 50 54
f 1 54 58
f 1 58 63
f 1 63 67
f 1 67 70
f 1 70 68
f 1 68 64
f 1 64 60
f 1 60 55
f 1 55 51
f 1 51 47
f 1 47 43
f 1 43 39
f 1 39 35
f 1 35 31
f 1 31 27
f 1 27 23
f 1 23 19
f 1 19 15
f 1 15 11
f 1 11 6
f 1 6 2
f 2 6 10
f 2 10 7
f 3 7 10
f 3 10 14
f 3 14 18
f 3 18 22
f 3 22 26
f 3 26 28
f 3 28 32
f 3 32 36
f 3 36 40
f 3 40 44
f 3 44 48
f 3 48 52
f 3 52 56
f 3 56 59
f 3 59 61
f 3 61 65
f 3 65 69
f 3 69 66
f 3 66 62
f 3 62 57
f 3 57 53
f 3 53 49
f 3 49 45
f 3 45 41
f 3 41 37
f 3 37 33
f 3 33 29
f 3 29 24
f 3 24 20
f 3 20 16
f 3 16 12
f 3 12 8
f 3 8 4
f 4 8 9
f 4 9 5
f 6 11 14
f 6 14 10
f 8 12 13
f 8 13 9
f 11 15 18
f 11 18 14
f 12 16 17
f 12 17 13
f 15 19 22
f 15 22 18
f 16 20 21
f 16 21 17
f 19 23 26
f 19 26 22
f 20 24 25
f 20 25 21
f 23 27 28
f 23 28 26
f 24 29 30
f 24 30 25
f 27 31 32
f 27 32 28
f 29 33 34
f 29 34 30
f 31 35 36
f 31 36 32
f 33 37 34
f 34 37 38
f 35 39 40
f 35 40 36
f 37 41 42
f 37 42 38
f 39 43 44
f 39 44 40
f 41 45 42
f 42 45 46
f 43 47 48
f 43 48 44
f 45 49 50
f 45 50 46
f 47 51 52
f 47 52 48
f 49 53 54
f 49 54 50
f 51 55 56
f 51 56 52
f 53 57 58
f 53 58 54
f 55 59 56
f 55 60 61
f 55 61 59
f 57 62 63
f 57 63 58
f 60 64 65
f 60 65 61
f 62 66 63
f 63 66 67
f 64 68 69
f 64 69 65
f 66 69 70
f 66 70 67
f 68 70 69