# https://github.com/mikedh/trimesh
v 0.00049524 0.01015654 0.01097337 0.79607843 0.45882353 0.78039216
v 0.00049524 0.01015654 0.00683337 0.79607843 0.45882353 0.78039216
v -0.00000071 0.01015654 0.01117599 0.79607843 0.45882353 0.78039216
v 0.00049524 0.01015405 0.01117961 0.79607843 0.45882353 0.78039216
v 0.00049524 0.01013665 0.00658806 0.79607843 0.45882353 0.78039216
v -0.01064686 0.01015654 0.00530792 0.79607843 0.45882353 0.78039216
v -0.00000071 0.01013168 0.01144013 0.79607843 0.45882353 0.78039216
v 0.00049524 0.01014411 0.01130697 0.79607843 0.45882353 0.78039216
v -0.01232250 0.01015654 0.01117599 0.79607843 0.45882353 0.78039216
v -0.02463467 0.01013914 0.01137427 0.79607843 0.45882353 0.78039216
v 0.00049524 0.01007698 0.00634998 0.79607843 0.45882353 0.78039216
v 0.00049524 0.00998001 0.00612347 0.79607843 0.45882353 0.78039216
v 0.00049524 0.00991040 0.00601348 0.79607843 0.45882353 0.78039216
v 0.00049524 0.00984824 0.00591651 0.79607843 0.45882353 0.78039216
v 0.00049524 0.00984078 0.00590638 0.79607843 0.45882353 0.78039216
v 0.00049524 0.00968414 0.00573270 0.79607843 0.45882353 0.78039216
v -0.01040128 0.01013665 0.00530792 0.79607843 0.45882353 0.78039216
v -0.04869563 0.01015654 0.00530792 0.79607843 0.45882353 0.78039216
v -0.01232250 0.01012422 0.01147269 0.79607843 0.45882353 0.78039216
v 0.00049524 0.01009935 0.01156749 0.79607843 0.45882353 0.78039216
v 0.00049524 0.01013168 0.01143868 0.79607843 0.45882353 0.78039216
v -0.04869563 0.01013168 0.01144447 0.79607843 0.45882353 0.78039216
v -0.03695646 0.01015654 0.01117527 0.79607843 0.45882353 0.78039216
v 0.00049524 0.00967420 0.00572402 0.79607843 0.45882353 0.78039216
v -0.01017979 0.01008195 0.00530792 0.79607843 0.45882353 0.78039216
v 0.00049524 0.00958469 0.00565021 0.79607843 0.45882353 0.78039216
v 0.00049524 0.00948773 0.00557422 0.79607843 0.45882353 0.78039216
v 0.00049524 0.00944049 0.00554311 0.79607843 0.45882353 0.78039216
v 0.00049524 0.00939076 0.00551199 0.79607843 0.45882353 0.78039216
v 0.00049524 0.00928137 0.00545482 0.79607843 0.45882353 0.78039216
v 0.00049524 0.00922169 0.00542949 0.79607843 0.45882353 0.78039216
v 0.00049524 0.00916700 0.00540706 0.79607843 0.45882353 0.78039216
v 0.00049524 0.00910732 0.00538680 0.79607843 0.45882353 0.78039216
v 0.00049524 0.00905014 0.00536871 0.79607843 0.45882353 0.78039216
v 0.00049524 0.00898798 0.00535279 0.79607843 0.45882353 0.78039216
v 0.00049524 0.00893080 0.00533904 0.79607843 0.45882353 0.78039216
v 0.00049524 0.00886864 0.00532891 0.79607843 0.45882353 0.78039216
v 0.00049524 0.00881145 0.00532022 0.79607843 0.45882353 0.78039216
v 0.00049524 0.00880400 0.00531950 0.79607843 0.45882353 0.78039216
v 0.00049524 0.00868714 0.00531009 0.79607843 0.45882353 0.78039216
v -0.04869563 -0.01524344 0.00530792 0.79607843 0.45882353 0.78039216
v -0.04869563 0.01015654 0.01113330 0.79607843 0.45882353 0.78039216
v -0.00000071 0.01006455 0.01169702 0.79607843 0.45882353 0.78039216
v 0.00049524 0.01006455 0.01169557 0.79607843 0.45882353 0.78039216
v -0.04869563 0.01006455 0.01169702 0.79607843 0.45882353 0.78039216
v -0.04869563 0.01015405 0.01118034 0.79607843 0.45882353 0.78039216
v -0.01016053 0.01007698 0.00530792 0.79607843 0.45882353 0.78039216
v 0.00049524 0.00856531 0.00531082 0.79607843 0.45882353 0.78039216
v -0.01026165 -0.01440556 0.00530792 0.79607843 0.45882353 0.78039216
v -0.01020868 -0.01428870 0.00530792 0.79607843 0.45882353 0.78039216
v -0.01016535 -0.01416688 0.00530792 0.79607843 0.45882353 0.78039216
v -0.01013164 -0.01404007 0.00530792 0.79607843 0.45882353 0.78039216
v -0.01010756 -0.01391327 0.00530792 0.79607843 0.45882353 0.78039216
v -0.01009793 -0.01379393 0.00530792 0.79607843 0.45882353 0.78039216
v -0.00912047 0.00856531 0.00530792 0.79607843 0.45882353 0.78039216
v -0.00912047 0.00868714 0.00530792 0.79607843 0.45882353 0.78039216
v -0.00913010 0.00881145 0.00530792 0.79607843 0.45882353 0.78039216
v -0.00914936 0.00893328 0.00530792 0.79607843 0.45882353 0.78039216
v -0.00917825 0.00905014 0.00530792 0.79607843 0.45882353 0.78039216
v -0.00921677 0.00916700 0.00530792 0.79607843 0.45882353 0.78039216
v -0.00926492 0.00928137 0.00530792 0.79607843 0.45882353 0.78039216
v -0.00932271 0.00939076 0.00530792 0.79607843 0.45882353 0.78039216
v -0.00939493 0.00950016 0.00530792 0.79607843 0.45882353 0.78039216
v -0.00954902 0.00969160 0.00530792 0.79607843 0.45882353 0.78039216
v -0.00972717 0.00984824 0.00530792 0.79607843 0.45882353 0.78039216
v -0.00973680 0.00985570 0.00530792 0.79607843 0.45882353 0.78039216
v -0.00993422 0.00998001 0.00530792 0.79607843 0.45882353 0.78039216
v -0.00994867 0.00998747 0.00530792 0.79607843 0.45882353 0.78039216
v -0.04869563 -0.01524344 0.01117527 0.79607843 0.45882353 0.78039216
v -0.01161950 -0.01524344 0.00530792 0.79607843 0.45882353 0.78039216
v -0.01232250 0.01002228 0.01178748 0.79607843 0.45882353 0.78039216
v 0.00049524 0.01000736 0.01181859 0.79607843 0.45882353 0.78039216
v -0.04869563 0.00995266 0.01193365 0.79607843 0.45882353 0.78039216
v -0.02463467 0.00998001 0.01187721 0.79607843 0.45882353 0.78039216
v 0.00049524 -0.00260809 0.00579856 0.79607843 0.45882353 0.78039216
v -0.01032906 -0.01452739 0.00530792 0.79607843 0.45882353 0.78039216
v 0.00049524 -0.01378399 0.00628702 0.79607843 0.45882353 0.78039216
v -0.01254399 -0.01524344 0.01117599 0.79607843 0.45882353 0.78039216
v -0.02508247 -0.01522604 0.01137427 0.79607843 0.45882353 0.78039216
v -0.04869563 -0.01522106 0.01142059 0.79607843 0.45882353 0.78039216
v -0.01136430 -0.01522106 0.00530792 0.79607843 0.45882353 0.78039216
v 0.00049524 -0.01504951 0.00706639 0.79607843 0.45882353 0.78039216
v 0.00049524 -0.01515642 0.00730230 0.79607843 0.45882353 0.78039216
v 0.00049524 -0.01522106 0.00755196 0.79607843 0.45882353 0.78039216
v 0.00049524 -0.01524344 0.00780958 0.79607843 0.45882353 0.78039216
v 0.00049524 0.00995266 0.01193365 0.79607843 0.45882353 0.78039216
v -0.04869563 0.00994769 0.01194162 0.79607843 0.45882353 0.78039216
v -0.01232250 0.00995018 0.01193800 0.79607843 0.45882353 0.78039216
v -0.01039647 -0.01462435 0.00530792 0.79607843 0.45882353 0.78039216
v 0.00049524 -0.01384614 0.00629208 0.79607843 0.45882353 0.78039216
v -0.01046870 -0.01471635 0.00530792 0.79607843 0.45882353 0.78039216
v -0.00000071 -0.01524344 0.01117599 0.79607843 0.45882353 0.78039216
v -0.04869563 -0.01521858 0.01144374 0.79607843 0.45882353 0.78039216
v -0.00000071 -0.01521858 0.01144013 0.79607843 0.45882353 0.78039216
v -0.01111392 -0.01515642 0.00530792 0.79607843 0.45882353 0.78039216
v 0.00049524 -0.01440556 0.00644912 0.79607843 0.45882353 0.78039216
v 0.00049524 -0.01451744 0.00651207 0.79607843 0.45882353 0.78039216
v 0.00049524 -0.01456966 0.00654681 0.79607843 0.45882353 0.78039216
v 0.00049524 -0.01461938 0.00658082 0.79607843 0.45882353 0.78039216
v 0.00049524 -0.01467408 0.00662352 0.79607843 0.45882353 0.78039216
v 0.00049524 -0.01472132 0.00666187 0.79607843 0.45882353 0.78039216
v 0.00049524 -0.01490530 0.00685219 0.79607843 0.45882353 0.78039216
v 0.00049524 -0.01524344 0.01113258 0.79607843 0.45882353 0.78039216
v -0.00000071 0.00995018 0.01193800 0.79607843 0.45882353 0.78039216
v 0.00049524 0.00994769 0.01194089 0.79607843 0.45882353 0.78039216
v -0.04869563 0.00980349 0.01214858 0.79607843 0.45882353 0.78039216
v -0.03695646 0.00993277 0.01196477 0.79607843 0.45882353 0.78039216
v 0.00049524 -0.01391327 0.00629787 0.79607843 0.45882353 0.78039216
v -0.01047833 -0.01472629 0.00530792 0.79607843 0.45882353 0.78039216
v 0.00049524 -0.01524095 0.01117961 0.79607843 0.45882353 0.78039216
v 0.00049524 -0.01523101 0.01130697 0.79607843 0.45882353 0.78039216
v -0.01254399 -0.01521112 0.01147269 0.79607843 0.45882353 0.78039216
v -0.03762576 -0.01521112 0.01147269 0.79607843 0.45882353 0.78039216
v -0.04869563 -0.01515642 0.01167821 0.79607843 0.45882353 0.78039216
v 0.00049524 -0.01521858 0.01143868 0.79607843 0.45882353 0.78039216
v 0.00049524 -0.01518626 0.01156749 0.79607843 0.45882353 0.78039216
v -0.01108021 -0.01514150 0.00530792 0.79607843 0.45882353 0.78039216
v 0.00049524 -0.01404007 0.00631958 0.79607843 0.45882353 0.78039216
v 0.00049524 -0.01415942 0.00635070 0.79607843 0.45882353 0.78039216
v 0.00049524 -0.01428870 0.00639557 0.79607843 0.45882353 0.78039216
v -0.00000071 0.00987559 0.01204654 0.79607843 0.45882353 0.78039216
v -0.01232250 0.00993277 0.01196477 0.79607843 0.45882353 0.78039216
v 0.00049524 0.00987559 0.01204510 0.79607843 0.45882353 0.78039216
v -0.04869563 0.00979603 0.01215871 0.79607843 0.45882353 0.78039216
v -0.03695646 0.00981840 0.01212832 0.79607843 0.45882353 0.78039216
v -0.01087798 -0.01504951 0.00530792 0.79607843 0.45882353 0.78039216
v -0.01066611 -0.01490530 0.00530792 0.79607843 0.45882353 0.78039216
v -0.01064204 -0.01488293 0.00530792 0.79607843 0.45882353 0.78039216
v -0.04869563 -0.01515145 0.01169340 0.79607843 0.45882353 0.78039216
v -0.03762576 -0.01515145 0.01169702 0.79607843 0.45882353 0.78039216
v 0.00049524 -0.01515145 0.01169557 0.79607843 0.45882353 0.78039216
v -0.00000071 -0.01515145 0.01169702 0.79607843 0.45882353 0.78039216
v -0.00000071 0.00979851 0.01215509 0.79607843 0.45882353 0.78039216
v 0.00049524 0.00979603 0.01215799 0.79607843 0.45882353 0.78039216
v -0.01232250 0.00981840 0.01212832 0.79607843 0.45882353 0.78039216
v -0.04869563 0.00961701 0.01233745 0.79607843 0.45882353 0.78039216
v -0.03695646 0.00961204 0.01234324 0.79607843 0.45882353 0.78039216
v -0.03695646 0.00977614 0.01217897 0.79607843 0.45882353 0.78039216
v -0.01232250 0.00977614 0.01217897 0.79607843 0.45882353 0.78039216
v -0.04869563 -0.01514896 0.01170064 0.79607843 0.45882353 0.78039216
v -0.01254399 -0.01510918 0.01178748 0.79607843 0.45882353 0.78039216
v -0.02508247 -0.01506691 0.01187721 0.79607843 0.45882353 0.78039216
v -0.04869563 -0.01503956 0.01193438 0.79607843 0.45882353 0.78039216
v 0.00049524 -0.01509675 0.01181353 0.79607843 0.45882353 0.78039216
v 0.00049524 0.00970652 0.01224844 0.79607843 0.45882353 0.78039216
v -0.04869563 0.00960707 0.01234541 0.79607843 0.45882353 0.78039216
v -0.04869563 0.00940071 0.01249087 0.79607843 0.45882353 0.78039216
v -0.00000071 0.00961204 0.01234324 0.79607843 0.45882353 0.78039216
v 0.00049524 -0.01503956 0.01193438 0.79607843 0.45882353 0.78039216
v -0.04869563 -0.01503211 0.01194740 0.79607843 0.45882353 0.78039216
v 0.00049524 0.00960707 0.01234541 0.79607843 0.45882353 0.78039216
v -0.04869563 0.00939325 0.01249521 0.79607843 0.45882353 0.78039216
v -0.00000071 0.00939325 0.01249521 0.79607843 0.45882353 0.78039216
v 0.00049524 0.00939325 0.01249448 0.79607843 0.45882353 0.78039216
v 0.00049524 -0.01496249 0.01204510 0.79607843 0.45882353 0.78039216
v -0.00000071 -0.01496249 0.01204654 0.79607843 0.45882353 0.78039216
v -0.01254399 -0.01501967 0.01196477 0.79607843 0.45882353 0.78039216
v -0.01254399 -0.01490530 0.01212832 0.79607843 0.45882353 0.78039216
v -0.04869563 -0.01489784 0.01213917 0.79607843 0.45882353 0.78039216
v -0.04869563 0.00938579 0.01249883 0.79607843 0.45882353 0.78039216
v -0.00000071 0.00927391 0.01255165 0.79607843 0.45882353 0.78039216
v 0.00049524 0.00927142 0.01255237 0.79607843 0.45882353 0.78039216
v -0.01232250 0.00936341 0.01250968 0.79607843 0.45882353 0.78039216
v 0.00049524 -0.01488541 0.01215437 0.79607843 0.45882353 0.78039216
v -0.00000071 -0.01488541 0.01215509 0.79607843 0.45882353 0.78039216
v -0.04869563 -0.01488790 0.01215220 0.79607843 0.45882353 0.78039216
v -0.04869563 0.00915705 0.01260593 0.79607843 0.45882353 0.78039216
v -0.03695646 0.00936341 0.01250968 0.79607843 0.45882353 0.78039216
v 0.00049524 0.00915705 0.01260593 0.79607843 0.45882353 0.78039216
v -0.01232250 0.00930374 0.01253790 0.79607843 0.45882353 0.78039216
v 0.00049524 -0.01479342 0.01224844 0.79607843 0.45882353 0.78039216
v -0.01254399 -0.01486304 0.01217897 0.79607843 0.45882353 0.78039216
v -0.04869563 -0.01487795 0.01216378 0.79607843 0.45882353 0.78039216
v -0.04869563 0.00914710 0.01260882 0.79607843 0.45882353 0.78039216
v 0.00049524 0.00914959 0.01260882 0.79607843 0.45882353 0.78039216
v 0.00049524 -0.01469894 0.01234179 0.79607843 0.45882353 0.78039216
v -0.00000071 -0.01469894 0.01234324 0.79607843 0.45882353 0.78039216
v -0.03762576 -0.01486304 0.01217897 0.79607843 0.45882353 0.78039216
v -0.03762576 -0.01469894 0.01234324 0.79607843 0.45882353 0.78039216
v -0.04869563 -0.01470143 0.01234035 0.79607843 0.45882353 0.78039216
v -0.04869563 0.00890345 0.01267467 0.79607843 0.45882353 0.78039216
v -0.03695646 0.00892831 0.01266816 0.79607843 0.45882353 0.78039216
v -0.00000071 0.00902528 0.01264211 0.79607843 0.45882353 0.78039216
v 0.00049524 0.00889102 0.01267684 0.79607843 0.45882353 0.78039216
v -0.01232250 0.00892831 0.01266816 0.79607843 0.45882353 0.78039216
v 0.00049524 -0.01458954 0.01241850 0.79607843 0.45882353 0.78039216
v -0.00000071 -0.01448015 0.01249521 0.79607843 0.45882353 0.78039216
v -0.02508247 -0.01453485 0.01245758 0.79607843 0.45882353 0.78039216
v -0.03762576 -0.01461689 0.01240041 0.79607843 0.45882353 0.78039216
v -0.04869563 -0.01447766 0.01249738 0.79607843 0.45882353 0.78039216
v -0.04869563 -0.01468900 0.01234975 0.79607843 0.45882353 0.78039216
v -0.04869563 0.00889102 0.01267684 0.79607843 0.45882353 0.78039216
v -0.03695646 0.00889599 0.01267612 0.79607843 0.45882353 0.78039216
v -0.00000071 0.00889599 0.01267612 0.79607843 0.45882353 0.78039216
v 0.00049524 0.00875924 0.01268842 0.79607843 0.45882353 0.78039216
v -0.01232250 0.00886367 0.01267974 0.79607843 0.45882353 0.78039216
v -0.00000071 0.00863244 0.01270000 0.79607843 0.45882353 0.78039216
v 0.00049524 -0.01448015 0.01249448 0.79607843 0.45882353 0.78039216
v 0.00049524 -0.01436329 0.01255020 0.79607843 0.45882353 0.78039216
v -0.00000071 -0.01436081 0.01255165 0.79607843 0.45882353 0.78039216
v -0.01254399 -0.01445031 0.01250968 0.79607843 0.45882353 0.78039216
v -0.01254399 -0.01439064 0.01253790 0.79607843 0.45882353 0.78039216
v -0.04869563 -0.01424395 0.01260593 0.79607843 0.45882353 0.78039216
v -0.04869563 0.00863990 0.01269928 0.79607843 0.45882353 0.78039216
v 0.00049524 0.00863244 0.01269928 0.79607843 0.45882353 0.78039216
v -0.00044851 -0.00254345 0.01270000 0.79607843 0.45882353 0.78039216
v 0.00049524 0.00851807 0.01270000 0.79607843 0.45882353 0.78039216
v 0.00049524 -0.01424395 0.01260593 0.79607843 0.45882353 0.78039216
v -0.04869563 -0.01423649 0.01260882 0.79607843 0.45882353 0.78039216
v -0.04869563 -0.01372183 0.01269928 0.79607843 0.45882353 0.78039216
v -0.00000071 -0.01371934 0.01270000 0.79607843 0.45882353 0.78039216
v 0.00049524 -0.01360746 0.01270000 0.79607843 0.45882353 0.78039216
v 0.00049524 -0.01423649 0.01260882 0.79607843 0.45882353 0.78039216
v -0.04869563 -0.01422903 0.01261099 0.79607843 0.45882353 0.78039216
v -0.04869563 -0.01397046 0.01267757 0.79607843 0.45882353 0.78039216
v -0.01254399 -0.01395057 0.01267974 0.79607843 0.45882353 0.78039216
v 0.00049524 -0.01398289 0.01267612 0.79607843 0.45882353 0.78039216
v 0.00049524 -0.01371934 0.01269928 0.79607843 0.45882353 0.78039216
v 0.00049524 -0.01411218 0.01264211 0.79607843 0.45882353 0.78039216
v -0.01254399 -0.01401521 0.01266816 0.79607843 0.45882353 0.78039216
v -0.03762576 -0.01401521 0.01266816 0.79607843 0.45882353 0.78039216
v -0.04869563 -0.01398786 0.01267540 0.79607843 0.45882353 0.78039216
v -0.04869563 -0.01397792 0.01267684 0.79607843 0.45882353 0.78039216
f 1 2 6
f 1 6 18
f 1 18 42
f 1 42 23
f 1 23 9
f 1 9 3
f 1 3 4
f 1 4 8
f 1 8 21
f 1 21 20
f 1 20 44
f 1 44 72
f 1 72 86
f 1 86 105
f 1 105 123
f 1 123 134
f 1 134 145
f 1 145 151
f 1 151 154
f 1 154 162
f 1 162 169
f 1 169 175
f 1 175 184
f 1 184 195
f 1 195 205
f 1 205 207
f 1 207 212
f 1 212 218
f 1 218 217
f 1 217 219
f 1 219 213
f 1 213 208
f 1 208 199
f 1 199 198
f 1 198 186
f 1 186 176
f 1 176 171
f 1 171 164
f 1 164 155
f 1 155 149
f 1 149 144
f 1 144 131
f 1 131 116
f 1 116 115
f 1 115 111
f 1 111 110
f 1 110 103
f 1 103 85
f 1 85 84
f 1 84 83
f 1 83 82
f 1 82 102
f 1 102 101
f 1 101 100
f 1 100 99
f 1 99 98
f 1 98 97
f 1 97 96
f 1 96 120
f 1 120 119
f 1 119 118
f 1 118 108
f 1 108 90
f 1 90 77
f 1 77 75
f 1 75 48
f 1 48 40
f 1 40 39
f 1 39 38
f 1 38 37
f 1 37 36
f 1 36 35
f 1 35 34
f 1 34 33
f 1 33 32
f 1 32 31
f 1 31 30
f 1 30 29
f 1 29 28
f 1 28 27
f 1 27 26
f 1 26 24
f 1 24 16
f 1 16 15
f 1 15 14
f 1 14 13
f 1 13 12
f 1 12 11
f 1 11 5
f 1 5 2
f 2 5 6
f 3 7 8
f 3 8 4
f 3 9 10
f 3 10 7
f 5 11 6
f 6 11 12
f 6 12 13
f 6 13 14
f 6 14 15
f 6 15 16
f 6 16 17
f 6 17 25
f 6 25 47
f 6 47 68
f 6 68 67
f 6 67 66
f 6 66 65
f 6 65 64
f 6 64 63
f 6 63 62
f 6 62 61
f 6 61 60
f 6 60 59
f 6 59 58
f 6 58 57
f 6 57 56
f 6 56 55
f 6 55 54
f 6 54 53
f 6 53 52
f 6 52 51
f 6 51 50
f 6 50 49
f 6 49 76
f 6 76 89
f 6 89 91
f 6 91 109
f 6 109 128
f 6 128 127
f 6 127 126
f 6 126 117
f 6 117 95
f 6 95 81
f 6 81 70
f 6 70 41
f 6 41 18
f 7 19 20
f 7 20 21
f 7 21 8
f 7 10 22
f 7 22 19
f 9 23 10
f 10 23 22
f 16 24 17
f 17 24 26
f 17 26 27
f 17 27 28
f 17 28 29
f 17 29 30
f 17 30 31
f 17 31 32
f 17 32 33
f 17 33 34
f 17 34 35
f 17 35 36
f 17 36 37
f 17 37 38
f 17 38 39
f 17 39 40
f 17 40 25
f 18 41 69
f 18 69 80
f 18 80 93
f 18 93 114
f 18 114 129
f 18 129 140
f 18 140 143
f 18 143 150
f 18 150 159
f 18 159 166
f 18 166 173
f 18 173 180
f 18 180 191
f 18 191 190
f 18 190 203
f 18 203 209
f 18 209 214
f 18 214 222
f 18 222 223
f 18 223 215
f 18 215 210
f 18 210 204
f 18 204 192
f 18 192 181
f 18 181 174
f 18 174 167
f 18 167 160
f 18 160 152
f 18 152 147
f 18 147 146
f 18 146 136
f 18 136 124
f 18 124 106
f 18 106 87
f 18 87 73
f 18 73 45
f 18 45 22
f 18 22 46
f 18 46 42
f 19 22 20
f 20 43 44
f 20 22 45
f 20 45 43
f 22 23 46
f 23 42 46
f 25 40 47
f 40 48 49
f 40 49 50
f 40 50 51
f 40 51 52
f 40 52 53
f 40 53 54
f 40 54 55
f 40 55 56
f 40 56 57
f 40 57 58
f 40 58 59
f 40 59 60
f 40 60 61
f 40 61 62
f 40 62 63
f 40 63 64
f 40 64 65
f 40 65 66
f 40 66 67
f 40 67 68
f 40 68 47
f 41 70 85
f 41 85 103
f 41 103 92
f 41 92 78
f 41 78 69
f 43 71 72
f 43 72 44
f 43 45 71
f 45 73 74
f 45 74 71
f 48 75 49
f 49 75 77
f 49 77 76
f 69 78 79
f 69 79 80
f 70 81 82
f 70 82 83
f 70 83 84
f 70 84 85
f 71 74 72
f 72 74 86
f 73 87 88
f 73 88 104
f 73 104 86
f 73 86 74
f 76 77 89
f 77 90 91
f 77 91 89
f 78 92 79
f 79 93 80
f 79 92 94
f 79 94 93
f 81 95 96
f 81 96 97
f 81 97 98
f 81 98 99
f 81 99 100
f 81 100 101
f 81 101 102
f 81 102 82
f 86 104 121
f 86 121 105
f 87 106 107
f 87 107 88
f 88 107 122
f 88 122 104
f 90 108 91
f 91 108 109
f 92 103 110
f 92 110 111
f 92 111 94
f 93 112 113
f 93 113 114
f 93 94 112
f 94 111 115
f 94 115 116
f 94 116 112
f 95 117 118
f 95 118 119
f 95 119 120
f 95 120 96
f 104 122 121
f 105 121 123
f 106 124 135
f 106 135 125
f 106 125 107
f 107 125 135
f 107 135 121
f 107 121 122
f 108 118 126
f 108 126 127
f 108 127 128
f 108 128 109
f 112 116 113
f 113 116 114
f 114 116 130
f 114 130 129
f 116 131 132
f 116 132 130
f 117 126 118
f 121 133 134
f 121 134 123
f 121 135 133
f 124 136 137
f 124 137 138
f 124 138 139
f 124 139 134
f 124 134 133
f 124 133 135
f 129 130 140
f 130 141 142
f 130 142 143
f 130 143 140
f 130 132 141
f 131 144 132
f 132 144 141
f 134 139 145
f 136 146 137
f 137 146 147
f 137 147 148
f 137 148 139
f 137 139 138
f 139 148 145
f 141 144 142
f 142 144 149
f 142 149 143
f 143 149 150
f 145 148 151
f 147 152 153
f 147 153 148
f 148 153 154
f 148 154 151
f 149 155 156
f 149 156 157
f 149 157 150
f 150 157 156
f 150 156 158
f 150 158 159
f 152 160 168
f 152 168 163
f 152 163 153
f 153 161 162
f 153 162 154
f 153 163 170
f 153 170 161
f 155 164 156
f 156 164 165
f 156 165 158
f 158 165 159
f 159 165 166
f 160 167 168
f 161 169 162
f 161 170 169
f 163 168 170
f 164 171 165
f 165 171 172
f 165 172 173
f 165 173 166
f 167 170 168
f 167 174 175
f 167 175 169
f 167 169 170
f 171 176 177
f 171 177 172
f 172 178 173
f 172 177 179
f 172 179 178
f 173 178 179
f 173 179 180
f 174 181 182
f 174 182 175
f 175 183 194
f 175 194 184
f 175 182 185
f 175 185 183
f 176 186 177
f 177 186 198
f 177 198 187
f 177 187 188
f 177 188 189
f 177 189 179
f 179 189 190
f 179 190 191
f 179 191 180
f 181 185 182
f 181 192 193
f 181 193 194
f 181 194 185
f 183 185 194
f 184 194 193
f 184 193 192
f 184 192 196
f 184 196 197
f 184 197 195
f 187 198 199
f 187 199 200
f 187 200 202
f 187 202 201
f 187 201 190
f 187 190 188
f 188 190 189
f 190 201 202
f 190 202 203
f 192 204 196
f 195 197 205
f 196 204 197
f 197 206 211
f 197 211 212
f 197 212 207
f 197 207 205
f 197 204 206
f 199 208 200
f 200 208 202
f 202 208 203
f 203 208 213
f 203 213 209
f 204 210 206
f 206 210 211
f 209 213 214
f 210 215 216
f 210 216 211
f 211 217 218
f 211 218 212
f 211 216 217
f 213 219 220
f 213 220 214
f 214 220 221
f 214 221 222
f 215 223 216
f 216 223 217
f 217 223 222
f 217 222 220
f 217 220 219
f 220 222 221