# https://github.com/mikedh/trimesh
v -0.05119976 0.00931850 0.01269998 0.54509804 0.71372549 0.60000000
v -0.05119976 0.00968238 0.01267512 0.54509804 0.71372549 0.60000000
v -0.05119976 -0.01268747 0.01269998 0.54509804 0.71372549 0.60000000
v -0.04869564 0.00863182 0.01269998 0.54509804 0.71372549 0.60000000
v -0.05119976 0.01390809 0.01218034 0.54509804 0.71372549 0.60000000
v -0.04869564 0.00889006 0.01267512 0.54509804 0.71372549 0.60000000
v -0.05119976 -0.01304842 0.01267760 0.54509804 0.71372549 0.60000000
v -0.05016869 -0.01371749 0.01269998 0.54509804 0.71372549 0.60000000
v -0.04869564 -0.01338589 0.01269998 0.54509804 0.71372549 0.60000000
v -0.05119976 0.01401079 0.01215548 0.54509804 0.71372549 0.60000000
v -0.04869564 0.00890473 0.01267263 0.54509804 0.71372549 0.60000000
v -0.05119976 -0.01342404 0.01260799 0.54509804 0.71372549 0.60000000
v -0.05053714 -0.01408724 0.01260799 0.54509804 0.71372549 0.60000000
v -0.05035573 -0.01390530 0.01267512 0.54509804 0.71372549 0.60000000
v -0.05032411 -0.01393171 0.01267512 0.54509804 0.71372549 0.60000000
v -0.05028881 -0.01395518 0.01267512 0.54509804 0.71372549 0.60000000
v -0.05025032 -0.01396986 0.01267512 0.54509804 0.71372549 0.60000000
v -0.05021012 -0.01397866 0.01267512 0.54509804 0.71372549 0.60000000
v -0.05016869 -0.01398160 0.01267512 0.54509804 0.71372549 0.60000000
v -0.04869564 -0.01396986 0.01267760 0.54509804 0.71372549 0.60000000
v -0.04869564 -0.01373803 0.01269749 0.54509804 0.71372549 0.60000000
v -0.05119976 0.01411937 0.01211321 0.54509804 0.71372549 0.60000000
v -0.04869564 0.00914829 0.01260799 0.54509804 0.71372549 0.60000000
v -0.04869564 0.00915710 0.01260550 0.54509804 0.71372549 0.60000000
v -0.05119976 -0.01375857 0.01249610 0.54509804 0.71372549 0.60000000
v -0.05047512 -0.01414006 0.01260799 0.54509804 0.71372549 0.60000000
v -0.05070751 -0.01425744 0.01249362 0.54509804 0.71372549 0.60000000
v -0.05040525 -0.01418114 0.01260799 0.54509804 0.71372549 0.60000000
v -0.05032975 -0.01421342 0.01260799 0.54509804 0.71372549 0.60000000
v -0.05025008 -0.01423397 0.01260799 0.54509804 0.71372549 0.60000000
v -0.05016869 -0.01423983 0.01260799 0.54509804 0.71372549 0.60000000
v -0.04869564 -0.01398747 0.01267512 0.54509804 0.71372549 0.60000000
v -0.05119976 0.01436000 0.01196901 0.54509804 0.71372549 0.60000000
v -0.04869564 0.00938599 0.01249859 0.54509804 0.71372549 0.60000000
v -0.04869564 0.00940066 0.01249113 0.54509804 0.71372549 0.60000000
v -0.05119976 -0.01376444 0.01249362 0.54509804 0.71372549 0.60000000
v -0.05061657 -0.01433374 0.01249362 0.54509804 0.71372549 0.60000000
v -0.05051458 -0.01439830 0.01249362 0.54509804 0.71372549 0.60000000
v -0.05086122 -0.01441004 0.01234195 0.54509804 0.71372549 0.60000000
v -0.05074453 -0.01450981 0.01234195 0.54509804 0.71372549 0.60000000
v -0.05119976 -0.01407257 0.01234195 0.54509804 0.71372549 0.60000000
v -0.05040403 -0.01444232 0.01249362 0.54509804 0.71372549 0.60000000
v -0.05028783 -0.01447166 0.01249362 0.54509804 0.71372549 0.60000000
v -0.05016869 -0.01448046 0.01249362 0.54509804 0.71372549 0.60000000
v -0.04869564 -0.01424864 0.01260301 0.54509804 0.71372549 0.60000000
v -0.04869564 -0.01423690 0.01260799 0.54509804 0.71372549 0.60000000
v -0.04869564 -0.01422810 0.01261047 0.54509804 0.71372549 0.60000000
v -0.04869564 -0.01446286 0.01250356 0.54509804 0.71372549 0.60000000
v -0.05118088 0.01437174 0.01193669 0.54509804 0.71372549 0.60000000
v -0.05119976 0.01439815 0.01193669 0.54509804 0.71372549 0.60000000
v -0.04869564 0.00960608 0.01234444 0.54509804 0.71372549 0.60000000
v -0.05061338 -0.01459198 0.01234195 0.54509804 0.71372549 0.60000000
v -0.05047144 -0.01465067 0.01234195 0.54509804 0.71372549 0.60000000
v -0.05099408 -0.01454209 0.01215548 0.54509804 0.71372549 0.60000000
v -0.05085484 -0.01466240 0.01215548 0.54509804 0.71372549 0.60000000
v -0.05119976 -0.01433667 0.01215548 0.54509804 0.71372549 0.60000000
v -0.05032190 -0.01468588 0.01234195 0.54509804 0.71372549 0.60000000
v -0.05016869 -0.01469762 0.01234195 0.54509804 0.71372549 0.60000000
v -0.04869564 -0.01447753 0.01249610 0.54509804 0.71372549 0.60000000
v -0.04869564 -0.01468882 0.01234941 0.54509804 0.71372549 0.60000000
v -0.05108356 0.01442750 0.01169552 0.54509804 0.71372549 0.60000000
v -0.05119976 0.01459183 0.01169552 0.54509804 0.71372549 0.60000000
v -0.04869564 0.00961488 0.01233698 0.54509804 0.71372549 0.60000000
v -0.04869564 0.00979389 0.01215797 0.54509804 0.71372549 0.60000000
v -0.05069869 -0.01475924 0.01215548 0.54509804 0.71372549 0.60000000
v -0.05052929 -0.01482967 0.01215548 0.54509804 0.71372549 0.60000000
v -0.05119976 -0.01455383 0.01193669 0.54509804 0.71372549 0.60000000
v -0.05110194 -0.01465067 0.01193669 0.54509804 0.71372549 0.60000000
v -0.05119976 -0.01433961 0.01215299 0.54509804 0.71372549 0.60000000
v -0.05094432 -0.01478565 0.01193669 0.54509804 0.71372549 0.60000000
v -0.05035132 -0.01487076 0.01215548 0.54509804 0.71372549 0.60000000
v -0.05016869 -0.01488543 0.01215548 0.54509804 0.71372549 0.60000000
v -0.04869564 -0.01471229 0.01232952 0.54509804 0.71372549 0.60000000
v -0.05102423 0.01446271 0.01143943 0.54509804 0.71372549 0.60000000
v -0.05117426 0.01467693 0.01143943 0.54509804 0.71372549 0.60000000
v -0.04869564 0.00980269 0.01214802 0.54509804 0.71372549 0.60000000
v -0.04869564 0.00994942 0.01194166 0.54509804 0.71372549 0.60000000
v -0.05119976 0.01465345 0.01156374 0.54509804 0.71372549 0.60000000
v -0.05076782 -0.01489423 0.01193669 0.54509804 0.71372549 0.60000000
v -0.05057636 -0.01497346 0.01193669 0.54509804 0.71372549 0.60000000
v -0.05037510 -0.01502042 0.01193669 0.54509804 0.71372549 0.60000000
v -0.05119976 -0.01471229 0.01169552 0.54509804 0.71372549 0.60000000
v -0.05118137 -0.01472990 0.01169552 0.54509804 0.71372549 0.60000000
v -0.05101026 -0.01487662 0.01169552 0.54509804 0.71372549 0.60000000
v -0.05016869 -0.01503802 0.01193669 0.54509804 0.71372549 0.60000000
v -0.04869564 -0.01489717 0.01213808 0.54509804 0.71372549 0.60000000
v -0.04869564 -0.01488836 0.01215051 0.54509804 0.71372549 0.60000000
v -0.04869564 -0.01487662 0.01216294 0.54509804 0.71372549 0.60000000
v -0.04869564 -0.01503215 0.01194663 0.54509804 0.71372549 0.60000000
v -0.05100413 0.01447445 0.01117588 0.54509804 0.71372549 0.60000000
v -0.04869564 0.01006093 0.01170297 0.54509804 0.71372549 0.60000000
v -0.04869564 0.01006386 0.01169552 0.54509804 0.71372549 0.60000000
v -0.04869564 0.01013136 0.01144440 0.54509804 0.71372549 0.60000000
v -0.05115637 0.01469160 0.01117588 0.54509804 0.71372549 0.60000000
v -0.05119976 0.01470627 0.01139965 0.54509804 0.71372549 0.60000000
v -0.05119976 0.01470041 0.01143943 0.54509804 0.71372549 0.60000000
v -0.05081881 -0.01499401 0.01169552 0.54509804 0.71372549 0.60000000
v -0.05061117 -0.01507911 0.01169552 0.54509804 0.71372549 0.60000000
v -0.05039275 -0.01513193 0.01169552 0.54509804 0.71372549 0.60000000
v -0.05119976 -0.01475044 0.01159855 0.54509804 0.71372549 0.60000000
v -0.05105071 -0.01493238 0.01143943 0.54509804 0.71372549 0.60000000
v -0.05084994 -0.01505563 0.01143943 0.54509804 0.71372549 0.60000000
v -0.04869564 -0.01504389 0.01192674 0.54509804 0.71372549 0.60000000
v -0.05016869 -0.01514954 0.01169552 0.54509804 0.71372549 0.60000000
v -0.04869564 -0.01514954 0.01170049 0.54509804 0.71372549 0.60000000
v -0.05100413 0.01447445 -0.01117592 0.54509804 0.71372549 0.60000000
v -0.05108013 0.01458303 -0.00000002 0.54509804 0.71372549 0.60000000
v -0.04869564 0.01015483 0.01117837 0.54509804 0.71372549 0.60000000
v -0.05115637 0.01469160 -0.01117592 0.54509804 0.71372549 0.60000000
v -0.05119976 0.01473562 -0.00000002 0.54509804 0.71372549 0.60000000
v -0.05119976 0.01473269 0.01117588 0.54509804 0.71372549 0.60000000
v -0.05063250 -0.01514660 0.01143943 0.54509804 0.71372549 0.60000000
v -0.05040329 -0.01519942 0.01143943 0.54509804 0.71372549 0.60000000
v -0.05016869 -0.01521996 0.01143943 0.54509804 0.71372549 0.60000000
v -0.05119976 -0.01480620 0.01143943 0.54509804 0.71372549 0.60000000
v -0.05119976 -0.01483554 0.01117588 0.54509804 0.71372549 0.60000000
v -0.05106444 -0.01494999 0.01117588 0.54509804 0.71372549 0.60000000
v -0.05086048 -0.01507617 0.01117588 0.54509804 0.71372549 0.60000000
v -0.04869564 -0.01515247 0.01169303 0.54509804 0.71372549 0.60000000
v -0.05102399 0.01447445 -0.01140466 0.54509804 0.71372549 0.60000000
v -0.04869564 0.01015483 -0.01118338 0.54509804 0.71372549 0.60000000
v -0.04869564 0.01013136 -0.01144444 0.54509804 0.71372549 0.60000000
v -0.05117426 0.01469160 -0.01137731 0.54509804 0.71372549 0.60000000
v -0.05119976 0.01471801 -0.01137234 0.54509804 0.71372549 0.60000000
v -0.05119976 0.01473562 -0.01117592 0.54509804 0.71372549 0.60000000
v -0.05063961 -0.01516714 0.01117588 0.54509804 0.71372549 0.60000000
v -0.05040697 -0.01522290 0.01117588 0.54509804 0.71372549 0.60000000
v -0.05016869 -0.01524344 0.01117588 0.54509804 0.71372549 0.60000000
v -0.04869564 -0.01524344 0.01117588 0.54509804 0.71372549 0.60000000
v -0.04869564 -0.01521996 0.01143445 0.54509804 0.71372549 0.60000000
v -0.04869564 -0.01521703 0.01145186 0.54509804 0.71372549 0.60000000
v -0.05119976 -0.01483554 -0.01117592 0.54509804 0.71372549 0.60000000
v -0.05115539 -0.01487369 -0.00000002 0.54509804 0.71372549 0.60000000
v -0.05106444 -0.01494999 -0.01117592 0.54509804 0.71372549 0.60000000
v -0.05096246 -0.01501455 -0.00000002 0.54509804 0.71372549 0.60000000
v -0.05086048 -0.01507617 -0.01117592 0.54509804 0.71372549 0.60000000
v -0.05108356 0.01447445 -0.01162594 0.54509804 0.71372549 0.60000000
v -0.05119976 0.01469160 -0.01147428 0.54509804 0.71372549 0.60000000
v -0.04869564 0.01006386 -0.01169556 0.54509804 0.71372549 0.60000000
v -0.04869564 0.01006093 -0.01170301 0.54509804 0.71372549 0.60000000
v -0.04869564 0.00994942 -0.01194170 0.54509804 0.71372549 0.60000000
v -0.05063961 -0.01516714 -0.01117592 0.54509804 0.71372549 0.60000000
v -0.05052341 -0.01519649 -0.00000002 0.54509804 0.71372549 0.60000000
v -0.05040697 -0.01522290 -0.01117592 0.54509804 0.71372549 0.60000000
v -0.05016869 -0.01524344 -0.01117592 0.54509804 0.71372549 0.60000000
v -0.04869564 -0.01524344 -0.01117592 0.54509804 0.71372549 0.60000000
v -0.05119976 -0.01480620 -0.01143947 0.54509804 0.71372549 0.60000000
v -0.05105071 -0.01493238 -0.01143947 0.54509804 0.71372549 0.60000000
v -0.05084994 -0.01505563 -0.01143947 0.54509804 0.71372549 0.60000000
v -0.05063250 -0.01514660 -0.01143947 0.54509804 0.71372549 0.60000000
v -0.05118088 0.01447445 -0.01183479 0.54509804 0.71372549 0.60000000
v -0.05119976 0.01465052 -0.01158367 0.54509804 0.71372549 0.60000000
v -0.04869564 0.00980269 -0.01214806 0.54509804 0.71372549 0.60000000
v -0.05040329 -0.01519942 -0.01143947 0.54509804 0.71372549 0.60000000
v -0.05016869 -0.01521996 -0.01143947 0.54509804 0.71372549 0.60000000
v -0.04869564 -0.01521996 -0.01143449 0.54509804 0.71372549 0.60000000
v -0.05119976 -0.01475044 -0.01159859 0.54509804 0.71372549 0.60000000
v -0.05101026 -0.01487662 -0.01169556 0.54509804 0.71372549 0.60000000
v -0.05081881 -0.01499401 -0.01169556 0.54509804 0.71372549 0.60000000
v -0.05061117 -0.01507911 -0.01169556 0.54509804 0.71372549 0.60000000
v -0.05039275 -0.01513193 -0.01169556 0.54509804 0.71372549 0.60000000
v -0.05119976 0.01447445 -0.01186214 0.54509804 0.71372549 0.60000000
v -0.05119976 0.01450379 -0.01182484 0.54509804 0.71372549 0.60000000
v -0.04869564 0.00979389 -0.01215801 0.54509804 0.71372549 0.60000000
v -0.04869564 0.00961488 -0.01233702 0.54509804 0.71372549 0.60000000
v -0.04869564 0.00960608 -0.01234448 0.54509804 0.71372549 0.60000000
v -0.04869564 -0.01521703 -0.01145190 0.54509804 0.71372549 0.60000000
v -0.05016869 -0.01514954 -0.01169556 0.54509804 0.71372549 0.60000000
v -0.04869564 -0.01515247 -0.01169307 0.54509804 0.71372549 0.60000000
v -0.05118113 -0.01472990 -0.01169556 0.54509804 0.71372549 0.60000000
v -0.05119976 -0.01471229 -0.01169556 0.54509804 0.71372549 0.60000000
v -0.05076782 -0.01489423 -0.01193673 0.54509804 0.71372549 0.60000000
v -0.05110194 -0.01465067 -0.01193673 0.54509804 0.71372549 0.60000000
v -0.05094432 -0.01478565 -0.01193673 0.54509804 0.71372549 0.60000000
v -0.05057636 -0.01497346 -0.01193673 0.54509804 0.71372549 0.60000000
v -0.05037510 -0.01502042 -0.01193673 0.54509804 0.71372549 0.60000000
v -0.05016869 -0.01503802 -0.01193673 0.54509804 0.71372549 0.60000000
v -0.05119976 0.01437467 -0.01194170 0.54509804 0.71372549 0.60000000
v -0.04869564 0.00940066 -0.01249117 0.54509804 0.71372549 0.60000000
v -0.05119976 0.01423088 -0.01205607 0.54509804 0.71372549 0.60000000
v -0.04869564 -0.01514954 -0.01170053 0.54509804 0.71372549 0.60000000
v -0.05119976 -0.01455383 -0.01193673 0.54509804 0.71372549 0.60000000
v -0.05069869 -0.01475924 -0.01215552 0.54509804 0.71372549 0.60000000
v -0.05052929 -0.01482967 -0.01215552 0.54509804 0.71372549 0.60000000
v -0.05085484 -0.01466240 -0.01215552 0.54509804 0.71372549 0.60000000
v -0.05099408 -0.01454209 -0.01215552 0.54509804 0.71372549 0.60000000
v -0.05035132 -0.01487076 -0.01215552 0.54509804 0.71372549 0.60000000
v -0.05016869 -0.01488543 -0.01215552 0.54509804 0.71372549 0.60000000
v -0.04869564 -0.01503215 -0.01194667 0.54509804 0.71372549 0.60000000
v -0.04869564 -0.01504389 -0.01192678 0.54509804 0.71372549 0.60000000
v -0.04869564 0.00938599 -0.01249863 0.54509804 0.71372549 0.60000000
v -0.05119976 0.01410176 -0.01211823 0.54509804 0.71372549 0.60000000
v -0.05119976 -0.01433667 -0.01215552 0.54509804 0.71372549 0.60000000
v -0.05061338 -0.01459198 -0.01234199 0.54509804 0.71372549 0.60000000
v -0.05047119 -0.01465067 -0.01234199 0.54509804 0.71372549 0.60000000
v -0.05032190 -0.01468588 -0.01234199 0.54509804 0.71372549 0.60000000
v -0.05086122 -0.01441004 -0.01234199 0.54509804 0.71372549 0.60000000
v -0.05074453 -0.01450981 -0.01234199 0.54509804 0.71372549 0.60000000
v -0.05119976 -0.01408430 -0.01233453 0.54509804 0.71372549 0.60000000
v -0.05016869 -0.01469762 -0.01234199 0.54509804 0.71372549 0.60000000
v -0.04869564 -0.01471229 -0.01232956 0.54509804 0.71372549 0.60000000
v -0.04869564 -0.01487662 -0.01216298 0.54509804 0.71372549 0.60000000
v -0.04869564 -0.01488836 -0.01215055 0.54509804 0.71372549 0.60000000
v -0.04869564 -0.01489717 -0.01213812 0.54509804 0.71372549 0.60000000
v -0.04869564 0.00915710 -0.01260554 0.54509804 0.71372549 0.60000000
v -0.05119976 0.01397558 -0.01216547 0.54509804 0.71372549 0.60000000
v -0.05051458 -0.01439830 -0.01249366 0.54509804 0.71372549 0.60000000
v -0.05040403 -0.01444232 -0.01249366 0.54509804 0.71372549 0.60000000
v -0.05028783 -0.01447166 -0.01249366 0.54509804 0.71372549 0.60000000
v -0.05119976 -0.01407257 -0.01234199 0.54509804 0.71372549 0.60000000
v -0.05070751 -0.01425744 -0.01249366 0.54509804 0.71372549 0.60000000
v -0.05061657 -0.01433374 -0.01249366 0.54509804 0.71372549 0.60000000
v -0.05016869 -0.01448046 -0.01249366 0.54509804 0.71372549 0.60000000
v -0.04869564 -0.01468882 -0.01234945 0.54509804 0.71372549 0.60000000
v -0.04869564 0.00914829 -0.01260803 0.54509804 0.71372549 0.60000000
v -0.05119976 0.01371147 -0.01219779 0.54509804 0.71372549 0.60000000
v -0.04869564 0.00890473 -0.01267267 0.54509804 0.71372549 0.60000000
v -0.04869564 0.00889006 -0.01267516 0.54509804 0.71372549 0.60000000
v -0.05047487 -0.01414006 -0.01260803 0.54509804 0.71372549 0.60000000
v -0.05040525 -0.01418114 -0.01260803 0.54509804 0.71372549 0.60000000
v -0.05032975 -0.01421342 -0.01260803 0.54509804 0.71372549 0.60000000
v -0.05025008 -0.01423397 -0.01260803 0.54509804 0.71372549 0.60000000
v -0.05119976 -0.01376444 -0.01249366 0.54509804 0.71372549 0.60000000
v -0.05119976 -0.01342404 -0.01260803 0.54509804 0.71372549 0.60000000
v -0.05053714 -0.01408724 -0.01260803 0.54509804 0.71372549 0.60000000
v -0.05016869 -0.01423983 -0.01260803 0.54509804 0.71372549 0.60000000
v -0.04869564 -0.01446286 -0.01250360 0.54509804 0.71372549 0.60000000
v -0.04869564 -0.01447753 -0.01249614 0.54509804 0.71372549 0.60000000
v -0.05119976 0.00968238 -0.01267516 0.54509804 0.71372549 0.60000000
v -0.04869564 0.00863182 -0.01270002 0.54509804 0.71372549 0.60000000
v -0.05035573 -0.01390530 -0.01267516 0.54509804 0.71372549 0.60000000
v -0.05032411 -0.01393171 -0.01267516 0.54509804 0.71372549 0.60000000
v -0.05028881 -0.01395518 -0.01267516 0.54509804 0.71372549 0.60000000
v -0.05025032 -0.01396986 -0.01267516 0.54509804 0.71372549 0.60000000
v -0.05021012 -0.01397866 -0.01267516 0.54509804 0.71372549 0.60000000
v -0.05119976 -0.01307483 -0.01267267 0.54509804 0.71372549 0.60000000
v -0.05016869 -0.01398160 -0.01267516 0.54509804 0.71372549 0.60000000
v -0.04869564 -0.01398747 -0.01267516 0.54509804 0.71372549 0.60000000
v -0.04869564 -0.01422810 -0.01261051 0.54509804 0.71372549 0.60000000
v -0.04869564 -0.01423690 -0.01260803 0.54509804 0.71372549 0.60000000
v -0.04869564 -0.01424864 -0.01260305 0.54509804 0.71372549 0.60000000
v -0.05119976 0.00931850 -0.01270002 0.54509804 0.71372549 0.60000000
v -0.04869564 -0.01339176 -0.01270002 0.54509804 0.71372549 0.60000000
v -0.05016869 -0.01371749 -0.01270002 0.54509804 0.71372549 0.60000000
v -0.05119976 -0.01306016 -0.01267516 0.54509804 0.71372549 0.60000000
v -0.05119976 -0.01268747 -0.01270002 0.54509804 0.71372549 0.60000000
v -0.04869564 -0.01396986 -0.01267764 0.54509804 0.71372549 0.60000000
v -0.04869564 -0.01373803 -0.01269753 0.54509804 0.71372549 0.60000000
f 1 2 5
f 1 5 10
f 1 10 22
f 1 22 33
f 1 33 50
f 1 50 62
f 1 62 78
f 1 78 96
f 1 96 95
f 1 95 111
f 1 111 110
f 1 110 125
f 1 125 124
f 1 124 138
f 1 138 152
f 1 152 163
f 1 163 162
f 1 162 178
f 1 178 180
f 1 180 192
f 1 192 206
f 1 206 216
f 1 216 229
f 1 229 242
f 1 242 246
f 1 246 245
f 1 245 236
f 1 236 224
f 1 224 223
f 1 223 210
f 1 210 199
f 1 199 193
f 1 193 182
f 1 182 171
f 1 171 157
f 1 157 147
f 1 147 132
f 1 132 116
f 1 116 115
f 1 115 100
f 1 100 82
f 1 82 67
f 1 67 69
f 1 69 56
f 1 56 41
f 1 41 36
f 1 36 25
f 1 25 12
f 1 12 7
f 1 7 3
f 1 3 8
f 1 8 9
f 1 9 4
f 1 4 2
f 2 4 6
f 2 6 5
f 3 7 8
f 4 9 21
f 4 21 20
f 4 20 32
f 4 32 47
f 4 47 46
f 4 46 45
f 4 45 48
f 4 48 59
f 4 59 60
f 4 60 73
f 4 73 88
f 4 88 87
f 4 87 86
f 4 86 89
f 4 89 103
f 4 103 105
f 4 105 119
f 4 119 131
f 4 131 130
f 4 130 129
f 4 129 146
f 4 146 156
f 4 156 167
f 4 167 169
f 4 169 181
f 4 181 190
f 4 190 189
f 4 189 204
f 4 204 203
f 4 203 202
f 4 202 201
f 4 201 214
f 4 214 228
f 4 228 227
f 4 227 241
f 4 241 240
f 4 240 239
f 4 239 238
f 4 238 247
f 4 247 248
f 4 248 243
f 4 243 230
f 4 230 218
f 4 218 217
f 4 217 215
f 4 215 205
f 4 205 191
f 4 191 179
f 4 179 166
f 4 166 165
f 4 165 164
f 4 164 153
f 4 153 141
f 4 141 140
f 4 140 139
f 4 139 122
f 4 122 121
f 4 121 108
f 4 108 93
f 4 93 92
f 4 92 91
f 4 91 77
f 4 77 76
f 4 76 64
f 4 64 63
f 4 63 51
f 4 51 35
f 4 35 34
f 4 34 24
f 4 24 23
f 4 23 11
f 4 11 6
f 5 6 11
f 5 11 10
f 7 12 13
f 7 13 14
f 7 14 8
f 8 14 15
f 8 15 16
f 8 16 17
f 8 17 18
f 8 18 19
f 8 19 20
f 8 20 21
f 8 21 9
f 10 11 23
f 10 23 24
f 10 24 22
f 12 25 13
f 13 26 14
f 13 25 27
f 13 27 26
f 14 26 15
f 15 26 16
f 16 26 28
f 16 28 29
f 16 29 17
f 17 29 30
f 17 30 18
f 18 30 31
f 18 31 19
f 19 31 32
f 19 32 20
f 22 24 34
f 22 34 35
f 22 35 33
f 25 36 27
f 26 27 37
f 26 37 38
f 26 38 28
f 27 39 40
f 27 40 37
f 27 36 41
f 27 41 39
f 28 38 29
f 29 38 42
f 29 42 30
f 30 42 43
f 30 43 44
f 30 44 31
f 31 45 46
f 31 46 47
f 31 47 32
f 31 44 48
f 31 48 45
f 33 49 50
f 33 35 51
f 33 51 49
f 37 40 38
f 38 40 52
f 38 52 53
f 38 53 42
f 39 41 54
f 39 54 55
f 39 55 40
f 40 55 52
f 41 56 54
f 42 53 43
f 43 53 57
f 43 57 58
f 43 58 44
f 44 59 48
f 44 58 60
f 44 60 59
f 49 61 62
f 49 62 50
f 49 51 63
f 49 63 64
f 49 64 61
f 52 55 65
f 52 65 66
f 52 66 53
f 53 66 57
f 54 67 68
f 54 68 55
f 54 56 69
f 54 69 67
f 55 68 70
f 55 70 65
f 57 66 71
f 57 71 72
f 57 72 58
f 58 72 73
f 58 73 60
f 61 74 75
f 61 75 62
f 61 64 76
f 61 76 77
f 61 77 74
f 62 75 78
f 65 70 79
f 65 79 66
f 66 79 80
f 66 80 81
f 66 81 71
f 67 82 68
f 68 82 83
f 68 83 84
f 68 84 70
f 70 84 79
f 71 81 85
f 71 85 72
f 72 86 87
f 72 87 88
f 72 88 73
f 72 85 89
f 72 89 86
f 74 90 75
f 74 77 91
f 74 91 92
f 74 92 93
f 74 93 90
f 75 90 94
f 75 94 95
f 75 95 96
f 75 96 78
f 79 84 97
f 79 97 80
f 80 97 98
f 80 98 99
f 80 99 81
f 81 99 85
f 82 100 83
f 83 100 84
f 84 101 102
f 84 102 97
f 84 100 101
f 85 103 89
f 85 99 104
f 85 104 105
f 85 105 103
f 90 106 107
f 90 107 94
f 90 93 108
f 90 108 121
f 90 121 106
f 94 107 109
f 94 109 125
f 94 125 110
f 94 110 111
f 94 111 95
f 97 102 112
f 97 112 98
f 98 112 99
f 99 112 113
f 99 113 114
f 99 114 104
f 100 115 101
f 101 115 116
f 101 116 117
f 101 117 118
f 101 118 102
f 102 118 112
f 104 119 105
f 104 114 119
f 106 120 109
f 106 109 107
f 106 121 122
f 106 122 120
f 109 123 124
f 109 124 125
f 109 120 123
f 112 118 126
f 112 126 127
f 112 127 113
f 113 127 114
f 114 127 128
f 114 128 129
f 114 129 130
f 114 130 131
f 114 131 119
f 116 132 133
f 116 133 117
f 117 133 134
f 117 134 135
f 117 135 118
f 118 135 136
f 118 136 142
f 118 142 126
f 120 137 138
f 120 138 123
f 120 122 139
f 120 139 140
f 120 140 141
f 120 141 137
f 123 138 124
f 126 142 143
f 126 143 127
f 127 144 145
f 127 145 128
f 127 143 144
f 128 145 146
f 128 146 129
f 132 147 148
f 132 148 134
f 132 134 133
f 134 148 136
f 134 136 135
f 136 148 149
f 136 149 150
f 136 150 142
f 137 151 152
f 137 152 138
f 137 141 153
f 137 153 151
f 142 144 143
f 142 150 144
f 144 150 154
f 144 154 155
f 144 155 145
f 145 155 146
f 146 155 156
f 147 157 148
f 148 157 158
f 148 158 149
f 149 159 150
f 149 158 159
f 150 159 160
f 150 160 161
f 150 161 154
f 151 162 163
f 151 163 152
f 151 153 164
f 151 164 165
f 151 165 166
f 151 166 162
f 154 161 155
f 155 167 156
f 155 161 168
f 155 168 169
f 155 169 167
f 157 170 158
f 157 171 170
f 158 172 159
f 158 170 173
f 158 173 174
f 158 174 172
f 159 175 160
f 159 172 175
f 160 175 161
f 161 175 176
f 161 176 177
f 161 177 168
f 162 166 178
f 166 179 180
f 166 180 178
f 168 177 181
f 168 181 169
f 170 171 173
f 171 182 173
f 172 174 183
f 172 183 184
f 172 184 175
f 173 185 174
f 173 182 186
f 173 186 185
f 174 185 183
f 175 184 176
f 176 184 187
f 176 187 177
f 177 187 188
f 177 188 189
f 177 189 190
f 177 190 181
f 179 191 180
f 180 191 192
f 182 193 186
f 183 185 194
f 183 194 184
f 184 194 195
f 184 195 196
f 184 196 187
f 185 186 197
f 185 197 198
f 185 198 194
f 186 193 199
f 186 199 197
f 187 196 188
f 188 196 200
f 188 200 201
f 188 201 202
f 188 202 203
f 188 203 204
f 188 204 189
f 191 205 192
f 192 205 206
f 194 198 207
f 194 207 195
f 195 207 208
f 195 208 209
f 195 209 196
f 196 209 200
f 197 199 210
f 197 210 211
f 197 211 198
f 198 211 212
f 198 212 207
f 200 209 213
f 200 213 214
f 200 214 201
f 205 215 206
f 206 215 217
f 206 217 218
f 206 218 216
f 207 212 219
f 207 219 220
f 207 220 221
f 207 221 208
f 208 221 222
f 208 222 209
f 209 222 213
f 210 223 211
f 211 223 224
f 211 224 225
f 211 225 219
f 211 219 212
f 213 222 226
f 213 226 227
f 213 227 228
f 213 228 214
f 216 218 229
f 218 230 229
f 219 225 231
f 219 231 232
f 219 232 233
f 219 233 220
f 220 233 221
f 221 233 234
f 221 234 222
f 222 234 235
f 222 235 226
f 224 236 225
f 225 236 231
f 226 235 237
f 226 237 238
f 226 238 239
f 226 239 240
f 226 240 241
f 226 241 227
f 229 230 242
f 230 243 244
f 230 244 246
f 230 246 242
f 231 244 232
f 231 236 245
f 231 245 246
f 231 246 244
f 232 244 233
f 233 244 234
f 234 244 235
f 235 244 237
f 237 244 247
f 237 247 238
f 243 248 244
f 244 248 247