# https://github.com/mikedh/trimesh
v 0.05022465 0.01049144 0.00799776 0.43529412 0.89019608 0.96078431
v 0.05022465 0.01048892 0.01117560 0.43529412 0.89019608 0.96078431
v 0.05022465 0.01048892 0.00529545 0.43529412 0.89019608 0.96078431
v 0.00049525 0.01015640 0.00683362 0.43529412 0.89019608 0.96078431
v 0.00049525 0.01015640 0.01097336 0.43529412 0.89019608 0.96078431
v 0.05022465 0.01046876 0.01138798 0.43529412 0.89019608 0.96078431
v 0.00049525 0.01015388 0.01117995 0.43529412 0.89019608 0.96078431
v 0.00049525 0.01014380 0.01130680 0.43529412 0.89019608 0.96078431
v 0.05022465 -0.01523840 0.00529545 0.43529412 0.89019608 0.96078431
v 0.01064460 0.01015640 0.00529545 0.43529412 0.89019608 0.96078431
v 0.00049525 0.01013624 0.00658862 0.43529412 0.89019608 0.96078431
v 0.05022465 0.01046121 0.01144017 0.43529412 0.89019608 0.96078431
v 0.00049525 0.01013121 0.01143872 0.43529412 0.89019608 0.96078431
v 0.05022465 -0.01523840 0.01117560 0.43529412 0.89019608 0.96078431
v 0.05016624 -0.01524344 0.00529545 0.43529412 0.89019608 0.96078431
v 0.01040121 0.01013624 0.00529545 0.43529412 0.89019608 0.96078431
v 0.00049525 0.00984907 0.00591594 0.43529412 0.89019608 0.96078431
v 0.00049525 0.00998006 0.00612397 0.43529412 0.89019608 0.96078431
v 0.00049525 0.01002541 0.00622980 0.43529412 0.89019608 0.96078431
v 0.00049525 0.01007579 0.00635013 0.43529412 0.89019608 0.96078431
v 0.00049525 0.01013373 0.00657702 0.43529412 0.89019608 0.96078431
v 0.05022465 0.01037808 0.01169678 0.43529412 0.89019608 0.96078431
v 0.00049525 0.01009846 0.01156703 0.43529412 0.89019608 0.96078431
v 0.00049525 0.01006319 0.01169533 0.43529412 0.89019608 0.96078431
v 0.05022465 -0.01521573 0.01144017 0.43529412 0.89019608 0.96078431
v 0.05016624 -0.01524344 0.01117560 0.43529412 0.89019608 0.96078431
v 0.01162303 -0.01524344 0.00529545 0.43529412 0.89019608 0.96078431
v 0.01016269 0.01007579 0.00529545 0.43529412 0.89019608 0.96078431
v 0.00049525 0.00868778 0.00531067 0.43529412 0.89019608 0.96078431
v 0.00049525 0.00880365 0.00531937 0.43529412 0.89019608 0.96078431
v 0.00049525 0.00881121 0.00532009 0.43529412 0.89019608 0.96078431
v 0.00049525 0.00886915 0.00532879 0.43529412 0.89019608 0.96078431
v 0.00049525 0.00893213 0.00533894 0.43529412 0.89019608 0.96078431
v 0.00049525 0.00905052 0.00536866 0.43529412 0.89019608 0.96078431
v 0.00049525 0.00916892 0.00540708 0.43529412 0.89019608 0.96078431
v 0.00049525 0.00928228 0.00545492 0.43529412 0.89019608 0.96078431
v 0.00049525 0.00939060 0.00551218 0.43529412 0.89019608 0.96078431
v 0.00049525 0.00948884 0.00557380 0.43529412 0.89019608 0.96078431
v 0.00049525 0.00958457 0.00564991 0.43529412 0.89019608 0.96078431
v 0.00049525 0.00968533 0.00573254 0.43529412 0.89019608 0.96078431
v 0.05022465 0.01031510 0.01180841 0.43529412 0.89019608 0.96078431
v 0.00049525 0.01000777 0.01181856 0.43529412 0.89019608 0.96078431
v 0.00049525 0.00994983 0.01194106 0.43529412 0.89019608 0.96078431
v 0.05022465 -0.01516283 0.01163589 0.43529412 0.89019608 0.96078431
v 0.05016624 -0.01515023 0.01169678 0.43529412 0.89019608 0.96078431
v 0.05016624 -0.01521825 0.01144017 0.43529412 0.89019608 0.96078431
v 0.02508736 -0.01522581 0.01137421 0.43529412 0.89019608 0.96078431
v 0.01254304 -0.01524344 0.01117560 0.43529412 0.89019608 0.96078431
v 0.00049525 -0.01524344 0.00780930 0.43529412 0.89019608 0.96078431
v 0.00049525 -0.01522077 0.00755197 0.43529412 0.89019608 0.96078431
v 0.00049525 -0.01515527 0.00730189 0.43529412 0.89019608 0.96078431
v 0.00049525 -0.01510489 0.00718808 0.43529412 0.89019608 0.96078431
v 0.01136504 -0.01522077 0.00529545 0.43529412 0.89019608 0.96078431
v 0.01014322 0.01006823 0.00529545 0.43529412 0.89019608 0.96078431
v 0.00049525 0.00856434 0.00531067 0.43529412 0.89019608 0.96078431
v 0.00993390 0.00998006 0.00529545 0.43529412 0.89019608 0.96078431
v 0.00972946 0.00984907 0.00529545 0.43529412 0.89019608 0.96078431
v 0.00954448 0.00968533 0.00529545 0.43529412 0.89019608 0.96078431
v 0.00938871 0.00949136 0.00529545 0.43529412 0.89019608 0.96078431
v 0.00932543 0.00939060 0.00529545 0.43529412 0.89019608 0.96078431
v 0.00926702 0.00927976 0.00529545 0.43529412 0.89019608 0.96078431
v 0.00921834 0.00916892 0.00529545 0.43529412 0.89019608 0.96078431
v 0.00917940 0.00905052 0.00529545 0.43529412 0.89019608 0.96078431
v 0.00915019 0.00893213 0.00529545 0.43529412 0.89019608 0.96078431
v 0.00913072 0.00881121 0.00529545 0.43529412 0.89019608 0.96078431
v 0.00912098 0.00868778 0.00529545 0.43529412 0.89019608 0.96078431
v 0.05022465 0.01024205 0.01193744 0.43529412 0.89019608 0.96078431
v 0.00049525 0.00987678 0.01204544 0.43529412 0.89019608 0.96078431
v 0.05022465 -0.01514520 0.01169678 0.43529412 0.89019608 0.96078431
v 0.02508736 -0.01516787 0.01163299 0.43529412 0.89019608 0.96078431
v 0.03762193 -0.01521069 0.01147207 0.43529412 0.89019608 0.96078431
v 0.05022465 -0.01503436 0.01193744 0.43529412 0.89019608 0.96078431
v 0.05016624 -0.01503688 0.01193744 0.43529412 0.89019608 0.96078431
v 0.03762193 -0.01505199 0.01190772 0.43529412 0.89019608 0.96078431
v 0.02508736 -0.01506710 0.01187727 0.43529412 0.89019608 0.96078431
v 0.01254304 -0.01515023 0.01169678 0.43529412 0.89019608 0.96078431
v 0.01254304 -0.01521825 0.01144017 0.43529412 0.89019608 0.96078431
v 0.00049525 -0.01521825 0.01143872 0.43529412 0.89019608 0.96078431
v 0.01254304 -0.01522832 0.01134087 0.43529412 0.89019608 0.96078431
v 0.00049525 -0.01523084 0.01130680 0.43529412 0.89019608 0.96078431
v 0.00049525 -0.01524092 0.01117922 0.43529412 0.89019608 0.96078431
v 0.00049525 -0.01524344 0.01113210 0.43529412 0.89019608 0.96078431
v 0.00049525 -0.01504947 0.00706630 0.43529412 0.89019608 0.96078431
v 0.01111191 -0.01515527 0.00529545 0.43529412 0.89019608 0.96078431
v 0.00049525 -0.01497390 0.00695540 0.43529412 0.89019608 0.96078431
v 0.00049525 -0.01490336 0.00685247 0.43529412 0.89019608 0.96078431
v 0.00049525 -0.01481268 0.00675534 0.43529412 0.89019608 0.96078431
v 0.00049525 -0.01472199 0.00666183 0.43529412 0.89019608 0.96078431
v 0.00049525 -0.01467413 0.00662341 0.43529412 0.89019608 0.96078431
v 0.00049525 -0.01462123 0.00658137 0.43529412 0.89019608 0.96078431
v 0.00049525 -0.01451795 0.00651250 0.43529412 0.89019608 0.96078431
v 0.00049525 -0.00260776 0.00579851 0.43529412 0.89019608 0.96078431
v 0.00912098 0.00856434 0.00529545 0.43529412 0.89019608 0.96078431
v 0.01002639 -0.01214750 0.00529545 0.43529412 0.89019608 0.96078431
v 0.01009941 -0.01378489 0.00529545 0.43529412 0.89019608 0.96078431
v 0.01010915 -0.01391337 0.00529545 0.43529412 0.89019608 0.96078431
v 0.01012862 -0.01402925 0.00529545 0.43529412 0.89019608 0.96078431
v 0.01016269 -0.01416528 0.00529545 0.43529412 0.89019608 0.96078431
v 0.01020650 -0.01428871 0.00529545 0.43529412 0.89019608 0.96078431
v 0.05022465 0.01019670 0.01199108 0.43529412 0.89019608 0.96078431
v 0.00049525 0.00979617 0.01215780 0.43529412 0.89019608 0.96078431
v 0.00049525 -0.01518550 0.01156703 0.43529412 0.89019608 0.96078431
v 0.01254304 -0.01521069 0.01147207 0.43529412 0.89019608 0.96078431
v 0.05022465 -0.01492352 0.01209618 0.43529412 0.89019608 0.96078431
v 0.05016624 -0.01488573 0.01215490 0.43529412 0.89019608 0.96078431
v 0.03762193 -0.01501924 0.01196498 0.43529412 0.89019608 0.96078431
v 0.00049525 -0.01503688 0.01194106 0.43529412 0.89019608 0.96078431
v 0.00049525 -0.01515023 0.01169533 0.43529412 0.89019608 0.96078431
v 0.01087826 -0.01504947 0.00529545 0.43529412 0.89019608 0.96078431
v 0.00049525 -0.01446001 0.00647916 0.43529412 0.89019608 0.96078431
v 0.00049525 -0.01440459 0.00644872 0.43529412 0.89019608 0.96078431
v 0.00049525 -0.01428871 0.00639580 0.43529412 0.89019608 0.96078431
v 0.00049525 -0.01423077 0.00637478 0.43529412 0.89019608 0.96078431
v 0.00049525 -0.01416024 0.00635086 0.43529412 0.89019608 0.96078431
v 0.00049525 -0.01378489 0.00628707 0.43529412 0.89019608 0.96078431
v 0.01025518 -0.01439451 0.00529545 0.43529412 0.89019608 0.96078431
v 0.05022465 0.01005563 0.01215490 0.43529412 0.89019608 0.96078431
v 0.00049525 0.00970548 0.01224840 0.43529412 0.89019608 0.96078431
v 0.05022465 -0.01488069 0.01215490 0.43529412 0.89019608 0.96078431
v 0.03762193 -0.01490588 0.01212808 0.43529412 0.89019608 0.96078431
v 0.05022465 -0.01469428 0.01234336 0.43529412 0.89019608 0.96078431
v 0.05016624 -0.01469680 0.01234336 0.43529412 0.89019608 0.96078431
v 0.03762193 -0.01486306 0.01217882 0.43529412 0.89019608 0.96078431
v 0.01254304 -0.01488573 0.01215490 0.43529412 0.89019608 0.96078431
v 0.00049525 -0.01496382 0.01204544 0.43529412 0.89019608 0.96078431
v 0.01068841 -0.01492100 0.00529545 0.43529412 0.89019608 0.96078431
v 0.00049525 -0.01404184 0.00631969 0.43529412 0.89019608 0.96078431
v 0.00049525 -0.01384535 0.00629214 0.43529412 0.89019608 0.96078431
v 0.01026005 -0.01440459 0.00529545 0.43529412 0.89019608 0.96078431
v 0.01032333 -0.01451795 0.00529545 0.43529412 0.89019608 0.96078431
v 0.01039635 -0.01462627 0.00529545 0.43529412 0.89019608 0.96078431
v 0.05022465 0.00989441 0.01230205 0.43529412 0.89019608 0.96078431
v 0.00049525 0.00960724 0.01234554 0.43529412 0.89019608 0.96078431
v 0.01254304 -0.01490588 0.01212808 0.43529412 0.89019608 0.96078431
v 0.05022465 -0.01455573 0.01243977 0.43529412 0.89019608 0.96078431
v 0.05016624 -0.01448016 0.01249559 0.43529412 0.89019608 0.96078431
v 0.03762193 -0.01472199 0.01231944 0.43529412 0.89019608 0.96078431
v 0.03762193 -0.01467161 0.01236221 0.43529412 0.89019608 0.96078431
v 0.00049525 -0.01469932 0.01234191 0.43529412 0.89019608 0.96078431
v 0.01254304 -0.01486306 0.01217882 0.43529412 0.89019608 0.96078431
v 0.00049525 -0.01488573 0.01215417 0.43529412 0.89019608 0.96078431
v 0.01066407 -0.01490336 0.00529545 0.43529412 0.89019608 0.96078431
v 0.00049525 -0.01391337 0.00629794 0.43529412 0.89019608 0.96078431
v 0.01047910 -0.01472703 0.00529545 0.43529412 0.89019608 0.96078431
v 0.05022465 0.00984907 0.01234336 0.43529412 0.89019608 0.96078431
v 0.00049525 0.00939564 0.01249486 0.43529412 0.89019608 0.96078431
v 0.05022465 -0.01447512 0.01249559 0.43529412 0.89019608 0.96078431
v 0.03762193 -0.01450787 0.01247674 0.43529412 0.89019608 0.96078431
v 0.05022465 -0.01434917 0.01255503 0.43529412 0.89019608 0.96078431
v 0.05022465 -0.01423581 0.01260794 0.43529412 0.89019608 0.96078431
v 0.05016624 -0.01423833 0.01260794 0.43529412 0.89019608 0.96078431
v 0.00049525 -0.01436428 0.01254995 0.43529412 0.89019608 0.96078431
v 0.01254304 -0.01448016 0.01249559 0.43529412 0.89019608 0.96078431
v 0.01254304 -0.01472199 0.01231944 0.43529412 0.89019608 0.96078431
v 0.00049525 -0.01459100 0.01241875 0.43529412 0.89019608 0.96078431
v 0.01254304 -0.01467161 0.01236221 0.43529412 0.89019608 0.96078431
v 0.00049525 -0.01479253 0.01224840 0.43529412 0.89019608 0.96078431
v 0.05022465 0.00960976 0.01249559 0.43529412 0.89019608 0.96078431
v 0.00049525 0.00927220 0.01255213 0.43529412 0.89019608 0.96078431
v 0.01254304 -0.01450787 0.01247674 0.43529412 0.89019608 0.96078431
v 0.05022465 -0.01415520 0.01262969 0.43529412 0.89019608 0.96078431
v 0.05016624 -0.01398390 0.01267680 0.43529412 0.89019608 0.96078431
v 0.03762193 -0.01420810 0.01261664 0.43529412 0.89019608 0.96078431
v 0.01254304 -0.01423833 0.01260794 0.43529412 0.89019608 0.96078431
v 0.00049525 -0.01424337 0.01260577 0.43529412 0.89019608 0.96078431
v 0.00049525 -0.01448016 0.01249486 0.43529412 0.89019608 0.96078431
v 0.05022465 0.00934526 0.01260794 0.43529412 0.89019608 0.96078431
v 0.00049525 0.00915632 0.01260577 0.43529412 0.89019608 0.96078431
v 0.05022465 -0.01397634 0.01267680 0.43529412 0.89019608 0.96078431
v 0.05021005 -0.01397886 0.01267680 0.43529412 0.89019608 0.96078431
v 0.05016624 -0.01371940 0.01270000 0.43529412 0.89019608 0.96078431
v 0.01254304 -0.01398390 0.01267680 0.43529412 0.89019608 0.96078431
v 0.01254304 -0.01420810 0.01261664 0.43529412 0.89019608 0.96078431
v 0.00049525 -0.01423581 0.01260867 0.43529412 0.89019608 0.96078431
v 0.05022465 0.00906312 0.01267680 0.43529412 0.89019608 0.96078431
v 0.00049525 0.00914877 0.01260867 0.43529412 0.89019608 0.96078431
v 0.00049525 0.00902030 0.01264346 0.43529412 0.89019608 0.96078431
v 0.00049525 0.00889182 0.01267680 0.43529412 0.89019608 0.96078431
v 0.05022465 -0.01389070 0.01268405 0.43529412 0.89019608 0.96078431
v 0.05022465 -0.01382772 0.01268913 0.43529412 0.89019608 0.96078431
v 0.05022465 -0.01377482 0.01269275 0.43529412 0.89019608 0.96078431
v 0.05022465 -0.01366398 0.01269927 0.43529412 0.89019608 0.96078431
v 0.05022465 -0.01281001 0.01270000 0.43529412 0.89019608 0.96078431
v 0.01254304 -0.01371940 0.01270000 0.43529412 0.89019608 0.96078431
v 0.00049525 -0.01385291 0.01268768 0.43529412 0.89019608 0.96078431
v 0.00049525 -0.01398390 0.01267608 0.43529412 0.89019608 0.96078431
v 0.00049525 -0.01411238 0.01264201 0.43529412 0.89019608 0.96078431
v 0.05022465 0.00879106 0.01270000 0.43529412 0.89019608 0.96078431
v 0.00049525 0.00876083 0.01268840 0.43529412 0.89019608 0.96078431
v 0.00049525 -0.01360604 0.01270000 0.43529412 0.89019608 0.96078431
v 0.00049525 -0.01371940 0.01269927 0.43529412 0.89019608 0.96078431
v 0.00049525 0.00863236 0.01269927 0.43529412 0.89019608 0.96078431
v 0.01231913 0.00863236 0.01270000 0.43529412 0.89019608 0.96078431
v 0.00049525 0.00851900 0.01270000 0.43529412 0.89019608 0.96078431
f 1 2 6
f 1 6 12
f 1 12 22
f 1 22 41
f 1 41 67
f 1 67 100
f 1 100 117
f 1 117 132
f 1 132 145
f 1 145 158
f 1 158 167
f 1 167 175
f 1 175 188
f 1 188 183
f 1 183 182
f 1 182 181
f 1 181 180
f 1 180 179
f 1 179 169
f 1 169 161
f 1 161 150
f 1 150 149
f 1 149 147
f 1 147 135
f 1 135 121
f 1 121 119
f 1 119 104
f 1 104 72
f 1 72 69
f 1 69 44
f 1 44 25
f 1 25 14
f 1 14 9
f 1 9 3
f 1 3 4
f 1 4 5
f 1 5 2
f 2 5 7
f 2 7 8
f 2 8 6
f 3 9 15
f 3 15 27
f 3 27 53
f 3 53 84
f 3 84 109
f 3 109 126
f 3 126 142
f 3 142 144
f 3 144 131
f 3 131 130
f 3 130 129
f 3 129 116
f 3 116 99
f 3 99 98
f 3 98 97
f 3 97 96
f 3 96 95
f 3 95 94
f 3 94 93
f 3 93 66
f 3 66 65
f 3 65 64
f 3 64 63
f 3 63 62
f 3 62 61
f 3 61 60
f 3 60 59
f 3 59 58
f 3 58 57
f 3 57 56
f 3 56 54
f 3 54 28
f 3 28 16
f 3 16 10
f 3 10 4
f 4 11 21
f 4 21 20
f 4 20 19
f 4 19 18
f 4 18 17
f 4 17 40
f 4 40 39
f 4 39 38
f 4 38 37
f 4 37 36
f 4 36 35
f 4 35 34
f 4 34 33
f 4 33 32
f 4 32 31
f 4 31 30
f 4 30 29
f 4 29 55
f 4 55 92
f 4 92 115
f 4 115 128
f 4 128 143
f 4 143 127
f 4 127 114
f 4 114 113
f 4 113 112
f 4 112 111
f 4 111 110
f 4 110 91
f 4 91 90
f 4 90 89
f 4 89 88
f 4 88 87
f 4 87 86
f 4 86 85
f 4 85 83
f 4 83 52
f 4 52 51
f 4 51 50
f 4 50 49
f 4 49 82
f 4 82 81
f 4 81 80
f 4 80 78
f 4 78 102
f 4 102 108
f 4 108 107
f 4 107 125
f 4 125 141
f 4 141 157
f 4 157 139
f 4 139 155
f 4 155 166
f 4 166 152
f 4 152 165
f 4 165 174
f 4 174 187
f 4 187 186
f 4 186 185
f 4 185 191
f 4 191 190
f 4 190 194
f 4 194 192
f 4 192 189
f 4 189 178
f 4 178 177
f 4 177 176
f 4 176 168
f 4 168 159
f 4 159 146
f 4 146 133
f 4 133 118
f 4 118 101
f 4 101 68
f 4 68 43
f 4 43 42
f 4 42 24
f 4 24 23
f 4 23 13
f 4 13 8
f 4 8 7
f 4 7 5
f 4 10 11
f 6 8 13
f 6 13 12
f 9 14 26
f 9 26 15
f 10 16 17
f 10 17 18
f 10 18 19
f 10 19 20
f 10 20 21
f 10 21 11
f 12 13 23
f 12 23 24
f 12 24 22
f 14 25 26
f 15 26 48
f 15 48 82
f 15 82 49
f 15 49 27
f 16 28 29
f 16 29 30
f 16 30 31
f 16 31 32
f 16 32 33
f 16 33 34
f 16 34 35
f 16 35 36
f 16 36 37
f 16 37 38
f 16 38 39
f 16 39 40
f 16 40 17
f 22 24 42
f 22 42 43
f 22 43 41
f 25 44 45
f 25 45 46
f 25 46 26
f 26 46 47
f 26 47 48
f 27 49 50
f 27 50 51
f 27 51 52
f 27 52 53
f 28 54 29
f 29 54 56
f 29 56 57
f 29 57 58
f 29 58 59
f 29 59 60
f 29 60 61
f 29 61 62
f 29 62 63
f 29 63 64
f 29 64 65
f 29 65 66
f 29 66 93
f 29 93 55
f 41 43 67
f 43 68 67
f 44 69 45
f 45 70 71
f 45 71 46
f 45 69 72
f 45 72 73
f 45 73 74
f 45 74 75
f 45 75 76
f 45 76 70
f 46 71 103
f 46 103 77
f 46 77 47
f 47 77 78
f 47 78 79
f 47 79 48
f 48 79 80
f 48 80 81
f 48 81 82
f 52 83 53
f 53 83 85
f 53 85 86
f 53 86 87
f 53 87 88
f 53 88 89
f 53 89 90
f 53 90 91
f 53 91 84
f 55 93 94
f 55 94 95
f 55 95 96
f 55 96 97
f 55 97 98
f 55 98 99
f 55 99 92
f 67 68 101
f 67 101 100
f 70 76 102
f 70 102 71
f 71 102 103
f 72 104 105
f 72 105 73
f 73 105 120
f 73 120 106
f 73 106 107
f 73 107 74
f 74 107 75
f 75 107 76
f 76 107 108
f 76 108 102
f 77 103 78
f 78 80 79
f 78 103 102
f 84 91 110
f 84 110 111
f 84 111 112
f 84 112 113
f 84 113 114
f 84 114 109
f 92 99 115
f 99 116 115
f 100 101 117
f 101 118 117
f 104 119 105
f 105 119 121
f 105 121 122
f 105 122 123
f 105 123 140
f 105 140 124
f 105 124 134
f 105 134 120
f 106 120 107
f 107 120 125
f 109 114 127
f 109 127 126
f 115 116 129
f 115 129 130
f 115 130 131
f 115 131 128
f 117 118 133
f 117 133 132
f 120 134 125
f 121 135 136
f 121 136 122
f 122 137 123
f 122 136 138
f 122 138 139
f 122 139 137
f 123 137 154
f 123 154 140
f 124 140 141
f 124 141 134
f 125 134 141
f 126 127 143
f 126 143 142
f 128 131 143
f 131 144 143
f 132 133 145
f 133 146 145
f 135 147 136
f 136 148 138
f 136 147 149
f 136 149 150
f 136 150 151
f 136 151 152
f 136 152 153
f 136 153 160
f 136 160 148
f 137 139 154
f 138 148 155
f 138 155 156
f 138 156 139
f 139 156 155
f 139 157 140
f 139 140 154
f 140 157 141
f 142 143 144
f 145 146 158
f 146 159 158
f 148 160 155
f 150 161 162
f 150 162 151
f 151 162 163
f 151 163 173
f 151 173 174
f 151 174 164
f 151 164 165
f 151 165 152
f 152 166 153
f 153 166 160
f 155 160 166
f 158 159 168
f 158 168 167
f 161 169 170
f 161 170 162
f 162 170 171
f 162 171 184
f 162 184 172
f 162 172 173
f 162 173 163
f 164 174 165
f 167 168 176
f 167 176 177
f 167 177 178
f 167 178 175
f 169 179 171
f 169 171 170
f 171 179 180
f 171 180 181
f 171 181 182
f 171 182 183
f 171 183 188
f 171 188 193
f 171 193 194
f 171 194 190
f 171 190 184
f 172 184 185
f 172 185 186
f 172 186 187
f 172 187 173
f 173 187 174
f 175 178 189
f 175 189 188
f 184 190 191
f 184 191 185
f 188 189 192
f 188 192 193
f 192 194 193