# https://github.com/mikedh/trimesh
v 0.05022466 -0.01523606 -0.01117588 0.54117647 0.42352941 0.64313725
v 0.05022466 -0.01523606 0.01117592 0.54117647 0.42352941 0.64313725
v 0.05022466 -0.01523307 -0.01123804 0.54117647 0.42352941 0.64313725
v 0.05040773 -0.01522413 -0.01117588 0.54117647 0.42352941 0.64313725
v 0.05028822 -0.01523307 0.00000002 0.54117647 0.42352941 0.64313725
v 0.05040773 -0.01522413 0.01117592 0.54117647 0.42352941 0.64313725
v 0.05022466 -0.01522114 0.01137731 0.54117647 0.42352941 0.64313725
v 0.05022466 -0.01521518 -0.01143943 0.54117647 0.42352941 0.64313725
v 0.05040518 -0.01520026 -0.01143943 0.54117647 0.42352941 0.64313725
v 0.05063402 -0.01514656 -0.01143943 0.54117647 0.42352941 0.64313725
v 0.05064165 -0.01516744 -0.01117588 0.54117647 0.42352941 0.64313725
v 0.05040518 -0.01520026 0.01143947 0.54117647 0.42352941 0.64313725
v 0.05064165 -0.01516744 0.01117592 0.54117647 0.42352941 0.64313725
v 0.05063402 -0.01514656 0.01143947 0.54117647 0.42352941 0.64313725
v 0.05022466 -0.01521518 0.01143947 0.54117647 0.42352941 0.64313725
v 0.05022466 -0.01514656 -0.01169552 0.54117647 0.42352941 0.64313725
v 0.05039501 -0.01513165 -0.01169552 0.54117647 0.42352941 0.64313725
v 0.05061368 -0.01508093 -0.01169552 0.54117647 0.42352941 0.64313725
v 0.05081963 -0.01499442 -0.01169552 0.54117647 0.42352941 0.64313725
v 0.05085014 -0.01505409 -0.01143943 0.54117647 0.42352941 0.64313725
v 0.05086285 -0.01507497 -0.01117588 0.54117647 0.42352941 0.64313725
v 0.05075098 -0.01512270 0.00000002 0.54117647 0.42352941 0.64313725
v 0.05061368 -0.01508093 0.01169556 0.54117647 0.42352941 0.64313725
v 0.05039501 -0.01513165 0.01169556 0.54117647 0.42352941 0.64313725
v 0.05022466 -0.01514656 0.01169556 0.54117647 0.42352941 0.64313725
v 0.05086285 -0.01507497 0.01117592 0.54117647 0.42352941 0.64313725
v 0.05085014 -0.01505409 0.01143947 0.54117647 0.42352941 0.64313725
v 0.05081963 -0.01499442 0.01169556 0.54117647 0.42352941 0.64313725
v 0.05022466 -0.01511673 -0.01176016 0.54117647 0.42352941 0.64313725
v 0.05037722 -0.01502127 -0.01193669 0.54117647 0.42352941 0.64313725
v 0.05057808 -0.01497354 -0.01193669 0.54117647 0.42352941 0.64313725
v 0.05076878 -0.01489300 -0.01193669 0.54117647 0.42352941 0.64313725
v 0.05094676 -0.01478561 -0.01193669 0.54117647 0.42352941 0.64313725
v 0.05101287 -0.01487510 -0.01169552 0.54117647 0.42352941 0.64313725
v 0.05105101 -0.01493178 -0.01143943 0.54117647 0.42352941 0.64313725
v 0.05106626 -0.01494968 -0.01117588 0.54117647 0.42352941 0.64313725
v 0.05057808 -0.01497354 0.01193673 0.54117647 0.42352941 0.64313725
v 0.05037722 -0.01502127 0.01193673 0.54117647 0.42352941 0.64313725
v 0.05022466 -0.01503320 0.01193673 0.54117647 0.42352941 0.64313725
v 0.05106626 -0.01494968 0.01117592 0.54117647 0.42352941 0.64313725
v 0.05105101 -0.01493178 0.01143947 0.54117647 0.42352941 0.64313725
v 0.05101287 -0.01487510 0.01169556 0.54117647 0.42352941 0.64313725
v 0.05094676 -0.01478561 0.01193673 0.54117647 0.42352941 0.64313725
v 0.05076878 -0.01489300 0.01193673 0.54117647 0.42352941 0.64313725
v 0.05022466 -0.01503320 -0.01193669 0.54117647 0.42352941 0.64313725
v 0.05035179 -0.01487212 -0.01215548 0.54117647 0.42352941 0.64313725
v 0.05052977 -0.01482737 -0.01215548 0.54117647 0.42352941 0.64313725
v 0.05070013 -0.01475876 -0.01215548 0.54117647 0.42352941 0.64313725
v 0.05085523 -0.01466330 -0.01215548 0.54117647 0.42352941 0.64313725
v 0.05110440 -0.01465136 -0.01193669 0.54117647 0.42352941 0.64313725
v 0.05118322 -0.01473191 -0.01169552 0.54117647 0.42352941 0.64313725
v 0.05123154 -0.01477964 -0.01143943 0.54117647 0.42352941 0.64313725
v 0.05124679 -0.01479456 -0.01117588 0.54117647 0.42352941 0.64313725
v 0.05115780 -0.01487212 0.00000002 0.54117647 0.42352941 0.64313725
v 0.05070013 -0.01475876 0.01215552 0.54117647 0.42352941 0.64313725
v 0.05052977 -0.01482737 0.01215552 0.54117647 0.42352941 0.64313725
v 0.05035179 -0.01487212 0.01215552 0.54117647 0.42352941 0.64313725
v 0.05022466 -0.01492283 0.01209585 0.54117647 0.42352941 0.64313725
v 0.05124679 -0.01479456 0.01117592 0.54117647 0.42352941 0.64313725
v 0.05123154 -0.01477964 0.01143947 0.54117647 0.42352941 0.64313725
v 0.05118322 -0.01473191 0.01169556 0.54117647 0.42352941 0.64313725
v 0.05110440 -0.01465136 0.01193673 0.54117647 0.42352941 0.64313725
v 0.05085523 -0.01466330 0.01215552 0.54117647 0.42352941 0.64313725
v 0.05022466 -0.01488107 -0.01215548 0.54117647 0.42352941 0.64313725
v 0.05022466 -0.01469313 -0.01234195 0.54117647 0.42352941 0.64313725
v 0.05032382 -0.01468418 -0.01234195 0.54117647 0.42352941 0.64313725
v 0.05047383 -0.01464838 -0.01234195 0.54117647 0.42352941 0.64313725
v 0.05061368 -0.01459170 -0.01234195 0.54117647 0.42352941 0.64313725
v 0.05074590 -0.01451116 -0.01234195 0.54117647 0.42352941 0.64313725
v 0.05099507 -0.01454397 -0.01215548 0.54117647 0.42352941 0.64313725
v 0.07550078 0.00995940 -0.01215548 0.54117647 0.42352941 0.64313725
v 0.07560758 0.00985200 -0.01193669 0.54117647 0.42352941 0.64313725
v 0.06956124 0.00364711 -0.01169552 0.54117647 0.42352941 0.64313725
v 0.07573725 0.00972373 -0.01143943 0.54117647 0.42352941 0.64313725
v 0.05737449 -0.00867020 -0.01117588 0.54117647 0.42352941 0.64313725
v 0.05074590 -0.01451116 0.01234199 0.54117647 0.42352941 0.64313725
v 0.05061368 -0.01459170 0.01234199 0.54117647 0.42352941 0.64313725
v 0.05047383 -0.01464838 0.01234199 0.54117647 0.42352941 0.64313725
v 0.05032382 -0.01468418 0.01234199 0.54117647 0.42352941 0.64313725
v 0.05022466 -0.01469313 0.01234199 0.54117647 0.42352941 0.64313725
v 0.05022466 -0.01488107 0.01215552 0.54117647 0.42352941 0.64313725
v 0.05737449 -0.00867020 0.01117592 0.54117647 0.42352941 0.64313725
v 0.07573725 0.00972373 0.01143947 0.54117647 0.42352941 0.64313725
v 0.06956124 0.00364711 0.01169556 0.54117647 0.42352941 0.64313725
v 0.07560758 0.00985200 0.01193673 0.54117647 0.42352941 0.64313725
v 0.05099507 -0.01454397 0.01215552 0.54117647 0.42352941 0.64313725
v 0.07550078 0.00995940 0.01215552 0.54117647 0.42352941 0.64313725
v 0.05022466 -0.01459170 -0.01241406 0.54117647 0.42352941 0.64313725
v 0.05028822 -0.01446939 -0.01249362 0.54117647 0.42352941 0.64313725
v 0.05040518 -0.01444255 -0.01249362 0.54117647 0.42352941 0.64313725
v 0.05051706 -0.01439780 -0.01249362 0.54117647 0.42352941 0.64313725
v 0.05086285 -0.01440973 -0.01234195 0.54117647 0.42352941 0.64313725
v 0.05061876 -0.01433515 -0.01249362 0.54117647 0.42352941 0.64313725
v 0.05702361 -0.00831820 -0.01229471 0.54117647 0.42352941 0.64313725
v 0.07536857 0.01009364 -0.01234195 0.54117647 0.42352941 0.64313725
v 0.07562029 0.01009960 -0.01215548 0.54117647 0.42352941 0.64313725
v 0.07574233 0.01001011 -0.01193669 0.54117647 0.42352941 0.64313725
v 0.07583387 0.00994448 -0.01169552 0.54117647 0.42352941 0.64313725
v 0.07568639 0.00977444 -0.01169552 0.54117647 0.42352941 0.64313725
v 0.07588980 0.00990272 -0.01143943 0.54117647 0.42352941 0.64313725
v 0.07575250 0.00970881 -0.01117588 0.54117647 0.42352941 0.64313725
v 0.05086285 -0.01440973 0.01234199 0.54117647 0.42352941 0.64313725
v 0.05061876 -0.01433515 0.01249366 0.54117647 0.42352941 0.64313725
v 0.05051706 -0.01439780 0.01249366 0.54117647 0.42352941 0.64313725
v 0.05040518 -0.01444255 0.01249366 0.54117647 0.42352941 0.64313725
v 0.05028822 -0.01446939 0.01249366 0.54117647 0.42352941 0.64313725
v 0.05022466 -0.01455590 0.01243896 0.54117647 0.42352941 0.64313725
v 0.07575250 0.00970881 0.01117592 0.54117647 0.42352941 0.64313725
v 0.07588980 0.00990272 0.01143947 0.54117647 0.42352941 0.64313725
v 0.07583387 0.00994448 0.01169556 0.54117647 0.42352941 0.64313725
v 0.07568639 0.00977444 0.01169556 0.54117647 0.42352941 0.64313725
v 0.07574233 0.01001011 0.01193673 0.54117647 0.42352941 0.64313725
v 0.05702361 -0.00831820 0.01229475 0.54117647 0.42352941 0.64313725
v 0.07562029 0.01009960 0.01215552 0.54117647 0.42352941 0.64313725
v 0.07536857 0.01009364 0.01234199 0.54117647 0.42352941 0.64313725
v 0.05022466 -0.01447536 -0.01249362 0.54117647 0.42352941 0.64313725
v 0.05025263 -0.01423373 -0.01260799 0.54117647 0.42352941 0.64313725
v 0.05033145 -0.01421285 -0.01260799 0.54117647 0.42352941 0.64313725
v 0.05040773 -0.01418302 -0.01260799 0.54117647 0.42352941 0.64313725
v 0.05070776 -0.01425759 -0.01249362 0.54117647 0.42352941 0.64313725
v 0.06303943 -0.00208049 -0.01241903 0.54117647 0.42352941 0.64313725
v 0.06924087 0.00396630 -0.01234195 0.54117647 0.42352941 0.64313725
v 0.05047638 -0.01413827 -0.01260799 0.54117647 0.42352941 0.64313725
v 0.05053740 -0.01408755 -0.01260799 0.54117647 0.42352941 0.64313725
v 0.06912645 0.00408264 -0.01245632 0.54117647 0.42352941 0.64313725
v 0.07521347 0.01024876 -0.01249362 0.54117647 0.42352941 0.64313725
v 0.07529229 0.01033825 -0.01249362 0.54117647 0.42352941 0.64313725
v 0.07546773 0.01020998 -0.01234195 0.54117647 0.42352941 0.64313725
v 0.07554655 0.01034123 -0.01234195 0.54117647 0.42352941 0.64313725
v 0.07571436 0.01025771 -0.01215548 0.54117647 0.42352941 0.64313725
v 0.07585166 0.01018611 -0.01193669 0.54117647 0.42352941 0.64313725
v 0.07595083 0.01013540 -0.01169552 0.54117647 0.42352941 0.64313725
v 0.07601185 0.01010557 -0.01143943 0.54117647 0.42352941 0.64313725
v 0.07603219 0.01009364 -0.01117588 0.54117647 0.42352941 0.64313725
v 0.07590760 0.00989078 -0.01117588 0.54117647 0.42352941 0.64313725
v 0.06303943 -0.00208049 0.01241907 0.54117647 0.42352941 0.64313725
v 0.05070776 -0.01425759 0.01249366 0.54117647 0.42352941 0.64313725
v 0.06924087 0.00396630 0.01234199 0.54117647 0.42352941 0.64313725
v 0.05053740 -0.01408755 0.01260803 0.54117647 0.42352941 0.64313725
v 0.05047638 -0.01413827 0.01260803 0.54117647 0.42352941 0.64313725
v 0.05040773 -0.01418302 0.01260803 0.54117647 0.42352941 0.64313725
v 0.05033145 -0.01421285 0.01260803 0.54117647 0.42352941 0.64313725
v 0.05025263 -0.01423373 0.01260803 0.54117647 0.42352941 0.64313725
v 0.05022466 -0.01447536 0.01249366 0.54117647 0.42352941 0.64313725
v 0.07590760 0.00989078 0.01117592 0.54117647 0.42352941 0.64313725
v 0.07603219 0.01009364 0.01117592 0.54117647 0.42352941 0.64313725
v 0.07601185 0.01010557 0.01143947 0.54117647 0.42352941 0.64313725
v 0.07595083 0.01013540 0.01169556 0.54117647 0.42352941 0.64313725
v 0.07585166 0.01018611 0.01193673 0.54117647 0.42352941 0.64313725
v 0.07571436 0.01025771 0.01215552 0.54117647 0.42352941 0.64313725
v 0.07554655 0.01034123 0.01234199 0.54117647 0.42352941 0.64313725
v 0.07546773 0.01020998 0.01234199 0.54117647 0.42352941 0.64313725
v 0.06912645 0.00408264 0.01245636 0.54117647 0.42352941 0.64313725
v 0.07529229 0.01033825 0.01249366 0.54117647 0.42352941 0.64313725
v 0.07521347 0.01024876 0.01249366 0.54117647 0.42352941 0.64313725
v 0.05022466 -0.01423373 -0.01260799 0.54117647 0.42352941 0.64313725
v 0.05022466 -0.01397718 -0.01267512 0.54117647 0.42352941 0.64313725
v 0.05025263 -0.01396823 -0.01267512 0.54117647 0.42352941 0.64313725
v 0.05029077 -0.01395331 -0.01267512 0.54117647 0.42352941 0.64313725
v 0.05032636 -0.01393243 -0.01267512 0.54117647 0.42352941 0.64313725
v 0.05679223 -0.00808850 -0.01252345 0.54117647 0.42352941 0.64313725
v 0.06904509 0.00416319 -0.01252345 0.54117647 0.42352941 0.64313725
v 0.06296315 -0.00200293 -0.01249362 0.54117647 0.42352941 0.64313725
v 0.05035687 -0.01390558 -0.01267512 0.54117647 0.42352941 0.64313725
v 0.07486259 0.01059778 -0.01267512 0.54117647 0.42352941 0.64313725
v 0.06279280 -0.00183289 -0.01260799 0.54117647 0.42352941 0.64313725
v 0.07504311 0.01041880 -0.01260799 0.54117647 0.42352941 0.64313725
v 0.07509651 0.01047846 -0.01260799 0.54117647 0.42352941 0.64313725
v 0.07513973 0.01055005 -0.01260799 0.54117647 0.42352941 0.64313725
v 0.07535331 0.01043968 -0.01249362 0.54117647 0.42352941 0.64313725
v 0.07560758 0.01048443 -0.01234195 0.54117647 0.42352941 0.64313725
v 0.07578555 0.01042476 -0.01215548 0.54117647 0.42352941 0.64313725
v 0.07593049 0.01037703 -0.01193669 0.54117647 0.42352941 0.64313725
v 0.07603728 0.01034422 -0.01169552 0.54117647 0.42352941 0.64313725
v 0.07610338 0.01032334 -0.01143943 0.54117647 0.42352941 0.64313725
v 0.07597117 0.00999221 0.00000002 0.54117647 0.42352941 0.64313725
v 0.07612372 0.01031439 -0.01117588 0.54117647 0.42352941 0.64313725
v 0.06296315 -0.00200293 0.01249366 0.54117647 0.42352941 0.64313725
v 0.06904509 0.00416319 0.01252349 0.54117647 0.42352941 0.64313725
v 0.05679223 -0.00808850 0.01252349 0.54117647 0.42352941 0.64313725
v 0.05032636 -0.01393243 0.01267516 0.54117647 0.42352941 0.64313725
v 0.06279280 -0.00183289 0.01260803 0.54117647 0.42352941 0.64313725
v 0.07486259 0.01059778 0.01267516 0.54117647 0.42352941 0.64313725
v 0.05035687 -0.01390558 0.01267516 0.54117647 0.42352941 0.64313725
v 0.05029077 -0.01395331 0.01267516 0.54117647 0.42352941 0.64313725
v 0.05025263 -0.01396823 0.01267516 0.54117647 0.42352941 0.64313725
v 0.05022466 -0.01397718 0.01267516 0.54117647 0.42352941 0.64313725
v 0.05022466 -0.01400701 0.01266770 0.54117647 0.42352941 0.64313725
v 0.05022466 -0.01423373 0.01260803 0.54117647 0.42352941 0.64313725
v 0.07612372 0.01031439 0.01117592 0.54117647 0.42352941 0.64313725
v 0.07610084 0.01032334 0.01143947 0.54117647 0.42352941 0.64313725
v 0.07603728 0.01034422 0.01169556 0.54117647 0.42352941 0.64313725
v 0.07593049 0.01037703 0.01193673 0.54117647 0.42352941 0.64313725
v 0.07578555 0.01042476 0.01215552 0.54117647 0.42352941 0.64313725
v 0.07535331 0.01043968 0.01249366 0.54117647 0.42352941 0.64313725
v 0.07560758 0.01048443 0.01234199 0.54117647 0.42352941 0.64313725
v 0.07513973 0.01055005 0.01260803 0.54117647 0.42352941 0.64313725
v 0.07509651 0.01047846 0.01260803 0.54117647 0.42352941 0.64313725
v 0.07504311 0.01041880 0.01260803 0.54117647 0.42352941 0.64313725
v 0.05022466 -0.01389067 -0.01268258 0.54117647 0.42352941 0.64313725
v 0.05022466 -0.01377433 -0.01269252 0.54117647 0.42352941 0.64313725
v 0.05643626 -0.00773052 -0.01268258 0.54117647 0.42352941 0.64313725
v 0.06868912 0.00451818 -0.01268258 0.54117647 0.42352941 0.64313725
v 0.07488801 0.01063060 -0.01267512 0.54117647 0.42352941 0.64313725
v 0.07467443 0.01078572 -0.01269998 0.54117647 0.42352941 0.64313725
v 0.07491090 0.01066640 -0.01267512 0.54117647 0.42352941 0.64313725
v 0.07517024 0.01062463 -0.01260799 0.54117647 0.42352941 0.64313725
v 0.07539908 0.01055005 -0.01249362 0.54117647 0.42352941 0.64313725
v 0.07542705 0.01066640 -0.01249362 0.54117647 0.42352941 0.64313725
v 0.07564317 0.01063358 -0.01234195 0.54117647 0.42352941 0.64313725
v 0.07582878 0.01060375 -0.01215548 0.54117647 0.42352941 0.64313725
v 0.07597879 0.01057989 -0.01193669 0.54117647 0.42352941 0.64313725
v 0.07608813 0.01056199 -0.01169552 0.54117647 0.42352941 0.64313725
v 0.07615678 0.01055304 -0.01143943 0.54117647 0.42352941 0.64313725
v 0.07617966 0.01054707 -0.01117588 0.54117647 0.42352941 0.64313725
v 0.05022466 -0.01377433 0.01269256 0.54117647 0.42352941 0.64313725
v 0.06868912 0.00451818 0.01268262 0.54117647 0.42352941 0.64313725
v 0.07488801 0.01063060 0.01267516 0.54117647 0.42352941 0.64313725
v 0.07467443 0.01078572 0.01270002 0.54117647 0.42352941 0.64313725
v 0.05643626 -0.00773052 0.01268262 0.54117647 0.42352941 0.64313725
v 0.05022466 -0.01389067 0.01268262 0.54117647 0.42352941 0.64313725
v 0.07617966 0.01054707 0.01117592 0.54117647 0.42352941 0.64313725
v 0.07615678 0.01055304 0.01143947 0.54117647 0.42352941 0.64313725
v 0.07608813 0.01056199 0.01169556 0.54117647 0.42352941 0.64313725
v 0.07597879 0.01057989 0.01193673 0.54117647 0.42352941 0.64313725
v 0.07582878 0.01060375 0.01215552 0.54117647 0.42352941 0.64313725
v 0.07539908 0.01055005 0.01249366 0.54117647 0.42352941 0.64313725
v 0.07564317 0.01063358 0.01234199 0.54117647 0.42352941 0.64313725
v 0.07542705 0.01066640 0.01249366 0.54117647 0.42352941 0.64313725
v 0.07517024 0.01062463 0.01260803 0.54117647 0.42352941 0.64313725
v 0.07491090 0.01066640 0.01267516 0.54117647 0.42352941 0.64313725
v 0.05022466 -0.01366395 -0.01269749 0.54117647 0.42352941 0.64313725
v 0.05629642 -0.00759031 -0.01269998 0.54117647 0.42352941 0.64313725
v 0.06854674 0.00465839 -0.01269998 0.54117647 0.42352941 0.64313725
v 0.07467443 0.01371216 -0.01269998 0.54117647 0.42352941 0.64313725
v 0.07493886 0.01078572 -0.01267512 0.54117647 0.42352941 0.64313725
v 0.07493632 0.01074396 -0.01267512 0.54117647 0.42352941 0.64313725
v 0.07492615 0.01070518 -0.01267512 0.54117647 0.42352941 0.64313725
v 0.07519059 0.01070518 -0.01260799 0.54117647 0.42352941 0.64313725
v 0.07543722 0.01078572 -0.01249362 0.54117647 0.42352941 0.64313725
v 0.07565334 0.01078572 -0.01234195 0.54117647 0.42352941 0.64313725
v 0.07584149 0.01078572 -0.01215548 0.54117647 0.42352941 0.64313725
v 0.07599405 0.01078572 -0.01193669 0.54117647 0.42352941 0.64313725
v 0.07610593 0.01078572 -0.01169552 0.54117647 0.42352941 0.64313725
v 0.07617458 0.01078572 -0.01143943 0.54117647 0.42352941 0.64313725
v 0.07619746 0.01078572 -0.01117588 0.54117647 0.42352941 0.64313725
v 0.07618983 0.01066640 0.00000002 0.54117647 0.42352941 0.64313725
v 0.05022466 -0.01366395 0.01269753 0.54117647 0.42352941 0.64313725
v 0.06242412 -0.00146298 0.01270002 0.54117647 0.42352941 0.64313725
v 0.06854674 0.00465839 0.01270002 0.54117647 0.42352941 0.64313725
v 0.07493886 0.01078572 0.01267516 0.54117647 0.42352941 0.64313725
v 0.07467443 0.01371216 0.01270002 0.54117647 0.42352941 0.64313725
v 0.07492615 0.01070518 0.01267516 0.54117647 0.42352941 0.64313725
v 0.07493632 0.01074396 0.01267516 0.54117647 0.42352941 0.64313725
v 0.07619746 0.01078572 0.01117592 0.54117647 0.42352941 0.64313725
v 0.07617458 0.01078572 0.01143947 0.54117647 0.42352941 0.64313725
v 0.07610593 0.01078572 0.01169556 0.54117647 0.42352941 0.64313725
v 0.07599405 0.01078572 0.01193673 0.54117647 0.42352941 0.64313725
v 0.07584149 0.01078572 0.01215552 0.54117647 0.42352941 0.64313725
v 0.07519059 0.01070518 0.01260803 0.54117647 0.42352941 0.64313725
v 0.07565334 0.01078572 0.01234199 0.54117647 0.42352941 0.64313725
v 0.07543722 0.01078572 0.01249366 0.54117647 0.42352941 0.64313725
v 0.05022466 -0.01250948 -0.01269998 0.54117647 0.42352941 0.64313725
v 0.05232486 0.01371216 -0.01269998 0.54117647 0.42352941 0.64313725
v 0.07467443 0.01397468 -0.01267512 0.54117647 0.42352941 0.64313725
v 0.07493886 0.01397170 -0.01265274 0.54117647 0.42352941 0.64313725
v 0.07493886 0.01371216 -0.01267512 0.54117647 0.42352941 0.64313725
v 0.07519567 0.01078572 -0.01260799 0.54117647 0.42352941 0.64313725
v 0.07543722 0.01371216 -0.01249362 0.54117647 0.42352941 0.64313725
v 0.07565334 0.01371216 -0.01234195 0.54117647 0.42352941 0.64313725
v 0.07584149 0.01371216 -0.01215548 0.54117647 0.42352941 0.64313725
v 0.07599405 0.01371216 -0.01193669 0.54117647 0.42352941 0.64313725
v 0.07610593 0.01371216 -0.01169552 0.54117647 0.42352941 0.64313725
v 0.07617458 0.01371216 -0.01143943 0.54117647 0.42352941 0.64313725
v 0.07619746 0.01371216 -0.01117588 0.54117647 0.42352941 0.64313725
v 0.05022466 0.00879001 0.01269753 0.54117647 0.42352941 0.64313725
v 0.06314368 0.01025174 0.01270002 0.54117647 0.42352941 0.64313725
v 0.07519567 0.01078572 0.01260803 0.54117647 0.42352941 0.64313725
v 0.07493886 0.01371216 0.01267516 0.54117647 0.42352941 0.64313725
v 0.07493886 0.01397170 0.01265278 0.54117647 0.42352941 0.64313725
v 0.07467443 0.01397468 0.01267516 0.54117647 0.42352941 0.64313725
v 0.06349965 0.01371216 0.01270002 0.54117647 0.42352941 0.64313725
v 0.07619746 0.01371216 0.01117592 0.54117647 0.42352941 0.64313725
v 0.07617458 0.01371216 0.01143947 0.54117647 0.42352941 0.64313725
v 0.07610593 0.01371216 0.01169556 0.54117647 0.42352941 0.64313725
v 0.07599405 0.01371216 0.01193673 0.54117647 0.42352941 0.64313725
v 0.07584149 0.01371216 0.01215552 0.54117647 0.42352941 0.64313725
v 0.07565334 0.01371216 0.01234199 0.54117647 0.42352941 0.64313725
v 0.07543722 0.01371216 0.01249366 0.54117647 0.42352941 0.64313725
v 0.05022466 0.00879001 -0.01269998 0.54117647 0.42352941 0.64313725
v 0.05206043 0.01371216 -0.01267512 0.54117647 0.42352941 0.64313725
v 0.05206551 0.01397468 -0.01265274 0.54117647 0.42352941 0.64313725
v 0.05232486 0.01397468 -0.01267512 0.54117647 0.42352941 0.64313725
v 0.07467443 0.01423123 -0.01260799 0.54117647 0.42352941 0.64313725
v 0.07493886 0.01422526 -0.01258561 0.54117647 0.42352941 0.64313725
v 0.07519567 0.01395976 -0.01258561 0.54117647 0.42352941 0.64313725
v 0.07519567 0.01371216 -0.01260799 0.54117647 0.42352941 0.64313725
v 0.07543722 0.01393888 -0.01247373 0.54117647 0.42352941 0.64313725
v 0.07565334 0.01391502 -0.01232455 0.54117647 0.42352941 0.64313725
v 0.07584149 0.01388220 -0.01214056 0.54117647 0.42352941 0.64313725
v 0.07599405 0.01384342 -0.01192426 0.54117647 0.42352941 0.64313725
v 0.07610593 0.01380166 -0.01168806 0.54117647 0.42352941 0.64313725
v 0.07617458 0.01375691 -0.01143445 0.54117647 0.42352941 0.64313725
v 0.07617458 0.01380166 -0.01142451 0.54117647 0.42352941 0.64313725
v 0.07617458 0.01384342 -0.01140462 0.54117647 0.42352941 0.64313725
v 0.07617458 0.01388220 -0.01137727 0.54117647 0.42352941 0.64313725
v 0.07617458 0.01391502 -0.01134495 0.54117647 0.42352941 0.64313725
v 0.07617458 0.01393888 -0.01130765 0.54117647 0.42352941 0.64313725
v 0.07617458 0.01395976 -0.01126539 0.54117647 0.42352941 0.64313725
v 0.07617458 0.01397170 -0.01122063 0.54117647 0.42352941 0.64313725
v 0.07617458 0.01397468 -0.01117588 0.54117647 0.42352941 0.64313725
v 0.07618729 0.01384342 0.00000002 0.54117647 0.42352941 0.64313725
v 0.05022466 0.00883476 0.01269505 0.54117647 0.42352941 0.64313725
v 0.05232486 0.01371216 0.01269753 0.54117647 0.42352941 0.64313725
v 0.05207568 0.01380166 0.01267516 0.54117647 0.42352941 0.64313725
v 0.07519567 0.01371216 0.01260803 0.54117647 0.42352941 0.64313725
v 0.07519567 0.01395976 0.01258565 0.54117647 0.42352941 0.64313725
v 0.07493886 0.01422526 0.01258565 0.54117647 0.42352941 0.64313725
v 0.07467443 0.01423123 0.01260803 0.54117647 0.42352941 0.64313725
v 0.05232486 0.01397468 0.01267516 0.54117647 0.42352941 0.64313725
v 0.07617458 0.01375691 0.01143449 0.54117647 0.42352941 0.64313725
v 0.07617458 0.01397468 0.01117592 0.54117647 0.42352941 0.64313725
v 0.07617458 0.01397170 0.01122067 0.54117647 0.42352941 0.64313725
v 0.07617458 0.01395976 0.01126543 0.54117647 0.42352941 0.64313725
v 0.07617458 0.01393888 0.01130769 0.54117647 0.42352941 0.64313725
v 0.07617458 0.01391502 0.01134499 0.54117647 0.42352941 0.64313725
v 0.07617458 0.01388220 0.01137731 0.54117647 0.42352941 0.64313725
v 0.07617458 0.01384342 0.01140466 0.54117647 0.42352941 0.64313725
v 0.07617458 0.01380166 0.01142455 0.54117647 0.42352941 0.64313725
v 0.07610593 0.01380166 0.01168810 0.54117647 0.42352941 0.64313725
v 0.07599405 0.01384342 0.01192430 0.54117647 0.42352941 0.64313725
v 0.07584149 0.01388220 0.01214060 0.54117647 0.42352941 0.64313725
v 0.07565334 0.01391502 0.01232459 0.54117647 0.42352941 0.64313725
v 0.07543722 0.01393888 0.01247377 0.54117647 0.42352941 0.64313725
v 0.05022466 0.00906148 -0.01267512 0.54117647 0.42352941 0.64313725
v 0.05181125 0.01397468 -0.01258561 0.54117647 0.42352941 0.64313725
v 0.05207568 0.01423123 -0.01258561 0.54117647 0.42352941 0.64313725
v 0.05232486 0.01423123 -0.01260799 0.54117647 0.42352941 0.64313725
v 0.06349965 0.01435354 -0.01255080 0.54117647 0.42352941 0.64313725
v 0.07467443 0.01447286 -0.01249362 0.54117647 0.42352941 0.64313725
v 0.07519567 0.01420140 -0.01252097 0.54117647 0.42352941 0.64313725
v 0.07493886 0.01446093 -0.01247373 0.54117647 0.42352941 0.64313725
v 0.07519567 0.01442811 -0.01241406 0.54117647 0.42352941 0.64313725
v 0.07543722 0.01416262 -0.01241406 0.54117647 0.42352941 0.64313725
v 0.07565334 0.01410892 -0.01227234 0.54117647 0.42352941 0.64313725
v 0.07584149 0.01404627 -0.01209581 0.54117647 0.42352941 0.64313725
v 0.07599405 0.01397170 -0.01189193 0.54117647 0.42352941 0.64313725
v 0.07610593 0.01388817 -0.01166568 0.54117647 0.42352941 0.64313725
v 0.07610593 0.01397170 -0.01162590 0.54117647 0.42352941 0.64313725
v 0.07610593 0.01404627 -0.01157369 0.54117647 0.42352941 0.64313725
v 0.07610593 0.01410892 -0.01150904 0.54117647 0.42352941 0.64313725
v 0.07610593 0.01416262 -0.01143445 0.54117647 0.42352941 0.64313725
v 0.07610593 0.01420140 -0.01135241 0.54117647 0.42352941 0.64313725
v 0.07610593 0.01422526 -0.01126539 0.54117647 0.42352941 0.64313725
v 0.07614152 0.01410295 0.00000002 0.54117647 0.42352941 0.64313725
v 0.07610593 0.01423123 -0.01117588 0.54117647 0.42352941 0.64313725
v 0.05022466 0.00906148 0.01267516 0.54117647 0.42352941 0.64313725
v 0.05227909 0.01397170 0.01267516 0.54117647 0.42352941 0.64313725
v 0.05223587 0.01395976 0.01267516 0.54117647 0.42352941 0.64313725
v 0.05219264 0.01393888 0.01267516 0.54117647 0.42352941 0.64313725
v 0.05215450 0.01391502 0.01267516 0.54117647 0.42352941 0.64313725
v 0.05212145 0.01388220 0.01267516 0.54117647 0.42352941 0.64313725
v 0.05209602 0.01384342 0.01267516 0.54117647 0.42352941 0.64313725
v 0.05187481 0.01397170 0.01260803 0.54117647 0.42352941 0.64313725
v 0.05183668 0.01388817 0.01260803 0.54117647 0.42352941 0.64313725
v 0.07543722 0.01416262 0.01241410 0.54117647 0.42352941 0.64313725
v 0.07519567 0.01420140 0.01252101 0.54117647 0.42352941 0.64313725
v 0.07519567 0.01442811 0.01241410 0.54117647 0.42352941 0.64313725
v 0.07493886 0.01446093 0.01247377 0.54117647 0.42352941 0.64313725
v 0.07467443 0.01447286 0.01249366 0.54117647 0.42352941 0.64313725
v 0.06349965 0.01435354 0.01255084 0.54117647 0.42352941 0.64313725
v 0.05232486 0.01423123 0.01260803 0.54117647 0.42352941 0.64313725
v 0.07610593 0.01423123 0.01117592 0.54117647 0.42352941 0.64313725
v 0.07610593 0.01422526 0.01126543 0.54117647 0.42352941 0.64313725
v 0.07610593 0.01420140 0.01135245 0.54117647 0.42352941 0.64313725
v 0.07610593 0.01416262 0.01143449 0.54117647 0.42352941 0.64313725
v 0.07610593 0.01410892 0.01150908 0.54117647 0.42352941 0.64313725
v 0.07610593 0.01404627 0.01157373 0.54117647 0.42352941 0.64313725
v 0.07610593 0.01397170 0.01162594 0.54117647 0.42352941 0.64313725
v 0.07610593 0.01388817 0.01166572 0.54117647 0.42352941 0.64313725
v 0.07599405 0.01397170 0.01189197 0.54117647 0.42352941 0.64313725
v 0.07584149 0.01404627 0.01209585 0.54117647 0.42352941 0.64313725
v 0.07565334 0.01410892 0.01227238 0.54117647 0.42352941 0.64313725
v 0.05022466 0.00907341 -0.01267263 0.54117647 0.42352941 0.64313725
v 0.05157479 0.01397468 -0.01247373 0.54117647 0.42352941 0.64313725
v 0.05161039 0.01423123 -0.01241406 0.54117647 0.42352941 0.64313725
v 0.05183668 0.01423123 -0.01252097 0.54117647 0.42352941 0.64313725
v 0.05187481 0.01447286 -0.01241406 0.54117647 0.42352941 0.64313725
v 0.05209602 0.01447286 -0.01247373 0.54117647 0.42352941 0.64313725
v 0.05232486 0.01447286 -0.01249362 0.54117647 0.42352941 0.64313725
v 0.06349965 0.01458324 -0.01241903 0.54117647 0.42352941 0.64313725
v 0.07467443 0.01469063 -0.01234195 0.54117647 0.42352941 0.64313725
v 0.07493886 0.01467571 -0.01232455 0.54117647 0.42352941 0.64313725
v 0.07543722 0.01437143 -0.01231709 0.54117647 0.42352941 0.64313725
v 0.07519567 0.01463097 -0.01227234 0.54117647 0.42352941 0.64313725
v 0.07565334 0.01429387 -0.01218532 0.54117647 0.42352941 0.64313725
v 0.07584149 0.01420140 -0.01202371 0.54117647 0.42352941 0.64313725
v 0.07599405 0.01409102 -0.01183475 0.54117647 0.42352941 0.64313725
v 0.07599405 0.01420140 -0.01175767 0.54117647 0.42352941 0.64313725
v 0.07599405 0.01429387 -0.01166568 0.54117647 0.42352941 0.64313725
v 0.07599405 0.01437143 -0.01155628 0.54117647 0.42352941 0.64313725
v 0.07599405 0.01442811 -0.01143445 0.54117647 0.42352941 0.64313725
v 0.07599405 0.01446093 -0.01130765 0.54117647 0.42352941 0.64313725
v 0.07599405 0.01447286 -0.01117588 0.54117647 0.42352941 0.64313725
v 0.07604999 0.01435354 0.00000002 0.54117647 0.42352941 0.64313725
v 0.05022466 0.00907341 0.01267267 0.54117647 0.42352941 0.64313725
v 0.05161039 0.01397170 0.01249366 0.54117647 0.42352941 0.64313725
v 0.05223587 0.01422526 0.01260803 0.54117647 0.42352941 0.64313725
v 0.05214688 0.01420140 0.01260803 0.54117647 0.42352941 0.64313725
v 0.05206551 0.01416262 0.01260803 0.54117647 0.42352941 0.64313725
v 0.05198923 0.01410892 0.01260803 0.54117647 0.42352941 0.64313725
v 0.05192567 0.01404627 0.01260803 0.54117647 0.42352941 0.64313725
v 0.05166632 0.01409102 0.01249366 0.54117647 0.42352941 0.64313725
v 0.07543722 0.01437143 0.01231713 0.54117647 0.42352941 0.64313725
v 0.07519567 0.01463097 0.01227238 0.54117647 0.42352941 0.64313725
v 0.07493886 0.01467571 0.01232459 0.54117647 0.42352941 0.64313725
v 0.05232486 0.01447286 0.01249366 0.54117647 0.42352941 0.64313725
v 0.07467443 0.01469063 0.01234199 0.54117647 0.42352941 0.64313725
v 0.06349965 0.01458324 0.01241907 0.54117647 0.42352941 0.64313725
v 0.07599405 0.01447286 0.01117592 0.54117647 0.42352941 0.64313725
v 0.07599405 0.01446093 0.01130769 0.54117647 0.42352941 0.64313725
v 0.07599405 0.01442811 0.01143449 0.54117647 0.42352941 0.64313725
v 0.07599405 0.01437143 0.01155632 0.54117647 0.42352941 0.64313725
v 0.07599405 0.01429387 0.01166572 0.54117647 0.42352941 0.64313725
v 0.07599405 0.01420140 0.01175771 0.54117647 0.42352941 0.64313725
v 0.07599405 0.01409102 0.01183479 0.54117647 0.42352941 0.64313725
v 0.07584149 0.01420140 0.01202375 0.54117647 0.42352941 0.64313725
v 0.07565334 0.01429387 0.01218536 0.54117647 0.42352941 0.64313725
v 0.05022466 0.00934487 -0.01260799 0.54117647 0.42352941 0.64313725
v 0.05136121 0.01397468 -0.01232455 0.54117647 0.42352941 0.64313725
v 0.05140443 0.01423123 -0.01227234 0.54117647 0.42352941 0.64313725
v 0.05166632 0.01447286 -0.01231709 0.54117647 0.42352941 0.64313725
v 0.05192567 0.01469063 -0.01227234 0.54117647 0.42352941 0.64313725
v 0.05212145 0.01469063 -0.01232455 0.54117647 0.42352941 0.64313725
v 0.05232486 0.01469063 -0.01234195 0.54117647 0.42352941 0.64313725
v 0.07467443 0.01487856 -0.01215548 0.54117647 0.42352941 0.64313725
v 0.07493886 0.01486067 -0.01214056 0.54117647 0.42352941 0.64313725
v 0.07543722 0.01455937 -0.01218532 0.54117647 0.42352941 0.64313725
v 0.07565334 0.01446093 -0.01206846 0.54117647 0.42352941 0.64313725
v 0.07519567 0.01480697 -0.01209581 0.54117647 0.42352941 0.64313725
v 0.07543722 0.01472344 -0.01202371 0.54117647 0.42352941 0.64313725
v 0.07584149 0.01434160 -0.01192426 0.54117647 0.42352941 0.64313725
v 0.07584149 0.01446093 -0.01180491 0.54117647 0.42352941 0.64313725
v 0.07584149 0.01455937 -0.01166568 0.54117647 0.42352941 0.64313725
v 0.07584149 0.01463097 -0.01150904 0.54117647 0.42352941 0.64313725
v 0.07584149 0.01467571 -0.01134495 0.54117647 0.42352941 0.64313725
v 0.07584149 0.01469063 -0.01117588 0.54117647 0.42352941 0.64313725
v 0.07591777 0.01458324 0.00000002 0.54117647 0.42352941 0.64313725
v 0.05022466 0.00934487 0.01260803 0.54117647 0.42352941 0.64313725
v 0.05140443 0.01404627 0.01234199 0.54117647 0.42352941 0.64313725
v 0.05219264 0.01446093 0.01249366 0.54117647 0.42352941 0.64313725
v 0.05206551 0.01442811 0.01249366 0.54117647 0.42352941 0.64313725
v 0.05194346 0.01437143 0.01249366 0.54117647 0.42352941 0.64313725
v 0.05183668 0.01429387 0.01249366 0.54117647 0.42352941 0.64313725
v 0.05174260 0.01420140 0.01249366 0.54117647 0.42352941 0.64313725
v 0.05157479 0.01434160 0.01234199 0.54117647 0.42352941 0.64313725
v 0.05147817 0.01420140 0.01234199 0.54117647 0.42352941 0.64313725
v 0.07565334 0.01446093 0.01206850 0.54117647 0.42352941 0.64313725
v 0.07543722 0.01455937 0.01218536 0.54117647 0.42352941 0.64313725
v 0.07543722 0.01472344 0.01202375 0.54117647 0.42352941 0.64313725
v 0.07519567 0.01480697 0.01209585 0.54117647 0.42352941 0.64313725
v 0.07493886 0.01486067 0.01214060 0.54117647 0.42352941 0.64313725
v 0.07467443 0.01487856 0.01215552 0.54117647 0.42352941 0.64313725
v 0.05232486 0.01469063 0.01234199 0.54117647 0.42352941 0.64313725
v 0.05215450 0.01467571 0.01234199 0.54117647 0.42352941 0.64313725
v 0.07584149 0.01469063 0.01117592 0.54117647 0.42352941 0.64313725
v 0.07584149 0.01467571 0.01134499 0.54117647 0.42352941 0.64313725
v 0.07584149 0.01463097 0.01150908 0.54117647 0.42352941 0.64313725
v 0.07584149 0.01455937 0.01166572 0.54117647 0.42352941 0.64313725
v 0.07584149 0.01446093 0.01180495 0.54117647 0.42352941 0.64313725
v 0.07584149 0.01434160 0.01192430 0.54117647 0.42352941 0.64313725
v 0.05022466 0.00942542 -0.01257318 0.54117647 0.42352941 0.64313725
v 0.05102558 0.01397468 -0.01192426 0.54117647 0.42352941 0.64313725
v 0.05117560 0.01397468 -0.01214056 0.54117647 0.42352941 0.64313725
v 0.05131544 0.01447286 -0.01202371 0.54117647 0.42352941 0.64313725
v 0.05147817 0.01447286 -0.01218532 0.54117647 0.42352941 0.64313725
v 0.05122899 0.01423123 -0.01209581 0.54117647 0.42352941 0.64313725
v 0.05157479 0.01469063 -0.01206846 0.54117647 0.42352941 0.64313725
v 0.05174260 0.01469063 -0.01218532 0.54117647 0.42352941 0.64313725
v 0.05183668 0.01487856 -0.01202371 0.54117647 0.42352941 0.64313725
v 0.05198923 0.01487856 -0.01209581 0.54117647 0.42352941 0.64313725
v 0.05215450 0.01487856 -0.01214056 0.54117647 0.42352941 0.64313725
v 0.05232486 0.01487856 -0.01215548 0.54117647 0.42352941 0.64313725
v 0.06349965 0.01495613 -0.01204608 0.54117647 0.42352941 0.64313725
v 0.07467443 0.01503070 -0.01193669 0.54117647 0.42352941 0.64313725
v 0.07493886 0.01500982 -0.01192426 0.54117647 0.42352941 0.64313725
v 0.07519567 0.01495016 -0.01189193 0.54117647 0.42352941 0.64313725
v 0.07565334 0.01460412 -0.01192426 0.54117647 0.42352941 0.64313725
v 0.07543722 0.01485470 -0.01183475 0.54117647 0.42352941 0.64313725
v 0.07565334 0.01472344 -0.01175767 0.54117647 0.42352941 0.64313725
v 0.07565334 0.01480697 -0.01157369 0.54117647 0.42352941 0.64313725
v 0.07565334 0.01486067 -0.01137727 0.54117647 0.42352941 0.64313725
v 0.07565334 0.01487856 -0.01117588 0.54117647 0.42352941 0.64313725
v 0.05022466 0.00951789 0.01253344 0.54117647 0.42352941 0.64313725
v 0.05122899 0.01410892 0.01215552 0.54117647 0.42352941 0.64313725
v 0.05108406 0.01416262 0.01193673 0.54117647 0.42352941 0.64313725
v 0.05131544 0.01429387 0.01215552 0.54117647 0.42352941 0.64313725
v 0.05198923 0.01463097 0.01234199 0.54117647 0.42352941 0.64313725
v 0.05183668 0.01455937 0.01234199 0.54117647 0.42352941 0.64313725
v 0.05169683 0.01446093 0.01234199 0.54117647 0.42352941 0.64313725
v 0.05157479 0.01460412 0.01215552 0.54117647 0.42352941 0.64313725
v 0.05142986 0.01446093 0.01215552 0.54117647 0.42352941 0.64313725
v 0.07565334 0.01460412 0.01192430 0.54117647 0.42352941 0.64313725
v 0.07565334 0.01472344 0.01175771 0.54117647 0.42352941 0.64313725
v 0.07543722 0.01485470 0.01183479 0.54117647 0.42352941 0.64313725
v 0.07519567 0.01495016 0.01189197 0.54117647 0.42352941 0.64313725
v 0.07493886 0.01500982 0.01192430 0.54117647 0.42352941 0.64313725
v 0.07467443 0.01503070 0.01193673 0.54117647 0.42352941 0.64313725
v 0.06349965 0.01495613 0.01204612 0.54117647 0.42352941 0.64313725
v 0.05232486 0.01487856 0.01215552 0.54117647 0.42352941 0.64313725
v 0.05212145 0.01486067 0.01215552 0.54117647 0.42352941 0.64313725
v 0.07565334 0.01487856 0.01117592 0.54117647 0.42352941 0.64313725
v 0.07565334 0.01486067 0.01137731 0.54117647 0.42352941 0.64313725
v 0.07565334 0.01480697 0.01157373 0.54117647 0.42352941 0.64313725
v 0.05022466 0.00960739 -0.01249362 0.54117647 0.42352941 0.64313725
v 0.05091371 0.01397468 -0.01168806 0.54117647 0.42352941 0.64313725
v 0.05108406 0.01423123 -0.01189193 0.54117647 0.42352941 0.64313725
v 0.05118322 0.01447286 -0.01183475 0.54117647 0.42352941 0.64313725
v 0.05142986 0.01469063 -0.01192426 0.54117647 0.42352941 0.64313725
v 0.05157479 0.01487856 -0.01180491 0.54117647 0.42352941 0.64313725
v 0.05169683 0.01487856 -0.01192426 0.54117647 0.42352941 0.64313725
v 0.05194346 0.01503070 -0.01183475 0.54117647 0.42352941 0.64313725
v 0.05206551 0.01503070 -0.01189193 0.54117647 0.42352941 0.64313725
v 0.05219264 0.01503070 -0.01192426 0.54117647 0.42352941 0.64313725
v 0.05232486 0.01503070 -0.01193669 0.54117647 0.42352941 0.64313725
v 0.06349965 0.01508738 -0.01181734 0.54117647 0.42352941 0.64313725
v 0.07467443 0.01514406 -0.01169552 0.54117647 0.42352941 0.64313725
v 0.07493886 0.01512020 -0.01168806 0.54117647 0.42352941 0.64313725
v 0.07519567 0.01505755 -0.01166568 0.54117647 0.42352941 0.64313725
v 0.07543722 0.01495016 -0.01162590 0.54117647 0.42352941 0.64313725
v 0.07543722 0.01500982 -0.01140462 0.54117647 0.42352941 0.64313725
v 0.07543722 0.01503070 -0.01117588 0.54117647 0.42352941 0.64313725
v 0.07554655 0.01495613 0.00000002 0.54117647 0.42352941 0.64313725
v 0.05022466 0.00960739 0.01249366 0.54117647 0.42352941 0.64313725
v 0.05102558 0.01393888 0.01193673 0.54117647 0.42352941 0.64313725
v 0.05118322 0.01437143 0.01193673 0.54117647 0.42352941 0.64313725
v 0.05108406 0.01442811 0.01169556 0.54117647 0.42352941 0.64313725
v 0.05097982 0.01420140 0.01169556 0.54117647 0.42352941 0.64313725
v 0.05091371 0.01395976 0.01169556 0.54117647 0.42352941 0.64313725
v 0.05192567 0.01480697 0.01215552 0.54117647 0.42352941 0.64313725
v 0.05174260 0.01472344 0.01215552 0.54117647 0.42352941 0.64313725
v 0.05147817 0.01472344 0.01193673 0.54117647 0.42352941 0.64313725
v 0.05131544 0.01455937 0.01193673 0.54117647 0.42352941 0.64313725
v 0.07543722 0.01495016 0.01162594 0.54117647 0.42352941 0.64313725
v 0.07519567 0.01505755 0.01166572 0.54117647 0.42352941 0.64313725
v 0.07493886 0.01512020 0.01168810 0.54117647 0.42352941 0.64313725
v 0.07467443 0.01514406 0.01169556 0.54117647 0.42352941 0.64313725
v 0.06349965 0.01508738 0.01181738 0.54117647 0.42352941 0.64313725
v 0.05232486 0.01503070 0.01193673 0.54117647 0.42352941 0.64313725
v 0.05209602 0.01500982 0.01193673 0.54117647 0.42352941 0.64313725
v 0.05187481 0.01495016 0.01193673 0.54117647 0.42352941 0.64313725
v 0.07543722 0.01503070 0.01117592 0.54117647 0.42352941 0.64313725
v 0.07543722 0.01500982 0.01140466 0.54117647 0.42352941 0.64313725
v 0.05022466 0.00984902 -0.01234195 0.54117647 0.42352941 0.64313725
v 0.05084760 0.01397468 -0.01143445 0.54117647 0.42352941 0.64313725
v 0.05091371 0.01423123 -0.01142451 0.54117647 0.42352941 0.64313725
v 0.05097982 0.01423123 -0.01166568 0.54117647 0.42352941 0.64313725
v 0.05108406 0.01447286 -0.01162590 0.54117647 0.42352941 0.64313725
v 0.05131544 0.01469063 -0.01175767 0.54117647 0.42352941 0.64313725
v 0.05147817 0.01487856 -0.01166568 0.54117647 0.42352941 0.64313725
v 0.05166632 0.01503070 -0.01155628 0.54117647 0.42352941 0.64313725
v 0.05174260 0.01503070 -0.01166568 0.54117647 0.42352941 0.64313725
v 0.05183668 0.01503070 -0.01175767 0.54117647 0.42352941 0.64313725
v 0.05198923 0.01514406 -0.01157369 0.54117647 0.42352941 0.64313725
v 0.05206551 0.01514406 -0.01162590 0.54117647 0.42352941 0.64313725
v 0.05214688 0.01514406 -0.01166568 0.54117647 0.42352941 0.64313725
v 0.05223587 0.01514406 -0.01168806 0.54117647 0.42352941 0.64313725
v 0.05232486 0.01514406 -0.01169552 0.54117647 0.42352941 0.64313725
v 0.07493886 0.01518881 -0.01143445 0.54117647 0.42352941 0.64313725
v 0.07467443 0.01521267 -0.01143943 0.54117647 0.42352941 0.64313725
v 0.07519567 0.01512020 -0.01142451 0.54117647 0.42352941 0.64313725
v 0.07519567 0.01514406 -0.01117588 0.54117647 0.42352941 0.64313725
v 0.05022466 0.00971478 0.01242653 0.54117647 0.42352941 0.64313725
v 0.05122899 0.01463097 0.01169556 0.54117647 0.42352941 0.64313725
v 0.05117560 0.01467571 0.01143947 0.54117647 0.42352941 0.64313725
v 0.05102558 0.01446093 0.01143947 0.54117647 0.42352941 0.64313725
v 0.05091371 0.01422526 0.01143947 0.54117647 0.42352941 0.64313725
v 0.05084760 0.01397170 0.01143947 0.54117647 0.42352941 0.64313725
v 0.05022466 0.00984902 0.01234199 0.54117647 0.42352941 0.64313725
v 0.05166632 0.01485470 0.01193673 0.54117647 0.42352941 0.64313725
v 0.05140443 0.01480697 0.01169556 0.54117647 0.42352941 0.64313725
v 0.07519567 0.01512020 0.01142455 0.54117647 0.42352941 0.64313725
v 0.07493886 0.01518881 0.01143449 0.54117647 0.42352941 0.64313725
v 0.07467443 0.01521267 0.01143947 0.54117647 0.42352941 0.64313725
v 0.05232486 0.01514406 0.01169556 0.54117647 0.42352941 0.64313725
v 0.05207568 0.01512020 0.01169556 0.54117647 0.42352941 0.64313725
v 0.05183668 0.01505755 0.01169556 0.54117647 0.42352941 0.64313725
v 0.07519567 0.01514406 0.01117592 0.54117647 0.42352941 0.64313725
v 0.05022466 0.01005486 -0.01215548 0.54117647 0.42352941 0.64313725
v 0.05082472 0.01397468 -0.01117588 0.54117647 0.42352941 0.64313725
v 0.05022466 0.01006679 -0.01214305 0.54117647 0.42352941 0.64313725
v 0.05022466 0.01024279 -0.01193669 0.54117647 0.42352941 0.64313725
v 0.05022466 0.01030842 -0.01181983 0.54117647 0.42352941 0.64313725
v 0.05022466 0.01037703 -0.01169552 0.54117647 0.42352941 0.64313725
v 0.05089337 0.01423123 -0.01117588 0.54117647 0.42352941 0.64313725
v 0.05100524 0.01447286 -0.01117588 0.54117647 0.42352941 0.64313725
v 0.05102558 0.01447286 -0.01140462 0.54117647 0.42352941 0.64313725
v 0.05117560 0.01469063 -0.01137727 0.54117647 0.42352941 0.64313725
v 0.05122899 0.01469063 -0.01157369 0.54117647 0.42352941 0.64313725
v 0.05140443 0.01487856 -0.01150904 0.54117647 0.42352941 0.64313725
v 0.05161039 0.01503070 -0.01143445 0.54117647 0.42352941 0.64313725
v 0.05183668 0.01514406 -0.01135241 0.54117647 0.42352941 0.64313725
v 0.05187481 0.01514406 -0.01143445 0.54117647 0.42352941 0.64313725
v 0.05192567 0.01514406 -0.01150904 0.54117647 0.42352941 0.64313725
v 0.05212145 0.01521267 -0.01134495 0.54117647 0.42352941 0.64313725
v 0.05215450 0.01521267 -0.01137727 0.54117647 0.42352941 0.64313725
v 0.05219264 0.01521267 -0.01140462 0.54117647 0.42352941 0.64313725
v 0.05223587 0.01521267 -0.01142451 0.54117647 0.42352941 0.64313725
v 0.05227909 0.01521267 -0.01143445 0.54117647 0.42352941 0.64313725
v 0.05232486 0.01521267 -0.01143943 0.54117647 0.42352941 0.64313725
v 0.07493886 0.01521267 -0.01117588 0.54117647 0.42352941 0.64313725
v 0.06349965 0.01522461 -0.01130765 0.54117647 0.42352941 0.64313725
v 0.07467443 0.01523356 -0.01117588 0.54117647 0.42352941 0.64313725
v 0.05136121 0.01486067 0.01143947 0.54117647 0.42352941 0.64313725
v 0.05134595 0.01487856 0.01117592 0.54117647 0.42352941 0.64313725
v 0.05115780 0.01469063 0.01117592 0.54117647 0.42352941 0.64313725
v 0.05100524 0.01447286 0.01117592 0.54117647 0.42352941 0.64313725
v 0.05089337 0.01423123 0.01117592 0.54117647 0.42352941 0.64313725
v 0.05082472 0.01397468 0.01117592 0.54117647 0.42352941 0.64313725
v 0.05022466 0.01037703 0.01169556 0.54117647 0.42352941 0.64313725
v 0.05022466 0.01024279 0.01193673 0.54117647 0.42352941 0.64313725
v 0.05022466 0.01005486 0.01215552 0.54117647 0.42352941 0.64313725
v 0.05022466 0.00989377 0.01230221 0.54117647 0.42352941 0.64313725
v 0.05161039 0.01495016 0.01169556 0.54117647 0.42352941 0.64313725
v 0.05157479 0.01500982 0.01143947 0.54117647 0.42352941 0.64313725
v 0.07493886 0.01521267 0.01117592 0.54117647 0.42352941 0.64313725
v 0.05232486 0.01521267 0.01143947 0.54117647 0.42352941 0.64313725
v 0.07467443 0.01523356 0.01117592 0.54117647 0.42352941 0.64313725
v 0.06349965 0.01522461 0.01130769 0.54117647 0.42352941 0.64313725
v 0.05206551 0.01518881 0.01143947 0.54117647 0.42352941 0.64313725
v 0.05181125 0.01512020 0.01143947 0.54117647 0.42352941 0.64313725
v 0.05085777 0.01410295 0.00000002 0.54117647 0.42352941 0.64313725
v 0.05022466 0.01044266 -0.01150159 0.54117647 0.42352941 0.64313725
v 0.05022466 0.01046056 -0.01143943 0.54117647 0.42352941 0.64313725
v 0.05022466 0.01049039 -0.01117588 0.54117647 0.42352941 0.64313725
v 0.05094931 0.01435354 0.00000002 0.54117647 0.42352941 0.64313725
v 0.05108152 0.01458324 0.00000002 0.54117647 0.42352941 0.64313725
v 0.05115780 0.01469063 -0.01117588 0.54117647 0.42352941 0.64313725
v 0.05134595 0.01487856 -0.01117588 0.54117647 0.42352941 0.64313725
v 0.05136121 0.01487856 -0.01134495 0.54117647 0.42352941 0.64313725
v 0.05157479 0.01503070 -0.01130765 0.54117647 0.42352941 0.64313725
v 0.05181125 0.01514406 -0.01126539 0.54117647 0.42352941 0.64313725
v 0.05207568 0.01521267 -0.01126539 0.54117647 0.42352941 0.64313725
v 0.05209602 0.01521267 -0.01130765 0.54117647 0.42352941 0.64313725
v 0.05232486 0.01523356 -0.01117588 0.54117647 0.42352941 0.64313725
v 0.07480665 0.01522461 0.00000002 0.54117647 0.42352941 0.64313725
v 0.05156207 0.01503070 0.01117592 0.54117647 0.42352941 0.64313725
v 0.05145529 0.01495613 0.00000002 0.54117647 0.42352941 0.64313725
v 0.05022466 0.01049039 0.01117592 0.54117647 0.42352941 0.64313725
v 0.05022466 0.01046653 0.01138726 0.54117647 0.42352941 0.64313725
v 0.05022466 0.01046056 0.01143947 0.54117647 0.42352941 0.64313725
v 0.05022466 0.01040686 0.01160854 0.54117647 0.42352941 0.64313725
v 0.05180362 0.01514406 0.01117592 0.54117647 0.42352941 0.64313725
v 0.05232486 0.01523356 0.01117592 0.54117647 0.42352941 0.64313725
v 0.05206043 0.01521267 0.01117592 0.54117647 0.42352941 0.64313725
v 0.05156207 0.01503070 -0.01117588 0.54117647 0.42352941 0.64313725
v 0.05180362 0.01514406 -0.01117588 0.54117647 0.42352941 0.64313725
v 0.05206043 0.01521267 -0.01117588 0.54117647 0.42352941 0.64313725
v 0.05206551 0.01521267 -0.01122063 0.54117647 0.42352941 0.64313725
v 0.05219264 0.01522461 0.00000002 0.54117647 0.42352941 0.64313725
f 1 2 7
f 1 7 15
f 1 15 25
f 1 25 39
f 1 39 58
f 1 58 81
f 1 81 80
f 1 80 107
f 1 107 144
f 1 144 189
f 1 189 188
f 1 188 187
f 1 187 221
f 1 221 216
f 1 216 248
f 1 248 276
f 1 276 313
f 1 313 357
f 1 357 406
f 1 406 449
f 1 449 494
f 1 494 534
f 1 534 573
f 1 573 579
f 1 579 623
f 1 623 622
f 1 622 621
f 1 621 620
f 1 620 652
f 1 652 651
f 1 651 650
f 1 650 649
f 1 649 635
f 1 635 634
f 1 634 633
f 1 633 594
f 1 594 593
f 1 593 592
f 1 592 591
f 1 591 589
f 1 589 554
f 1 554 515
f 1 515 472
f 1 472 429
f 1 429 384
f 1 384 335
f 1 335 290
f 1 290 263
f 1 263 232
f 1 232 201
f 1 201 200
f 1 200 157
f 1 157 156
f 1 156 116
f 1 116 88
f 1 88 65
f 1 65 64
f 1 64 45
f 1 45 29
f 1 29 16
f 1 16 8
f 1 8 3
f 1 3 4
f 1 4 5
f 1 5 2
f 2 5 6
f 2 6 7
f 3 8 4
f 4 6 5
f 4 8 9
f 4 9 10
f 4 10 11
f 4 11 13
f 4 13 6
f 6 12 7
f 6 13 14
f 6 14 12
f 7 12 15
f 8 16 9
f 9 16 17
f 9 17 18
f 9 18 10
f 10 18 19
f 10 19 20
f 10 20 21
f 10 21 11
f 11 21 22
f 11 22 13
f 12 14 23
f 12 23 24
f 12 24 25
f 12 25 15
f 13 22 26
f 13 26 14
f 14 26 27
f 14 27 28
f 14 28 23
f 16 29 17
f 17 29 30
f 17 30 18
f 18 30 31
f 18 31 19
f 19 31 32
f 19 32 33
f 19 33 34
f 19 34 35
f 19 35 20
f 20 35 21
f 21 26 22
f 21 35 36
f 21 36 40
f 21 40 26
f 23 28 37
f 23 37 38
f 23 38 24
f 24 38 25
f 25 38 39
f 26 40 41
f 26 41 27
f 27 41 28
f 28 41 42
f 28 42 43
f 28 43 44
f 28 44 37
f 29 45 30
f 30 45 46
f 30 46 31
f 31 46 47
f 31 47 48
f 31 48 32
f 32 48 33
f 33 48 49
f 33 49 50
f 33 50 51
f 33 51 34
f 34 51 35
f 35 51 52
f 35 52 36
f 36 52 53
f 36 53 54
f 36 54 40
f 37 44 55
f 37 55 56
f 37 56 57
f 37 57 38
f 38 57 39
f 39 57 58
f 40 54 59
f 40 59 60
f 40 60 41
f 41 60 61
f 41 61 42
f 42 61 43
f 43 61 62
f 43 62 63
f 43 63 55
f 43 55 44
f 45 64 46
f 46 64 65
f 46 65 66
f 46 66 67
f 46 67 47
f 47 67 48
f 48 67 68
f 48 68 69
f 48 69 49
f 49 69 70
f 49 70 50
f 50 70 71
f 50 71 72
f 50 72 51
f 51 72 73
f 51 73 74
f 51 74 52
f 52 75 53
f 52 74 75
f 53 59 54
f 53 75 82
f 53 82 59
f 55 63 76
f 55 76 77
f 55 77 78
f 55 78 56
f 56 78 57
f 57 78 79
f 57 79 80
f 57 80 81
f 57 81 58
f 59 82 60
f 60 82 83
f 60 83 61
f 61 83 84
f 61 84 85
f 61 85 62
f 62 86 63
f 62 85 87
f 62 87 86
f 63 86 76
f 65 88 66
f 66 88 89
f 66 89 90
f 66 90 67
f 67 90 91
f 67 91 68
f 68 91 69
f 69 92 70
f 69 91 93
f 69 93 92
f 70 92 94
f 70 94 71
f 71 95 128
f 71 128 96
f 71 96 97
f 71 97 72
f 71 94 95
f 72 97 98
f 72 98 99
f 72 99 73
f 73 99 74
f 74 99 98
f 74 98 100
f 74 100 135
f 74 135 101
f 74 101 75
f 75 101 108
f 75 108 82
f 76 86 102
f 76 102 103
f 76 103 104
f 76 104 77
f 77 104 78
f 78 104 105
f 78 105 79
f 79 105 106
f 79 106 107
f 79 107 80
f 82 108 83
f 83 108 145
f 83 145 109
f 83 109 110
f 83 110 111
f 83 111 84
f 84 111 85
f 85 111 110
f 85 110 112
f 85 112 114
f 85 114 87
f 86 113 102
f 86 87 113
f 87 114 152
f 87 152 115
f 87 115 113
f 88 116 89
f 89 116 117
f 89 117 90
f 90 117 118
f 90 118 119
f 90 119 91
f 91 119 93
f 92 93 120
f 92 120 121
f 92 121 122
f 92 122 94
f 93 119 123
f 93 123 124
f 93 124 120
f 94 122 95
f 95 122 121
f 95 121 125
f 95 125 126
f 95 126 127
f 95 127 128
f 96 128 129
f 96 129 130
f 96 130 131
f 96 131 97
f 97 131 98
f 98 131 132
f 98 132 100
f 100 132 133
f 100 133 134
f 100 134 135
f 101 135 145
f 101 145 108
f 102 136 137
f 102 137 103
f 102 113 138
f 102 138 136
f 103 137 139
f 103 139 140
f 103 140 141
f 103 141 104
f 104 141 105
f 105 141 142
f 105 142 143
f 105 143 106
f 106 143 144
f 106 144 107
f 109 145 146
f 109 146 147
f 109 147 148
f 109 148 110
f 110 148 149
f 110 149 112
f 112 149 114
f 113 115 138
f 114 149 150
f 114 150 151
f 114 151 152
f 115 153 136
f 115 136 138
f 115 152 154
f 115 154 155
f 115 155 153
f 116 156 117
f 117 156 157
f 117 157 118
f 118 157 158
f 118 158 159
f 118 159 119
f 119 159 160
f 119 160 123
f 120 124 161
f 120 161 162
f 120 162 163
f 120 163 125
f 120 125 121
f 123 160 124
f 124 160 164
f 124 164 165
f 124 165 166
f 124 166 162
f 124 162 161
f 125 163 126
f 126 162 167
f 126 167 168
f 126 168 127
f 126 163 162
f 127 168 169
f 127 169 170
f 127 170 128
f 128 170 129
f 129 170 171
f 129 171 172
f 129 172 130
f 130 172 131
f 131 172 173
f 131 173 174
f 131 174 132
f 132 174 175
f 132 175 133
f 133 175 134
f 134 176 135
f 134 175 177
f 134 177 190
f 134 190 146
f 134 146 176
f 135 176 145
f 136 153 137
f 137 153 178
f 137 178 179
f 137 179 180
f 137 180 139
f 139 181 140
f 139 180 179
f 139 179 182
f 139 182 183
f 139 183 184
f 139 184 181
f 140 181 141
f 141 181 185
f 141 185 186
f 141 186 142
f 142 186 187
f 142 187 188
f 142 188 143
f 143 188 189
f 143 189 144
f 145 176 146
f 146 190 147
f 147 190 191
f 147 191 192
f 147 192 148
f 148 192 149
f 149 192 193
f 149 193 194
f 149 194 150
f 150 194 196
f 150 196 151
f 151 195 152
f 151 196 195
f 152 195 154
f 153 155 178
f 154 195 197
f 154 197 198
f 154 198 155
f 155 198 199
f 155 199 179
f 155 179 178
f 157 200 158
f 158 200 201
f 158 201 159
f 159 201 160
f 160 201 164
f 162 166 167
f 164 201 202
f 164 202 203
f 164 203 165
f 165 204 168
f 165 168 167
f 165 167 166
f 165 203 205
f 165 205 204
f 168 204 206
f 168 206 169
f 169 206 207
f 169 207 208
f 169 208 170
f 170 208 171
f 171 208 209
f 171 209 210
f 171 210 211
f 171 211 172
f 172 211 173
f 173 211 212
f 173 212 174
f 174 212 213
f 174 213 175
f 175 213 214
f 175 214 215
f 175 215 177
f 177 215 222
f 177 222 190
f 179 199 182
f 181 184 216
f 181 216 185
f 182 199 183
f 183 217 184
f 183 199 198
f 183 198 218
f 183 218 219
f 183 219 217
f 184 220 216
f 184 217 220
f 185 216 186
f 186 216 221
f 186 221 187
f 190 222 223
f 190 223 191
f 191 223 192
f 192 223 224
f 192 224 225
f 192 225 193
f 193 225 226
f 193 226 194
f 194 226 196
f 195 196 227
f 195 227 197
f 196 226 228
f 196 228 229
f 196 229 227
f 197 227 230
f 197 230 231
f 197 231 198
f 198 231 218
f 201 232 233
f 201 233 202
f 202 233 203
f 203 234 205
f 203 233 234
f 204 205 206
f 205 235 267
f 205 267 236
f 205 236 237
f 205 237 238
f 205 238 206
f 205 234 233
f 205 233 263
f 205 263 290
f 205 290 264
f 205 264 235
f 206 238 207
f 207 238 237
f 207 237 239
f 207 239 208
f 208 239 209
f 209 239 240
f 209 240 210
f 210 240 241
f 210 241 242
f 210 242 211
f 211 242 243
f 211 243 212
f 212 243 244
f 212 244 213
f 213 244 214
f 214 244 245
f 214 245 215
f 215 245 246
f 215 246 247
f 215 247 222
f 216 220 249
f 216 249 248
f 217 219 250
f 217 250 249
f 217 249 220
f 218 231 219
f 219 251 279
f 219 279 252
f 219 252 282
f 219 282 277
f 219 277 249
f 219 249 250
f 219 231 253
f 219 253 254
f 219 254 251
f 222 247 255
f 222 255 256
f 222 256 223
f 223 256 257
f 223 257 224
f 224 257 225
f 225 257 258
f 225 258 226
f 226 258 259
f 226 259 228
f 227 229 260
f 227 260 230
f 228 259 261
f 228 261 262
f 228 262 229
f 229 262 260
f 230 260 254
f 230 254 253
f 230 253 231
f 232 263 233
f 235 264 293
f 235 293 265
f 235 265 266
f 235 266 267
f 236 268 237
f 236 267 297
f 236 297 268
f 237 268 239
f 239 268 240
f 240 268 297
f 240 297 269
f 240 269 270
f 240 270 241
f 241 270 271
f 241 271 242
f 242 271 272
f 242 272 243
f 243 272 273
f 243 273 244
f 244 273 274
f 244 274 245
f 245 274 275
f 245 275 246
f 246 255 247
f 246 275 283
f 246 283 255
f 248 249 276
f 249 277 276
f 251 254 278
f 251 278 316
f 251 316 279
f 252 279 280
f 252 280 281
f 252 281 320
f 252 320 282
f 254 260 278
f 255 283 284
f 255 284 256
f 256 284 285
f 256 285 257
f 257 285 286
f 257 286 258
f 258 286 287
f 258 287 259
f 259 287 288
f 259 288 261
f 260 262 278
f 261 288 289
f 261 289 262
f 262 289 316
f 262 316 278
f 264 291 292
f 264 292 293
f 264 290 291
f 265 293 338
f 265 338 294
f 265 294 266
f 266 294 295
f 266 295 296
f 266 296 297
f 266 297 267
f 269 297 298
f 269 298 299
f 269 299 270
f 270 299 271
f 271 299 300
f 271 300 272
f 272 300 301
f 272 301 302
f 272 302 273
f 273 302 274
f 274 302 303
f 274 303 275
f 275 303 304
f 275 304 305
f 275 305 306
f 275 306 307
f 275 307 308
f 275 308 309
f 275 309 310
f 275 310 311
f 275 311 312
f 275 312 283
f 276 277 282
f 276 282 314
f 276 314 315
f 276 315 313
f 279 316 280
f 280 317 318
f 280 318 319
f 280 319 281
f 280 316 317
f 281 319 372
f 281 372 320
f 282 320 314
f 283 321 284
f 283 312 322
f 283 322 323
f 283 323 324
f 283 324 325
f 283 325 326
f 283 326 327
f 283 327 328
f 283 328 329
f 283 329 321
f 284 321 330
f 284 330 285
f 285 330 286
f 286 330 331
f 286 331 332
f 286 332 287
f 287 332 333
f 287 333 288
f 288 333 289
f 289 333 334
f 289 334 316
f 290 335 292
f 290 292 291
f 292 336 337
f 292 337 338
f 292 338 293
f 292 335 336
f 294 338 339
f 294 339 340
f 294 340 295
f 295 341 296
f 295 340 342
f 295 342 343
f 295 343 341
f 296 341 344
f 296 344 298
f 296 298 297
f 298 344 299
f 299 344 345
f 299 345 300
f 300 345 346
f 300 346 347
f 300 347 301
f 301 347 302
f 302 304 303
f 302 347 348
f 302 348 304
f 304 348 349
f 304 349 305
f 305 349 350
f 305 350 306
f 306 350 307
f 307 350 351
f 307 351 352
f 307 352 308
f 308 352 309
f 309 352 353
f 309 353 354
f 309 354 310
f 310 354 356
f 310 356 311
f 311 355 322
f 311 322 312
f 311 356 355
f 313 315 357
f 314 320 358
f 314 358 359
f 314 359 360
f 314 360 361
f 314 361 362
f 314 362 363
f 314 363 315
f 315 363 364
f 315 364 365
f 315 365 357
f 316 334 317
f 317 334 366
f 317 366 367
f 317 367 318
f 318 367 368
f 318 368 369
f 318 369 370
f 318 370 319
f 319 370 371
f 319 371 372
f 320 372 358
f 321 329 330
f 322 355 373
f 322 373 374
f 322 374 323
f 323 374 324
f 324 374 375
f 324 375 376
f 324 376 325
f 325 376 326
f 326 376 377
f 326 377 378
f 326 378 327
f 327 378 328
f 328 378 379
f 328 379 380
f 328 380 329
f 329 380 330
f 330 380 381
f 330 381 331
f 331 381 332
f 332 381 382
f 332 382 383
f 332 383 333
f 333 383 366
f 333 366 334
f 335 384 385
f 335 385 336
f 336 385 386
f 336 386 387
f 336 387 337
f 337 387 388
f 337 388 389
f 337 389 338
f 338 389 390
f 338 390 339
f 339 390 340
f 340 390 391
f 340 391 392
f 340 392 393
f 340 393 342
f 341 343 394
f 341 394 344
f 342 393 343
f 343 393 395
f 343 395 394
f 344 394 345
f 345 394 396
f 345 396 397
f 345 397 346
f 346 397 347
f 347 349 348
f 347 397 398
f 347 398 349
f 349 398 399
f 349 399 350
f 350 399 400
f 350 400 351
f 351 400 352
f 352 400 401
f 352 401 353
f 353 401 402
f 353 402 354
f 354 402 403
f 354 403 404
f 354 404 356
f 355 356 373
f 356 404 405
f 356 405 373
f 357 365 407
f 357 407 406
f 358 372 408
f 358 408 409
f 358 409 359
f 359 409 410
f 359 410 360
f 360 410 361
f 361 410 411
f 361 411 412
f 361 412 362
f 362 412 364
f 362 364 363
f 364 407 365
f 364 412 413
f 364 413 407
f 366 383 414
f 366 414 367
f 367 414 368
f 368 414 415
f 368 415 416
f 368 416 369
f 369 416 370
f 370 417 371
f 370 416 418
f 370 418 419
f 370 419 417
f 371 417 372
f 372 417 408
f 373 405 420
f 373 420 374
f 374 420 421
f 374 421 422
f 374 422 375
f 375 422 423
f 375 423 376
f 376 423 424
f 376 424 377
f 377 424 378
f 378 424 425
f 378 425 379
f 379 381 380
f 379 425 426
f 379 426 381
f 381 426 427
f 381 427 382
f 382 427 383
f 383 427 428
f 383 428 414
f 384 429 430
f 384 430 385
f 385 430 431
f 385 431 386
f 386 431 432
f 386 432 387
f 387 432 388
f 388 432 433
f 388 433 389
f 389 433 434
f 389 434 390
f 390 434 435
f 390 435 391
f 391 435 392
f 392 435 483
f 392 483 436
f 392 436 393
f 393 436 437
f 393 437 395
f 394 395 438
f 394 438 439
f 394 439 396
f 395 437 440
f 395 440 441
f 395 441 438
f 396 439 397
f 397 399 398
f 397 439 442
f 397 442 399
f 399 442 400
f 400 442 443
f 400 443 401
f 401 443 444
f 401 444 402
f 402 444 445
f 402 445 446
f 402 446 403
f 403 446 404
f 404 446 447
f 404 447 448
f 404 448 420
f 404 420 405
f 406 407 450
f 406 450 449
f 407 413 450
f 408 417 451
f 408 451 452
f 408 452 409
f 409 452 453
f 409 453 410
f 410 453 411
f 411 453 454
f 411 454 455
f 411 455 412
f 412 455 413
f 413 455 456
f 413 456 457
f 413 457 450
f 414 428 458
f 414 458 459
f 414 459 415
f 415 459 460
f 415 460 461
f 415 461 462
f 415 462 416
f 416 462 463
f 416 463 418
f 417 419 464
f 417 464 465
f 417 465 451
f 418 464 419
f 418 463 510
f 418 510 464
f 420 448 466
f 420 466 467
f 420 467 421
f 421 467 422
f 422 467 468
f 422 468 469
f 422 469 423
f 423 469 470
f 423 470 424
f 424 470 471
f 424 471 425
f 425 427 426
f 425 471 427
f 427 471 458
f 427 458 428
f 429 472 473
f 429 473 474
f 429 474 430
f 430 474 431
f 431 475 476
f 431 476 432
f 431 474 477
f 431 477 475
f 432 476 478
f 432 478 479
f 432 479 433
f 433 479 480
f 433 480 481
f 433 481 482
f 433 482 434
f 434 482 483
f 434 483 435
f 436 483 484
f 436 484 485
f 436 485 437
f 437 485 486
f 437 486 487
f 437 487 440
f 438 441 439
f 439 443 442
f 439 441 488
f 439 488 443
f 440 487 441
f 441 487 489
f 441 489 490
f 441 490 488
f 443 488 490
f 443 490 444
f 444 490 445
f 445 490 491
f 445 491 492
f 445 492 446
f 446 492 493
f 446 493 447
f 447 466 448
f 447 493 512
f 447 512 466
f 449 450 495
f 449 495 496
f 449 496 494
f 450 457 497
f 450 497 495
f 451 465 452
f 452 465 498
f 452 498 453
f 453 498 499
f 453 499 500
f 453 500 454
f 454 500 456
f 454 456 455
f 456 500 501
f 456 501 502
f 456 502 457
f 457 502 497
f 458 471 470
f 458 470 503
f 458 503 460
f 458 460 459
f 460 504 505
f 460 505 506
f 460 506 461
f 460 503 504
f 461 506 462
f 462 506 507
f 462 507 508
f 462 508 463
f 463 509 510
f 463 508 509
f 464 510 465
f 465 510 511
f 465 511 498
f 466 512 467
f 467 512 513
f 467 513 468
f 468 513 514
f 468 514 504
f 468 504 469
f 469 504 470
f 470 504 503
f 472 515 473
f 473 516 517
f 473 517 474
f 473 515 516
f 474 517 477
f 475 518 519
f 475 519 478
f 475 478 476
f 475 477 517
f 475 517 518
f 478 519 520
f 478 520 521
f 478 521 480
f 478 480 479
f 480 521 522
f 480 522 481
f 481 522 523
f 481 523 482
f 482 523 524
f 482 524 525
f 482 525 483
f 483 525 484
f 484 525 485
f 485 525 526
f 485 526 527
f 485 527 486
f 486 527 528
f 486 528 529
f 486 529 487
f 487 529 489
f 489 529 530
f 489 530 490
f 490 530 491
f 491 530 492
f 492 530 531
f 492 531 532
f 492 532 493
f 493 533 512
f 493 532 533
f 494 496 535
f 494 535 534
f 495 497 496
f 496 497 536
f 496 536 537
f 496 537 538
f 496 538 539
f 496 539 535
f 497 502 536
f 498 511 540
f 498 540 541
f 498 541 499
f 499 541 500
f 500 541 501
f 501 541 542
f 501 542 502
f 502 542 543
f 502 543 536
f 504 514 544
f 504 544 505
f 505 544 545
f 505 545 506
f 506 545 507
f 507 545 546
f 507 546 547
f 507 547 508
f 508 548 549
f 508 549 509
f 508 547 548
f 509 549 510
f 510 549 511
f 511 549 550
f 511 550 551
f 511 551 540
f 512 533 552
f 512 552 513
f 513 552 553
f 513 553 544
f 513 544 514
f 515 554 516
f 516 555 556
f 516 556 557
f 516 557 517
f 516 554 555
f 517 557 558
f 517 558 518
f 518 558 559
f 518 559 519
f 519 559 560
f 519 560 520
f 520 560 561
f 520 561 562
f 520 562 563
f 520 563 521
f 521 563 522
f 522 563 564
f 522 564 565
f 522 565 566
f 522 566 523
f 523 566 524
f 524 566 567
f 524 567 525
f 525 567 568
f 525 568 526
f 526 568 527
f 527 569 528
f 527 568 610
f 527 610 570
f 527 570 569
f 528 569 529
f 529 531 530
f 529 569 571
f 529 571 531
f 531 571 572
f 531 572 532
f 532 552 533
f 532 572 588
f 532 588 552
f 534 535 539
f 534 539 573
f 536 543 537
f 537 543 574
f 537 574 575
f 537 575 576
f 537 576 577
f 537 577 538
f 538 577 539
f 539 577 578
f 539 578 579
f 539 579 573
f 540 551 541
f 541 551 580
f 541 580 542
f 542 580 581
f 542 581 574
f 542 574 543
f 544 553 545
f 545 553 582
f 545 582 583
f 545 583 546
f 546 583 547
f 547 583 584
f 547 584 627
f 547 627 585
f 547 585 548
f 548 585 549
f 549 585 550
f 550 585 586
f 550 586 587
f 550 587 551
f 551 587 580
f 552 588 553
f 553 588 582
f 554 589 555
f 555 590 556
f 555 589 591
f 555 591 592
f 555 592 593
f 555 593 594
f 555 594 590
f 556 595 596
f 556 596 597
f 556 597 558
f 556 558 557
f 556 590 595
f 558 597 598
f 558 598 599
f 558 599 559
f 559 599 600
f 559 600 560
f 560 600 561
f 561 600 601
f 561 601 602
f 561 602 603
f 561 603 604
f 561 604 562
f 562 604 564
f 562 564 563
f 564 604 605
f 564 605 606
f 564 606 607
f 564 607 565
f 565 607 566
f 566 607 608
f 566 608 567
f 567 608 609
f 567 609 610
f 567 610 568
f 569 572 571
f 569 570 611
f 569 611 572
f 570 610 612
f 570 612 613
f 570 613 611
f 572 611 626
f 572 626 588
f 574 581 575
f 575 581 614
f 575 614 615
f 575 615 616
f 575 616 617
f 575 617 576
f 576 617 577
f 577 618 619
f 577 619 578
f 577 617 618
f 578 619 620
f 578 620 621
f 578 621 622
f 578 622 623
f 578 623 579
f 580 587 624
f 580 624 581
f 581 624 625
f 581 625 614
f 582 588 583
f 583 588 626
f 583 626 584
f 584 626 628
f 584 628 629
f 584 629 627
f 585 630 586
f 585 627 630
f 586 630 587
f 587 631 625
f 587 625 624
f 587 630 631
f 590 619 632
f 590 632 595
f 590 594 633
f 590 633 634
f 590 634 635
f 590 635 649
f 590 649 619
f 595 632 618
f 595 618 636
f 595 636 596
f 596 636 617
f 596 617 637
f 596 637 638
f 596 638 598
f 596 598 597
f 598 638 639
f 598 639 640
f 598 640 600
f 598 600 599
f 600 640 641
f 600 641 601
f 601 641 642
f 601 642 602
f 602 642 643
f 602 643 603
f 603 643 644
f 603 644 605
f 603 605 604
f 605 644 645
f 605 645 606
f 606 645 607
f 607 645 608
f 608 645 609
f 609 645 610
f 610 645 612
f 611 613 646
f 611 646 626
f 612 645 613
f 613 645 654
f 613 654 628
f 613 628 646
f 614 625 647
f 614 647 615
f 615 647 648
f 615 648 639
f 615 639 638
f 615 638 616
f 616 638 637
f 616 637 617
f 617 636 618
f 618 632 619
f 619 649 650
f 619 650 651
f 619 651 652
f 619 652 620
f 625 631 653
f 625 653 647
f 626 646 628
f 627 629 654
f 627 654 655
f 627 655 630
f 628 654 629
f 630 653 631
f 630 655 653
f 639 648 656
f 639 656 640
f 640 656 641
f 641 656 642
f 642 657 658
f 642 658 659
f 642 659 643
f 642 656 657
f 643 659 645
f 643 645 644
f 645 659 658
f 645 658 660
f 645 660 654
f 647 656 648
f 647 653 657
f 647 657 656
f 653 655 658
f 653 658 657
f 654 660 655
f 655 660 658