# https://github.com/mikedh/trimesh
v 0.00049524 0.01015654 -0.00683364 0.38039216 0.78823529 0.52549020
v 0.00049524 0.01013665 -0.00658863 0.38039216 0.78823529 0.52549020
v 0.00049524 0.01015654 -0.01111980 0.38039216 0.78823529 0.52549020
v -0.01064686 0.01015654 -0.00529473 0.38039216 0.78823529 0.52549020
v 0.00049524 0.01007698 -0.00635015 0.38039216 0.78823529 0.52549020
v 0.00049524 0.01015405 -0.01117706 0.38039216 0.78823529 0.52549020
v -0.00000071 0.01015654 -0.01117562 0.38039216 0.78823529 0.52549020
v -0.01040128 0.01013665 -0.00529473 0.38039216 0.78823529 0.52549020
v 0.00049524 0.00968414 -0.00573256 0.38039216 0.78823529 0.52549020
v 0.00049524 0.00977116 -0.00582824 0.38039216 0.78823529 0.52549020
v 0.00049524 0.00984824 -0.00591595 0.38039216 0.78823529 0.52549020
v 0.00049524 0.00991786 -0.00602396 0.38039216 0.78823529 0.52549020
v 0.00049524 0.00998001 -0.00612399 0.38039216 0.78823529 0.52549020
v 0.00049524 0.01002725 -0.00623272 0.38039216 0.78823529 0.52549020
v -0.04869563 0.01015654 -0.00529473 0.38039216 0.78823529 0.52549020
v 0.00049524 0.01014411 -0.01130899 0.38039216 0.78823529 0.52549020
v 0.00049524 0.01013168 -0.01144382 0.38039216 0.78823529 0.52549020
v -0.02463467 0.01013914 -0.01137423 0.38039216 0.78823529 0.52549020
v -0.04869563 0.01015654 -0.01117562 0.38039216 0.78823529 0.52549020
v -0.01016053 0.01007698 -0.00529473 0.38039216 0.78823529 0.52549020
v 0.00049524 0.00868714 -0.00531068 0.38039216 0.78823529 0.52549020
v 0.00049524 0.00874681 -0.00531503 0.38039216 0.78823529 0.52549020
v 0.00049524 0.00881145 -0.00532011 0.38039216 0.78823529 0.52549020
v 0.00049524 0.00886864 -0.00532880 0.38039216 0.78823529 0.52549020
v 0.00049524 0.00893080 -0.00533895 0.38039216 0.78823529 0.52549020
v 0.00049524 0.00904517 -0.00536650 0.38039216 0.78823529 0.52549020
v 0.00049524 0.00910732 -0.00538679 0.38039216 0.78823529 0.52549020
v 0.00049524 0.00916202 -0.00540492 0.38039216 0.78823529 0.52549020
v 0.00049524 0.00922169 -0.00542956 0.38039216 0.78823529 0.52549020
v 0.00049524 0.00927639 -0.00545276 0.38039216 0.78823529 0.52549020
v 0.00049524 0.00933358 -0.00548175 0.38039216 0.78823529 0.52549020
v 0.00049524 0.00938579 -0.00550857 0.38039216 0.78823529 0.52549020
v 0.00049524 0.00944049 -0.00554264 0.38039216 0.78823529 0.52549020
v 0.00049524 0.00948773 -0.00557381 0.38039216 0.78823529 0.52549020
v 0.00049524 0.00959464 -0.00565862 0.38039216 0.78823529 0.52549020
v -0.04869563 -0.01524344 -0.00529473 0.38039216 0.78823529 0.52549020
v 0.00049524 0.01009687 -0.01157212 0.38039216 0.78823529 0.52549020
v -0.00000071 0.01006455 -0.01169680 0.38039216 0.78823529 0.52549020
v -0.04869563 0.01013168 -0.01144454 0.38039216 0.78823529 0.52549020
v -0.01014127 0.01006952 -0.00529473 0.38039216 0.78823529 0.52549020
v 0.00049524 0.00856531 -0.00531068 0.38039216 0.78823529 0.52549020
v -0.00993422 0.00998001 -0.00529473 0.38039216 0.78823529 0.52549020
v -0.00972717 0.00984824 -0.00529473 0.38039216 0.78823529 0.52549020
v -0.00971754 0.00984078 -0.00529473 0.38039216 0.78823529 0.52549020
v -0.00954420 0.00968414 -0.00529473 0.38039216 0.78823529 0.52549020
v -0.00939012 0.00949270 -0.00529473 0.38039216 0.78823529 0.52549020
v -0.00932271 0.00939076 -0.00529473 0.38039216 0.78823529 0.52549020
v -0.00926492 0.00928137 -0.00529473 0.38039216 0.78823529 0.52549020
v -0.00921677 0.00916700 -0.00529473 0.38039216 0.78823529 0.52549020
v -0.00917825 0.00905014 -0.00529473 0.38039216 0.78823529 0.52549020
v -0.00914936 0.00893080 -0.00529473 0.38039216 0.78823529 0.52549020
v -0.00913010 0.00881145 -0.00529473 0.38039216 0.78823529 0.52549020
v -0.00912047 0.00868714 -0.00529473 0.38039216 0.78823529 0.52549020
v -0.01161950 -0.01524344 -0.00529473 0.38039216 0.78823529 0.52549020
v -0.04869563 -0.01524344 -0.01117562 0.38039216 0.78823529 0.52549020
v 0.00049524 0.01006206 -0.01169825 0.38039216 0.78823529 0.52549020
v 0.00049524 0.01000736 -0.01181858 0.38039216 0.78823529 0.52549020
v -0.01232250 0.01002228 -0.01178741 0.38039216 0.78823529 0.52549020
v -0.04869563 0.01006455 -0.01169680 0.38039216 0.78823529 0.52549020
v 0.00049524 -0.00146688 -0.00574850 0.38039216 0.78823529 0.52549020
v -0.00912047 0.00856531 -0.00529473 0.38039216 0.78823529 0.52549020
v -0.01002571 -0.01214800 -0.00529473 0.38039216 0.78823529 0.52549020
v -0.01009793 -0.01378399 -0.00529473 0.38039216 0.78823529 0.52549020
v -0.01010756 -0.01391327 -0.00529473 0.38039216 0.78823529 0.52549020
v -0.01013164 -0.01404007 -0.00529473 0.38039216 0.78823529 0.52549020
v -0.01016053 -0.01415444 -0.00529473 0.38039216 0.78823529 0.52549020
v -0.01020387 -0.01427627 -0.00529473 0.38039216 0.78823529 0.52549020
v -0.01020868 -0.01428870 -0.00529473 0.38039216 0.78823529 0.52549020
v -0.01025683 -0.01439561 -0.00529473 0.38039216 0.78823529 0.52549020
v 0.00049524 -0.01524344 -0.00780931 0.38039216 0.78823529 0.52549020
v 0.00049524 -0.01522106 -0.00755198 0.38039216 0.78823529 0.52549020
v 0.00049524 -0.01521858 -0.00754111 0.38039216 0.78823529 0.52549020
v 0.00049524 -0.01515642 -0.00730190 0.38039216 0.78823529 0.52549020
v 0.00049524 -0.01504951 -0.00706632 0.38039216 0.78823529 0.52549020
v -0.01136430 -0.01522106 -0.00529473 0.38039216 0.78823529 0.52549020
v -0.04869563 -0.01522106 -0.01142860 0.38039216 0.78823529 0.52549020
v -0.02508247 -0.01522604 -0.01137423 0.38039216 0.78823529 0.52549020
v -0.00000071 -0.01524344 -0.01117562 0.38039216 0.78823529 0.52549020
v 0.00049524 0.00995266 -0.01193383 0.38039216 0.78823529 0.52549020
v -0.02463467 0.00998001 -0.01187729 0.38039216 0.78823529 0.52549020
v -0.04869563 0.00995266 -0.01193311 0.38039216 0.78823529 0.52549020
v 0.00049524 -0.01320965 -0.00626171 0.38039216 0.78823529 0.52549020
v -0.01026646 -0.01441550 -0.00529473 0.38039216 0.78823529 0.52549020
v 0.00049524 -0.01378399 -0.00628708 0.38039216 0.78823529 0.52549020
v 0.00049524 -0.01524344 -0.01103209 0.38039216 0.78823529 0.52549020
v 0.00049524 -0.01490530 -0.00685248 0.38039216 0.78823529 0.52549020
v -0.01111392 -0.01515642 -0.00529473 0.38039216 0.78823529 0.52549020
v 0.00049524 -0.01481082 -0.00675390 0.38039216 0.78823529 0.52549020
v 0.00049524 -0.01472629 -0.00666619 0.38039216 0.78823529 0.52549020
v 0.00049524 -0.01462435 -0.00658428 0.38039216 0.78823529 0.52549020
v 0.00049524 -0.01457463 -0.00655021 0.38039216 0.78823529 0.52549020
v 0.00049524 -0.01451744 -0.00651252 0.38039216 0.78823529 0.52549020
v 0.00049524 -0.01440556 -0.00644873 0.38039216 0.78823529 0.52549020
v -0.04869563 -0.01521858 -0.01144382 0.38039216 0.78823529 0.52549020
v 0.00049524 -0.01521858 -0.01144382 0.38039216 0.78823529 0.52549020
v 0.00049524 -0.01523101 -0.01130899 0.38039216 0.78823529 0.52549020
v 0.00049524 -0.01524095 -0.01117706 0.38039216 0.78823529 0.52549020
v 0.00049524 0.00987310 -0.01204981 0.38039216 0.78823529 0.52549020
v -0.01232250 0.00993277 -0.01196500 0.38039216 0.78823529 0.52549020
v -0.04869563 0.00994769 -0.01194180 0.38039216 0.78823529 0.52549020
v -0.01032424 -0.01451744 -0.00529473 0.38039216 0.78823529 0.52549020
v 0.00049524 -0.01391327 -0.00629796 0.38039216 0.78823529 0.52549020
v -0.01039647 -0.01462435 -0.00529473 0.38039216 0.78823529 0.52549020
v -0.01047833 -0.01472629 -0.00529473 0.38039216 0.78823529 0.52549020
v -0.01087798 -0.01504951 -0.00529473 0.38039216 0.78823529 0.52549020
v 0.00049524 -0.01428870 -0.00639581 0.38039216 0.78823529 0.52549020
v 0.00049524 -0.01416688 -0.00635232 0.38039216 0.78823529 0.52549020
v 0.00049524 -0.01404007 -0.00631970 0.38039216 0.78823529 0.52549020
v -0.04869563 -0.01515642 -0.01167795 0.38039216 0.78823529 0.52549020
v -0.03762576 -0.01521112 -0.01147209 0.38039216 0.78823529 0.52549020
v -0.00000071 -0.01515145 -0.01169680 0.38039216 0.78823529 0.52549020
v 0.00049524 -0.01518377 -0.01157212 0.38039216 0.78823529 0.52549020
v -0.01254399 -0.01521112 -0.01147209 0.38039216 0.78823529 0.52549020
v 0.00049524 0.00979603 -0.01215782 0.38039216 0.78823529 0.52549020
v -0.00000071 0.00979851 -0.01215492 0.38039216 0.78823529 0.52549020
v -0.01232250 0.00981840 -0.01212810 0.38039216 0.78823529 0.52549020
v -0.03695646 0.00993277 -0.01196500 0.38039216 0.78823529 0.52549020
v -0.04869563 0.00980349 -0.01214912 0.38039216 0.78823529 0.52549020
v -0.01066611 -0.01490530 -0.00529473 0.38039216 0.78823529 0.52549020
v -0.04869563 -0.01515145 -0.01169317 0.38039216 0.78823529 0.52549020
v -0.03762576 -0.01515145 -0.01169680 0.38039216 0.78823529 0.52549020
v 0.00049524 -0.01509675 -0.01181350 0.38039216 0.78823529 0.52549020
v 0.00049524 -0.01514896 -0.01169825 0.38039216 0.78823529 0.52549020
v -0.01254399 -0.01510918 -0.01178741 0.38039216 0.78823529 0.52549020
v 0.00049524 0.00970155 -0.01225205 0.38039216 0.78823529 0.52549020
v -0.00000071 0.00961204 -0.01234338 0.38039216 0.78823529 0.52549020
v -0.01232250 0.00977614 -0.01217884 0.38039216 0.78823529 0.52549020
v -0.04869563 0.00979603 -0.01215854 0.38039216 0.78823529 0.52549020
v -0.03695646 0.00981840 -0.01212810 0.38039216 0.78823529 0.52549020
v -0.04869563 -0.01514896 -0.01170042 0.38039216 0.78823529 0.52549020
v -0.04869563 -0.01503956 -0.01193383 0.38039216 0.78823529 0.52549020
v -0.02508247 -0.01506691 -0.01187729 0.38039216 0.78823529 0.52549020
v 0.00049524 -0.01503956 -0.01193383 0.38039216 0.78823529 0.52549020
v 0.00049524 0.00960707 -0.01234556 0.38039216 0.78823529 0.52549020
v 0.00049524 0.00939325 -0.01249633 0.38039216 0.78823529 0.52549020
v -0.04869563 0.00940071 -0.01249126 0.38039216 0.78823529 0.52549020
v -0.03695646 0.00961204 -0.01234338 0.38039216 0.78823529 0.52549020
v -0.03695646 0.00977614 -0.01217884 0.38039216 0.78823529 0.52549020
v -0.04869563 0.00961701 -0.01233758 0.38039216 0.78823529 0.52549020
v -0.04869563 -0.01503211 -0.01194760 0.38039216 0.78823529 0.52549020
v 0.00049524 -0.01496000 -0.01204981 0.38039216 0.78823529 0.52549020
v -0.01254399 -0.01501967 -0.01196500 0.38039216 0.78823529 0.52549020
v 0.00049524 0.00915705 -0.01260579 0.38039216 0.78823529 0.52549020
v -0.01232250 0.00924407 -0.01256592 0.38039216 0.78823529 0.52549020
v -0.03695646 0.00924407 -0.01256592 0.38039216 0.78823529 0.52549020
v -0.04869563 0.00939325 -0.01249561 0.38039216 0.78823529 0.52549020
v -0.04869563 0.00960707 -0.01234556 0.38039216 0.78823529 0.52549020
v -0.04869563 -0.01489784 -0.01213897 0.38039216 0.78823529 0.52549020
v -0.01254399 -0.01490530 -0.01212810 0.38039216 0.78823529 0.52549020
v -0.00000071 -0.01488541 -0.01215492 0.38039216 0.78823529 0.52549020
v 0.00049524 -0.01488541 -0.01215419 0.38039216 0.78823529 0.52549020
v 0.00049524 0.00914959 -0.01260869 0.38039216 0.78823529 0.52549020
v -0.00000071 0.00915208 -0.01260796 0.38039216 0.78823529 0.52549020
v -0.04869563 0.00915705 -0.01260579 0.38039216 0.78823529 0.52549020
v -0.04869563 -0.01488790 -0.01215202 0.38039216 0.78823529 0.52549020
v 0.00049524 -0.01479342 -0.01224842 0.38039216 0.78823529 0.52549020
v -0.04869563 -0.01487795 -0.01216362 0.38039216 0.78823529 0.52549020
v -0.01254399 -0.01486304 -0.01217884 0.38039216 0.78823529 0.52549020
v 0.00049524 0.00902030 -0.01264348 0.38039216 0.78823529 0.52549020
v -0.03695646 0.00915208 -0.01260796 0.38039216 0.78823529 0.52549020
v -0.04869563 0.00914710 -0.01260869 0.38039216 0.78823529 0.52549020
v 0.00049524 -0.01469894 -0.01234193 0.38039216 0.78823529 0.52549020
v -0.00000071 -0.01469894 -0.01234338 0.38039216 0.78823529 0.52549020
v -0.04869563 -0.01471137 -0.01232961 0.38039216 0.78823529 0.52549020
v -0.03762576 -0.01469894 -0.01234338 0.38039216 0.78823529 0.52549020
v -0.03762576 -0.01486304 -0.01217884 0.38039216 0.78823529 0.52549020
v 0.00049524 0.00889102 -0.01267682 0.38039216 0.78823529 0.52549020
v -0.00000071 0.00889599 -0.01267682 0.38039216 0.78823529 0.52549020
v -0.03695646 0.00889599 -0.01267682 0.38039216 0.78823529 0.52549020
v -0.03695646 0.00911976 -0.01261666 0.38039216 0.78823529 0.52549020
v -0.04869563 0.00890345 -0.01267465 0.38039216 0.78823529 0.52549020
v 0.00049524 -0.01448015 -0.01249633 0.38039216 0.78823529 0.52549020
v -0.04869563 -0.01469397 -0.01234556 0.38039216 0.78823529 0.52549020
v -0.04869563 -0.01468900 -0.01234991 0.38039216 0.78823529 0.52549020
v -0.03762576 -0.01450750 -0.01247676 0.38039216 0.78823529 0.52549020
v 0.00049524 0.00875924 -0.01268842 0.38039216 0.78823529 0.52549020
v 0.00049524 0.00863244 -0.01269929 0.38039216 0.78823529 0.52549020
v -0.01232250 0.00866476 -0.01269712 0.38039216 0.78823529 0.52549020
v -0.02463467 0.00863244 -0.01270002 0.38039216 0.78823529 0.52549020
v -0.01232250 0.00886367 -0.01267972 0.38039216 0.78823529 0.52549020
v -0.03695646 0.00886367 -0.01267972 0.38039216 0.78823529 0.52549020
v -0.04869563 0.00889102 -0.01267682 0.38039216 0.78823529 0.52549020
v 0.00049524 -0.01424395 -0.01260579 0.38039216 0.78823529 0.52549020
v -0.03762576 -0.01448015 -0.01249561 0.38039216 0.78823529 0.52549020
v -0.04869563 -0.01447766 -0.01249706 0.38039216 0.78823529 0.52549020
v -0.03762576 -0.01433097 -0.01256592 0.38039216 0.78823529 0.52549020
v -0.01254399 -0.01433097 -0.01256592 0.38039216 0.78823529 0.52549020
v 0.00049524 -0.01371934 -0.01269929 0.38039216 0.78823529 0.52549020
v -0.02441317 0.00304325 -0.01270002 0.38039216 0.78823529 0.52549020
v -0.04869563 0.00863244 -0.01270002 0.38039216 0.78823529 0.52549020
v 0.00049524 -0.01423649 -0.01260869 0.38039216 0.78823529 0.52549020
v -0.04869563 -0.01424395 -0.01260579 0.38039216 0.78823529 0.52549020
v -0.00000071 -0.01423898 -0.01260796 0.38039216 0.78823529 0.52549020
v 0.00049524 -0.01398289 -0.01267610 0.38039216 0.78823529 0.52549020
v -0.00000071 -0.01398289 -0.01267682 0.38039216 0.78823529 0.52549020
v -0.01254399 -0.01375166 -0.01269712 0.38039216 0.78823529 0.52549020
v -0.02508247 -0.01371934 -0.01270002 0.38039216 0.78823529 0.52549020
v -0.04869563 -0.01339364 -0.01270002 0.38039216 0.78823529 0.52549020
v 0.00049524 -0.01411218 -0.01264203 0.38039216 0.78823529 0.52549020
v -0.04869563 -0.01422903 -0.01261086 0.38039216 0.78823529 0.52549020
v -0.04869563 -0.01400278 -0.01267175 0.38039216 0.78823529 0.52549020
v -0.04869563 -0.01423649 -0.01260869 0.38039216 0.78823529 0.52549020
v -0.03762576 -0.01423898 -0.01260796 0.38039216 0.78823529 0.52549020
v -0.03762576 -0.01398289 -0.01267682 0.38039216 0.78823529 0.52549020
v -0.01254399 -0.01395057 -0.01267972 0.38039216 0.78823529 0.52549020
v -0.03762576 -0.01371934 -0.01270002 0.38039216 0.78823529 0.52549020
v -0.04869563 -0.01372183 -0.01269929 0.38039216 0.78823529 0.52549020
v -0.04869563 -0.01398786 -0.01267537 0.38039216 0.78823529 0.52549020
v -0.04869563 -0.01397792 -0.01267682 0.38039216 0.78823529 0.52549020
v -0.04869563 -0.01397046 -0.01267755 0.38039216 0.78823529 0.52549020
v -0.03762576 -0.01395057 -0.01267972 0.38039216 0.78823529 0.52549020
f 1 2 5
f 1 5 14
f 1 14 13
f 1 13 12
f 1 12 11
f 1 11 10
f 1 10 9
f 1 9 35
f 1 35 34
f 1 34 33
f 1 33 32
f 1 32 31
f 1 31 30
f 1 30 29
f 1 29 28
f 1 28 27
f 1 27 26
f 1 26 25
f 1 25 24
f 1 24 23
f 1 23 22
f 1 22 21
f 1 21 41
f 1 41 60
f 1 60 82
f 1 82 84
f 1 84 102
f 1 102 108
f 1 108 107
f 1 107 106
f 1 106 93
f 1 93 92
f 1 92 91
f 1 91 90
f 1 90 89
f 1 89 88
f 1 88 86
f 1 86 74
f 1 74 73
f 1 73 72
f 1 72 71
f 1 71 70
f 1 70 85
f 1 85 97
f 1 97 96
f 1 96 95
f 1 95 112
f 1 112 123
f 1 123 122
f 1 122 133
f 1 133 141
f 1 141 151
f 1 151 156
f 1 156 162
f 1 162 172
f 1 172 183
f 1 183 191
f 1 191 199
f 1 199 194
f 1 194 188
f 1 188 177
f 1 177 176
f 1 176 167
f 1 167 159
f 1 159 152
f 1 152 143
f 1 143 135
f 1 135 134
f 1 134 125
f 1 125 114
f 1 114 98
f 1 98 79
f 1 79 57
f 1 57 56
f 1 56 37
f 1 37 17
f 1 17 16
f 1 16 6
f 1 6 3
f 1 3 7
f 1 7 19
f 1 19 15
f 1 15 4
f 1 4 2
f 2 4 5
f 3 6 7
f 4 8 9
f 4 9 10
f 4 10 11
f 4 11 12
f 4 12 13
f 4 13 14
f 4 14 5
f 4 15 36
f 4 36 54
f 4 54 75
f 4 75 87
f 4 87 105
f 4 105 119
f 4 119 104
f 4 104 103
f 4 103 101
f 4 101 83
f 4 83 69
f 4 69 68
f 4 68 67
f 4 67 66
f 4 66 65
f 4 65 64
f 4 64 63
f 4 63 62
f 4 62 61
f 4 61 53
f 4 53 52
f 4 52 51
f 4 51 50
f 4 50 49
f 4 49 48
f 4 48 47
f 4 47 46
f 4 46 45
f 4 45 44
f 4 44 43
f 4 43 42
f 4 42 40
f 4 40 20
f 4 20 8
f 6 16 7
f 7 16 17
f 7 17 18
f 7 18 19
f 8 20 21
f 8 21 22
f 8 22 23
f 8 23 24
f 8 24 25
f 8 25 26
f 8 26 27
f 8 27 28
f 8 28 29
f 8 29 30
f 8 30 31
f 8 31 32
f 8 32 33
f 8 33 34
f 8 34 35
f 8 35 9
f 15 19 39
f 15 39 59
f 15 59 81
f 15 81 100
f 15 100 118
f 15 118 128
f 15 128 139
f 15 139 147
f 15 147 136
f 15 136 146
f 15 146 154
f 15 154 161
f 15 161 171
f 15 171 182
f 15 182 190
f 15 190 198
f 15 198 207
f 15 207 210
f 15 210 209
f 15 209 208
f 15 208 201
f 15 201 200
f 15 200 202
f 15 202 192
f 15 192 185
f 15 185 174
f 15 174 173
f 15 173 164
f 15 164 157
f 15 157 155
f 15 155 148
f 15 148 140
f 15 140 131
f 15 131 130
f 15 130 120
f 15 120 109
f 15 109 94
f 15 94 76
f 15 76 55
f 15 55 36
f 17 37 38
f 17 38 39
f 17 39 18
f 18 39 19
f 20 40 21
f 21 40 42
f 21 42 43
f 21 43 44
f 21 44 45
f 21 45 46
f 21 46 47
f 21 47 48
f 21 48 49
f 21 49 50
f 21 50 51
f 21 51 52
f 21 52 53
f 21 53 61
f 21 61 41
f 36 55 78
f 36 78 85
f 36 85 70
f 36 70 54
f 37 56 38
f 38 56 57
f 38 57 58
f 38 58 59
f 38 59 39
f 41 61 62
f 41 62 63
f 41 63 64
f 41 64 65
f 41 65 66
f 41 66 67
f 41 67 68
f 41 68 69
f 41 69 60
f 54 70 71
f 54 71 72
f 54 72 73
f 54 73 74
f 54 74 75
f 55 76 77
f 55 77 78
f 57 79 80
f 57 80 58
f 58 80 59
f 59 80 81
f 60 69 82
f 69 83 84
f 69 84 82
f 74 86 75
f 75 86 88
f 75 88 89
f 75 89 90
f 75 90 91
f 75 91 92
f 75 92 93
f 75 93 87
f 76 94 95
f 76 95 77
f 77 95 78
f 78 95 96
f 78 96 97
f 78 97 85
f 79 98 99
f 79 99 100
f 79 100 81
f 79 81 80
f 83 101 84
f 84 101 103
f 84 103 104
f 84 104 102
f 87 93 106
f 87 106 107
f 87 107 108
f 87 108 105
f 94 109 110
f 94 110 113
f 94 113 95
f 95 111 112
f 95 113 111
f 98 114 115
f 98 115 116
f 98 116 99
f 99 116 129
f 99 129 117
f 99 117 100
f 100 117 118
f 102 104 119
f 102 119 105
f 102 105 108
f 109 120 121
f 109 121 110
f 110 121 111
f 110 111 113
f 111 122 123
f 111 123 112
f 111 121 124
f 111 124 122
f 114 125 126
f 114 126 127
f 114 127 128
f 114 128 115
f 115 128 118
f 115 118 116
f 116 118 129
f 117 129 118
f 120 130 121
f 121 130 131
f 121 131 132
f 121 132 124
f 122 124 132
f 122 132 133
f 125 134 126
f 126 134 135
f 126 135 136
f 126 136 137
f 126 137 138
f 126 138 127
f 127 138 128
f 128 138 137
f 128 137 139
f 131 140 133
f 131 133 132
f 133 140 142
f 133 142 141
f 135 143 144
f 135 144 145
f 135 145 146
f 135 146 136
f 136 147 137
f 137 147 139
f 140 148 149
f 140 149 142
f 141 150 151
f 141 142 149
f 141 149 150
f 143 152 153
f 143 153 160
f 143 160 154
f 143 154 145
f 143 145 144
f 145 154 146
f 148 155 150
f 148 150 149
f 150 156 151
f 150 155 157
f 150 157 158
f 150 158 156
f 152 159 170
f 152 170 160
f 152 160 153
f 154 160 161
f 156 158 163
f 156 163 162
f 157 164 165
f 157 165 166
f 157 166 158
f 158 166 165
f 158 165 163
f 159 167 168
f 159 168 169
f 159 169 170
f 160 170 171
f 160 171 161
f 162 163 172
f 163 165 172
f 164 173 165
f 165 173 174
f 165 174 175
f 165 175 172
f 167 176 168
f 168 176 177
f 168 177 178
f 168 178 179
f 168 179 180
f 168 180 181
f 168 181 169
f 169 181 190
f 169 190 182
f 169 182 171
f 169 171 170
f 172 175 184
f 172 184 185
f 172 185 186
f 172 186 187
f 172 187 183
f 174 185 175
f 175 185 184
f 177 188 189
f 177 189 179
f 177 179 178
f 179 189 197
f 179 197 206
f 179 206 198
f 179 198 190
f 179 190 181
f 179 181 180
f 183 187 186
f 183 186 192
f 183 192 203
f 183 203 193
f 183 193 191
f 185 192 186
f 188 194 195
f 188 195 196
f 188 196 197
f 188 197 189
f 191 193 203
f 191 203 202
f 191 202 200
f 191 200 201
f 191 201 195
f 191 195 199
f 192 202 203
f 194 199 195
f 195 201 204
f 195 204 211
f 195 211 205
f 195 205 197
f 195 197 196
f 197 205 211
f 197 211 206
f 198 206 207
f 201 208 204
f 204 208 209
f 204 209 210
f 204 210 211
f 206 211 210
f 206 210 207