# https://github.com/mikedh/trimesh
v 0.01346149 0.00265565 0.02499963 0.77647059 0.86666667 0.97647059
v 0.00083019 -0.00271908 0.02650200 0.77647059 0.86666667 0.97647059
v 0.00087236 -0.00272922 0.02650200 0.77647059 0.86666667 0.97647059
v 0.00224274 -0.00309610 0.02650200 0.77647059 0.86666667 0.97647059
v 0.00228228 -0.00311639 0.02650200 0.77647059 0.86666667 0.97647059
v 0.00352090 -0.00380450 0.02650200 0.77647059 0.86666667 0.97647059
v 0.00355516 -0.00383325 0.02650200 0.77647059 0.86666667 0.97647059
v 0.00459085 -0.00480032 0.02650200 0.77647059 0.86666667 0.97647059
v 0.00461721 -0.00483583 0.02650200 0.77647059 0.86666667 0.97647059
v 0.00538937 -0.00602439 0.02650200 0.77647059 0.86666667 0.97647059
v 0.00540518 -0.00606497 0.02650200 0.77647059 0.86666667 0.97647059
v 0.00586637 -0.00740569 0.02650200 0.77647059 0.86666667 0.97647059
v 0.00587164 -0.00744965 0.02650200 0.77647059 0.86666667 0.97647059
v 0.00599550 -0.00886307 0.02650200 0.77647059 0.86666667 0.97647059
v 0.00599023 -0.00890534 0.02650200 0.77647059 0.86666667 0.97647059
v 0.00576886 -0.01030692 0.02650200 0.77647059 0.86666667 0.97647059
v 0.00575305 -0.01034750 0.02650200 0.77647059 0.86666667 0.97647059
v 0.00519962 -0.01165272 0.02650200 0.77647059 0.86666667 0.97647059
v 0.01346149 0.00265565 0.02000005 0.77647059 0.86666667 0.97647059
v -0.01346139 0.00265565 0.02499963 0.77647059 0.86666667 0.97647059
v -0.00058500 -0.00269372 0.02650200 0.77647059 0.86666667 0.97647059
v 0.00511266 -0.01177445 0.02650200 0.77647059 0.86666667 0.97647059
v 0.00519435 -0.01165948 0.01996871 0.77647059 0.86666667 0.97647059
v 0.00576623 -0.01031369 0.01996871 0.77647059 0.86666667 0.97647059
v 0.00599550 -0.00886814 0.01996871 0.77647059 0.86666667 0.97647059
v 0.00586637 -0.00741245 0.01996871 0.77647059 0.86666667 0.97647059
v 0.00539200 -0.00602946 0.01996871 0.77647059 0.86666667 0.97647059
v 0.00459612 -0.00480371 0.01996871 0.77647059 0.86666667 0.97647059
v 0.00352617 -0.00380619 0.01996871 0.77647059 0.86666667 0.97647059
v 0.00224538 -0.00309779 0.01996871 0.77647059 0.86666667 0.97647059
v 0.00083546 -0.00271908 0.01996871 0.77647059 0.86666667 0.97647059
v -0.00062453 -0.00269372 0.01996871 0.77647059 0.86666667 0.97647059
v -0.01346139 0.00265565 0.02000005 0.77647059 0.86666667 0.97647059
v -0.00519952 -0.01165272 0.02650200 0.77647059 0.86666667 0.97647059
v -0.00562645 -0.01073298 0.02650200 0.77647059 0.86666667 0.97647059
v -0.00564226 -0.01069240 0.02650200 0.77647059 0.86666667 0.97647059
v -0.00590580 -0.00971349 0.02650200 0.77647059 0.86666667 0.97647059
v -0.00591107 -0.00966953 0.02650200 0.77647059 0.86666667 0.97647059
v -0.00599804 -0.00866019 0.02650200 0.77647059 0.86666667 0.97647059
v -0.00599277 -0.00861623 0.02650200 0.77647059 0.86666667 0.97647059
v -0.00582147 -0.00720788 0.02650200 0.77647059 0.86666667 0.97647059
v -0.00529703 -0.00584517 0.02650200 0.77647059 0.86666667 0.97647059
v -0.00527331 -0.00580967 0.02650200 0.77647059 0.86666667 0.97647059
v -0.00445899 -0.00464816 0.02650200 0.77647059 0.86666667 0.97647059
v -0.00335477 -0.00368785 0.02650200 0.77647059 0.86666667 0.97647059
v -0.00331787 -0.00366756 0.02650200 0.77647059 0.86666667 0.97647059
v -0.00205290 -0.00302340 0.02650200 0.77647059 0.86666667 0.97647059
v -0.00201073 -0.00301326 0.02650200 0.77647059 0.86666667 0.97647059
v -0.00062980 -0.00269372 0.02650200 0.77647059 0.86666667 0.97647059
v 0.00502042 -0.01190294 0.01996871 0.77647059 0.86666667 0.97647059
v 0.00449071 -0.01263839 0.02650200 0.77647059 0.86666667 0.97647059
v -0.00205026 -0.00302340 0.01996871 0.77647059 0.86666667 0.97647059
v -0.00335213 -0.00368616 0.01996871 0.77647059 0.86666667 0.97647059
v -0.00445635 -0.00464647 0.01996871 0.77647059 0.86666667 0.97647059
v -0.00529703 -0.00584348 0.01996871 0.77647059 0.86666667 0.97647059
v -0.00582147 -0.00720788 0.01996871 0.77647059 0.86666667 0.97647059
v -0.00599804 -0.00866019 0.01996871 0.77647059 0.86666667 0.97647059
v -0.00590843 -0.00969996 0.01996871 0.77647059 0.86666667 0.97647059
v -0.00563699 -0.01071100 0.01996871 0.77647059 0.86666667 0.97647059
v -0.00519425 -0.01165948 0.01996871 0.77647059 0.86666667 0.97647059
v -0.00511256 -0.01177445 0.02650200 0.77647059 0.86666667 0.97647059
v 0.00449071 -0.01263839 0.01996871 0.77647059 0.86666667 0.97647059
v 0.00340758 -0.01359702 0.02650200 0.77647059 0.86666667 0.97647059
v -0.00449061 -0.01263839 0.01996871 0.77647059 0.86666667 0.97647059
v -0.00460657 -0.01247778 0.02650200 0.77647059 0.86666667 0.97647059
v 0.00340758 -0.01359702 0.01996871 0.77647059 0.86666667 0.97647059
v 0.00324682 -0.01368155 0.01996871 0.77647059 0.86666667 0.97647059
v 0.00212679 -0.01426992 0.02650200 0.77647059 0.86666667 0.97647059
v -0.00340747 -0.01359702 0.01996871 0.77647059 0.86666667 0.97647059
v -0.00349708 -0.01351925 0.02650200 0.77647059 0.86666667 0.97647059
v -0.00449061 -0.01263839 0.02650200 0.77647059 0.86666667 0.97647059
v 0.00212679 -0.01426992 0.01996871 0.77647059 0.86666667 0.97647059
v 0.00072214 -0.01461651 0.02650200 0.77647059 0.86666667 0.97647059
v -0.00340747 -0.01359702 0.02650200 0.77647059 0.86666667 0.97647059
v -0.00292520 -0.01385063 0.01996871 0.77647059 0.86666667 0.97647059
v 0.00072214 -0.01461651 0.01996871 0.77647059 0.86666667 0.97647059
v -0.00072204 -0.01461651 0.02650200 0.77647059 0.86666667 0.97647059
v -0.00212669 -0.01426992 0.02650200 0.77647059 0.86666667 0.97647059
v -0.00215568 -0.01425470 0.01996871 0.77647059 0.86666667 0.97647059
v -0.00072204 -0.01461651 0.01996871 0.77647059 0.86666667 0.97647059
v -0.00212669 -0.01426992 0.01996871 0.77647059 0.86666667 0.97647059
f 1 2 3
f 1 3 4
f 1 4 5
f 1 5 6
f 1 6 7
f 1 7 8
f 1 8 9
f 1 9 10
f 1 10 11
f 1 11 12
f 1 12 13
f 1 13 14
f 1 14 15
f 1 15 16
f 1 16 17
f 1 17 18
f 1 18 19
f 1 19 33
f 1 33 20
f 1 20 49
f 1 49 21
f 1 21 2
f 2 21 49
f 2 49 48
f 2 48 47
f 2 47 46
f 2 46 45
f 2 45 44
f 2 44 43
f 2 43 42
f 2 42 41
f 2 41 40
f 2 40 39
f 2 39 38
f 2 38 37
f 2 37 36
f 2 36 35
f 2 35 34
f 2 34 61
f 2 61 65
f 2 65 71
f 2 71 70
f 2 70 74
f 2 74 78
f 2 78 77
f 2 77 73
f 2 73 68
f 2 68 63
f 2 63 51
f 2 51 22
f 2 22 18
f 2 18 17
f 2 17 16
f 2 16 15
f 2 15 14
f 2 14 13
f 2 13 12
f 2 12 11
f 2 11 10
f 2 10 9
f 2 9 8
f 2 8 7
f 2 7 6
f 2 6 5
f 2 5 4
f 2 4 3
f 18 22 50
f 18 50 23
f 18 23 19
f 19 23 24
f 19 24 25
f 19 25 26
f 19 26 27
f 19 27 28
f 19 28 29
f 19 29 30
f 19 30 31
f 19 31 32
f 19 32 33
f 20 33 34
f 20 34 35
f 20 35 36
f 20 36 37
f 20 37 38
f 20 38 39
f 20 39 40
f 20 40 41
f 20 41 42
f 20 42 43
f 20 43 44
f 20 44 45
f 20 45 46
f 20 46 47
f 20 47 48
f 20 48 49
f 22 51 50
f 23 50 62
f 23 62 66
f 23 66 67
f 23 67 72
f 23 72 76
f 23 76 80
f 23 80 81
f 23 81 79
f 23 79 75
f 23 75 69
f 23 69 64
f 23 64 60
f 23 60 59
f 23 59 58
f 23 58 57
f 23 57 56
f 23 56 55
f 23 55 54
f 23 54 53
f 23 53 52
f 23 52 32
f 23 32 31
f 23 31 30
f 23 30 29
f 23 29 28
f 23 28 27
f 23 27 26
f 23 26 25
f 23 25 24
f 32 52 33
f 33 52 53
f 33 53 54
f 33 54 55
f 33 55 56
f 33 56 57
f 33 57 58
f 33 58 59
f 33 59 60
f 33 60 34
f 34 60 61
f 50 51 62
f 51 63 66
f 51 66 62
f 60 64 61
f 61 64 65
f 63 67 66
f 63 68 67
f 64 69 70
f 64 70 71
f 64 71 65
f 67 68 72
f 68 73 76
f 68 76 72
f 69 74 70
f 69 75 74
f 73 77 80
f 73 80 76
f 74 75 78
f 75 79 78
f 77 78 81
f 77 81 80
f 78 79 81