# https://github.com/mikedh/trimesh
v 0.01600000 0.00866069 0.07499520 0.11764706 0.63921569 0.14117647
v 0.01582498 0.01009503 0.07499520 0.11764706 0.63921569 0.14117647
v 0.01582498 0.00722517 0.07499520 0.11764706 0.63921569 0.14117647
v 0.01600000 0.00866069 0.02598488 0.11764706 0.63921569 0.14117647
v 0.01582498 0.01009503 0.02598488 0.11764706 0.63921569 0.14117647
v 0.01559710 0.01069854 0.02598488 0.11764706 0.63921569 0.14117647
v 0.01531167 0.01144852 0.07499520 0.11764706 0.63921569 0.14117647
v 0.01531167 0.00587285 0.07499520 0.11764706 0.63921569 0.14117647
v 0.01582498 0.00722517 0.02598488 0.11764706 0.63921569 0.14117647
v 0.01535513 0.01133603 0.02598488 0.11764706 0.63921569 0.14117647
v 0.01531167 0.01144852 0.02598488 0.11764706 0.63921569 0.14117647
v 0.01485709 0.01210828 0.02598488 0.11764706 0.63921569 0.14117647
v 0.01449060 0.01263795 0.07499520 0.11764706 0.63921569 0.14117647
v 0.01449060 0.00468225 0.07499520 0.11764706 0.63921569 0.14117647
v 0.01519773 0.00566543 0.02598488 0.11764706 0.63921569 0.14117647
v 0.01520830 0.00569121 0.02598488 0.11764706 0.63921569 0.14117647
v 0.01526468 0.00583066 0.02598488 0.11764706 0.63921569 0.14117647
v 0.01449060 0.01263795 0.02598488 0.11764706 0.63921569 0.14117647
v 0.01389037 0.01316997 0.02598488 0.11764706 0.63921569 0.14117647
v 0.01340760 0.01359770 0.07499520 0.11764706 0.63921569 0.14117647
v 0.01340760 0.00372250 0.07499520 0.11764706 0.63921569 0.14117647
v 0.01432381 0.00450413 0.02598488 0.11764706 0.63921569 0.14117647
v 0.01434495 0.00452405 0.02598488 0.11764706 0.63921569 0.14117647
v 0.01518129 0.00564200 0.02598488 0.11764706 0.63921569 0.14117647
v 0.01340760 0.01359770 0.02598488 0.11764706 0.63921569 0.14117647
v 0.01212725 0.01427034 0.07499520 0.11764706 0.63921569 0.14117647
v 0.01212725 0.00305103 0.07499520 0.11764706 0.63921569 0.14117647
v 0.01322083 0.00360180 0.02598488 0.11764706 0.63921569 0.14117647
v 0.01324667 0.00361586 0.02598488 0.11764706 0.63921569 0.14117647
v 0.01212725 0.01427034 0.02598488 0.11764706 0.63921569 0.14117647
v 0.01072240 0.01461604 0.07499520 0.11764706 0.63921569 0.14117647
v 0.01072240 0.00270416 0.07499520 0.11764706 0.63921569 0.14117647
v 0.01193696 0.00298541 0.02598488 0.11764706 0.63921569 0.14117647
v 0.01196515 0.00299244 0.02598488 0.11764706 0.63921569 0.14117647
v 0.01072240 0.01461604 0.02598488 0.11764706 0.63921569 0.14117647
v 0.00927760 0.01461604 0.07499520 0.11764706 0.63921569 0.14117647
v 0.01001410 0.01465940 0.02598488 0.11764706 0.63921569 0.14117647
v 0.00927760 0.00270416 0.07499520 0.11764706 0.63921569 0.14117647
v 0.01057322 0.00268776 0.02598488 0.11764706 0.63921569 0.14117647
v 0.00787275 0.01427034 0.07499520 0.11764706 0.63921569 0.14117647
v 0.00998591 0.01465940 0.02598488 0.11764706 0.63921569 0.14117647
v 0.00867737 0.01451174 0.02598488 0.11764706 0.63921569 0.14117647
v 0.00787275 0.00305103 0.07499520 0.11764706 0.63921569 0.14117647
v 0.00914957 0.00272174 0.02598488 0.11764706 0.63921569 0.14117647
v 0.01054385 0.00268776 0.02598488 0.11764706 0.63921569 0.14117647
v 0.00659240 0.01359770 0.07499520 0.11764706 0.63921569 0.14117647
v 0.00865035 0.01450471 0.02598488 0.11764706 0.63921569 0.14117647
v 0.00740642 0.01406996 0.02598488 0.11764706 0.63921569 0.14117647
v 0.00659240 0.00372250 0.07499520 0.11764706 0.63921569 0.14117647
v 0.00774706 0.00310259 0.02598488 0.11764706 0.63921569 0.14117647
v 0.00777291 0.00308970 0.02598488 0.11764706 0.63921569 0.14117647
v 0.00912138 0.00272877 0.02598488 0.11764706 0.63921569 0.14117647
v 0.00550940 0.01263795 0.07499520 0.11764706 0.63921569 0.14117647
v 0.00738175 0.01405589 0.02598488 0.11764706 0.63921569 0.14117647
v 0.00626586 0.01335513 0.02598488 0.11764706 0.63921569 0.14117647
v 0.00550940 0.00468225 0.07499520 0.11764706 0.63921569 0.14117647
v 0.00652193 0.00377289 0.02598488 0.11764706 0.63921569 0.14117647
v 0.00468833 0.01144852 0.07499520 0.11764706 0.63921569 0.14117647
v 0.00624471 0.01333638 0.02598488 0.11764706 0.63921569 0.14117647
v 0.00531323 0.01240475 0.02598488 0.11764706 0.63921569 0.14117647
v 0.00468833 0.00587285 0.07499520 0.11764706 0.63921569 0.14117647
v 0.00545067 0.00475373 0.02598488 0.11764706 0.63921569 0.14117647
v 0.00546711 0.00473029 0.02598488 0.11764706 0.63921569 0.14117647
v 0.00650078 0.00379164 0.02598488 0.11764706 0.63921569 0.14117647
v 0.00417502 0.01009503 0.07499520 0.11764706 0.63921569 0.14117647
v 0.00529796 0.01238132 0.02598488 0.11764706 0.63921569 0.14117647
v 0.00459671 0.01126689 0.02598488 0.11764706 0.63921569 0.14117647
v 0.00458614 0.01123993 0.02598488 0.11764706 0.63921569 0.14117647
v 0.00417502 0.00722517 0.07499520 0.11764706 0.63921569 0.14117647
v 0.00465779 0.00593730 0.02598488 0.11764706 0.63921569 0.14117647
v 0.00466836 0.00591035 0.02598488 0.11764706 0.63921569 0.14117647
v 0.00400000 0.00866069 0.07499520 0.11764706 0.63921569 0.14117647
v 0.00415153 0.00999660 0.02598488 0.11764706 0.63921569 0.14117647
v 0.00414800 0.00996847 0.02598488 0.11764706 0.63921569 0.14117647
v 0.00416680 0.00727439 0.02598488 0.11764706 0.63921569 0.14117647
v 0.00417032 0.00724626 0.02598488 0.11764706 0.63921569 0.14117647
v 0.00400000 0.00866069 0.02598488 0.11764706 0.63921569 0.14117647
f 1 2 7
f 1 7 13
f 1 13 20
f 1 20 26
f 1 26 31
f 1 31 36
f 1 36 40
f 1 40 46
f 1 46 53
f 1 53 58
f 1 58 65
f 1 65 72
f 1 72 69
f 1 69 61
f 1 61 56
f 1 56 49
f 1 49 43
f 1 43 38
f 1 38 32
f 1 32 27
f 1 27 21
f 1 21 14
f 1 14 8
f 1 8 3
f 1 3 9
f 1 9 4
f 1 4 5
f 1 5 2
f 2 5 6
f 2 6 7
f 3 8 9
f 4 9 17
f 4 17 16
f 4 16 15
f 4 15 24
f 4 24 23
f 4 23 22
f 4 22 29
f 4 29 28
f 4 28 34
f 4 34 33
f 4 33 39
f 4 39 45
f 4 45 44
f 4 44 52
f 4 52 51
f 4 51 50
f 4 50 57
f 4 57 64
f 4 64 63
f 4 63 62
f 4 62 71
f 4 71 70
f 4 70 76
f 4 76 75
f 4 75 77
f 4 77 74
f 4 74 73
f 4 73 68
f 4 68 67
f 4 67 66
f 4 66 60
f 4 60 59
f 4 59 55
f 4 55 54
f 4 54 48
f 4 48 47
f 4 47 42
f 4 42 41
f 4 41 37
f 4 37 35
f 4 35 30
f 4 30 25
f 4 25 19
f 4 19 18
f 4 18 12
f 4 12 11
f 4 11 10
f 4 10 6
f 4 6 5
f 6 10 7
f 7 10 11
f 7 11 12
f 7 12 13
f 8 14 15
f 8 15 16
f 8 16 17
f 8 17 9
f 12 18 13
f 13 18 19
f 13 19 20
f 14 21 22
f 14 22 23
f 14 23 24
f 14 24 15
f 19 25 20
f 20 25 30
f 20 30 26
f 21 27 28
f 21 28 29
f 21 29 22
f 26 30 35
f 26 35 31
f 27 32 33
f 27 33 34
f 27 34 28
f 31 35 37
f 31 37 41
f 31 41 36
f 32 38 45
f 32 45 39
f 32 39 33
f 36 41 42
f 36 42 40
f 38 43 44
f 38 44 45
f 40 42 47
f 40 47 48
f 40 48 46
f 43 49 50
f 43 50 51
f 43 51 52
f 43 52 44
f 46 48 54
f 46 54 55
f 46 55 53
f 49 56 57
f 49 57 50
f 53 55 59
f 53 59 60
f 53 60 58
f 56 61 62
f 56 62 63
f 56 63 64
f 56 64 57
f 58 60 66
f 58 66 67
f 58 67 68
f 58 68 65
f 61 69 70
f 61 70 71
f 61 71 62
f 65 68 73
f 65 73 74
f 65 74 72
f 69 72 75
f 69 75 76
f 69 76 70
f 72 74 77
f 72 77 75