# https://github.com/mikedh/trimesh
v 0.00599994 -0.00866299 -0.03404791 0.54117647 0.42352941 0.64313725
v 0.00582844 -0.01007405 -0.03404791 0.54117647 0.42352941 0.64313725
v 0.00599759 -0.00863965 -0.03404791 0.54117647 0.42352941 0.64313725
v 0.00595883 -0.00826967 -0.01773102 0.54117647 0.42352941 0.64313725
v 0.00599876 -0.00872485 -0.01773102 0.54117647 0.42352941 0.64313725
v 0.00587895 -0.00971107 -0.01773102 0.54117647 0.42352941 0.64313725
v 0.00582374 -0.01009856 -0.03404791 0.54117647 0.42352941 0.64313725
v 0.00580730 -0.01016391 -0.01773102 0.54117647 0.42352941 0.64313725
v 0.00582609 -0.00722859 -0.03404791 0.54117647 0.42352941 0.64313725
v 0.00583901 -0.00728461 -0.01773102 0.54117647 0.42352941 0.64313725
v 0.00586838 -0.00741416 0.01996807 0.54117647 0.42352941 0.64313725
v 0.00599524 -0.00886840 0.01996807 0.54117647 0.42352941 0.64313725
v 0.00576736 -0.01031331 0.01996807 0.54117647 0.42352941 0.64313725
v 0.00533980 -0.01137656 -0.03404791 0.54117647 0.42352941 0.64313725
v 0.00581787 -0.00720408 -0.03404791 0.54117647 0.42352941 0.64313725
v 0.00539148 -0.00603111 0.01996807 0.54117647 0.42352941 0.64313725
v 0.00519532 -0.01165901 0.01996807 0.54117647 0.42352941 0.64313725
v 0.00531043 -0.01145126 -0.03404791 0.54117647 0.42352941 0.64313725
v 0.00545491 -0.01109178 -0.01773102 0.54117647 0.42352941 0.64313725
v 0.00531396 -0.00587589 -0.03404791 0.54117647 0.42352941 0.64313725
v 0.00533745 -0.00592257 -0.01773102 0.54117647 0.42352941 0.64313725
v 0.00508726 -0.00553742 -0.01773102 0.54117647 0.42352941 0.64313725
v 0.00459509 -0.00480563 0.01996807 0.54117647 0.42352941 0.64313725
v 0.00502030 -0.01190294 0.01996807 0.54117647 0.42352941 0.64313725
v 0.00450229 -0.01262189 -0.03404791 0.54117647 0.42352941 0.64313725
v 0.00453401 -0.01257637 -0.03404791 0.54117647 0.42352941 0.64313725
v 0.00529986 -0.00585488 -0.03404791 0.54117647 0.42352941 0.64313725
v 0.00449290 -0.00468541 -0.03404791 0.54117647 0.42352941 0.64313725
v 0.00418750 -0.00440764 -0.01773102 0.54117647 0.42352941 0.64313725
v 0.00352618 -0.00380773 0.01996807 0.54117647 0.42352941 0.64313725
v 0.00449055 -0.01263823 0.01996807 0.54117647 0.42352941 0.64313725
v 0.00449055 -0.01263823 -0.03404791 0.54117647 0.42352941 0.64313725
v 0.00447410 -0.00466791 -0.03404791 0.54117647 0.42352941 0.64313725
v 0.00344513 -0.00374938 -0.01773102 0.54117647 0.42352941 0.64313725
v 0.00224702 -0.00309929 0.01996807 0.54117647 0.42352941 0.64313725
v 0.00304341 -0.00352646 -0.01773102 0.54117647 0.42352941 0.64313725
v 0.00438953 -0.01272810 0.01996807 0.54117647 0.42352941 0.64313725
v 0.00345806 -0.01355209 -0.03404791 0.54117647 0.42352941 0.64313725
v 0.00340755 -0.01359761 -0.01773102 0.54117647 0.42352941 0.64313725
v 0.00340990 -0.00372487 -0.03404791 0.54117647 0.42352941 0.64313725
v 0.00338758 -0.00371203 -0.03404791 0.54117647 0.42352941 0.64313725
v 0.00083512 -0.00272114 0.01996807 0.54117647 0.42352941 0.64313725
v 0.00212956 -0.00305260 -0.03404791 0.54117647 0.42352941 0.64313725
v 0.00216480 -0.00306661 -0.01773102 0.54117647 0.42352941 0.64313725
v 0.00210489 -0.00304560 -0.03404791 0.54117647 0.42352941 0.64313725
v 0.00333942 -0.00368635 -0.03404791 0.54117647 0.42352941 0.64313725
v 0.00340755 -0.01359761 0.01996807 0.54117647 0.42352941 0.64313725
v 0.00340755 -0.01359644 -0.03404791 0.54117647 0.42352941 0.64313725
v 0.00324780 -0.01368164 0.01996807 0.54117647 0.42352941 0.64313725
v 0.00232807 -0.01416483 -0.01773102 0.54117647 0.42352941 0.64313725
v 0.00212721 -0.01426987 -0.03404791 0.54117647 0.42352941 0.64313725
v 0.00075760 -0.00270947 -0.01773102 0.54117647 0.42352941 0.64313725
v -0.00062493 -0.00269429 0.01996807 0.54117647 0.42352941 0.64313725
v 0.00072471 -0.00270596 -0.03404791 0.54117647 0.42352941 0.64313725
v 0.00264757 -0.01399676 0.01996807 0.54117647 0.42352941 0.64313725
v 0.00212721 -0.01426987 -0.01773102 0.54117647 0.42352941 0.64313725
v 0.00072236 -0.01461651 -0.03404791 0.54117647 0.42352941 0.64313725
v 0.00029832 -0.00270130 -0.01773102 0.54117647 0.42352941 0.64313725
v 0.00069887 -0.00270480 -0.03404791 0.54117647 0.42352941 0.64313725
v -0.00205092 -0.00302342 0.01996807 0.54117647 0.42352941 0.64313725
v -0.00069071 -0.00270130 -0.01773102 0.54117647 0.42352941 0.64313725
v 0.00212721 -0.01426871 0.01996807 0.54117647 0.42352941 0.64313725
v 0.00195219 -0.01431306 0.01996807 0.54117647 0.42352941 0.64313725
v 0.00072236 -0.01461651 -0.01773102 0.54117647 0.42352941 0.64313725
v -0.00072125 -0.01461651 -0.03404791 0.54117647 0.42352941 0.64313725
v -0.00072007 -0.00270480 -0.03404791 0.54117647 0.42352941 0.64313725
v -0.00335358 -0.00368752 0.01996807 0.54117647 0.42352941 0.64313725
v -0.00074474 -0.00271063 -0.03404791 0.54117647 0.42352941 0.64313725
v -0.00079760 -0.00272347 -0.03404791 0.54117647 0.42352941 0.64313725
v -0.00212492 -0.00305143 -0.03404791 0.54117647 0.42352941 0.64313725
v -0.00251255 -0.00325101 -0.01773102 0.54117647 0.42352941 0.64313725
v 0.00129323 -0.01447529 0.01996807 0.54117647 0.42352941 0.64313725
v -0.00072125 -0.01461651 -0.01773102 0.54117647 0.42352941 0.64313725
v 0.00072236 -0.01461534 0.01996807 0.54117647 0.42352941 0.64313725
v -0.00212610 -0.01426987 -0.03404791 0.54117647 0.42352941 0.64313725
v -0.00089744 -0.01457333 0.01996807 0.54117647 0.42352941 0.64313725
v -0.00445772 -0.00464690 0.01996807 0.54117647 0.42352941 0.64313725
v -0.00338999 -0.00371203 -0.01773102 0.54117647 0.42352941 0.64313725
v -0.00342523 -0.00373887 -0.03404791 0.54117647 0.42352941 0.64313725
v -0.00219540 -0.00308762 -0.03404791 0.54117647 0.42352941 0.64313725
v -0.00340526 -0.00372253 -0.03404791 0.54117647 0.42352941 0.64313725
v -0.00072242 -0.01461534 0.01996807 0.54117647 0.42352941 0.64313725
v -0.00334653 -0.01362795 -0.03404791 0.54117647 0.42352941 0.64313725
v -0.00212610 -0.01426987 -0.01773102 0.54117647 0.42352941 0.64313725
v -0.00215664 -0.01425470 0.01996807 0.54117647 0.42352941 0.64313725
v -0.00232813 -0.01416483 -0.01773102 0.54117647 0.42352941 0.64313725
v -0.00340761 -0.01359761 -0.01773102 0.54117647 0.42352941 0.64313725
v -0.00212610 -0.01426871 0.01996807 0.54117647 0.42352941 0.64313725
v -0.00529640 -0.00584437 0.01996807 0.54117647 0.42352941 0.64313725
v -0.00448004 -0.00467141 -0.01773102 0.54117647 0.42352941 0.64313725
v -0.00448826 -0.00468191 -0.03404791 0.54117647 0.42352941 0.64313725
v -0.00340643 -0.01359644 -0.03404791 0.54117647 0.42352941 0.64313725
v -0.00340761 -0.01359761 0.01996807 0.54117647 0.42352941 0.64313725
v -0.00357793 -0.01344705 -0.01773102 0.54117647 0.42352941 0.64313725
v -0.00341583 -0.01358827 -0.03404791 0.54117647 0.42352941 0.64313725
v -0.00582146 -0.00720991 0.01996807 0.54117647 0.42352941 0.64313725
v -0.00450353 -0.00470292 -0.03404791 0.54117647 0.42352941 0.64313725
v -0.00531167 -0.00587238 -0.03404791 0.54117647 0.42352941 0.64313725
v -0.00449061 -0.01263823 0.01996807 0.54117647 0.42352941 0.64313725
v -0.00449061 -0.01263823 -0.01773102 0.54117647 0.42352941 0.64313725
v -0.00448944 -0.01263823 -0.03404791 0.54117647 0.42352941 0.64313725
v -0.00600000 -0.00865949 0.01996807 0.54117647 0.42352941 0.64313725
v -0.00582381 -0.00722158 -0.01773102 0.54117647 0.42352941 0.64313725
v -0.00582851 -0.00724960 -0.03404791 0.54117647 0.42352941 0.64313725
v -0.00582381 -0.00722509 -0.03404791 0.54117647 0.42352941 0.64313725
v -0.00462217 -0.01245616 0.01996807 0.54117647 0.42352941 0.64313725
v -0.00505325 -0.01185742 0.01996807 0.54117647 0.42352941 0.64313725
v -0.00471144 -0.01233127 -0.01773102 0.54117647 0.42352941 0.64313725
v -0.00450118 -0.01262189 -0.03404791 0.54117647 0.42352941 0.64313725
v -0.00590838 -0.00970057 0.01996807 0.54117647 0.42352941 0.64313725
v -0.00600000 -0.00865949 -0.01773102 0.54117647 0.42352941 0.64313725
v -0.00599882 -0.00865949 -0.03404791 0.54117647 0.42352941 0.64313725
v -0.00519538 -0.01165901 0.01996807 0.54117647 0.42352941 0.64313725
v -0.00531050 -0.01145126 -0.03404791 0.54117647 0.42352941 0.64313725
v -0.00453290 -0.01257637 -0.03404791 0.54117647 0.42352941 0.64313725
v -0.00563704 -0.01071130 0.01996807 0.54117647 0.42352941 0.64313725
v -0.00597063 -0.00898628 -0.01773102 0.54117647 0.42352941 0.64313725
v -0.00585082 -0.00997134 -0.01773102 0.54117647 0.42352941 0.64313725
v -0.00576625 -0.01028880 -0.01773102 0.54117647 0.42352941 0.64313725
v -0.00599060 -0.00873185 -0.03404791 0.54117647 0.42352941 0.64313725
v -0.00531754 -0.01143492 -0.03404791 0.54117647 0.42352941 0.64313725
v -0.00582498 -0.01008805 -0.03404791 0.54117647 0.42352941 0.64313725
v -0.00582028 -0.01010556 -0.03404791 0.54117647 0.42352941 0.64313725
v -0.00580266 -0.01015691 -0.03404791 0.54117647 0.42352941 0.64313725
f 1 2 7
f 1 7 14
f 1 14 18
f 1 18 26
f 1 26 25
f 1 25 32
f 1 32 38
f 1 38 48
f 1 48 51
f 1 51 57
f 1 57 65
f 1 65 75
f 1 75 83
f 1 83 92
f 1 92 95
f 1 95 101
f 1 101 109
f 1 109 115
f 1 115 114
f 1 114 121
f 1 121 124
f 1 124 123
f 1 123 122
f 1 122 120
f 1 120 112
f 1 112 104
f 1 104 105
f 1 105 98
f 1 98 97
f 1 97 91
f 1 91 79
f 1 79 81
f 1 81 80
f 1 80 70
f 1 70 69
f 1 69 68
f 1 68 66
f 1 66 59
f 1 59 54
f 1 54 45
f 1 45 43
f 1 43 46
f 1 46 41
f 1 41 40
f 1 40 33
f 1 33 28
f 1 28 27
f 1 27 20
f 1 20 15
f 1 15 9
f 1 9 3
f 1 3 4
f 1 4 5
f 1 5 6
f 1 6 2
f 2 6 8
f 2 8 7
f 3 9 4
f 4 9 10
f 4 10 11
f 4 11 5
f 5 11 12
f 5 12 6
f 6 12 13
f 6 13 8
f 7 8 14
f 8 13 14
f 9 15 10
f 10 15 11
f 11 15 16
f 11 16 23
f 11 23 30
f 11 30 35
f 11 35 42
f 11 42 53
f 11 53 60
f 11 60 67
f 11 67 77
f 11 77 89
f 11 89 96
f 11 96 102
f 11 102 110
f 11 110 116
f 11 116 113
f 11 113 107
f 11 107 106
f 11 106 99
f 11 99 93
f 11 93 85
f 11 85 88
f 11 88 76
f 11 76 82
f 11 82 74
f 11 74 72
f 11 72 63
f 11 63 62
f 11 62 55
f 11 55 49
f 11 49 47
f 11 47 37
f 11 37 31
f 11 31 24
f 11 24 17
f 11 17 13
f 11 13 12
f 13 17 18
f 13 18 19
f 13 19 14
f 14 19 18
f 15 20 21
f 15 21 16
f 16 21 22
f 16 22 23
f 17 24 25
f 17 25 26
f 17 26 18
f 20 27 22
f 20 22 21
f 22 27 28
f 22 28 23
f 23 29 30
f 23 28 29
f 24 31 32
f 24 32 25
f 28 33 29
f 29 34 30
f 29 33 34
f 30 34 36
f 30 36 35
f 31 37 32
f 32 37 39
f 32 39 38
f 33 40 34
f 34 40 41
f 34 41 36
f 35 36 43
f 35 43 44
f 35 44 45
f 35 45 42
f 36 41 46
f 36 46 43
f 37 47 39
f 38 39 48
f 39 47 49
f 39 49 50
f 39 50 51
f 39 51 48
f 42 52 53
f 42 45 52
f 43 45 44
f 45 54 52
f 49 55 50
f 50 56 51
f 50 55 56
f 51 56 64
f 51 64 57
f 52 58 53
f 52 54 59
f 52 59 58
f 53 58 61
f 53 61 60
f 55 62 56
f 56 62 63
f 56 63 64
f 57 64 73
f 57 73 65
f 58 59 66
f 58 66 61
f 60 61 66
f 60 66 68
f 60 68 69
f 60 69 70
f 60 70 71
f 60 71 67
f 63 72 64
f 64 72 74
f 64 74 82
f 64 82 73
f 65 73 76
f 65 76 75
f 67 71 78
f 67 78 79
f 67 79 77
f 70 80 71
f 71 80 81
f 71 81 78
f 73 82 76
f 75 76 84
f 75 84 85
f 75 85 86
f 75 86 87
f 75 87 83
f 76 88 84
f 77 79 90
f 77 90 89
f 78 81 79
f 79 91 90
f 83 87 92
f 84 88 85
f 85 93 86
f 86 93 87
f 87 93 94
f 87 94 95
f 87 95 92
f 89 90 97
f 89 97 98
f 89 98 96
f 90 91 97
f 93 99 94
f 94 99 100
f 94 100 101
f 94 101 95
f 96 98 103
f 96 103 104
f 96 104 102
f 98 105 103
f 99 106 100
f 100 106 107
f 100 107 108
f 100 108 101
f 101 108 109
f 102 104 111
f 102 111 110
f 103 105 104
f 104 112 111
f 107 113 108
f 108 114 115
f 108 115 109
f 108 113 114
f 110 111 117
f 110 117 118
f 110 118 119
f 110 119 116
f 111 112 117
f 112 120 117
f 113 116 114
f 114 116 121
f 116 119 121
f 117 120 118
f 118 120 122
f 118 122 119
f 119 122 123
f 119 123 124
f 119 124 121