# https://github.com/mikedh/trimesh
v -0.00400000 0.00866118 0.07499518 0.08627451 0.01960784 0.83137255
v -0.00417502 0.01009508 0.07499518 0.08627451 0.01960784 0.83137255
v -0.00417502 0.00722492 0.07499518 0.08627451 0.01960784 0.83137255
v -0.00407283 0.00773301 0.02570489 0.08627451 0.01960784 0.83137255
v -0.00407048 0.00775296 0.02570489 0.08627451 0.01960784 0.83137255
v -0.00402584 0.00920564 0.02570489 0.08627451 0.01960784 0.83137255
v -0.00402819 0.00922559 0.02570489 0.08627451 0.01960784 0.83137255
v -0.00433947 0.01064541 0.02570489 0.08627451 0.01960784 0.83137255
v -0.00434652 0.01066536 0.02570489 0.08627451 0.01960784 0.83137255
v -0.00468833 0.01144802 0.07499518 0.08627451 0.01960784 0.83137255
v -0.00468833 0.00587198 0.07499518 0.08627451 0.01960784 0.83137255
v -0.00447807 0.00631553 0.02570489 0.08627451 0.01960784 0.83137255
v -0.00447103 0.00633431 0.02570489 0.08627451 0.01960784 0.83137255
v -0.00499491 0.01196667 0.02570489 0.08627451 0.01960784 0.83137255
v -0.00550940 0.01263786 0.07499518 0.08627451 0.01960784 0.83137255
v -0.00550940 0.00468215 0.07499518 0.08627451 0.01960784 0.83137255
v -0.00520517 0.00505646 0.02570489 0.08627451 0.01960784 0.83137255
v -0.00500666 0.01198310 0.02570489 0.08627451 0.01960784 0.83137255
v -0.00595223 0.01308728 0.02570489 0.08627451 0.01960784 0.83137255
v -0.00596750 0.01310136 0.02570489 0.08627451 0.01960784 0.83137255
v -0.00659240 0.01359771 0.07499518 0.08627451 0.01960784 0.83137255
v -0.00659240 0.00372347 0.07499518 0.08627451 0.01960784 0.83137255
v -0.00622827 0.00399570 0.02570489 0.08627451 0.01960784 0.83137255
v -0.00521692 0.00504004 0.02570489 0.08627451 0.01960784 0.83137255
v -0.00715388 0.01394034 0.02570489 0.08627451 0.01960784 0.83137255
v -0.00717150 0.01394973 0.02570489 0.08627451 0.01960784 0.83137255
v -0.00787275 0.01427007 0.07499518 0.08627451 0.01960784 0.83137255
v -0.00787275 0.00305111 0.07499518 0.08627451 0.01960784 0.83137255
v -0.00749804 0.00320834 0.02570489 0.08627451 0.01960784 0.83137255
v -0.00748042 0.00321773 0.02570489 0.08627451 0.01960784 0.83137255
v -0.00624354 0.00398279 0.02570489 0.08627451 0.01960784 0.83137255
v -0.00852819 0.01447542 0.02570489 0.08627451 0.01960784 0.83137255
v -0.00854699 0.01448011 0.02570489 0.08627451 0.01960784 0.83137255
v -0.00927760 0.01461623 0.07499518 0.08627451 0.01960784 0.83137255
v -0.00927760 0.00270495 0.07499518 0.08627451 0.01960784 0.83137255
v -0.00890290 0.00276245 0.02570489 0.08627451 0.01960784 0.83137255
v -0.00888410 0.00276714 0.02570489 0.08627451 0.01960784 0.83137255
v -0.00999060 0.01465964 0.02570489 0.08627451 0.01960784 0.83137255
v -0.01072240 0.01461623 0.07499518 0.08627451 0.01960784 0.83137255
v -0.01072240 0.00270495 0.07499518 0.08627451 0.01960784 0.83137255
v -0.01035356 0.00267210 0.02570489 0.08627451 0.01960784 0.83137255
v -0.01000940 0.01465964 0.02570489 0.08627451 0.01960784 0.83137255
v -0.01212725 0.01427007 0.07499518 0.08627451 0.01960784 0.83137255
v -0.01072240 0.01461623 0.02570489 0.08627451 0.01960784 0.83137255
v -0.01138019 0.01445430 0.02570489 0.08627451 0.01960784 0.83137255
v -0.01212725 0.00305111 0.07499518 0.08627451 0.01960784 0.83137255
v -0.01182302 0.00294433 0.02570489 0.08627451 0.01960784 0.83137255
v -0.01180305 0.00293963 0.02570489 0.08627451 0.01960784 0.83137255
v -0.01037353 0.00267210 0.02570489 0.08627451 0.01960784 0.83137255
v -0.01340760 0.01359771 0.07499518 0.08627451 0.01960784 0.83137255
v -0.01212725 0.01427007 0.02570489 0.08627451 0.01960784 0.83137255
v -0.01340760 0.00372347 0.07499518 0.08627451 0.01960784 0.83137255
v -0.01316210 0.00356154 0.02570489 0.08627451 0.01960784 0.83137255
v -0.01314330 0.00355215 0.02570489 0.08627451 0.01960784 0.83137255
v -0.01449060 0.01263786 0.07499518 0.08627451 0.01960784 0.83137255
v -0.01340760 0.01359771 0.02570489 0.08627451 0.01960784 0.83137255
v -0.01389272 0.01316824 0.02570489 0.08627451 0.01960784 0.83137255
v -0.01440016 0.01271883 0.02570489 0.08627451 0.01960784 0.83137255
v -0.01449060 0.00468215 0.07499518 0.08627451 0.01960784 0.83137255
v -0.01429444 0.00447328 0.02570489 0.08627451 0.01960784 0.83137255
v -0.01531167 0.01144802 0.07499518 0.08627451 0.01960784 0.83137255
v -0.01449060 0.01263786 0.02570489 0.08627451 0.01960784 0.83137255
v -0.01487588 0.01208049 0.02570489 0.08627451 0.01960784 0.83137255
v -0.01494401 0.01198192 0.02570489 0.08627451 0.01960784 0.83137255
v -0.01531167 0.00587198 0.07499518 0.08627451 0.01960784 0.83137255
v -0.01518598 0.00564669 0.02570489 0.08627451 0.01960784 0.83137255
v -0.01430971 0.00448736 0.02570489 0.08627451 0.01960784 0.83137255
v -0.01582498 0.01009508 0.07499518 0.08627451 0.01960784 0.83137255
v -0.01531167 0.01144802 0.02570489 0.08627451 0.01960784 0.83137255
v -0.01555247 0.01081438 0.02570489 0.08627451 0.01960784 0.83137255
v -0.01582498 0.00722492 0.07499518 0.08627451 0.01960784 0.83137255
v -0.01582498 0.00722492 0.02570489 0.08627451 0.01960784 0.83137255
v -0.01519773 0.00566429 0.02570489 0.08627451 0.01960784 0.83137255
v -0.01600000 0.00866118 0.07499518 0.08627451 0.01960784 0.83137255
v -0.01582498 0.01009508 0.02570489 0.08627451 0.01960784 0.83137255
v -0.01590720 0.00942272 0.02570489 0.08627451 0.01960784 0.83137255
v -0.01590368 0.00786795 0.02570489 0.08627451 0.01960784 0.83137255
v -0.01600000 0.00866118 0.02570489 0.08627451 0.01960784 0.83137255
f 1 2 10
f 1 10 15
f 1 15 21
f 1 21 27
f 1 27 34
f 1 34 39
f 1 39 43
f 1 43 50
f 1 50 55
f 1 55 61
f 1 61 68
f 1 68 74
f 1 74 71
f 1 71 65
f 1 65 59
f 1 59 52
f 1 52 46
f 1 46 40
f 1 40 35
f 1 35 28
f 1 28 22
f 1 22 16
f 1 16 11
f 1 11 3
f 1 3 4
f 1 4 5
f 1 5 6
f 1 6 7
f 1 7 2
f 2 7 8
f 2 8 9
f 2 9 10
f 3 11 12
f 3 12 13
f 3 13 4
f 4 13 12
f 4 12 17
f 4 17 24
f 4 24 23
f 4 23 31
f 4 31 30
f 4 30 29
f 4 29 37
f 4 37 36
f 4 36 41
f 4 41 49
f 4 49 48
f 4 48 47
f 4 47 54
f 4 54 53
f 4 53 60
f 4 60 67
f 4 67 66
f 4 66 73
f 4 73 72
f 4 72 77
f 4 77 78
f 4 78 76
f 4 76 75
f 4 75 70
f 4 70 69
f 4 69 64
f 4 64 63
f 4 63 62
f 4 62 58
f 4 58 57
f 4 57 56
f 4 56 51
f 4 51 45
f 4 45 44
f 4 44 42
f 4 42 38
f 4 38 33
f 4 33 32
f 4 32 26
f 4 26 25
f 4 25 20
f 4 20 19
f 4 19 18
f 4 18 14
f 4 14 9
f 4 9 8
f 4 8 7
f 4 7 6
f 4 6 5
f 9 14 10
f 10 14 15
f 11 16 17
f 11 17 12
f 14 18 15
f 15 18 19
f 15 19 20
f 15 20 21
f 16 22 23
f 16 23 24
f 16 24 17
f 20 25 21
f 21 25 26
f 21 26 27
f 22 28 29
f 22 29 30
f 22 30 31
f 22 31 23
f 26 32 27
f 27 32 33
f 27 33 34
f 28 35 36
f 28 36 37
f 28 37 29
f 33 38 34
f 34 38 42
f 34 42 39
f 35 40 49
f 35 49 41
f 35 41 36
f 39 42 44
f 39 44 45
f 39 45 43
f 40 46 47
f 40 47 48
f 40 48 49
f 43 45 51
f 43 51 56
f 43 56 50
f 46 52 53
f 46 53 54
f 46 54 47
f 50 56 57
f 50 57 58
f 50 58 55
f 52 59 60
f 52 60 53
f 55 58 62
f 55 62 63
f 55 63 64
f 55 64 61
f 59 65 66
f 59 66 67
f 59 67 60
f 61 64 69
f 61 69 70
f 61 70 68
f 65 71 72
f 65 72 73
f 65 73 66
f 68 70 75
f 68 75 76
f 68 76 74
f 71 74 77
f 71 77 72
f 74 76 78
f 74 78 77