# https://github.com/mikedh/trimesh
v 0.00600000 -0.00865965 0.07500000 0.43529412 0.89019608 0.96078431
v 0.00582498 -0.00722528 0.07500000 0.43529412 0.89019608 0.96078431
v 0.00582498 -0.01009518 0.07500000 0.43529412 0.89019608 0.96078431
v 0.00599648 -0.00886272 0.02650675 0.43529412 0.89019608 0.96078431
v 0.00587197 -0.00745053 0.02650675 0.43529412 0.89019608 0.96078431
v 0.00586727 -0.00740735 0.02650675 0.43529412 0.89019608 0.96078431
v 0.00540564 -0.00606636 0.02650675 0.43529412 0.89019608 0.96078431
v 0.00539037 -0.00602551 0.02650675 0.43529412 0.89019608 0.96078431
v 0.00531167 -0.00587262 0.07500000 0.43529412 0.89019608 0.96078431
v 0.00531167 -0.01144784 0.07500000 0.43529412 0.89019608 0.96078431
v 0.00575333 -0.01034727 0.02650675 0.43529412 0.89019608 0.96078431
v 0.00576860 -0.01030642 0.02650675 0.43529412 0.89019608 0.96078431
v 0.00599060 -0.00890590 0.02650675 0.43529412 0.89019608 0.96078431
v 0.00461746 -0.00483624 0.02650675 0.43529412 0.89019608 0.96078431
v 0.00459280 -0.00480006 0.02650675 0.43529412 0.89019608 0.96078431
v 0.00449060 -0.00468218 0.07500000 0.43529412 0.89019608 0.96078431
v 0.00449060 -0.01263828 0.07500000 0.43529412 0.89019608 0.96078431
v 0.00517424 -0.01168943 0.02650675 0.43529412 0.89019608 0.96078431
v 0.00519890 -0.01165325 0.02650675 0.43529412 0.89019608 0.96078431
v 0.00355560 -0.00383253 0.02650675 0.43529412 0.89019608 0.96078431
v 0.00340760 -0.00372283 0.07500000 0.43529412 0.89019608 0.96078431
v 0.00340760 -0.01359764 0.07500000 0.43529412 0.89019608 0.96078431
v 0.00388567 -0.01317514 0.02650675 0.43529412 0.89019608 0.96078431
v 0.00440133 -0.01271764 0.02650675 0.43529412 0.89019608 0.96078431
v 0.00449060 -0.01263828 0.02650675 0.43529412 0.89019608 0.96078431
v 0.00352271 -0.00380452 0.02650675 0.43529412 0.89019608 0.96078431
v 0.00228230 -0.00311594 0.02650675 0.43529412 0.89019608 0.96078431
v 0.00212725 -0.00305058 0.07500000 0.43529412 0.89019608 0.96078431
v 0.00212725 -0.01426988 0.07500000 0.43529412 0.89019608 0.96078431
v 0.00340760 -0.01359764 0.02650675 0.43529412 0.89019608 0.96078431
v 0.00224354 -0.00309610 0.02650675 0.43529412 0.89019608 0.96078431
v 0.00072240 -0.00270512 0.07500000 0.43529412 0.89019608 0.96078431
v 0.00087392 -0.00272963 0.02650675 0.43529412 0.89019608 0.96078431
v 0.00083164 -0.00271912 0.02650675 0.43529412 0.89019608 0.96078431
v 0.00072240 -0.01461651 0.07500000 0.43529412 0.89019608 0.96078431
v 0.00150822 -0.01442277 0.02650675 0.43529412 0.89019608 0.96078431
v 0.00212725 -0.01426988 0.02650675 0.43529412 0.89019608 0.96078431
v -0.00072240 -0.00270512 0.07500000 0.43529412 0.89019608 0.96078431
v -0.00058614 -0.00269461 0.02650675 0.43529412 0.89019608 0.96078431
v -0.00072240 -0.01461651 0.07500000 0.43529412 0.89019608 0.96078431
v 0.00072240 -0.01461651 0.02650675 0.43529412 0.89019608 0.96078431
v -0.00212725 -0.00305058 0.07500000 0.43529412 0.89019608 0.96078431
v -0.00062960 -0.00269461 0.02650675 0.43529412 0.89019608 0.96078431
v -0.00201214 -0.00301323 0.02650675 0.43529412 0.89019608 0.96078431
v -0.00212725 -0.01426988 0.07500000 0.43529412 0.89019608 0.96078431
v -0.00072240 -0.01461651 0.02650675 0.43529412 0.89019608 0.96078431
v -0.00340760 -0.00372283 0.07500000 0.43529412 0.89019608 0.96078431
v -0.00205325 -0.00302373 0.02650675 0.43529412 0.89019608 0.96078431
v -0.00331715 -0.00366797 0.02650675 0.43529412 0.89019608 0.96078431
v -0.00335591 -0.00368781 0.02650675 0.43529412 0.89019608 0.96078431
v -0.00340760 -0.01359764 0.07500000 0.43529412 0.89019608 0.96078431
v -0.00223179 -0.01421503 0.02650675 0.43529412 0.89019608 0.96078431
v -0.00212725 -0.01426988 0.02650675 0.43529412 0.89019608 0.96078431
v -0.00449060 -0.00468218 0.07500000 0.43529412 0.89019608 0.96078431
v -0.00442717 -0.00461799 0.02650675 0.43529412 0.89019608 0.96078431
v -0.00449060 -0.01263828 0.07500000 0.43529412 0.89019608 0.96078431
v -0.00340760 -0.01359764 0.02650675 0.43529412 0.89019608 0.96078431
v -0.00531167 -0.00587262 0.07500000 0.43529412 0.89019608 0.96078431
v -0.00445889 -0.00464717 0.02650675 0.43529412 0.89019608 0.96078431
v -0.00529757 -0.00584461 0.02650675 0.43529412 0.89019608 0.96078431
v -0.00531167 -0.01144784 0.07500000 0.43529412 0.89019608 0.96078431
v -0.00517424 -0.01168943 0.02650675 0.43529412 0.89019608 0.96078431
v -0.00449060 -0.01263828 0.02650675 0.43529412 0.89019608 0.96078431
v -0.00582498 -0.00722528 0.07500000 0.43529412 0.89019608 0.96078431
v -0.00580619 -0.00716926 0.02650675 0.43529412 0.89019608 0.96078431
v -0.00582498 -0.01009518 0.07500000 0.43529412 0.89019608 0.96078431
v -0.00562764 -0.01073358 0.02650675 0.43529412 0.89019608 0.96078431
v -0.00519890 -0.01165325 0.02650675 0.43529412 0.89019608 0.96078431
v -0.00600000 -0.00865965 0.07500000 0.43529412 0.89019608 0.96078431
v -0.00582146 -0.00721011 0.02650675 0.43529412 0.89019608 0.96078431
v -0.00600000 -0.00865965 0.02650675 0.43529412 0.89019608 0.96078431
v -0.00590603 -0.00971354 0.02650675 0.43529412 0.89019608 0.96078431
v -0.00564291 -0.01069273 0.02650675 0.43529412 0.89019608 0.96078431
v -0.00591073 -0.00967035 0.02650675 0.43529412 0.89019608 0.96078431
f 1 2 9
f 1 9 16
f 1 16 21
f 1 21 28
f 1 28 32
f 1 32 38
f 1 38 42
f 1 42 47
f 1 47 54
f 1 54 58
f 1 58 64
f 1 64 69
f 1 69 66
f 1 66 61
f 1 61 56
f 1 56 51
f 1 51 45
f 1 45 40
f 1 40 35
f 1 35 29
f 1 29 22
f 1 22 17
f 1 17 10
f 1 10 3
f 1 3 4
f 1 4 5
f 1 5 6
f 1 6 2
f 2 6 7
f 2 7 8
f 2 8 9
f 3 10 11
f 3 11 12
f 3 12 13
f 3 13 4
f 4 13 12
f 4 12 11
f 4 11 19
f 4 19 18
f 4 18 25
f 4 25 24
f 4 24 23
f 4 23 30
f 4 30 37
f 4 37 36
f 4 36 41
f 4 41 46
f 4 46 53
f 4 53 52
f 4 52 57
f 4 57 63
f 4 63 62
f 4 62 68
f 4 68 67
f 4 67 73
f 4 73 72
f 4 72 74
f 4 74 71
f 4 71 70
f 4 70 65
f 4 65 60
f 4 60 59
f 4 59 55
f 4 55 50
f 4 50 49
f 4 49 48
f 4 48 44
f 4 44 43
f 4 43 39
f 4 39 34
f 4 34 33
f 4 33 31
f 4 31 27
f 4 27 26
f 4 26 20
f 4 20 15
f 4 15 14
f 4 14 8
f 4 8 7
f 4 7 6
f 4 6 5
f 8 14 9
f 9 14 15
f 9 15 16
f 10 17 18
f 10 18 19
f 10 19 11
f 15 20 16
f 16 20 21
f 17 22 23
f 17 23 24
f 17 24 25
f 17 25 18
f 20 26 21
f 21 26 27
f 21 27 28
f 22 29 37
f 22 37 30
f 22 30 23
f 27 31 28
f 28 31 33
f 28 33 34
f 28 34 32
f 29 35 36
f 29 36 37
f 32 34 39
f 32 39 43
f 32 43 38
f 35 40 46
f 35 46 41
f 35 41 36
f 38 43 44
f 38 44 42
f 40 45 53
f 40 53 46
f 42 44 48
f 42 48 49
f 42 49 50
f 42 50 47
f 45 51 52
f 45 52 53
f 47 50 55
f 47 55 54
f 51 56 63
f 51 63 57
f 51 57 52
f 54 55 59
f 54 59 60
f 54 60 58
f 56 61 62
f 56 62 63
f 58 60 65
f 58 65 64
f 61 66 67
f 61 67 68
f 61 68 62
f 64 65 70
f 64 70 71
f 64 71 69
f 66 69 72
f 66 72 73
f 66 73 67
f 69 71 74
f 69 74 72