# https://github.com/mikedh/trimesh
v 0.01600000 0.00866212 0.01998604 0.56470588 0.92549020 0.07058824
v 0.01584143 0.00996183 0.01998604 0.56470588 0.92549020 0.07058824
v 0.01582498 0.00722529 0.01998604 0.56470588 0.92549020 0.07058824
v 0.01600000 0.00866212 -0.03404791 0.56470588 0.92549020 0.07058824
v 0.01582498 0.01009427 0.01998604 0.56470588 0.92549020 0.07058824
v 0.01582498 0.01009427 -0.03404791 0.56470588 0.92549020 0.07058824
v 0.01579796 0.00715732 0.01998604 0.56470588 0.92549020 0.07058824
v 0.01531049 0.00586932 -0.03404791 0.56470588 0.92549020 0.07058824
v 0.01582498 0.00722529 -0.03404791 0.56470588 0.92549020 0.07058824
v 0.01532341 0.01141859 0.01998604 0.56470588 0.92549020 0.07058824
v 0.01580149 0.01015755 -0.03404791 0.56470588 0.92549020 0.07058824
v 0.01531402 0.00595488 0.01998604 0.56470588 0.92549020 0.07058824
v 0.01453406 0.00474424 -0.03404791 0.56470588 0.92549020 0.07058824
v 0.01519538 0.00566071 0.01998604 0.56470588 0.92549020 0.07058824
v 0.01531049 0.01144789 0.01998604 0.56470588 0.92549020 0.07058824
v 0.01531637 0.01143500 -0.03404791 0.56470588 0.92549020 0.07058824
v 0.01448708 0.00467978 -0.03404791 0.56470588 0.92549020 0.07058824
v 0.01471143 0.00498918 -0.01773088 0.56470588 0.92549020 0.07058824
v 0.01434025 0.00452039 0.01998604 0.56470588 0.92549020 0.07058824
v 0.01444362 0.00463173 -0.01773088 0.56470588 0.92549020 0.07058824
v 0.01490172 0.01204325 0.01998604 0.56470588 0.92549020 0.07058824
v 0.01531049 0.01144789 -0.01773088 0.56470588 0.92549020 0.07058824
v 0.01526703 0.01151235 -0.03404791 0.56470588 0.92549020 0.07058824
v 0.01518363 0.01163540 -0.01773088 0.56470588 0.92549020 0.07058824
v 0.01531049 0.01144671 -0.03404791 0.56470588 0.92549020 0.07058824
v 0.01346515 0.00377385 -0.03404791 0.56470588 0.92549020 0.07058824
v 0.01370125 0.00397308 -0.01773088 0.56470588 0.92549020 0.07058824
v 0.01324197 0.00361329 0.01998604 0.56470588 0.92549020 0.07058824
v 0.01448943 0.01263861 0.01998604 0.56470588 0.92549020 0.07058824
v 0.01448943 0.01263861 -0.03404791 0.56470588 0.92549020 0.07058824
v 0.01340525 0.00372111 -0.03404791 0.56470588 0.92549020 0.07058824
v 0.01196163 0.00299097 0.01998604 0.56470588 0.92549020 0.07058824
v 0.01207557 0.00303199 -0.01773088 0.56470588 0.92549020 0.07058824
v 0.01247729 0.00322771 -0.01773088 0.56470588 0.92549020 0.07058824
v 0.01219538 0.00308590 -0.03404791 0.56470588 0.92549020 0.07058824
v 0.01353211 0.01348711 0.01998604 0.56470588 0.92549020 0.07058824
v 0.01340760 0.01359727 -0.03404791 0.56470588 0.92549020 0.07058824
v 0.01056852 0.00268743 0.01998604 0.56470588 0.92549020 0.07058824
v 0.01111002 0.00279408 -0.01773088 0.56470588 0.92549020 0.07058824
v 0.01079757 0.00272259 -0.03404791 0.56470588 0.92549020 0.07058824
v 0.01212255 0.00304957 -0.03404791 0.56470588 0.92549020 0.07058824
v 0.01340760 0.01359727 0.01998604 0.56470588 0.92549020 0.07058824
v 0.01339702 0.01360313 -0.03404791 0.56470588 0.92549020 0.07058824
v 0.00914722 0.00272142 0.01998604 0.56470588 0.92549020 0.07058824
v 0.00923767 0.00270970 -0.01773088 0.56470588 0.92549020 0.07058824
v 0.00968403 0.00269915 -0.01773088 0.56470588 0.92549020 0.07058824
v 0.01067424 0.00269915 -0.01773088 0.56470588 0.92549020 0.07058824
v 0.01074471 0.00270970 -0.03404791 0.56470588 0.92549020 0.07058824
v 0.01288724 0.01387151 0.01998604 0.56470588 0.92549020 0.07058824
v 0.01333712 0.01363478 -0.03404791 0.56470588 0.92549020 0.07058824
v 0.00777173 0.00309059 0.01998604 0.56470588 0.92549020 0.07058824
v 0.00789507 0.00304488 -0.03404791 0.56470588 0.92549020 0.07058824
v 0.00927643 0.00270501 -0.03404791 0.56470588 0.92549020 0.07058824
v 0.01071887 0.00270501 -0.03404791 0.56470588 0.92549020 0.07058824
v 0.01212608 0.01426998 -0.01773088 0.56470588 0.92549020 0.07058824
v 0.01212608 0.01426998 0.01998604 0.56470588 0.92549020 0.07058824
v 0.01212608 0.01426881 -0.03404791 0.56470588 0.92549020 0.07058824
v 0.00651958 0.00377385 0.01998604 0.56470588 0.92549020 0.07058824
v 0.00696241 0.00352422 -0.01773088 0.56470588 0.92549020 0.07058824
v 0.00787275 0.00305192 -0.03404791 0.56470588 0.92549020 0.07058824
v 0.01094323 0.01456180 -0.01773088 0.56470588 0.92549020 0.07058824
v 0.01142482 0.01444343 0.01998604 0.56470588 0.92549020 0.07058824
v 0.01206147 0.01428522 -0.03404791 0.56470588 0.92549020 0.07058824
v 0.00546594 0.00473252 0.01998604 0.56470588 0.92549020 0.07058824
v 0.00549648 0.00469736 -0.01773088 0.56470588 0.92549020 0.07058824
v 0.00582655 0.00439733 -0.01773088 0.56470588 0.92549020 0.07058824
v 0.00657009 0.00373869 -0.01773088 0.56470588 0.92549020 0.07058824
v 0.00659123 0.00372463 -0.03404791 0.56470588 0.92549020 0.07058824
v 0.00661355 0.00371291 -0.03404791 0.56470588 0.92549020 0.07058824
v 0.01085396 0.01458407 0.01998604 0.56470588 0.92549020 0.07058824
v 0.01072122 0.01461571 -0.03404791 0.56470588 0.92549020 0.07058824
v 0.00466719 0.00591152 0.01998604 0.56470588 0.92549020 0.07058824
v 0.00468129 0.00588456 -0.01773088 0.56470588 0.92549020 0.07058824
v 0.00470125 0.00585292 -0.03404791 0.56470588 0.92549020 0.07058824
v 0.00551057 0.00468329 -0.03404791 0.56470588 0.92549020 0.07058824
v 0.00552702 0.00466689 -0.03404791 0.56470588 0.92549020 0.07058824
v 0.01075176 0.01460868 0.01998604 0.56470588 0.92549020 0.07058824
v 0.00928935 0.01461571 -0.03404791 0.56470588 0.92549020 0.07058824
v 0.01049569 0.01462978 -0.01773088 0.56470588 0.92549020 0.07058824
v 0.01061903 0.01462275 0.01998604 0.56470588 0.92549020 0.07058824
v 0.01072122 0.01461571 0.01998604 0.56470588 0.92549020 0.07058824
v 0.00417032 0.00724639 0.01998604 0.56470588 0.92549020 0.07058824
v 0.00418324 0.00720302 -0.03404791 0.56470588 0.92549020 0.07058824
v 0.00468716 0.00587401 -0.03404791 0.56470588 0.92549020 0.07058824
v 0.00926703 0.01461337 -0.03404791 0.56470588 0.92549020 0.07058824
v 0.00950431 0.01462978 -0.01773088 0.56470588 0.92549020 0.07058824
v 0.01000000 0.01466025 0.01998604 0.56470588 0.92549020 0.07058824
v 0.00400000 0.00866212 0.01998604 0.56470588 0.92549020 0.07058824
v 0.00400000 0.00866212 -0.03404791 0.56470588 0.92549020 0.07058824
v 0.00417502 0.00722646 -0.03404791 0.56470588 0.92549020 0.07058824
v 0.00417385 0.00723115 -0.01773088 0.56470588 0.92549020 0.07058824
v 0.00921417 0.01460048 -0.03404791 0.56470588 0.92549020 0.07058824
v 0.00908614 0.01458290 -0.01773088 0.56470588 0.92549020 0.07058824
v 0.00866680 0.01450906 0.01998604 0.56470588 0.92549020 0.07058824
v 0.00415153 0.00999465 0.01998604 0.56470588 0.92549020 0.07058824
v 0.00416797 0.01006379 -0.01773088 0.56470588 0.92549020 0.07058824
v 0.00417502 0.01009309 -0.03404791 0.56470588 0.92549020 0.07058824
v 0.00788684 0.01427350 -0.03404791 0.56470588 0.92549020 0.07058824
v 0.00812177 0.01434499 -0.01773088 0.56470588 0.92549020 0.07058824
v 0.00739703 0.01406606 0.01998604 0.56470588 0.92549020 0.07058824
v 0.00459436 0.01126272 0.01998604 0.56470588 0.92549020 0.07058824
v 0.00430658 0.01046226 -0.01773088 0.56470588 0.92549020 0.07058824
v 0.00418207 0.01011536 -0.03404791 0.56470588 0.92549020 0.07058824
v 0.00786453 0.01426530 -0.03404791 0.56470588 0.92549020 0.07058824
v 0.00626116 0.01335116 0.01998604 0.56470588 0.92549020 0.07058824
v 0.00781754 0.01424068 -0.03404791 0.56470588 0.92549020 0.07058824
v 0.00684495 0.01374494 -0.01773088 0.56470588 0.92549020 0.07058824
v 0.00530971 0.01240070 0.01998604 0.56470588 0.92549020 0.07058824
v 0.00468598 0.01144437 -0.03404791 0.56470588 0.92549020 0.07058824
v 0.00648786 0.01351992 -0.01773088 0.56470588 0.92549020 0.07058824
v 0.00552232 0.01265032 -0.03404791 0.56470588 0.92549020 0.07058824
v 0.00550587 0.01263392 -0.03404791 0.56470588 0.92549020 0.07058824
v 0.00660650 0.01360548 -0.03404791 0.56470588 0.92549020 0.07058824
v 0.00472944 0.01150883 -0.03404791 0.56470588 0.92549020 0.07058824
v 0.00488332 0.01174674 -0.01773088 0.56470588 0.92549020 0.07058824
v 0.00658771 0.01359259 -0.03404791 0.56470588 0.92549020 0.07058824
v 0.00654542 0.01355626 -0.03404791 0.56470588 0.92549020 0.07058824
f 1 2 5
f 1 5 10
f 1 10 15
f 1 15 21
f 1 21 29
f 1 29 36
f 1 36 42
f 1 42 49
f 1 49 56
f 1 56 62
f 1 62 70
f 1 70 77
f 1 77 81
f 1 81 80
f 1 80 87
f 1 87 94
f 1 94 100
f 1 100 105
f 1 105 108
f 1 108 101
f 1 101 95
f 1 95 88
f 1 88 82
f 1 82 72
f 1 72 64
f 1 64 58
f 1 58 51
f 1 51 44
f 1 44 38
f 1 38 32
f 1 32 28
f 1 28 19
f 1 19 14
f 1 14 12
f 1 12 7
f 1 7 3
f 1 3 9
f 1 9 4
f 1 4 2
f 2 4 6
f 2 6 5
f 3 7 8
f 3 8 9
f 4 9 8
f 4 8 13
f 4 13 17
f 4 17 26
f 4 26 31
f 4 31 35
f 4 35 41
f 4 41 40
f 4 40 48
f 4 48 54
f 4 54 53
f 4 53 52
f 4 52 60
f 4 60 69
f 4 69 68
f 4 68 76
f 4 76 75
f 4 75 74
f 4 74 84
f 4 84 83
f 4 83 90
f 4 90 89
f 4 89 97
f 4 97 103
f 4 103 109
f 4 109 114
f 4 114 112
f 4 112 111
f 4 111 117
f 4 117 116
f 4 116 113
f 4 113 106
f 4 106 104
f 4 104 98
f 4 98 92
f 4 92 85
f 4 85 78
f 4 78 71
f 4 71 63
f 4 63 57
f 4 57 50
f 4 50 43
f 4 43 37
f 4 37 30
f 4 30 23
f 4 23 25
f 4 25 16
f 4 16 11
f 4 11 6
f 5 6 11
f 5 11 10
f 7 12 8
f 8 12 14
f 8 14 13
f 10 11 16
f 10 16 15
f 13 14 18
f 13 18 17
f 14 19 20
f 14 20 18
f 15 16 22
f 15 22 23
f 15 23 24
f 15 24 21
f 16 25 22
f 17 18 20
f 17 20 27
f 17 27 26
f 19 28 27
f 19 27 20
f 21 24 30
f 21 30 29
f 22 25 23
f 23 30 24
f 26 27 31
f 27 28 31
f 28 32 33
f 28 33 34
f 28 34 35
f 28 35 31
f 29 30 36
f 30 37 36
f 32 38 39
f 32 39 40
f 32 40 33
f 33 40 41
f 33 41 34
f 34 41 35
f 36 37 42
f 37 43 42
f 38 44 45
f 38 45 46
f 38 46 47
f 38 47 39
f 39 47 48
f 39 48 40
f 42 43 50
f 42 50 49
f 44 51 52
f 44 52 45
f 45 52 53
f 45 53 46
f 46 53 54
f 46 54 47
f 47 54 48
f 49 55 56
f 49 50 55
f 50 57 55
f 51 58 59
f 51 59 60
f 51 60 52
f 55 61 62
f 55 62 56
f 55 57 63
f 55 63 61
f 58 64 65
f 58 65 66
f 58 66 67
f 58 67 59
f 59 67 68
f 59 68 69
f 59 69 60
f 61 70 62
f 61 63 71
f 61 71 70
f 64 72 73
f 64 73 74
f 64 74 65
f 65 74 75
f 65 75 76
f 65 76 66
f 66 76 67
f 67 76 68
f 70 71 77
f 71 78 86
f 71 86 79
f 71 79 80
f 71 80 81
f 71 81 77
f 72 82 83
f 72 83 73
f 73 83 84
f 73 84 74
f 78 85 86
f 79 86 87
f 79 87 80
f 82 88 89
f 82 89 90
f 82 90 91
f 82 91 83
f 83 91 90
f 85 92 93
f 85 93 86
f 86 93 87
f 87 93 94
f 88 95 89
f 89 95 96
f 89 96 97
f 92 98 93
f 93 98 99
f 93 99 94
f 94 99 100
f 95 101 102
f 95 102 103
f 95 103 96
f 96 103 97
f 98 104 100
f 98 100 99
f 100 104 106
f 100 106 107
f 100 107 105
f 101 108 109
f 101 109 102
f 102 109 103
f 105 107 110
f 105 110 111
f 105 111 112
f 105 112 108
f 106 113 107
f 107 113 110
f 108 112 114
f 108 114 115
f 108 115 109
f 109 115 114
f 110 113 116
f 110 116 117
f 110 117 111