# https://github.com/mikedh/trimesh
v -0.00400044 0.00866829 -0.03404791 0.79607843 0.45882353 0.78039216
v -0.00400162 0.00864482 -0.03404791 0.79607843 0.45882353 0.78039216
v -0.00417193 0.01008003 -0.03404791 0.79607843 0.45882353 0.78039216
v -0.00400867 0.00883376 -0.01772999 0.79607843 0.45882353 0.78039216
v -0.00402746 0.00921398 0.01997147 0.79607843 0.45882353 0.78039216
v -0.00407209 0.00774122 0.01997147 0.79607843 0.45882353 0.78039216
v -0.00402276 0.00837257 -0.01772999 0.79607843 0.45882353 0.78039216
v -0.00416606 0.00728825 -0.03404791 0.79607843 0.45882353 0.78039216
v -0.00417781 0.01010467 -0.03404791 0.79607843 0.45882353 0.78039216
v -0.00422714 0.01027014 -0.01772999 0.79607843 0.45882353 0.78039216
v -0.00434225 0.01065270 0.01997147 0.79607843 0.45882353 0.78039216
v -0.00447615 0.00632362 0.01997147 0.79607843 0.45882353 0.78039216
v -0.00426942 0.00694206 -0.01772999 0.79607843 0.45882353 0.78039216
v -0.00417311 0.00723426 -0.03404791 0.79607843 0.45882353 0.78039216
v -0.00419660 0.01015631 -0.03404791 0.79607843 0.45882353 0.78039216
v -0.00478507 0.01161263 -0.01772999 0.79607843 0.45882353 0.78039216
v -0.00499884 0.01197290 0.01997147 0.79607843 0.45882353 0.78039216
v -0.00468170 0.01143426 -0.03404791 0.79607843 0.45882353 0.78039216
v -0.00521261 0.00504567 0.01997147 0.79607843 0.45882353 0.78039216
v -0.00462062 0.00601381 -0.01772999 0.79607843 0.45882353 0.78039216
v -0.00418015 0.00721079 -0.03404791 0.79607843 0.45882353 0.78039216
v -0.00469345 0.01145655 -0.03404791 0.79607843 0.45882353 0.78039216
v -0.00472399 0.01150232 -0.03404791 0.79607843 0.45882353 0.78039216
v -0.00595848 0.01309360 0.01997147 0.79607843 0.45882353 0.78039216
v -0.00534887 0.01242939 -0.01772999 0.79607843 0.45882353 0.78039216
v -0.00623920 0.00398716 0.01997147 0.79607843 0.45882353 0.78039216
v -0.00573883 0.00446361 -0.01772999 0.79607843 0.45882353 0.78039216
v -0.00541582 0.00479688 -0.01772999 0.79607843 0.45882353 0.78039216
v -0.00485202 0.00561365 -0.01772999 0.79607843 0.45882353 0.78039216
v -0.00468405 0.00588121 -0.03404791 0.79607843 0.45882353 0.78039216
v -0.00550156 0.01262537 -0.03404791 0.79607843 0.45882353 0.78039216
v -0.00677129 0.01370735 -0.01772999 0.79607843 0.45882353 0.78039216
v -0.00716243 0.01394557 0.01997147 0.79607843 0.45882353 0.78039216
v -0.00565073 0.01278145 -0.01772999 0.79607843 0.45882353 0.78039216
v -0.00658101 0.01358882 -0.03404791 0.79607843 0.45882353 0.78039216
v -0.00551801 0.01264532 -0.03404791 0.79607843 0.45882353 0.78039216
v -0.00749248 0.00321030 0.01997147 0.79607843 0.45882353 0.78039216
v -0.00648234 0.00380527 -0.01772999 0.79607843 0.45882353 0.78039216
v -0.00654459 0.00376419 -0.03404791 0.79607843 0.45882353 0.78039216
v -0.00552271 0.00467014 -0.03404791 0.79607843 0.45882353 0.78039216
v -0.00550509 0.00468892 -0.03404791 0.79607843 0.45882353 0.78039216
v -0.00469697 0.00585891 -0.03404791 0.79607843 0.45882353 0.78039216
v -0.00764988 0.01416854 -0.01772999 0.79607843 0.45882353 0.78039216
v -0.00660215 0.01360290 -0.03404791 0.79607843 0.45882353 0.78039216
v -0.00665031 0.01362872 -0.03404791 0.79607843 0.45882353 0.78039216
v -0.00853786 0.01447834 0.01997147 0.79607843 0.45882353 0.78039216
v -0.00889729 0.00276319 0.01997147 0.79607843 0.45882353 0.78039216
v -0.00819489 0.00296034 -0.01772999 0.79607843 0.45882353 0.78039216
v -0.00789184 0.00304601 -0.03404791 0.79607843 0.45882353 0.78039216
v -0.00775442 0.00310116 -0.01772999 0.79607843 0.45882353 0.78039216
v -0.00786718 0.00305422 -0.03404791 0.79607843 0.45882353 0.78039216
v -0.00687465 0.00356235 -0.01772999 0.79607843 0.45882353 0.78039216
v -0.00660802 0.00371491 -0.03404791 0.79607843 0.45882353 0.78039216
v -0.00658570 0.00372899 -0.03404791 0.79607843 0.45882353 0.78039216
v -0.00786130 0.01426359 -0.03404791 0.79607843 0.45882353 0.78039216
v -0.00808095 0.01433518 -0.01772999 0.79607843 0.45882353 0.78039216
v -0.00950455 0.01462973 -0.01772999 0.79607843 0.45882353 0.78039216
v -0.01000022 0.01466024 0.01997147 0.79607843 0.45882353 0.78039216
v -0.00926493 0.01461330 -0.03404791 0.79607843 0.45882353 0.78039216
v -0.01036904 0.00267166 0.01997147 0.79607843 0.45882353 0.78039216
v -0.00962083 0.00269395 -0.01772999 0.79607843 0.45882353 0.78039216
v -0.00927080 0.00270569 -0.03404791 0.79607843 0.45882353 0.78039216
v -0.00921795 0.00271860 -0.03404791 0.79607843 0.45882353 0.78039216
v -0.00788597 0.01427298 -0.03404791 0.79607843 0.45882353 0.78039216
v -0.01049472 0.01462973 -0.01772999 0.79607843 0.45882353 0.78039216
v -0.00928960 0.01461564 -0.03404791 0.79607843 0.45882353 0.78039216
v -0.01069205 0.01461682 0.01997147 0.79607843 0.45882353 0.78039216
v -0.01072142 0.01461564 -0.01772999 0.79607843 0.45882353 0.78039216
v -0.01181848 0.00294274 0.01997147 0.79607843 0.45882353 0.78039216
v -0.01061101 0.00269395 -0.01772999 0.79607843 0.45882353 0.78039216
v -0.00929665 0.00270451 -0.03404791 0.79607843 0.45882353 0.78039216
v -0.01072142 0.01461564 -0.03404791 0.79607843 0.45882353 0.78039216
v -0.01072142 0.01461447 0.01997147 0.79607843 0.45882353 0.78039216
v -0.01142382 0.01444314 0.01997147 0.79607843 0.45882353 0.78039216
v -0.01094224 0.01456166 -0.01772999 0.79607843 0.45882353 0.78039216
v -0.01315751 0.00356000 0.01997147 0.79607843 0.45882353 0.78039216
v -0.01202990 0.00301667 -0.01772999 0.79607843 0.45882353 0.78039216
v -0.01106675 0.00277962 -0.01772999 0.79607843 0.45882353 0.78039216
v -0.01071554 0.00270451 -0.03404791 0.79607843 0.45882353 0.78039216
v -0.01212622 0.01426828 -0.03404791 0.79607843 0.45882353 0.78039216
v -0.01212739 0.01426946 -0.01772999 0.79607843 0.45882353 0.78039216
v -0.01212739 0.01426946 0.01997147 0.79607843 0.45882353 0.78039216
v -0.01430625 0.00448473 0.01997147 0.79607843 0.45882353 0.78039216
v -0.01368959 0.00396134 -0.01772999 0.79607843 0.45882353 0.78039216
v -0.01332900 0.00367149 -0.01772999 0.79607843 0.45882353 0.78039216
v -0.01244923 0.00321030 -0.01772999 0.79607843 0.45882353 0.78039216
v -0.01214384 0.00306009 -0.03404791 0.79607843 0.45882353 0.78039216
v -0.01212035 0.00304953 -0.03404791 0.79607843 0.45882353 0.78039216
v -0.01079307 0.00272212 -0.03404791 0.79607843 0.45882353 0.78039216
v -0.01074021 0.00270921 -0.03404791 0.79607843 0.45882353 0.78039216
v -0.01213679 0.01426359 -0.03404791 0.79607843 0.45882353 0.78039216
v -0.01340769 0.01359704 -0.03404791 0.79607843 0.45882353 0.78039216
v -0.01276637 0.01393383 0.01997147 0.79607843 0.45882353 0.78039216
v -0.01340769 0.01359704 -0.01772999 0.79607843 0.45882353 0.78039216
v -0.01519541 0.00566293 0.01997147 0.79607843 0.45882353 0.78039216
v -0.01471148 0.00498934 -0.01772999 0.79607843 0.45882353 0.78039216
v -0.01443193 0.00461968 -0.01772999 0.79607843 0.45882353 0.78039216
v -0.01346407 0.00377241 -0.03404791 0.79607843 0.45882353 0.78039216
v -0.01342296 0.00373720 -0.03404791 0.79607843 0.45882353 0.78039216
v -0.01340299 0.00372077 -0.03404791 0.79607843 0.45882353 0.78039216
v -0.01345820 0.01355244 -0.03404791 0.79607843 0.45882353 0.78039216
v -0.01340769 0.01359586 0.01997147 0.79607843 0.45882353 0.78039216
v -0.01394918 0.01311825 0.01997147 0.79607843 0.45882353 0.78039216
v -0.01533519 0.00600795 0.01997147 0.79607843 0.45882353 0.78039216
v -0.01531052 0.00586947 -0.03404791 0.79607843 0.45882353 0.78039216
v -0.01527528 0.00580610 -0.01772999 0.79607843 0.45882353 0.78039216
v -0.01453294 0.00474525 -0.03404791 0.79607843 0.45882353 0.78039216
v -0.01450123 0.00469948 -0.03404791 0.79607843 0.45882353 0.78039216
v -0.01448596 0.00467953 -0.03404791 0.79607843 0.45882353 0.78039216
v -0.01448948 0.01263710 -0.03404791 0.79607843 0.45882353 0.78039216
v -0.01448948 0.01263828 -0.01772999 0.79607843 0.45882353 0.78039216
v -0.01448948 0.01263828 0.01997147 0.79607843 0.45882353 0.78039216
v -0.01582499 0.00722605 0.01997147 0.79607843 0.45882353 0.78039216
v -0.01582499 0.00722605 -0.03404791 0.79607843 0.45882353 0.78039216
v -0.01531169 0.01144717 -0.03404791 0.79607843 0.45882353 0.78039216
v -0.01531169 0.01144834 -0.01772999 0.79607843 0.45882353 0.78039216
v -0.01531169 0.01144834 0.01997147 0.79607843 0.45882353 0.78039216
v -0.01600000 0.00866243 0.01997147 0.79607843 0.45882353 0.78039216
v -0.01600000 0.00866125 -0.01772999 0.79607843 0.45882353 0.78039216
v -0.01600000 0.00866125 -0.03404791 0.79607843 0.45882353 0.78039216
v -0.01531639 0.01143543 -0.03404791 0.79607843 0.45882353 0.78039216
v -0.01539274 0.01123593 -0.01772999 0.79607843 0.45882353 0.78039216
v -0.01582499 0.01009528 0.01997147 0.79607843 0.45882353 0.78039216
v -0.01600000 0.00866243 -0.01772999 0.79607843 0.45882353 0.78039216
v -0.01582499 0.01009528 -0.03404791 0.79607843 0.45882353 0.78039216
f 1 2 8
f 1 8 14
f 1 14 21
f 1 21 30
f 1 30 42
f 1 42 41
f 1 41 40
f 1 40 39
f 1 39 54
f 1 54 53
f 1 53 51
f 1 51 49
f 1 49 63
f 1 63 62
f 1 62 71
f 1 71 79
f 1 79 90
f 1 90 89
f 1 89 88
f 1 88 87
f 1 87 100
f 1 100 99
f 1 99 98
f 1 98 109
f 1 109 108
f 1 108 107
f 1 107 105
f 1 105 114
f 1 114 120
f 1 120 125
f 1 125 121
f 1 121 115
f 1 115 110
f 1 110 101
f 1 101 92
f 1 92 91
f 1 91 80
f 1 80 72
f 1 72 66
f 1 66 59
f 1 59 64
f 1 64 55
f 1 55 45
f 1 45 44
f 1 44 35
f 1 35 36
f 1 36 31
f 1 31 23
f 1 23 22
f 1 22 18
f 1 18 15
f 1 15 9
f 1 9 3
f 1 3 4
f 1 4 5
f 1 5 6
f 1 6 7
f 1 7 2
f 2 7 8
f 3 9 10
f 3 10 11
f 3 11 5
f 3 5 4
f 5 11 17
f 5 17 24
f 5 24 33
f 5 33 46
f 5 46 58
f 5 58 67
f 5 67 73
f 5 73 74
f 5 74 82
f 5 82 93
f 5 93 102
f 5 102 103
f 5 103 112
f 5 112 117
f 5 117 123
f 5 123 118
f 5 118 113
f 5 113 104
f 5 104 95
f 5 95 83
f 5 83 76
f 5 76 69
f 5 69 60
f 5 60 47
f 5 47 37
f 5 37 26
f 5 26 19
f 5 19 12
f 5 12 6
f 6 12 13
f 6 13 14
f 6 14 8
f 6 8 7
f 9 15 10
f 10 15 11
f 11 16 17
f 11 15 18
f 11 18 16
f 12 19 20
f 12 20 13
f 13 20 21
f 13 21 14
f 16 18 22
f 16 22 23
f 16 23 17
f 17 23 25
f 17 25 24
f 19 26 27
f 19 27 28
f 19 28 29
f 19 29 20
f 20 29 30
f 20 30 21
f 23 31 25
f 24 32 33
f 24 25 34
f 24 34 35
f 24 35 32
f 25 31 36
f 25 36 34
f 26 37 38
f 26 38 39
f 26 39 27
f 27 39 40
f 27 40 28
f 28 40 41
f 28 41 42
f 28 42 29
f 29 42 30
f 32 43 33
f 32 35 44
f 32 44 45
f 32 45 43
f 33 43 46
f 34 36 35
f 37 47 48
f 37 48 49
f 37 49 50
f 37 50 51
f 37 51 52
f 37 52 38
f 38 52 53
f 38 53 54
f 38 54 39
f 43 45 55
f 43 55 56
f 43 56 46
f 46 57 58
f 46 56 59
f 46 59 57
f 47 60 61
f 47 61 62
f 47 62 63
f 47 63 48
f 48 63 49
f 49 51 50
f 51 53 52
f 55 64 56
f 56 64 59
f 57 65 58
f 57 59 66
f 57 66 72
f 57 72 65
f 58 65 68
f 58 68 67
f 60 69 70
f 60 70 61
f 61 70 79
f 61 79 71
f 61 71 62
f 65 72 68
f 67 68 73
f 68 74 73
f 68 72 75
f 68 75 74
f 69 76 77
f 69 77 78
f 69 78 70
f 70 78 79
f 72 80 81
f 72 81 75
f 74 75 81
f 74 81 82
f 76 83 84
f 76 84 85
f 76 85 86
f 76 86 77
f 77 86 87
f 77 87 88
f 77 88 89
f 77 89 78
f 78 89 90
f 78 90 79
f 80 91 81
f 81 91 92
f 81 92 94
f 81 94 82
f 82 94 93
f 83 95 96
f 83 96 97
f 83 97 84
f 84 97 98
f 84 98 99
f 84 99 100
f 84 100 85
f 85 100 87
f 85 87 86
f 92 101 94
f 93 94 102
f 94 101 103
f 94 103 102
f 95 104 105
f 95 105 106
f 95 106 96
f 96 106 105
f 96 105 107
f 96 107 108
f 96 108 97
f 97 108 109
f 97 109 98
f 101 110 111
f 101 111 103
f 103 111 112
f 104 113 105
f 105 113 114
f 110 115 116
f 110 116 111
f 111 116 117
f 111 117 112
f 113 118 119
f 113 119 120
f 113 120 114
f 115 121 116
f 116 122 117
f 116 121 122
f 117 122 123
f 118 123 125
f 118 125 124
f 118 124 120
f 118 120 119
f 120 124 125
f 121 125 122
f 122 125 123