# https://github.com/mikedh/trimesh
v 0.00999748 0.01466026 0.02499912 0.38039216 0.78823529 0.52549020
v 0.01001314 0.01465909 0.02598371 0.38039216 0.78823529 0.52549020
v 0.01072102 0.01461561 0.02598371 0.38039216 0.78823529 0.52549020
v 0.01061766 0.01462266 0.01998615 0.38039216 0.78823529 0.52549020
v 0.00999748 0.01466026 0.02000028 0.38039216 0.78823529 0.52549020
v -0.00999552 0.01466026 0.02499912 0.38039216 0.78823529 0.52549020
v 0.00998495 0.01465909 0.02598371 0.38039216 0.78823529 0.52549020
v 0.01083692 0.01458741 0.02598371 0.38039216 0.78823529 0.52549020
v 0.01075235 0.01460856 0.01998615 0.38039216 0.78823529 0.52549020
v 0.01072102 0.01461561 0.01998615 0.38039216 0.78823529 0.52549020
v 0.00999748 0.01465909 0.01998615 0.38039216 0.78823529 0.52549020
v -0.00999552 0.01465909 0.01997262 0.38039216 0.78823529 0.52549020
v -0.00399104 0.01466026 0.02000028 0.38039216 0.78823529 0.52549020
v -0.00999552 0.01466026 0.02000087 0.38039216 0.78823529 0.52549020
v -0.01007383 0.01465556 0.02570416 0.38039216 0.78823529 0.52549020
v -0.01000805 0.01465909 0.02570416 0.38039216 0.78823529 0.52549020
v 0.00867568 0.01451103 0.02598371 0.38039216 0.78823529 0.52549020
v -0.01072220 0.01461561 0.02570416 0.38039216 0.78823529 0.52549020
v 0.01085258 0.01458388 0.01998615 0.38039216 0.78823529 0.52549020
v 0.01212426 0.01427013 0.02598371 0.38039216 0.78823529 0.52549020
v -0.00853590 0.01447812 0.01997262 0.38039216 0.78823529 0.52549020
v -0.01012708 0.01465204 0.01997262 0.38039216 0.78823529 0.52549020
v -0.01069088 0.01461796 0.01997262 0.38039216 0.78823529 0.52549020
v 0.00864749 0.01450397 0.02598371 0.38039216 0.78823529 0.52549020
v -0.01212544 0.01427013 0.02570416 0.38039216 0.78823529 0.52549020
v -0.01072220 0.01461561 0.01997262 0.38039216 0.78823529 0.52549020
v 0.01212426 0.01427013 0.01998615 0.38039216 0.78823529 0.52549020
v 0.01269746 0.01397049 0.02598371 0.38039216 0.78823529 0.52549020
v -0.00716086 0.01394581 0.01997262 0.38039216 0.78823529 0.52549020
v 0.00740400 0.01406920 0.02598371 0.38039216 0.78823529 0.52549020
v -0.01212544 0.01427013 0.01997262 0.38039216 0.78823529 0.52549020
v -0.01340652 0.01359681 0.02570416 0.38039216 0.78823529 0.52549020
v 0.00737894 0.01405627 0.02598371 0.38039216 0.78823529 0.52549020
v 0.01227461 0.01419140 0.01998615 0.38039216 0.78823529 0.52549020
v 0.01340534 0.01359681 0.02598371 0.38039216 0.78823529 0.52549020
v 0.01340534 0.01359681 0.01998615 0.38039216 0.78823529 0.52549020
v -0.00595808 0.01309388 0.01997262 0.38039216 0.78823529 0.52549020
v -0.01340652 0.01359681 0.01997262 0.38039216 0.78823529 0.52549020
v -0.01389201 0.01316791 0.02570416 0.38039216 0.78823529 0.52549020
v 0.00626386 0.01335592 0.02598371 0.38039216 0.78823529 0.52549020
v 0.01397854 0.01309035 0.02598371 0.38039216 0.78823529 0.52549020
v 0.01448909 0.01263795 0.01998615 0.38039216 0.78823529 0.52549020
v -0.00499649 0.01197403 0.01997262 0.38039216 0.78823529 0.52549020
v -0.01446521 0.01265793 0.01997262 0.38039216 0.78823529 0.52549020
v -0.01439630 0.01271903 0.02570416 0.38039216 0.78823529 0.52549020
v 0.00531167 0.01240411 0.02598371 0.38039216 0.78823529 0.52549020
v -0.01448714 0.01263795 0.02570416 0.38039216 0.78823529 0.52549020
v 0.01448909 0.01263795 0.02598371 0.38039216 0.78823529 0.52549020
v 0.01491821 0.01201751 0.01998615 0.38039216 0.78823529 0.52549020
v -0.00434185 0.01065441 0.01997262 0.38039216 0.78823529 0.52549020
v 0.01530974 0.01144759 0.01998615 0.38039216 0.78823529 0.52549020
v -0.01448714 0.01263795 0.01997262 0.38039216 0.78823529 0.52549020
v 0.00529601 0.01238061 0.02598371 0.38039216 0.78823529 0.52549020
v -0.01531091 0.01144759 0.02570416 0.38039216 0.78823529 0.52549020
v -0.01482228 0.01215499 0.01997262 0.38039216 0.78823529 0.52549020
v 0.01530974 0.01144759 0.02598371 0.38039216 0.78823529 0.52549020
v -0.00402550 0.00921259 0.01997262 0.38039216 0.78823529 0.52549020
v 0.01535985 0.01132068 0.01998615 0.38039216 0.78823529 0.52549020
v 0.01582342 0.01009508 0.01998615 0.38039216 0.78823529 0.52549020
v 0.00459439 0.01126663 0.02598371 0.38039216 0.78823529 0.52549020
v -0.01531091 0.01144759 0.01997262 0.38039216 0.78823529 0.52549020
v -0.01582146 0.01009508 0.02570416 0.38039216 0.78823529 0.52549020
v 0.01582342 0.01009508 0.02598371 0.38039216 0.78823529 0.52549020
v -0.00406935 0.00774139 0.01997262 0.38039216 0.78823529 0.52549020
v 0.01599882 0.00865913 0.01998615 0.38039216 0.78823529 0.52549020
v 0.01583908 0.00997639 0.02598371 0.38039216 0.78823529 0.52549020
v 0.00414961 0.00999519 0.02598371 0.38039216 0.78823529 0.52549020
v -0.01582146 0.01009508 0.01997262 0.38039216 0.78823529 0.52549020
v -0.01600000 0.00865913 0.02570416 0.38039216 0.78823529 0.52549020
v -0.00447341 0.00632307 0.01997262 0.38039216 0.78823529 0.52549020
v 0.01598316 0.00852870 0.01998615 0.38039216 0.78823529 0.52549020
v 0.01582342 0.00722553 0.01998615 0.38039216 0.78823529 0.52549020
v 0.01599882 0.00865913 0.02598371 0.38039216 0.78823529 0.52549020
v 0.00414648 0.00996817 0.02598371 0.38039216 0.78823529 0.52549020
v -0.01600000 0.00865913 0.01997262 0.38039216 0.78823529 0.52549020
v -0.01582146 0.00722553 0.02570416 0.38039216 0.78823529 0.52549020
v 0.00416841 0.00724551 0.02598371 0.38039216 0.78823529 0.52549020
v 0.00399927 0.00865913 0.02598371 0.38039216 0.78823529 0.52549020
v -0.00521261 0.00504576 0.01997262 0.38039216 0.78823529 0.52549020
v 0.01519384 0.00566033 0.01998615 0.38039216 0.78823529 0.52549020
v 0.01582342 0.00722553 0.02598371 0.38039216 0.78823529 0.52549020
v 0.01519697 0.00566503 0.02598371 0.38039216 0.78823529 0.52549020
v -0.01582146 0.00722553 0.01997262 0.38039216 0.78823529 0.52549020
v -0.01519502 0.00566033 0.02499912 0.38039216 0.78823529 0.52549020
v -0.01519502 0.00566503 0.02570416 0.38039216 0.78823529 0.52549020
v 0.00466643 0.00591062 0.02598371 0.38039216 0.78823529 0.52549020
v -0.00623685 0.00398701 0.01997262 0.38039216 0.78823529 0.52549020
v 0.01433874 0.00452050 0.01998615 0.38039216 0.78823529 0.52549020
v 0.01345859 0.00265565 0.02000028 0.38039216 0.78823529 0.52549020
v 0.01518131 0.00564153 0.02598371 0.38039216 0.78823529 0.52549020
v 0.01345859 0.00265565 0.02499912 0.38039216 0.78823529 0.52549020
v -0.01519502 0.00566033 0.02000087 0.38039216 0.78823529 0.52549020
v -0.01519502 0.00566150 0.01997262 0.38039216 0.78823529 0.52549020
v -0.01345976 0.00265565 0.02499912 0.38039216 0.78823529 0.52549020
v -0.01518249 0.00564740 0.02570416 0.38039216 0.78823529 0.52549020
v 0.00546515 0.00473201 0.02598371 0.38039216 0.78823529 0.52549020
v -0.00748974 0.00321029 0.01997262 0.38039216 0.78823529 0.52549020
v 0.01324246 0.00361334 0.01998615 0.38039216 0.78823529 0.52549020
v 0.01056754 0.00268855 0.01998615 0.38039216 0.78823529 0.52549020
v 0.01196138 0.00299055 0.01998615 0.38039216 0.78823529 0.52549020
v -0.00399104 0.00265565 0.02000028 0.38039216 0.78823529 0.52549020
v -0.01036826 0.00267210 0.01997262 0.38039216 0.78823529 0.52549020
v 0.01434188 0.00452402 0.02598371 0.38039216 0.78823529 0.52549020
v 0.01432308 0.00450522 0.02598371 0.38039216 0.78823529 0.52549020
v 0.01324560 0.00361569 0.02598371 0.38039216 0.78823529 0.52549020
v 0.01322054 0.00360276 0.02598371 0.38039216 0.78823529 0.52549020
v 0.01196452 0.00299172 0.02598371 0.38039216 0.78823529 0.52549020
v 0.01193633 0.00298467 0.02598371 0.38039216 0.78823529 0.52549020
v 0.01057068 0.00268855 0.02598371 0.38039216 0.78823529 0.52549020
v -0.01035260 0.00267210 0.02570416 0.38039216 0.78823529 0.52549020
v -0.01345976 0.00265565 0.02000087 0.38039216 0.78823529 0.52549020
v -0.01430233 0.00448407 0.01997262 0.38039216 0.78823529 0.52549020
v -0.01037139 0.00267210 0.02570416 0.38039216 0.78823529 0.52549020
v -0.01179968 0.00294002 0.02570416 0.38039216 0.78823529 0.52549020
v -0.01182161 0.00294472 0.02570416 0.38039216 0.78823529 0.52549020
v -0.01314028 0.00355223 0.02570416 0.38039216 0.78823529 0.52549020
v -0.01315907 0.00356163 0.02570416 0.38039216 0.78823529 0.52549020
v -0.01429294 0.00447350 0.02570416 0.38039216 0.78823529 0.52549020
v -0.01430860 0.00448642 0.02570416 0.38039216 0.78823529 0.52549020
v 0.00649878 0.00379077 0.02598371 0.38039216 0.78823529 0.52549020
v -0.00889611 0.00276258 0.01997262 0.38039216 0.78823529 0.52549020
v -0.01181535 0.00294354 0.01997262 0.38039216 0.78823529 0.52549020
v 0.01054249 0.00268855 0.02598371 0.38039216 0.78823529 0.52549020
v -0.01315594 0.00355928 0.01997262 0.38039216 0.78823529 0.52549020
v 0.00914865 0.00272145 0.02598371 0.38039216 0.78823529 0.52549020
v 0.00912046 0.00272850 0.02598371 0.38039216 0.78823529 0.52549020
v 0.00777047 0.00309043 0.02598371 0.38039216 0.78823529 0.52549020
v 0.00774541 0.00310335 0.02598371 0.38039216 0.78823529 0.52549020
v 0.00652071 0.00377197 0.02598371 0.38039216 0.78823529 0.52549020
f 1 2 3
f 1 3 4
f 1 4 5
f 1 5 13
f 1 13 14
f 1 14 6
f 1 6 7
f 1 7 2
f 2 7 17
f 2 17 24
f 2 24 30
f 2 30 33
f 2 33 40
f 2 40 46
f 2 46 53
f 2 53 60
f 2 60 67
f 2 67 74
f 2 74 78
f 2 78 77
f 2 77 86
f 2 86 96
f 2 96 120
f 2 120 129
f 2 129 128
f 2 128 127
f 2 127 126
f 2 126 125
f 2 125 123
f 2 123 109
f 2 109 108
f 2 108 107
f 2 107 106
f 2 106 105
f 2 105 104
f 2 104 103
f 2 103 90
f 2 90 82
f 2 82 81
f 2 81 73
f 2 73 66
f 2 66 63
f 2 63 56
f 2 56 48
f 2 48 41
f 2 41 35
f 2 35 28
f 2 28 20
f 2 20 8
f 2 8 3
f 3 8 9
f 3 9 10
f 3 10 4
f 4 11 5
f 4 10 12
f 4 12 11
f 5 11 12
f 5 12 13
f 6 14 15
f 6 15 16
f 6 16 7
f 7 16 15
f 7 15 18
f 7 18 17
f 8 19 9
f 8 20 19
f 9 19 21
f 9 21 10
f 10 21 12
f 12 21 29
f 12 29 37
f 12 37 43
f 12 43 50
f 12 50 57
f 12 57 64
f 12 64 70
f 12 70 79
f 12 79 87
f 12 87 97
f 12 97 121
f 12 121 102
f 12 102 122
f 12 122 124
f 12 124 112
f 12 112 93
f 12 93 83
f 12 83 75
f 12 75 68
f 12 68 61
f 12 61 55
f 12 55 52
f 12 52 44
f 12 44 38
f 12 38 31
f 12 31 26
f 12 26 23
f 12 23 22
f 12 22 14
f 12 14 13
f 14 22 23
f 14 23 15
f 15 23 18
f 17 18 25
f 17 25 24
f 18 23 26
f 18 26 31
f 18 31 25
f 19 20 27
f 19 27 21
f 20 28 27
f 21 27 29
f 24 25 30
f 25 31 38
f 25 38 32
f 25 32 33
f 25 33 30
f 27 28 34
f 27 34 29
f 28 35 36
f 28 36 34
f 29 34 36
f 29 36 37
f 32 38 39
f 32 39 40
f 32 40 33
f 35 41 36
f 36 41 42
f 36 42 37
f 37 42 43
f 38 44 39
f 39 44 45
f 39 45 40
f 40 45 47
f 40 47 46
f 41 48 42
f 42 48 49
f 42 49 43
f 43 49 51
f 43 51 50
f 44 52 47
f 44 47 45
f 46 47 54
f 46 54 53
f 47 52 55
f 47 55 54
f 48 56 49
f 49 56 51
f 50 51 58
f 50 58 59
f 50 59 57
f 51 56 58
f 53 54 60
f 54 61 68
f 54 68 62
f 54 62 60
f 54 55 61
f 56 63 58
f 57 59 65
f 57 65 64
f 58 63 59
f 59 63 66
f 59 66 65
f 60 62 67
f 62 68 75
f 62 75 69
f 62 69 67
f 64 65 71
f 64 71 72
f 64 72 70
f 65 73 71
f 65 66 73
f 67 69 74
f 69 76 77
f 69 77 78
f 69 78 74
f 69 75 83
f 69 83 76
f 70 72 80
f 70 80 79
f 71 73 81
f 71 81 72
f 72 81 82
f 72 82 80
f 76 83 92
f 76 92 84
f 76 84 85
f 76 85 86
f 76 86 77
f 79 80 88
f 79 88 87
f 80 82 89
f 80 89 88
f 82 90 91
f 82 91 89
f 83 93 92
f 84 94 85
f 84 92 111
f 84 111 94
f 85 95 96
f 85 96 86
f 85 94 95
f 87 88 98
f 87 98 97
f 88 89 98
f 89 99 100
f 89 100 98
f 89 91 94
f 89 94 111
f 89 111 101
f 89 101 102
f 89 102 99
f 90 103 91
f 91 103 104
f 91 104 105
f 91 105 106
f 91 106 107
f 91 107 108
f 91 108 109
f 91 109 110
f 91 110 113
f 91 113 94
f 92 93 111
f 93 112 111
f 94 113 114
f 94 114 115
f 94 115 116
f 94 116 117
f 94 117 118
f 94 118 119
f 94 119 95
f 95 119 96
f 96 119 120
f 97 98 100
f 97 100 121
f 99 102 121
f 99 121 100
f 101 111 102
f 102 111 122
f 109 123 113
f 109 113 110
f 111 112 124
f 111 124 122
f 113 123 125
f 113 125 114
f 114 125 115
f 115 125 126
f 115 126 127
f 115 127 116
f 116 127 117
f 117 127 128
f 117 128 129
f 117 129 118
f 118 129 119
f 119 129 120