# https://github.com/mikedh/trimesh

o geometry_0
v 0.01999609 0.01565738 -0.03500196 0.54509804 0.71372549 0.60000000
v 0.01999609 -0.00041646 -0.03500196 0.54509804 0.71372549 0.60000000
v 0.01999609 0.01565738 -0.07500000 0.54509804 0.71372549 0.60000000
v 0.01992169 0.01632590 -0.03500196 0.54509804 0.71372549 0.60000000
v 0.01599843 0.00865795 -0.03404791 0.54509804 0.71372549 0.60000000
v 0.01994127 -0.00100096 -0.03500196 0.54509804 0.71372549 0.60000000
v 0.01999609 -0.00041646 -0.07500000 0.54509804 0.71372549 0.60000000
v 0.01599843 0.00864699 -0.03404791 0.54509804 0.71372549 0.60000000
v 0.01992169 0.01632590 -0.07500000 0.54509804 0.71372549 0.60000000
v 0.01970243 0.01696155 -0.03500196 0.54509804 0.71372549 0.60000000
v 0.01582616 0.01008268 -0.03404791 0.54509804 0.71372549 0.60000000
v 0.01599060 0.00872371 -0.03404791 0.54509804 0.71372549 0.60000000
v 0.01976899 -0.00156355 -0.03500196 0.54509804 0.71372549 0.60000000
v 0.01994127 -0.00100096 -0.07500000 0.54509804 0.71372549 0.60000000
v 0.01582224 0.00722227 -0.03404791 0.54509804 0.71372549 0.60000000
v 0.01970243 0.01696155 -0.07500000 0.54509804 0.71372549 0.60000000
v 0.01934221 0.01752779 -0.03500196 0.54509804 0.71372549 0.60000000
v 0.01530540 0.01145626 -0.03404791 0.54509804 0.71372549 0.60000000
v 0.01531715 0.01143434 -0.03404791 0.54509804 0.71372549 0.60000000
v 0.01582224 0.01009364 -0.03404791 0.54509804 0.71372549 0.60000000
v 0.01949100 -0.00208229 -0.03500196 0.54509804 0.71372549 0.60000000
v 0.01976899 -0.00156355 -0.07500000 0.54509804 0.71372549 0.60000000
v 0.01581441 0.00719669 -0.03404791 0.54509804 0.71372549 0.60000000
v 0.01530932 0.00586695 -0.03404791 0.54509804 0.71372549 0.60000000
v 0.01934221 0.01752779 -0.07500000 0.54509804 0.71372549 0.60000000
v 0.01886844 0.01800269 -0.03500196 0.54509804 0.71372549 0.60000000
v 0.01449100 0.01263623 -0.03404791 0.54509804 0.71372549 0.60000000
v 0.01911903 -0.00253528 -0.03500196 0.54509804 0.71372549 0.60000000
v 0.01949100 -0.00208229 -0.07500000 0.54509804 0.71372549 0.60000000
v 0.00530932 -0.01144895 -0.03404791 0.54509804 0.71372549 0.60000000
v 0.00450274 -0.01262161 -0.03404791 0.54509804 0.71372549 0.60000000
v 0.00449099 -0.01263623 -0.03404791 0.54509804 0.71372549 0.60000000
v 0.01886844 0.01800269 -0.07500000 0.54509804 0.71372549 0.60000000
v 0.01830071 0.01836070 -0.03500196 0.54509804 0.71372549 0.60000000
v 0.01340642 0.01359700 -0.03404791 0.54509804 0.71372549 0.60000000
v 0.01447925 0.01264719 -0.03404791 0.54509804 0.71372549 0.60000000
v 0.00387627 -0.01777985 -0.03500196 0.54509804 0.71372549 0.60000000
v 0.01911903 -0.00253528 -0.07500000 0.54509804 0.71372549 0.60000000
v 0.00447925 -0.01264719 -0.03404791 0.54509804 0.71372549 0.60000000
v 0.01830071 0.01836070 -0.07500000 0.54509804 0.71372549 0.60000000
v 0.01766641 0.01858354 -0.03500196 0.54509804 0.71372549 0.60000000
v 0.01212608 0.01426918 -0.03404791 0.54509804 0.71372549 0.60000000
v 0.00342208 -0.01815247 -0.03500196 0.54509804 0.71372549 0.60000000
v 0.00387627 -0.01777985 -0.07500000 0.54509804 0.71372549 0.60000000
v 0.00345732 -0.01355317 -0.03404791 0.54509804 0.71372549 0.60000000
v 0.00340642 -0.01359700 -0.03404791 0.54509804 0.71372549 0.60000000
v 0.01766641 0.01858354 -0.07500000 0.54509804 0.71372549 0.60000000
v 0.01699687 0.01866026 -0.03500196 0.54509804 0.71372549 0.60000000
v 0.01072044 0.01461623 -0.03404791 0.54509804 0.71372549 0.60000000
v 0.00290525 -0.01843011 -0.03500196 0.54509804 0.71372549 0.60000000
v 0.00342208 -0.01815247 -0.07500000 0.54509804 0.71372549 0.60000000
v 0.00219655 -0.01423265 -0.03404791 0.54509804 0.71372549 0.60000000
v 0.01699687 0.01866026 -0.07500000 0.54509804 0.71372549 0.60000000
v -0.01699687 0.01866026 -0.03500196 0.54509804 0.71372549 0.60000000
v -0.01072044 0.01461623 -0.03404791 0.54509804 0.71372549 0.60000000
v 0.00234143 -0.01860181 -0.03500196 0.54509804 0.71372549 0.60000000
v 0.00290525 -0.01843011 -0.07500000 0.54509804 0.71372549 0.60000000
v 0.00212608 -0.01426918 -0.03404791 0.54509804 0.71372549 0.60000000
v -0.01699687 0.01866026 -0.07500000 0.54509804 0.71372549 0.60000000
v -0.01766641 0.01858354 -0.03500196 0.54509804 0.71372549 0.60000000
v -0.01212608 0.01426918 -0.03404791 0.54509804 0.71372549 0.60000000
v 0.00175411 -0.01866026 -0.03500196 0.54509804 0.71372549 0.60000000
v 0.00234143 -0.01860181 -0.07500000 0.54509804 0.71372549 0.60000000
v 0.00072044 -0.01461623 -0.03404791 0.54509804 0.71372549 0.60000000
v -0.01766641 0.01858354 -0.07500000 0.54509804 0.71372549 0.60000000
v -0.01830071 0.01836070 -0.03500196 0.54509804 0.71372549 0.60000000
v -0.01219656 0.01423265 -0.03404791 0.54509804 0.71372549 0.60000000
v -0.00175411 -0.01866026 -0.03500196 0.54509804 0.71372549 0.60000000
v 0.00175411 -0.01866026 -0.07500000 0.54509804 0.71372549 0.60000000
v -0.00072044 -0.01461623 -0.03404791 0.54509804 0.71372549 0.60000000
v -0.01830071 0.01836070 -0.07500000 0.54509804 0.71372549 0.60000000
v -0.01886844 0.01800269 -0.03500196 0.54509804 0.71372549 0.60000000
v -0.01340642 0.01359700 -0.03404791 0.54509804 0.71372549 0.60000000
v -0.00234143 -0.01860181 -0.03500196 0.54509804 0.71372549 0.60000000
v -0.00175411 -0.01866026 -0.07500000 0.54509804 0.71372549 0.60000000
v -0.00211433 -0.01427283 -0.03404791 0.54509804 0.71372549 0.60000000
v -0.01886844 0.01800269 -0.07500000 0.54509804 0.71372549 0.60000000
v -0.01934221 0.01752779 -0.03500196 0.54509804 0.71372549 0.60000000
v -0.01449100 0.01263623 -0.03404791 0.54509804 0.71372549 0.60000000
v -0.01447925 0.01264719 -0.03404791 0.54509804 0.71372549 0.60000000
v -0.01345732 0.01355317 -0.03404791 0.54509804 0.71372549 0.60000000
v -0.00290525 -0.01843011 -0.03500196 0.54509804 0.71372549 0.60000000
v -0.00234143 -0.01860181 -0.07500000 0.54509804 0.71372549 0.60000000
v -0.00212608 -0.01426918 -0.03404791 0.54509804 0.71372549 0.60000000
v -0.01934221 0.01752779 -0.07500000 0.54509804 0.71372549 0.60000000
v -0.01970243 0.01696155 -0.03500196 0.54509804 0.71372549 0.60000000
v -0.01530932 0.01144530 -0.03404791 0.54509804 0.71372549 0.60000000
v -0.00342208 -0.01815247 -0.03500196 0.54509804 0.71372549 0.60000000
v -0.00290525 -0.01843011 -0.07500000 0.54509804 0.71372549 0.60000000
v -0.00340642 -0.01359700 -0.03404791 0.54509804 0.71372549 0.60000000
v -0.01970243 0.01696155 -0.07500000 0.54509804 0.71372549 0.60000000
v -0.01992169 0.01632590 -0.03500196 0.54509804 0.71372549 0.60000000
v -0.01582616 0.01008268 -0.03404791 0.54509804 0.71372549 0.60000000
v -0.01582224 0.01009364 -0.03404791 0.54509804 0.71372549 0.60000000
v -0.01534064 0.01137224 -0.03404791 0.54509804 0.71372549 0.60000000
v -0.00387627 -0.01777985 -0.03500196 0.54509804 0.71372549 0.60000000
v -0.00342208 -0.01815247 -0.07500000 0.54509804 0.71372549 0.60000000
v -0.00449099 -0.01263623 -0.03404791 0.54509804 0.71372549 0.60000000
v -0.01992169 0.01632590 -0.07500000 0.54509804 0.71372549 0.60000000
v -0.01999609 0.01565738 -0.03500196 0.54509804 0.71372549 0.60000000
v -0.01599843 0.00865795 -0.03404791 0.54509804 0.71372549 0.60000000
v -0.01911903 -0.00253528 -0.03500196 0.54509804 0.71372549 0.60000000
v -0.00387627 -0.01777985 -0.07500000 0.54509804 0.71372549 0.60000000
v -0.00450274 -0.01262161 -0.03404791 0.54509804 0.71372549 0.60000000
v -0.01949100 -0.00208229 -0.03500196 0.54509804 0.71372549 0.60000000
v -0.01999609 0.01565738 -0.07500000 0.54509804 0.71372549 0.60000000
v -0.01999609 -0.00041646 -0.03500196 0.54509804 0.71372549 0.60000000
v -0.01599843 0.00864699 -0.03404791 0.54509804 0.71372549 0.60000000
v -0.01911903 -0.00253528 -0.07500000 0.54509804 0.71372549 0.60000000
v -0.00530932 -0.01144895 -0.03404791 0.54509804 0.71372549 0.60000000
v -0.01530932 0.00586695 -0.03404791 0.54509804 0.71372549 0.60000000
v -0.01976899 -0.00156355 -0.03500196 0.54509804 0.71372549 0.60000000
v -0.01949100 -0.00208229 -0.07500000 0.54509804 0.71372549 0.60000000
v -0.01999609 -0.00041646 -0.07500000 0.54509804 0.71372549 0.60000000
v -0.01994127 -0.00100096 -0.03500196 0.54509804 0.71372549 0.60000000
v -0.01582224 0.00722227 -0.03404791 0.54509804 0.71372549 0.60000000
v -0.01581441 0.00719669 -0.03404791 0.54509804 0.71372549 0.60000000
v -0.01976899 -0.00156355 -0.07500000 0.54509804 0.71372549 0.60000000
v -0.01994127 -0.00100096 -0.07500000 0.54509804 0.71372549 0.60000000
f 1 2 7
f 1 7 3
f 1 3 9
f 1 9 4
f 1 4 5
f 1 5 8
f 1 8 2
f 2 6 14
f 2 14 7
f 2 8 6
f 3 7 14
f 3 14 22
f 3 22 29
f 3 29 38
f 3 38 44
f 3 44 51
f 3 51 57
f 3 57 63
f 3 63 69
f 3 69 75
f 3 75 83
f 3 83 89
f 3 89 97
f 3 97 103
f 3 103 109
f 3 109 113
f 3 113 118
f 3 118 119
f 3 119 114
f 3 114 106
f 3 106 99
f 3 99 91
f 3 91 85
f 3 85 77
f 3 77 71
f 3 71 65
f 3 65 59
f 3 59 53
f 3 53 47
f 3 47 40
f 3 40 33
f 3 33 25
f 3 25 16
f 3 16 9
f 4 9 16
f 4 16 10
f 4 10 11
f 4 11 12
f 4 12 5
f 5 12 11
f 5 11 20
f 5 20 19
f 5 19 18
f 5 18 27
f 5 27 36
f 5 36 35
f 5 35 42
f 5 42 49
f 5 49 55
f 5 55 61
f 5 61 67
f 5 67 73
f 5 73 81
f 5 81 80
f 5 80 79
f 5 79 87
f 5 87 95
f 5 95 94
f 5 94 93
f 5 93 101
f 5 101 108
f 5 108 116
f 5 116 117
f 5 117 111
f 5 111 110
f 5 110 104
f 5 104 98
f 5 98 90
f 5 90 84
f 5 84 76
f 5 76 70
f 5 70 64
f 5 64 58
f 5 58 52
f 5 52 46
f 5 46 45
f 5 45 39
f 5 39 32
f 5 32 31
f 5 31 30
f 5 30 24
f 5 24 23
f 5 23 15
f 5 15 8
f 6 13 22
f 6 22 14
f 6 8 15
f 6 15 23
f 6 23 13
f 10 16 25
f 10 25 17
f 10 17 18
f 10 18 19
f 10 19 20
f 10 20 11
f 13 21 29
f 13 29 22
f 13 23 24
f 13 24 21
f 17 25 33
f 17 33 26
f 17 26 27
f 17 27 18
f 21 28 38
f 21 38 29
f 21 24 30
f 21 30 31
f 21 31 32
f 21 32 28
f 26 33 40
f 26 40 34
f 26 34 35
f 26 35 36
f 26 36 27
f 28 37 44
f 28 44 38
f 28 32 37
f 32 39 37
f 34 40 47
f 34 47 41
f 34 41 42
f 34 42 35
f 37 43 51
f 37 51 44
f 37 39 45
f 37 45 46
f 37 46 43
f 41 47 53
f 41 53 48
f 41 48 49
f 41 49 42
f 43 50 57
f 43 57 51
f 43 46 50
f 46 52 50
f 48 53 59
f 48 59 54
f 48 54 55
f 48 55 49
f 50 56 63
f 50 63 57
f 50 52 58
f 50 58 56
f 54 59 65
f 54 65 60
f 54 60 55
f 55 60 61
f 56 62 69
f 56 69 63
f 56 58 64
f 56 64 62
f 60 66 61
f 60 65 71
f 60 71 66
f 61 66 67
f 62 68 75
f 62 75 69
f 62 64 70
f 62 70 68
f 66 72 73
f 66 73 67
f 66 71 77
f 66 77 72
f 68 74 83
f 68 83 75
f 68 70 74
f 70 76 74
f 72 78 79
f 72 79 80
f 72 80 81
f 72 81 73
f 72 77 85
f 72 85 78
f 74 82 89
f 74 89 83
f 74 76 82
f 76 84 82
f 78 86 87
f 78 87 79
f 78 85 91
f 78 91 86
f 82 88 97
f 82 97 89
f 82 84 90
f 82 90 88
f 86 92 93
f 86 93 94
f 86 94 95
f 86 95 87
f 86 91 99
f 86 99 92
f 88 96 103
f 88 103 97
f 88 90 96
f 90 98 96
f 92 100 101
f 92 101 93
f 92 99 106
f 92 106 100
f 96 102 109
f 96 109 103
f 96 98 102
f 98 104 105
f 98 105 102
f 100 107 108
f 100 108 101
f 100 106 114
f 100 114 107
f 102 105 113
f 102 113 109
f 104 110 105
f 105 111 112
f 105 112 118
f 105 118 113
f 105 110 111
f 107 115 108
f 107 114 119
f 107 119 115
f 108 115 116
f 111 117 112
f 112 117 116
f 112 116 115
f 112 115 119
f 112 119 118

o geometry_1
v 0.00599994 -0.00866299 -0.03404791 0.54117647 0.42352941 0.64313725
v 0.00582844 -0.01007405 -0.03404791 0.54117647 0.42352941 0.64313725
v 0.00599759 -0.00863965 -0.03404791 0.54117647 0.42352941 0.64313725
v 0.00595883 -0.00826967 -0.01773102 0.54117647 0.42352941 0.64313725
v 0.00599876 -0.00872485 -0.01773102 0.54117647 0.42352941 0.64313725
v 0.00587895 -0.00971107 -0.01773102 0.54117647 0.42352941 0.64313725
v 0.00582374 -0.01009856 -0.03404791 0.54117647 0.42352941 0.64313725
v 0.00580730 -0.01016391 -0.01773102 0.54117647 0.42352941 0.64313725
v 0.00582609 -0.00722859 -0.03404791 0.54117647 0.42352941 0.64313725
v 0.00583901 -0.00728461 -0.01773102 0.54117647 0.42352941 0.64313725
v 0.00586838 -0.00741416 0.01996807 0.54117647 0.42352941 0.64313725
v 0.00599524 -0.00886840 0.01996807 0.54117647 0.42352941 0.64313725
v 0.00576736 -0.01031331 0.01996807 0.54117647 0.42352941 0.64313725
v 0.00533980 -0.01137656 -0.03404791 0.54117647 0.42352941 0.64313725
v 0.00581787 -0.00720408 -0.03404791 0.54117647 0.42352941 0.64313725
v 0.00539148 -0.00603111 0.01996807 0.54117647 0.42352941 0.64313725
v 0.00519532 -0.01165901 0.01996807 0.54117647 0.42352941 0.64313725
v 0.00531043 -0.01145126 -0.03404791 0.54117647 0.42352941 0.64313725
v 0.00545491 -0.01109178 -0.01773102 0.54117647 0.42352941 0.64313725
v 0.00531396 -0.00587589 -0.03404791 0.54117647 0.42352941 0.64313725
v 0.00533745 -0.00592257 -0.01773102 0.54117647 0.42352941 0.64313725
v 0.00508726 -0.00553742 -0.01773102 0.54117647 0.42352941 0.64313725
v 0.00459509 -0.00480563 0.01996807 0.54117647 0.42352941 0.64313725
v 0.00502030 -0.01190294 0.01996807 0.54117647 0.42352941 0.64313725
v 0.00450229 -0.01262189 -0.03404791 0.54117647 0.42352941 0.64313725
v 0.00453401 -0.01257637 -0.03404791 0.54117647 0.42352941 0.64313725
v 0.00529986 -0.00585488 -0.03404791 0.54117647 0.42352941 0.64313725
v 0.00449290 -0.00468541 -0.03404791 0.54117647 0.42352941 0.64313725
v 0.00418750 -0.00440764 -0.01773102 0.54117647 0.42352941 0.64313725
v 0.00352618 -0.00380773 0.01996807 0.54117647 0.42352941 0.64313725
v 0.00449055 -0.01263823 0.01996807 0.54117647 0.42352941 0.64313725
v 0.00449055 -0.01263823 -0.03404791 0.54117647 0.42352941 0.64313725
v 0.00447410 -0.00466791 -0.03404791 0.54117647 0.42352941 0.64313725
v 0.00344513 -0.00374938 -0.01773102 0.54117647 0.42352941 0.64313725
v 0.00224702 -0.00309929 0.01996807 0.54117647 0.42352941 0.64313725
v 0.00304341 -0.00352646 -0.01773102 0.54117647 0.42352941 0.64313725
v 0.00438953 -0.01272810 0.01996807 0.54117647 0.42352941 0.64313725
v 0.00345806 -0.01355209 -0.03404791 0.54117647 0.42352941 0.64313725
v 0.00340755 -0.01359761 -0.01773102 0.54117647 0.42352941 0.64313725
v 0.00340990 -0.00372487 -0.03404791 0.54117647 0.42352941 0.64313725
v 0.00338758 -0.00371203 -0.03404791 0.54117647 0.42352941 0.64313725
v 0.00083512 -0.00272114 0.01996807 0.54117647 0.42352941 0.64313725
v 0.00212956 -0.00305260 -0.03404791 0.54117647 0.42352941 0.64313725
v 0.00216480 -0.00306661 -0.01773102 0.54117647 0.42352941 0.64313725
v 0.00210489 -0.00304560 -0.03404791 0.54117647 0.42352941 0.64313725
v 0.00333942 -0.00368635 -0.03404791 0.54117647 0.42352941 0.64313725
v 0.00340755 -0.01359761 0.01996807 0.54117647 0.42352941 0.64313725
v 0.00340755 -0.01359644 -0.03404791 0.54117647 0.42352941 0.64313725
v 0.00324780 -0.01368164 0.01996807 0.54117647 0.42352941 0.64313725
v 0.00232807 -0.01416483 -0.01773102 0.54117647 0.42352941 0.64313725
v 0.00212721 -0.01426987 -0.03404791 0.54117647 0.42352941 0.64313725
v 0.00075760 -0.00270947 -0.01773102 0.54117647 0.42352941 0.64313725
v -0.00062493 -0.00269429 0.01996807 0.54117647 0.42352941 0.64313725
v 0.00072471 -0.00270596 -0.03404791 0.54117647 0.42352941 0.64313725
v 0.00264757 -0.01399676 0.01996807 0.54117647 0.42352941 0.64313725
v 0.00212721 -0.01426987 -0.01773102 0.54117647 0.42352941 0.64313725
v 0.00072236 -0.01461651 -0.03404791 0.54117647 0.42352941 0.64313725
v 0.00029832 -0.00270130 -0.01773102 0.54117647 0.42352941 0.64313725
v 0.00069887 -0.00270480 -0.03404791 0.54117647 0.42352941 0.64313725
v -0.00205092 -0.00302342 0.01996807 0.54117647 0.42352941 0.64313725
v -0.00069071 -0.00270130 -0.01773102 0.54117647 0.42352941 0.64313725
v 0.00212721 -0.01426871 0.01996807 0.54117647 0.42352941 0.64313725
v 0.00195219 -0.01431306 0.01996807 0.54117647 0.42352941 0.64313725
v 0.00072236 -0.01461651 -0.01773102 0.54117647 0.42352941 0.64313725
v -0.00072125 -0.01461651 -0.03404791 0.54117647 0.42352941 0.64313725
v -0.00072007 -0.00270480 -0.03404791 0.54117647 0.42352941 0.64313725
v -0.00335358 -0.00368752 0.01996807 0.54117647 0.42352941 0.64313725
v -0.00074474 -0.00271063 -0.03404791 0.54117647 0.42352941 0.64313725
v -0.00079760 -0.00272347 -0.03404791 0.54117647 0.42352941 0.64313725
v -0.00212492 -0.00305143 -0.03404791 0.54117647 0.42352941 0.64313725
v -0.00251255 -0.00325101 -0.01773102 0.54117647 0.42352941 0.64313725
v 0.00129323 -0.01447529 0.01996807 0.54117647 0.42352941 0.64313725
v -0.00072125 -0.01461651 -0.01773102 0.54117647 0.42352941 0.64313725
v 0.00072236 -0.01461534 0.01996807 0.54117647 0.42352941 0.64313725
v -0.00212610 -0.01426987 -0.03404791 0.54117647 0.42352941 0.64313725
v -0.00089744 -0.01457333 0.01996807 0.54117647 0.42352941 0.64313725
v -0.00445772 -0.00464690 0.01996807 0.54117647 0.42352941 0.64313725
v -0.00338999 -0.00371203 -0.01773102 0.54117647 0.42352941 0.64313725
v -0.00342523 -0.00373887 -0.03404791 0.54117647 0.42352941 0.64313725
v -0.00219540 -0.00308762 -0.03404791 0.54117647 0.42352941 0.64313725
v -0.00340526 -0.00372253 -0.03404791 0.54117647 0.42352941 0.64313725
v -0.00072242 -0.01461534 0.01996807 0.54117647 0.42352941 0.64313725
v -0.00334653 -0.01362795 -0.03404791 0.54117647 0.42352941 0.64313725
v -0.00212610 -0.01426987 -0.01773102 0.54117647 0.42352941 0.64313725
v -0.00215664 -0.01425470 0.01996807 0.54117647 0.42352941 0.64313725
v -0.00232813 -0.01416483 -0.01773102 0.54117647 0.42352941 0.64313725
v -0.00340761 -0.01359761 -0.01773102 0.54117647 0.42352941 0.64313725
v -0.00212610 -0.01426871 0.01996807 0.54117647 0.42352941 0.64313725
v -0.00529640 -0.00584437 0.01996807 0.54117647 0.42352941 0.64313725
v -0.00448004 -0.00467141 -0.01773102 0.54117647 0.42352941 0.64313725
v -0.00448826 -0.00468191 -0.03404791 0.54117647 0.42352941 0.64313725
v -0.00340643 -0.01359644 -0.03404791 0.54117647 0.42352941 0.64313725
v -0.00340761 -0.01359761 0.01996807 0.54117647 0.42352941 0.64313725
v -0.00357793 -0.01344705 -0.01773102 0.54117647 0.42352941 0.64313725
v -0.00341583 -0.01358827 -0.03404791 0.54117647 0.42352941 0.64313725
v -0.00582146 -0.00720991 0.01996807 0.54117647 0.42352941 0.64313725
v -0.00450353 -0.00470292 -0.03404791 0.54117647 0.42352941 0.64313725
v -0.00531167 -0.00587238 -0.03404791 0.54117647 0.42352941 0.64313725
v -0.00449061 -0.01263823 0.01996807 0.54117647 0.42352941 0.64313725
v -0.00449061 -0.01263823 -0.01773102 0.54117647 0.42352941 0.64313725
v -0.00448944 -0.01263823 -0.03404791 0.54117647 0.42352941 0.64313725
v -0.00600000 -0.00865949 0.01996807 0.54117647 0.42352941 0.64313725
v -0.00582381 -0.00722158 -0.01773102 0.54117647 0.42352941 0.64313725
v -0.00582851 -0.00724960 -0.03404791 0.54117647 0.42352941 0.64313725
v -0.00582381 -0.00722509 -0.03404791 0.54117647 0.42352941 0.64313725
v -0.00462217 -0.01245616 0.01996807 0.54117647 0.42352941 0.64313725
v -0.00505325 -0.01185742 0.01996807 0.54117647 0.42352941 0.64313725
v -0.00471144 -0.01233127 -0.01773102 0.54117647 0.42352941 0.64313725
v -0.00450118 -0.01262189 -0.03404791 0.54117647 0.42352941 0.64313725
v -0.00590838 -0.00970057 0.01996807 0.54117647 0.42352941 0.64313725
v -0.00600000 -0.00865949 -0.01773102 0.54117647 0.42352941 0.64313725
v -0.00599882 -0.00865949 -0.03404791 0.54117647 0.42352941 0.64313725
v -0.00519538 -0.01165901 0.01996807 0.54117647 0.42352941 0.64313725
v -0.00531050 -0.01145126 -0.03404791 0.54117647 0.42352941 0.64313725
v -0.00453290 -0.01257637 -0.03404791 0.54117647 0.42352941 0.64313725
v -0.00563704 -0.01071130 0.01996807 0.54117647 0.42352941 0.64313725
v -0.00597063 -0.00898628 -0.01773102 0.54117647 0.42352941 0.64313725
v -0.00585082 -0.00997134 -0.01773102 0.54117647 0.42352941 0.64313725
v -0.00576625 -0.01028880 -0.01773102 0.54117647 0.42352941 0.64313725
v -0.00599060 -0.00873185 -0.03404791 0.54117647 0.42352941 0.64313725
v -0.00531754 -0.01143492 -0.03404791 0.54117647 0.42352941 0.64313725
v -0.00582498 -0.01008805 -0.03404791 0.54117647 0.42352941 0.64313725
v -0.00582028 -0.01010556 -0.03404791 0.54117647 0.42352941 0.64313725
v -0.00580266 -0.01015691 -0.03404791 0.54117647 0.42352941 0.64313725
f 120 121 126
f 120 126 133
f 120 133 137
f 120 137 145
f 120 145 144
f 120 144 151
f 120 151 157
f 120 157 167
f 120 167 170
f 120 170 176
f 120 176 184
f 120 184 194
f 120 194 202
f 120 202 211
f 120 211 214
f 120 214 220
f 120 220 228
f 120 228 234
f 120 234 233
f 120 233 240
f 120 240 243
f 120 243 242
f 120 242 241
f 120 241 239
f 120 239 231
f 120 231 223
f 120 223 224
f 120 224 217
f 120 217 216
f 120 216 210
f 120 210 198
f 120 198 200
f 120 200 199
f 120 199 189
f 120 189 188
f 120 188 187
f 120 187 185
f 120 185 178
f 120 178 173
f 120 173 164
f 120 164 162
f 120 162 165
f 120 165 160
f 120 160 159
f 120 159 152
f 120 152 147
f 120 147 146
f 120 146 139
f 120 139 134
f 120 134 128
f 120 128 122
f 120 122 123
f 120 123 124
f 120 124 125
f 120 125 121
f 121 125 127
f 121 127 126
f 122 128 123
f 123 128 129
f 123 129 130
f 123 130 124
f 124 130 131
f 124 131 125
f 125 131 132
f 125 132 127
f 126 127 133
f 127 132 133
f 128 134 129
f 129 134 130
f 130 134 135
f 130 135 142
f 130 142 149
f 130 149 154
f 130 154 161
f 130 161 172
f 130 172 179
f 130 179 186
f 130 186 196
f 130 196 208
f 130 208 215
f 130 215 221
f 130 221 229
f 130 229 235
f 130 235 232
f 130 232 226
f 130 226 225
f 130 225 218
f 130 218 212
f 130 212 204
f 130 204 207
f 130 207 195
f 130 195 201
f 130 201 193
f 130 193 191
f 130 191 182
f 130 182 181
f 130 181 174
f 130 174 168
f 130 168 166
f 130 166 156
f 130 156 150
f 130 150 143
f 130 143 136
f 130 136 132
f 130 132 131
f 132 136 137
f 132 137 138
f 132 138 133
f 133 138 137
f 134 139 140
f 134 140 135
f 135 140 141
f 135 141 142
f 136 143 144
f 136 144 145
f 136 145 137
f 139 146 141
f 139 141 140
f 141 146 147
f 141 147 142
f 142 148 149
f 142 147 148
f 143 150 151
f 143 151 144
f 147 152 148
f 148 153 149
f 148 152 153
f 149 153 155
f 149 155 154
f 150 156 151
f 151 156 158
f 151 158 157
f 152 159 153
f 153 159 160
f 153 160 155
f 154 155 162
f 154 162 163
f 154 163 164
f 154 164 161
f 155 160 165
f 155 165 162
f 156 166 158
f 157 158 167
f 158 166 168
f 158 168 169
f 158 169 170
f 158 170 167
f 161 171 172
f 161 164 171
f 162 164 163
f 164 173 171
f 168 174 169
f 169 175 170
f 169 174 175
f 170 175 183
f 170 183 176
f 171 177 172
f 171 173 178
f 171 178 177
f 172 177 180
f 172 180 179
f 174 181 175
f 175 181 182
f 175 182 183
f 176 183 192
f 176 192 184
f 177 178 185
f 177 185 180
f 179 180 185
f 179 185 187
f 179 187 188
f 179 188 189
f 179 189 190
f 179 190 186
f 182 191 183
f 183 191 193
f 183 193 201
f 183 201 192
f 184 192 195
f 184 195 194
f 186 190 197
f 186 197 198
f 186 198 196
f 189 199 190
f 190 199 200
f 190 200 197
f 192 201 195
f 194 195 203
f 194 203 204
f 194 204 205
f 194 205 206
f 194 206 202
f 195 207 203
f 196 198 209
f 196 209 208
f 197 200 198
f 198 210 209
f 202 206 211
f 203 207 204
f 204 212 205
f 205 212 206
f 206 212 213
f 206 213 214
f 206 214 211
f 208 209 216
f 208 216 217
f 208 217 215
f 209 210 216
f 212 218 213
f 213 218 219
f 213 219 220
f 213 220 214
f 215 217 222
f 215 222 223
f 215 223 221
f 217 224 222
f 218 225 219
f 219 225 226
f 219 226 227
f 219 227 220
f 220 227 228
f 221 223 230
f 221 230 229
f 222 224 223
f 223 231 230
f 226 232 227
f 227 233 234
f 227 234 228
f 227 232 233
f 229 230 236
f 229 236 237
f 229 237 238
f 229 238 235
f 230 231 236
f 231 239 236
f 232 235 233
f 233 235 240
f 235 238 240
f 236 239 237
f 237 239 241
f 237 241 238
f 238 241 242
f 238 242 243
f 238 243 240

o geometry_2
v 0.00600000 -0.00865965 0.07500000 0.43529412 0.89019608 0.96078431
v 0.00582498 -0.00722528 0.07500000 0.43529412 0.89019608 0.96078431
v 0.00582498 -0.01009518 0.07500000 0.43529412 0.89019608 0.96078431
v 0.00599648 -0.00886272 0.02650675 0.43529412 0.89019608 0.96078431
v 0.00587197 -0.00745053 0.02650675 0.43529412 0.89019608 0.96078431
v 0.00586727 -0.00740735 0.02650675 0.43529412 0.89019608 0.96078431
v 0.00540564 -0.00606636 0.02650675 0.43529412 0.89019608 0.96078431
v 0.00539037 -0.00602551 0.02650675 0.43529412 0.89019608 0.96078431
v 0.00531167 -0.00587262 0.07500000 0.43529412 0.89019608 0.96078431
v 0.00531167 -0.01144784 0.07500000 0.43529412 0.89019608 0.96078431
v 0.00575333 -0.01034727 0.02650675 0.43529412 0.89019608 0.96078431
v 0.00576860 -0.01030642 0.02650675 0.43529412 0.89019608 0.96078431
v 0.00599060 -0.00890590 0.02650675 0.43529412 0.89019608 0.96078431
v 0.00461746 -0.00483624 0.02650675 0.43529412 0.89019608 0.96078431
v 0.00459280 -0.00480006 0.02650675 0.43529412 0.89019608 0.96078431
v 0.00449060 -0.00468218 0.07500000 0.43529412 0.89019608 0.96078431
v 0.00449060 -0.01263828 0.07500000 0.43529412 0.89019608 0.96078431
v 0.00517424 -0.01168943 0.02650675 0.43529412 0.89019608 0.96078431
v 0.00519890 -0.01165325 0.02650675 0.43529412 0.89019608 0.96078431
v 0.00355560 -0.00383253 0.02650675 0.43529412 0.89019608 0.96078431
v 0.00340760 -0.00372283 0.07500000 0.43529412 0.89019608 0.96078431
v 0.00340760 -0.01359764 0.07500000 0.43529412 0.89019608 0.96078431
v 0.00388567 -0.01317514 0.02650675 0.43529412 0.89019608 0.96078431
v 0.00440133 -0.01271764 0.02650675 0.43529412 0.89019608 0.96078431
v 0.00449060 -0.01263828 0.02650675 0.43529412 0.89019608 0.96078431
v 0.00352271 -0.00380452 0.02650675 0.43529412 0.89019608 0.96078431
v 0.00228230 -0.00311594 0.02650675 0.43529412 0.89019608 0.96078431
v 0.00212725 -0.00305058 0.07500000 0.43529412 0.89019608 0.96078431
v 0.00212725 -0.01426988 0.07500000 0.43529412 0.89019608 0.96078431
v 0.00340760 -0.01359764 0.02650675 0.43529412 0.89019608 0.96078431
v 0.00224354 -0.00309610 0.02650675 0.43529412 0.89019608 0.96078431
v 0.00072240 -0.00270512 0.07500000 0.43529412 0.89019608 0.96078431
v 0.00087392 -0.00272963 0.02650675 0.43529412 0.89019608 0.96078431
v 0.00083164 -0.00271912 0.02650675 0.43529412 0.89019608 0.96078431
v 0.00072240 -0.01461651 0.07500000 0.43529412 0.89019608 0.96078431
v 0.00150822 -0.01442277 0.02650675 0.43529412 0.89019608 0.96078431
v 0.00212725 -0.01426988 0.02650675 0.43529412 0.89019608 0.96078431
v -0.00072240 -0.00270512 0.07500000 0.43529412 0.89019608 0.96078431
v -0.00058614 -0.00269461 0.02650675 0.43529412 0.89019608 0.96078431
v -0.00072240 -0.01461651 0.07500000 0.43529412 0.89019608 0.96078431
v 0.00072240 -0.01461651 0.02650675 0.43529412 0.89019608 0.96078431
v -0.00212725 -0.00305058 0.07500000 0.43529412 0.89019608 0.96078431
v -0.00062960 -0.00269461 0.02650675 0.43529412 0.89019608 0.96078431
v -0.00201214 -0.00301323 0.02650675 0.43529412 0.89019608 0.96078431
v -0.00212725 -0.01426988 0.07500000 0.43529412 0.89019608 0.96078431
v -0.00072240 -0.01461651 0.02650675 0.43529412 0.89019608 0.96078431
v -0.00340760 -0.00372283 0.07500000 0.43529412 0.89019608 0.96078431
v -0.00205325 -0.00302373 0.02650675 0.43529412 0.89019608 0.96078431
v -0.00331715 -0.00366797 0.02650675 0.43529412 0.89019608 0.96078431
v -0.00335591 -0.00368781 0.02650675 0.43529412 0.89019608 0.96078431
v -0.00340760 -0.01359764 0.07500000 0.43529412 0.89019608 0.96078431
v -0.00223179 -0.01421503 0.02650675 0.43529412 0.89019608 0.96078431
v -0.00212725 -0.01426988 0.02650675 0.43529412 0.89019608 0.96078431
v -0.00449060 -0.00468218 0.07500000 0.43529412 0.89019608 0.96078431
v -0.00442717 -0.00461799 0.02650675 0.43529412 0.89019608 0.96078431
v -0.00449060 -0.01263828 0.07500000 0.43529412 0.89019608 0.96078431
v -0.00340760 -0.01359764 0.02650675 0.43529412 0.89019608 0.96078431
v -0.00531167 -0.00587262 0.07500000 0.43529412 0.89019608 0.96078431
v -0.00445889 -0.00464717 0.02650675 0.43529412 0.89019608 0.96078431
v -0.00529757 -0.00584461 0.02650675 0.43529412 0.89019608 0.96078431
v -0.00531167 -0.01144784 0.07500000 0.43529412 0.89019608 0.96078431
v -0.00517424 -0.01168943 0.02650675 0.43529412 0.89019608 0.96078431
v -0.00449060 -0.01263828 0.02650675 0.43529412 0.89019608 0.96078431
v -0.00582498 -0.00722528 0.07500000 0.43529412 0.89019608 0.96078431
v -0.00580619 -0.00716926 0.02650675 0.43529412 0.89019608 0.96078431
v -0.00582498 -0.01009518 0.07500000 0.43529412 0.89019608 0.96078431
v -0.00562764 -0.01073358 0.02650675 0.43529412 0.89019608 0.96078431
v -0.00519890 -0.01165325 0.02650675 0.43529412 0.89019608 0.96078431
v -0.00600000 -0.00865965 0.07500000 0.43529412 0.89019608 0.96078431
v -0.00582146 -0.00721011 0.02650675 0.43529412 0.89019608 0.96078431
v -0.00600000 -0.00865965 0.02650675 0.43529412 0.89019608 0.96078431
v -0.00590603 -0.00971354 0.02650675 0.43529412 0.89019608 0.96078431
v -0.00564291 -0.01069273 0.02650675 0.43529412 0.89019608 0.96078431
v -0.00591073 -0.00967035 0.02650675 0.43529412 0.89019608 0.96078431
f 244 245 252
f 244 252 259
f 244 259 264
f 244 264 271
f 244 271 275
f 244 275 281
f 244 281 285
f 244 285 290
f 244 290 297
f 244 297 301
f 244 301 307
f 244 307 312
f 244 312 309
f 244 309 304
f 244 304 299
f 244 299 294
f 244 294 288
f 244 288 283
f 244 283 278
f 244 278 272
f 244 272 265
f 244 265 260
f 244 260 253
f 244 253 246
f 244 246 247
f 244 247 248
f 244 248 249
f 244 249 245
f 245 249 250
f 245 250 251
f 245 251 252
f 246 253 254
f 246 254 255
f 246 255 256
f 246 256 247
f 247 256 255
f 247 255 254
f 247 254 262
f 247 262 261
f 247 261 268
f 247 268 267
f 247 267 266
f 247 266 273
f 247 273 280
f 247 280 279
f 247 279 284
f 247 284 289
f 247 289 296
f 247 296 295
f 247 295 300
f 247 300 306
f 247 306 305
f 247 305 311
f 247 311 310
f 247 310 316
f 247 316 315
f 247 315 317
f 247 317 314
f 247 314 313
f 247 313 308
f 247 308 303
f 247 303 302
f 247 302 298
f 247 298 293
f 247 293 292
f 247 292 291
f 247 291 287
f 247 287 286
f 247 286 282
f 247 282 277
f 247 277 276
f 247 276 274
f 247 274 270
f 247 270 269
f 247 269 263
f 247 263 258
f 247 258 257
f 247 257 251
f 247 251 250
f 247 250 249
f 247 249 248
f 251 257 252
f 252 257 258
f 252 258 259
f 253 260 261
f 253 261 262
f 253 262 254
f 258 263 259
f 259 263 264
f 260 265 266
f 260 266 267
f 260 267 268
f 260 268 261
f 263 269 264
f 264 269 270
f 264 270 271
f 265 272 280
f 265 280 273
f 265 273 266
f 270 274 271
f 271 274 276
f 271 276 277
f 271 277 275
f 272 278 279
f 272 279 280
f 275 277 282
f 275 282 286
f 275 286 281
f 278 283 289
f 278 289 284
f 278 284 279
f 281 286 287
f 281 287 285
f 283 288 296
f 283 296 289
f 285 287 291
f 285 291 292
f 285 292 293
f 285 293 290
f 288 294 295
f 288 295 296
f 290 293 298
f 290 298 297
f 294 299 306
f 294 306 300
f 294 300 295
f 297 298 302
f 297 302 303
f 297 303 301
f 299 304 305
f 299 305 306
f 301 303 308
f 301 308 307
f 304 309 310
f 304 310 311
f 304 311 305
f 307 308 313
f 307 313 314
f 307 314 312
f 309 312 315
f 309 315 316
f 309 316 310
f 312 314 317
f 312 317 315

o geometry_3
v 0.00999748 0.01466026 0.02499912 0.38039216 0.78823529 0.52549020
v 0.01001314 0.01465909 0.02598371 0.38039216 0.78823529 0.52549020
v 0.01072102 0.01461561 0.02598371 0.38039216 0.78823529 0.52549020
v 0.01061766 0.01462266 0.01998615 0.38039216 0.78823529 0.52549020
v 0.00999748 0.01466026 0.02000028 0.38039216 0.78823529 0.52549020
v -0.00999552 0.01466026 0.02499912 0.38039216 0.78823529 0.52549020
v 0.00998495 0.01465909 0.02598371 0.38039216 0.78823529 0.52549020
v 0.01083692 0.01458741 0.02598371 0.38039216 0.78823529 0.52549020
v 0.01075235 0.01460856 0.01998615 0.38039216 0.78823529 0.52549020
v 0.01072102 0.01461561 0.01998615 0.38039216 0.78823529 0.52549020
v 0.00999748 0.01465909 0.01998615 0.38039216 0.78823529 0.52549020
v -0.00999552 0.01465909 0.01997262 0.38039216 0.78823529 0.52549020
v -0.00399104 0.01466026 0.02000028 0.38039216 0.78823529 0.52549020
v -0.00999552 0.01466026 0.02000087 0.38039216 0.78823529 0.52549020
v -0.01007383 0.01465556 0.02570416 0.38039216 0.78823529 0.52549020
v -0.01000805 0.01465909 0.02570416 0.38039216 0.78823529 0.52549020
v 0.00867568 0.01451103 0.02598371 0.38039216 0.78823529 0.52549020
v -0.01072220 0.01461561 0.02570416 0.38039216 0.78823529 0.52549020
v 0.01085258 0.01458388 0.01998615 0.38039216 0.78823529 0.52549020
v 0.01212426 0.01427013 0.02598371 0.38039216 0.78823529 0.52549020
v -0.00853590 0.01447812 0.01997262 0.38039216 0.78823529 0.52549020
v -0.01012708 0.01465204 0.01997262 0.38039216 0.78823529 0.52549020
v -0.01069088 0.01461796 0.01997262 0.38039216 0.78823529 0.52549020
v 0.00864749 0.01450397 0.02598371 0.38039216 0.78823529 0.52549020
v -0.01212544 0.01427013 0.02570416 0.38039216 0.78823529 0.52549020
v -0.01072220 0.01461561 0.01997262 0.38039216 0.78823529 0.52549020
v 0.01212426 0.01427013 0.01998615 0.38039216 0.78823529 0.52549020
v 0.01269746 0.01397049 0.02598371 0.38039216 0.78823529 0.52549020
v -0.00716086 0.01394581 0.01997262 0.38039216 0.78823529 0.52549020
v 0.00740400 0.01406920 0.02598371 0.38039216 0.78823529 0.52549020
v -0.01212544 0.01427013 0.01997262 0.38039216 0.78823529 0.52549020
v -0.01340652 0.01359681 0.02570416 0.38039216 0.78823529 0.52549020
v 0.00737894 0.01405627 0.02598371 0.38039216 0.78823529 0.52549020
v 0.01227461 0.01419140 0.01998615 0.38039216 0.78823529 0.52549020
v 0.01340534 0.01359681 0.02598371 0.38039216 0.78823529 0.52549020
v 0.01340534 0.01359681 0.01998615 0.38039216 0.78823529 0.52549020
v -0.00595808 0.01309388 0.01997262 0.38039216 0.78823529 0.52549020
v -0.01340652 0.01359681 0.01997262 0.38039216 0.78823529 0.52549020
v -0.01389201 0.01316791 0.02570416 0.38039216 0.78823529 0.52549020
v 0.00626386 0.01335592 0.02598371 0.38039216 0.78823529 0.52549020
v 0.01397854 0.01309035 0.02598371 0.38039216 0.78823529 0.52549020
v 0.01448909 0.01263795 0.01998615 0.38039216 0.78823529 0.52549020
v -0.00499649 0.01197403 0.01997262 0.38039216 0.78823529 0.52549020
v -0.01446521 0.01265793 0.01997262 0.38039216 0.78823529 0.52549020
v -0.01439630 0.01271903 0.02570416 0.38039216 0.78823529 0.52549020
v 0.00531167 0.01240411 0.02598371 0.38039216 0.78823529 0.52549020
v -0.01448714 0.01263795 0.02570416 0.38039216 0.78823529 0.52549020
v 0.01448909 0.01263795 0.02598371 0.38039216 0.78823529 0.52549020
v 0.01491821 0.01201751 0.01998615 0.38039216 0.78823529 0.52549020
v -0.00434185 0.01065441 0.01997262 0.38039216 0.78823529 0.52549020
v 0.01530974 0.01144759 0.01998615 0.38039216 0.78823529 0.52549020
v -0.01448714 0.01263795 0.01997262 0.38039216 0.78823529 0.52549020
v 0.00529601 0.01238061 0.02598371 0.38039216 0.78823529 0.52549020
v -0.01531091 0.01144759 0.02570416 0.38039216 0.78823529 0.52549020
v -0.01482228 0.01215499 0.01997262 0.38039216 0.78823529 0.52549020
v 0.01530974 0.01144759 0.02598371 0.38039216 0.78823529 0.52549020
v -0.00402550 0.00921259 0.01997262 0.38039216 0.78823529 0.52549020
v 0.01535985 0.01132068 0.01998615 0.38039216 0.78823529 0.52549020
v 0.01582342 0.01009508 0.01998615 0.38039216 0.78823529 0.52549020
v 0.00459439 0.01126663 0.02598371 0.38039216 0.78823529 0.52549020
v -0.01531091 0.01144759 0.01997262 0.38039216 0.78823529 0.52549020
v -0.01582146 0.01009508 0.02570416 0.38039216 0.78823529 0.52549020
v 0.01582342 0.01009508 0.02598371 0.38039216 0.78823529 0.52549020
v -0.00406935 0.00774139 0.01997262 0.38039216 0.78823529 0.52549020
v 0.01599882 0.00865913 0.01998615 0.38039216 0.78823529 0.52549020
v 0.01583908 0.00997639 0.02598371 0.38039216 0.78823529 0.52549020
v 0.00414961 0.00999519 0.02598371 0.38039216 0.78823529 0.52549020
v -0.01582146 0.01009508 0.01997262 0.38039216 0.78823529 0.52549020
v -0.01600000 0.00865913 0.02570416 0.38039216 0.78823529 0.52549020
v -0.00447341 0.00632307 0.01997262 0.38039216 0.78823529 0.52549020
v 0.01598316 0.00852870 0.01998615 0.38039216 0.78823529 0.52549020
v 0.01582342 0.00722553 0.01998615 0.38039216 0.78823529 0.52549020
v 0.01599882 0.00865913 0.02598371 0.38039216 0.78823529 0.52549020
v 0.00414648 0.00996817 0.02598371 0.38039216 0.78823529 0.52549020
v -0.01600000 0.00865913 0.01997262 0.38039216 0.78823529 0.52549020
v -0.01582146 0.00722553 0.02570416 0.38039216 0.78823529 0.52549020
v 0.00416841 0.00724551 0.02598371 0.38039216 0.78823529 0.52549020
v 0.00399927 0.00865913 0.02598371 0.38039216 0.78823529 0.52549020
v -0.00521261 0.00504576 0.01997262 0.38039216 0.78823529 0.52549020
v 0.01519384 0.00566033 0.01998615 0.38039216 0.78823529 0.52549020
v 0.01582342 0.00722553 0.02598371 0.38039216 0.78823529 0.52549020
v 0.01519697 0.00566503 0.02598371 0.38039216 0.78823529 0.52549020
v -0.01582146 0.00722553 0.01997262 0.38039216 0.78823529 0.52549020
v -0.01519502 0.00566033 0.02499912 0.38039216 0.78823529 0.52549020
v -0.01519502 0.00566503 0.02570416 0.38039216 0.78823529 0.52549020
v 0.00466643 0.00591062 0.02598371 0.38039216 0.78823529 0.52549020
v -0.00623685 0.00398701 0.01997262 0.38039216 0.78823529 0.52549020
v 0.01433874 0.00452050 0.01998615 0.38039216 0.78823529 0.52549020
v 0.01345859 0.00265565 0.02000028 0.38039216 0.78823529 0.52549020
v 0.01518131 0.00564153 0.02598371 0.38039216 0.78823529 0.52549020
v 0.01345859 0.00265565 0.02499912 0.38039216 0.78823529 0.52549020
v -0.01519502 0.00566033 0.02000087 0.38039216 0.78823529 0.52549020
v -0.01519502 0.00566150 0.01997262 0.38039216 0.78823529 0.52549020
v -0.01345976 0.00265565 0.02499912 0.38039216 0.78823529 0.52549020
v -0.01518249 0.00564740 0.02570416 0.38039216 0.78823529 0.52549020
v 0.00546515 0.00473201 0.02598371 0.38039216 0.78823529 0.52549020
v -0.00748974 0.00321029 0.01997262 0.38039216 0.78823529 0.52549020
v 0.01324246 0.00361334 0.01998615 0.38039216 0.78823529 0.52549020
v 0.01056754 0.00268855 0.01998615 0.38039216 0.78823529 0.52549020
v 0.01196138 0.00299055 0.01998615 0.38039216 0.78823529 0.52549020
v -0.00399104 0.00265565 0.02000028 0.38039216 0.78823529 0.52549020
v -0.01036826 0.00267210 0.01997262 0.38039216 0.78823529 0.52549020
v 0.01434188 0.00452402 0.02598371 0.38039216 0.78823529 0.52549020
v 0.01432308 0.00450522 0.02598371 0.38039216 0.78823529 0.52549020
v 0.01324560 0.00361569 0.02598371 0.38039216 0.78823529 0.52549020
v 0.01322054 0.00360276 0.02598371 0.38039216 0.78823529 0.52549020
v 0.01196452 0.00299172 0.02598371 0.38039216 0.78823529 0.52549020
v 0.01193633 0.00298467 0.02598371 0.38039216 0.78823529 0.52549020
v 0.01057068 0.00268855 0.02598371 0.38039216 0.78823529 0.52549020
v -0.01035260 0.00267210 0.02570416 0.38039216 0.78823529 0.52549020
v -0.01345976 0.00265565 0.02000087 0.38039216 0.78823529 0.52549020
v -0.01430233 0.00448407 0.01997262 0.38039216 0.78823529 0.52549020
v -0.01037139 0.00267210 0.02570416 0.38039216 0.78823529 0.52549020
v -0.01179968 0.00294002 0.02570416 0.38039216 0.78823529 0.52549020
v -0.01182161 0.00294472 0.02570416 0.38039216 0.78823529 0.52549020
v -0.01314028 0.00355223 0.02570416 0.38039216 0.78823529 0.52549020
v -0.01315907 0.00356163 0.02570416 0.38039216 0.78823529 0.52549020
v -0.01429294 0.00447350 0.02570416 0.38039216 0.78823529 0.52549020
v -0.01430860 0.00448642 0.02570416 0.38039216 0.78823529 0.52549020
v 0.00649878 0.00379077 0.02598371 0.38039216 0.78823529 0.52549020
v -0.00889611 0.00276258 0.01997262 0.38039216 0.78823529 0.52549020
v -0.01181535 0.00294354 0.01997262 0.38039216 0.78823529 0.52549020
v 0.01054249 0.00268855 0.02598371 0.38039216 0.78823529 0.52549020
v -0.01315594 0.00355928 0.01997262 0.38039216 0.78823529 0.52549020
v 0.00914865 0.00272145 0.02598371 0.38039216 0.78823529 0.52549020
v 0.00912046 0.00272850 0.02598371 0.38039216 0.78823529 0.52549020
v 0.00777047 0.00309043 0.02598371 0.38039216 0.78823529 0.52549020
v 0.00774541 0.00310335 0.02598371 0.38039216 0.78823529 0.52549020
v 0.00652071 0.00377197 0.02598371 0.38039216 0.78823529 0.52549020
f 318 319 320
f 318 320 321
f 318 321 322
f 318 322 330
f 318 330 331
f 318 331 323
f 318 323 324
f 318 324 319
f 319 324 334
f 319 334 341
f 319 341 347
f 319 347 350
f 319 350 357
f 319 357 363
f 319 363 370
f 319 370 377
f 319 377 384
f 319 384 391
f 319 391 395
f 319 395 394
f 319 394 403
f 319 403 413
f 319 413 437
f 319 437 446
f 319 446 445
f 319 445 444
f 319 444 443
f 319 443 442
f 319 442 440
f 319 440 426
f 319 426 425
f 319 425 424
f 319 424 423
f 319 423 422
f 319 422 421
f 319 421 420
f 319 420 407
f 319 407 399
f 319 399 398
f 319 398 390
f 319 390 383
f 319 383 380
f 319 380 373
f 319 373 365
f 319 365 358
f 319 358 352
f 319 352 345
f 319 345 337
f 319 337 325
f 319 325 320
f 320 325 326
f 320 326 327
f 320 327 321
f 321 328 322
f 321 327 329
f 321 329 328
f 322 328 329
f 322 329 330
f 323 331 332
f 323 332 333
f 323 333 324
f 324 333 332
f 324 332 335
f 324 335 334
f 325 336 326
f 325 337 336
f 326 336 338
f 326 338 327
f 327 338 329
f 329 338 346
f 329 346 354
f 329 354 360
f 329 360 367
f 329 367 374
f 329 374 381
f 329 381 387
f 329 387 396
f 329 396 404
f 329 404 414
f 329 414 438
f 329 438 419
f 329 419 439
f 329 439 441
f 329 441 429
f 329 429 410
f 329 410 400
f 329 400 392
f 329 392 385
f 329 385 378
f 329 378 372
f 329 372 369
f 329 369 361
f 329 361 355
f 329 355 348
f 329 348 343
f 329 343 340
f 329 340 339
f 329 339 331
f 329 331 330
f 331 339 340
f 331 340 332
f 332 340 335
f 334 335 342
f 334 342 341
f 335 340 343
f 335 343 348
f 335 348 342
f 336 337 344
f 336 344 338
f 337 345 344
f 338 344 346
f 341 342 347
f 342 348 355
f 342 355 349
f 342 349 350
f 342 350 347
f 344 345 351
f 344 351 346
f 345 352 353
f 345 353 351
f 346 351 353
f 346 353 354
f 349 355 356
f 349 356 357
f 349 357 350
f 352 358 353
f 353 358 359
f 353 359 354
f 354 359 360
f 355 361 356
f 356 361 362
f 356 362 357
f 357 362 364
f 357 364 363
f 358 365 359
f 359 365 366
f 359 366 360
f 360 366 368
f 360 368 367
f 361 369 364
f 361 364 362
f 363 364 371
f 363 371 370
f 364 369 372
f 364 372 371
f 365 373 366
f 366 373 368
f 367 368 375
f 367 375 376
f 367 376 374
f 368 373 375
f 370 371 377
f 371 378 385
f 371 385 379
f 371 379 377
f 371 372 378
f 373 380 375
f 374 376 382
f 374 382 381
f 375 380 376
f 376 380 383
f 376 383 382
f 377 379 384
f 379 385 392
f 379 392 386
f 379 386 384
f 381 382 388
f 381 388 389
f 381 389 387
f 382 390 388
f 382 383 390
f 384 386 391
f 386 393 394
f 386 394 395
f 386 395 391
f 386 392 400
f 386 400 393
f 387 389 397
f 387 397 396
f 388 390 398
f 388 398 389
f 389 398 399
f 389 399 397
f 393 400 409
f 393 409 401
f 393 401 402
f 393 402 403
f 393 403 394
f 396 397 405
f 396 405 404
f 397 399 406
f 397 406 405
f 399 407 408
f 399 408 406
f 400 410 409
f 401 411 402
f 401 409 428
f 401 428 411
f 402 412 413
f 402 413 403
f 402 411 412
f 404 405 415
f 404 415 414
f 405 406 415
f 406 416 417
f 406 417 415
f 406 408 411
f 406 411 428
f 406 428 418
f 406 418 419
f 406 419 416
f 407 420 408
f 408 420 421
f 408 421 422
f 408 422 423
f 408 423 424
f 408 424 425
f 408 425 426
f 408 426 427
f 408 427 430
f 408 430 411
f 409 410 428
f 410 429 428
f 411 430 431
f 411 431 432
f 411 432 433
f 411 433 434
f 411 434 435
f 411 435 436
f 411 436 412
f 412 436 413
f 413 436 437
f 414 415 417
f 414 417 438
f 416 419 438
f 416 438 417
f 418 428 419
f 419 428 439
f 426 440 430
f 426 430 427
f 428 429 441
f 428 441 439
f 430 440 442
f 430 442 431
f 431 442 432
f 432 442 443
f 432 443 444
f 432 444 433
f 433 444 434
f 434 444 445
f 434 445 446
f 434 446 435
f 435 446 436
f 436 446 437

o geometry_4
v 0.01600000 0.00866212 0.01998604 0.56470588 0.92549020 0.07058824
v 0.01584143 0.00996183 0.01998604 0.56470588 0.92549020 0.07058824
v 0.01582498 0.00722529 0.01998604 0.56470588 0.92549020 0.07058824
v 0.01600000 0.00866212 -0.03404791 0.56470588 0.92549020 0.07058824
v 0.01582498 0.01009427 0.01998604 0.56470588 0.92549020 0.07058824
v 0.01582498 0.01009427 -0.03404791 0.56470588 0.92549020 0.07058824
v 0.01579796 0.00715732 0.01998604 0.56470588 0.92549020 0.07058824
v 0.01531049 0.00586932 -0.03404791 0.56470588 0.92549020 0.07058824
v 0.01582498 0.00722529 -0.03404791 0.56470588 0.92549020 0.07058824
v 0.01532341 0.01141859 0.01998604 0.56470588 0.92549020 0.07058824
v 0.01580149 0.01015755 -0.03404791 0.56470588 0.92549020 0.07058824
v 0.01531402 0.00595488 0.01998604 0.56470588 0.92549020 0.07058824
v 0.01453406 0.00474424 -0.03404791 0.56470588 0.92549020 0.07058824
v 0.01519538 0.00566071 0.01998604 0.56470588 0.92549020 0.07058824
v 0.01531049 0.01144789 0.01998604 0.56470588 0.92549020 0.07058824
v 0.01531637 0.01143500 -0.03404791 0.56470588 0.92549020 0.07058824
v 0.01448708 0.00467978 -0.03404791 0.56470588 0.92549020 0.07058824
v 0.01471143 0.00498918 -0.01773088 0.56470588 0.92549020 0.07058824
v 0.01434025 0.00452039 0.01998604 0.56470588 0.92549020 0.07058824
v 0.01444362 0.00463173 -0.01773088 0.56470588 0.92549020 0.07058824
v 0.01490172 0.01204325 0.01998604 0.56470588 0.92549020 0.07058824
v 0.01531049 0.01144789 -0.01773088 0.56470588 0.92549020 0.07058824
v 0.01526703 0.01151235 -0.03404791 0.56470588 0.92549020 0.07058824
v 0.01518363 0.01163540 -0.01773088 0.56470588 0.92549020 0.07058824
v 0.01531049 0.01144671 -0.03404791 0.56470588 0.92549020 0.07058824
v 0.01346515 0.00377385 -0.03404791 0.56470588 0.92549020 0.07058824
v 0.01370125 0.00397308 -0.01773088 0.56470588 0.92549020 0.07058824
v 0.01324197 0.00361329 0.01998604 0.56470588 0.92549020 0.07058824
v 0.01448943 0.01263861 0.01998604 0.56470588 0.92549020 0.07058824
v 0.01448943 0.01263861 -0.03404791 0.56470588 0.92549020 0.07058824
v 0.01340525 0.00372111 -0.03404791 0.56470588 0.92549020 0.07058824
v 0.01196163 0.00299097 0.01998604 0.56470588 0.92549020 0.07058824
v 0.01207557 0.00303199 -0.01773088 0.56470588 0.92549020 0.07058824
v 0.01247729 0.00322771 -0.01773088 0.56470588 0.92549020 0.07058824
v 0.01219538 0.00308590 -0.03404791 0.56470588 0.92549020 0.07058824
v 0.01353211 0.01348711 0.01998604 0.56470588 0.92549020 0.07058824
v 0.01340760 0.01359727 -0.03404791 0.56470588 0.92549020 0.07058824
v 0.01056852 0.00268743 0.01998604 0.56470588 0.92549020 0.07058824
v 0.01111002 0.00279408 -0.01773088 0.56470588 0.92549020 0.07058824
v 0.01079757 0.00272259 -0.03404791 0.56470588 0.92549020 0.07058824
v 0.01212255 0.00304957 -0.03404791 0.56470588 0.92549020 0.07058824
v 0.01340760 0.01359727 0.01998604 0.56470588 0.92549020 0.07058824
v 0.01339702 0.01360313 -0.03404791 0.56470588 0.92549020 0.07058824
v 0.00914722 0.00272142 0.01998604 0.56470588 0.92549020 0.07058824
v 0.00923767 0.00270970 -0.01773088 0.56470588 0.92549020 0.07058824
v 0.00968403 0.00269915 -0.01773088 0.56470588 0.92549020 0.07058824
v 0.01067424 0.00269915 -0.01773088 0.56470588 0.92549020 0.07058824
v 0.01074471 0.00270970 -0.03404791 0.56470588 0.92549020 0.07058824
v 0.01288724 0.01387151 0.01998604 0.56470588 0.92549020 0.07058824
v 0.01333712 0.01363478 -0.03404791 0.56470588 0.92549020 0.07058824
v 0.00777173 0.00309059 0.01998604 0.56470588 0.92549020 0.07058824
v 0.00789507 0.00304488 -0.03404791 0.56470588 0.92549020 0.07058824
v 0.00927643 0.00270501 -0.03404791 0.56470588 0.92549020 0.07058824
v 0.01071887 0.00270501 -0.03404791 0.56470588 0.92549020 0.07058824
v 0.01212608 0.01426998 -0.01773088 0.56470588 0.92549020 0.07058824
v 0.01212608 0.01426998 0.01998604 0.56470588 0.92549020 0.07058824
v 0.01212608 0.01426881 -0.03404791 0.56470588 0.92549020 0.07058824
v 0.00651958 0.00377385 0.01998604 0.56470588 0.92549020 0.07058824
v 0.00696241 0.00352422 -0.01773088 0.56470588 0.92549020 0.07058824
v 0.00787275 0.00305192 -0.03404791 0.56470588 0.92549020 0.07058824
v 0.01094323 0.01456180 -0.01773088 0.56470588 0.92549020 0.07058824
v 0.01142482 0.01444343 0.01998604 0.56470588 0.92549020 0.07058824
v 0.01206147 0.01428522 -0.03404791 0.56470588 0.92549020 0.07058824
v 0.00546594 0.00473252 0.01998604 0.56470588 0.92549020 0.07058824
v 0.00549648 0.00469736 -0.01773088 0.56470588 0.92549020 0.07058824
v 0.00582655 0.00439733 -0.01773088 0.56470588 0.92549020 0.07058824
v 0.00657009 0.00373869 -0.01773088 0.56470588 0.92549020 0.07058824
v 0.00659123 0.00372463 -0.03404791 0.56470588 0.92549020 0.07058824
v 0.00661355 0.00371291 -0.03404791 0.56470588 0.92549020 0.07058824
v 0.01085396 0.01458407 0.01998604 0.56470588 0.92549020 0.07058824
v 0.01072122 0.01461571 -0.03404791 0.56470588 0.92549020 0.07058824
v 0.00466719 0.00591152 0.01998604 0.56470588 0.92549020 0.07058824
v 0.00468129 0.00588456 -0.01773088 0.56470588 0.92549020 0.07058824
v 0.00470125 0.00585292 -0.03404791 0.56470588 0.92549020 0.07058824
v 0.00551057 0.00468329 -0.03404791 0.56470588 0.92549020 0.07058824
v 0.00552702 0.00466689 -0.03404791 0.56470588 0.92549020 0.07058824
v 0.01075176 0.01460868 0.01998604 0.56470588 0.92549020 0.07058824
v 0.00928935 0.01461571 -0.03404791 0.56470588 0.92549020 0.07058824
v 0.01049569 0.01462978 -0.01773088 0.56470588 0.92549020 0.07058824
v 0.01061903 0.01462275 0.01998604 0.56470588 0.92549020 0.07058824
v 0.01072122 0.01461571 0.01998604 0.56470588 0.92549020 0.07058824
v 0.00417032 0.00724639 0.01998604 0.56470588 0.92549020 0.07058824
v 0.00418324 0.00720302 -0.03404791 0.56470588 0.92549020 0.07058824
v 0.00468716 0.00587401 -0.03404791 0.56470588 0.92549020 0.07058824
v 0.00926703 0.01461337 -0.03404791 0.56470588 0.92549020 0.07058824
v 0.00950431 0.01462978 -0.01773088 0.56470588 0.92549020 0.07058824
v 0.01000000 0.01466025 0.01998604 0.56470588 0.92549020 0.07058824
v 0.00400000 0.00866212 0.01998604 0.56470588 0.92549020 0.07058824
v 0.00400000 0.00866212 -0.03404791 0.56470588 0.92549020 0.07058824
v 0.00417502 0.00722646 -0.03404791 0.56470588 0.92549020 0.07058824
v 0.00417385 0.00723115 -0.01773088 0.56470588 0.92549020 0.07058824
v 0.00921417 0.01460048 -0.03404791 0.56470588 0.92549020 0.07058824
v 0.00908614 0.01458290 -0.01773088 0.56470588 0.92549020 0.07058824
v 0.00866680 0.01450906 0.01998604 0.56470588 0.92549020 0.07058824
v 0.00415153 0.00999465 0.01998604 0.56470588 0.92549020 0.07058824
v 0.00416797 0.01006379 -0.01773088 0.56470588 0.92549020 0.07058824
v 0.00417502 0.01009309 -0.03404791 0.56470588 0.92549020 0.07058824
v 0.00788684 0.01427350 -0.03404791 0.56470588 0.92549020 0.07058824
v 0.00812177 0.01434499 -0.01773088 0.56470588 0.92549020 0.07058824
v 0.00739703 0.01406606 0.01998604 0.56470588 0.92549020 0.07058824
v 0.00459436 0.01126272 0.01998604 0.56470588 0.92549020 0.07058824
v 0.00430658 0.01046226 -0.01773088 0.56470588 0.92549020 0.07058824
v 0.00418207 0.01011536 -0.03404791 0.56470588 0.92549020 0.07058824
v 0.00786453 0.01426530 -0.03404791 0.56470588 0.92549020 0.07058824
v 0.00626116 0.01335116 0.01998604 0.56470588 0.92549020 0.07058824
v 0.00781754 0.01424068 -0.03404791 0.56470588 0.92549020 0.07058824
v 0.00684495 0.01374494 -0.01773088 0.56470588 0.92549020 0.07058824
v 0.00530971 0.01240070 0.01998604 0.56470588 0.92549020 0.07058824
v 0.00468598 0.01144437 -0.03404791 0.56470588 0.92549020 0.07058824
v 0.00648786 0.01351992 -0.01773088 0.56470588 0.92549020 0.07058824
v 0.00552232 0.01265032 -0.03404791 0.56470588 0.92549020 0.07058824
v 0.00550587 0.01263392 -0.03404791 0.56470588 0.92549020 0.07058824
v 0.00660650 0.01360548 -0.03404791 0.56470588 0.92549020 0.07058824
v 0.00472944 0.01150883 -0.03404791 0.56470588 0.92549020 0.07058824
v 0.00488332 0.01174674 -0.01773088 0.56470588 0.92549020 0.07058824
v 0.00658771 0.01359259 -0.03404791 0.56470588 0.92549020 0.07058824
v 0.00654542 0.01355626 -0.03404791 0.56470588 0.92549020 0.07058824
f 447 448 451
f 447 451 456
f 447 456 461
f 447 461 467
f 447 467 475
f 447 475 482
f 447 482 488
f 447 488 495
f 447 495 502
f 447 502 508
f 447 508 516
f 447 516 523
f 447 523 527
f 447 527 526
f 447 526 533
f 447 533 540
f 447 540 546
f 447 546 551
f 447 551 554
f 447 554 547
f 447 547 541
f 447 541 534
f 447 534 528
f 447 528 518
f 447 518 510
f 447 510 504
f 447 504 497
f 447 497 490
f 447 490 484
f 447 484 478
f 447 478 474
f 447 474 465
f 447 465 460
f 447 460 458
f 447 458 453
f 447 453 449
f 447 449 455
f 447 455 450
f 447 450 448
f 448 450 452
f 448 452 451
f 449 453 454
f 449 454 455
f 450 455 454
f 450 454 459
f 450 459 463
f 450 463 472
f 450 472 477
f 450 477 481
f 450 481 487
f 450 487 486
f 450 486 494
f 450 494 500
f 450 500 499
f 450 499 498
f 450 498 506
f 450 506 515
f 450 515 514
f 450 514 522
f 450 522 521
f 450 521 520
f 450 520 530
f 450 530 529
f 450 529 536
f 450 536 535
f 450 535 543
f 450 543 549
f 450 549 555
f 450 555 560
f 450 560 558
f 450 558 557
f 450 557 563
f 450 563 562
f 450 562 559
f 450 559 552
f 450 552 550
f 450 550 544
f 450 544 538
f 450 538 531
f 450 531 524
f 450 524 517
f 450 517 509
f 450 509 503
f 450 503 496
f 450 496 489
f 450 489 483
f 450 483 476
f 450 476 469
f 450 469 471
f 450 471 462
f 450 462 457
f 450 457 452
f 451 452 457
f 451 457 456
f 453 458 454
f 454 458 460
f 454 460 459
f 456 457 462
f 456 462 461
f 459 460 464
f 459 464 463
f 460 465 466
f 460 466 464
f 461 462 468
f 461 468 469
f 461 469 470
f 461 470 467
f 462 471 468
f 463 464 466
f 463 466 473
f 463 473 472
f 465 474 473
f 465 473 466
f 467 470 476
f 467 476 475
f 468 471 469
f 469 476 470
f 472 473 477
f 473 474 477
f 474 478 479
f 474 479 480
f 474 480 481
f 474 481 477
f 475 476 482
f 476 483 482
f 478 484 485
f 478 485 486
f 478 486 479
f 479 486 487
f 479 487 480
f 480 487 481
f 482 483 488
f 483 489 488
f 484 490 491
f 484 491 492
f 484 492 493
f 484 493 485
f 485 493 494
f 485 494 486
f 488 489 496
f 488 496 495
f 490 497 498
f 490 498 491
f 491 498 499
f 491 499 492
f 492 499 500
f 492 500 493
f 493 500 494
f 495 501 502
f 495 496 501
f 496 503 501
f 497 504 505
f 497 505 506
f 497 506 498
f 501 507 508
f 501 508 502
f 501 503 509
f 501 509 507
f 504 510 511
f 504 511 512
f 504 512 513
f 504 513 505
f 505 513 514
f 505 514 515
f 505 515 506
f 507 516 508
f 507 509 517
f 507 517 516
f 510 518 519
f 510 519 520
f 510 520 511
f 511 520 521
f 511 521 522
f 511 522 512
f 512 522 513
f 513 522 514
f 516 517 523
f 517 524 532
f 517 532 525
f 517 525 526
f 517 526 527
f 517 527 523
f 518 528 529
f 518 529 519
f 519 529 530
f 519 530 520
f 524 531 532
f 525 532 533
f 525 533 526
f 528 534 535
f 528 535 536
f 528 536 537
f 528 537 529
f 529 537 536
f 531 538 539
f 531 539 532
f 532 539 533
f 533 539 540
f 534 541 535
f 535 541 542
f 535 542 543
f 538 544 539
f 539 544 545
f 539 545 540
f 540 545 546
f 541 547 548
f 541 548 549
f 541 549 542
f 542 549 543
f 544 550 546
f 544 546 545
f 546 550 552
f 546 552 553
f 546 553 551
f 547 554 555
f 547 555 548
f 548 555 549
f 551 553 556
f 551 556 557
f 551 557 558
f 551 558 554
f 552 559 553
f 553 559 556
f 554 558 560
f 554 560 561
f 554 561 555
f 555 561 560
f 556 559 562
f 556 562 563
f 556 563 557

o geometry_5
v -0.00400000 0.00866118 0.07499518 0.08627451 0.01960784 0.83137255
v -0.00417502 0.01009508 0.07499518 0.08627451 0.01960784 0.83137255
v -0.00417502 0.00722492 0.07499518 0.08627451 0.01960784 0.83137255
v -0.00407283 0.00773301 0.02570489 0.08627451 0.01960784 0.83137255
v -0.00407048 0.00775296 0.02570489 0.08627451 0.01960784 0.83137255
v -0.00402584 0.00920564 0.02570489 0.08627451 0.01960784 0.83137255
v -0.00402819 0.00922559 0.02570489 0.08627451 0.01960784 0.83137255
v -0.00433947 0.01064541 0.02570489 0.08627451 0.01960784 0.83137255
v -0.00434652 0.01066536 0.02570489 0.08627451 0.01960784 0.83137255
v -0.00468833 0.01144802 0.07499518 0.08627451 0.01960784 0.83137255
v -0.00468833 0.00587198 0.07499518 0.08627451 0.01960784 0.83137255
v -0.00447807 0.00631553 0.02570489 0.08627451 0.01960784 0.83137255
v -0.00447103 0.00633431 0.02570489 0.08627451 0.01960784 0.83137255
v -0.00499491 0.01196667 0.02570489 0.08627451 0.01960784 0.83137255
v -0.00550940 0.01263786 0.07499518 0.08627451 0.01960784 0.83137255
v -0.00550940 0.00468215 0.07499518 0.08627451 0.01960784 0.83137255
v -0.00520517 0.00505646 0.02570489 0.08627451 0.01960784 0.83137255
v -0.00500666 0.01198310 0.02570489 0.08627451 0.01960784 0.83137255
v -0.00595223 0.01308728 0.02570489 0.08627451 0.01960784 0.83137255
v -0.00596750 0.01310136 0.02570489 0.08627451 0.01960784 0.83137255
v -0.00659240 0.01359771 0.07499518 0.08627451 0.01960784 0.83137255
v -0.00659240 0.00372347 0.07499518 0.08627451 0.01960784 0.83137255
v -0.00622827 0.00399570 0.02570489 0.08627451 0.01960784 0.83137255
v -0.00521692 0.00504004 0.02570489 0.08627451 0.01960784 0.83137255
v -0.00715388 0.01394034 0.02570489 0.08627451 0.01960784 0.83137255
v -0.00717150 0.01394973 0.02570489 0.08627451 0.01960784 0.83137255
v -0.00787275 0.01427007 0.07499518 0.08627451 0.01960784 0.83137255
v -0.00787275 0.00305111 0.07499518 0.08627451 0.01960784 0.83137255
v -0.00749804 0.00320834 0.02570489 0.08627451 0.01960784 0.83137255
v -0.00748042 0.00321773 0.02570489 0.08627451 0.01960784 0.83137255
v -0.00624354 0.00398279 0.02570489 0.08627451 0.01960784 0.83137255
v -0.00852819 0.01447542 0.02570489 0.08627451 0.01960784 0.83137255
v -0.00854699 0.01448011 0.02570489 0.08627451 0.01960784 0.83137255
v -0.00927760 0.01461623 0.07499518 0.08627451 0.01960784 0.83137255
v -0.00927760 0.00270495 0.07499518 0.08627451 0.01960784 0.83137255
v -0.00890290 0.00276245 0.02570489 0.08627451 0.01960784 0.83137255
v -0.00888410 0.00276714 0.02570489 0.08627451 0.01960784 0.83137255
v -0.00999060 0.01465964 0.02570489 0.08627451 0.01960784 0.83137255
v -0.01072240 0.01461623 0.07499518 0.08627451 0.01960784 0.83137255
v -0.01072240 0.00270495 0.07499518 0.08627451 0.01960784 0.83137255
v -0.01035356 0.00267210 0.02570489 0.08627451 0.01960784 0.83137255
v -0.01000940 0.01465964 0.02570489 0.08627451 0.01960784 0.83137255
v -0.01212725 0.01427007 0.07499518 0.08627451 0.01960784 0.83137255
v -0.01072240 0.01461623 0.02570489 0.08627451 0.01960784 0.83137255
v -0.01138019 0.01445430 0.02570489 0.08627451 0.01960784 0.83137255
v -0.01212725 0.00305111 0.07499518 0.08627451 0.01960784 0.83137255
v -0.01182302 0.00294433 0.02570489 0.08627451 0.01960784 0.83137255
v -0.01180305 0.00293963 0.02570489 0.08627451 0.01960784 0.83137255
v -0.01037353 0.00267210 0.02570489 0.08627451 0.01960784 0.83137255
v -0.01340760 0.01359771 0.07499518 0.08627451 0.01960784 0.83137255
v -0.01212725 0.01427007 0.02570489 0.08627451 0.01960784 0.83137255
v -0.01340760 0.00372347 0.07499518 0.08627451 0.01960784 0.83137255
v -0.01316210 0.00356154 0.02570489 0.08627451 0.01960784 0.83137255
v -0.01314330 0.00355215 0.02570489 0.08627451 0.01960784 0.83137255
v -0.01449060 0.01263786 0.07499518 0.08627451 0.01960784 0.83137255
v -0.01340760 0.01359771 0.02570489 0.08627451 0.01960784 0.83137255
v -0.01389272 0.01316824 0.02570489 0.08627451 0.01960784 0.83137255
v -0.01440016 0.01271883 0.02570489 0.08627451 0.01960784 0.83137255
v -0.01449060 0.00468215 0.07499518 0.08627451 0.01960784 0.83137255
v -0.01429444 0.00447328 0.02570489 0.08627451 0.01960784 0.83137255
v -0.01531167 0.01144802 0.07499518 0.08627451 0.01960784 0.83137255
v -0.01449060 0.01263786 0.02570489 0.08627451 0.01960784 0.83137255
v -0.01487588 0.01208049 0.02570489 0.08627451 0.01960784 0.83137255
v -0.01494401 0.01198192 0.02570489 0.08627451 0.01960784 0.83137255
v -0.01531167 0.00587198 0.07499518 0.08627451 0.01960784 0.83137255
v -0.01518598 0.00564669 0.02570489 0.08627451 0.01960784 0.83137255
v -0.01430971 0.00448736 0.02570489 0.08627451 0.01960784 0.83137255
v -0.01582498 0.01009508 0.07499518 0.08627451 0.01960784 0.83137255
v -0.01531167 0.01144802 0.02570489 0.08627451 0.01960784 0.83137255
v -0.01555247 0.01081438 0.02570489 0.08627451 0.01960784 0.83137255
v -0.01582498 0.00722492 0.07499518 0.08627451 0.01960784 0.83137255
v -0.01582498 0.00722492 0.02570489 0.08627451 0.01960784 0.83137255
v -0.01519773 0.00566429 0.02570489 0.08627451 0.01960784 0.83137255
v -0.01600000 0.00866118 0.07499518 0.08627451 0.01960784 0.83137255
v -0.01582498 0.01009508 0.02570489 0.08627451 0.01960784 0.83137255
v -0.01590720 0.00942272 0.02570489 0.08627451 0.01960784 0.83137255
v -0.01590368 0.00786795 0.02570489 0.08627451 0.01960784 0.83137255
v -0.01600000 0.00866118 0.02570489 0.08627451 0.01960784 0.83137255
f 564 565 573
f 564 573 578
f 564 578 584
f 564 584 590
f 564 590 597
f 564 597 602
f 564 602 606
f 564 606 613
f 564 613 618
f 564 618 624
f 564 624 631
f 564 631 637
f 564 637 634
f 564 634 628
f 564 628 622
f 564 622 615
f 564 615 609
f 564 609 603
f 564 603 598
f 564 598 591
f 564 591 585
f 564 585 579
f 564 579 574
f 564 574 566
f 564 566 567
f 564 567 568
f 564 568 569
f 564 569 570
f 564 570 565
f 565 570 571
f 565 571 572
f 565 572 573
f 566 574 575
f 566 575 576
f 566 576 567
f 567 576 575
f 567 575 580
f 567 580 587
f 567 587 586
f 567 586 594
f 567 594 593
f 567 593 592
f 567 592 600
f 567 600 599
f 567 599 604
f 567 604 612
f 567 612 611
f 567 611 610
f 567 610 617
f 567 617 616
f 567 616 623
f 567 623 630
f 567 630 629
f 567 629 636
f 567 636 635
f 567 635 640
f 567 640 641
f 567 641 639
f 567 639 638
f 567 638 633
f 567 633 632
f 567 632 627
f 567 627 626
f 567 626 625
f 567 625 621
f 567 621 620
f 567 620 619
f 567 619 614
f 567 614 608
f 567 608 607
f 567 607 605
f 567 605 601
f 567 601 596
f 567 596 595
f 567 595 589
f 567 589 588
f 567 588 583
f 567 583 582
f 567 582 581
f 567 581 577
f 567 577 572
f 567 572 571
f 567 571 570
f 567 570 569
f 567 569 568
f 572 577 573
f 573 577 578
f 574 579 580
f 574 580 575
f 577 581 578
f 578 581 582
f 578 582 583
f 578 583 584
f 579 585 586
f 579 586 587
f 579 587 580
f 583 588 584
f 584 588 589
f 584 589 590
f 585 591 592
f 585 592 593
f 585 593 594
f 585 594 586
f 589 595 590
f 590 595 596
f 590 596 597
f 591 598 599
f 591 599 600
f 591 600 592
f 596 601 597
f 597 601 605
f 597 605 602
f 598 603 612
f 598 612 604
f 598 604 599
f 602 605 607
f 602 607 608
f 602 608 606
f 603 609 610
f 603 610 611
f 603 611 612
f 606 608 614
f 606 614 619
f 606 619 613
f 609 615 616
f 609 616 617
f 609 617 610
f 613 619 620
f 613 620 621
f 613 621 618
f 615 622 623
f 615 623 616
f 618 621 625
f 618 625 626
f 618 626 627
f 618 627 624
f 622 628 629
f 622 629 630
f 622 630 623
f 624 627 632
f 624 632 633
f 624 633 631
f 628 634 635
f 628 635 636
f 628 636 629
f 631 633 638
f 631 638 639
f 631 639 637
f 634 637 640
f 634 640 635
f 637 639 641
f 637 641 640

o geometry_6
v 0.01346149 0.00265565 0.02499963 0.77647059 0.86666667 0.97647059
v 0.00083019 -0.00271908 0.02650200 0.77647059 0.86666667 0.97647059
v 0.00087236 -0.00272922 0.02650200 0.77647059 0.86666667 0.97647059
v 0.00224274 -0.00309610 0.02650200 0.77647059 0.86666667 0.97647059
v 0.00228228 -0.00311639 0.02650200 0.77647059 0.86666667 0.97647059
v 0.00352090 -0.00380450 0.02650200 0.77647059 0.86666667 0.97647059
v 0.00355516 -0.00383325 0.02650200 0.77647059 0.86666667 0.97647059
v 0.00459085 -0.00480032 0.02650200 0.77647059 0.86666667 0.97647059
v 0.00461721 -0.00483583 0.02650200 0.77647059 0.86666667 0.97647059
v 0.00538937 -0.00602439 0.02650200 0.77647059 0.86666667 0.97647059
v 0.00540518 -0.00606497 0.02650200 0.77647059 0.86666667 0.97647059
v 0.00586637 -0.00740569 0.02650200 0.77647059 0.86666667 0.97647059
v 0.00587164 -0.00744965 0.02650200 0.77647059 0.86666667 0.97647059
v 0.00599550 -0.00886307 0.02650200 0.77647059 0.86666667 0.97647059
v 0.00599023 -0.00890534 0.02650200 0.77647059 0.86666667 0.97647059
v 0.00576886 -0.01030692 0.02650200 0.77647059 0.86666667 0.97647059
v 0.00575305 -0.01034750 0.02650200 0.77647059 0.86666667 0.97647059
v 0.00519962 -0.01165272 0.02650200 0.77647059 0.86666667 0.97647059
v 0.01346149 0.00265565 0.02000005 0.77647059 0.86666667 0.97647059
v -0.01346139 0.00265565 0.02499963 0.77647059 0.86666667 0.97647059
v -0.00058500 -0.00269372 0.02650200 0.77647059 0.86666667 0.97647059
v 0.00511266 -0.01177445 0.02650200 0.77647059 0.86666667 0.97647059
v 0.00519435 -0.01165948 0.01996871 0.77647059 0.86666667 0.97647059
v 0.00576623 -0.01031369 0.01996871 0.77647059 0.86666667 0.97647059
v 0.00599550 -0.00886814 0.01996871 0.77647059 0.86666667 0.97647059
v 0.00586637 -0.00741245 0.01996871 0.77647059 0.86666667 0.97647059
v 0.00539200 -0.00602946 0.01996871 0.77647059 0.86666667 0.97647059
v 0.00459612 -0.00480371 0.01996871 0.77647059 0.86666667 0.97647059
v 0.00352617 -0.00380619 0.01996871 0.77647059 0.86666667 0.97647059
v 0.00224538 -0.00309779 0.01996871 0.77647059 0.86666667 0.97647059
v 0.00083546 -0.00271908 0.01996871 0.77647059 0.86666667 0.97647059
v -0.00062453 -0.00269372 0.01996871 0.77647059 0.86666667 0.97647059
v -0.01346139 0.00265565 0.02000005 0.77647059 0.86666667 0.97647059
v -0.00519952 -0.01165272 0.02650200 0.77647059 0.86666667 0.97647059
v -0.00562645 -0.01073298 0.02650200 0.77647059 0.86666667 0.97647059
v -0.00564226 -0.01069240 0.02650200 0.77647059 0.86666667 0.97647059
v -0.00590580 -0.00971349 0.02650200 0.77647059 0.86666667 0.97647059
v -0.00591107 -0.00966953 0.02650200 0.77647059 0.86666667 0.97647059
v -0.00599804 -0.00866019 0.02650200 0.77647059 0.86666667 0.97647059
v -0.00599277 -0.00861623 0.02650200 0.77647059 0.86666667 0.97647059
v -0.00582147 -0.00720788 0.02650200 0.77647059 0.86666667 0.97647059
v -0.00529703 -0.00584517 0.02650200 0.77647059 0.86666667 0.97647059
v -0.00527331 -0.00580967 0.02650200 0.77647059 0.86666667 0.97647059
v -0.00445899 -0.00464816 0.02650200 0.77647059 0.86666667 0.97647059
v -0.00335477 -0.00368785 0.02650200 0.77647059 0.86666667 0.97647059
v -0.00331787 -0.00366756 0.02650200 0.77647059 0.86666667 0.97647059
v -0.00205290 -0.00302340 0.02650200 0.77647059 0.86666667 0.97647059
v -0.00201073 -0.00301326 0.02650200 0.77647059 0.86666667 0.97647059
v -0.00062980 -0.00269372 0.02650200 0.77647059 0.86666667 0.97647059
v 0.00502042 -0.01190294 0.01996871 0.77647059 0.86666667 0.97647059
v 0.00449071 -0.01263839 0.02650200 0.77647059 0.86666667 0.97647059
v -0.00205026 -0.00302340 0.01996871 0.77647059 0.86666667 0.97647059
v -0.00335213 -0.00368616 0.01996871 0.77647059 0.86666667 0.97647059
v -0.00445635 -0.00464647 0.01996871 0.77647059 0.86666667 0.97647059
v -0.00529703 -0.00584348 0.01996871 0.77647059 0.86666667 0.97647059
v -0.00582147 -0.00720788 0.01996871 0.77647059 0.86666667 0.97647059
v -0.00599804 -0.00866019 0.01996871 0.77647059 0.86666667 0.97647059
v -0.00590843 -0.00969996 0.01996871 0.77647059 0.86666667 0.97647059
v -0.00563699 -0.01071100 0.01996871 0.77647059 0.86666667 0.97647059
v -0.00519425 -0.01165948 0.01996871 0.77647059 0.86666667 0.97647059
v -0.00511256 -0.01177445 0.02650200 0.77647059 0.86666667 0.97647059
v 0.00449071 -0.01263839 0.01996871 0.77647059 0.86666667 0.97647059
v 0.00340758 -0.01359702 0.02650200 0.77647059 0.86666667 0.97647059
v -0.00449061 -0.01263839 0.01996871 0.77647059 0.86666667 0.97647059
v -0.00460657 -0.01247778 0.02650200 0.77647059 0.86666667 0.97647059
v 0.00340758 -0.01359702 0.01996871 0.77647059 0.86666667 0.97647059
v 0.00324682 -0.01368155 0.01996871 0.77647059 0.86666667 0.97647059
v 0.00212679 -0.01426992 0.02650200 0.77647059 0.86666667 0.97647059
v -0.00340747 -0.01359702 0.01996871 0.77647059 0.86666667 0.97647059
v -0.00349708 -0.01351925 0.02650200 0.77647059 0.86666667 0.97647059
v -0.00449061 -0.01263839 0.02650200 0.77647059 0.86666667 0.97647059
v 0.00212679 -0.01426992 0.01996871 0.77647059 0.86666667 0.97647059
v 0.00072214 -0.01461651 0.02650200 0.77647059 0.86666667 0.97647059
v -0.00340747 -0.01359702 0.02650200 0.77647059 0.86666667 0.97647059
v -0.00292520 -0.01385063 0.01996871 0.77647059 0.86666667 0.97647059
v 0.00072214 -0.01461651 0.01996871 0.77647059 0.86666667 0.97647059
v -0.00072204 -0.01461651 0.02650200 0.77647059 0.86666667 0.97647059
v -0.00212669 -0.01426992 0.02650200 0.77647059 0.86666667 0.97647059
v -0.00215568 -0.01425470 0.01996871 0.77647059 0.86666667 0.97647059
v -0.00072204 -0.01461651 0.01996871 0.77647059 0.86666667 0.97647059
v -0.00212669 -0.01426992 0.01996871 0.77647059 0.86666667 0.97647059
f 642 643 644
f 642 644 645
f 642 645 646
f 642 646 647
f 642 647 648
f 642 648 649
f 642 649 650
f 642 650 651
f 642 651 652
f 642 652 653
f 642 653 654
f 642 654 655
f 642 655 656
f 642 656 657
f 642 657 658
f 642 658 659
f 642 659 660
f 642 660 674
f 642 674 661
f 642 661 690
f 642 690 662
f 642 662 643
f 643 662 690
f 643 690 689
f 643 689 688
f 643 688 687
f 643 687 686
f 643 686 685
f 643 685 684
f 643 684 683
f 643 683 682
f 643 682 681
f 643 681 680
f 643 680 679
f 643 679 678
f 643 678 677
f 643 677 676
f 643 676 675
f 643 675 702
f 643 702 706
f 643 706 712
f 643 712 711
f 643 711 715
f 643 715 719
f 643 719 718
f 643 718 714
f 643 714 709
f 643 709 704
f 643 704 692
f 643 692 663
f 643 663 659
f 643 659 658
f 643 658 657
f 643 657 656
f 643 656 655
f 643 655 654
f 643 654 653
f 643 653 652
f 643 652 651
f 643 651 650
f 643 650 649
f 643 649 648
f 643 648 647
f 643 647 646
f 643 646 645
f 643 645 644
f 659 663 691
f 659 691 664
f 659 664 660
f 660 664 665
f 660 665 666
f 660 666 667
f 660 667 668
f 660 668 669
f 660 669 670
f 660 670 671
f 660 671 672
f 660 672 673
f 660 673 674
f 661 674 675
f 661 675 676
f 661 676 677
f 661 677 678
f 661 678 679
f 661 679 680
f 661 680 681
f 661 681 682
f 661 682 683
f 661 683 684
f 661 684 685
f 661 685 686
f 661 686 687
f 661 687 688
f 661 688 689
f 661 689 690
f 663 692 691
f 664 691 703
f 664 703 707
f 664 707 708
f 664 708 713
f 664 713 717
f 664 717 721
f 664 721 722
f 664 722 720
f 664 720 716
f 664 716 710
f 664 710 705
f 664 705 701
f 664 701 700
f 664 700 699
f 664 699 698
f 664 698 697
f 664 697 696
f 664 696 695
f 664 695 694
f 664 694 693
f 664 693 673
f 664 673 672
f 664 672 671
f 664 671 670
f 664 670 669
f 664 669 668
f 664 668 667
f 664 667 666
f 664 666 665
f 673 693 674
f 674 693 694
f 674 694 695
f 674 695 696
f 674 696 697
f 674 697 698
f 674 698 699
f 674 699 700
f 674 700 701
f 674 701 675
f 675 701 702
f 691 692 703
f 692 704 707
f 692 707 703
f 701 705 702
f 702 705 706
f 704 708 707
f 704 709 708
f 705 710 711
f 705 711 712
f 705 712 706
f 708 709 713
f 709 714 717
f 709 717 713
f 710 715 711
f 710 716 715
f 714 718 721
f 714 721 717
f 715 716 719
f 716 720 719
f 718 719 722
f 718 722 721
f 719 720 722

o geometry_7
v -0.00400044 0.00866829 -0.03404791 0.79607843 0.45882353 0.78039216
v -0.00400162 0.00864482 -0.03404791 0.79607843 0.45882353 0.78039216
v -0.00417193 0.01008003 -0.03404791 0.79607843 0.45882353 0.78039216
v -0.00400867 0.00883376 -0.01772999 0.79607843 0.45882353 0.78039216
v -0.00402746 0.00921398 0.01997147 0.79607843 0.45882353 0.78039216
v -0.00407209 0.00774122 0.01997147 0.79607843 0.45882353 0.78039216
v -0.00402276 0.00837257 -0.01772999 0.79607843 0.45882353 0.78039216
v -0.00416606 0.00728825 -0.03404791 0.79607843 0.45882353 0.78039216
v -0.00417781 0.01010467 -0.03404791 0.79607843 0.45882353 0.78039216
v -0.00422714 0.01027014 -0.01772999 0.79607843 0.45882353 0.78039216
v -0.00434225 0.01065270 0.01997147 0.79607843 0.45882353 0.78039216
v -0.00447615 0.00632362 0.01997147 0.79607843 0.45882353 0.78039216
v -0.00426942 0.00694206 -0.01772999 0.79607843 0.45882353 0.78039216
v -0.00417311 0.00723426 -0.03404791 0.79607843 0.45882353 0.78039216
v -0.00419660 0.01015631 -0.03404791 0.79607843 0.45882353 0.78039216
v -0.00478507 0.01161263 -0.01772999 0.79607843 0.45882353 0.78039216
v -0.00499884 0.01197290 0.01997147 0.79607843 0.45882353 0.78039216
v -0.00468170 0.01143426 -0.03404791 0.79607843 0.45882353 0.78039216
v -0.00521261 0.00504567 0.01997147 0.79607843 0.45882353 0.78039216
v -0.00462062 0.00601381 -0.01772999 0.79607843 0.45882353 0.78039216
v -0.00418015 0.00721079 -0.03404791 0.79607843 0.45882353 0.78039216
v -0.00469345 0.01145655 -0.03404791 0.79607843 0.45882353 0.78039216
v -0.00472399 0.01150232 -0.03404791 0.79607843 0.45882353 0.78039216
v -0.00595848 0.01309360 0.01997147 0.79607843 0.45882353 0.78039216
v -0.00534887 0.01242939 -0.01772999 0.79607843 0.45882353 0.78039216
v -0.00623920 0.00398716 0.01997147 0.79607843 0.45882353 0.78039216
v -0.00573883 0.00446361 -0.01772999 0.79607843 0.45882353 0.78039216
v -0.00541582 0.00479688 -0.01772999 0.79607843 0.45882353 0.78039216
v -0.00485202 0.00561365 -0.01772999 0.79607843 0.45882353 0.78039216
v -0.00468405 0.00588121 -0.03404791 0.79607843 0.45882353 0.78039216
v -0.00550156 0.01262537 -0.03404791 0.79607843 0.45882353 0.78039216
v -0.00677129 0.01370735 -0.01772999 0.79607843 0.45882353 0.78039216
v -0.00716243 0.01394557 0.01997147 0.79607843 0.45882353 0.78039216
v -0.00565073 0.01278145 -0.01772999 0.79607843 0.45882353 0.78039216
v -0.00658101 0.01358882 -0.03404791 0.79607843 0.45882353 0.78039216
v -0.00551801 0.01264532 -0.03404791 0.79607843 0.45882353 0.78039216
v -0.00749248 0.00321030 0.01997147 0.79607843 0.45882353 0.78039216
v -0.00648234 0.00380527 -0.01772999 0.79607843 0.45882353 0.78039216
v -0.00654459 0.00376419 -0.03404791 0.79607843 0.45882353 0.78039216
v -0.00552271 0.00467014 -0.03404791 0.79607843 0.45882353 0.78039216
v -0.00550509 0.00468892 -0.03404791 0.79607843 0.45882353 0.78039216
v -0.00469697 0.00585891 -0.03404791 0.79607843 0.45882353 0.78039216
v -0.00764988 0.01416854 -0.01772999 0.79607843 0.45882353 0.78039216
v -0.00660215 0.01360290 -0.03404791 0.79607843 0.45882353 0.78039216
v -0.00665031 0.01362872 -0.03404791 0.79607843 0.45882353 0.78039216
v -0.00853786 0.01447834 0.01997147 0.79607843 0.45882353 0.78039216
v -0.00889729 0.00276319 0.01997147 0.79607843 0.45882353 0.78039216
v -0.00819489 0.00296034 -0.01772999 0.79607843 0.45882353 0.78039216
v -0.00789184 0.00304601 -0.03404791 0.79607843 0.45882353 0.78039216
v -0.00775442 0.00310116 -0.01772999 0.79607843 0.45882353 0.78039216
v -0.00786718 0.00305422 -0.03404791 0.79607843 0.45882353 0.78039216
v -0.00687465 0.00356235 -0.01772999 0.79607843 0.45882353 0.78039216
v -0.00660802 0.00371491 -0.03404791 0.79607843 0.45882353 0.78039216
v -0.00658570 0.00372899 -0.03404791 0.79607843 0.45882353 0.78039216
v -0.00786130 0.01426359 -0.03404791 0.79607843 0.45882353 0.78039216
v -0.00808095 0.01433518 -0.01772999 0.79607843 0.45882353 0.78039216
v -0.00950455 0.01462973 -0.01772999 0.79607843 0.45882353 0.78039216
v -0.01000022 0.01466024 0.01997147 0.79607843 0.45882353 0.78039216
v -0.00926493 0.01461330 -0.03404791 0.79607843 0.45882353 0.78039216
v -0.01036904 0.00267166 0.01997147 0.79607843 0.45882353 0.78039216
v -0.00962083 0.00269395 -0.01772999 0.79607843 0.45882353 0.78039216
v -0.00927080 0.00270569 -0.03404791 0.79607843 0.45882353 0.78039216
v -0.00921795 0.00271860 -0.03404791 0.79607843 0.45882353 0.78039216
v -0.00788597 0.01427298 -0.03404791 0.79607843 0.45882353 0.78039216
v -0.01049472 0.01462973 -0.01772999 0.79607843 0.45882353 0.78039216
v -0.00928960 0.01461564 -0.03404791 0.79607843 0.45882353 0.78039216
v -0.01069205 0.01461682 0.01997147 0.79607843 0.45882353 0.78039216
v -0.01072142 0.01461564 -0.01772999 0.79607843 0.45882353 0.78039216
v -0.01181848 0.00294274 0.01997147 0.79607843 0.45882353 0.78039216
v -0.01061101 0.00269395 -0.01772999 0.79607843 0.45882353 0.78039216
v -0.00929665 0.00270451 -0.03404791 0.79607843 0.45882353 0.78039216
v -0.01072142 0.01461564 -0.03404791 0.79607843 0.45882353 0.78039216
v -0.01072142 0.01461447 0.01997147 0.79607843 0.45882353 0.78039216
v -0.01142382 0.01444314 0.01997147 0.79607843 0.45882353 0.78039216
v -0.01094224 0.01456166 -0.01772999 0.79607843 0.45882353 0.78039216
v -0.01315751 0.00356000 0.01997147 0.79607843 0.45882353 0.78039216
v -0.01202990 0.00301667 -0.01772999 0.79607843 0.45882353 0.78039216
v -0.01106675 0.00277962 -0.01772999 0.79607843 0.45882353 0.78039216
v -0.01071554 0.00270451 -0.03404791 0.79607843 0.45882353 0.78039216
v -0.01212622 0.01426828 -0.03404791 0.79607843 0.45882353 0.78039216
v -0.01212739 0.01426946 -0.01772999 0.79607843 0.45882353 0.78039216
v -0.01212739 0.01426946 0.01997147 0.79607843 0.45882353 0.78039216
v -0.01430625 0.00448473 0.01997147 0.79607843 0.45882353 0.78039216
v -0.01368959 0.00396134 -0.01772999 0.79607843 0.45882353 0.78039216
v -0.01332900 0.00367149 -0.01772999 0.79607843 0.45882353 0.78039216
v -0.01244923 0.00321030 -0.01772999 0.79607843 0.45882353 0.78039216
v -0.01214384 0.00306009 -0.03404791 0.79607843 0.45882353 0.78039216
v -0.01212035 0.00304953 -0.03404791 0.79607843 0.45882353 0.78039216
v -0.01079307 0.00272212 -0.03404791 0.79607843 0.45882353 0.78039216
v -0.01074021 0.00270921 -0.03404791 0.79607843 0.45882353 0.78039216
v -0.01213679 0.01426359 -0.03404791 0.79607843 0.45882353 0.78039216
v -0.01340769 0.01359704 -0.03404791 0.79607843 0.45882353 0.78039216
v -0.01276637 0.01393383 0.01997147 0.79607843 0.45882353 0.78039216
v -0.01340769 0.01359704 -0.01772999 0.79607843 0.45882353 0.78039216
v -0.01519541 0.00566293 0.01997147 0.79607843 0.45882353 0.78039216
v -0.01471148 0.00498934 -0.01772999 0.79607843 0.45882353 0.78039216
v -0.01443193 0.00461968 -0.01772999 0.79607843 0.45882353 0.78039216
v -0.01346407 0.00377241 -0.03404791 0.79607843 0.45882353 0.78039216
v -0.01342296 0.00373720 -0.03404791 0.79607843 0.45882353 0.78039216
v -0.01340299 0.00372077 -0.03404791 0.79607843 0.45882353 0.78039216
v -0.01345820 0.01355244 -0.03404791 0.79607843 0.45882353 0.78039216
v -0.01340769 0.01359586 0.01997147 0.79607843 0.45882353 0.78039216
v -0.01394918 0.01311825 0.01997147 0.79607843 0.45882353 0.78039216
v -0.01533519 0.00600795 0.01997147 0.79607843 0.45882353 0.78039216
v -0.01531052 0.00586947 -0.03404791 0.79607843 0.45882353 0.78039216
v -0.01527528 0.00580610 -0.01772999 0.79607843 0.45882353 0.78039216
v -0.01453294 0.00474525 -0.03404791 0.79607843 0.45882353 0.78039216
v -0.01450123 0.00469948 -0.03404791 0.79607843 0.45882353 0.78039216
v -0.01448596 0.00467953 -0.03404791 0.79607843 0.45882353 0.78039216
v -0.01448948 0.01263710 -0.03404791 0.79607843 0.45882353 0.78039216
v -0.01448948 0.01263828 -0.01772999 0.79607843 0.45882353 0.78039216
v -0.01448948 0.01263828 0.01997147 0.79607843 0.45882353 0.78039216
v -0.01582499 0.00722605 0.01997147 0.79607843 0.45882353 0.78039216
v -0.01582499 0.00722605 -0.03404791 0.79607843 0.45882353 0.78039216
v -0.01531169 0.01144717 -0.03404791 0.79607843 0.45882353 0.78039216
v -0.01531169 0.01144834 -0.01772999 0.79607843 0.45882353 0.78039216
v -0.01531169 0.01144834 0.01997147 0.79607843 0.45882353 0.78039216
v -0.01600000 0.00866243 0.01997147 0.79607843 0.45882353 0.78039216
v -0.01600000 0.00866125 -0.01772999 0.79607843 0.45882353 0.78039216
v -0.01600000 0.00866125 -0.03404791 0.79607843 0.45882353 0.78039216
v -0.01531639 0.01143543 -0.03404791 0.79607843 0.45882353 0.78039216
v -0.01539274 0.01123593 -0.01772999 0.79607843 0.45882353 0.78039216
v -0.01582499 0.01009528 0.01997147 0.79607843 0.45882353 0.78039216
v -0.01600000 0.00866243 -0.01772999 0.79607843 0.45882353 0.78039216
v -0.01582499 0.01009528 -0.03404791 0.79607843 0.45882353 0.78039216
f 723 724 730
f 723 730 736
f 723 736 743
f 723 743 752
f 723 752 764
f 723 764 763
f 723 763 762
f 723 762 761
f 723 761 776
f 723 776 775
f 723 775 773
f 723 773 771
f 723 771 785
f 723 785 784
f 723 784 793
f 723 793 801
f 723 801 812
f 723 812 811
f 723 811 810
f 723 810 809
f 723 809 822
f 723 822 821
f 723 821 820
f 723 820 831
f 723 831 830
f 723 830 829
f 723 829 827
f 723 827 836
f 723 836 842
f 723 842 847
f 723 847 843
f 723 843 837
f 723 837 832
f 723 832 823
f 723 823 814
f 723 814 813
f 723 813 802
f 723 802 794
f 723 794 788
f 723 788 781
f 723 781 786
f 723 786 777
f 723 777 767
f 723 767 766
f 723 766 757
f 723 757 758
f 723 758 753
f 723 753 745
f 723 745 744
f 723 744 740
f 723 740 737
f 723 737 731
f 723 731 725
f 723 725 726
f 723 726 727
f 723 727 728
f 723 728 729
f 723 729 724
f 724 729 730
f 725 731 732
f 725 732 733
f 725 733 727
f 725 727 726
f 727 733 739
f 727 739 746
f 727 746 755
f 727 755 768
f 727 768 780
f 727 780 789
f 727 789 795
f 727 795 796
f 727 796 804
f 727 804 815
f 727 815 824
f 727 824 825
f 727 825 834
f 727 834 839
f 727 839 845
f 727 845 840
f 727 840 835
f 727 835 826
f 727 826 817
f 727 817 805
f 727 805 798
f 727 798 791
f 727 791 782
f 727 782 769
f 727 769 759
f 727 759 748
f 727 748 741
f 727 741 734
f 727 734 728
f 728 734 735
f 728 735 736
f 728 736 730
f 728 730 729
f 731 737 732
f 732 737 733
f 733 738 739
f 733 737 740
f 733 740 738
f 734 741 742
f 734 742 735
f 735 742 743
f 735 743 736
f 738 740 744
f 738 744 745
f 738 745 739
f 739 745 747
f 739 747 746
f 741 748 749
f 741 749 750
f 741 750 751
f 741 751 742
f 742 751 752
f 742 752 743
f 745 753 747
f 746 754 755
f 746 747 756
f 746 756 757
f 746 757 754
f 747 753 758
f 747 758 756
f 748 759 760
f 748 760 761
f 748 761 749
f 749 761 762
f 749 762 750
f 750 762 763
f 750 763 764
f 750 764 751
f 751 764 752
f 754 765 755
f 754 757 766
f 754 766 767
f 754 767 765
f 755 765 768
f 756 758 757
f 759 769 770
f 759 770 771
f 759 771 772
f 759 772 773
f 759 773 774
f 759 774 760
f 760 774 775
f 760 775 776
f 760 776 761
f 765 767 777
f 765 777 778
f 765 778 768
f 768 779 780
f 768 778 781
f 768 781 779
f 769 782 783
f 769 783 784
f 769 784 785
f 769 785 770
f 770 785 771
f 771 773 772
f 773 775 774
f 777 786 778
f 778 786 781
f 779 787 780
f 779 781 788
f 779 788 794
f 779 794 787
f 780 787 790
f 780 790 789
f 782 791 792
f 782 792 783
f 783 792 801
f 783 801 793
f 783 793 784
f 787 794 790
f 789 790 795
f 790 796 795
f 790 794 797
f 790 797 796
f 791 798 799
f 791 799 800
f 791 800 792
f 792 800 801
f 794 802 803
f 794 803 797
f 796 797 803
f 796 803 804
f 798 805 806
f 798 806 807
f 798 807 808
f 798 808 799
f 799 808 809
f 799 809 810
f 799 810 811
f 799 811 800
f 800 811 812
f 800 812 801
f 802 813 803
f 803 813 814
f 803 814 816
f 803 816 804
f 804 816 815
f 805 817 818
f 805 818 819
f 805 819 806
f 806 819 820
f 806 820 821
f 806 821 822
f 806 822 807
f 807 822 809
f 807 809 808
f 814 823 816
f 815 816 824
f 816 823 825
f 816 825 824
f 817 826 827
f 817 827 828
f 817 828 818
f 818 828 827
f 818 827 829
f 818 829 830
f 818 830 819
f 819 830 831
f 819 831 820
f 823 832 833
f 823 833 825
f 825 833 834
f 826 835 827
f 827 835 836
f 832 837 838
f 832 838 833
f 833 838 839
f 833 839 834
f 835 840 841
f 835 841 842
f 835 842 836
f 837 843 838
f 838 844 839
f 838 843 844
f 839 844 845
f 840 845 847
f 840 847 846
f 840 846 842
f 840 842 841
f 842 846 847
f 843 847 844
f 844 847 845

o geometry_8
v 0.01600000 0.00866069 0.07499520 0.11764706 0.63921569 0.14117647
v 0.01582498 0.01009503 0.07499520 0.11764706 0.63921569 0.14117647
v 0.01582498 0.00722517 0.07499520 0.11764706 0.63921569 0.14117647
v 0.01600000 0.00866069 0.02598488 0.11764706 0.63921569 0.14117647
v 0.01582498 0.01009503 0.02598488 0.11764706 0.63921569 0.14117647
v 0.01559710 0.01069854 0.02598488 0.11764706 0.63921569 0.14117647
v 0.01531167 0.01144852 0.07499520 0.11764706 0.63921569 0.14117647
v 0.01531167 0.00587285 0.07499520 0.11764706 0.63921569 0.14117647
v 0.01582498 0.00722517 0.02598488 0.11764706 0.63921569 0.14117647
v 0.01535513 0.01133603 0.02598488 0.11764706 0.63921569 0.14117647
v 0.01531167 0.01144852 0.02598488 0.11764706 0.63921569 0.14117647
v 0.01485709 0.01210828 0.02598488 0.11764706 0.63921569 0.14117647
v 0.01449060 0.01263795 0.07499520 0.11764706 0.63921569 0.14117647
v 0.01449060 0.00468225 0.07499520 0.11764706 0.63921569 0.14117647
v 0.01519773 0.00566543 0.02598488 0.11764706 0.63921569 0.14117647
v 0.01520830 0.00569121 0.02598488 0.11764706 0.63921569 0.14117647
v 0.01526468 0.00583066 0.02598488 0.11764706 0.63921569 0.14117647
v 0.01449060 0.01263795 0.02598488 0.11764706 0.63921569 0.14117647
v 0.01389037 0.01316997 0.02598488 0.11764706 0.63921569 0.14117647
v 0.01340760 0.01359770 0.07499520 0.11764706 0.63921569 0.14117647
v 0.01340760 0.00372250 0.07499520 0.11764706 0.63921569 0.14117647
v 0.01432381 0.00450413 0.02598488 0.11764706 0.63921569 0.14117647
v 0.01434495 0.00452405 0.02598488 0.11764706 0.63921569 0.14117647
v 0.01518129 0.00564200 0.02598488 0.11764706 0.63921569 0.14117647
v 0.01340760 0.01359770 0.02598488 0.11764706 0.63921569 0.14117647
v 0.01212725 0.01427034 0.07499520 0.11764706 0.63921569 0.14117647
v 0.01212725 0.00305103 0.07499520 0.11764706 0.63921569 0.14117647
v 0.01322083 0.00360180 0.02598488 0.11764706 0.63921569 0.14117647
v 0.01324667 0.00361586 0.02598488 0.11764706 0.63921569 0.14117647
v 0.01212725 0.01427034 0.02598488 0.11764706 0.63921569 0.14117647
v 0.01072240 0.01461604 0.07499520 0.11764706 0.63921569 0.14117647
v 0.01072240 0.00270416 0.07499520 0.11764706 0.63921569 0.14117647
v 0.01193696 0.00298541 0.02598488 0.11764706 0.63921569 0.14117647
v 0.01196515 0.00299244 0.02598488 0.11764706 0.63921569 0.14117647
v 0.01072240 0.01461604 0.02598488 0.11764706 0.63921569 0.14117647
v 0.00927760 0.01461604 0.07499520 0.11764706 0.63921569 0.14117647
v 0.01001410 0.01465940 0.02598488 0.11764706 0.63921569 0.14117647
v 0.00927760 0.00270416 0.07499520 0.11764706 0.63921569 0.14117647
v 0.01057322 0.00268776 0.02598488 0.11764706 0.63921569 0.14117647
v 0.00787275 0.01427034 0.07499520 0.11764706 0.63921569 0.14117647
v 0.00998591 0.01465940 0.02598488 0.11764706 0.63921569 0.14117647
v 0.00867737 0.01451174 0.02598488 0.11764706 0.63921569 0.14117647
v 0.00787275 0.00305103 0.07499520 0.11764706 0.63921569 0.14117647
v 0.00914957 0.00272174 0.02598488 0.11764706 0.63921569 0.14117647
v 0.01054385 0.00268776 0.02598488 0.11764706 0.63921569 0.14117647
v 0.00659240 0.01359770 0.07499520 0.11764706 0.63921569 0.14117647
v 0.00865035 0.01450471 0.02598488 0.11764706 0.63921569 0.14117647
v 0.00740642 0.01406996 0.02598488 0.11764706 0.63921569 0.14117647
v 0.00659240 0.00372250 0.07499520 0.11764706 0.63921569 0.14117647
v 0.00774706 0.00310259 0.02598488 0.11764706 0.63921569 0.14117647
v 0.00777291 0.00308970 0.02598488 0.11764706 0.63921569 0.14117647
v 0.00912138 0.00272877 0.02598488 0.11764706 0.63921569 0.14117647
v 0.00550940 0.01263795 0.07499520 0.11764706 0.63921569 0.14117647
v 0.00738175 0.01405589 0.02598488 0.11764706 0.63921569 0.14117647
v 0.00626586 0.01335513 0.02598488 0.11764706 0.63921569 0.14117647
v 0.00550940 0.00468225 0.07499520 0.11764706 0.63921569 0.14117647
v 0.00652193 0.00377289 0.02598488 0.11764706 0.63921569 0.14117647
v 0.00468833 0.01144852 0.07499520 0.11764706 0.63921569 0.14117647
v 0.00624471 0.01333638 0.02598488 0.11764706 0.63921569 0.14117647
v 0.00531323 0.01240475 0.02598488 0.11764706 0.63921569 0.14117647
v 0.00468833 0.00587285 0.07499520 0.11764706 0.63921569 0.14117647
v 0.00545067 0.00475373 0.02598488 0.11764706 0.63921569 0.14117647
v 0.00546711 0.00473029 0.02598488 0.11764706 0.63921569 0.14117647
v 0.00650078 0.00379164 0.02598488 0.11764706 0.63921569 0.14117647
v 0.00417502 0.01009503 0.07499520 0.11764706 0.63921569 0.14117647
v 0.00529796 0.01238132 0.02598488 0.11764706 0.63921569 0.14117647
v 0.00459671 0.01126689 0.02598488 0.11764706 0.63921569 0.14117647
v 0.00458614 0.01123993 0.02598488 0.11764706 0.63921569 0.14117647
v 0.00417502 0.00722517 0.07499520 0.11764706 0.63921569 0.14117647
v 0.00465779 0.00593730 0.02598488 0.11764706 0.63921569 0.14117647
v 0.00466836 0.00591035 0.02598488 0.11764706 0.63921569 0.14117647
v 0.00400000 0.00866069 0.07499520 0.11764706 0.63921569 0.14117647
v 0.00415153 0.00999660 0.02598488 0.11764706 0.63921569 0.14117647
v 0.00414800 0.00996847 0.02598488 0.11764706 0.63921569 0.14117647
v 0.00416680 0.00727439 0.02598488 0.11764706 0.63921569 0.14117647
v 0.00417032 0.00724626 0.02598488 0.11764706 0.63921569 0.14117647
v 0.00400000 0.00866069 0.02598488 0.11764706 0.63921569 0.14117647
f 848 849 854
f 848 854 860
f 848 860 867
f 848 867 873
f 848 873 878
f 848 878 883
f 848 883 887
f 848 887 893
f 848 893 900
f 848 900 905
f 848 905 912
f 848 912 919
f 848 919 916
f 848 916 908
f 848 908 903
f 848 903 896
f 848 896 890
f 848 890 885
f 848 885 879
f 848 879 874
f 848 874 868
f 848 868 861
f 848 861 855
f 848 855 850
f 848 850 856
f 848 856 851
f 848 851 852
f 848 852 849
f 849 852 853
f 849 853 854
f 850 855 856
f 851 856 864
f 851 864 863
f 851 863 862
f 851 862 871
f 851 871 870
f 851 870 869
f 851 869 876
f 851 876 875
f 851 875 881
f 851 881 880
f 851 880 886
f 851 886 892
f 851 892 891
f 851 891 899
f 851 899 898
f 851 898 897
f 851 897 904
f 851 904 911
f 851 911 910
f 851 910 909
f 851 909 918
f 851 918 917
f 851 917 923
f 851 923 922
f 851 922 924
f 851 924 921
f 851 921 920
f 851 920 915
f 851 915 914
f 851 914 913
f 851 913 907
f 851 907 906
f 851 906 902
f 851 902 901
f 851 901 895
f 851 895 894
f 851 894 889
f 851 889 888
f 851 888 884
f 851 884 882
f 851 882 877
f 851 877 872
f 851 872 866
f 851 866 865
f 851 865 859
f 851 859 858
f 851 858 857
f 851 857 853
f 851 853 852
f 853 857 854
f 854 857 858
f 854 858 859
f 854 859 860
f 855 861 862
f 855 862 863
f 855 863 864
f 855 864 856
f 859 865 860
f 860 865 866
f 860 866 867
f 861 868 869
f 861 869 870
f 861 870 871
f 861 871 862
f 866 872 867
f 867 872 877
f 867 877 873
f 868 874 875
f 868 875 876
f 868 876 869
f 873 877 882
f 873 882 878
f 874 879 880
f 874 880 881
f 874 881 875
f 878 882 884
f 878 884 888
f 878 888 883
f 879 885 892
f 879 892 886
f 879 886 880
f 883 888 889
f 883 889 887
f 885 890 891
f 885 891 892
f 887 889 894
f 887 894 895
f 887 895 893
f 890 896 897
f 890 897 898
f 890 898 899
f 890 899 891
f 893 895 901
f 893 901 902
f 893 902 900
f 896 903 904
f 896 904 897
f 900 902 906
f 900 906 907
f 900 907 905
f 903 908 909
f 903 909 910
f 903 910 911
f 903 911 904
f 905 907 913
f 905 913 914
f 905 914 915
f 905 915 912
f 908 916 917
f 908 917 918
f 908 918 909
f 912 915 920
f 912 920 921
f 912 921 919
f 916 919 922
f 916 922 923
f 916 923 917
f 919 921 924
f 919 924 922