# https://github.com/mikedh/trimesh
v 0.02014772 -0.00067801 0.05000000 0.54509804 0.71372549 0.60000000
v 0.02004911 0.00212865 0.05000000 0.54509804 0.71372549 0.60000000
v 0.01985190 -0.00347285 0.05000000 0.54509804 0.71372549 0.60000000
v 0.02014772 -0.00067801 -0.07500000 0.54509804 0.71372549 0.60000000
v 0.02004911 0.00212865 -0.07500000 0.54509804 0.71372549 0.60000000
v 0.01956001 0.00489984 0.05000000 0.54509804 0.71372549 0.60000000
v 0.01916952 -0.00620462 0.05000000 0.54509804 0.71372549 0.60000000
v 0.01985190 -0.00347285 -0.07500000 0.54509804 0.71372549 0.60000000
v 0.01956001 0.00489984 -0.07500000 0.54509804 0.71372549 0.60000000
v 0.01868831 0.00757642 0.05000000 0.54509804 0.71372549 0.60000000
v 0.01811638 -0.00881024 0.05000000 0.54509804 0.71372549 0.60000000
v 0.01916952 -0.00620462 -0.07500000 0.54509804 0.71372549 0.60000000
v 0.01868831 0.00757642 -0.07500000 0.54509804 0.71372549 0.60000000
v 0.01745768 0.01010320 0.05000000 0.54509804 0.71372549 0.60000000
v 0.01671219 -0.01124637 0.05000000 0.54509804 0.71372549 0.60000000
v 0.01811638 -0.00881024 -0.07500000 0.54509804 0.71372549 0.60000000
v 0.01745768 0.01010320 -0.07500000 0.54509804 0.71372549 0.60000000
v 0.01588388 0.01243289 0.05000000 0.54509804 0.71372549 0.60000000
v 0.01498063 -0.01346174 0.05000000 0.54509804 0.71372549 0.60000000
v 0.01671219 -0.01124637 -0.07500000 0.54509804 0.71372549 0.60000000
v 0.01588388 0.01243289 -0.07500000 0.54509804 0.71372549 0.60000000
v 0.01400243 0.01452606 0.05000000 0.54509804 0.71372549 0.60000000
v 0.01295718 -0.01541694 0.05000000 0.54509804 0.71372549 0.60000000
v 0.01498063 -0.01346174 -0.07500000 0.54509804 0.71372549 0.60000000
v 0.01400243 0.01452606 -0.07500000 0.54509804 0.71372549 0.60000000
v 0.01184882 0.01633147 0.05000000 0.54509804 0.71372549 0.60000000
v 0.01068129 -0.01706862 0.05000000 0.54509804 0.71372549 0.60000000
v 0.01295718 -0.01541694 -0.07500000 0.54509804 0.71372549 0.60000000
v 0.01184882 0.01633147 -0.07500000 0.54509804 0.71372549 0.60000000
v 0.00946249 0.01782153 0.05000000 0.54509804 0.71372549 0.60000000
v 0.00819635 -0.01838917 0.05000000 0.54509804 0.71372549 0.60000000
v 0.01068129 -0.01706862 -0.07500000 0.54509804 0.71372549 0.60000000
v 0.00946249 0.01782153 -0.07500000 0.54509804 0.71372549 0.60000000
v 0.00689472 0.01896863 0.05000000 0.54509804 0.71372549 0.60000000
v 0.00555364 -0.01935100 0.05000000 0.54509804 0.71372549 0.60000000
v 0.00819635 -0.01838917 -0.07500000 0.54509804 0.71372549 0.60000000
v 0.00689472 0.01896863 -0.07500000 0.54509804 0.71372549 0.60000000
v 0.00418890 0.01974125 0.05000000 0.54509804 0.71372549 0.60000000
v 0.00280443 -0.01993835 0.05000000 0.54509804 0.71372549 0.60000000
v 0.00555364 -0.01935100 -0.07500000 0.54509804 0.71372549 0.60000000
v 0.00418890 0.01974125 -0.07500000 0.54509804 0.71372549 0.60000000
v 0.00140419 0.02013545 0.05000000 0.54509804 0.71372549 0.60000000
v 0.00000000 -0.02013545 0.05000000 0.54509804 0.71372549 0.60000000
v 0.00280443 -0.01993835 -0.07500000 0.54509804 0.71372549 0.60000000
v 0.00140419 0.02013545 -0.07500000 0.54509804 0.71372549 0.60000000
v -0.00140419 0.02013545 0.05000000 0.54509804 0.71372549 0.60000000
v -0.00280443 -0.01993835 0.05000000 0.54509804 0.71372549 0.60000000
v 0.00000000 -0.02013545 -0.07500000 0.54509804 0.71372549 0.60000000
v -0.00140419 0.02013545 -0.07500000 0.54509804 0.71372549 0.60000000
v -0.00418890 0.01974125 0.05000000 0.54509804 0.71372549 0.60000000
v -0.00555364 -0.01935100 0.05000000 0.54509804 0.71372549 0.60000000
v -0.00280443 -0.01993835 -0.07500000 0.54509804 0.71372549 0.60000000
v -0.00418890 0.01974125 -0.07500000 0.54509804 0.71372549 0.60000000
v -0.00689472 0.01896863 0.05000000 0.54509804 0.71372549 0.60000000
v -0.00819635 -0.01838917 0.05000000 0.54509804 0.71372549 0.60000000
v -0.00555364 -0.01935100 -0.07500000 0.54509804 0.71372549 0.60000000
v -0.00689472 0.01896863 -0.07500000 0.54509804 0.71372549 0.60000000
v -0.00946249 0.01782153 0.05000000 0.54509804 0.71372549 0.60000000
v -0.01068129 -0.01706862 0.05000000 0.54509804 0.71372549 0.60000000
v -0.00819635 -0.01838917 -0.07500000 0.54509804 0.71372549 0.60000000
v -0.00946249 0.01782153 -0.07500000 0.54509804 0.71372549 0.60000000
v -0.01184882 0.01633147 0.05000000 0.54509804 0.71372549 0.60000000
v -0.01295718 -0.01541694 0.05000000 0.54509804 0.71372549 0.60000000
v -0.01068129 -0.01706862 -0.07500000 0.54509804 0.71372549 0.60000000
v -0.01184882 0.01633147 -0.07500000 0.54509804 0.71372549 0.60000000
v -0.01400243 0.01452606 0.05000000 0.54509804 0.71372549 0.60000000
v -0.01498063 -0.01346174 0.05000000 0.54509804 0.71372549 0.60000000
v -0.01295718 -0.01541694 -0.07500000 0.54509804 0.71372549 0.60000000
v -0.01400243 0.01452606 -0.07500000 0.54509804 0.71372549 0.60000000
v -0.01588388 0.01243289 0.05000000 0.54509804 0.71372549 0.60000000
v -0.01671219 -0.01124637 0.05000000 0.54509804 0.71372549 0.60000000
v -0.01498063 -0.01346174 -0.07500000 0.54509804 0.71372549 0.60000000
v -0.01588388 0.01243289 -0.07500000 0.54509804 0.71372549 0.60000000
v -0.01745768 0.01010320 0.05000000 0.54509804 0.71372549 0.60000000
v -0.01811638 -0.00881024 0.05000000 0.54509804 0.71372549 0.60000000
v -0.01671219 -0.01124637 -0.07500000 0.54509804 0.71372549 0.60000000
v -0.01745768 0.01010320 -0.07500000 0.54509804 0.71372549 0.60000000
v -0.01868831 0.00757642 0.05000000 0.54509804 0.71372549 0.60000000
v -0.01916952 -0.00620462 0.05000000 0.54509804 0.71372549 0.60000000
v -0.01811638 -0.00881024 -0.07500000 0.54509804 0.71372549 0.60000000
v -0.01868831 0.00757642 -0.07500000 0.54509804 0.71372549 0.60000000
v -0.01956001 0.00489984 0.05000000 0.54509804 0.71372549 0.60000000
v -0.01985190 -0.00347285 0.05000000 0.54509804 0.71372549 0.60000000
v -0.01916952 -0.00620462 -0.07500000 0.54509804 0.71372549 0.60000000
v -0.01956001 0.00489984 -0.07500000 0.54509804 0.71372549 0.60000000
v -0.02004911 0.00212865 0.05000000 0.54509804 0.71372549 0.60000000
v -0.02014772 -0.00067801 0.05000000 0.54509804 0.71372549 0.60000000
v -0.01985190 -0.00347285 -0.07500000 0.54509804 0.71372549 0.60000000
v -0.02004911 0.00212865 -0.07500000 0.54509804 0.71372549 0.60000000
v -0.02014772 -0.00067801 -0.07500000 0.54509804 0.71372549 0.60000000
f 1 2 6
f 1 6 10
f 1 10 14
f 1 14 18
f 1 18 22
f 1 22 26
f 1 26 30
f 1 30 34
f 1 34 38
f 1 38 42
f 1 42 46
f 1 46 50
f 1 50 54
f 1 54 58
f 1 58 62
f 1 62 66
f 1 66 70
f 1 70 74
f 1 74 78
f 1 78 82
f 1 82 86
f 1 86 87
f 1 87 83
f 1 83 79
f 1 79 75
f 1 75 71
f 1 71 67
f 1 67 63
f 1 63 59
f 1 59 55
f 1 55 51
f 1 51 47
f 1 47 43
f 1 43 39
f 1 39 35
f 1 35 31
f 1 31 27
f 1 27 23
f 1 23 19
f 1 19 15
f 1 15 11
f 1 11 7
f 1 7 3
f 1 3 8
f 1 8 4
f 1 4 5
f 1 5 2
f 2 5 9
f 2 9 6
f 3 7 12
f 3 12 8
f 4 8 12
f 4 12 16
f 4 16 20
f 4 20 24
f 4 24 28
f 4 28 32
f 4 32 36
f 4 36 40
f 4 40 44
f 4 44 48
f 4 48 52
f 4 52 56
f 4 56 60
f 4 60 64
f 4 64 68
f 4 68 72
f 4 72 76
f 4 76 80
f 4 80 84
f 4 84 88
f 4 88 90
f 4 90 89
f 4 89 85
f 4 85 81
f 4 81 77
f 4 77 73
f 4 73 69
f 4 69 65
f 4 65 61
f 4 61 57
f 4 57 53
f 4 53 49
f 4 49 45
f 4 45 41
f 4 41 37
f 4 37 33
f 4 33 29
f 4 29 25
f 4 25 21
f 4 21 17
f 4 17 13
f 4 13 9
f 4 9 5
f 6 9 13
f 6 13 10
f 7 11 16
f 7 16 12
f 10 13 17
f 10 17 14
f 11 15 20
f 11 20 16
f 14 17 21
f 14 21 18
f 15 19 24
f 15 24 20
f 18 21 25
f 18 25 22
f 19 23 28
f 19 28 24
f 22 25 29
f 22 29 26
f 23 27 32
f 23 32 28
f 26 29 33
f 26 33 30
f 27 31 36
f 27 36 32
f 30 33 37
f 30 37 34
f 31 35 40
f 31 40 36
f 34 37 41
f 34 41 38
f 35 39 44
f 35 44 40
f 38 41 45
f 38 45 42
f 39 43 48
f 39 48 44
f 42 45 49
f 42 49 46
f 43 47 52
f 43 52 48
f 46 49 53
f 46 53 50
f 47 51 56
f 47 56 52
f 50 53 57
f 50 57 54
f 51 55 60
f 51 60 56
f 54 57 61
f 54 61 58
f 55 59 64
f 55 64 60
f 58 61 65
f 58 65 62
f 59 63 68
f 59 68 64
f 62 65 69
f 62 69 66
f 63 67 72
f 63 72 68
f 66 69 73
f 66 73 70
f 67 71 76
f 67 76 72
f 70 73 77
f 70 77 74
f 71 75 80
f 71 80 76
f 74 77 81
f 74 81 78
f 75 79 84
f 75 84 80
f 78 81 85
f 78 85 82
f 79 83 88
f 79 88 84
f 82 85 89
f 82 89 86
f 83 87 90
f 83 90 88
f 86 89 90
f 86 90 87