# https://github.com/mikedh/trimesh

o geometry_0
v -0.05349603 -0.06814120 -0.00000000 0.54509804 0.71372549 0.60000000
v -0.05387228 -0.05747548 -0.00000000 0.54509804 0.71372549 0.60000000
v -0.04849693 -0.06814120 -0.00000000 0.54509804 0.71372549 0.60000000
v -0.05349603 -0.06814120 0.05000000 0.54509804 0.71372549 0.60000000
v -0.04849693 -0.05747548 -0.00000000 0.54509804 0.71372549 0.60000000
v -0.05387228 -0.05747548 0.05000000 0.54509804 0.71372549 0.60000000
v -0.04849693 -0.06814120 0.05000000 0.54509804 0.71372549 0.60000000
v -0.04849693 -0.05747548 0.05000000 0.54509804 0.71372549 0.60000000
f 1 2 5
f 1 5 3
f 1 3 7
f 1 7 4
f 1 4 6
f 1 6 2
f 2 6 8
f 2 8 5
f 3 5 8
f 3 8 7
f 4 7 8
f 4 8 6

o geometry_1
v -0.09807730 -0.06814120 -0.00000000 0.54117647 0.42352941 0.64313725
v -0.09807730 -0.05747548 -0.00000000 0.54117647 0.42352941 0.64313725
v -0.09307776 -0.06814120 -0.00000000 0.54117647 0.42352941 0.64313725
v -0.09807730 -0.06814120 0.05000000 0.54117647 0.42352941 0.64313725
v -0.09270152 -0.05747548 -0.00000000 0.54117647 0.42352941 0.64313725
v -0.09807730 -0.05747548 0.05000000 0.54117647 0.42352941 0.64313725
v -0.09307776 -0.06814120 0.05000000 0.54117647 0.42352941 0.64313725
v -0.09270152 -0.05747548 0.05000000 0.54117647 0.42352941 0.64313725
f 9 10 13
f 9 13 11
f 9 11 15
f 9 15 12
f 9 12 14
f 9 14 10
f 10 14 16
f 10 16 13
f 11 13 16
f 11 16 15
f 12 15 16
f 12 16 14

o geometry_2
v -0.05469299 -0.09529335 -0.00000000 0.43529412 0.89019608 0.96078431
v -0.05469299 -0.08001744 -0.00000000 0.43529412 0.89019608 0.96078431
v -0.04849640 -0.09529335 -0.00000000 0.43529412 0.89019608 0.96078431
v -0.05469299 -0.09529335 0.05000000 0.43529412 0.89019608 0.96078431
v -0.05349625 -0.06814386 -0.00000000 0.43529412 0.89019608 0.96078431
v -0.05469299 -0.08001744 0.05000000 0.43529412 0.89019608 0.96078431
v -0.04849640 -0.06814386 -0.00000000 0.43529412 0.89019608 0.96078431
v -0.04849640 -0.09529335 0.05000000 0.43529412 0.89019608 0.96078431
v -0.05349625 -0.06814386 0.05000000 0.43529412 0.89019608 0.96078431
v -0.04849640 -0.06814386 0.05000000 0.43529412 0.89019608 0.96078431
f 17 18 21
f 17 21 23
f 17 23 19
f 17 19 24
f 17 24 20
f 17 20 22
f 17 22 18
f 18 22 25
f 18 25 21
f 19 23 26
f 19 26 24
f 20 24 26
f 20 26 25
f 20 25 22
f 21 25 26
f 21 26 23

o geometry_3
v -0.05469299 -0.08001869 0.05000000 0.38039216 0.78823529 0.52549020
v -0.07286188 -0.09029480 0.05000000 0.38039216 0.78823529 0.52549020
v -0.05469299 -0.09529451 0.05000000 0.38039216 0.78823529 0.52549020
v -0.05469299 -0.08001869 -0.00000000 0.38039216 0.78823529 0.52549020
v -0.07286188 -0.09529451 0.05000000 0.38039216 0.78823529 0.52549020
v -0.07286188 -0.09029480 -0.00000000 0.38039216 0.78823529 0.52549020
v -0.05469299 -0.09529451 -0.00000000 0.38039216 0.78823529 0.52549020
v -0.07286188 -0.09529451 -0.00000000 0.38039216 0.78823529 0.52549020
f 27 28 31
f 27 31 29
f 27 29 33
f 27 33 30
f 27 30 32
f 27 32 28
f 28 32 34
f 28 34 31
f 29 31 34
f 29 34 33
f 30 33 34
f 30 34 32

o geometry_4
v -0.07550869 -0.09529601 -0.00000000 0.56470588 0.92549020 0.07058824
v -0.07550869 -0.08971485 -0.00000000 0.56470588 0.92549020 0.07058824
v -0.07286188 -0.09529601 -0.00000000 0.56470588 0.92549020 0.07058824
v -0.07550869 -0.09529601 0.05000000 0.56470588 0.92549020 0.07058824
v -0.07286188 -0.09029613 -0.00000000 0.56470588 0.92549020 0.07058824
v -0.07550869 -0.08971485 0.05000000 0.56470588 0.92549020 0.07058824
v -0.07286188 -0.09529601 0.05000000 0.56470588 0.92549020 0.07058824
v -0.07286188 -0.09029613 0.05000000 0.56470588 0.92549020 0.07058824
f 35 36 39
f 35 39 37
f 35 37 41
f 35 41 38
f 35 38 40
f 35 40 36
f 36 40 42
f 36 42 39
f 37 39 42
f 37 42 41
f 38 41 42
f 38 42 40

o geometry_5
v -0.09807730 -0.07795733 -0.00000000 0.08627451 0.01960784 0.83137255
v -0.09807730 -0.06814120 -0.00000000 0.08627451 0.01960784 0.83137255
v -0.09298033 -0.07795733 -0.00000000 0.08627451 0.01960784 0.83137255
v -0.09807730 -0.07795733 0.05000000 0.08627451 0.01960784 0.83137255
v -0.09307762 -0.06814120 -0.00000000 0.08627451 0.01960784 0.83137255
v -0.09807730 -0.06814120 0.05000000 0.08627451 0.01960784 0.83137255
v -0.09298033 -0.07795733 0.00022514 0.08627451 0.01960784 0.83137255
v -0.09298283 -0.07795733 0.05000000 0.08627451 0.01960784 0.83137255
v -0.09307762 -0.06814120 0.05000000 0.08627451 0.01960784 0.83137255
v -0.09298183 -0.07795253 0.05000000 0.08627451 0.01960784 0.83137255
f 43 44 47
f 43 47 45
f 43 45 49
f 43 49 50
f 43 50 46
f 43 46 48
f 43 48 44
f 44 48 51
f 44 51 47
f 45 47 51
f 45 51 49
f 46 50 52
f 46 52 51
f 46 51 48
f 49 51 52
f 49 52 50

o geometry_6
v -0.09143053 -0.08044130 0.05000000 0.77647059 0.86666667 0.97647059
v -0.09298291 -0.07795757 0.05000000 0.77647059 0.86666667 0.97647059
v -0.09807730 -0.08044130 0.05000000 0.77647059 0.86666667 0.97647059
v -0.09143053 -0.08044130 -0.00000000 0.77647059 0.86666667 0.97647059
v -0.09298096 -0.07795757 0.00022514 0.77647059 0.86666667 0.97647059
v -0.09807730 -0.07795757 0.05000000 0.77647059 0.86666667 0.97647059
v -0.09807730 -0.08044130 -0.00000000 0.77647059 0.86666667 0.97647059
v -0.09298096 -0.07795757 -0.00000000 0.77647059 0.86666667 0.97647059
v -0.09807730 -0.07795757 -0.00000000 0.77647059 0.86666667 0.97647059
f 53 54 58
f 53 58 55
f 53 55 59
f 53 59 56
f 53 56 60
f 53 60 57
f 53 57 54
f 54 57 60
f 54 60 61
f 54 61 58
f 55 58 61
f 55 61 59
f 56 59 61
f 56 61 60

o geometry_7
v -0.09028526 -0.05510753 0.05000000 0.79607843 0.45882353 0.78039216
v -0.09807730 -0.05510753 0.05000000 0.79607843 0.45882353 0.78039216
v -0.09270159 -0.05747548 0.05000000 0.79607843 0.45882353 0.78039216
v -0.09028526 -0.05510753 -0.00000000 0.79607843 0.45882353 0.78039216
v -0.09807730 -0.05747548 0.05000000 0.79607843 0.45882353 0.78039216
v -0.09807730 -0.05510753 -0.00000000 0.79607843 0.45882353 0.78039216
v -0.09270159 -0.05747548 -0.00000000 0.79607843 0.45882353 0.78039216
v -0.09807730 -0.05747548 -0.00000000 0.79607843 0.45882353 0.78039216
f 62 63 66
f 62 66 64
f 62 64 68
f 62 68 65
f 62 65 67
f 62 67 63
f 63 67 69
f 63 69 66
f 64 66 69
f 64 69 68
f 65 68 69
f 65 69 67

o geometry_8
v -0.05387170 -0.05747548 -0.00000000 0.11764706 0.63921569 0.14117647
v -0.05569093 -0.05545092 -0.00000000 0.11764706 0.63921569 0.14117647
v -0.04849640 -0.05747548 -0.00000000 0.11764706 0.63921569 0.14117647
v -0.05387170 -0.05747548 0.05000000 0.11764706 0.63921569 0.14117647
v -0.05569093 -0.04099671 -0.00000000 0.11764706 0.63921569 0.14117647
v -0.05569093 -0.05545092 0.05000000 0.11764706 0.63921569 0.14117647
v -0.04849640 -0.04099671 -0.00000000 0.11764706 0.63921569 0.14117647
v -0.04849640 -0.05747548 0.05000000 0.11764706 0.63921569 0.14117647
v -0.05569093 -0.04099671 0.05000000 0.11764706 0.63921569 0.14117647
v -0.04849640 -0.04099671 0.05000000 0.11764706 0.63921569 0.14117647
f 70 71 74
f 70 74 76
f 70 76 72
f 70 72 77
f 70 77 73
f 70 73 75
f 70 75 71
f 71 75 78
f 71 78 74
f 72 76 79
f 72 79 77
f 73 77 79
f 73 79 78
f 73 78 75
f 74 78 79
f 74 79 76

o geometry_9
v -0.07550869 -0.08971386 0.05000000 0.94117647 0.52156863 0.41176471
v -0.09142999 -0.08044275 0.05000000 0.94117647 0.52156863 0.41176471
v -0.07550869 -0.09529456 0.05000000 0.94117647 0.52156863 0.41176471
v -0.07550869 -0.08971386 -0.00000000 0.94117647 0.52156863 0.41176471
v -0.09807730 -0.08044275 0.05000000 0.94117647 0.52156863 0.41176471
v -0.09142999 -0.08044275 -0.00000000 0.94117647 0.52156863 0.41176471
v -0.09807730 -0.09529456 0.05000000 0.94117647 0.52156863 0.41176471
v -0.07550869 -0.09529456 -0.00000000 0.94117647 0.52156863 0.41176471
v -0.09807730 -0.08044275 -0.00000000 0.94117647 0.52156863 0.41176471
v -0.09807730 -0.09529456 -0.00000000 0.94117647 0.52156863 0.41176471
f 80 81 84
f 80 84 86
f 80 86 82
f 80 82 87
f 80 87 83
f 80 83 85
f 80 85 81
f 81 85 88
f 81 88 84
f 82 86 89
f 82 89 87
f 83 87 89
f 83 89 88
f 83 88 85
f 84 88 89
f 84 89 86

o geometry_10
v -0.07329325 -0.04099510 0.05000000 0.26274510 0.77254902 0.45490196
v -0.09807730 -0.04099510 0.05000000 0.26274510 0.77254902 0.45490196
v -0.07329325 -0.04599579 0.05000000 0.26274510 0.77254902 0.45490196
v -0.07329325 -0.04099510 -0.00000000 0.26274510 0.77254902 0.45490196
v -0.09807730 -0.05510753 0.05000000 0.26274510 0.77254902 0.45490196
v -0.09807730 -0.04099510 -0.00000000 0.26274510 0.77254902 0.45490196
v -0.09028422 -0.05510753 0.05000000 0.26274510 0.77254902 0.45490196
v -0.07329325 -0.04599579 -0.00000000 0.26274510 0.77254902 0.45490196
v -0.09807730 -0.05510753 -0.00000000 0.26274510 0.77254902 0.45490196
v -0.09028422 -0.05510753 -0.00000000 0.26274510 0.77254902 0.45490196
f 90 91 94
f 90 94 96
f 90 96 92
f 90 92 97
f 90 97 93
f 90 93 95
f 90 95 91
f 91 95 98
f 91 98 94
f 92 96 99
f 92 99 97
f 93 97 99
f 93 99 98
f 93 98 95
f 94 98 99
f 94 99 96

o geometry_11
v -0.05569164 -0.04099651 0.05000000 0.56470588 0.01568627 0.61568627
v -0.07329083 -0.04099651 0.05000000 0.56470588 0.01568627 0.61568627
v -0.05569164 -0.05545210 0.05000000 0.56470588 0.01568627 0.61568627
v -0.05569164 -0.04099651 -0.00000000 0.56470588 0.01568627 0.61568627
v -0.07329083 -0.04599618 0.05000000 0.56470588 0.01568627 0.61568627
v -0.07329083 -0.04099651 -0.00000000 0.56470588 0.01568627 0.61568627
v -0.05569164 -0.05545210 -0.00000000 0.56470588 0.01568627 0.61568627
v -0.07329083 -0.04599618 -0.00000000 0.56470588 0.01568627 0.61568627
f 100 101 104
f 100 104 102
f 100 102 106
f 100 106 103
f 100 103 105
f 100 105 101
f 101 105 107
f 101 107 104
f 102 104 107
f 102 107 106
f 103 106 107
f 103 107 105