# https://github.com/mikedh/trimesh
v -0.02511605 -0.00995042 -0.07500000
v -0.02557985 -0.00965898 -0.07500000
v -0.02596725 -0.00927164 -0.07500000
v -0.02459905 -0.01013134 -0.07500000
v -0.02405465 -0.01019267 -0.07500000
v -0.02625865 -0.00880781 -0.07500000
v -0.02643955 -0.00829077 -0.07500000
v -0.02650095 -0.00774643 -0.07500000
v -0.02511605 -0.00995042 0.02500000
v -0.02557985 -0.00965898 0.02500000
v -0.02596725 -0.00927164 0.02500000
v -0.02459905 -0.01013134 0.02500000
v -0.02405465 -0.01019267 0.02500000
v -0.02625865 -0.00880781 0.02500000
v -0.02643955 -0.00829077 0.02500000
v -0.02650095 -0.00774643 0.02500000
v -0.00856185 -0.01019267 0.00000000
v -0.00801745 -0.01013134 0.00000000
v -0.00750045 -0.00995042 0.00000000
v -0.00703665 -0.00965898 0.00000000
v -0.00664925 -0.00927164 0.00000000
v -0.00856185 -0.01019267 0.02500000
v -0.00801745 -0.01013134 0.02500000
v -0.00750045 -0.00995042 0.02500000
v -0.00703665 -0.00965898 0.02500000
v -0.00664925 -0.00927164 0.02500000
v -0.00635785 -0.00880781 0.00000000
v -0.00617695 -0.00829077 0.00000000
v -0.00611555 -0.00774643 0.00000000
v -0.00635785 -0.00880781 0.02500000
v -0.00617695 -0.00829077 0.02500000
v -0.00611555 -0.00774643 0.02500000
v -0.02650095 0.00774643 -0.07500000
v -0.02643955 0.00829077 -0.07500000
v -0.02625865 0.00880781 -0.07500000
v -0.02596725 0.00927163 -0.07500000
v -0.02557985 0.00965897 -0.07500000
v -0.02511605 0.00995041 -0.07500000
v -0.02459905 0.01013133 -0.07500000
v -0.02405465 0.01019267 -0.07500000
v -0.02650095 0.00774643 0.02500000
v -0.02643955 0.00829077 0.02500000
v -0.02625865 0.00880781 0.02500000
v -0.02596725 0.00927163 0.02500000
v -0.02557985 0.00965897 0.02500000
v -0.02511605 0.00995041 0.02500000
v -0.02459905 0.01013133 0.02500000
v -0.02405465 0.01019267 0.02500000
v -0.00856185 0.01019267 0.00000000
v -0.00664925 0.00927163 0.00000000
v -0.00801745 0.01013133 0.00000000
v -0.00750045 0.00995041 0.00000000
v -0.00703665 0.00965897 0.00000000
v -0.00856185 0.01019267 0.02500000
v -0.00664925 0.00927163 0.02500000
v -0.00801745 0.01013133 0.02500000
v -0.00750045 0.00995041 0.02500000
v -0.00703665 0.00965897 0.02500000
v -0.00611555 0.00774643 0.00000000
v -0.00617695 0.00829077 0.00000000
v -0.00635785 0.00880781 0.00000000
v -0.00611555 0.00774643 0.02500000
v -0.00617695 0.00829077 0.02500000
v -0.00635785 0.00880781 0.02500000
v 0.02405475 -0.01019267 -0.07500000
v 0.02459905 -0.01013134 -0.07500000
v 0.02511605 -0.00995042 -0.07500000
v 0.02557995 -0.00965898 -0.07500000
v 0.02596725 -0.00927164 -0.07500000
v 0.02625865 -0.00880781 -0.07500000
v 0.02643965 -0.00829077 -0.07500000
v 0.02650095 -0.00774643 -0.07500000
v 0.00635785 -0.00880781 0.00000000
v 0.00617695 -0.00829077 0.00000000
v 0.00611565 -0.00774643 0.00000000
v 0.00635785 -0.00880781 0.02500000
v 0.00617695 -0.00829077 0.02500000
v 0.00611565 -0.00774643 0.02500000
v 0.00703665 -0.00965898 0.00000000
v 0.00750045 -0.00995042 0.00000000
v 0.00801755 -0.01013134 0.00000000
v 0.00664935 -0.00927164 0.00000000
v 0.00856185 -0.01019267 0.00000000
v 0.00703665 -0.00965898 0.02500000
v 0.00750045 -0.00995042 0.02500000
v 0.00801755 -0.01013134 0.02500000
v 0.00664935 -0.00927164 0.02500000
v 0.00856185 -0.01019267 0.02500000
v 0.02405475 -0.01019267 0.02500000
v 0.02459905 -0.01013134 0.02500000
v 0.02511605 -0.00995042 0.02500000
v 0.02557995 -0.00965898 0.02500000
v 0.02596725 -0.00927164 0.02500000
v 0.02625865 -0.00880781 0.02500000
v 0.02643965 -0.00829077 0.02500000
v 0.02650095 -0.00774643 0.02500000
v 0.02650095 0.00774643 -0.07500000
v 0.02643965 0.00829077 -0.07500000
v 0.02625865 0.00880781 -0.07500000
v 0.02405475 0.01019267 -0.07500000
v 0.02459905 0.01013133 -0.07500000
v 0.02596725 0.00927163 -0.07500000
v 0.02557995 0.00965897 -0.07500000
v 0.02511605 0.00995041 -0.07500000
v 0.00611565 0.00774643 0.00000000
v 0.00617695 0.00829077 0.00000000
v 0.00635785 0.00880781 0.00000000
v 0.00611565 0.00774643 0.02500000
v 0.00617695 0.00829077 0.02500000
v 0.00635785 0.00880781 0.02500000
v 0.00664935 0.00927163 0.00000000
v 0.00703665 0.00965897 0.00000000
v 0.00750045 0.00995041 0.00000000
v 0.00801755 0.01013133 0.00000000
v 0.00856185 0.01019267 0.00000000
v 0.00664935 0.00927163 0.02500000
v 0.00703665 0.00965897 0.02500000
v 0.00750045 0.00995041 0.02500000
v 0.00801755 0.01013133 0.02500000
v 0.00856185 0.01019267 0.02500000
v 0.02650095 0.00774643 0.02500000
v 0.02643965 0.00829077 0.02500000
v 0.02625865 0.00880781 0.02500000
v 0.02405475 0.01019267 0.02500000
v 0.02459905 0.01013133 0.02500000
v 0.02596725 0.00927163 0.02500000
v 0.02557995 0.00965897 0.02500000
v 0.02511605 0.00995041 0.02500000
f 1 2 3
f 1 3 4
f 3 8 4
f 4 8 5
f 3 6 8
f 6 7 8
f 1 4 9
f 1 10 2
f 2 11 3
f 3 14 6
f 4 5 12
f 6 15 7
f 7 16 8
f 5 8 33
f 5 40 65
f 1 9 10
f 2 10 11
f 3 11 14
f 4 12 9
f 5 13 12
f 6 14 15
f 7 15 16
f 5 17 13
f 17 22 13
f 8 16 41
f 5 83 17
f 17 18 22
f 18 19 23
f 19 20 24
f 20 21 25
f 18 23 22
f 19 24 23
f 20 25 24
f 21 26 25
f 21 27 26
f 27 28 30
f 28 29 31
f 17 81 18
f 18 80 19
f 19 79 20
f 20 82 21
f 21 73 27
f 27 74 28
f 28 74 29
f 27 30 26
f 28 31 30
f 29 32 31
f 29 59 32
f 5 33 40
f 8 41 33
f 33 34 35
f 33 35 36
f 33 36 39
f 33 39 40
f 36 37 38
f 36 38 39
f 33 42 34
f 34 43 35
f 35 44 36
f 36 45 37
f 37 46 38
f 38 47 39
f 39 48 40
f 40 49 100
f 33 41 42
f 34 42 43
f 35 43 44
f 36 44 45
f 37 45 46
f 38 46 47
f 39 47 48
f 40 48 49
f 49 48 54
f 29 105 59
f 59 62 32
f 50 53 55
f 49 56 51
f 51 57 52
f 52 58 53
f 49 54 56
f 53 58 55
f 51 56 57
f 52 57 58
f 59 60 62
f 60 61 63
f 50 64 61
f 59 106 60
f 60 106 61
f 50 61 111
f 50 112 53
f 51 52 114
f 49 51 115
f 52 53 113
f 60 63 62
f 61 64 63
f 50 55 64
f 5 65 83
f 65 67 66
f 65 69 67
f 67 69 68
f 65 72 69
f 69 71 70
f 69 72 71
f 65 66 89
f 66 67 90
f 67 68 91
f 68 69 92
f 69 70 93
f 70 71 94
f 71 72 95
f 65 97 72
f 72 97 96
f 19 80 79
f 17 83 81
f 18 81 80
f 20 79 82
f 21 82 73
f 27 73 74
f 29 74 75
f 73 82 76
f 73 77 74
f 74 78 75
f 82 87 76
f 73 76 77
f 74 77 78
f 79 80 84
f 80 81 85
f 81 83 86
f 79 87 82
f 80 85 84
f 81 86 85
f 79 84 87
f 83 88 86
f 29 75 105
f 75 78 108
f 65 89 83
f 66 90 89
f 67 91 90
f 68 92 91
f 69 93 92
f 70 94 93
f 71 95 94
f 72 96 95
f 83 89 88
f 40 100 65
f 65 100 97
f 97 99 98
f 97 102 99
f 97 100 101
f 97 101 102
f 101 103 102
f 101 104 103
f 97 98 121
f 98 99 122
f 100 125 101
f 99 102 123
f 102 103 126
f 103 104 127
f 101 128 104
f 75 108 105
f 49 115 100
f 59 105 106
f 61 106 107
f 61 107 111
f 50 111 112
f 53 112 113
f 52 113 114
f 51 114 115
f 105 109 106
f 106 110 107
f 107 116 111
f 105 108 109
f 106 109 110
f 107 110 116
f 111 117 112
f 112 118 113
f 113 119 114
f 114 120 115
f 111 116 117
f 112 117 118
f 113 118 119
f 114 119 120
f 97 121 96
f 100 115 124
f 98 122 121
f 99 123 122
f 100 124 125
f 101 125 128
f 102 126 123
f 103 127 126
f 104 128 127
f 115 120 124
f 12 32 9
f 12 13 32
f 9 62 10
f 10 62 11
f 11 62 14
f 14 62 15
f 15 62 16
f 13 22 32
f 23 32 22
f 24 32 23
f 25 32 24
f 26 32 25
f 30 32 26
f 30 31 32
f 62 9 32
f 41 16 62
f 41 43 42
f 41 44 43
f 41 45 44
f 41 46 45
f 41 47 46
f 41 48 47
f 41 54 48
f 41 55 58
f 41 56 54
f 41 58 57
f 41 57 56
f 41 62 63
f 41 63 64
f 41 64 55
f 87 96 76
f 76 96 77
f 77 96 78
f 85 86 96
f 85 96 84
f 86 88 96
f 84 96 87
f 90 88 89
f 91 88 90
f 92 88 91
f 93 88 92
f 94 88 93
f 94 95 88
f 95 96 88
f 78 96 121
f 78 128 108
f 109 108 124
f 110 109 124
f 110 124 116
f 116 124 117
f 117 124 118
f 118 124 119
f 78 121 122
f 78 122 123
f 78 123 126
f 78 126 127
f 78 127 128
f 119 124 120
f 125 124 108
f 125 108 128