# https://github.com/mikedh/trimesh
v -0.02511605 -0.00995042 0.05000000
v -0.02557985 -0.00965898 0.05000000
v -0.02596725 -0.00927164 0.05000000
v -0.02459905 -0.01013134 0.05000000
v -0.02405465 -0.01019267 0.05000000
v -0.02625865 -0.00880781 0.05000000
v -0.02643955 -0.00829077 0.05000000
v -0.02650095 -0.00774643 0.05000000
v -0.00856185 -0.01019267 0.05000000
v -0.00801745 -0.01013134 0.05000000
v -0.00750045 -0.00995042 0.05000000
v -0.00703665 -0.00965898 0.05000000
v -0.00664925 -0.00927164 0.05000000
v -0.00635785 -0.00880781 0.05000000
v -0.00617695 -0.00829077 0.05000000
v -0.00611555 -0.00774643 0.05000000
v -0.02511605 -0.00995042 0.07500000
v -0.02557985 -0.00965898 0.07500000
v -0.02596725 -0.00927164 0.07500000
v -0.02459905 -0.01013134 0.07500000
v -0.02405465 -0.01019267 0.07500000
v -0.02625865 -0.00880781 0.07500000
v -0.02643955 -0.00829077 0.07500000
v -0.02650095 -0.00774643 0.07500000
v -0.00856185 -0.01019267 0.07500000
v -0.00801745 -0.01013134 0.07500000
v -0.00750045 -0.00995042 0.07500000
v -0.00703665 -0.00965898 0.07500000
v -0.00664925 -0.00927164 0.07500000
v -0.00635785 -0.00880781 0.07500000
v -0.00617695 -0.00829077 0.07500000
v -0.00611555 -0.00774643 0.07500000
v -0.02650095 0.00774643 0.05000000
v -0.02643955 0.00829077 0.05000000
v -0.02625865 0.00880781 0.05000000
v -0.02596725 0.00927163 0.05000000
v -0.02557985 0.00965897 0.05000000
v -0.02511605 0.00995041 0.05000000
v -0.02459905 0.01013133 0.05000000
v -0.02405465 0.01019267 0.05000000
v -0.00856185 0.01019267 0.05000000
v -0.00664925 0.00927163 0.05000000
v -0.00801745 0.01013133 0.05000000
v -0.00750045 0.00995041 0.05000000
v -0.00703665 0.00965897 0.05000000
v -0.00611555 0.00774643 0.05000000
v -0.00617695 0.00829077 0.05000000
v -0.00635785 0.00880781 0.05000000
v -0.02650095 0.00774643 0.07500000
v -0.02643955 0.00829077 0.07500000
v -0.02625865 0.00880781 0.07500000
v -0.02596725 0.00927163 0.07500000
v -0.02557985 0.00965897 0.07500000
v -0.02511605 0.00995041 0.07500000
v -0.02459905 0.01013133 0.07500000
v -0.02405465 0.01019267 0.07500000
v -0.00856185 0.01019267 0.07500000
v -0.00664925 0.00927163 0.07500000
v -0.00801745 0.01013133 0.07500000
v -0.00750045 0.00995041 0.07500000
v -0.00703665 0.00965897 0.07500000
v -0.00611555 0.00774643 0.07500000
v -0.00617695 0.00829077 0.07500000
v -0.00635785 0.00880781 0.07500000
v 0.00635785 -0.00880781 0.05000000
v 0.00617695 -0.00829077 0.05000000
v 0.00611565 -0.00774643 0.05000000
v 0.00703665 -0.00965898 0.05000000
v 0.00750045 -0.00995042 0.05000000
v 0.00801755 -0.01013134 0.05000000
v 0.00664935 -0.00927164 0.05000000
v 0.00856185 -0.01019267 0.05000000
v 0.02405475 -0.01019267 0.05000000
v 0.02459905 -0.01013134 0.05000000
v 0.02511605 -0.00995042 0.05000000
v 0.02557995 -0.00965898 0.05000000
v 0.02596725 -0.00927164 0.05000000
v 0.02625865 -0.00880781 0.05000000
v 0.02643965 -0.00829077 0.05000000
v 0.02650095 -0.00774643 0.05000000
v 0.00635785 -0.00880781 0.07500000
v 0.00617695 -0.00829077 0.07500000
v 0.00611565 -0.00774643 0.07500000
v 0.00703665 -0.00965898 0.07500000
v 0.00750045 -0.00995042 0.07500000
v 0.00801755 -0.01013134 0.07500000
v 0.00664935 -0.00927164 0.07500000
v 0.00856185 -0.01019267 0.07500000
v 0.02405475 -0.01019267 0.07500000
v 0.02459905 -0.01013134 0.07500000
v 0.02511605 -0.00995042 0.07500000
v 0.02557995 -0.00965898 0.07500000
v 0.02596725 -0.00927164 0.07500000
v 0.02625865 -0.00880781 0.07500000
v 0.02643965 -0.00829077 0.07500000
v 0.02650095 -0.00774643 0.07500000
v 0.00611565 0.00774643 0.05000000
v 0.00617695 0.00829077 0.05000000
v 0.00635785 0.00880781 0.05000000
v 0.00664935 0.00927163 0.05000000
v 0.00703665 0.00965897 0.05000000
v 0.00750045 0.00995041 0.05000000
v 0.00801755 0.01013133 0.05000000
v 0.00856185 0.01019267 0.05000000
v 0.02650095 0.00774643 0.05000000
v 0.02643965 0.00829077 0.05000000
v 0.02625865 0.00880781 0.05000000
v 0.02405475 0.01019267 0.05000000
v 0.02459905 0.01013133 0.05000000
v 0.02596725 0.00927163 0.05000000
v 0.02557995 0.00965897 0.05000000
v 0.02511605 0.00995041 0.05000000
v 0.00611565 0.00774643 0.07500000
v 0.00617695 0.00829077 0.07500000
v 0.00635785 0.00880781 0.07500000
v 0.00664935 0.00927163 0.07500000
v 0.00703665 0.00965897 0.07500000
v 0.00750045 0.00995041 0.07500000
v 0.00801755 0.01013133 0.07500000
v 0.00856185 0.01019267 0.07500000
v 0.02650095 0.00774643 0.07500000
v 0.02643965 0.00829077 0.07500000
v 0.02625865 0.00880781 0.07500000
v 0.02405475 0.01019267 0.07500000
v 0.02459905 0.01013133 0.07500000
v 0.02596725 0.00927163 0.07500000
v 0.02557995 0.00965897 0.07500000
v 0.02511605 0.00995041 0.07500000
f 17 1 4
f 18 2 1
f 19 3 2
f 22 6 3
f 20 4 5
f 23 7 6
f 24 8 7
f 21 5 9
f 25 9 10
f 26 10 11
f 27 11 12
f 28 12 13
f 29 13 14
f 30 14 15
f 31 15 16
f 32 16 46
f 17 18 1
f 18 19 2
f 19 22 3
f 17 4 20
f 20 5 21
f 22 23 6
f 23 24 7
f 21 9 25
f 17 19 18
f 17 20 19
f 19 20 24
f 20 21 24
f 19 24 22
f 22 24 23
f 21 25 24
f 24 49 8
f 24 25 49
f 25 10 26
f 26 11 27
f 27 12 28
f 28 13 29
f 29 14 30
f 30 15 31
f 31 16 32
f 25 26 28
f 26 27 28
f 25 28 30
f 28 29 30
f 25 30 31
f 25 31 32
f 25 32 62
f 49 33 8
f 50 34 33
f 51 35 34
f 52 36 35
f 53 37 36
f 54 38 37
f 55 39 38
f 56 40 39
f 57 41 40
f 58 42 45
f 59 43 41
f 60 44 43
f 61 45 44
f 62 46 47
f 63 47 48
f 64 48 42
f 25 62 49
f 49 50 33
f 50 51 34
f 51 52 35
f 52 53 36
f 53 54 37
f 54 55 38
f 55 56 39
f 56 57 40
f 49 51 50
f 49 52 51
f 49 56 52
f 52 54 53
f 52 56 54
f 54 56 55
f 49 62 56
f 32 46 62
f 57 59 41
f 58 45 61
f 59 60 43
f 60 61 44
f 62 47 63
f 63 48 64
f 58 64 42
f 56 62 57
f 57 62 59
f 60 62 61
f 59 62 60
f 58 62 63
f 58 61 62
f 58 63 64
f 81 65 71
f 82 66 65
f 83 67 66
f 84 68 69
f 85 69 70
f 86 70 72
f 87 71 68
f 88 72 73
f 89 73 74
f 90 74 75
f 91 75 76
f 92 76 77
f 93 77 78
f 94 78 79
f 95 79 80
f 96 80 105
f 81 71 87
f 81 82 65
f 82 83 66
f 84 69 85
f 85 70 86
f 84 87 68
f 86 72 88
f 84 88 87
f 84 85 88
f 85 86 88
f 81 87 88
f 81 88 82
f 82 88 83
f 83 113 67
f 83 88 113
f 88 73 89
f 89 74 90
f 90 75 91
f 91 76 92
f 92 77 93
f 93 78 94
f 94 79 95
f 95 80 96
f 90 91 93
f 91 92 93
f 89 90 96
f 90 93 94
f 90 94 96
f 94 95 96
f 88 89 121
f 89 96 121
f 113 97 67
f 114 98 97
f 115 99 98
f 116 100 99
f 117 101 100
f 118 102 101
f 119 103 102
f 120 104 103
f 124 108 104
f 121 105 106
f 122 106 107
f 125 109 108
f 123 107 110
f 126 110 111
f 127 111 112
f 128 112 109
f 113 114 97
f 114 115 98
f 115 116 99
f 116 117 100
f 117 118 101
f 118 119 102
f 119 120 103
f 113 115 114
f 113 119 115
f 115 119 116
f 113 120 119
f 116 118 117
f 116 119 118
f 96 105 121
f 88 121 113
f 120 124 104
f 121 106 122
f 122 107 123
f 124 125 108
f 125 128 109
f 123 110 126
f 126 111 127
f 127 112 128
f 113 121 120
f 120 121 124
f 121 122 128
f 121 125 124
f 121 128 125
f 122 123 127
f 122 127 128
f 123 126 127
f 3 9 2
f 6 9 3
f 7 9 6
f 8 9 7
f 2 9 1
f 4 1 9
f 5 4 9
f 8 33 9
f 9 33 10
f 10 33 11
f 11 33 12
f 12 33 13
f 13 33 14
f 14 33 15
f 16 15 33
f 16 33 34
f 16 34 35
f 16 35 36
f 16 36 37
f 16 37 38
f 39 46 38
f 39 40 46
f 40 41 43
f 16 38 46
f 40 47 46
f 40 48 47
f 40 42 48
f 40 45 42
f 40 44 45
f 40 43 44
f 69 73 70
f 68 73 69
f 71 73 68
f 65 73 71
f 66 73 65
f 66 67 73
f 97 75 67
f 72 70 73
f 73 67 74
f 74 67 75
f 75 97 76
f 76 97 77
f 77 97 78
f 78 97 79
f 80 79 97
f 80 97 98
f 80 98 99
f 80 99 100
f 80 100 101
f 80 101 102
f 80 102 103
f 80 103 104
f 80 104 105
f 108 109 104
f 112 104 109
f 111 104 112
f 105 104 106
f 106 104 107
f 107 104 110
f 110 104 111