# https://github.com/mikedh/trimesh

o geometry_0
v -0.00776575 -0.01742510 0.04999511 0.54509804 0.71372549 0.60000000
v -0.01823677 -0.01477767 0.04999511 0.54509804 0.71372549 0.60000000
v -0.00776575 -0.02241492 0.04999511 0.54509804 0.71372549 0.60000000
v -0.00776575 -0.01742510 0.00000489 0.54509804 0.71372549 0.60000000
v -0.03439296 -0.01477767 0.04999511 0.54509804 0.71372549 0.60000000
v -0.01823677 -0.01477767 0.00000489 0.54509804 0.71372549 0.60000000
v -0.03439296 -0.02241492 0.04999511 0.54509804 0.71372549 0.60000000
v -0.00776575 -0.02241492 0.00000489 0.54509804 0.71372549 0.60000000
v -0.03439296 -0.01477767 0.00000489 0.54509804 0.71372549 0.60000000
v -0.03439296 -0.02241492 0.00000489 0.54509804 0.71372549 0.60000000
f 1 2 5
f 1 5 7
f 1 7 3
f 1 3 8
f 1 8 4
f 1 4 6
f 1 6 2
f 2 6 9
f 2 9 5
f 3 7 10
f 3 10 8
f 4 8 10
f 4 10 9
f 4 9 6
f 5 9 10
f 5 10 7

o geometry_1
v 0.01881100 0.00275620 0.04999511 0.54117647 0.42352941 0.64313725
v 0.01381162 0.00275620 0.04999511 0.54117647 0.42352941 0.64313725
v 0.01881100 -0.00290766 0.04999511 0.54117647 0.42352941 0.64313725
v 0.01881100 0.00275620 0.00000489 0.54117647 0.42352941 0.64313725
v 0.01266037 -0.00290766 0.04994616 0.54117647 0.42352941 0.64313725
v 0.01266158 -0.00290489 0.04999511 0.54117647 0.42352941 0.64313725
v 0.01381162 0.00275620 0.00000489 0.54117647 0.42352941 0.64313725
v 0.01266278 -0.00290766 0.04999511 0.54117647 0.42352941 0.64313725
v 0.01881100 -0.00290766 0.00000489 0.54117647 0.42352941 0.64313725
v 0.01266037 -0.00290766 0.00000489 0.54117647 0.42352941 0.64313725
f 11 12 16
f 11 16 18
f 11 18 13
f 11 13 19
f 11 19 14
f 11 14 17
f 11 17 12
f 12 15 16
f 12 17 20
f 12 20 15
f 13 18 15
f 13 15 20
f 13 20 19
f 14 19 20
f 14 20 17
f 15 18 16

o geometry_2
v -0.02285909 -0.01136772 0.04999511 0.43529412 0.89019608 0.96078431
v -0.02755341 -0.00462793 0.04999511 0.43529412 0.89019608 0.96078431
v -0.03439557 -0.01136772 0.04999511 0.43529412 0.89019608 0.96078431
v -0.02285909 -0.01136772 0.00000489 0.43529412 0.89019608 0.96078431
v -0.02755341 -0.00462793 0.00000489 0.43529412 0.89019608 0.96078431
v -0.03439557 -0.00462793 0.04999511 0.43529412 0.89019608 0.96078431
v -0.03439557 -0.01136772 0.00000489 0.43529412 0.89019608 0.96078431
v -0.03439557 -0.00462793 0.00000489 0.43529412 0.89019608 0.96078431
f 21 22 26
f 21 26 23
f 21 23 27
f 21 27 24
f 21 24 25
f 21 25 22
f 22 25 28
f 22 28 26
f 23 26 28
f 23 28 27
f 24 27 28
f 24 28 25

o geometry_3
v 0.01881160 -0.00290766 0.04999511 0.38039216 0.78823529 0.52549020
v 0.01881160 -0.00920962 0.04999511 0.38039216 0.78823529 0.52549020
v 0.01881160 -0.00290766 0.00000489 0.38039216 0.78823529 0.52549020
v 0.01266326 -0.00290766 0.04999511 0.38039216 0.78823529 0.52549020
v 0.00914831 -0.00920962 0.04999511 0.38039216 0.78823529 0.52549020
v 0.01881160 -0.00920962 0.00000489 0.38039216 0.78823529 0.52549020
v 0.01266043 -0.00290766 0.00000489 0.38039216 0.78823529 0.52549020
v 0.01266043 -0.00290766 0.04994616 0.38039216 0.78823529 0.52549020
v 0.00914831 -0.00920962 0.00000489 0.38039216 0.78823529 0.52549020
f 29 30 34
f 29 34 31
f 29 31 35
f 29 35 36
f 29 36 32
f 29 32 33
f 29 33 30
f 30 33 37
f 30 37 34
f 31 34 37
f 31 37 35
f 32 36 33
f 33 36 35
f 33 35 37

o geometry_4
v 0.00617606 0.02074630 0.00000489 0.56470588 0.92549020 0.07058824
v -0.00045836 0.02453217 0.00000489 0.56470588 0.92549020 0.07058824
v 0.00617606 0.03081567 0.00000489 0.56470588 0.92549020 0.07058824
v 0.00617606 0.02074630 0.04999511 0.56470588 0.92549020 0.07058824
v -0.00045836 0.02453217 0.04999511 0.56470588 0.92549020 0.07058824
v -0.00045836 0.03081567 0.00000489 0.56470588 0.92549020 0.07058824
v 0.00617606 0.03081567 0.04999511 0.56470588 0.92549020 0.07058824
v -0.00045836 0.03081567 0.04999511 0.56470588 0.92549020 0.07058824
f 38 39 43
f 38 43 40
f 38 40 44
f 38 44 41
f 38 41 42
f 38 42 39
f 39 42 45
f 39 45 43
f 40 43 45
f 40 45 44
f 41 44 45
f 41 45 42

o geometry_5
v 0.00238090 -0.01486478 0.04999511 0.08627451 0.01960784 0.83137255
v -0.00776575 -0.01742510 0.04999511 0.08627451 0.01960784 0.83137255
v 0.00238090 -0.02241567 0.04999511 0.08627451 0.01960784 0.83137255
v 0.00238090 -0.01486478 0.00000489 0.08627451 0.01960784 0.83137255
v -0.00776575 -0.02241567 0.04999511 0.08627451 0.01960784 0.83137255
v -0.00776575 -0.01742510 0.00000489 0.08627451 0.01960784 0.83137255
v 0.00238090 -0.02241567 0.00000489 0.08627451 0.01960784 0.83137255
v -0.00776575 -0.02241567 0.00000489 0.08627451 0.01960784 0.83137255
f 46 47 50
f 46 50 48
f 46 48 52
f 46 52 49
f 46 49 51
f 46 51 47
f 47 51 53
f 47 53 50
f 48 50 53
f 48 53 52
f 49 52 53
f 49 53 51

o geometry_6
v -0.00776677 0.03081567 0.04999511 0.77647059 0.86666667 0.97647059
v -0.01820663 0.03081567 0.04999511 0.77647059 0.86666667 0.97647059
v -0.00776677 0.02582514 0.04999511 0.77647059 0.86666667 0.97647059
v -0.00776677 0.03081567 0.00000489 0.77647059 0.86666667 0.97647059
v -0.01820663 0.02319673 0.04999511 0.77647059 0.86666667 0.97647059
v -0.01820663 0.03081567 0.00000489 0.77647059 0.86666667 0.97647059
v -0.00776677 0.02582514 0.00000489 0.77647059 0.86666667 0.97647059
v -0.01820663 0.02319673 0.00000489 0.77647059 0.86666667 0.97647059
f 54 55 58
f 54 58 56
f 54 56 60
f 54 60 57
f 54 57 59
f 54 59 55
f 55 59 61
f 55 61 58
f 56 58 61
f 56 61 60
f 57 60 61
f 57 61 59

o geometry_7
v -0.03439557 -0.00462793 0.00000489 0.79607843 0.45882353 0.78039216
v -0.03439557 0.00668462 0.00000489 0.79607843 0.45882353 0.78039216
v -0.02755325 -0.00462793 0.00000489 0.79607843 0.45882353 0.78039216
v -0.03439557 -0.00462793 0.04999511 0.79607843 0.45882353 0.78039216
v -0.02929397 0.00668462 0.00000489 0.79607843 0.45882353 0.78039216
v -0.03439557 0.00668462 0.04999511 0.79607843 0.45882353 0.78039216
v -0.02755325 -0.00462793 0.04999511 0.79607843 0.45882353 0.78039216
v -0.02929397 0.00668462 0.04999511 0.79607843 0.45882353 0.78039216
f 62 63 66
f 62 66 64
f 62 64 68
f 62 68 65
f 62 65 67
f 62 67 63
f 63 67 69
f 63 69 66
f 64 66 69
f 64 69 68
f 65 68 69
f 65 69 67

o geometry_8
v -0.01823767 -0.01477733 0.04999511 0.11764706 0.63921569 0.14117647
v -0.02285805 -0.01136972 0.04999511 0.11764706 0.63921569 0.14117647
v -0.03439399 -0.01477733 0.04999511 0.11764706 0.63921569 0.14117647
v -0.01823767 -0.01477733 0.00000489 0.11764706 0.63921569 0.14117647
v -0.02285805 -0.01136972 0.00000489 0.11764706 0.63921569 0.14117647
v -0.02285963 -0.01136872 0.04999511 0.11764706 0.63921569 0.14117647
v -0.03439399 -0.01477733 0.00000489 0.11764706 0.63921569 0.14117647
v -0.03439399 -0.01136872 0.04999511 0.11764706 0.63921569 0.14117647
v -0.02285963 -0.01136872 0.00000489 0.11764706 0.63921569 0.14117647
v -0.03439399 -0.01136872 0.00000489 0.11764706 0.63921569 0.14117647
f 70 71 75
f 70 75 77
f 70 77 72
f 70 72 76
f 70 76 73
f 70 73 74
f 70 74 71
f 71 74 78
f 71 78 75
f 72 77 79
f 72 79 76
f 73 76 79
f 73 79 78
f 73 78 74
f 75 78 79
f 75 79 77

o geometry_9
v 0.01381190 0.00275620 0.00000489 0.94117647 0.52156863 0.41176471
v 0.01174409 0.01346869 0.00000489 0.94117647 0.52156863 0.41176471
v 0.01881091 0.00275620 0.00000489 0.94117647 0.52156863 0.41176471
v 0.01381190 0.00275620 0.04999511 0.94117647 0.52156863 0.41176471
v 0.01881091 0.01346869 0.00000489 0.94117647 0.52156863 0.41176471
v 0.01174409 0.01346869 0.04999511 0.94117647 0.52156863 0.41176471
v 0.01881091 0.00275620 0.04999511 0.94117647 0.52156863 0.41176471
v 0.01881091 0.01346869 0.04999511 0.94117647 0.52156863 0.41176471
f 80 81 84
f 80 84 82
f 80 82 86
f 80 86 83
f 80 83 85
f 80 85 81
f 81 85 87
f 81 87 84
f 82 84 87
f 82 87 86
f 83 86 87
f 83 87 85

o geometry_10
v -0.03439557 0.00668462 0.00000489 0.26274510 0.77254902 0.45490196
v -0.03439557 0.01728408 0.00000489 0.26274510 0.77254902 0.45490196
v -0.02929400 0.00668462 0.00000489 0.26274510 0.77254902 0.45490196
v -0.03439557 0.00668462 0.04999511 0.26274510 0.77254902 0.45490196
v -0.02503200 0.01728408 0.00000489 0.26274510 0.77254902 0.45490196
v -0.03439557 0.01728408 0.04999511 0.26274510 0.77254902 0.45490196
v -0.02929400 0.00668462 0.04999511 0.26274510 0.77254902 0.45490196
v -0.02503200 0.01728408 0.04999511 0.26274510 0.77254902 0.45490196
f 88 89 92
f 88 92 90
f 88 90 94
f 88 94 91
f 88 91 93
f 88 93 89
f 89 93 95
f 89 95 92
f 90 92 95
f 90 95 94
f 91 94 95
f 91 95 93

o geometry_11
v -0.01820663 0.03081567 0.04999511 0.56470588 0.01568627 0.61568627
v -0.03439557 0.03081567 0.04999511 0.56470588 0.01568627 0.61568627
v -0.01820663 0.02319686 0.04999511 0.56470588 0.01568627 0.61568627
v -0.01820663 0.03081567 0.00000489 0.56470588 0.01568627 0.61568627
v -0.03439557 0.01728408 0.04999511 0.56470588 0.01568627 0.61568627
v -0.03439557 0.03081567 0.00000489 0.56470588 0.01568627 0.61568627
v -0.02503336 0.01728408 0.04999511 0.56470588 0.01568627 0.61568627
v -0.01820663 0.02319686 0.00000489 0.56470588 0.01568627 0.61568627
v -0.03439557 0.01728408 0.00000489 0.56470588 0.01568627 0.61568627
v -0.02503336 0.01728408 0.00000489 0.56470588 0.01568627 0.61568627
f 96 97 100
f 96 100 102
f 96 102 98
f 96 98 103
f 96 103 99
f 96 99 101
f 96 101 97
f 97 101 104
f 97 104 100
f 98 102 105
f 98 105 103
f 99 103 105
f 99 105 104
f 99 104 101
f 100 104 105
f 100 105 102

o geometry_12
v -0.00045836 0.03081506 0.04999511 0.61176471 0.61568627 0.94117647
v -0.00776575 0.03081506 0.04999511 0.61176471 0.61568627 0.94117647
v -0.00045836 0.02453151 0.04999511 0.61176471 0.61568627 0.94117647
v -0.00045836 0.03081506 0.00000489 0.61176471 0.61568627 0.94117647
v -0.00776575 0.02582513 0.04999511 0.61176471 0.61568627 0.94117647
v -0.00776575 0.03081506 0.00000489 0.61176471 0.61568627 0.94117647
v -0.00045836 0.02453151 0.00000489 0.61176471 0.61568627 0.94117647
v -0.00776575 0.02582513 0.00000489 0.61176471 0.61568627 0.94117647
f 106 107 110
f 106 110 108
f 106 108 112
f 106 112 109
f 106 109 111
f 106 111 107
f 107 111 113
f 107 113 110
f 108 110 113
f 108 113 112
f 109 112 113
f 109 113 111

o geometry_13
v 0.01881160 -0.00920962 0.04999511 0.67843137 0.35686275 0.43529412
v 0.00914876 -0.00920962 0.04999511 0.67843137 0.35686275 0.43529412
v 0.01881160 -0.02241567 0.04999511 0.67843137 0.35686275 0.43529412
v 0.01881160 -0.00920962 0.00000489 0.67843137 0.35686275 0.43529412
v 0.00238090 -0.01486511 0.04999511 0.67843137 0.35686275 0.43529412
v 0.00914876 -0.00920962 0.00000489 0.67843137 0.35686275 0.43529412
v 0.00238090 -0.02241567 0.04999511 0.67843137 0.35686275 0.43529412
v 0.01881160 -0.02241567 0.00000489 0.67843137 0.35686275 0.43529412
v 0.00238090 -0.01486511 0.00000489 0.67843137 0.35686275 0.43529412
v 0.00238090 -0.02241567 0.00000489 0.67843137 0.35686275 0.43529412
f 114 115 118
f 114 118 120
f 114 120 116
f 114 116 121
f 114 121 117
f 114 117 119
f 114 119 115
f 115 119 122
f 115 122 118
f 116 120 123
f 116 123 121
f 117 121 123
f 117 123 122
f 117 122 119
f 118 122 123
f 118 123 120

o geometry_14
v 0.01174467 0.01347039 0.00000489 0.69411765 0.05882353 0.66666667
v 0.00617794 0.02074641 0.00000489 0.69411765 0.05882353 0.66666667
v 0.01881036 0.01347039 0.00000489 0.69411765 0.05882353 0.66666667
v 0.01174467 0.01347039 0.04999511 0.69411765 0.05882353 0.66666667
v 0.00617794 0.03081397 0.00000489 0.69411765 0.05882353 0.66666667
v 0.00617794 0.02074641 0.04999511 0.69411765 0.05882353 0.66666667
v 0.01881036 0.03081397 0.00000489 0.69411765 0.05882353 0.66666667
v 0.01881036 0.01347039 0.04999511 0.69411765 0.05882353 0.66666667
v 0.00617794 0.03081397 0.04999511 0.69411765 0.05882353 0.66666667
v 0.01881036 0.03081397 0.04999511 0.69411765 0.05882353 0.66666667
f 124 125 128
f 124 128 130
f 124 130 126
f 124 126 131
f 124 131 127
f 124 127 129
f 124 129 125
f 125 129 132
f 125 132 128
f 126 130 133
f 126 133 131
f 127 131 133
f 127 133 132
f 127 132 129
f 128 132 133
f 128 133 130