# https://github.com/mikedh/trimesh
v -0.02230240 -0.06872699 0.00461023 0.11764706 0.63921569 0.14117647
v -0.01211005 -0.07164017 0.00461023 0.11764706 0.63921569 0.14117647
v -0.01219761 -0.08377209 0.00461199 0.11764706 0.63921569 0.14117647
v -0.01699107 -0.09201343 0.01145790 0.11764706 0.63921569 0.14117647
v -0.02230240 -0.06872699 0.00793569 0.11764706 0.63921569 0.14117647
v -0.02230240 -0.05316846 0.00461023 0.11764706 0.63921569 0.14117647
v -0.01211005 -0.06202210 0.00461023 0.11764706 0.63921569 0.14117647
v -0.00615074 -0.08377209 0.00461199 0.11764706 0.63921569 0.14117647
v 0.00308843 -0.09201343 0.01145790 0.11764706 0.63921569 0.14117647
v -0.01699107 -0.09201343 0.01218052 0.11764706 0.63921569 0.14117647
v -0.02230240 -0.05316846 0.00793569 0.11764706 0.63921569 0.14117647
v -0.01686598 -0.09201343 0.01290226 0.11764706 0.63921569 0.14117647
v -0.01661830 -0.09201343 0.01362311 0.11764706 0.63921569 0.14117647
v -0.01540492 -0.05316846 0.00461023 0.11764706 0.63921569 0.14117647
v -0.00615074 -0.06417086 0.00461199 0.11764706 0.63921569 0.14117647
v 0.00325605 -0.08621369 0.01073440 0.11764706 0.63921569 0.14117647
v 0.00313596 -0.09201343 0.01218052 0.11764706 0.63921569 0.14117647
v -0.01331091 -0.06082412 0.01362311 0.11764706 0.63921569 0.14117647
v -0.01540492 -0.05316846 0.00793569 0.11764706 0.63921569 0.14117647
v -0.01661830 -0.08662442 0.01362311 0.11764706 0.63921569 0.14117647
v 0.00308843 -0.09201343 0.01362311 0.11764706 0.63921569 0.14117647
v -0.00569541 -0.06418988 0.01073528 0.11764706 0.63921569 0.14117647
v -0.00157244 -0.07386879 0.01073440 0.11764706 0.63921569 0.14117647
v -0.00157244 -0.07386499 0.01217964 0.11764706 0.63921569 0.14117647
v 0.00325605 -0.08621369 0.01145790 0.11764706 0.63921569 0.14117647
v 0.00313596 -0.09201343 0.01290226 0.11764706 0.63921569 0.14117647
v -0.00573044 -0.06418988 0.01362311 0.11764706 0.63921569 0.14117647
v -0.00569541 -0.06418988 0.01290138 0.11764706 0.63921569 0.14117647
v 0.00308843 -0.08613762 0.01362311 0.11764706 0.63921569 0.14117647
v -0.00157244 -0.07386499 0.01290226 0.11764706 0.63921569 0.14117647
v -0.00157494 -0.07386499 0.01362311 0.11764706 0.63921569 0.14117647
f 1 2 3
f 1 3 4
f 1 4 10
f 1 10 5
f 1 5 11
f 1 11 6
f 1 6 14
f 1 14 7
f 1 7 2
f 2 7 15
f 2 15 8
f 2 8 3
f 3 8 9
f 3 9 4
f 4 9 17
f 4 17 26
f 4 26 21
f 4 21 13
f 4 13 12
f 4 12 10
f 5 10 12
f 5 12 13
f 5 13 20
f 5 20 11
f 6 11 19
f 6 19 14
f 7 14 15
f 8 16 9
f 8 15 16
f 9 16 17
f 11 18 19
f 11 20 18
f 13 21 29
f 13 29 31
f 13 31 27
f 13 27 18
f 13 18 20
f 14 22 15
f 14 19 28
f 14 28 22
f 15 22 23
f 15 23 16
f 16 23 24
f 16 24 30
f 16 30 25
f 16 25 26
f 16 26 17
f 18 27 19
f 19 27 28
f 21 26 25
f 21 25 29
f 22 24 23
f 22 28 30
f 22 30 24
f 25 31 29
f 25 30 31
f 27 31 28
f 28 31 30