# https://github.com/mikedh/trimesh
v -0.01110626 -0.09201723 0.02147209 0.56470588 0.92549020 0.07058824
v -0.00614617 -0.09201723 0.02147209 0.56470588 0.92549020 0.07058824
v -0.01110626 -0.09201723 0.03012150 0.56470588 0.92549020 0.07058824
v -0.01495065 -0.06934150 0.01899592 0.56470588 0.92549020 0.07058824
v -0.01199404 -0.08347516 0.01682927 0.56470588 0.92549020 0.07058824
v -0.01187290 -0.08329887 0.01610705 0.56470588 0.92549020 0.07058824
v -0.01129274 -0.08247393 0.01486552 0.56470588 0.92549020 0.07058824
v -0.00070952 -0.09201723 0.02527921 0.56470588 0.92549020 0.07058824
v -0.00614617 -0.08247393 0.01486552 0.56470588 0.92549020 0.07058824
v -0.00044015 -0.08329887 0.01610705 0.56470588 0.92549020 0.07058824
v -0.01495065 -0.06934150 0.02023745 0.56470588 0.92549020 0.07058824
v -0.00614617 -0.09201723 0.03012150 0.56470588 0.92549020 0.07058824
v -0.00614617 -0.07388529 0.04999968 0.56470588 0.92549020 0.07058824
v -0.01078270 -0.07382874 0.04999624 0.56470588 0.92549020 0.07058824
v -0.01299339 -0.07075187 0.04999624 0.56470588 0.92549020 0.07058824
v -0.01495065 -0.05803523 0.01899592 0.56470588 0.92549020 0.07058824
v -0.01352095 -0.07024959 0.01486896 0.56470588 0.92549020 0.07058824
v -0.01352095 -0.06058321 0.01486896 0.56470588 0.92549020 0.07058824
v -0.01078589 -0.07382874 0.01486552 0.56470588 0.92549020 0.07058824
v -0.00070952 -0.09201723 0.02860141 0.56470588 0.92549020 0.07058824
v -0.00028874 -0.08347516 0.01682927 0.56470588 0.92549020 0.07058824
v 0.00133222 -0.07021965 0.01899592 0.56470588 0.92549020 0.07058824
v -0.00614617 -0.07382874 0.01486552 0.56470588 0.92549020 0.07058824
v -0.00614936 -0.06416902 0.01486896 0.56470588 0.92549020 0.07058824
v -0.00157339 -0.07386533 0.01610705 0.56470588 0.92549020 0.07058824
v 0.00133222 -0.06043686 0.01899592 0.56470588 0.92549020 0.07058824
v -0.01495065 -0.05803523 0.02023745 0.56470588 0.92549020 0.07058824
v -0.00158455 -0.07388529 0.04999968 0.56470588 0.92549020 0.07058824
v -0.00614617 -0.06416902 0.04999968 0.56470588 0.92549020 0.07058824
v -0.01299339 -0.06119526 0.04999624 0.56470588 0.92549020 0.07058824
v 0.00133222 -0.07021965 0.02023401 0.56470588 0.92549020 0.07058824
v 0.00105329 -0.07043254 0.03573416 0.56470588 0.92549020 0.07058824
v 0.00079509 -0.07062879 0.04999968 0.56470588 0.92549020 0.07058824
v 0.00133222 -0.06043686 0.02023401 0.56470588 0.92549020 0.07058824
v 0.00079509 -0.06111210 0.04999968 0.56470588 0.92549020 0.07058824
v 0.00105329 -0.06083934 0.03573416 0.56470588 0.92549020 0.07058824
f 1 2 8
f 1 8 20
f 1 20 12
f 1 12 3
f 1 3 11
f 1 11 4
f 1 4 5
f 1 5 6
f 1 6 7
f 1 7 9
f 1 9 2
f 2 9 10
f 2 10 8
f 3 12 28
f 3 28 13
f 3 13 14
f 3 14 15
f 3 15 11
f 4 16 18
f 4 18 17
f 4 17 6
f 4 6 5
f 4 11 27
f 4 27 16
f 6 17 7
f 7 17 18
f 7 18 19
f 7 19 23
f 7 23 9
f 8 10 21
f 8 21 22
f 8 22 31
f 8 31 20
f 9 23 10
f 10 23 24
f 10 24 25
f 10 25 26
f 10 26 22
f 10 22 21
f 11 15 30
f 11 30 27
f 12 20 28
f 13 28 33
f 13 33 35
f 13 35 29
f 13 29 30
f 13 30 15
f 13 15 14
f 16 26 18
f 16 27 34
f 16 34 26
f 18 24 23
f 18 23 19
f 18 26 24
f 20 31 32
f 20 32 33
f 20 33 28
f 22 26 34
f 22 34 31
f 24 26 25
f 27 30 35
f 27 35 34
f 29 35 30
f 31 34 36
f 31 36 32
f 32 36 35
f 32 35 33
f 34 35 36