# https://github.com/mikedh/trimesh
v 0.02142200 -0.07388621 0.04999968 0.56470588 0.01568627 0.61568627
v 0.01563512 -0.07388621 0.04999968 0.56470588 0.01568627 0.61568627
v 0.02142200 -0.09201723 0.04999968 0.56470588 0.01568627 0.61568627
v 0.02142200 -0.07388621 -0.00000000 0.56470588 0.01568627 0.61568627
v 0.02141662 -0.07386310 0.01146234 0.56470588 0.01568627 0.61568627
v 0.00752165 -0.08704995 0.04999968 0.56470588 0.01568627 0.61568627
v 0.01562615 -0.07386310 0.01146234 0.56470588 0.01568627 0.61568627
v 0.00309628 -0.08614002 0.01362560 0.56470588 0.01568627 0.61568627
v 0.00752165 -0.09201723 0.04999968 0.56470588 0.01568627 0.61568627
v 0.02142200 -0.09201901 0.04666669 0.56470588 0.01568627 0.61568627
v 0.02142200 -0.09201901 -0.00000000 0.56470588 0.01568627 0.61568627
v 0.01563333 -0.07388621 -0.00000000 0.56470588 0.01568627 0.61568627
v 0.02141662 -0.07386310 0.01073799 0.56470588 0.01568627 0.61568627
v 0.01562615 -0.07386310 0.01073799 0.56470588 0.01568627 0.61568627
v 0.00309628 -0.08614002 0.01290614 0.56470588 0.01568627 0.61568627
v 0.00309628 -0.09201723 0.01362560 0.56470588 0.01568627 0.61568627
v 0.00752165 -0.09201901 0.04666669 0.56470588 0.01568627 0.61568627
v 0.00752524 -0.09201901 -0.00000000 0.56470588 0.01568627 0.61568627
v 0.00752524 -0.08704995 -0.00000000 0.56470588 0.01568627 0.61568627
v 0.00310166 -0.08614002 0.01146234 0.56470588 0.01568627 0.61568627
v 0.00309628 -0.09201723 0.01290614 0.56470588 0.01568627 0.61568627
v 0.00560584 -0.09201901 0.01899459 0.56470588 0.01568627 0.61568627
v 0.00560584 -0.09201901 0.01828003 0.56470588 0.01568627 0.61568627
v 0.00310166 -0.09201546 0.01146234 0.56470588 0.01568627 0.61568627
f 1 2 6
f 1 6 9
f 1 9 3
f 1 3 10
f 1 10 11
f 1 11 4
f 1 4 13
f 1 13 5
f 1 5 7
f 1 7 2
f 2 7 8
f 2 8 6
f 3 9 17
f 3 17 10
f 4 11 18
f 4 18 19
f 4 19 12
f 4 12 14
f 4 14 13
f 5 13 14
f 5 14 7
f 6 8 16
f 6 16 9
f 7 14 15
f 7 15 8
f 8 15 21
f 8 21 16
f 9 16 17
f 10 17 22
f 10 22 23
f 10 23 18
f 10 18 11
f 12 19 20
f 12 20 15
f 12 15 14
f 15 20 24
f 15 24 21
f 16 21 23
f 16 23 22
f 16 22 17
f 18 23 21
f 18 21 24
f 18 24 20
f 18 20 19