# https://github.com/mikedh/trimesh
v -0.00076908 -0.04708948 0.02860456 0.43529412 0.89019608 0.96078431
v -0.00076908 -0.04708948 0.03012710 0.43529412 0.89019608 0.96078431
v 0.02142200 -0.04708948 0.02860456 0.43529412 0.89019608 0.96078431
v 0.00055161 -0.07082216 0.02860456 0.43529412 0.89019608 0.96078431
v -0.00038243 -0.04733079 0.04286867 0.43529412 0.89019608 0.96078431
v 0.02142200 -0.04708948 0.03012710 0.43529412 0.89019608 0.96078431
v 0.00055161 -0.07082216 0.03012710 0.43529412 0.89019608 0.96078431
v 0.00056248 -0.07081166 0.04286867 0.43529412 0.89019608 0.96078431
v 0.02142200 -0.07388579 0.02860456 0.43529412 0.89019608 0.96078431
v 0.01563312 -0.07388579 0.02860456 0.43529412 0.89019608 0.96078431
v 0.01563095 -0.07388579 0.03953877 0.43529412 0.89019608 0.96078431
v 0.02141766 -0.04733079 0.04286867 0.43529412 0.89019608 0.96078431
v 0.00080359 -0.07062805 0.04999968 0.43529412 0.89019608 0.96078431
v 0.00080359 -0.06110403 0.04999968 0.43529412 0.89019608 0.96078431
v 0.00105991 -0.04873408 0.04999968 0.43529412 0.89019608 0.96078431
v 0.02142200 -0.04799965 0.04438911 0.43529412 0.89019608 0.96078431
v 0.01563095 -0.07388579 0.04286867 0.43529412 0.89019608 0.96078431
v 0.01563312 -0.07388579 0.04999968 0.43529412 0.89019608 0.96078431
v 0.02142200 -0.07388579 0.03725392 0.43529412 0.89019608 0.96078431
v 0.02142200 -0.04873408 0.04999968 0.43529412 0.89019608 0.96078431
v 0.02141766 -0.07388579 0.04999968 0.43529412 0.89019608 0.96078431
v 0.02142200 -0.05638005 0.04999968 0.43529412 0.89019608 0.96078431
f 1 2 6
f 1 6 3
f 1 3 9
f 1 9 10
f 1 10 4
f 1 4 7
f 1 7 2
f 2 5 12
f 2 12 6
f 2 7 8
f 2 8 5
f 3 6 16
f 3 16 20
f 3 20 22
f 3 22 19
f 3 19 9
f 4 10 11
f 4 11 17
f 4 17 7
f 5 8 13
f 5 13 14
f 5 14 15
f 5 15 20
f 5 20 12
f 6 12 16
f 7 17 18
f 7 18 8
f 8 18 13
f 9 19 21
f 9 21 18
f 9 18 17
f 9 17 11
f 9 11 10
f 12 20 16
f 13 18 21
f 13 21 22
f 13 22 20
f 13 20 15
f 13 15 14
f 19 22 21