# https://github.com/mikedh/trimesh
v -0.03370534 -0.09201723 0.01073799 0.61176471 0.61568627 0.94117647
v -0.03370534 -0.09201545 -0.00000000 0.61176471 0.61568627 0.94117647
v -0.02584186 -0.09201723 0.01073799 0.61176471 0.61568627 0.94117647
v -0.03370534 -0.09201723 0.04999968 0.61176471 0.61568627 0.94117647
v -0.03370534 -0.08302120 -0.00000000 0.61176471 0.61568627 0.94117647
v -0.01885973 -0.09201545 -0.00000000 0.61176471 0.61568627 0.94117647
v -0.01699336 -0.09201723 0.01146234 0.61176471 0.61568627 0.94117647
v -0.01887979 -0.09201723 0.04999968 0.61176471 0.61568627 0.94117647
v -0.03370534 -0.08447602 0.04999968 0.61176471 0.61568627 0.94117647
v -0.03370534 -0.07383108 0.00231498 0.61176471 0.61568627 0.94117647
v -0.03370367 -0.07382930 -0.00000000 0.61176471 0.61568627 0.94117647
v -0.01885973 -0.08704555 -0.00000000 0.61176471 0.61568627 0.94117647
v -0.01662043 -0.09201723 0.01290614 0.61176471 0.61568627 0.94117647
v -0.01887979 -0.08704912 0.04999968 0.61176471 0.61568627 0.94117647
v -0.01662043 -0.09201723 0.01362560 0.61176471 0.61568627 0.94117647
v -0.03370534 -0.07383108 0.04999478 0.61176471 0.61568627 0.94117647
v -0.02583517 -0.08447602 0.04999968 0.61176471 0.61568627 0.94117647
v -0.03370534 -0.07382752 0.03573293 0.61176471 0.61568627 0.94117647
v -0.02794738 -0.07382930 -0.00000000 0.61176471 0.61568627 0.94117647
v -0.03370367 -0.07382752 0.03240973 0.61176471 0.61568627 0.94117647
v -0.01662043 -0.08662353 0.01290614 0.61176471 0.61568627 0.94117647
v -0.02794905 -0.07383108 0.04999478 0.61176471 0.61568627 0.94117647
v -0.01662043 -0.08662353 0.01362560 0.61176471 0.61568627 0.94117647
v -0.03370367 -0.07382930 0.04666669 0.61176471 0.61568627 0.94117647
v -0.03370534 -0.07382752 0.03725504 0.61176471 0.61568627 0.94117647
v -0.02794905 -0.07382752 0.03240973 0.61176471 0.61568627 0.94117647
v -0.02794570 -0.07382930 0.03012412 0.61176471 0.61568627 0.94117647
v -0.02794905 -0.07382930 0.04666669 0.61176471 0.61568627 0.94117647
v -0.02794570 -0.07382930 0.03240973 0.61176471 0.61568627 0.94117647
v -0.02795072 -0.07382752 0.03725504 0.61176471 0.61568627 0.94117647
v -0.02794905 -0.07382752 0.03573293 0.61176471 0.61568627 0.94117647
f 1 2 6
f 1 6 3
f 1 3 7
f 1 7 13
f 1 13 15
f 1 15 8
f 1 8 4
f 1 4 9
f 1 9 16
f 1 16 25
f 1 25 18
f 1 18 10
f 1 10 5
f 1 5 2
f 2 5 11
f 2 11 19
f 2 19 12
f 2 12 6
f 3 6 7
f 4 8 14
f 4 14 17
f 4 17 9
f 5 10 11
f 6 12 21
f 6 21 13
f 6 13 7
f 8 15 23
f 8 23 14
f 9 17 22
f 9 22 16
f 10 18 11
f 11 18 20
f 11 20 26
f 11 26 19
f 12 19 21
f 13 21 23
f 13 23 15
f 14 22 17
f 14 23 22
f 16 24 25
f 16 22 28
f 16 28 24
f 18 25 30
f 18 30 31
f 18 31 26
f 18 26 20
f 19 26 27
f 19 27 21
f 21 27 29
f 21 29 23
f 22 23 28
f 23 29 28
f 24 28 30
f 24 30 25
f 26 31 29
f 26 29 27
f 28 29 31
f 28 31 30