# https://github.com/mikedh/trimesh
v -0.00616885 -0.04540601 0.01146024 0.26274510 0.77254902 0.45490196
v -0.00616885 -0.04540601 0.01218354 0.26274510 0.77254902 0.45490196
v -0.00616885 -0.04040872 0.01146024 0.26274510 0.77254902 0.45490196
v -0.00568542 -0.07386128 0.01073575 0.26274510 0.77254902 0.45490196
v -0.00613915 -0.07386128 0.01754645 0.26274510 0.77254902 0.45490196
v -0.00613644 -0.04539752 0.01899183 0.26274510 0.77254902 0.45490196
v -0.00616885 -0.04040872 0.01218354 0.26274510 0.77254902 0.45490196
v -0.00613915 -0.07386128 0.01826974 0.26274510 0.77254902 0.45490196
v -0.00613644 -0.04040447 0.01754645 0.26274510 0.77254902 0.45490196
v 0.00194960 -0.04040447 0.01074055 0.26274510 0.77254902 0.45490196
v -0.00568542 -0.06418513 0.01073575 0.26274510 0.77254902 0.45490196
v -0.00156408 -0.07386128 0.01073575 0.26274510 0.77254902 0.45490196
v 0.01506174 -0.08253118 0.01362652 0.26274510 0.77254902 0.45490196
v 0.01419750 -0.08377944 0.02023090 0.26274510 0.77254902 0.45490196
v 0.00649766 -0.06828656 0.02298973 0.26274510 0.77254902 0.45490196
v -0.00613644 -0.04040872 0.01899183 0.26274510 0.77254902 0.45490196
v -0.00566381 -0.07386128 0.01899063 0.26274510 0.77254902 0.45490196
v -0.00613644 -0.04040447 0.01826974 0.26274510 0.77254902 0.45490196
v 0.01419750 -0.08377944 0.02146758 0.26274510 0.77254902 0.45490196
v 0.02141930 -0.04040447 0.01074055 0.26274510 0.77254902 0.45490196
v 0.00195500 -0.05955297 0.01073575 0.26274510 0.77254902 0.45490196
v 0.00595751 -0.06830779 0.01073575 0.26274510 0.77254902 0.45490196
v 0.02141930 -0.06977683 0.01074055 0.26274510 0.77254902 0.45490196
v 0.02141930 -0.07386128 0.01146144 0.26274510 0.77254902 0.45490196
v 0.02142200 -0.08253118 0.01362652 0.26274510 0.77254902 0.45490196
v 0.02141660 -0.08377944 0.02023090 0.26274510 0.77254902 0.45490196
v 0.00649766 -0.05319278 0.02298973 0.26274510 0.77254902 0.45490196
v 0.01506174 -0.08253118 0.02298853 0.26274510 0.77254902 0.45490196
v 0.01197478 -0.06966644 0.02298973 0.26274510 0.77254902 0.45490196
v 0.00193069 -0.04040872 0.01899183 0.26274510 0.77254902 0.45490196
v 0.00193880 -0.04040447 0.01898943 0.26274510 0.77254902 0.45490196
v 0.00810461 -0.05318854 0.02298973 0.26274510 0.77254902 0.45490196
v 0.02141660 -0.08377944 0.02146758 0.26274510 0.77254902 0.45490196
v 0.00595751 -0.05955297 0.01073575 0.26274510 0.77254902 0.45490196
v 0.02141930 -0.04040447 0.01826974 0.26274510 0.77254902 0.45490196
v 0.02142200 -0.04040872 0.01146024 0.26274510 0.77254902 0.45490196
v 0.02142200 -0.05008487 0.01146024 0.26274510 0.77254902 0.45490196
v 0.02142200 -0.08332089 0.01827214 0.26274510 0.77254902 0.45490196
v 0.02142200 -0.08253118 0.02298853 0.26274510 0.77254902 0.45490196
v 0.02141930 -0.06966644 0.02298973 0.26274510 0.77254902 0.45490196
v 0.02141660 -0.04040447 0.01898943 0.26274510 0.77254902 0.45490196
v 0.02141930 -0.05318854 0.02298973 0.26274510 0.77254902 0.45490196
v 0.02142200 -0.08332089 0.01899063 0.26274510 0.77254902 0.45490196
v 0.02142200 -0.04718075 0.01682675 0.26274510 0.77254902 0.45490196
v 0.02142200 -0.04040872 0.01218354 0.26274510 0.77254902 0.45490196
v 0.02142200 -0.07388251 0.02298853 0.26274510 0.77254902 0.45490196
f 1 2 7
f 1 7 3
f 1 3 11
f 1 11 4
f 1 4 5
f 1 5 8
f 1 8 2
f 2 6 16
f 2 16 7
f 2 8 6
f 3 7 18
f 3 18 9
f 3 9 10
f 3 10 11
f 4 12 25
f 4 25 13
f 4 13 14
f 4 14 5
f 4 11 21
f 4 21 34
f 4 34 22
f 4 22 12
f 5 14 19
f 5 19 8
f 6 15 27
f 6 27 16
f 6 8 17
f 6 17 15
f 7 16 18
f 8 19 17
f 9 18 31
f 9 31 41
f 9 41 35
f 9 35 20
f 9 20 10
f 10 20 34
f 10 34 21
f 10 21 11
f 12 22 23
f 12 23 24
f 12 24 25
f 13 25 26
f 13 26 14
f 14 26 33
f 14 33 19
f 15 17 28
f 15 28 29
f 15 29 40
f 15 40 42
f 15 42 32
f 15 32 27
f 16 30 41
f 16 41 31
f 16 31 18
f 16 27 32
f 16 32 42
f 16 42 30
f 17 19 28
f 19 33 39
f 19 39 28
f 20 35 45
f 20 45 36
f 20 36 37
f 20 37 23
f 20 23 22
f 20 22 34
f 23 25 24
f 23 37 25
f 25 38 26
f 25 37 36
f 25 36 45
f 25 45 44
f 25 44 46
f 25 46 39
f 25 39 43
f 25 43 38
f 26 38 43
f 26 43 33
f 28 39 40
f 28 40 29
f 30 42 41
f 33 43 39
f 35 41 42
f 35 42 44
f 35 44 45
f 39 46 42
f 39 42 40
f 42 46 44