# https://github.com/mikedh/trimesh
v -0.02296045 -0.09201533 0.01610350 0.54509804 0.71372549 0.60000000
v -0.02796411 -0.09201901 0.01682844 0.54509804 0.71372549 0.60000000
v -0.02296045 -0.08630982 0.01610350 0.54509804 0.71372549 0.60000000
v 0.01280728 -0.09201533 0.01610350 0.54509804 0.71372549 0.60000000
v -0.03370534 -0.09201901 0.02023747 0.54509804 0.71372549 0.60000000
v -0.03370079 -0.09201778 0.01827372 0.54509804 0.71372549 0.60000000
v -0.02796411 -0.08142901 0.01682844 0.54509804 0.71372549 0.60000000
v -0.02053375 -0.09201901 0.01682844 0.54509804 0.71372549 0.60000000
v -0.01186954 -0.08330879 0.01610350 0.54509804 0.71372549 0.60000000
v 0.01280728 -0.08510034 0.01610350 0.54509804 0.71372549 0.60000000
v 0.01280728 -0.09201533 0.01682844 0.54509804 0.71372549 0.60000000
v 0.00939259 -0.09201778 0.01682844 0.54509804 0.71372549 0.60000000
v -0.03370534 -0.08295832 0.02023747 0.54509804 0.71372549 0.60000000
v -0.03370534 -0.09201901 0.03012046 0.54509804 0.71372549 0.60000000
v -0.03370079 -0.08141063 0.01827372 0.54509804 0.71372549 0.60000000
v -0.00614197 -0.07950634 0.03012275 0.54509804 0.71372549 0.60000000
v -0.00219004 -0.07950634 0.03012275 0.54509804 0.71372549 0.60000000
v -0.00044627 -0.08330879 0.01610350 0.54509804 0.71372549 0.60000000
v 0.00560000 -0.09201901 0.01827143 0.54509804 0.71372549 0.60000000
v 0.01280728 -0.08510034 0.01682844 0.54509804 0.71372549 0.60000000
v -0.00219004 -0.07950021 0.03240538 0.54509804 0.71372549 0.60000000
v 0.00751223 -0.09201901 0.03954003 0.54509804 0.71372549 0.60000000
v 0.00751223 -0.09201901 0.03725511 0.54509804 0.71372549 0.60000000
v -0.03370534 -0.08295832 0.03012046 0.54509804 0.71372549 0.60000000
v -0.00614652 -0.09201901 0.03954003 0.54509804 0.71372549 0.60000000
v -0.01887193 -0.09201288 0.03572953 0.54509804 0.71372549 0.60000000
v -0.03370079 -0.08141063 0.01899407 0.54509804 0.71372549 0.60000000
v -0.00614197 -0.07950021 0.03240538 0.54509804 0.71372549 0.60000000
v -0.00219004 -0.07950021 0.03572953 0.54509804 0.71372549 0.60000000
v 0.00751223 -0.08704997 0.03954003 0.54509804 0.71372549 0.60000000
v -0.01887193 -0.08705119 0.03572953 0.54509804 0.71372549 0.60000000
v -0.00614652 -0.08447538 0.03954003 0.54509804 0.71372549 0.60000000
v -0.00614197 -0.07950021 0.03572953 0.54509804 0.71372549 0.60000000
v 0.00055992 -0.08447538 0.03954003 0.54509804 0.71372549 0.60000000
f 1 2 7
f 1 7 3
f 1 3 9
f 1 9 18
f 1 18 10
f 1 10 4
f 1 4 8
f 1 8 2
f 2 5 6
f 2 6 15
f 2 15 7
f 2 8 19
f 2 19 23
f 2 23 22
f 2 22 25
f 2 25 14
f 2 14 5
f 3 7 9
f 4 10 20
f 4 20 11
f 4 11 12
f 4 12 8
f 5 13 15
f 5 15 6
f 5 14 24
f 5 24 13
f 7 15 16
f 7 16 17
f 7 17 18
f 7 18 9
f 8 12 19
f 10 18 17
f 10 17 21
f 10 21 29
f 10 29 20
f 11 20 30
f 11 30 22
f 11 22 12
f 12 22 23
f 12 23 19
f 13 24 27
f 13 27 15
f 14 25 26
f 14 26 31
f 14 31 24
f 15 27 33
f 15 33 28
f 15 28 16
f 16 28 21
f 16 21 17
f 20 29 30
f 21 28 33
f 21 33 29
f 22 30 34
f 22 34 32
f 22 32 25
f 24 31 32
f 24 32 33
f 24 33 27
f 25 32 31
f 25 31 26
f 29 34 30
f 29 33 32
f 29 32 34