# https://github.com/mikedh/trimesh
v 0.02141930 -0.04040447 0.01073212 0.94117647 0.52156863 0.41176471
v 0.02141930 -0.04040447 -0.00000000 0.94117647 0.52156863 0.41176471
v -0.00614302 -0.04040447 0.01290336 0.94117647 0.52156863 0.41176471
v -0.01112884 -0.04678873 0.01362488 0.94117647 0.52156863 0.41176471
v 0.02141930 -0.06978256 0.01145498 0.94117647 0.52156863 0.41176471
v 0.02141930 -0.07388579 -0.00000000 0.94117647 0.52156863 0.41176471
v -0.00614302 -0.04040447 -0.00000000 0.94117647 0.52156863 0.41176471
v -0.01263430 -0.04040447 0.01290336 0.94117647 0.52156863 0.41176471
v -0.01331419 -0.07044458 0.01362354 0.94117647 0.52156863 0.41176471
v 0.02141930 -0.07385957 0.01145498 0.94117647 0.52156863 0.41176471
v -0.03370534 -0.04678873 0.01362488 0.94117647 0.52156863 0.41176471
v -0.02168864 -0.06856339 0.01362488 0.94117647 0.52156863 0.41176471
v 0.02141930 -0.07388579 0.01073079 0.94117647 0.52156863 0.41176471
v 0.01562409 -0.07388579 -0.00000000 0.94117647 0.52156863 0.41176471
v -0.03370534 -0.04041102 -0.00000000 0.94117647 0.52156863 0.41176471
v -0.03370534 -0.04040447 0.00461053 0.94117647 0.52156863 0.41176471
v -0.03370534 -0.04040447 0.01290202 0.94117647 0.52156863 0.41176471
v -0.02796409 -0.07386285 0.01362488 0.94117647 0.52156863 0.41176471
v -0.03370534 -0.07386285 0.01362488 0.94117647 0.52156863 0.41176471
v 0.01562949 -0.07388579 0.01073079 0.94117647 0.52156863 0.41176471
v 0.01562409 -0.07388579 0.00461320 0.94117647 0.52156863 0.41176471
v -0.03370534 -0.07386285 0.01073612 0.94117647 0.52156863 0.41176471
v -0.03369994 -0.07382352 -0.00000000 0.94117647 0.52156863 0.41176471
v -0.03370534 -0.05276988 -0.00000000 0.94117647 0.52156863 0.41176471
v -0.03370534 -0.07382352 0.00230860 0.94117647 0.52156863 0.41176471
f 1 2 7
f 1 7 16
f 1 16 17
f 1 17 8
f 1 8 3
f 1 3 4
f 1 4 5
f 1 5 10
f 1 10 13
f 1 13 6
f 1 6 2
f 2 6 14
f 2 14 23
f 2 23 24
f 2 24 15
f 2 15 7
f 3 8 11
f 3 11 4
f 4 9 10
f 4 10 5
f 4 11 19
f 4 19 18
f 4 18 12
f 4 12 9
f 6 13 20
f 6 20 21
f 6 21 14
f 7 15 16
f 8 17 11
f 9 12 18
f 9 18 10
f 10 18 13
f 11 17 16
f 11 16 15
f 11 15 24
f 11 24 25
f 11 25 22
f 11 22 19
f 13 18 19
f 13 19 20
f 14 21 19
f 14 19 22
f 14 22 23
f 19 21 20
f 22 25 23
f 23 25 24