# https://github.com/mikedh/trimesh
v 0.02141660 -0.04040447 0.02527238 0.77647059 0.86666667 0.97647059
v 0.02142200 -0.04864554 0.02860237 0.77647059 0.86666667 0.97647059
v 0.02142200 -0.04759683 0.02299060 0.77647059 0.86666667 0.97647059
v 0.02142200 -0.04733359 0.02023527 0.77647059 0.86666667 0.97647059
v 0.02141660 -0.04040447 0.01899326 0.77647059 0.86666667 0.97647059
v -0.00614707 -0.04040447 0.03012244 0.77647059 0.86666667 0.97647059
v 0.02142200 -0.07859108 0.02860237 0.77647059 0.86666667 0.97647059
v 0.02142200 -0.04733359 0.01899326 0.77647059 0.86666667 0.97647059
v -0.00615246 -0.04040872 0.01290625 0.77647059 0.86666667 0.97647059
v -0.00615246 -0.04040447 0.01486785 0.77647059 0.86666667 0.97647059
v -0.03369994 -0.04040447 0.03012244 0.77647059 0.86666667 0.97647059
v -0.00614707 -0.04540176 0.03012244 0.77647059 0.86666667 0.97647059
v 0.02141660 -0.08377944 0.02860237 0.77647059 0.86666667 0.97647059
v 0.02142200 -0.07859533 0.02527238 0.77647059 0.86666667 0.97647059
v 0.02142200 -0.05318854 0.01899326 0.77647059 0.86666667 0.97647059
v -0.00615246 -0.04540176 0.01290625 0.77647059 0.86666667 0.97647059
v -0.03370534 -0.04040872 0.01290625 0.77647059 0.86666667 0.97647059
v -0.03370534 -0.04040447 0.01486785 0.77647059 0.86666667 0.97647059
v -0.03370534 -0.04040447 0.02299060 0.77647059 0.86666667 0.97647059
v -0.03370534 -0.04040872 0.02860069 0.77647059 0.86666667 0.97647059
v -0.03370534 -0.05107413 0.02860237 0.77647059 0.86666667 0.97647059
v -0.03369994 -0.05628796 0.03012244 0.77647059 0.86666667 0.97647059
v -0.01541770 -0.05628796 0.03012244 0.77647059 0.86666667 0.97647059
v 0.01419112 -0.08377944 0.02860237 0.77647059 0.86666667 0.97647059
v 0.02141660 -0.08377944 0.02527407 0.77647059 0.86666667 0.97647059
v 0.02142200 -0.07859533 0.02299060 0.77647059 0.86666667 0.97647059
v 0.02141660 -0.07388251 0.01899495 0.77647059 0.86666667 0.97647059
v -0.01113853 -0.04678589 0.01290625 0.77647059 0.86666667 0.97647059
v -0.03370534 -0.04678589 0.01290625 0.77647059 0.86666667 0.97647059
v -0.03370534 -0.05947655 0.02860237 0.77647059 0.86666667 0.97647059
v -0.02055486 -0.06831628 0.02860237 0.77647059 0.86666667 0.97647059
v 0.01419112 -0.08377944 0.02527407 0.77647059 0.86666667 0.97647059
v -0.02187153 -0.06860924 0.02527407 0.77647059 0.86666667 0.97647059
v 0.01562651 -0.07388251 0.01899495 0.77647059 0.86666667 0.97647059
v -0.02187153 -0.06860924 0.02299060 0.77647059 0.86666667 0.97647059
v -0.03370534 -0.04788555 0.01362921 0.77647059 0.86666667 0.97647059
v 0.00133203 -0.07021415 0.01899495 0.77647059 0.86666667 0.97647059
v -0.03370534 -0.06016012 0.02527407 0.77647059 0.86666667 0.97647059
v -0.03370534 -0.06016012 0.02299060 0.77647059 0.86666667 0.97647059
f 1 2 3
f 1 3 4
f 1 4 8
f 1 8 5
f 1 5 10
f 1 10 18
f 1 18 19
f 1 19 11
f 1 11 6
f 1 6 2
f 2 7 14
f 2 14 26
f 2 26 15
f 2 15 8
f 2 8 4
f 2 4 3
f 2 6 12
f 2 12 7
f 5 8 9
f 5 9 10
f 6 11 22
f 6 22 23
f 6 23 12
f 7 12 13
f 7 13 14
f 8 15 16
f 8 16 9
f 9 16 28
f 9 28 29
f 9 29 17
f 9 17 18
f 9 18 10
f 11 19 20
f 11 20 21
f 11 21 30
f 11 30 22
f 12 23 13
f 13 23 22
f 13 22 24
f 13 24 32
f 13 32 25
f 13 25 26
f 13 26 14
f 15 26 27
f 15 27 16
f 16 27 28
f 17 29 36
f 17 36 39
f 17 39 38
f 17 38 30
f 17 30 21
f 17 21 20
f 17 20 19
f 17 19 18
f 22 30 31
f 22 31 24
f 24 31 33
f 24 33 35
f 24 35 32
f 25 32 34
f 25 34 27
f 25 27 26
f 27 34 29
f 27 29 28
f 29 35 36
f 29 34 37
f 29 37 35
f 30 38 33
f 30 33 31
f 32 37 34
f 32 35 37
f 33 38 39
f 33 39 35
f 35 39 36