# https://github.com/mikedh/trimesh
v -0.01887553 -0.09201290 0.00230977 0.38039216 0.78823529 0.52549020
v -0.01885228 -0.09201290 -0.00000000 0.38039216 0.78823529 0.52549020
v -0.01887295 -0.09201901 0.00793286 0.38039216 0.78823529 0.52549020
v -0.01887553 -0.09201290 0.00461008 0.38039216 0.78823529 0.52549020
v -0.01887553 -0.08704790 0.00230977 0.38039216 0.78823529 0.52549020
v -0.01111458 -0.09201901 -0.00000000 0.38039216 0.78823529 0.52549020
v -0.01885228 -0.08704485 -0.00000000 0.38039216 0.78823529 0.52549020
v -0.01887295 -0.09201901 0.01073338 0.38039216 0.78823529 0.52549020
v -0.01887295 -0.08879145 0.01073548 0.38039216 0.78823529 0.52549020
v -0.01887553 -0.08704790 0.00461008 0.38039216 0.78823529 0.52549020
v -0.00614385 -0.06416796 -0.00000000 0.38039216 0.78823529 0.52549020
v -0.00070550 -0.09201901 -0.00000000 0.38039216 0.78823529 0.52549020
v -0.00614385 -0.09201901 0.01073128 0.38039216 0.78823529 0.52549020
v 0.00751791 -0.09201596 0.01073338 0.38039216 0.78823529 0.52549020
v -0.00613610 -0.09201596 0.01073548 0.38039216 0.78823529 0.52549020
v -0.01887295 -0.08704485 0.01073548 0.38039216 0.78823529 0.52549020
v -0.00614385 -0.06416796 0.01073548 0.38039216 0.78823529 0.52549020
v 0.00106164 -0.06082742 0.00793286 0.38039216 0.78823529 0.52549020
v 0.00105389 -0.06083658 0.00461113 0.38039216 0.78823529 0.52549020
v 0.00079554 -0.06111140 0.00230977 0.38039216 0.78823529 0.52549020
v -0.00038256 -0.06223203 -0.00000000 0.38039216 0.78823529 0.52549020
v -0.00070550 -0.09201901 0.00230556 0.38039216 0.78823529 0.52549020
v 0.00751791 -0.09201596 -0.00000000 0.38039216 0.78823529 0.52549020
v 0.00751791 -0.08705095 0.01073548 0.38039216 0.78823529 0.52549020
v 0.00106164 -0.06082742 0.01073548 0.38039216 0.78823529 0.52549020
v 0.00751791 -0.08704790 -0.00000000 0.38039216 0.78823529 0.52549020
v 0.00751791 -0.08704790 0.01073548 0.38039216 0.78823529 0.52549020
f 1 2 3
f 1 3 8
f 1 8 4
f 1 4 10
f 1 10 5
f 1 5 7
f 1 7 2
f 2 6 3
f 2 7 11
f 2 11 21
f 2 21 26
f 2 26 23
f 2 23 12
f 2 12 6
f 3 6 12
f 3 12 22
f 3 22 13
f 3 13 8
f 4 9 16
f 4 16 10
f 4 8 9
f 5 10 17
f 5 17 11
f 5 11 7
f 8 13 14
f 8 14 15
f 8 15 9
f 9 15 24
f 9 24 27
f 9 27 25
f 9 25 17
f 9 17 16
f 10 16 17
f 11 17 25
f 11 25 18
f 11 18 19
f 11 19 20
f 11 20 21
f 12 23 14
f 12 14 22
f 13 22 14
f 14 23 26
f 14 26 27
f 14 27 24
f 14 24 15
f 18 26 19
f 18 25 27
f 18 27 26
f 19 26 20
f 20 26 21