# https://github.com/mikedh/trimesh
v 0.02141930 -0.04040447 0.03573537 0.08627451 0.01960784 0.83137255
v 0.02141930 -0.05477787 0.03573537 0.08627451 0.01960784 0.83137255
v 0.02142200 -0.04799920 0.03240652 0.08627451 0.01960784 0.83137255
v 0.02141930 -0.04040447 0.02527472 0.08627451 0.01960784 0.83137255
v -0.00614070 -0.04040447 0.03573537 0.08627451 0.01960784 0.83137255
v 0.00322765 -0.05477787 0.03573537 0.08627451 0.01960784 0.83137255
v 0.02142200 -0.05637560 0.03240652 0.08627451 0.01960784 0.83137255
v 0.02142200 -0.04799920 0.03012414 0.08627451 0.01960784 0.83137255
v 0.02141930 -0.04864174 0.02527472 0.08627451 0.01960784 0.83137255
v -0.00613800 -0.04040447 0.02527472 0.08627451 0.01960784 0.83137255
v -0.00614070 -0.04040447 0.03240652 0.08627451 0.01960784 0.83137255
v -0.00614070 -0.04539779 0.03573537 0.08627451 0.01960784 0.83137255
v 0.00309274 -0.05637560 0.03240652 0.08627451 0.01960784 0.83137255
v 0.02142200 -0.05637560 0.03012414 0.08627451 0.01960784 0.83137255
v 0.00100159 -0.04864174 0.02527472 0.08627451 0.01960784 0.83137255
v -0.00613800 -0.04539623 0.02527472 0.08627451 0.01960784 0.83137255
v -0.00614070 -0.04539779 0.03240652 0.08627451 0.01960784 0.83137255
v 0.00309274 -0.05637560 0.03012414 0.08627451 0.01960784 0.83137255
f 1 2 7
f 1 7 3
f 1 3 8
f 1 8 4
f 1 4 10
f 1 10 11
f 1 11 5
f 1 5 12
f 1 12 6
f 1 6 2
f 2 6 13
f 2 13 7
f 3 7 14
f 3 14 8
f 4 8 14
f 4 14 9
f 4 9 15
f 4 15 16
f 4 16 10
f 5 11 17
f 5 17 12
f 6 12 13
f 7 13 18
f 7 18 14
f 9 14 18
f 9 18 15
f 10 16 17
f 10 17 11
f 12 17 18
f 12 18 13
f 15 18 16
f 16 18 17