# https://github.com/mikedh/trimesh
v -0.01499907 -0.05788492 0.03954003 0.67843137 0.35686275 0.43529412
v -0.01541645 -0.05629261 0.03012471 0.67843137 0.35686275 0.43529412
v -0.02187148 -0.05788492 0.03954003 0.67843137 0.35686275 0.43529412
v -0.01352472 -0.06058213 0.03954003 0.67843137 0.35686275 0.43529412
v -0.02187148 -0.05629261 0.03012471 0.67843137 0.35686275 0.43529412
v -0.01349438 -0.06061636 0.03725445 0.67843137 0.35686275 0.43529412
v -0.01349438 -0.06061499 0.03240923 0.67843137 0.35686275 0.43529412
v -0.01541645 -0.05629261 0.02860456 0.67843137 0.35686275 0.43529412
v -0.02187148 -0.06861488 0.03954003 0.67843137 0.35686275 0.43529412
v -0.01352472 -0.07025101 0.03954003 0.67843137 0.35686275 0.43529412
v -0.02187148 -0.05629261 0.02860456 0.67843137 0.35686275 0.43529412
v -0.01349438 -0.07027839 0.03725445 0.67843137 0.35686275 0.43529412
v -0.01349438 -0.06061499 0.03012471 0.67843137 0.35686275 0.43529412
v -0.01358621 -0.06050683 0.02860456 0.67843137 0.35686275 0.43529412
v -0.02187148 -0.06861488 0.03725552 0.67843137 0.35686275 0.43529412
v -0.01349438 -0.07027976 0.03573430 0.67843137 0.35686275 0.43529412
v -0.02187148 -0.06861352 0.02860456 0.67843137 0.35686275 0.43529412
v -0.01349438 -0.07027976 0.03012471 0.67843137 0.35686275 0.43529412
v -0.01358621 -0.07019214 0.02860456 0.67843137 0.35686275 0.43529412
f 1 2 5
f 1 5 3
f 1 3 9
f 1 9 10
f 1 10 4
f 1 4 2
f 2 4 6
f 2 6 7
f 2 7 13
f 2 13 8
f 2 8 11
f 2 11 5
f 3 5 11
f 3 11 17
f 3 17 15
f 3 15 9
f 4 10 12
f 4 12 6
f 6 12 16
f 6 16 18
f 6 18 13
f 6 13 7
f 8 14 19
f 8 19 17
f 8 17 11
f 8 13 14
f 9 15 18
f 9 18 16
f 9 16 12
f 9 12 10
f 13 18 19
f 13 19 14
f 15 17 18
f 17 19 18