# https://github.com/mikedh/trimesh
v -0.03370102 -0.07386310 0.01610697 0.67058824 0.20784314 0.12549020
v -0.03370102 -0.07382241 0.01362884 0.67058824 0.20784314 0.12549020
v -0.02796067 -0.07386310 0.01610697 0.67058824 0.20784314 0.12549020
v -0.03370102 -0.07386310 0.01827177 0.67058824 0.20784314 0.12549020
v -0.03370534 -0.07382750 0.03953883 0.67058824 0.20784314 0.12549020
v -0.03370534 -0.07382241 0.02860444 0.67058824 0.20784314 0.12549020
v -0.03370102 -0.05470281 0.01362528 0.67058824 0.20784314 0.12549020
v -0.02794121 -0.07382241 0.01362884 0.67058824 0.20784314 0.12549020
v -0.03370318 -0.05955519 0.01827533 0.67058824 0.20784314 0.12549020
v -0.01161745 -0.07234483 0.01362884 0.67058824 0.20784314 0.12549020
v -0.02796067 -0.07386310 0.01899456 0.67058824 0.20784314 0.12549020
v -0.03369885 -0.07386310 0.01899456 0.67058824 0.20784314 0.12549020
v -0.03370102 -0.07382750 0.04999968 0.67058824 0.20784314 0.12549020
v -0.03370534 -0.07382750 0.04438828 0.67058824 0.20784314 0.12549020
v -0.03370534 -0.05629738 0.02860444 0.67058824 0.20784314 0.12549020
v -0.01556542 -0.05470281 0.01362528 0.67058824 0.20784314 0.12549020
v -0.03370102 -0.04788201 0.01362528 0.67058824 0.20784314 0.12549020
v -0.03370318 -0.05106607 0.01827533 0.67058824 0.20784314 0.12549020
v -0.01254931 -0.04788201 0.01362528 0.67058824 0.20784314 0.12549020
v -0.01161745 -0.06239846 0.01362884 0.67058824 0.20784314 0.12549020
v -0.01161745 -0.07234483 0.01487147 0.67058824 0.20784314 0.12549020
v -0.02794338 -0.07382750 0.04999968 0.67058824 0.20784314 0.12549020
v -0.03370318 -0.06015029 0.04999968 0.67058824 0.20784314 0.12549020
v -0.03370534 -0.04871617 0.04438828 0.67058824 0.20784314 0.12549020
v -0.03370534 -0.04871617 0.04286793 0.67058824 0.20784314 0.12549020
v -0.03370102 -0.04788201 0.01487147 0.67058824 0.20784314 0.12549020
v -0.03370318 -0.04947149 0.02147269 0.67058824 0.20784314 0.12549020
v -0.01254931 -0.04788201 0.01487147 0.67058824 0.20784314 0.12549020
v -0.01161745 -0.06239846 0.01487147 0.67058824 0.20784314 0.12549020
v -0.01242175 -0.07129704 0.04286793 0.67058824 0.20784314 0.12549020
v -0.01300335 -0.07074771 0.04999968 0.67058824 0.20784314 0.12549020
v -0.03370318 -0.05107370 0.04999968 0.67058824 0.20784314 0.12549020
v -0.01329956 -0.04871617 0.04438828 0.67058824 0.20784314 0.12549020
v -0.03370102 -0.04798628 0.02147269 0.67058824 0.20784314 0.12549020
v -0.01266823 -0.04798628 0.02147269 0.67058824 0.20784314 0.12549020
v -0.01242175 -0.06177538 0.04286793 0.67058824 0.20784314 0.12549020
v -0.01300335 -0.06119808 0.04999968 0.67058824 0.20784314 0.12549020
v -0.01481086 -0.05107370 0.04999968 0.67058824 0.20784314 0.12549020
f 1 2 8
f 1 8 3
f 1 3 11
f 1 11 12
f 1 12 4
f 1 4 14
f 1 14 5
f 1 5 6
f 1 6 2
f 2 7 16
f 2 16 8
f 2 6 9
f 2 9 7
f 3 8 10
f 3 10 21
f 3 21 11
f 4 12 13
f 4 13 14
f 5 14 24
f 5 24 25
f 5 25 15
f 5 15 6
f 6 15 18
f 6 18 9
f 7 9 18
f 7 18 17
f 7 17 19
f 7 19 16
f 8 16 10
f 10 16 19
f 10 19 20
f 10 20 29
f 10 29 21
f 11 21 22
f 11 22 13
f 11 13 12
f 13 22 31
f 13 31 37
f 13 37 38
f 13 38 32
f 13 32 23
f 13 23 14
f 14 23 32
f 14 32 24
f 15 25 18
f 17 26 28
f 17 28 19
f 17 18 27
f 17 27 25
f 17 25 24
f 17 24 26
f 18 25 27
f 19 28 29
f 19 29 20
f 21 29 36
f 21 36 30
f 21 30 22
f 22 30 31
f 24 32 38
f 24 38 33
f 24 33 35
f 24 35 34
f 24 34 26
f 26 34 35
f 26 35 28
f 28 35 29
f 29 35 36
f 30 36 37
f 30 37 31
f 33 38 37
f 33 37 36
f 33 36 35