# https://github.com/mikedh/trimesh
v -0.00613726 -0.07382752 0.04286827 0.79607843 0.45882353 0.78039216
v -0.00613726 -0.07382752 0.03954131 0.79607843 0.45882353 0.78039216
v -0.01078608 -0.07382752 0.04286827 0.79607843 0.45882353 0.78039216
v -0.00614501 -0.07382930 0.04999828 0.79607843 0.45882353 0.78039216
v -0.00158663 -0.07388806 0.04999828 0.79607843 0.45882353 0.78039216
v -0.00158405 -0.07388628 0.03954131 0.79607843 0.45882353 0.78039216
v -0.00158405 -0.07388628 0.03725865 0.79607843 0.45882353 0.78039216
v -0.00614501 -0.07383108 0.03573687 0.79607843 0.45882353 0.78039216
v -0.01078608 -0.07382752 0.03954131 0.79607843 0.45882353 0.78039216
v -0.01887695 -0.08705090 0.03954131 0.79607843 0.45882353 0.78039216
v -0.01078608 -0.07382930 0.04999828 0.79607843 0.45882353 0.78039216
v 0.00751720 -0.08705090 0.04999828 0.79607843 0.45882353 0.78039216
v 0.00752237 -0.08705090 0.04286967 0.79607843 0.45882353 0.78039216
v -0.00158405 -0.07389162 0.03573687 0.79607843 0.45882353 0.78039216
v 0.00752237 -0.08705090 0.03954131 0.79607843 0.45882353 0.78039216
v -0.01078091 -0.07383108 0.03573687 0.79607843 0.45882353 0.78039216
v -0.01887436 -0.08705090 0.03573687 0.79607843 0.45882353 0.78039216
v -0.01887695 -0.08705090 0.03725865 0.79607843 0.45882353 0.78039216
v -0.01887695 -0.09201367 0.03954131 0.79607843 0.45882353 0.78039216
v -0.01887436 -0.08705090 0.04999828 0.79607843 0.45882353 0.78039216
v 0.00751720 -0.09201545 0.04999828 0.79607843 0.45882353 0.78039216
v 0.00752237 -0.09201545 0.04286967 0.79607843 0.45882353 0.78039216
v 0.00055301 -0.08446356 0.03573687 0.79607843 0.45882353 0.78039216
v 0.00752237 -0.09201545 0.03954131 0.79607843 0.45882353 0.78039216
v -0.01887436 -0.09201367 0.03573687 0.79607843 0.45882353 0.78039216
v -0.01887695 -0.09201367 0.03725865 0.79607843 0.45882353 0.78039216
v -0.01887436 -0.09201545 0.04999828 0.79607843 0.45882353 0.78039216
v -0.00614501 -0.09201901 0.04438865 0.79607843 0.45882353 0.78039216
v 0.00055301 -0.09201189 0.03573687 0.79607843 0.45882353 0.78039216
v -0.00614501 -0.09201901 0.04286827 0.79607843 0.45882353 0.78039216
v -0.00614501 -0.09201545 0.03725865 0.79607843 0.45882353 0.78039216
v -0.01220218 -0.09201367 0.03573687 0.79607843 0.45882353 0.78039216
v -0.01110651 -0.09201545 0.03725865 0.79607843 0.45882353 0.78039216
v -0.01110651 -0.09201901 0.04286827 0.79607843 0.45882353 0.78039216
v -0.01886919 -0.09201545 0.03954131 0.79607843 0.45882353 0.78039216
v -0.01887436 -0.09201545 0.04286967 0.79607843 0.45882353 0.78039216
v -0.01110651 -0.09201901 0.04438865 0.79607843 0.45882353 0.78039216
f 1 2 9
f 1 9 3
f 1 3 11
f 1 11 4
f 1 4 5
f 1 5 6
f 1 6 7
f 1 7 2
f 2 7 8
f 2 8 16
f 2 16 9
f 3 9 18
f 3 18 10
f 3 10 11
f 4 11 20
f 4 20 27
f 4 27 21
f 4 21 12
f 4 12 5
f 5 12 13
f 5 13 6
f 6 13 15
f 6 15 7
f 7 14 8
f 7 15 14
f 8 14 23
f 8 23 29
f 8 29 32
f 8 32 25
f 8 25 17
f 8 17 16
f 9 16 17
f 9 17 18
f 10 18 26
f 10 26 19
f 10 19 27
f 10 27 20
f 10 20 11
f 12 21 22
f 12 22 13
f 13 22 24
f 13 24 15
f 14 15 23
f 15 24 29
f 15 29 23
f 17 25 26
f 17 26 18
f 19 26 36
f 19 36 27
f 21 27 37
f 21 37 28
f 21 28 22
f 22 28 30
f 22 30 24
f 24 30 31
f 24 31 29
f 25 32 31
f 25 31 33
f 25 33 34
f 25 34 35
f 25 35 26
f 26 35 36
f 27 36 34
f 27 34 37
f 28 37 34
f 28 34 30
f 29 31 32
f 30 34 33
f 30 33 31
f 34 36 35