# https://github.com/mikedh/trimesh

o geometry_0
v -0.02296045 -0.09201533 0.01610350 0.54509804 0.71372549 0.60000000
v -0.02796411 -0.09201901 0.01682844 0.54509804 0.71372549 0.60000000
v -0.02296045 -0.08630982 0.01610350 0.54509804 0.71372549 0.60000000
v 0.01280728 -0.09201533 0.01610350 0.54509804 0.71372549 0.60000000
v -0.03370534 -0.09201901 0.02023747 0.54509804 0.71372549 0.60000000
v -0.03370079 -0.09201778 0.01827372 0.54509804 0.71372549 0.60000000
v -0.02796411 -0.08142901 0.01682844 0.54509804 0.71372549 0.60000000
v -0.02053375 -0.09201901 0.01682844 0.54509804 0.71372549 0.60000000
v -0.01186954 -0.08330879 0.01610350 0.54509804 0.71372549 0.60000000
v 0.01280728 -0.08510034 0.01610350 0.54509804 0.71372549 0.60000000
v 0.01280728 -0.09201533 0.01682844 0.54509804 0.71372549 0.60000000
v 0.00939259 -0.09201778 0.01682844 0.54509804 0.71372549 0.60000000
v -0.03370534 -0.08295832 0.02023747 0.54509804 0.71372549 0.60000000
v -0.03370534 -0.09201901 0.03012046 0.54509804 0.71372549 0.60000000
v -0.03370079 -0.08141063 0.01827372 0.54509804 0.71372549 0.60000000
v -0.00614197 -0.07950634 0.03012275 0.54509804 0.71372549 0.60000000
v -0.00219004 -0.07950634 0.03012275 0.54509804 0.71372549 0.60000000
v -0.00044627 -0.08330879 0.01610350 0.54509804 0.71372549 0.60000000
v 0.00560000 -0.09201901 0.01827143 0.54509804 0.71372549 0.60000000
v 0.01280728 -0.08510034 0.01682844 0.54509804 0.71372549 0.60000000
v -0.00219004 -0.07950021 0.03240538 0.54509804 0.71372549 0.60000000
v 0.00751223 -0.09201901 0.03954003 0.54509804 0.71372549 0.60000000
v 0.00751223 -0.09201901 0.03725511 0.54509804 0.71372549 0.60000000
v -0.03370534 -0.08295832 0.03012046 0.54509804 0.71372549 0.60000000
v -0.00614652 -0.09201901 0.03954003 0.54509804 0.71372549 0.60000000
v -0.01887193 -0.09201288 0.03572953 0.54509804 0.71372549 0.60000000
v -0.03370079 -0.08141063 0.01899407 0.54509804 0.71372549 0.60000000
v -0.00614197 -0.07950021 0.03240538 0.54509804 0.71372549 0.60000000
v -0.00219004 -0.07950021 0.03572953 0.54509804 0.71372549 0.60000000
v 0.00751223 -0.08704997 0.03954003 0.54509804 0.71372549 0.60000000
v -0.01887193 -0.08705119 0.03572953 0.54509804 0.71372549 0.60000000
v -0.00614652 -0.08447538 0.03954003 0.54509804 0.71372549 0.60000000
v -0.00614197 -0.07950021 0.03572953 0.54509804 0.71372549 0.60000000
v 0.00055992 -0.08447538 0.03954003 0.54509804 0.71372549 0.60000000
f 1 2 7
f 1 7 3
f 1 3 9
f 1 9 18
f 1 18 10
f 1 10 4
f 1 4 8
f 1 8 2
f 2 5 6
f 2 6 15
f 2 15 7
f 2 8 19
f 2 19 23
f 2 23 22
f 2 22 25
f 2 25 14
f 2 14 5
f 3 7 9
f 4 10 20
f 4 20 11
f 4 11 12
f 4 12 8
f 5 13 15
f 5 15 6
f 5 14 24
f 5 24 13
f 7 15 16
f 7 16 17
f 7 17 18
f 7 18 9
f 8 12 19
f 10 18 17
f 10 17 21
f 10 21 29
f 10 29 20
f 11 20 30
f 11 30 22
f 11 22 12
f 12 22 23
f 12 23 19
f 13 24 27
f 13 27 15
f 14 25 26
f 14 26 31
f 14 31 24
f 15 27 33
f 15 33 28
f 15 28 16
f 16 28 21
f 16 21 17
f 20 29 30
f 21 28 33
f 21 33 29
f 22 30 34
f 22 34 32
f 22 32 25
f 24 31 32
f 24 32 33
f 24 33 27
f 25 32 31
f 25 31 26
f 29 34 30
f 29 33 32
f 29 32 34

o geometry_1
v -0.03369994 -0.05849179 0.03012552 0.54117647 0.42352941 0.64313725
v -0.03370534 -0.05850596 0.03573549 0.54117647 0.42352941 0.64313725
v -0.03369994 -0.04939762 0.03012552 0.54117647 0.42352941 0.64313725
v -0.01480793 -0.05849179 0.03012552 0.54117647 0.42352941 0.64313725
v -0.03370534 -0.05850596 0.03725858 0.54117647 0.42352941 0.64313725
v -0.03370534 -0.04901132 0.03573549 0.54117647 0.42352941 0.64313725
v -0.01479714 -0.05850596 0.03573549 0.54117647 0.42352941 0.64313725
v -0.03369994 -0.04040447 0.03013135 0.54117647 0.42352941 0.64313725
v -0.01387979 -0.04939762 0.03012552 0.54117647 0.42352941 0.64313725
v -0.00614707 -0.04539634 0.03013135 0.54117647 0.42352941 0.64313725
v 0.02141660 -0.04872425 0.03573938 0.54117647 0.42352941 0.64313725
v -0.03370534 -0.05106867 0.04999579 0.54117647 0.42352941 0.64313725
v -0.01479714 -0.05850596 0.03725858 0.54117647 0.42352941 0.64313725
v -0.03370534 -0.04040447 0.04286661 0.54117647 0.42352941 0.64313725
v -0.00614707 -0.04040447 0.03013135 0.54117647 0.42352941 0.64313725
v 0.02141660 -0.04040447 0.03573938 0.54117647 0.42352941 0.64313725
v 0.02142200 -0.04732964 0.03954420 0.54117647 0.42352941 0.64313725
v 0.02141660 -0.04872425 0.04999579 0.54117647 0.42352941 0.64313725
v -0.03370534 -0.04040447 0.04999579 0.54117647 0.42352941 0.64313725
v -0.01480793 -0.05106867 0.04999579 0.54117647 0.42352941 0.64313725
v 0.02141660 -0.04040447 0.04999579 0.54117647 0.42352941 0.64313725
v 0.02142200 -0.04040801 0.03954420 0.54117647 0.42352941 0.64313725
v 0.02142200 -0.04732964 0.04286661 0.54117647 0.42352941 0.64313725
v 0.02142200 -0.04040801 0.04286661 0.54117647 0.42352941 0.64313725
f 35 36 40
f 35 40 37
f 35 37 43
f 35 43 38
f 35 38 41
f 35 41 36
f 36 39 46
f 36 46 53
f 36 53 48
f 36 48 40
f 36 41 47
f 36 47 39
f 37 40 42
f 37 42 49
f 37 49 43
f 38 43 44
f 38 44 45
f 38 45 41
f 39 47 54
f 39 54 46
f 40 48 42
f 41 45 52
f 41 52 47
f 42 48 53
f 42 53 55
f 42 55 50
f 42 50 49
f 43 49 44
f 44 49 50
f 44 50 45
f 45 50 56
f 45 56 51
f 45 51 57
f 45 57 52
f 46 54 52
f 46 52 55
f 46 55 53
f 47 52 54
f 50 55 58
f 50 58 56
f 51 56 58
f 51 58 57
f 52 57 58
f 52 58 55

o geometry_2
v -0.00076908 -0.04708948 0.02860456 0.43529412 0.89019608 0.96078431
v -0.00076908 -0.04708948 0.03012710 0.43529412 0.89019608 0.96078431
v 0.02142200 -0.04708948 0.02860456 0.43529412 0.89019608 0.96078431
v 0.00055161 -0.07082216 0.02860456 0.43529412 0.89019608 0.96078431
v -0.00038243 -0.04733079 0.04286867 0.43529412 0.89019608 0.96078431
v 0.02142200 -0.04708948 0.03012710 0.43529412 0.89019608 0.96078431
v 0.00055161 -0.07082216 0.03012710 0.43529412 0.89019608 0.96078431
v 0.00056248 -0.07081166 0.04286867 0.43529412 0.89019608 0.96078431
v 0.02142200 -0.07388579 0.02860456 0.43529412 0.89019608 0.96078431
v 0.01563312 -0.07388579 0.02860456 0.43529412 0.89019608 0.96078431
v 0.01563095 -0.07388579 0.03953877 0.43529412 0.89019608 0.96078431
v 0.02141766 -0.04733079 0.04286867 0.43529412 0.89019608 0.96078431
v 0.00080359 -0.07062805 0.04999968 0.43529412 0.89019608 0.96078431
v 0.00080359 -0.06110403 0.04999968 0.43529412 0.89019608 0.96078431
v 0.00105991 -0.04873408 0.04999968 0.43529412 0.89019608 0.96078431
v 0.02142200 -0.04799965 0.04438911 0.43529412 0.89019608 0.96078431
v 0.01563095 -0.07388579 0.04286867 0.43529412 0.89019608 0.96078431
v 0.01563312 -0.07388579 0.04999968 0.43529412 0.89019608 0.96078431
v 0.02142200 -0.07388579 0.03725392 0.43529412 0.89019608 0.96078431
v 0.02142200 -0.04873408 0.04999968 0.43529412 0.89019608 0.96078431
v 0.02141766 -0.07388579 0.04999968 0.43529412 0.89019608 0.96078431
v 0.02142200 -0.05638005 0.04999968 0.43529412 0.89019608 0.96078431
f 59 60 64
f 59 64 61
f 59 61 67
f 59 67 68
f 59 68 62
f 59 62 65
f 59 65 60
f 60 63 70
f 60 70 64
f 60 65 66
f 60 66 63
f 61 64 74
f 61 74 78
f 61 78 80
f 61 80 77
f 61 77 67
f 62 68 69
f 62 69 75
f 62 75 65
f 63 66 71
f 63 71 72
f 63 72 73
f 63 73 78
f 63 78 70
f 64 70 74
f 65 75 76
f 65 76 66
f 66 76 71
f 67 77 79
f 67 79 76
f 67 76 75
f 67 75 69
f 67 69 68
f 70 78 74
f 71 76 79
f 71 79 80
f 71 80 78
f 71 78 73
f 71 73 72
f 77 80 79

o geometry_3
v -0.01887553 -0.09201290 0.00230977 0.38039216 0.78823529 0.52549020
v -0.01885228 -0.09201290 -0.00000000 0.38039216 0.78823529 0.52549020
v -0.01887295 -0.09201901 0.00793286 0.38039216 0.78823529 0.52549020
v -0.01887553 -0.09201290 0.00461008 0.38039216 0.78823529 0.52549020
v -0.01887553 -0.08704790 0.00230977 0.38039216 0.78823529 0.52549020
v -0.01111458 -0.09201901 -0.00000000 0.38039216 0.78823529 0.52549020
v -0.01885228 -0.08704485 -0.00000000 0.38039216 0.78823529 0.52549020
v -0.01887295 -0.09201901 0.01073338 0.38039216 0.78823529 0.52549020
v -0.01887295 -0.08879145 0.01073548 0.38039216 0.78823529 0.52549020
v -0.01887553 -0.08704790 0.00461008 0.38039216 0.78823529 0.52549020
v -0.00614385 -0.06416796 -0.00000000 0.38039216 0.78823529 0.52549020
v -0.00070550 -0.09201901 -0.00000000 0.38039216 0.78823529 0.52549020
v -0.00614385 -0.09201901 0.01073128 0.38039216 0.78823529 0.52549020
v 0.00751791 -0.09201596 0.01073338 0.38039216 0.78823529 0.52549020
v -0.00613610 -0.09201596 0.01073548 0.38039216 0.78823529 0.52549020
v -0.01887295 -0.08704485 0.01073548 0.38039216 0.78823529 0.52549020
v -0.00614385 -0.06416796 0.01073548 0.38039216 0.78823529 0.52549020
v 0.00106164 -0.06082742 0.00793286 0.38039216 0.78823529 0.52549020
v 0.00105389 -0.06083658 0.00461113 0.38039216 0.78823529 0.52549020
v 0.00079554 -0.06111140 0.00230977 0.38039216 0.78823529 0.52549020
v -0.00038256 -0.06223203 -0.00000000 0.38039216 0.78823529 0.52549020
v -0.00070550 -0.09201901 0.00230556 0.38039216 0.78823529 0.52549020
v 0.00751791 -0.09201596 -0.00000000 0.38039216 0.78823529 0.52549020
v 0.00751791 -0.08705095 0.01073548 0.38039216 0.78823529 0.52549020
v 0.00106164 -0.06082742 0.01073548 0.38039216 0.78823529 0.52549020
v 0.00751791 -0.08704790 -0.00000000 0.38039216 0.78823529 0.52549020
v 0.00751791 -0.08704790 0.01073548 0.38039216 0.78823529 0.52549020
f 81 82 83
f 81 83 88
f 81 88 84
f 81 84 90
f 81 90 85
f 81 85 87
f 81 87 82
f 82 86 83
f 82 87 91
f 82 91 101
f 82 101 106
f 82 106 103
f 82 103 92
f 82 92 86
f 83 86 92
f 83 92 102
f 83 102 93
f 83 93 88
f 84 89 96
f 84 96 90
f 84 88 89
f 85 90 97
f 85 97 91
f 85 91 87
f 88 93 94
f 88 94 95
f 88 95 89
f 89 95 104
f 89 104 107
f 89 107 105
f 89 105 97
f 89 97 96
f 90 96 97
f 91 97 105
f 91 105 98
f 91 98 99
f 91 99 100
f 91 100 101
f 92 103 94
f 92 94 102
f 93 102 94
f 94 103 106
f 94 106 107
f 94 107 104
f 94 104 95
f 98 106 99
f 98 105 107
f 98 107 106
f 99 106 100
f 100 106 101

o geometry_4
v -0.01110626 -0.09201723 0.02147209 0.56470588 0.92549020 0.07058824
v -0.00614617 -0.09201723 0.02147209 0.56470588 0.92549020 0.07058824
v -0.01110626 -0.09201723 0.03012150 0.56470588 0.92549020 0.07058824
v -0.01495065 -0.06934150 0.01899592 0.56470588 0.92549020 0.07058824
v -0.01199404 -0.08347516 0.01682927 0.56470588 0.92549020 0.07058824
v -0.01187290 -0.08329887 0.01610705 0.56470588 0.92549020 0.07058824
v -0.01129274 -0.08247393 0.01486552 0.56470588 0.92549020 0.07058824
v -0.00070952 -0.09201723 0.02527921 0.56470588 0.92549020 0.07058824
v -0.00614617 -0.08247393 0.01486552 0.56470588 0.92549020 0.07058824
v -0.00044015 -0.08329887 0.01610705 0.56470588 0.92549020 0.07058824
v -0.01495065 -0.06934150 0.02023745 0.56470588 0.92549020 0.07058824
v -0.00614617 -0.09201723 0.03012150 0.56470588 0.92549020 0.07058824
v -0.00614617 -0.07388529 0.04999968 0.56470588 0.92549020 0.07058824
v -0.01078270 -0.07382874 0.04999624 0.56470588 0.92549020 0.07058824
v -0.01299339 -0.07075187 0.04999624 0.56470588 0.92549020 0.07058824
v -0.01495065 -0.05803523 0.01899592 0.56470588 0.92549020 0.07058824
v -0.01352095 -0.07024959 0.01486896 0.56470588 0.92549020 0.07058824
v -0.01352095 -0.06058321 0.01486896 0.56470588 0.92549020 0.07058824
v -0.01078589 -0.07382874 0.01486552 0.56470588 0.92549020 0.07058824
v -0.00070952 -0.09201723 0.02860141 0.56470588 0.92549020 0.07058824
v -0.00028874 -0.08347516 0.01682927 0.56470588 0.92549020 0.07058824
v 0.00133222 -0.07021965 0.01899592 0.56470588 0.92549020 0.07058824
v -0.00614617 -0.07382874 0.01486552 0.56470588 0.92549020 0.07058824
v -0.00614936 -0.06416902 0.01486896 0.56470588 0.92549020 0.07058824
v -0.00157339 -0.07386533 0.01610705 0.56470588 0.92549020 0.07058824
v 0.00133222 -0.06043686 0.01899592 0.56470588 0.92549020 0.07058824
v -0.01495065 -0.05803523 0.02023745 0.56470588 0.92549020 0.07058824
v -0.00158455 -0.07388529 0.04999968 0.56470588 0.92549020 0.07058824
v -0.00614617 -0.06416902 0.04999968 0.56470588 0.92549020 0.07058824
v -0.01299339 -0.06119526 0.04999624 0.56470588 0.92549020 0.07058824
v 0.00133222 -0.07021965 0.02023401 0.56470588 0.92549020 0.07058824
v 0.00105329 -0.07043254 0.03573416 0.56470588 0.92549020 0.07058824
v 0.00079509 -0.07062879 0.04999968 0.56470588 0.92549020 0.07058824
v 0.00133222 -0.06043686 0.02023401 0.56470588 0.92549020 0.07058824
v 0.00079509 -0.06111210 0.04999968 0.56470588 0.92549020 0.07058824
v 0.00105329 -0.06083934 0.03573416 0.56470588 0.92549020 0.07058824
f 108 109 115
f 108 115 127
f 108 127 119
f 108 119 110
f 108 110 118
f 108 118 111
f 108 111 112
f 108 112 113
f 108 113 114
f 108 114 116
f 108 116 109
f 109 116 117
f 109 117 115
f 110 119 135
f 110 135 120
f 110 120 121
f 110 121 122
f 110 122 118
f 111 123 125
f 111 125 124
f 111 124 113
f 111 113 112
f 111 118 134
f 111 134 123
f 113 124 114
f 114 124 125
f 114 125 126
f 114 126 130
f 114 130 116
f 115 117 128
f 115 128 129
f 115 129 138
f 115 138 127
f 116 130 117
f 117 130 131
f 117 131 132
f 117 132 133
f 117 133 129
f 117 129 128
f 118 122 137
f 118 137 134
f 119 127 135
f 120 135 140
f 120 140 142
f 120 142 136
f 120 136 137
f 120 137 122
f 120 122 121
f 123 133 125
f 123 134 141
f 123 141 133
f 125 131 130
f 125 130 126
f 125 133 131
f 127 138 139
f 127 139 140
f 127 140 135
f 129 133 141
f 129 141 138
f 131 133 132
f 134 137 142
f 134 142 141
f 136 142 137
f 138 141 143
f 138 143 139
f 139 143 142
f 139 142 140
f 141 142 143

o geometry_5
v 0.02141930 -0.04040447 0.03573537 0.08627451 0.01960784 0.83137255
v 0.02141930 -0.05477787 0.03573537 0.08627451 0.01960784 0.83137255
v 0.02142200 -0.04799920 0.03240652 0.08627451 0.01960784 0.83137255
v 0.02141930 -0.04040447 0.02527472 0.08627451 0.01960784 0.83137255
v -0.00614070 -0.04040447 0.03573537 0.08627451 0.01960784 0.83137255
v 0.00322765 -0.05477787 0.03573537 0.08627451 0.01960784 0.83137255
v 0.02142200 -0.05637560 0.03240652 0.08627451 0.01960784 0.83137255
v 0.02142200 -0.04799920 0.03012414 0.08627451 0.01960784 0.83137255
v 0.02141930 -0.04864174 0.02527472 0.08627451 0.01960784 0.83137255
v -0.00613800 -0.04040447 0.02527472 0.08627451 0.01960784 0.83137255
v -0.00614070 -0.04040447 0.03240652 0.08627451 0.01960784 0.83137255
v -0.00614070 -0.04539779 0.03573537 0.08627451 0.01960784 0.83137255
v 0.00309274 -0.05637560 0.03240652 0.08627451 0.01960784 0.83137255
v 0.02142200 -0.05637560 0.03012414 0.08627451 0.01960784 0.83137255
v 0.00100159 -0.04864174 0.02527472 0.08627451 0.01960784 0.83137255
v -0.00613800 -0.04539623 0.02527472 0.08627451 0.01960784 0.83137255
v -0.00614070 -0.04539779 0.03240652 0.08627451 0.01960784 0.83137255
v 0.00309274 -0.05637560 0.03012414 0.08627451 0.01960784 0.83137255
f 144 145 150
f 144 150 146
f 144 146 151
f 144 151 147
f 144 147 153
f 144 153 154
f 144 154 148
f 144 148 155
f 144 155 149
f 144 149 145
f 145 149 156
f 145 156 150
f 146 150 157
f 146 157 151
f 147 151 157
f 147 157 152
f 147 152 158
f 147 158 159
f 147 159 153
f 148 154 160
f 148 160 155
f 149 155 156
f 150 156 161
f 150 161 157
f 152 157 161
f 152 161 158
f 153 159 160
f 153 160 154
f 155 160 161
f 155 161 156
f 158 161 159
f 159 161 160

o geometry_6
v 0.02141660 -0.04040447 0.02527238 0.77647059 0.86666667 0.97647059
v 0.02142200 -0.04864554 0.02860237 0.77647059 0.86666667 0.97647059
v 0.02142200 -0.04759683 0.02299060 0.77647059 0.86666667 0.97647059
v 0.02142200 -0.04733359 0.02023527 0.77647059 0.86666667 0.97647059
v 0.02141660 -0.04040447 0.01899326 0.77647059 0.86666667 0.97647059
v -0.00614707 -0.04040447 0.03012244 0.77647059 0.86666667 0.97647059
v 0.02142200 -0.07859108 0.02860237 0.77647059 0.86666667 0.97647059
v 0.02142200 -0.04733359 0.01899326 0.77647059 0.86666667 0.97647059
v -0.00615246 -0.04040872 0.01290625 0.77647059 0.86666667 0.97647059
v -0.00615246 -0.04040447 0.01486785 0.77647059 0.86666667 0.97647059
v -0.03369994 -0.04040447 0.03012244 0.77647059 0.86666667 0.97647059
v -0.00614707 -0.04540176 0.03012244 0.77647059 0.86666667 0.97647059
v 0.02141660 -0.08377944 0.02860237 0.77647059 0.86666667 0.97647059
v 0.02142200 -0.07859533 0.02527238 0.77647059 0.86666667 0.97647059
v 0.02142200 -0.05318854 0.01899326 0.77647059 0.86666667 0.97647059
v -0.00615246 -0.04540176 0.01290625 0.77647059 0.86666667 0.97647059
v -0.03370534 -0.04040872 0.01290625 0.77647059 0.86666667 0.97647059
v -0.03370534 -0.04040447 0.01486785 0.77647059 0.86666667 0.97647059
v -0.03370534 -0.04040447 0.02299060 0.77647059 0.86666667 0.97647059
v -0.03370534 -0.04040872 0.02860069 0.77647059 0.86666667 0.97647059
v -0.03370534 -0.05107413 0.02860237 0.77647059 0.86666667 0.97647059
v -0.03369994 -0.05628796 0.03012244 0.77647059 0.86666667 0.97647059
v -0.01541770 -0.05628796 0.03012244 0.77647059 0.86666667 0.97647059
v 0.01419112 -0.08377944 0.02860237 0.77647059 0.86666667 0.97647059
v 0.02141660 -0.08377944 0.02527407 0.77647059 0.86666667 0.97647059
v 0.02142200 -0.07859533 0.02299060 0.77647059 0.86666667 0.97647059
v 0.02141660 -0.07388251 0.01899495 0.77647059 0.86666667 0.97647059
v -0.01113853 -0.04678589 0.01290625 0.77647059 0.86666667 0.97647059
v -0.03370534 -0.04678589 0.01290625 0.77647059 0.86666667 0.97647059
v -0.03370534 -0.05947655 0.02860237 0.77647059 0.86666667 0.97647059
v -0.02055486 -0.06831628 0.02860237 0.77647059 0.86666667 0.97647059
v 0.01419112 -0.08377944 0.02527407 0.77647059 0.86666667 0.97647059
v -0.02187153 -0.06860924 0.02527407 0.77647059 0.86666667 0.97647059
v 0.01562651 -0.07388251 0.01899495 0.77647059 0.86666667 0.97647059
v -0.02187153 -0.06860924 0.02299060 0.77647059 0.86666667 0.97647059
v -0.03370534 -0.04788555 0.01362921 0.77647059 0.86666667 0.97647059
v 0.00133203 -0.07021415 0.01899495 0.77647059 0.86666667 0.97647059
v -0.03370534 -0.06016012 0.02527407 0.77647059 0.86666667 0.97647059
v -0.03370534 -0.06016012 0.02299060 0.77647059 0.86666667 0.97647059
f 162 163 164
f 162 164 165
f 162 165 169
f 162 169 166
f 162 166 171
f 162 171 179
f 162 179 180
f 162 180 172
f 162 172 167
f 162 167 163
f 163 168 175
f 163 175 187
f 163 187 176
f 163 176 169
f 163 169 165
f 163 165 164
f 163 167 173
f 163 173 168
f 166 169 170
f 166 170 171
f 167 172 183
f 167 183 184
f 167 184 173
f 168 173 174
f 168 174 175
f 169 176 177
f 169 177 170
f 170 177 189
f 170 189 190
f 170 190 178
f 170 178 179
f 170 179 171
f 172 180 181
f 172 181 182
f 172 182 191
f 172 191 183
f 173 184 174
f 174 184 183
f 174 183 185
f 174 185 193
f 174 193 186
f 174 186 187
f 174 187 175
f 176 187 188
f 176 188 177
f 177 188 189
f 178 190 197
f 178 197 200
f 178 200 199
f 178 199 191
f 178 191 182
f 178 182 181
f 178 181 180
f 178 180 179
f 183 191 192
f 183 192 185
f 185 192 194
f 185 194 196
f 185 196 193
f 186 193 195
f 186 195 188
f 186 188 187
f 188 195 190
f 188 190 189
f 190 196 197
f 190 195 198
f 190 198 196
f 191 199 194
f 191 194 192
f 193 198 195
f 193 196 198
f 194 199 200
f 194 200 196
f 196 200 197

o geometry_7
v -0.00613726 -0.07382752 0.04286827 0.79607843 0.45882353 0.78039216
v -0.00613726 -0.07382752 0.03954131 0.79607843 0.45882353 0.78039216
v -0.01078608 -0.07382752 0.04286827 0.79607843 0.45882353 0.78039216
v -0.00614501 -0.07382930 0.04999828 0.79607843 0.45882353 0.78039216
v -0.00158663 -0.07388806 0.04999828 0.79607843 0.45882353 0.78039216
v -0.00158405 -0.07388628 0.03954131 0.79607843 0.45882353 0.78039216
v -0.00158405 -0.07388628 0.03725865 0.79607843 0.45882353 0.78039216
v -0.00614501 -0.07383108 0.03573687 0.79607843 0.45882353 0.78039216
v -0.01078608 -0.07382752 0.03954131 0.79607843 0.45882353 0.78039216
v -0.01887695 -0.08705090 0.03954131 0.79607843 0.45882353 0.78039216
v -0.01078608 -0.07382930 0.04999828 0.79607843 0.45882353 0.78039216
v 0.00751720 -0.08705090 0.04999828 0.79607843 0.45882353 0.78039216
v 0.00752237 -0.08705090 0.04286967 0.79607843 0.45882353 0.78039216
v -0.00158405 -0.07389162 0.03573687 0.79607843 0.45882353 0.78039216
v 0.00752237 -0.08705090 0.03954131 0.79607843 0.45882353 0.78039216
v -0.01078091 -0.07383108 0.03573687 0.79607843 0.45882353 0.78039216
v -0.01887436 -0.08705090 0.03573687 0.79607843 0.45882353 0.78039216
v -0.01887695 -0.08705090 0.03725865 0.79607843 0.45882353 0.78039216
v -0.01887695 -0.09201367 0.03954131 0.79607843 0.45882353 0.78039216
v -0.01887436 -0.08705090 0.04999828 0.79607843 0.45882353 0.78039216
v 0.00751720 -0.09201545 0.04999828 0.79607843 0.45882353 0.78039216
v 0.00752237 -0.09201545 0.04286967 0.79607843 0.45882353 0.78039216
v 0.00055301 -0.08446356 0.03573687 0.79607843 0.45882353 0.78039216
v 0.00752237 -0.09201545 0.03954131 0.79607843 0.45882353 0.78039216
v -0.01887436 -0.09201367 0.03573687 0.79607843 0.45882353 0.78039216
v -0.01887695 -0.09201367 0.03725865 0.79607843 0.45882353 0.78039216
v -0.01887436 -0.09201545 0.04999828 0.79607843 0.45882353 0.78039216
v -0.00614501 -0.09201901 0.04438865 0.79607843 0.45882353 0.78039216
v 0.00055301 -0.09201189 0.03573687 0.79607843 0.45882353 0.78039216
v -0.00614501 -0.09201901 0.04286827 0.79607843 0.45882353 0.78039216
v -0.00614501 -0.09201545 0.03725865 0.79607843 0.45882353 0.78039216
v -0.01220218 -0.09201367 0.03573687 0.79607843 0.45882353 0.78039216
v -0.01110651 -0.09201545 0.03725865 0.79607843 0.45882353 0.78039216
v -0.01110651 -0.09201901 0.04286827 0.79607843 0.45882353 0.78039216
v -0.01886919 -0.09201545 0.03954131 0.79607843 0.45882353 0.78039216
v -0.01887436 -0.09201545 0.04286967 0.79607843 0.45882353 0.78039216
v -0.01110651 -0.09201901 0.04438865 0.79607843 0.45882353 0.78039216
f 201 202 209
f 201 209 203
f 201 203 211
f 201 211 204
f 201 204 205
f 201 205 206
f 201 206 207
f 201 207 202
f 202 207 208
f 202 208 216
f 202 216 209
f 203 209 218
f 203 218 210
f 203 210 211
f 204 211 220
f 204 220 227
f 204 227 221
f 204 221 212
f 204 212 205
f 205 212 213
f 205 213 206
f 206 213 215
f 206 215 207
f 207 214 208
f 207 215 214
f 208 214 223
f 208 223 229
f 208 229 232
f 208 232 225
f 208 225 217
f 208 217 216
f 209 216 217
f 209 217 218
f 210 218 226
f 210 226 219
f 210 219 227
f 210 227 220
f 210 220 211
f 212 221 222
f 212 222 213
f 213 222 224
f 213 224 215
f 214 215 223
f 215 224 229
f 215 229 223
f 217 225 226
f 217 226 218
f 219 226 236
f 219 236 227
f 221 227 237
f 221 237 228
f 221 228 222
f 222 228 230
f 222 230 224
f 224 230 231
f 224 231 229
f 225 232 231
f 225 231 233
f 225 233 234
f 225 234 235
f 225 235 226
f 226 235 236
f 227 236 234
f 227 234 237
f 228 237 234
f 228 234 230
f 229 231 232
f 230 234 233
f 230 233 231
f 234 236 235

o geometry_8
v -0.02230240 -0.06872699 0.00461023 0.11764706 0.63921569 0.14117647
v -0.01211005 -0.07164017 0.00461023 0.11764706 0.63921569 0.14117647
v -0.01219761 -0.08377209 0.00461199 0.11764706 0.63921569 0.14117647
v -0.01699107 -0.09201343 0.01145790 0.11764706 0.63921569 0.14117647
v -0.02230240 -0.06872699 0.00793569 0.11764706 0.63921569 0.14117647
v -0.02230240 -0.05316846 0.00461023 0.11764706 0.63921569 0.14117647
v -0.01211005 -0.06202210 0.00461023 0.11764706 0.63921569 0.14117647
v -0.00615074 -0.08377209 0.00461199 0.11764706 0.63921569 0.14117647
v 0.00308843 -0.09201343 0.01145790 0.11764706 0.63921569 0.14117647
v -0.01699107 -0.09201343 0.01218052 0.11764706 0.63921569 0.14117647
v -0.02230240 -0.05316846 0.00793569 0.11764706 0.63921569 0.14117647
v -0.01686598 -0.09201343 0.01290226 0.11764706 0.63921569 0.14117647
v -0.01661830 -0.09201343 0.01362311 0.11764706 0.63921569 0.14117647
v -0.01540492 -0.05316846 0.00461023 0.11764706 0.63921569 0.14117647
v -0.00615074 -0.06417086 0.00461199 0.11764706 0.63921569 0.14117647
v 0.00325605 -0.08621369 0.01073440 0.11764706 0.63921569 0.14117647
v 0.00313596 -0.09201343 0.01218052 0.11764706 0.63921569 0.14117647
v -0.01331091 -0.06082412 0.01362311 0.11764706 0.63921569 0.14117647
v -0.01540492 -0.05316846 0.00793569 0.11764706 0.63921569 0.14117647
v -0.01661830 -0.08662442 0.01362311 0.11764706 0.63921569 0.14117647
v 0.00308843 -0.09201343 0.01362311 0.11764706 0.63921569 0.14117647
v -0.00569541 -0.06418988 0.01073528 0.11764706 0.63921569 0.14117647
v -0.00157244 -0.07386879 0.01073440 0.11764706 0.63921569 0.14117647
v -0.00157244 -0.07386499 0.01217964 0.11764706 0.63921569 0.14117647
v 0.00325605 -0.08621369 0.01145790 0.11764706 0.63921569 0.14117647
v 0.00313596 -0.09201343 0.01290226 0.11764706 0.63921569 0.14117647
v -0.00573044 -0.06418988 0.01362311 0.11764706 0.63921569 0.14117647
v -0.00569541 -0.06418988 0.01290138 0.11764706 0.63921569 0.14117647
v 0.00308843 -0.08613762 0.01362311 0.11764706 0.63921569 0.14117647
v -0.00157244 -0.07386499 0.01290226 0.11764706 0.63921569 0.14117647
v -0.00157494 -0.07386499 0.01362311 0.11764706 0.63921569 0.14117647
f 238 239 240
f 238 240 241
f 238 241 247
f 238 247 242
f 238 242 248
f 238 248 243
f 238 243 251
f 238 251 244
f 238 244 239
f 239 244 252
f 239 252 245
f 239 245 240
f 240 245 246
f 240 246 241
f 241 246 254
f 241 254 263
f 241 263 258
f 241 258 250
f 241 250 249
f 241 249 247
f 242 247 249
f 242 249 250
f 242 250 257
f 242 257 248
f 243 248 256
f 243 256 251
f 244 251 252
f 245 253 246
f 245 252 253
f 246 253 254
f 248 255 256
f 248 257 255
f 250 258 266
f 250 266 268
f 250 268 264
f 250 264 255
f 250 255 257
f 251 259 252
f 251 256 265
f 251 265 259
f 252 259 260
f 252 260 253
f 253 260 261
f 253 261 267
f 253 267 262
f 253 262 263
f 253 263 254
f 255 264 256
f 256 264 265
f 258 263 262
f 258 262 266
f 259 261 260
f 259 265 267
f 259 267 261
f 262 268 266
f 262 267 268
f 264 268 265
f 265 268 267

o geometry_9
v 0.02141930 -0.04040447 0.01073212 0.94117647 0.52156863 0.41176471
v 0.02141930 -0.04040447 -0.00000000 0.94117647 0.52156863 0.41176471
v -0.00614302 -0.04040447 0.01290336 0.94117647 0.52156863 0.41176471
v -0.01112884 -0.04678873 0.01362488 0.94117647 0.52156863 0.41176471
v 0.02141930 -0.06978256 0.01145498 0.94117647 0.52156863 0.41176471
v 0.02141930 -0.07388579 -0.00000000 0.94117647 0.52156863 0.41176471
v -0.00614302 -0.04040447 -0.00000000 0.94117647 0.52156863 0.41176471
v -0.01263430 -0.04040447 0.01290336 0.94117647 0.52156863 0.41176471
v -0.01331419 -0.07044458 0.01362354 0.94117647 0.52156863 0.41176471
v 0.02141930 -0.07385957 0.01145498 0.94117647 0.52156863 0.41176471
v -0.03370534 -0.04678873 0.01362488 0.94117647 0.52156863 0.41176471
v -0.02168864 -0.06856339 0.01362488 0.94117647 0.52156863 0.41176471
v 0.02141930 -0.07388579 0.01073079 0.94117647 0.52156863 0.41176471
v 0.01562409 -0.07388579 -0.00000000 0.94117647 0.52156863 0.41176471
v -0.03370534 -0.04041102 -0.00000000 0.94117647 0.52156863 0.41176471
v -0.03370534 -0.04040447 0.00461053 0.94117647 0.52156863 0.41176471
v -0.03370534 -0.04040447 0.01290202 0.94117647 0.52156863 0.41176471
v -0.02796409 -0.07386285 0.01362488 0.94117647 0.52156863 0.41176471
v -0.03370534 -0.07386285 0.01362488 0.94117647 0.52156863 0.41176471
v 0.01562949 -0.07388579 0.01073079 0.94117647 0.52156863 0.41176471
v 0.01562409 -0.07388579 0.00461320 0.94117647 0.52156863 0.41176471
v -0.03370534 -0.07386285 0.01073612 0.94117647 0.52156863 0.41176471
v -0.03369994 -0.07382352 -0.00000000 0.94117647 0.52156863 0.41176471
v -0.03370534 -0.05276988 -0.00000000 0.94117647 0.52156863 0.41176471
v -0.03370534 -0.07382352 0.00230860 0.94117647 0.52156863 0.41176471
f 269 270 275
f 269 275 284
f 269 284 285
f 269 285 276
f 269 276 271
f 269 271 272
f 269 272 273
f 269 273 278
f 269 278 281
f 269 281 274
f 269 274 270
f 270 274 282
f 270 282 291
f 270 291 292
f 270 292 283
f 270 283 275
f 271 276 279
f 271 279 272
f 272 277 278
f 272 278 273
f 272 279 287
f 272 287 286
f 272 286 280
f 272 280 277
f 274 281 288
f 274 288 289
f 274 289 282
f 275 283 284
f 276 285 279
f 277 280 286
f 277 286 278
f 278 286 281
f 279 285 284
f 279 284 283
f 279 283 292
f 279 292 293
f 279 293 290
f 279 290 287
f 281 286 287
f 281 287 288
f 282 289 287
f 282 287 290
f 282 290 291
f 287 289 288
f 290 293 291
f 291 293 292

o geometry_10
v -0.00616885 -0.04540601 0.01146024 0.26274510 0.77254902 0.45490196
v -0.00616885 -0.04540601 0.01218354 0.26274510 0.77254902 0.45490196
v -0.00616885 -0.04040872 0.01146024 0.26274510 0.77254902 0.45490196
v -0.00568542 -0.07386128 0.01073575 0.26274510 0.77254902 0.45490196
v -0.00613915 -0.07386128 0.01754645 0.26274510 0.77254902 0.45490196
v -0.00613644 -0.04539752 0.01899183 0.26274510 0.77254902 0.45490196
v -0.00616885 -0.04040872 0.01218354 0.26274510 0.77254902 0.45490196
v -0.00613915 -0.07386128 0.01826974 0.26274510 0.77254902 0.45490196
v -0.00613644 -0.04040447 0.01754645 0.26274510 0.77254902 0.45490196
v 0.00194960 -0.04040447 0.01074055 0.26274510 0.77254902 0.45490196
v -0.00568542 -0.06418513 0.01073575 0.26274510 0.77254902 0.45490196
v -0.00156408 -0.07386128 0.01073575 0.26274510 0.77254902 0.45490196
v 0.01506174 -0.08253118 0.01362652 0.26274510 0.77254902 0.45490196
v 0.01419750 -0.08377944 0.02023090 0.26274510 0.77254902 0.45490196
v 0.00649766 -0.06828656 0.02298973 0.26274510 0.77254902 0.45490196
v -0.00613644 -0.04040872 0.01899183 0.26274510 0.77254902 0.45490196
v -0.00566381 -0.07386128 0.01899063 0.26274510 0.77254902 0.45490196
v -0.00613644 -0.04040447 0.01826974 0.26274510 0.77254902 0.45490196
v 0.01419750 -0.08377944 0.02146758 0.26274510 0.77254902 0.45490196
v 0.02141930 -0.04040447 0.01074055 0.26274510 0.77254902 0.45490196
v 0.00195500 -0.05955297 0.01073575 0.26274510 0.77254902 0.45490196
v 0.00595751 -0.06830779 0.01073575 0.26274510 0.77254902 0.45490196
v 0.02141930 -0.06977683 0.01074055 0.26274510 0.77254902 0.45490196
v 0.02141930 -0.07386128 0.01146144 0.26274510 0.77254902 0.45490196
v 0.02142200 -0.08253118 0.01362652 0.26274510 0.77254902 0.45490196
v 0.02141660 -0.08377944 0.02023090 0.26274510 0.77254902 0.45490196
v 0.00649766 -0.05319278 0.02298973 0.26274510 0.77254902 0.45490196
v 0.01506174 -0.08253118 0.02298853 0.26274510 0.77254902 0.45490196
v 0.01197478 -0.06966644 0.02298973 0.26274510 0.77254902 0.45490196
v 0.00193069 -0.04040872 0.01899183 0.26274510 0.77254902 0.45490196
v 0.00193880 -0.04040447 0.01898943 0.26274510 0.77254902 0.45490196
v 0.00810461 -0.05318854 0.02298973 0.26274510 0.77254902 0.45490196
v 0.02141660 -0.08377944 0.02146758 0.26274510 0.77254902 0.45490196
v 0.00595751 -0.05955297 0.01073575 0.26274510 0.77254902 0.45490196
v 0.02141930 -0.04040447 0.01826974 0.26274510 0.77254902 0.45490196
v 0.02142200 -0.04040872 0.01146024 0.26274510 0.77254902 0.45490196
v 0.02142200 -0.05008487 0.01146024 0.26274510 0.77254902 0.45490196
v 0.02142200 -0.08332089 0.01827214 0.26274510 0.77254902 0.45490196
v 0.02142200 -0.08253118 0.02298853 0.26274510 0.77254902 0.45490196
v 0.02141930 -0.06966644 0.02298973 0.26274510 0.77254902 0.45490196
v 0.02141660 -0.04040447 0.01898943 0.26274510 0.77254902 0.45490196
v 0.02141930 -0.05318854 0.02298973 0.26274510 0.77254902 0.45490196
v 0.02142200 -0.08332089 0.01899063 0.26274510 0.77254902 0.45490196
v 0.02142200 -0.04718075 0.01682675 0.26274510 0.77254902 0.45490196
v 0.02142200 -0.04040872 0.01218354 0.26274510 0.77254902 0.45490196
v 0.02142200 -0.07388251 0.02298853 0.26274510 0.77254902 0.45490196
f 294 295 300
f 294 300 296
f 294 296 304
f 294 304 297
f 294 297 298
f 294 298 301
f 294 301 295
f 295 299 309
f 295 309 300
f 295 301 299
f 296 300 311
f 296 311 302
f 296 302 303
f 296 303 304
f 297 305 318
f 297 318 306
f 297 306 307
f 297 307 298
f 297 304 314
f 297 314 327
f 297 327 315
f 297 315 305
f 298 307 312
f 298 312 301
f 299 308 320
f 299 320 309
f 299 301 310
f 299 310 308
f 300 309 311
f 301 312 310
f 302 311 324
f 302 324 334
f 302 334 328
f 302 328 313
f 302 313 303
f 303 313 327
f 303 327 314
f 303 314 304
f 305 315 316
f 305 316 317
f 305 317 318
f 306 318 319
f 306 319 307
f 307 319 326
f 307 326 312
f 308 310 321
f 308 321 322
f 308 322 333
f 308 333 335
f 308 335 325
f 308 325 320
f 309 323 334
f 309 334 324
f 309 324 311
f 309 320 325
f 309 325 335
f 309 335 323
f 310 312 321
f 312 326 332
f 312 332 321
f 313 328 338
f 313 338 329
f 313 329 330
f 313 330 316
f 313 316 315
f 313 315 327
f 316 318 317
f 316 330 318
f 318 331 319
f 318 330 329
f 318 329 338
f 318 338 337
f 318 337 339
f 318 339 332
f 318 332 336
f 318 336 331
f 319 331 336
f 319 336 326
f 321 332 333
f 321 333 322
f 323 335 334
f 326 336 332
f 328 334 335
f 328 335 337
f 328 337 338
f 332 339 335
f 332 335 333
f 335 339 337

o geometry_11
v 0.02142200 -0.07388621 0.04999968 0.56470588 0.01568627 0.61568627
v 0.01563512 -0.07388621 0.04999968 0.56470588 0.01568627 0.61568627
v 0.02142200 -0.09201723 0.04999968 0.56470588 0.01568627 0.61568627
v 0.02142200 -0.07388621 -0.00000000 0.56470588 0.01568627 0.61568627
v 0.02141662 -0.07386310 0.01146234 0.56470588 0.01568627 0.61568627
v 0.00752165 -0.08704995 0.04999968 0.56470588 0.01568627 0.61568627
v 0.01562615 -0.07386310 0.01146234 0.56470588 0.01568627 0.61568627
v 0.00309628 -0.08614002 0.01362560 0.56470588 0.01568627 0.61568627
v 0.00752165 -0.09201723 0.04999968 0.56470588 0.01568627 0.61568627
v 0.02142200 -0.09201901 0.04666669 0.56470588 0.01568627 0.61568627
v 0.02142200 -0.09201901 -0.00000000 0.56470588 0.01568627 0.61568627
v 0.01563333 -0.07388621 -0.00000000 0.56470588 0.01568627 0.61568627
v 0.02141662 -0.07386310 0.01073799 0.56470588 0.01568627 0.61568627
v 0.01562615 -0.07386310 0.01073799 0.56470588 0.01568627 0.61568627
v 0.00309628 -0.08614002 0.01290614 0.56470588 0.01568627 0.61568627
v 0.00309628 -0.09201723 0.01362560 0.56470588 0.01568627 0.61568627
v 0.00752165 -0.09201901 0.04666669 0.56470588 0.01568627 0.61568627
v 0.00752524 -0.09201901 -0.00000000 0.56470588 0.01568627 0.61568627
v 0.00752524 -0.08704995 -0.00000000 0.56470588 0.01568627 0.61568627
v 0.00310166 -0.08614002 0.01146234 0.56470588 0.01568627 0.61568627
v 0.00309628 -0.09201723 0.01290614 0.56470588 0.01568627 0.61568627
v 0.00560584 -0.09201901 0.01899459 0.56470588 0.01568627 0.61568627
v 0.00560584 -0.09201901 0.01828003 0.56470588 0.01568627 0.61568627
v 0.00310166 -0.09201546 0.01146234 0.56470588 0.01568627 0.61568627
f 340 341 345
f 340 345 348
f 340 348 342
f 340 342 349
f 340 349 350
f 340 350 343
f 340 343 352
f 340 352 344
f 340 344 346
f 340 346 341
f 341 346 347
f 341 347 345
f 342 348 356
f 342 356 349
f 343 350 357
f 343 357 358
f 343 358 351
f 343 351 353
f 343 353 352
f 344 352 353
f 344 353 346
f 345 347 355
f 345 355 348
f 346 353 354
f 346 354 347
f 347 354 360
f 347 360 355
f 348 355 356
f 349 356 361
f 349 361 362
f 349 362 357
f 349 357 350
f 351 358 359
f 351 359 354
f 351 354 353
f 354 359 363
f 354 363 360
f 355 360 362
f 355 362 361
f 355 361 356
f 357 362 360
f 357 360 363
f 357 363 359
f 357 359 358

o geometry_12
v -0.03370534 -0.09201723 0.01073799 0.61176471 0.61568627 0.94117647
v -0.03370534 -0.09201545 -0.00000000 0.61176471 0.61568627 0.94117647
v -0.02584186 -0.09201723 0.01073799 0.61176471 0.61568627 0.94117647
v -0.03370534 -0.09201723 0.04999968 0.61176471 0.61568627 0.94117647
v -0.03370534 -0.08302120 -0.00000000 0.61176471 0.61568627 0.94117647
v -0.01885973 -0.09201545 -0.00000000 0.61176471 0.61568627 0.94117647
v -0.01699336 -0.09201723 0.01146234 0.61176471 0.61568627 0.94117647
v -0.01887979 -0.09201723 0.04999968 0.61176471 0.61568627 0.94117647
v -0.03370534 -0.08447602 0.04999968 0.61176471 0.61568627 0.94117647
v -0.03370534 -0.07383108 0.00231498 0.61176471 0.61568627 0.94117647
v -0.03370367 -0.07382930 -0.00000000 0.61176471 0.61568627 0.94117647
v -0.01885973 -0.08704555 -0.00000000 0.61176471 0.61568627 0.94117647
v -0.01662043 -0.09201723 0.01290614 0.61176471 0.61568627 0.94117647
v -0.01887979 -0.08704912 0.04999968 0.61176471 0.61568627 0.94117647
v -0.01662043 -0.09201723 0.01362560 0.61176471 0.61568627 0.94117647
v -0.03370534 -0.07383108 0.04999478 0.61176471 0.61568627 0.94117647
v -0.02583517 -0.08447602 0.04999968 0.61176471 0.61568627 0.94117647
v -0.03370534 -0.07382752 0.03573293 0.61176471 0.61568627 0.94117647
v -0.02794738 -0.07382930 -0.00000000 0.61176471 0.61568627 0.94117647
v -0.03370367 -0.07382752 0.03240973 0.61176471 0.61568627 0.94117647
v -0.01662043 -0.08662353 0.01290614 0.61176471 0.61568627 0.94117647
v -0.02794905 -0.07383108 0.04999478 0.61176471 0.61568627 0.94117647
v -0.01662043 -0.08662353 0.01362560 0.61176471 0.61568627 0.94117647
v -0.03370367 -0.07382930 0.04666669 0.61176471 0.61568627 0.94117647
v -0.03370534 -0.07382752 0.03725504 0.61176471 0.61568627 0.94117647
v -0.02794905 -0.07382752 0.03240973 0.61176471 0.61568627 0.94117647
v -0.02794570 -0.07382930 0.03012412 0.61176471 0.61568627 0.94117647
v -0.02794905 -0.07382930 0.04666669 0.61176471 0.61568627 0.94117647
v -0.02794570 -0.07382930 0.03240973 0.61176471 0.61568627 0.94117647
v -0.02795072 -0.07382752 0.03725504 0.61176471 0.61568627 0.94117647
v -0.02794905 -0.07382752 0.03573293 0.61176471 0.61568627 0.94117647
f 364 365 369
f 364 369 366
f 364 366 370
f 364 370 376
f 364 376 378
f 364 378 371
f 364 371 367
f 364 367 372
f 364 372 379
f 364 379 388
f 364 388 381
f 364 381 373
f 364 373 368
f 364 368 365
f 365 368 374
f 365 374 382
f 365 382 375
f 365 375 369
f 366 369 370
f 367 371 377
f 367 377 380
f 367 380 372
f 368 373 374
f 369 375 384
f 369 384 376
f 369 376 370
f 371 378 386
f 371 386 377
f 372 380 385
f 372 385 379
f 373 381 374
f 374 381 383
f 374 383 389
f 374 389 382
f 375 382 384
f 376 384 386
f 376 386 378
f 377 385 380
f 377 386 385
f 379 387 388
f 379 385 391
f 379 391 387
f 381 388 393
f 381 393 394
f 381 394 389
f 381 389 383
f 382 389 390
f 382 390 384
f 384 390 392
f 384 392 386
f 385 386 391
f 386 392 391
f 387 391 393
f 387 393 388
f 389 394 392
f 389 392 390
f 391 392 394
f 391 394 393

o geometry_13
v -0.01499907 -0.05788492 0.03954003 0.67843137 0.35686275 0.43529412
v -0.01541645 -0.05629261 0.03012471 0.67843137 0.35686275 0.43529412
v -0.02187148 -0.05788492 0.03954003 0.67843137 0.35686275 0.43529412
v -0.01352472 -0.06058213 0.03954003 0.67843137 0.35686275 0.43529412
v -0.02187148 -0.05629261 0.03012471 0.67843137 0.35686275 0.43529412
v -0.01349438 -0.06061636 0.03725445 0.67843137 0.35686275 0.43529412
v -0.01349438 -0.06061499 0.03240923 0.67843137 0.35686275 0.43529412
v -0.01541645 -0.05629261 0.02860456 0.67843137 0.35686275 0.43529412
v -0.02187148 -0.06861488 0.03954003 0.67843137 0.35686275 0.43529412
v -0.01352472 -0.07025101 0.03954003 0.67843137 0.35686275 0.43529412
v -0.02187148 -0.05629261 0.02860456 0.67843137 0.35686275 0.43529412
v -0.01349438 -0.07027839 0.03725445 0.67843137 0.35686275 0.43529412
v -0.01349438 -0.06061499 0.03012471 0.67843137 0.35686275 0.43529412
v -0.01358621 -0.06050683 0.02860456 0.67843137 0.35686275 0.43529412
v -0.02187148 -0.06861488 0.03725552 0.67843137 0.35686275 0.43529412
v -0.01349438 -0.07027976 0.03573430 0.67843137 0.35686275 0.43529412
v -0.02187148 -0.06861352 0.02860456 0.67843137 0.35686275 0.43529412
v -0.01349438 -0.07027976 0.03012471 0.67843137 0.35686275 0.43529412
v -0.01358621 -0.07019214 0.02860456 0.67843137 0.35686275 0.43529412
f 395 396 399
f 395 399 397
f 395 397 403
f 395 403 404
f 395 404 398
f 395 398 396
f 396 398 400
f 396 400 401
f 396 401 407
f 396 407 402
f 396 402 405
f 396 405 399
f 397 399 405
f 397 405 411
f 397 411 409
f 397 409 403
f 398 404 406
f 398 406 400
f 400 406 410
f 400 410 412
f 400 412 407
f 400 407 401
f 402 408 413
f 402 413 411
f 402 411 405
f 402 407 408
f 403 409 412
f 403 412 410
f 403 410 406
f 403 406 404
f 407 412 413
f 407 413 408
f 409 411 412
f 411 413 412

o geometry_14
v -0.01887436 -0.09201596 0.01362528 0.69411765 0.05882353 0.66666667
v -0.01887436 -0.09201596 0.01610322 0.69411765 0.05882353 0.66666667
v -0.01887436 -0.08704819 0.01362528 0.69411765 0.05882353 0.66666667
v 0.00751791 -0.09201596 0.01362528 0.69411765 0.05882353 0.66666667
v -0.01110600 -0.09201901 0.01362552 0.69411765 0.05882353 0.66666667
v -0.01110600 -0.09201901 0.01486522 0.69411765 0.05882353 0.66666667
v 0.00751791 -0.09201596 0.01610322 0.69411765 0.05882353 0.66666667
v -0.01887436 -0.08704514 0.01610322 0.69411765 0.05882353 0.66666667
v -0.01887436 -0.08704514 0.01486498 0.69411765 0.05882353 0.66666667
v -0.01161494 -0.06240477 0.01362552 0.69411765 0.05882353 0.66666667
v -0.01110600 -0.08220866 0.01362528 0.69411765 0.05882353 0.66666667
v -0.00614583 -0.09201901 0.01362552 0.69411765 0.05882353 0.66666667
v 0.00751791 -0.08704819 0.01362528 0.69411765 0.05882353 0.66666667
v -0.00614583 -0.09201901 0.01486522 0.69411765 0.05882353 0.66666667
v 0.00751791 -0.08704819 0.01610322 0.69411765 0.05882353 0.66666667
v -0.01129201 -0.08247736 0.01610322 0.69411765 0.05882353 0.66666667
v -0.00614324 -0.06417265 0.01610298 0.69411765 0.05882353 0.66666667
v -0.01161494 -0.06240477 0.01486522 0.69411765 0.05882353 0.66666667
v 0.00105935 -0.06082620 0.01486522 0.69411765 0.05882353 0.66666667
v -0.00038479 -0.06223073 0.01362552 0.69411765 0.05882353 0.66666667
v -0.00614583 -0.08135984 0.01362528 0.69411765 0.05882353 0.66666667
v -0.00161192 -0.08135984 0.01362528 0.69411765 0.05882353 0.66666667
v 0.00105935 -0.06082620 0.01610298 0.69411765 0.05882353 0.66666667
v -0.00218544 -0.07950647 0.01610322 0.69411765 0.05882353 0.66666667
v -0.00614066 -0.07950647 0.01610322 0.69411765 0.05882353 0.66666667
f 414 415 421
f 414 421 422
f 414 422 416
f 414 416 424
f 414 424 434
f 414 434 435
f 414 435 426
f 414 426 417
f 414 417 425
f 414 425 418
f 414 418 419
f 414 419 415
f 415 419 427
f 415 427 420
f 415 420 428
f 415 428 437
f 415 437 438
f 415 438 429
f 415 429 421
f 416 422 423
f 416 423 424
f 417 420 427
f 417 427 425
f 417 426 428
f 417 428 420
f 418 425 427
f 418 427 419
f 421 429 430
f 421 430 431
f 421 431 423
f 421 423 422
f 423 431 436
f 423 436 432
f 423 432 433
f 423 433 434
f 423 434 424
f 426 435 433
f 426 433 432
f 426 432 436
f 426 436 428
f 428 436 437
f 429 438 430
f 430 438 436
f 430 436 431
f 433 435 434
f 436 438 437

o geometry_15
v -0.03370102 -0.07386310 0.01610697 0.67058824 0.20784314 0.12549020
v -0.03370102 -0.07382241 0.01362884 0.67058824 0.20784314 0.12549020
v -0.02796067 -0.07386310 0.01610697 0.67058824 0.20784314 0.12549020
v -0.03370102 -0.07386310 0.01827177 0.67058824 0.20784314 0.12549020
v -0.03370534 -0.07382750 0.03953883 0.67058824 0.20784314 0.12549020
v -0.03370534 -0.07382241 0.02860444 0.67058824 0.20784314 0.12549020
v -0.03370102 -0.05470281 0.01362528 0.67058824 0.20784314 0.12549020
v -0.02794121 -0.07382241 0.01362884 0.67058824 0.20784314 0.12549020
v -0.03370318 -0.05955519 0.01827533 0.67058824 0.20784314 0.12549020
v -0.01161745 -0.07234483 0.01362884 0.67058824 0.20784314 0.12549020
v -0.02796067 -0.07386310 0.01899456 0.67058824 0.20784314 0.12549020
v -0.03369885 -0.07386310 0.01899456 0.67058824 0.20784314 0.12549020
v -0.03370102 -0.07382750 0.04999968 0.67058824 0.20784314 0.12549020
v -0.03370534 -0.07382750 0.04438828 0.67058824 0.20784314 0.12549020
v -0.03370534 -0.05629738 0.02860444 0.67058824 0.20784314 0.12549020
v -0.01556542 -0.05470281 0.01362528 0.67058824 0.20784314 0.12549020
v -0.03370102 -0.04788201 0.01362528 0.67058824 0.20784314 0.12549020
v -0.03370318 -0.05106607 0.01827533 0.67058824 0.20784314 0.12549020
v -0.01254931 -0.04788201 0.01362528 0.67058824 0.20784314 0.12549020
v -0.01161745 -0.06239846 0.01362884 0.67058824 0.20784314 0.12549020
v -0.01161745 -0.07234483 0.01487147 0.67058824 0.20784314 0.12549020
v -0.02794338 -0.07382750 0.04999968 0.67058824 0.20784314 0.12549020
v -0.03370318 -0.06015029 0.04999968 0.67058824 0.20784314 0.12549020
v -0.03370534 -0.04871617 0.04438828 0.67058824 0.20784314 0.12549020
v -0.03370534 -0.04871617 0.04286793 0.67058824 0.20784314 0.12549020
v -0.03370102 -0.04788201 0.01487147 0.67058824 0.20784314 0.12549020
v -0.03370318 -0.04947149 0.02147269 0.67058824 0.20784314 0.12549020
v -0.01254931 -0.04788201 0.01487147 0.67058824 0.20784314 0.12549020
v -0.01161745 -0.06239846 0.01487147 0.67058824 0.20784314 0.12549020
v -0.01242175 -0.07129704 0.04286793 0.67058824 0.20784314 0.12549020
v -0.01300335 -0.07074771 0.04999968 0.67058824 0.20784314 0.12549020
v -0.03370318 -0.05107370 0.04999968 0.67058824 0.20784314 0.12549020
v -0.01329956 -0.04871617 0.04438828 0.67058824 0.20784314 0.12549020
v -0.03370102 -0.04798628 0.02147269 0.67058824 0.20784314 0.12549020
v -0.01266823 -0.04798628 0.02147269 0.67058824 0.20784314 0.12549020
v -0.01242175 -0.06177538 0.04286793 0.67058824 0.20784314 0.12549020
v -0.01300335 -0.06119808 0.04999968 0.67058824 0.20784314 0.12549020
v -0.01481086 -0.05107370 0.04999968 0.67058824 0.20784314 0.12549020
f 439 440 446
f 439 446 441
f 439 441 449
f 439 449 450
f 439 450 442
f 439 442 452
f 439 452 443
f 439 443 444
f 439 444 440
f 440 445 454
f 440 454 446
f 440 444 447
f 440 447 445
f 441 446 448
f 441 448 459
f 441 459 449
f 442 450 451
f 442 451 452
f 443 452 462
f 443 462 463
f 443 463 453
f 443 453 444
f 444 453 456
f 444 456 447
f 445 447 456
f 445 456 455
f 445 455 457
f 445 457 454
f 446 454 448
f 448 454 457
f 448 457 458
f 448 458 467
f 448 467 459
f 449 459 460
f 449 460 451
f 449 451 450
f 451 460 469
f 451 469 475
f 451 475 476
f 451 476 470
f 451 470 461
f 451 461 452
f 452 461 470
f 452 470 462
f 453 463 456
f 455 464 466
f 455 466 457
f 455 456 465
f 455 465 463
f 455 463 462
f 455 462 464
f 456 463 465
f 457 466 467
f 457 467 458
f 459 467 474
f 459 474 468
f 459 468 460
f 460 468 469
f 462 470 476
f 462 476 471
f 462 471 473
f 462 473 472
f 462 472 464
f 464 472 473
f 464 473 466
f 466 473 467
f 467 473 474
f 468 474 475
f 468 475 469
f 471 476 475
f 471 475 474
f 471 474 473

o geometry_16
v -0.01391548 -0.04945769 0.04667205 0.31372549 0.36078431 0.56862745
v -0.01427966 -0.05944815 0.04667205 0.31372549 0.36078431 0.56862745
v -0.01391548 -0.04945769 0.04438934 0.31372549 0.36078431 0.56862745
v -0.03370534 -0.04945769 0.04667205 0.31372549 0.36078431 0.56862745
v -0.01427966 -0.05944815 0.04438934 0.31372549 0.36078431 0.56862745
v -0.03370534 -0.05944815 0.04667205 0.31372549 0.36078431 0.56862745
v -0.03370534 -0.04945769 0.04438934 0.31372549 0.36078431 0.56862745
v -0.03367822 -0.05944815 0.04438934 0.31372549 0.36078431 0.56862745
v -0.03370534 -0.05944815 0.04439135 0.31372549 0.36078431 0.56862745
v -0.03370534 -0.05941099 0.04438934 0.31372549 0.36078431 0.56862745
f 477 478 481
f 477 481 479
f 477 479 483
f 477 483 480
f 477 480 482
f 477 482 478
f 478 482 485
f 478 485 484
f 478 484 481
f 479 481 484
f 479 484 486
f 479 486 483
f 480 483 486
f 480 486 485
f 480 485 482
f 484 485 486

o geometry_17
v 0.02142200 -0.04859445 0.01754825 0.43529412 0.98823529 0.10196078
v 0.02142200 -0.05383245 0.01754825 0.43529412 0.98823529 0.10196078
v 0.02142200 -0.04859445 0.01682661 0.43529412 0.98823529 0.10196078
v 0.00094546 -0.04859445 0.01754825 0.43529412 0.98823529 0.10196078
v 0.02142200 -0.05383245 0.01682661 0.43529412 0.98823529 0.10196078
v 0.00322241 -0.05383245 0.01754825 0.43529412 0.98823529 0.10196078
v 0.00094546 -0.04859445 0.01682661 0.43529412 0.98823529 0.10196078
v 0.00322241 -0.05383245 0.01682661 0.43529412 0.98823529 0.10196078
f 487 488 491
f 487 491 489
f 487 489 493
f 487 493 490
f 487 490 492
f 487 492 488
f 488 492 494
f 488 494 491
f 489 491 494
f 489 494 493
f 490 493 494
f 490 494 492

o geometry_18
v -0.01329499 -0.04871371 0.01610322 0.20784314 0.16078431 0.65098039
v -0.01499935 -0.05788328 0.01610322 0.20784314 0.16078431 0.65098039
v -0.01329499 -0.04871371 0.01486552 0.20784314 0.16078431 0.65098039
v -0.03370534 -0.04871371 0.01610322 0.20784314 0.16078431 0.65098039
v -0.01499935 -0.05788328 0.01486552 0.20784314 0.16078431 0.65098039
v -0.03370534 -0.05788328 0.01610322 0.20784314 0.16078431 0.65098039
v -0.03370534 -0.04871371 0.01486552 0.20784314 0.16078431 0.65098039
v -0.03370534 -0.05788328 0.01486552 0.20784314 0.16078431 0.65098039
f 495 496 499
f 495 499 497
f 495 497 501
f 495 501 498
f 495 498 500
f 495 500 496
f 496 500 502
f 496 502 499
f 497 499 502
f 497 502 501
f 498 501 502
f 498 502 500

o geometry_19
v -0.02584275 -0.08446727 0.01145915 0.25098039 0.46274510 0.24313725
v -0.02584275 -0.08446727 0.01073575 0.25098039 0.46274510 0.24313725
v -0.02584275 -0.09201901 0.01145915 0.25098039 0.46274510 0.24313725
v 0.01015205 -0.08648900 0.01145915 0.25098039 0.46274510 0.24313725
v -0.02584275 -0.09201901 0.01073575 0.25098039 0.46274510 0.24313725
v 0.01015205 -0.08648900 0.01073575 0.25098039 0.46274510 0.24313725
v -0.01790811 -0.09201901 0.01145915 0.25098039 0.46274510 0.24313725
v 0.01015205 -0.09201827 0.01145915 0.25098039 0.46274510 0.24313725
v -0.01790811 -0.09201901 0.01073575 0.25098039 0.46274510 0.24313725
v 0.01015205 -0.09201827 0.01073575 0.25098039 0.46274510 0.24313725
f 503 504 507
f 503 507 505
f 503 505 509
f 503 509 510
f 503 510 506
f 503 506 508
f 503 508 504
f 504 508 512
f 504 512 511
f 504 511 507
f 505 507 511
f 505 511 509
f 506 510 512
f 506 512 508
f 509 511 512
f 509 512 510