# https://github.com/mikedh/trimesh
v -0.07585196 0.01018862 -0.01193804
v -0.07593122 0.01037996 -0.01193804
v -0.07574374 0.01001204 -0.01193804
v -0.07550152 0.00996230 -0.01215564
v -0.07560926 0.00985456 -0.01193804
v -0.07546850 0.01021202 -0.01234348
v -0.07554884 0.01034308 -0.01234348
v -0.07560766 0.01048510 -0.01234348
v -0.07571620 0.01025780 -0.01215564
v -0.07562048 0.01010160 -0.01215564
v -0.07578630 0.01042706 -0.01215564
v -0.07583458 0.00994606 -0.01169728
v -0.07589020 0.00990564 -0.01144068
v -0.07590894 0.00989204 -0.01117604
v -0.07603800 0.01034526 -0.01169728
v -0.07595200 0.01013766 -0.01169728
v -0.07601326 0.01010644 -0.01144068
v -0.07603388 0.01009592 -0.01117604
v -0.07610338 0.01032402 -0.01144068
v -0.07612542 0.01031688 -0.01117604
v -0.07568864 0.00977516 -0.01169728
v -0.07573726 0.00972656 -0.01144068
v -0.07575362 0.00971018 -0.01117604
v -0.07582908 0.01060518 -0.01215564
v -0.07597958 0.01058136 -0.01193804
v -0.07584344 0.01078782 -0.01215564
v -0.07599582 0.01078782 -0.01193804
v -0.07564354 0.01063458 -0.01234348
v -0.07565560 0.01078782 -0.01234348
v -0.07542860 0.01066862 -0.01249586
v -0.07543800 0.01078782 -0.01249586
v -0.07609046 0.01056378 -0.01169728
v -0.07610808 0.01078782 -0.01169728
v -0.07615836 0.01055304 -0.01144068
v -0.07618124 0.01054940 -0.01117604
v -0.07617684 0.01078782 -0.01144068
v -0.07620000 0.01078782 -0.01117604
v -0.07536868 0.01009514 -0.01234348
v -0.07535494 0.01044188 -0.01249586
v -0.07529246 0.01033992 -0.01249586
v -0.07521482 0.01024900 -0.01249586
v -0.07504458 0.01041924 -0.01260812
v -0.07509768 0.01048144 -0.01260812
v -0.07540070 0.01055234 -0.01249586
v -0.07514042 0.01055116 -0.01260812
v -0.07517172 0.01062674 -0.01260812
v -0.07519082 0.01070628 -0.01260812
v -0.07519724 0.01078782 -0.01260812
v -0.07493738 0.01074642 -0.01267688
v -0.07489010 0.01063226 -0.01267688
v -0.07486312 0.01060068 -0.01267688
v -0.07491180 0.01066768 -0.01267688
v -0.07492768 0.01070604 -0.01267688
v -0.07494064 0.01078782 -0.01267688
v -0.07467600 0.01078782 -0.01270002
v -0.07584344 0.01371254 -0.01215564
v -0.07599582 0.01371254 -0.01193804
v -0.07584344 0.01388266 -0.01214076
v -0.07599582 0.01384488 -0.01192646
v -0.07584344 0.01404760 -0.01209656
v -0.07584344 0.01420236 -0.01202440
v -0.07565560 0.01371254 -0.01234348
v -0.07543800 0.01371254 -0.01249586
v -0.07565560 0.01391528 -0.01232574
v -0.07543800 0.01394174 -0.01247580
v -0.07543800 0.01416396 -0.01241626
v -0.07565560 0.01411184 -0.01227308
v -0.07565560 0.01429628 -0.01218708
v -0.07610808 0.01371254 -0.01169728
v -0.07610808 0.01380306 -0.01168936
v -0.07617684 0.01371254 -0.01144068
v -0.07617684 0.01375850 -0.01143666
v -0.07617684 0.01380306 -0.01142472
v -0.07620000 0.01371254 -0.01117604
v -0.07610808 0.01389084 -0.01166584
v -0.07610808 0.01397316 -0.01162744
v -0.07610808 0.01404760 -0.01157532
v -0.07610808 0.01411184 -0.01151108
v -0.07599582 0.01397316 -0.01189208
v -0.07599582 0.01409356 -0.01183594
v -0.07599582 0.01420236 -0.01175976
v -0.07599582 0.01429628 -0.01166584
v -0.07617684 0.01384488 -0.01140522
v -0.07617684 0.01388266 -0.01137876
v -0.07617684 0.01391528 -0.01134614
v -0.07617684 0.01394174 -0.01130834
v -0.07617684 0.01396124 -0.01126654
v -0.07617684 0.01397316 -0.01122198
v -0.07617684 0.01397720 -0.01117604
v -0.07610808 0.01416396 -0.01143666
v -0.07610808 0.01420236 -0.01135430
v -0.07610808 0.01422586 -0.01126654
v -0.07610808 0.01423378 -0.01117604
v -0.07584344 0.01434224 -0.01192646
v -0.07543800 0.01437246 -0.01231904
v -0.07565560 0.01446298 -0.01207036
v -0.07565560 0.01460686 -0.01192646
v -0.07543800 0.01456092 -0.01218708
v -0.07543800 0.01472360 -0.01202440
v -0.07584344 0.01446298 -0.01180572
v -0.07599582 0.01437246 -0.01155704
v -0.07584344 0.01456092 -0.01166584
v -0.07584344 0.01463308 -0.01151108
v -0.07599582 0.01442860 -0.01143666
v -0.07599582 0.01446298 -0.01130834
v -0.07599582 0.01447456 -0.01117604
v -0.07584344 0.01467728 -0.01134614
v -0.07584344 0.01469216 -0.01117604
v -0.07565560 0.01472360 -0.01175976
v -0.07565560 0.01480960 -0.01157532
v -0.07543800 0.01485556 -0.01183594
v -0.07543800 0.01495278 -0.01162744
v -0.07565560 0.01486226 -0.01137876
v -0.07565560 0.01488000 -0.01117604
v -0.07543800 0.01501232 -0.01140522
v -0.07543800 0.01503238 -0.01117604
v -0.07519724 0.01371254 -0.01260812
v -0.07519724 0.01396124 -0.01258636
v -0.07519724 0.01420236 -0.01252176
v -0.07494064 0.01371254 -0.01267688
v -0.07467600 0.01371254 -0.01270002
v -0.07494064 0.01397316 -0.01265408
v -0.07494064 0.01422586 -0.01258636
v -0.07467600 0.01397720 -0.01267688
v -0.07467600 0.01423378 -0.01260812
v -0.07519724 0.01442860 -0.01241626
v -0.07519724 0.01463308 -0.01227308
v -0.07519724 0.01480960 -0.01209656
v -0.07494064 0.01446298 -0.01247580
v -0.07494064 0.01467728 -0.01232574
v -0.07467600 0.01447456 -0.01249586
v -0.07467600 0.01469216 -0.01234348
v -0.07494064 0.01486226 -0.01214076
v -0.07494064 0.01501232 -0.01192646
v -0.07467600 0.01488000 -0.01215564
v -0.07467600 0.01503238 -0.01193804
v -0.07519724 0.01495278 -0.01189208
v -0.07519724 0.01505828 -0.01166584
v -0.07519724 0.01512288 -0.01142472
v -0.07519724 0.01514464 -0.01117604
v -0.07494064 0.01512288 -0.01168936
v -0.07467600 0.01514464 -0.01169728
v -0.07494064 0.01519060 -0.01143666
v -0.07494064 0.01521340 -0.01117604
v -0.07467600 0.01521340 -0.01144068
v -0.07467600 0.01523654 -0.01117604
v -0.07583128 0.00980110 -0.00000004
v -0.07590894 0.00989204 -0.00000004
v -0.07597142 0.00999398 -0.00000004
v -0.07603388 0.01009592 -0.00000004
v -0.07607964 0.01020640 -0.00000004
v -0.07612542 0.01031688 -0.00000004
v -0.07615332 0.01043314 -0.00000004
v -0.07575362 0.00971018 -0.00000004
v -0.07618124 0.01054940 -0.00000004
v -0.07619062 0.01066860 -0.00000004
v -0.07620000 0.01078782 -0.00000004
v -0.07620000 0.01225018 -0.00000004
v -0.07620000 0.01371254 -0.00000004
v -0.07618842 0.01384488 -0.00000004
v -0.07617684 0.01397720 -0.00000004
v -0.07614246 0.01410550 -0.00000004
v -0.07610808 0.01423378 -0.00000004
v -0.07605196 0.01435418 -0.00000004
v -0.07599582 0.01447456 -0.00000004
v -0.07591964 0.01458336 -0.00000004
v -0.07584346 0.01469216 -0.00000004
v -0.07574952 0.01478608 -0.00000004
v -0.07565560 0.01488000 -0.00000004
v -0.07554680 0.01495618 -0.00000004
v -0.07543800 0.01503238 -0.00000004
v -0.07531762 0.01508850 -0.00000004
v -0.07519724 0.01514464 -0.00000004
v -0.07506894 0.01517902 -0.00000004
v -0.07494064 0.01521340 -0.00000004
v -0.07480832 0.01522498 -0.00000004
v -0.07467600 0.01523654 -0.00000004
v -0.06937470 0.00383548 -0.01215564
v -0.06948244 0.00372774 -0.01193804
v -0.06940164 0.00380856 -0.01210124
v -0.06945550 0.00375468 -0.01199244
v -0.06927508 0.00393510 -0.01229652
v -0.06934148 0.00386870 -0.01220260
v -0.06956182 0.00364836 -0.01169728
v -0.06957398 0.00363620 -0.01163312
v -0.06961044 0.00359974 -0.01144068
v -0.06961454 0.00359564 -0.01137452
v -0.06959828 0.00361190 -0.01150482
v -0.06962272 0.00358746 -0.01124220
v -0.06962680 0.00358336 -0.01117604
v -0.06950228 0.00370790 -0.01187784
v -0.06954198 0.00366820 -0.01175746
v -0.06924186 0.00396832 -0.01234348
v -0.06920340 0.00400678 -0.01238158
v -0.06904544 0.00416474 -0.01252392
v -0.06912646 0.00408372 -0.01245776
v -0.06908800 0.00412218 -0.01249586
v -0.06891776 0.00429242 -0.01260812
v -0.06896032 0.00424986 -0.01258006
v -0.06887240 0.00433778 -0.01262532
v -0.06878166 0.00442850 -0.01265970
v -0.06873630 0.00447386 -0.01267688
v -0.06868952 0.00452066 -0.01268266
v -0.06859596 0.00461422 -0.01269424
v -0.06854918 0.00466100 -0.01270002
v -0.06962680 0.00358336 -0.00558804
v -0.06908800 0.01523654 -0.00558804
v -0.07590894 0.00989204 0.01117598
v -0.07589020 0.00990564 0.01144060
v -0.07583460 0.00994606 0.01169720
v -0.07603388 0.01009592 0.01117598
v -0.07601328 0.01010644 0.01144060
v -0.07612542 0.01031688 0.01117598
v -0.07610338 0.01032402 0.01144060
v -0.07603800 0.01034526 0.01169720
v -0.07595200 0.01013766 0.01169720
v -0.07575362 0.00971018 0.01117598
v -0.07573726 0.00972656 0.01144060
v -0.07568864 0.00977516 0.01169720
v -0.07585196 0.01018862 0.01193798
v -0.07593122 0.01037996 0.01193798
v -0.07574376 0.01001204 0.01193798
v -0.07560926 0.00985456 0.01193798
v -0.07550152 0.00996230 0.01215558
v -0.07571622 0.01025780 0.01215558
v -0.07562050 0.01010160 0.01215558
v -0.07578632 0.01042706 0.01215558
v -0.07546852 0.01021202 0.01234342
v -0.07554884 0.01034308 0.01234342
v -0.07560766 0.01048510 0.01234342
v -0.07618124 0.01054940 0.01117598
v -0.07615836 0.01055304 0.01144060
v -0.07620000 0.01078782 0.01117598
v -0.07617684 0.01078782 0.01144060
v -0.07609046 0.01056378 0.01169720
v -0.07610808 0.01078782 0.01169720
v -0.07597958 0.01058136 0.01193798
v -0.07582908 0.01060518 0.01215558
v -0.07599582 0.01078782 0.01193798
v -0.07584346 0.01078782 0.01215558
v -0.07564356 0.01063458 0.01234342
v -0.07565560 0.01078782 0.01234342
v -0.07542862 0.01066862 0.01249578
v -0.07543800 0.01078782 0.01249578
v -0.07536870 0.01009514 0.01234342
v -0.07535494 0.01044188 0.01249578
v -0.07529248 0.01033992 0.01249578
v -0.07521482 0.01024900 0.01249578
v -0.07504458 0.01041924 0.01260806
v -0.07509768 0.01048144 0.01260806
v -0.07540070 0.01055234 0.01249578
v -0.07514042 0.01055116 0.01260806
v -0.07517174 0.01062674 0.01260806
v -0.07519082 0.01070628 0.01260806
v -0.07519724 0.01078782 0.01260806
v -0.07493738 0.01074642 0.01267682
v -0.07489010 0.01063226 0.01267682
v -0.07486312 0.01060068 0.01267682
v -0.07491180 0.01066768 0.01267682
v -0.07492768 0.01070604 0.01267682
v -0.07494064 0.01078782 0.01267682
v -0.07467600 0.01078782 0.01269996
v -0.07620000 0.01371254 0.01117598
v -0.07617684 0.01371254 0.01144060
v -0.07610808 0.01371254 0.01169720
v -0.07617684 0.01397720 0.01117598
v -0.07615404 0.01397316 0.01144060
v -0.07610808 0.01423378 0.01117598
v -0.07608632 0.01422586 0.01144060
v -0.07608632 0.01396124 0.01169720
v -0.07602172 0.01420236 0.01169720
v -0.07599582 0.01371254 0.01193798
v -0.07584346 0.01371254 0.01215558
v -0.07597576 0.01394174 0.01193798
v -0.07582570 0.01391528 0.01215558
v -0.07591624 0.01416396 0.01193798
v -0.07565560 0.01371254 0.01234342
v -0.07543800 0.01371254 0.01249578
v -0.07577306 0.01411184 0.01215558
v -0.07568706 0.01429628 0.01215558
v -0.07564072 0.01388266 0.01234342
v -0.07559654 0.01404760 0.01234342
v -0.07542642 0.01384488 0.01249578
v -0.07552436 0.01420236 0.01234342
v -0.07599582 0.01447456 0.01117598
v -0.07597576 0.01446298 0.01144060
v -0.07584346 0.01469216 0.01117598
v -0.07582570 0.01467728 0.01144060
v -0.07591624 0.01442860 0.01169720
v -0.07577306 0.01463308 0.01169720
v -0.07565560 0.01488000 0.01117598
v -0.07564072 0.01486226 0.01144060
v -0.07543800 0.01503238 0.01117598
v -0.07542642 0.01501232 0.01144060
v -0.07559654 0.01480960 0.01169720
v -0.07581900 0.01437246 0.01193798
v -0.07568706 0.01456092 0.01193798
v -0.07557032 0.01446298 0.01215558
v -0.07552436 0.01472360 0.01193798
v -0.07542642 0.01460686 0.01215558
v -0.07542642 0.01434224 0.01234342
v -0.07519724 0.01371254 0.01260806
v -0.07518932 0.01380306 0.01260806
v -0.07539206 0.01397316 0.01249578
v -0.07533592 0.01409356 0.01249578
v -0.07525974 0.01420236 0.01249578
v -0.07516580 0.01389084 0.01260806
v -0.07512740 0.01397316 0.01260806
v -0.07507530 0.01404760 0.01260806
v -0.07516580 0.01429628 0.01249578
v -0.07494064 0.01371254 0.01267682
v -0.07493662 0.01375850 0.01267682
v -0.07492468 0.01380306 0.01267682
v -0.07467600 0.01371254 0.01269996
v -0.07490520 0.01384488 0.01267682
v -0.07487872 0.01388266 0.01267682
v -0.07484612 0.01391528 0.01267682
v -0.07501104 0.01411184 0.01260806
v -0.07493662 0.01416396 0.01260806
v -0.07485428 0.01420236 0.01260806
v -0.07480832 0.01394174 0.01267682
v -0.07476650 0.01396124 0.01267682
v -0.07472194 0.01397316 0.01267682
v -0.07467600 0.01397720 0.01267682
v -0.07476650 0.01422586 0.01260806
v -0.07467600 0.01423378 0.01260806
v -0.07519724 0.01514464 0.01117598
v -0.07518932 0.01512288 0.01144060
v -0.07539206 0.01495278 0.01169720
v -0.07516580 0.01505828 0.01169720
v -0.07494064 0.01521340 0.01117598
v -0.07493662 0.01519060 0.01144060
v -0.07467600 0.01523654 0.01117598
v -0.07467600 0.01521340 0.01144060
v -0.07492468 0.01512288 0.01169720
v -0.07467600 0.01514464 0.01169720
v -0.07525974 0.01472360 0.01215558
v -0.07530568 0.01446298 0.01234342
v -0.07505700 0.01437246 0.01249578
v -0.07516580 0.01456092 0.01234342
v -0.07533592 0.01485556 0.01193798
v -0.07512740 0.01495278 0.01193798
v -0.07507530 0.01480960 0.01215558
v -0.07493662 0.01442860 0.01249578
v -0.07501104 0.01463308 0.01234342
v -0.07484612 0.01467728 0.01234342
v -0.07480832 0.01446298 0.01249578
v -0.07467600 0.01447456 0.01249578
v -0.07467600 0.01469216 0.01234342
v -0.07487872 0.01486226 0.01215558
v -0.07490520 0.01501232 0.01193798
v -0.07467600 0.01488000 0.01215558
v -0.07467600 0.01503238 0.01193798
v -0.06962682 0.00358336 -0.00000002
v -0.06962682 0.00358336 0.00558798
v -0.06962682 0.00358336 0.01117598
v -0.06962272 0.00358746 0.01124214
v -0.06961454 0.00359564 0.01137444
v -0.06961046 0.00359974 0.01144060
v -0.06959830 0.00361190 0.01150476
v -0.06957398 0.00363620 0.01163306
v -0.06956182 0.00364836 0.01169720
v -0.06954198 0.00366820 0.01175740
v -0.06950228 0.00370790 0.01187778
v -0.06948244 0.00372774 0.01193798
v -0.06945550 0.00375468 0.01199238
v -0.06940164 0.00380856 0.01210118
v -0.06937470 0.00383548 0.01215558
v -0.06934150 0.00386870 0.01220254
v -0.06927508 0.00393510 0.01229646
v -0.06924188 0.00396832 0.01234342
v -0.06920340 0.00400678 0.01238152
v -0.06912648 0.00408372 0.01245770
v -0.06908800 0.00412218 0.01249580
v -0.06904544 0.00416474 0.01252386
v -0.06896032 0.00424986 0.01258000
v -0.06891776 0.00429242 0.01260806
v -0.06887240 0.00433778 0.01262526
v -0.06878168 0.00442850 0.01265964
v -0.06873632 0.00447386 0.01267682
v -0.06868952 0.00452066 0.01268260
v -0.06859596 0.00461422 0.01269418
v -0.06854918 0.00466100 0.01269996
v -0.06908800 0.01523654 0.00558798
v -0.06335562 -0.00239908 -0.01193804
v -0.06311506 -0.00215850 -0.01234348
v -0.06324788 -0.00229132 -0.01215564
v -0.06318146 -0.00222492 -0.01224956
v -0.06330174 -0.00234520 -0.01204684
v -0.06303812 -0.00208156 -0.01241966
v -0.06296118 -0.00200464 -0.01249586
v -0.06339532 -0.00243876 -0.01181766
v -0.06345932 -0.00250276 -0.01156898
v -0.06343500 -0.00247846 -0.01169726
v -0.06348364 -0.00252708 -0.01144068
v -0.06349182 -0.00253526 -0.01130836
v -0.06350000 -0.00254344 -0.01117602
v -0.06287606 -0.00191950 -0.01255198
v -0.06279094 -0.00183438 -0.01260812
v -0.06270020 -0.00174366 -0.01264250
v -0.06260948 -0.00165294 -0.01267688
v -0.06251592 -0.00155938 -0.01268846
v -0.06242236 -0.00146582 -0.01270002
v -0.05722880 -0.00852588 -0.01193802
v -0.05720186 -0.00849896 -0.01199244
v -0.05712106 -0.00841814 -0.01215564
v -0.05708786 -0.00838494 -0.01220260
v -0.05714800 -0.00844508 -0.01210124
v -0.05698824 -0.00828532 -0.01234348
v -0.05702144 -0.00831852 -0.01229652
v -0.05728834 -0.00858542 -0.01175746
v -0.05732034 -0.00861742 -0.01163312
v -0.05730818 -0.00860528 -0.01169726
v -0.05724864 -0.00854574 -0.01187784
v -0.05735682 -0.00865390 -0.01144066
v -0.05736090 -0.00865798 -0.01137450
v -0.05734466 -0.00864174 -0.01150482
v -0.05736910 -0.00866618 -0.01124218
v -0.05737318 -0.00867026 -0.01117602
v -0.05687284 -0.00816992 -0.01245776
v -0.05694978 -0.00824684 -0.01238158
v -0.05679180 -0.00808888 -0.01252392
v -0.05683436 -0.00813144 -0.01249586
v -0.05670668 -0.00800376 -0.01258006
v -0.05666412 -0.00796120 -0.01260812
v -0.05661876 -0.00791584 -0.01262530
v -0.05652804 -0.00782512 -0.01265968
v -0.05648268 -0.00777976 -0.01267688
v -0.05643590 -0.00773298 -0.01268266
v -0.05634234 -0.00763942 -0.01269424
v -0.05629556 -0.00759262 -0.01270002
v -0.05120000 -0.01455531 -0.01193706
v -0.05120000 -0.01455468 -0.01193802
v -0.05120000 -0.01407356 -0.01234348
v -0.05120000 -0.01407721 -0.01234090
v -0.05120000 -0.01408439 -0.01233582
v -0.05120000 -0.01406928 -0.01234560
v -0.05120000 -0.01433920 -0.01215564
v -0.05120000 -0.01475071 -0.01159893
v -0.05120000 -0.01471344 -0.01169726
v -0.05120000 -0.01479400 -0.01147573
v -0.05123000 -0.01478070 -0.01144066
v -0.05120000 -0.01480632 -0.01144066
v -0.05124638 -0.01479708 -0.01117602
v -0.05120000 -0.01483669 -0.01117602
v -0.05120000 -0.01376580 -0.01249584
v -0.05120000 -0.01343446 -0.01260511
v -0.05120000 -0.01341543 -0.01260999
v -0.05120000 -0.01342532 -0.01260812
v -0.05120000 -0.01307485 -0.01267453
v -0.05120000 -0.01306244 -0.01267688
v -0.05120000 -0.01273437 -0.01269716
v -0.05120000 -0.01270381 -0.01269905
v -0.05120000 -0.01268818 -0.01270002
v -0.05737318 -0.00867026 -0.00558802
v -0.05120000 -0.00232002 -0.01270002
v -0.06350000 -0.00254344 -0.00000002
v -0.06350000 -0.00254344 0.01117598
v -0.06349182 -0.00253526 0.01130830
v -0.06348364 -0.00252708 0.01144060
v -0.06345932 -0.00250276 0.01156890
v -0.06343500 -0.00247846 0.01169720
v -0.06339532 -0.00243876 0.01181760
v -0.06335562 -0.00239908 0.01193798
v -0.06330176 -0.00234520 0.01204678
v -0.06324788 -0.00229132 0.01215558
v -0.06318148 -0.00222492 0.01224950
v -0.06311506 -0.00215850 0.01234342
v -0.06303812 -0.00208156 0.01241960
v -0.06296118 -0.00200464 0.01249580
v -0.06287606 -0.00191952 0.01255192
v -0.06279094 -0.00183438 0.01260806
v -0.06270022 -0.00174366 0.01264244
v -0.06260950 -0.00165294 0.01267682
v -0.06251594 -0.00155938 0.01268840
v -0.06242238 -0.00146582 0.01269998
v -0.05737318 -0.00867026 -0.00000002
v -0.05737318 -0.00867026 0.00558798
v -0.05124638 -0.01479708 -0.00000002
v -0.05120000 -0.01483669 -0.00000002
v -0.05737320 -0.00867026 0.01117598
v -0.05736910 -0.00866618 0.01124214
v -0.05736092 -0.00865798 0.01137446
v -0.05735682 -0.00865390 0.01144062
v -0.05734466 -0.00864174 0.01150476
v -0.05732034 -0.00861742 0.01163306
v -0.05730820 -0.00860528 0.01169722
v -0.05728834 -0.00858542 0.01175740
v -0.05724866 -0.00854574 0.01187778
v -0.05722882 -0.00852588 0.01193798
v -0.05720188 -0.00849896 0.01199238
v -0.05714800 -0.00844508 0.01210118
v -0.05712106 -0.00841814 0.01215558
v -0.05708786 -0.00838494 0.01220254
v -0.05702146 -0.00831852 0.01229646
v -0.05698824 -0.00828532 0.01234342
v -0.05694978 -0.00824684 0.01238152
v -0.05687284 -0.00816992 0.01245770
v -0.05683438 -0.00813144 0.01249580
v -0.05679182 -0.00808888 0.01252386
v -0.05670668 -0.00800376 0.01258000
v -0.05666412 -0.00796120 0.01260806
v -0.05661876 -0.00791584 0.01262526
v -0.05652804 -0.00782512 0.01265964
v -0.05648268 -0.00777976 0.01267682
v -0.05643590 -0.00773298 0.01268262
v -0.05634234 -0.00763942 0.01269418
v -0.05629556 -0.00759262 0.01269998
v -0.05124638 -0.01479708 0.01117598
v -0.05120000 -0.01483669 0.01117598
v -0.05120000 -0.01481183 0.01139264
v -0.05123000 -0.01478070 0.01144062
v -0.05120000 -0.01480632 0.01144062
v -0.05120000 -0.01475070 0.01159895
v -0.05120000 -0.01471310 0.01169777
v -0.05120000 -0.01471353 0.01169703
v -0.05120000 -0.01471346 0.01169722
v -0.05120000 -0.01471334 0.01169740
v -0.05120000 -0.01455470 0.01193798
v -0.05120000 -0.01455384 0.01193885
v -0.05120000 -0.01455208 0.01194062
v -0.05120000 -0.01434102 0.01215376
v -0.05120000 -0.01433922 0.01215558
v -0.05120000 -0.01433698 0.01215717
v -0.05120000 -0.01407358 0.01234342
v -0.05120000 -0.01376582 0.01249580
v -0.05120000 -0.01375893 0.01249807
v -0.05120000 -0.01343448 0.01260506
v -0.05120000 -0.01342534 0.01260808
v -0.05120000 -0.01341545 0.01260995
v -0.05120000 -0.01339523 0.01261378
v -0.05120000 -0.01306244 0.01267682
v -0.05120000 -0.01304945 0.01267763
v -0.05120000 -0.01273437 0.01269712
v -0.05120000 -0.01270381 0.01269901
v -0.05120000 -0.01268818 0.01269998
v -0.06314344 0.01025458 -0.01270002
v -0.06329582 0.01047218 -0.01270002
v -0.06340810 0.01071294 -0.01270002
v -0.06347684 0.01096954 -0.01270002
v -0.06350000 0.01123418 -0.01270002
v -0.06350000 0.01225018 -0.01270002
v -0.06350000 0.01371254 -0.01270002
v -0.06350000 0.01384488 -0.01268846
v -0.06350000 0.01397720 -0.01267688
v -0.06350000 0.01410550 -0.01264250
v -0.06350000 0.01423378 -0.01260812
v -0.06350000 0.01435418 -0.01255198
v -0.06350000 0.01447456 -0.01249586
v -0.06350000 0.01458336 -0.01241966
v -0.06350000 0.01469216 -0.01234348
v -0.06350000 0.01478608 -0.01224956
v -0.06350000 0.01488000 -0.01215564
v -0.06350000 0.01495618 -0.01204684
v -0.06350000 0.01503238 -0.01193804
v -0.06350000 0.01508850 -0.01181766
v -0.06350000 0.01514464 -0.01169726
v -0.06350000 0.01517902 -0.01156898
v -0.06350000 0.01521340 -0.01144068
v -0.06350000 0.01522498 -0.01130836
v -0.06350000 0.01523654 -0.01117602
v -0.05791200 0.01523654 -0.00558802
v -0.05701664 0.00412776 -0.01270002
v -0.05123522 0.00934564 -0.01270002
v -0.05120000 0.00932098 -0.01270002
v -0.05120000 0.00938762 -0.01269523
v -0.05214018 0.01063806 -0.01270002
v -0.05227768 0.01115126 -0.01270002
v -0.05201706 0.01119722 -0.01267688
v -0.05161090 0.00972134 -0.01270002
v -0.05191564 0.01015654 -0.01270002
v -0.05168644 0.01028888 -0.01267688
v -0.05140818 0.00989144 -0.01267688
v -0.05120000 0.00968327 -0.01267688
v -0.05121162 0.01005638 -0.01260812
v -0.05120000 0.01004476 -0.01260812
v -0.05120000 0.01006613 -0.01260104
v -0.05146424 0.01041716 -0.01260812
v -0.05125572 0.01053756 -0.01249584
v -0.05120000 0.01045797 -0.01249584
v -0.05120000 0.01051126 -0.01247436
v -0.05189150 0.01072858 -0.01267688
v -0.05165038 0.01081636 -0.01260812
v -0.05176436 0.01124178 -0.01260812
v -0.05142414 0.01089868 -0.01249584
v -0.05120000 0.01056973 -0.01245079
v -0.05120000 0.01093096 -0.01234348
v -0.05121966 0.01097312 -0.01234348
v -0.05120000 0.01098028 -0.01232256
v -0.05152728 0.01128360 -0.01249584
v -0.05131296 0.01132138 -0.01234348
v -0.05120000 0.01134130 -0.01222877
v -0.05120000 0.01146267 -0.01221815
v -0.05232400 0.01168054 -0.01270002
v -0.05205936 0.01168054 -0.01267688
v -0.05180276 0.01168054 -0.01260812
v -0.05156200 0.01168054 -0.01249584
v -0.05134438 0.01168054 -0.01234348
v -0.05120000 0.01168054 -0.01219910
v -0.05232400 0.01371254 -0.01270002
v -0.05205936 0.01371254 -0.01267688
v -0.05232400 0.01397720 -0.01267688
v -0.05232400 0.01423378 -0.01260812
v -0.05206338 0.01397720 -0.01265406
v -0.05207532 0.01423378 -0.01258636
v -0.05232400 0.01447456 -0.01249584
v -0.05232400 0.01469216 -0.01234348
v -0.05209480 0.01447456 -0.01247580
v -0.05212126 0.01469216 -0.01232574
v -0.05232400 0.01488000 -0.01215564
v -0.05232400 0.01503238 -0.01193802
v -0.05219166 0.01503238 -0.01192644
v -0.05215388 0.01488000 -0.01214074
v -0.05198896 0.01488000 -0.01209656
v -0.05232400 0.01514464 -0.01169726
v -0.05223348 0.01514464 -0.01168934
v -0.05206338 0.01503238 -0.01189206
v -0.05214572 0.01514464 -0.01166582
v -0.05206338 0.01514464 -0.01162742
v -0.05198896 0.01514464 -0.01157532
v -0.05232400 0.01521340 -0.01144066
v -0.05227804 0.01521340 -0.01143664
v -0.05223348 0.01521340 -0.01142470
v -0.05219166 0.01521340 -0.01140520
v -0.05232400 0.01523654 -0.01117602
v -0.05215388 0.01521340 -0.01137874
v -0.05212126 0.01521340 -0.01134614
v -0.05209480 0.01521340 -0.01130834
v -0.05207532 0.01521340 -0.01126654
v -0.05206338 0.01521340 -0.01122198
v -0.05205936 0.01521340 -0.01117602
v -0.05180276 0.01371254 -0.01260812
v -0.05181068 0.01397720 -0.01258636
v -0.05183418 0.01423378 -0.01252176
v -0.05160794 0.01423378 -0.01241626
v -0.05156200 0.01371254 -0.01249584
v -0.05134438 0.01371254 -0.01234348
v -0.05120000 0.01371254 -0.01219910
v -0.05157356 0.01397720 -0.01247580
v -0.05135928 0.01397720 -0.01232574
v -0.05140346 0.01423378 -0.01227308
v -0.05120000 0.01393718 -0.01217139
v -0.05120000 0.01397720 -0.01216646
v -0.05120000 0.01410251 -0.01211916
v -0.05122694 0.01423378 -0.01209656
v -0.05120000 0.01423378 -0.01205808
v -0.05187260 0.01447456 -0.01241626
v -0.05166408 0.01447456 -0.01231902
v -0.05192470 0.01469216 -0.01227308
v -0.05174026 0.01469216 -0.01218706
v -0.05183418 0.01488000 -0.01202440
v -0.05169430 0.01488000 -0.01192644
v -0.05147564 0.01447456 -0.01218706
v -0.05157356 0.01469216 -0.01207034
v -0.05142968 0.01469216 -0.01192644
v -0.05131294 0.01447456 -0.01202440
v -0.05120000 0.01437493 -0.01194378
v -0.05194300 0.01503238 -0.01183594
v -0.05183418 0.01503238 -0.01175976
v -0.05192470 0.01514464 -0.01151108
v -0.05174026 0.01503238 -0.01166582
v -0.05166408 0.01503238 -0.01155702
v -0.05187260 0.01514464 -0.01143664
v -0.05183418 0.01514464 -0.01135430
v -0.05181068 0.01514464 -0.01126654
v -0.05180276 0.01514464 -0.01117602
v -0.05160794 0.01503238 -0.01143664
v -0.05120000 0.01447456 -0.01186310
v -0.05120000 0.01450592 -0.01182496
v -0.05131294 0.01469216 -0.01175976
v -0.05120000 0.01456460 -0.01172810
v -0.05122694 0.01469216 -0.01157532
v -0.05120000 0.01465122 -0.01158512
v -0.05120000 0.01469216 -0.01147475
v -0.05120000 0.01471827 -0.01137421
v -0.05120000 0.01472056 -0.01134809
v -0.05120000 0.01473562 -0.01117602
v -0.05157356 0.01488000 -0.01180570
v -0.05147564 0.01488000 -0.01166582
v -0.05140346 0.01488000 -0.01151108
v -0.05157356 0.01503238 -0.01130834
v -0.05156200 0.01503238 -0.01117602
v -0.05135928 0.01488000 -0.01134614
v -0.05134438 0.01488000 -0.01117602
v -0.06350000 0.01523654 -0.00000002
v -0.05791200 0.01523654 0.00558798
v -0.06295562 0.01006674 0.01269998
v -0.06314346 0.01025458 0.01269998
v -0.06329582 0.01047218 0.01269998
v -0.06340810 0.01071294 0.01269998
v -0.06347684 0.01096954 0.01269998
v -0.06350000 0.01123418 0.01269998
v -0.06350000 0.01269654 0.01269998
v -0.06350000 0.01371254 0.01269998
v -0.06350000 0.01384488 0.01268840
v -0.06350000 0.01397720 0.01267682
v -0.06350000 0.01410550 0.01264244
v -0.06350000 0.01423378 0.01260806
v -0.06350000 0.01523654 0.01117598
v -0.06350000 0.01522498 0.01130830
v -0.06350000 0.01521340 0.01144060
v -0.06350000 0.01517902 0.01156890
v -0.06350000 0.01514464 0.01169720
v -0.06350000 0.01508850 0.01181760
v -0.06350000 0.01447456 0.01249580
v -0.06350000 0.01435418 0.01255192
v -0.06350000 0.01458336 0.01241960
v -0.06350000 0.01469216 0.01234342
v -0.06350000 0.01495618 0.01204678
v -0.06350000 0.01488000 0.01215558
v -0.06350000 0.01478608 0.01224950
v -0.06350000 0.01503238 0.01193798
v -0.05682880 0.00393992 0.01269998
v -0.05232400 0.01523654 -0.00000002
v -0.05219168 0.01522498 -0.00000002
v -0.05205936 0.01521340 -0.00000002
v -0.05193106 0.01517902 -0.00000002
v -0.05180276 0.01514464 -0.00000002
v -0.05168238 0.01508850 -0.00000002
v -0.05120000 0.01473562 -0.00000002
v -0.05145320 0.01495618 -0.00000002
v -0.05156200 0.01503238 -0.00000002
v -0.05134438 0.01488000 -0.00000002
v -0.05125046 0.01478608 -0.00000002
v -0.05120000 0.01473561 0.00600609
v -0.05123522 0.00934564 0.01269998
v -0.05120000 0.00932098 0.01269998
v -0.05120000 0.00938762 0.01269518
v -0.05214020 0.01063806 0.01269998
v -0.05227770 0.01115126 0.01269998
v -0.05201708 0.01119722 0.01267682
v -0.05161092 0.00972134 0.01269998
v -0.05191564 0.01015654 0.01269998
v -0.05168646 0.01028888 0.01267682
v -0.05140818 0.00989144 0.01267682
v -0.05120000 0.00968326 0.01267682
v -0.05121162 0.01005638 0.01260808
v -0.05120000 0.01004476 0.01260808
v -0.05120000 0.01006613 0.01260100
v -0.05146424 0.01041716 0.01260808
v -0.05125574 0.01053756 0.01249580
v -0.05120000 0.01045795 0.01249580
v -0.05189150 0.01072858 0.01267682
v -0.05165038 0.01081636 0.01260808
v -0.05176436 0.01124178 0.01260808
v -0.05142414 0.01089868 0.01249580
v -0.05120000 0.01056974 0.01245073
v -0.05120000 0.01093096 0.01234342
v -0.05121966 0.01097312 0.01234342
v -0.05120000 0.01098028 0.01232250
v -0.05120000 0.01134130 0.01222871
v -0.05152728 0.01128360 0.01249580
v -0.05131296 0.01132138 0.01234342
v -0.05232400 0.01168054 0.01269998
v -0.05205936 0.01168054 0.01267682
v -0.05180276 0.01168054 0.01260808
v -0.05120000 0.01158079 0.01220775
v -0.05120000 0.01168054 0.01219902
v -0.05156200 0.01168054 0.01249580
v -0.05134438 0.01168054 0.01234342
v -0.05232400 0.01371254 0.01269998
v -0.05205936 0.01371254 0.01267682
v -0.05206338 0.01375850 0.01267682
v -0.05207532 0.01380306 0.01267682
v -0.05232400 0.01397720 0.01267682
v -0.05227804 0.01397316 0.01267682
v -0.05219168 0.01394174 0.01267682
v -0.05223348 0.01396124 0.01267682
v -0.05232400 0.01423378 0.01260808
v -0.05223348 0.01422586 0.01260808
v -0.05215390 0.01391528 0.01267682
v -0.05212128 0.01388266 0.01267682
v -0.05209482 0.01384488 0.01267682
v -0.05214574 0.01420236 0.01260808
v -0.05206338 0.01416396 0.01260808
v -0.05198896 0.01411184 0.01260808
v -0.05232400 0.01523654 0.01117598
v -0.05232400 0.01521340 0.01144062
v -0.05205936 0.01521340 0.01117598
v -0.05206338 0.01519060 0.01144062
v -0.05232400 0.01514464 0.01169722
v -0.05207532 0.01512288 0.01169722
v -0.05232400 0.01447456 0.01249580
v -0.05219168 0.01446298 0.01249580
v -0.05232400 0.01469216 0.01234342
v -0.05206338 0.01442860 0.01249580
v -0.05215390 0.01467728 0.01234342
v -0.05198896 0.01463308 0.01234342
v -0.05232400 0.01488000 0.01215558
v -0.05232400 0.01503238 0.01193798
v -0.05212128 0.01486226 0.01215558
v -0.05209482 0.01501232 0.01193798
v -0.05180276 0.01371254 0.01260808
v -0.05181068 0.01380306 0.01260808
v -0.05192470 0.01404760 0.01260808
v -0.05183420 0.01389084 0.01260808
v -0.05187260 0.01397316 0.01260808
v -0.05183420 0.01429628 0.01249580
v -0.05160796 0.01397316 0.01249580
v -0.05174028 0.01420236 0.01249580
v -0.05166408 0.01409356 0.01249580
v -0.05120000 0.01371254 0.01219902
v -0.05156200 0.01371254 0.01249580
v -0.05134438 0.01371254 0.01234342
v -0.05120000 0.01388463 0.01218398
v -0.05120000 0.01391075 0.01218169
v -0.05120000 0.01401125 0.01215558
v -0.05120000 0.01426472 0.01202793
v -0.05131296 0.01429628 0.01215558
v -0.05122696 0.01411184 0.01215558
v -0.05120000 0.01412165 0.01211461
v -0.05157358 0.01384488 0.01249580
v -0.05140346 0.01404760 0.01234342
v -0.05147564 0.01420236 0.01234342
v -0.05135928 0.01388266 0.01234342
v -0.05180276 0.01514464 0.01117598
v -0.05181068 0.01512288 0.01144062
v -0.05183420 0.01505828 0.01169722
v -0.05160796 0.01495278 0.01169722
v -0.05120000 0.01473560 0.01117598
v -0.05120000 0.01470793 0.01140061
v -0.05120000 0.01470300 0.01144062
v -0.05120000 0.01448020 0.01183845
v -0.05122696 0.01463308 0.01169722
v -0.05120000 0.01459458 0.01169722
v -0.05120000 0.01465570 0.01156590
v -0.05156200 0.01503238 0.01117598
v -0.05157358 0.01501232 0.01144062
v -0.05134438 0.01488000 0.01117598
v -0.05135928 0.01486226 0.01144062
v -0.05140346 0.01480960 0.01169722
v -0.05174028 0.01472360 0.01215558
v -0.05194300 0.01437246 0.01249580
v -0.05183420 0.01456092 0.01234342
v -0.05169432 0.01446298 0.01234342
v -0.05187260 0.01495278 0.01193798
v -0.05192470 0.01480960 0.01215558
v -0.05166408 0.01485556 0.01193798
v -0.05142968 0.01446298 0.01215558
v -0.05147564 0.01472360 0.01193798
v -0.05157358 0.01460686 0.01215558
v -0.05120000 0.01439959 0.01193798
v -0.05120000 0.01436149 0.01196931
v -0.05131296 0.01456092 0.01193798
v -0.05157358 0.01434224 0.01234342
f 385 181 389
f 387 389 180
f 394 393 185
f 392 394 192
f 385 392 191
f 393 395 188
f 395 396 187
f 396 397 189
f 386 194 390
f 398 391 195
f 398 199 399
f 390 196 391
f 387 183 388
f 386 388 182
f 397 457 206
f 457 458 355
f 458 459 357
f 459 460 358
f 460 461 360
f 461 462 361
f 462 463 363
f 463 464 364
f 464 465 366
f 465 466 367
f 466 467 369
f 467 468 370
f 468 469 372
f 469 470 373
f 470 471 375
f 471 472 376
f 188 22 21
f 187 23 22
f 179 5 181
f 179 191 5
f 192 21 191
f 192 184 21
f 185 188 21
f 184 185 21
f 188 186 22
f 186 187 22
f 187 189 23
f 189 190 23
f 193 182 38
f 193 38 194
f 194 38 196
f 196 41 197
f 178 180 4
f 178 4 183
f 183 38 182
f 181 4 180
f 197 41 195
f 195 42 199
f 198 42 200
f 199 42 198
f 200 51 201
f 201 51 202
f 202 51 203
f 203 51 204
f 204 55 205
f 190 206 23
f 206 154 23
f 206 354 154
f 1 2 9
f 9 2 11
f 11 2 25
f 4 5 3
f 4 3 10
f 4 10 38
f 6 7 40
f 39 8 44
f 7 8 39
f 10 3 1
f 10 1 9
f 11 24 8
f 7 9 11
f 7 11 8
f 6 10 9
f 6 9 7
f 38 10 6
f 3 12 16
f 12 17 16
f 12 13 17
f 13 18 17
f 22 14 13
f 13 14 18
f 16 19 15
f 16 17 19
f 2 15 32
f 15 19 34
f 15 34 32
f 1 16 15
f 3 16 1
f 1 15 2
f 2 32 25
f 17 20 19
f 17 18 20
f 19 35 34
f 19 20 35
f 21 22 13
f 5 12 3
f 5 21 12
f 21 13 12
f 22 23 14
f 24 25 27
f 11 25 24
f 24 27 26
f 8 28 44
f 28 29 30
f 28 30 44
f 30 29 31
f 28 24 26
f 28 26 29
f 8 24 28
f 25 32 33
f 25 33 27
f 32 34 36
f 32 36 33
f 34 37 36
f 34 35 37
f 6 40 41
f 38 6 41
f 39 44 45
f 40 39 43
f 40 7 39
f 42 41 40
f 42 40 43
f 39 45 43
f 42 43 51
f 46 44 30
f 47 30 31
f 45 44 46
f 47 31 48
f 46 30 47
f 43 45 50
f 45 46 52
f 46 47 53
f 47 48 49
f 45 52 50
f 43 50 51
f 46 53 52
f 47 49 53
f 52 53 55
f 53 49 55
f 48 54 49
f 49 54 55
f 51 50 55
f 50 52 55
f 181 5 4
f 196 38 41
f 183 4 38
f 195 41 42
f 191 21 5
f 23 147 14
f 14 149 18
f 18 151 20
f 20 153 35
f 35 156 37
f 26 27 56
f 29 63 31
f 29 26 62
f 27 33 57
f 33 36 69
f 36 37 71
f 27 57 56
f 29 62 63
f 26 56 62
f 33 69 57
f 36 71 69
f 37 74 71
f 48 31 117
f 48 120 54
f 54 121 55
f 31 63 117
f 48 117 120
f 54 120 121
f 56 57 59
f 56 59 58
f 58 59 79
f 60 79 80
f 58 79 60
f 60 80 61
f 62 64 63
f 62 56 58
f 64 67 65
f 63 64 65
f 65 67 66
f 66 68 95
f 62 58 64
f 64 60 67
f 64 58 60
f 67 60 61
f 67 61 68
f 61 94 68
f 66 67 68
f 57 70 59
f 57 69 70
f 69 71 72
f 70 72 73
f 69 72 70
f 71 74 72
f 72 74 73
f 73 74 83
f 74 84 83
f 59 75 79
f 59 70 75
f 79 75 76
f 79 76 80
f 70 73 75
f 75 83 76
f 76 84 77
f 76 77 80
f 80 77 81
f 81 77 78
f 81 78 82
f 78 90 82
f 90 101 82
f 61 80 81
f 81 82 94
f 61 81 94
f 73 83 75
f 76 83 84
f 77 84 85
f 77 85 78
f 78 85 86
f 86 87 90
f 74 85 84
f 74 86 85
f 74 87 86
f 74 88 87
f 74 89 88
f 87 88 91
f 88 89 92
f 78 86 90
f 87 91 90
f 90 91 101
f 91 92 104
f 88 92 91
f 89 93 92
f 68 94 96
f 94 100 96
f 96 100 97
f 95 68 96
f 95 96 98
f 96 97 98
f 98 97 99
f 94 82 100
f 100 82 101
f 101 104 102
f 100 101 102
f 102 104 103
f 91 104 101
f 92 105 104
f 92 93 105
f 93 106 105
f 103 104 105
f 103 105 107
f 105 106 107
f 106 108 107
f 97 100 102
f 97 102 109
f 109 102 103
f 109 103 110
f 97 109 99
f 103 107 110
f 107 108 113
f 109 110 111
f 99 109 111
f 110 113 112
f 111 110 112
f 107 113 110
f 108 114 113
f 113 114 115
f 112 113 115
f 114 116 115
f 117 63 65
f 117 118 120
f 117 65 118
f 118 65 66
f 118 66 119
f 119 66 95
f 118 119 122
f 119 126 123
f 120 122 121
f 120 118 122
f 122 123 124
f 119 123 122
f 121 122 124
f 124 123 125
f 95 98 126
f 119 95 126
f 126 127 129
f 127 98 99
f 126 98 127
f 127 99 128
f 130 127 128
f 99 111 128
f 128 111 137
f 128 137 133
f 125 123 129
f 123 126 129
f 129 127 130
f 129 130 131
f 125 129 131
f 131 130 132
f 130 133 132
f 130 128 133
f 133 137 134
f 133 134 135
f 132 133 135
f 135 134 136
f 111 112 137
f 137 112 138
f 112 115 138
f 134 137 138
f 138 139 141
f 115 116 139
f 138 115 139
f 139 116 140
f 139 140 143
f 134 138 141
f 134 141 136
f 141 139 143
f 141 143 142
f 136 141 142
f 142 143 145
f 143 144 145
f 140 144 143
f 145 144 146
f 37 158 74
f 74 160 89
f 89 162 93
f 93 164 106
f 106 166 108
f 108 168 114
f 114 170 116
f 116 172 140
f 140 174 144
f 144 176 146
f 200 42 51
f 204 51 55
f 55 121 542
f 121 124 544
f 124 125 546
f 125 131 548
f 131 132 550
f 132 135 552
f 135 136 554
f 136 142 556
f 142 145 558
f 145 146 560
f 18 149 150
f 14 148 149
f 14 147 148
f 20 151 152
f 18 150 151
f 20 152 153
f 35 153 155
f 23 154 147
f 35 155 156
f 37 156 157
f 37 157 158
f 74 158 159
f 74 159 160
f 89 160 161
f 89 161 162
f 93 162 163
f 93 163 164
f 106 164 165
f 106 165 166
f 108 166 167
f 108 167 168
f 114 168 169
f 114 169 170
f 116 170 171
f 116 171 172
f 140 172 173
f 140 173 174
f 144 174 175
f 144 175 176
f 146 176 177
f 146 177 207
f 385 179 181
f 385 191 179
f 387 180 178
f 387 178 183
f 389 181 180
f 388 183 182
f 386 193 194
f 386 182 193
f 390 194 196
f 391 196 197
f 394 185 184
f 393 188 185
f 395 186 188
f 395 187 186
f 396 189 187
f 397 190 189
f 394 184 192
f 392 192 191
f 391 197 195
f 398 195 199
f 399 198 200
f 399 199 198
f 397 206 190
f 400 200 201
f 401 201 202
f 401 202 203
f 402 203 204
f 403 204 205
f 399 200 400
f 400 201 401
f 401 203 402
f 402 204 403
f 403 205 537
f 457 354 206
f 205 55 537
f 55 538 537
f 55 541 540
f 55 542 541
f 55 539 538
f 55 540 539
f 121 543 542
f 121 544 543
f 124 545 544
f 124 546 545
f 125 547 546
f 125 548 547
f 131 549 548
f 131 550 549
f 132 551 550
f 132 552 551
f 135 553 552
f 135 554 553
f 136 555 554
f 136 556 555
f 142 557 556
f 142 558 557
f 145 559 558
f 145 560 559
f 146 561 560
f 146 207 561
f 207 177 685
f 561 207 685
f 154 355 217
f 354 355 154
f 358 218 217
f 360 219 218
f 355 356 217
f 356 357 217
f 357 358 217
f 358 359 218
f 359 360 218
f 360 361 219
f 361 362 219
f 362 363 219
f 363 364 219
f 364 365 223
f 365 366 223
f 366 367 224
f 367 368 224
f 368 369 224
f 369 370 224
f 370 371 245
f 371 372 245
f 372 373 248
f 373 374 248
f 374 375 248
f 375 376 249
f 376 377 249
f 377 378 249
f 378 379 258
f 379 380 258
f 380 381 258
f 381 382 258
f 382 383 262
f 149 211 150
f 148 208 149
f 147 208 148
f 151 213 152
f 150 211 151
f 152 213 153
f 153 231 155
f 154 217 147
f 155 231 156
f 156 233 157
f 157 233 158
f 158 263 159
f 159 263 160
f 160 266 161
f 161 266 162
f 162 268 163
f 163 268 164
f 164 285 165
f 165 285 166
f 166 287 167
f 167 287 168
f 168 291 169
f 169 291 170
f 170 293 171
f 171 293 172
f 172 327 173
f 173 327 174
f 174 331 175
f 175 331 176
f 176 333 177
f 177 333 384
f 147 217 208
f 149 208 211
f 151 211 213
f 153 213 231
f 156 231 233
f 208 212 211
f 217 209 208
f 208 209 212
f 209 216 212
f 218 210 209
f 209 210 216
f 210 222 220
f 211 214 213
f 211 212 214
f 213 232 231
f 213 214 232
f 212 215 214
f 214 235 232
f 214 215 235
f 215 237 235
f 212 216 215
f 216 221 215
f 216 220 221
f 210 220 216
f 215 221 237
f 217 218 209
f 218 219 210
f 219 222 210
f 219 223 222
f 221 238 237
f 220 227 221
f 221 227 238
f 223 226 222
f 223 224 226
f 222 225 220
f 220 225 227
f 222 226 225
f 226 229 225
f 225 230 227
f 225 229 230
f 227 230 241
f 224 228 226
f 226 228 229
f 224 245 228
f 229 251 230
f 228 246 229
f 229 246 251
f 231 234 233
f 231 232 234
f 232 235 236
f 232 236 234
f 235 237 239
f 235 239 236
f 237 240 239
f 237 238 240
f 227 241 238
f 238 242 240
f 238 241 242
f 230 243 241
f 241 244 242
f 230 251 243
f 241 243 244
f 245 247 228
f 245 248 247
f 228 247 246
f 247 252 246
f 248 250 247
f 247 250 252
f 248 249 250
f 249 257 250
f 251 254 243
f 243 255 244
f 246 253 251
f 251 253 254
f 243 254 255
f 246 252 253
f 252 260 253
f 250 259 252
f 253 256 254
f 254 261 255
f 252 259 260
f 250 257 259
f 249 258 257
f 253 260 256
f 254 256 261
f 259 262 260
f 260 262 256
f 256 262 261
f 258 262 257
f 257 262 259
f 364 223 219
f 366 224 223
f 370 245 224
f 372 248 245
f 375 249 248
f 158 233 263
f 160 263 266
f 162 266 268
f 164 268 285
f 166 285 287
f 168 287 291
f 170 291 293
f 172 293 327
f 174 327 331
f 176 331 333
f 233 234 263
f 234 236 264
f 236 239 265
f 239 240 272
f 240 242 273
f 242 244 277
f 234 264 263
f 236 265 264
f 239 272 265
f 240 273 272
f 242 277 273
f 244 278 277
f 244 255 278
f 255 261 302
f 261 262 311
f 255 302 278
f 261 311 302
f 262 314 311
f 263 264 267
f 264 265 270
f 265 272 274
f 263 267 266
f 266 267 269
f 266 269 268
f 264 270 267
f 267 270 271
f 265 274 270
f 267 271 269
f 269 271 289
f 270 276 271
f 270 274 276
f 271 276 296
f 272 273 275
f 272 275 274
f 274 275 279
f 274 279 276
f 273 277 281
f 277 283 281
f 277 278 283
f 273 281 275
f 275 282 279
f 275 281 282
f 276 279 280
f 276 280 296
f 279 282 284
f 279 284 280
f 284 301 280
f 281 304 282
f 281 283 304
f 304 305 282
f 282 305 284
f 268 286 285
f 268 269 286
f 285 288 287
f 285 286 288
f 269 289 286
f 286 289 290
f 271 296 289
f 286 290 288
f 287 288 292
f 289 296 297
f 288 290 295
f 289 297 290
f 290 297 299
f 290 299 295
f 287 292 291
f 291 294 293
f 291 292 294
f 288 295 292
f 292 295 329
f 292 329 294
f 295 341 329
f 295 299 341
f 296 280 298
f 296 298 297
f 280 301 298
f 298 301 338
f 298 338 300
f 298 300 297
f 297 300 299
f 278 303 283
f 278 302 303
f 302 312 303
f 283 307 304
f 303 307 283
f 304 308 305
f 304 307 308
f 305 306 284
f 284 306 301
f 306 310 301
f 305 309 306
f 308 309 305
f 303 313 307
f 307 315 308
f 306 318 310
f 306 309 318
f 318 319 310
f 319 339 310
f 302 311 312
f 303 312 313
f 311 314 312
f 312 314 313
f 313 314 315
f 314 316 315
f 313 315 307
f 308 315 316
f 308 316 309
f 309 316 317
f 309 317 318
f 318 317 321
f 321 322 319
f 319 320 339
f 318 321 319
f 322 320 319
f 320 325 344
f 314 317 316
f 314 321 317
f 314 322 321
f 323 320 322
f 314 323 322
f 314 324 323
f 323 324 325
f 323 325 320
f 324 326 325
f 293 328 327
f 293 294 328
f 327 328 332
f 329 342 330
f 329 341 342
f 294 329 330
f 294 330 328
f 328 330 335
f 330 342 351
f 327 332 331
f 331 332 334
f 331 334 333
f 328 335 332
f 332 335 336
f 330 351 335
f 335 351 353
f 332 336 334
f 335 353 336
f 299 300 337
f 300 338 340
f 300 340 337
f 337 340 345
f 337 345 343
f 301 310 338
f 310 339 338
f 339 340 338
f 339 344 340
f 340 344 345
f 299 337 341
f 337 343 341
f 341 343 342
f 345 346 343
f 346 349 350
f 345 344 347
f 320 344 339
f 325 347 344
f 345 347 346
f 325 326 347
f 326 348 347
f 347 348 346
f 348 349 346
f 342 343 350
f 342 350 351
f 346 350 343
f 350 352 351
f 352 353 351
f 349 352 350
f 378 258 249
f 382 262 258
f 262 693 314
f 314 695 324
f 324 697 326
f 333 334 700
f 334 336 702
f 336 353 704
f 326 706 348
f 348 707 349
f 352 709 353
f 349 711 352
f 457 355 354
f 458 356 355
f 458 357 356
f 459 358 357
f 460 359 358
f 460 360 359
f 461 361 360
f 462 362 361
f 462 363 362
f 463 364 363
f 464 365 364
f 464 366 365
f 465 367 366
f 466 368 367
f 466 369 368
f 467 370 369
f 468 371 370
f 468 372 371
f 469 373 372
f 470 374 373
f 470 375 374
f 471 376 375
f 472 377 376
f 472 378 377
f 473 379 378
f 474 380 379
f 474 381 380
f 475 382 381
f 476 383 382
f 472 473 378
f 473 474 379
f 474 475 381
f 475 476 382
f 476 687 383
f 177 384 685
f 685 384 699
f 383 687 262
f 262 688 689
f 262 687 688
f 262 691 692
f 262 689 690
f 262 690 691
f 384 333 699
f 262 692 693
f 314 693 694
f 314 694 695
f 324 695 696
f 324 696 697
f 326 698 706
f 326 697 698
f 333 700 699
f 334 701 700
f 334 702 701
f 336 703 702
f 353 712 704
f 336 704 703
f 348 705 707
f 348 706 705
f 349 707 708
f 349 708 711
f 352 711 710
f 352 710 709
f 353 709 712
f 411 394 392
f 412 393 394
f 417 395 393
f 416 396 395
f 418 397 396
f 421 386 390
f 407 387 388
f 405 385 389
f 408 389 387
f 410 388 386
f 420 390 391
f 422 391 398
f 424 398 399
f 426 399 400
f 427 400 401
f 414 392 385
f 405 389 408
f 404 385 405
f 404 414 385
f 406 408 387
f 416 418 396
f 418 419 397
f 411 392 414
f 411 413 394
f 413 412 394
f 412 417 393
f 417 415 395
f 415 416 395
f 409 386 421
f 409 410 386
f 406 387 407
f 407 388 410
f 429 401 402
f 421 390 420
f 423 391 422
f 420 391 423
f 422 398 424
f 424 399 425
f 425 399 426
f 426 400 427
f 427 401 428
f 428 401 429
f 429 402 430
f 430 403 431
f 419 455 397
f 430 402 403
f 455 457 397
f 455 477 457
f 406 438 408
f 406 407 438
f 404 405 433
f 404 433 414
f 405 408 433
f 411 440 413
f 411 414 440
f 413 439 412
f 412 442 417
f 417 442 415
f 415 442 416
f 416 442 418
f 418 444 419
f 409 434 410
f 409 421 437
f 421 420 437
f 407 410 435
f 423 422 446
f 420 423 446
f 422 424 446
f 424 425 449
f 425 426 448
f 426 427 450
f 427 428 451
f 428 429 451
f 429 430 453
f 430 431 454
f 419 444 455
f 414 433 432
f 407 436 438
f 408 438 433
f 407 435 436
f 409 437 434
f 410 434 435
f 414 432 440
f 413 440 439
f 412 439 442
f 418 442 444
f 420 446 437
f 424 447 446
f 425 448 449
f 424 449 447
f 426 450 448
f 427 451 450
f 429 452 451
f 442 441 443
f 442 439 441
f 442 443 445
f 442 445 444
f 444 445 480
f 429 453 452
f 430 454 453
f 431 456 454
f 455 479 477
f 444 479 455
f 444 480 479
f 403 456 431
f 403 563 456
f 457 478 458
f 477 478 457
f 482 459 458
f 483 460 459
f 485 461 460
f 486 462 461
f 488 463 462
f 489 464 463
f 491 465 464
f 492 466 465
f 494 467 466
f 495 468 467
f 497 469 468
f 498 470 469
f 500 471 470
f 501 472 471
f 503 473 472
f 504 474 473
f 478 481 458
f 481 482 458
f 482 483 459
f 483 484 460
f 484 485 460
f 485 486 461
f 486 487 462
f 487 488 462
f 488 489 463
f 489 490 464
f 490 491 464
f 491 492 465
f 492 493 466
f 493 494 466
f 494 495 467
f 495 496 468
f 496 497 468
f 506 475 474
f 497 498 469
f 498 499 470
f 499 500 470
f 500 501 471
f 501 502 472
f 502 503 472
f 503 504 473
f 504 505 474
f 505 506 474
f 506 507 475
f 507 508 476
f 507 476 475
f 477 479 478
f 479 509 478
f 479 480 510
f 478 509 481
f 481 509 482
f 482 512 483
f 483 512 484
f 484 512 485
f 485 512 486
f 486 516 487
f 487 518 488
f 488 515 489
f 489 519 490
f 490 520 491
f 491 521 492
f 492 523 493
f 493 524 494
f 494 525 495
f 495 525 496
f 496 526 497
f 497 526 498
f 498 526 499
f 499 527 500
f 500 528 501
f 501 529 502
f 502 530 503
f 503 531 504
f 504 532 505
f 505 533 506
f 506 535 507
f 507 536 508
f 479 510 509
f 482 509 512
f 486 512 516
f 487 516 517
f 487 517 518
f 488 518 515
f 489 515 519
f 490 519 520
f 491 520 521
f 492 521 522
f 492 522 523
f 493 523 524
f 494 524 525
f 496 525 526
f 499 526 527
f 500 527 528
f 501 528 529
f 502 529 530
f 503 530 531
f 504 531 532
f 505 532 533
f 506 533 534
f 509 510 511
f 509 511 512
f 512 511 513
f 512 513 514
f 512 514 516
f 506 534 535
f 507 535 536
f 476 508 727
f 508 536 727
f 403 537 563
f 537 538 571
f 538 539 567
f 539 540 568
f 540 541 594
f 541 542 594
f 542 543 600
f 543 544 600
f 544 545 602
f 545 546 602
f 546 547 603
f 547 548 603
f 548 549 606
f 549 550 606
f 550 551 607
f 551 552 607
f 552 553 610
f 553 554 610
f 554 555 611
f 555 556 611
f 556 557 615
f 557 558 615
f 558 559 621
f 559 560 621
f 560 561 625
f 561 562 625
f 561 685 562
f 562 685 714
f 563 570 456
f 564 456 570
f 564 565 456
f 563 537 570
f 539 568 567
f 540 594 568
f 537 571 570
f 538 567 571
f 542 600 594
f 544 602 600
f 546 603 602
f 548 606 603
f 550 607 606
f 552 610 607
f 554 611 610
f 556 615 611
f 558 621 615
f 560 625 621
f 564 566 565
f 564 570 566
f 567 568 582
f 568 594 569
f 582 568 569
f 570 571 573
f 571 567 572
f 573 571 572
f 572 582 578
f 570 573 566
f 573 574 566
f 573 575 574
f 575 576 574
f 575 577 576
f 573 572 575
f 575 572 578
f 575 578 577
f 578 579 577
f 579 580 577
f 579 581 580
f 572 567 582
f 582 569 583
f 578 582 583
f 583 584 585
f 583 569 584
f 569 595 584
f 584 596 590
f 578 583 579
f 579 583 585
f 579 586 581
f 579 585 586
f 585 588 586
f 588 587 586
f 588 589 587
f 585 584 590
f 590 597 591
f 585 590 588
f 588 590 591
f 588 591 589
f 591 592 589
f 591 593 592
f 569 594 595
f 594 601 595
f 594 600 601
f 584 595 596
f 590 596 597
f 595 632 596
f 596 636 597
f 591 597 598
f 591 598 593
f 598 599 593
f 597 637 598
f 598 637 599
f 595 601 632
f 596 632 636
f 597 636 637
f 637 638 599
f 600 604 601
f 600 602 604
f 602 603 605
f 602 605 604
f 604 605 634
f 603 606 608
f 606 609 608
f 606 607 609
f 603 608 605
f 605 608 647
f 608 609 649
f 607 613 609
f 609 614 649
f 607 610 613
f 610 611 612
f 610 612 613
f 609 613 614
f 613 612 617
f 613 617 614
f 614 617 658
f 611 615 616
f 611 616 612
f 612 616 618
f 615 622 616
f 615 621 622
f 616 622 623
f 616 623 618
f 612 618 617
f 617 618 619
f 617 619 658
f 618 624 619
f 658 619 620
f 619 626 620
f 621 625 622
f 622 625 623
f 618 623 624
f 623 625 624
f 624 625 626
f 626 625 627
f 627 625 628
f 619 624 626
f 620 626 627
f 620 627 660
f 660 627 628
f 663 628 629
f 628 625 629
f 629 625 630
f 630 625 631
f 664 629 630
f 601 633 632
f 632 639 636
f 601 604 633
f 604 634 633
f 632 633 639
f 633 634 635
f 633 635 639
f 636 640 637
f 637 642 638
f 636 639 640
f 639 635 641
f 639 641 640
f 637 640 642
f 640 643 642
f 640 641 645
f 640 645 643
f 645 644 643
f 645 646 644
f 645 657 646
f 605 647 634
f 634 647 648
f 608 649 647
f 634 648 635
f 647 650 648
f 647 649 650
f 649 651 650
f 648 650 654
f 650 652 654
f 649 614 651
f 614 658 651
f 650 651 652
f 654 652 678
f 635 648 653
f 635 653 641
f 641 653 656
f 648 654 653
f 654 678 655
f 653 654 655
f 653 655 656
f 641 656 645
f 645 656 657
f 656 668 657
f 651 658 659
f 651 659 652
f 658 620 659
f 659 620 660
f 659 660 661
f 660 663 661
f 652 659 661
f 652 661 678
f 678 661 662
f 661 663 662
f 660 628 663
f 663 629 664
f 662 663 664
f 665 630 631
f 664 630 665
f 665 631 666
f 662 664 667
f 664 665 667
f 667 665 681
f 665 666 681
f 666 682 681
f 655 679 670
f 656 669 668
f 656 655 670
f 656 670 669
f 670 671 669
f 670 680 672
f 672 673 671
f 670 672 671
f 672 674 673
f 672 683 675
f 672 675 674
f 655 678 679
f 678 662 679
f 679 662 667
f 679 667 680
f 670 679 680
f 680 667 681
f 680 681 683
f 683 681 682
f 683 682 684
f 672 680 683
f 683 676 675
f 683 684 676
f 684 677 676
f 625 715 631
f 666 631 717
f 666 719 682
f 684 682 721
f 684 724 677
f 625 562 714
f 625 714 715
f 631 715 716
f 631 716 717
f 666 717 718
f 666 718 719
f 682 719 722
f 724 720 677
f 682 722 721
f 684 723 724
f 684 721 723
f 476 713 687
f 685 699 686
f 685 686 714
f 688 733 689
f 688 687 732
f 689 729 690
f 690 730 691
f 691 754 692
f 686 699 777
f 692 754 693
f 693 761 694
f 694 761 695
f 695 765 696
f 696 765 697
f 698 769 706
f 697 769 698
f 699 700 777
f 700 701 778
f 701 702 778
f 702 703 781
f 704 712 790
f 703 704 781
f 705 783 707
f 705 706 783
f 707 785 708
f 708 785 711
f 711 789 710
f 709 710 789
f 709 790 712
f 476 727 713
f 713 727 726
f 724 725 720
f 714 686 777
f 714 777 715
f 715 779 716
f 716 779 717
f 718 717 816
f 718 816 719
f 722 719 827
f 721 722 827
f 724 723 829
f 723 721 829
f 724 829 725
f 713 726 687
f 690 729 730
f 691 730 754
f 688 732 733
f 689 733 729
f 687 726 732
f 693 754 761
f 695 761 765
f 697 765 769
f 700 778 777
f 702 781 778
f 704 790 781
f 706 769 783
f 707 783 785
f 709 789 790
f 711 785 789
f 726 727 728
f 726 728 736
f 733 743 729
f 729 731 730
f 729 743 731
f 730 731 755
f 732 734 733
f 733 734 743
f 734 740 744
f 726 735 732
f 732 735 734
f 726 736 735
f 735 736 738
f 735 738 737
f 737 738 739
f 735 740 734
f 735 737 740
f 737 739 742
f 741 742 747
f 737 741 740
f 737 742 741
f 734 744 743
f 743 744 745
f 743 745 731
f 731 745 756
f 744 752 745
f 752 759 745
f 740 746 744
f 746 752 744
f 741 747 749
f 740 741 746
f 741 749 746
f 749 747 748
f 749 748 750
f 749 750 751
f 753 751 757
f 746 753 752
f 746 749 753
f 749 751 753
f 752 753 760
f 715 777 779
f 717 779 816
f 719 816 827
f 721 827 829
f 829 820 725
f 730 755 754
f 754 755 761
f 755 762 761
f 731 756 755
f 745 759 756
f 756 762 755
f 759 793 756
f 753 757 760
f 760 757 758
f 752 760 759
f 760 758 802
f 760 803 759
f 756 793 762
f 759 803 793
f 760 802 804
f 760 804 803
f 761 773 772
f 761 763 764
f 761 762 763
f 761 764 773
f 763 796 764
f 761 768 766
f 761 766 765
f 765 766 769
f 761 767 768
f 761 771 767
f 761 772 771
f 766 768 770
f 767 774 768
f 766 770 769
f 768 774 770
f 771 775 767
f 772 776 771
f 773 795 772
f 764 797 773
f 772 795 776
f 767 775 774
f 775 786 774
f 771 776 775
f 776 833 775
f 777 778 780
f 777 780 779
f 778 781 782
f 781 790 792
f 778 782 780
f 780 782 818
f 781 792 782
f 782 792 836
f 785 787 789
f 788 791 787
f 769 770 783
f 770 784 783
f 774 784 770
f 783 784 785
f 784 787 785
f 784 786 787
f 833 788 786
f 774 786 784
f 775 833 786
f 786 788 787
f 791 790 789
f 791 792 790
f 787 791 789
f 791 837 792
f 788 837 791
f 762 794 763
f 793 794 762
f 794 796 763
f 793 812 794
f 803 812 793
f 764 796 797
f 773 797 795
f 796 801 797
f 795 798 776
f 776 798 833
f 797 800 795
f 800 798 795
f 794 799 796
f 799 801 796
f 794 812 799
f 801 845 800
f 797 801 800
f 804 805 815
f 804 802 805
f 803 815 812
f 804 815 803
f 813 809 814
f 810 813 815
f 815 805 806
f 810 806 807
f 810 815 806
f 810 811 808
f 810 809 813
f 810 807 811
f 810 808 809
f 812 813 799
f 815 813 812
f 799 813 814
f 799 814 801
f 801 814 845
f 816 779 817
f 779 780 817
f 816 828 827
f 816 817 828
f 818 836 838
f 817 780 818
f 818 782 836
f 819 818 838
f 817 818 819
f 817 819 828
f 830 822 821
f 831 840 844
f 844 842 823
f 824 825 826
f 824 822 830
f 824 826 822
f 824 831 844
f 824 823 825
f 824 844 823
f 829 827 830
f 830 827 828
f 829 821 820
f 829 830 821
f 828 819 831
f 830 828 831
f 831 819 840
f 819 838 840
f 824 830 831
f 834 837 788
f 832 837 834
f 841 835 845
f 841 838 832
f 832 834 835
f 841 832 835
f 833 834 788
f 798 834 833
f 798 835 834
f 800 835 798
f 800 845 835
f 836 792 837
f 832 836 837
f 832 838 836
f 839 841 845
f 814 839 845
f 814 809 839
f 840 838 841
f 839 840 841
f 839 844 840
f 809 844 839
f 809 843 844
f 809 808 843
f 844 843 842
f 441 439 456
f 435 456 436
f 434 456 435
f 434 437 456
f 438 436 456
f 432 456 440
f 438 456 433
f 432 433 456
f 439 440 456
f 441 456 443
f 443 456 445
f 446 456 437
f 446 447 456
f 447 449 456
f 448 456 449
f 448 450 456
f 450 451 456
f 451 452 456
f 452 453 456
f 453 454 456
f 445 456 480
f 480 456 510
f 510 456 565
f 510 565 511
f 511 565 513
f 513 565 514
f 514 565 516
f 515 518 565
f 517 565 518
f 516 565 517
f 515 565 519
f 520 565 521
f 519 565 520
f 521 565 522
f 522 646 523
f 523 646 524
f 525 524 646
f 525 646 526
f 526 646 527
f 527 646 528
f 528 646 529
f 529 646 530
f 530 646 531
f 532 531 646
f 532 646 533
f 534 533 646
f 534 646 535
f 535 646 536
f 565 566 522
f 566 574 522
f 574 576 522
f 576 577 522
f 577 580 522
f 580 581 522
f 581 586 522
f 586 587 522
f 587 589 522
f 589 592 522
f 592 593 522
f 593 599 522
f 599 638 522
f 638 642 522
f 642 643 522
f 643 644 522
f 644 646 522
f 536 646 657
f 536 657 668
f 536 668 669
f 536 669 671
f 536 671 673
f 536 673 674
f 536 674 675
f 536 675 676
f 536 676 677
f 536 677 727
f 677 720 727
f 727 720 725
f 727 725 728
f 725 736 728
f 725 747 742
f 725 748 747
f 725 750 748
f 725 751 750
f 725 738 736
f 725 739 738
f 725 742 739
f 725 757 751
f 725 758 757
f 725 802 758
f 725 807 806
f 725 811 807
f 725 805 802
f 725 806 805
f 725 820 821
f 725 821 822
f 725 822 826
f 725 825 823
f 725 826 825
f 725 808 811
f 725 843 808
f 725 842 843
f 725 823 842