# https://github.com/mikedh/trimesh
v -0.02490900 -0.00903600 -0.07500000
v -0.02415820 -0.00950780 -0.07500000
v -0.02332120 -0.00980070 -0.07500000
v -0.02553600 -0.00840900 -0.07500000
v -0.02600780 -0.00765810 -0.07500000
v -0.02244000 -0.00990000 -0.07500000
v -0.02630070 -0.00682110 -0.07500000
v -0.02640000 -0.00594000 -0.07500000
v -0.02490900 -0.00903600 0.02500000
v -0.02415820 -0.00950780 0.02500000
v -0.02332120 -0.00980070 0.02500000
v -0.02553600 -0.00840900 0.02500000
v -0.02600780 -0.00765810 0.02500000
v -0.02244000 -0.00990000 0.02500000
v -0.02630070 -0.00682110 0.02500000
v -0.02640000 -0.00594000 0.02500000
v -0.01056000 -0.00990000 0.00000000
v -0.00967880 -0.00980070 0.00000000
v -0.00884180 -0.00950780 0.00000000
v -0.00809100 -0.00903600 0.00000000
v -0.00746390 -0.00840900 0.00000000
v -0.00699210 -0.00765810 0.00000000
v -0.01056000 -0.00990000 0.02500000
v -0.00967880 -0.00980070 0.02500000
v -0.00884180 -0.00950780 0.02500000
v -0.00809100 -0.00903600 0.02500000
v -0.00746390 -0.00840900 0.02500000
v -0.00699210 -0.00765810 0.02500000
v -0.00669930 -0.00682110 0.00000000
v -0.00669930 -0.00682110 0.02500000
v -0.00660000 -0.00594000 0.00000000
v -0.00660000 -0.00594000 0.02500000
v -0.02640000 0.00594000 -0.07500000
v -0.02630070 0.00682120 -0.07500000
v -0.02600780 0.00765820 -0.07500000
v -0.02553600 0.00840910 -0.07500000
v -0.02490900 0.00903610 -0.07500000
v -0.02415820 0.00950790 -0.07500000
v -0.02332120 0.00980080 -0.07500000
v -0.02244000 0.00990000 -0.07500000
v -0.02640000 0.00594000 0.02500000
v -0.02630070 0.00682120 0.02500000
v -0.02600780 0.00765820 0.02500000
v -0.02553600 0.00840910 0.02500000
v -0.02490900 0.00903610 0.02500000
v -0.02415820 0.00950790 0.02500000
v -0.02332120 0.00980080 0.02500000
v -0.02244000 0.00990000 0.02500000
v -0.00669930 0.00682120 0.00000000
v -0.00669930 0.00682120 0.02500000
v -0.01056000 0.00990000 0.00000000
v -0.00699210 0.00765820 0.00000000
v -0.00746390 0.00840910 0.00000000
v -0.00967880 0.00980080 0.00000000
v -0.00884180 0.00950790 0.00000000
v -0.00809100 0.00903610 0.00000000
v -0.01056000 0.00990000 0.02500000
v -0.00699210 0.00765820 0.02500000
v -0.00746390 0.00840910 0.02500000
v -0.00967880 0.00980080 0.02500000
v -0.00884180 0.00950790 0.02500000
v -0.00809100 0.00903610 0.02500000
v -0.00660000 0.00594000 0.00000000
v -0.00660000 0.00594000 0.02500000
v 0.01650000 -0.00990000 -0.07500000
v 0.01843140 -0.00970970 -0.07500000
v 0.02028860 -0.00914640 -0.07500000
v 0.02200020 -0.00823150 -0.07500000
v 0.02350040 -0.00700030 -0.07500000
v 0.02473160 -0.00550010 -0.07500000
v 0.02564640 -0.00378850 -0.07500000
v 0.02620980 -0.00193130 -0.07500000
v 0.01271150 -0.00914640 0.00000000
v 0.01099990 -0.00823150 0.00000000
v 0.01271150 -0.00914640 0.02500000
v 0.01099990 -0.00823150 0.02500000
v 0.00949970 -0.00700030 0.00000000
v 0.00826850 -0.00550010 0.00000000
v 0.00949970 -0.00700030 0.02500000
v 0.00826850 -0.00550010 0.02500000
v 0.00735360 -0.00378850 0.00000000
v 0.00735360 -0.00378850 0.02500000
v 0.00679030 -0.00193130 0.00000000
v 0.00679030 -0.00193130 0.02500000
v 0.01456860 -0.00970970 0.00000000
v 0.01650000 -0.00990000 0.00000000
v 0.01456860 -0.00970970 0.02500000
v 0.01650000 -0.00990000 0.02500000
v 0.01843140 -0.00970970 0.02500000
v 0.02028860 -0.00914640 0.02500000
v 0.02200020 -0.00823150 0.02500000
v 0.02350040 -0.00700030 0.02500000
v 0.02473160 -0.00550010 0.02500000
v 0.02564640 -0.00378850 0.02500000
v 0.02620980 -0.00193130 0.02500000
v 0.02640000 -0.00000000 -0.07500000
v 0.02620980 0.00193140 -0.07500000
v 0.02564640 0.00378860 -0.07500000
v 0.01650000 0.00990000 -0.07500000
v 0.01843140 0.00970980 -0.07500000
v 0.02473160 0.00550020 -0.07500000
v 0.02350040 0.00700040 -0.07500000
v 0.02200020 0.00823160 -0.07500000
v 0.02028860 0.00914650 -0.07500000
v 0.00660000 -0.00000000 0.00000000
v 0.00679030 0.00193140 0.00000000
v 0.00660000 0.00000000 0.02500000
v 0.00679030 0.00193140 0.02500000
v 0.00735360 0.00378860 0.00000000
v 0.00735360 0.00378860 0.02500000
v 0.00826850 0.00550020 0.00000000
v 0.00949970 0.00700040 0.00000000
v 0.00826850 0.00550020 0.02500000
v 0.00949970 0.00700040 0.02500000
v 0.01099990 0.00823160 0.00000000
v 0.01271150 0.00914650 0.00000000
v 0.01099990 0.00823160 0.02500000
v 0.01271150 0.00914650 0.02500000
v 0.02640000 -0.00000000 0.02500000
v 0.02620980 0.00193140 0.02500000
v 0.02564640 0.00378860 0.02500000
v 0.01456860 0.00970980 0.00000000
v 0.01650000 0.00990000 0.00000000
v 0.01456860 0.00970980 0.02500000
v 0.01650000 0.00990000 0.02500000
v 0.01843140 0.00970980 0.02500000
v 0.02473160 0.00550020 0.02500000
v 0.02350040 0.00700040 0.02500000
v 0.02200020 0.00823160 0.02500000
v 0.02028860 0.00914650 0.02500000
f 2 6 3
f 1 6 2
f 1 4 6
f 5 7 6
f 6 7 8
f 4 5 6
f 2 3 10
f 1 2 9
f 1 12 4
f 4 13 5
f 3 6 11
f 5 15 7
f 7 16 8
f 6 8 33
f 6 65 17
f 1 9 12
f 2 10 9
f 3 11 10
f 4 12 13
f 6 14 11
f 5 13 15
f 7 15 16
f 6 17 14
f 17 23 14
f 8 16 41
f 17 18 23
f 18 19 24
f 19 20 25
f 20 21 26
f 21 22 27
f 18 24 23
f 19 25 24
f 20 26 25
f 21 27 26
f 22 28 27
f 22 29 28
f 29 31 30
f 29 30 28
f 31 32 30
f 18 73 19
f 19 74 20
f 17 86 18
f 21 77 22
f 20 74 21
f 22 78 29
f 29 81 31
f 31 63 32
f 6 33 40
f 8 41 33
f 33 34 40
f 34 35 40
f 35 36 37
f 35 37 39
f 35 39 40
f 37 38 39
f 33 42 34
f 34 43 35
f 35 44 36
f 36 45 37
f 37 46 38
f 38 47 39
f 39 48 40
f 6 40 99
f 40 51 99
f 33 41 42
f 34 42 43
f 35 43 44
f 36 44 45
f 37 45 46
f 38 46 47
f 39 47 48
f 40 48 51
f 51 48 57
f 31 105 63
f 63 64 32
f 49 64 63
f 49 52 50
f 49 50 64
f 52 58 50
f 51 60 54
f 52 53 58
f 53 56 59
f 55 62 56
f 54 61 55
f 51 57 60
f 53 59 58
f 54 60 61
f 55 61 62
f 56 62 59
f 49 63 109
f 49 111 52
f 52 112 53
f 53 115 56
f 54 55 122
f 51 54 123
f 55 56 122
f 6 99 65
f 65 67 66
f 65 68 67
f 68 70 69
f 68 71 70
f 65 66 86
f 66 67 89
f 67 68 90
f 68 69 91
f 69 70 92
f 65 101 68
f 68 72 71
f 68 101 72
f 70 71 93
f 71 72 94
f 72 96 95
f 17 65 86
f 18 85 73
f 19 73 74
f 21 74 77
f 29 78 81
f 22 77 78
f 18 86 85
f 73 76 74
f 73 75 76
f 74 76 79
f 77 80 78
f 74 79 77
f 77 79 80
f 31 81 83
f 31 83 105
f 78 82 81
f 81 84 83
f 78 80 82
f 81 82 84
f 83 107 105
f 83 84 107
f 66 89 86
f 67 90 89
f 68 91 90
f 69 92 91
f 70 93 92
f 73 85 75
f 85 86 87
f 85 87 75
f 86 88 87
f 86 89 88
f 71 94 93
f 72 95 94
f 96 119 95
f 65 99 101
f 72 97 96
f 72 101 97
f 97 101 98
f 96 97 119
f 97 98 120
f 98 101 121
f 99 100 103
f 99 103 102
f 99 102 101
f 100 104 103
f 99 123 100
f 100 130 104
f 102 103 128
f 101 102 127
f 103 104 129
f 63 105 106
f 63 106 109
f 105 108 106
f 105 107 108
f 106 110 109
f 109 113 111
f 106 108 110
f 109 110 113
f 51 123 99
f 49 109 111
f 52 111 112
f 53 112 115
f 56 115 116
f 56 116 122
f 111 114 112
f 111 113 114
f 112 114 117
f 54 122 123
f 112 117 115
f 115 118 116
f 115 117 118
f 97 120 119
f 98 121 120
f 101 127 121
f 100 123 126
f 100 126 130
f 102 128 127
f 103 129 128
f 104 130 129
f 116 124 122
f 122 125 123
f 116 118 124
f 122 124 125
f 123 125 126
f 10 11 32
f 11 14 32
f 9 64 12
f 10 64 9
f 12 64 13
f 15 13 64
f 16 15 64
f 14 23 32
f 25 28 24
f 25 26 27
f 23 24 32
f 25 27 28
f 28 30 24
f 32 24 30
f 32 64 10
f 41 16 64
f 41 43 42
f 41 44 43
f 41 45 44
f 41 46 45
f 41 47 46
f 41 48 47
f 41 64 50
f 41 50 58
f 41 58 59
f 41 57 48
f 41 60 57
f 41 61 60
f 41 59 62
f 41 62 61
f 82 80 129
f 88 121 87
f 90 119 89
f 91 95 90
f 89 120 88
f 92 94 91
f 92 93 94
f 75 128 76
f 87 127 75
f 76 129 79
f 79 129 80
f 95 91 94
f 119 90 95
f 89 119 120
f 88 120 121
f 87 121 127
f 82 129 84
f 107 84 129
f 107 129 108
f 108 129 110
f 130 113 110
f 126 114 113
f 114 126 117
f 117 124 118
f 76 128 129
f 75 127 128
f 130 110 129
f 126 113 130
f 117 125 124
f 117 126 125