# https://github.com/mikedh/trimesh
v -0.02490900 -0.00903600 0.05000000
v -0.02415820 -0.00950780 0.05000000
v -0.02332120 -0.00980070 0.05000000
v -0.02553600 -0.00840900 0.05000000
v -0.02600780 -0.00765810 0.05000000
v -0.02244000 -0.00990000 0.05000000
v -0.02630070 -0.00682110 0.05000000
v -0.02640000 -0.00594000 0.05000000
v -0.01056000 -0.00990000 0.05000000
v -0.00967880 -0.00980070 0.05000000
v -0.00884180 -0.00950780 0.05000000
v -0.00809100 -0.00903600 0.05000000
v -0.00746390 -0.00840900 0.05000000
v -0.00699210 -0.00765810 0.05000000
v -0.00669930 -0.00682110 0.05000000
v -0.00660000 -0.00594000 0.05000000
v -0.02490900 -0.00903600 0.07500000
v -0.02415820 -0.00950780 0.07500000
v -0.02332120 -0.00980070 0.07500000
v -0.02553600 -0.00840900 0.07500000
v -0.02600780 -0.00765810 0.07500000
v -0.02244000 -0.00990000 0.07500000
v -0.02630070 -0.00682110 0.07500000
v -0.02640000 -0.00594000 0.07500000
v -0.01056000 -0.00990000 0.07500000
v -0.00967880 -0.00980070 0.07500000
v -0.00884180 -0.00950780 0.07500000
v -0.00809100 -0.00903600 0.07500000
v -0.00746390 -0.00840900 0.07500000
v -0.00699210 -0.00765810 0.07500000
v -0.00669930 -0.00682110 0.07500000
v -0.00660000 -0.00594000 0.07500000
v -0.02640000 0.00594000 0.05000000
v -0.02630070 0.00682120 0.05000000
v -0.02600780 0.00765820 0.05000000
v -0.02553600 0.00840910 0.05000000
v -0.02490900 0.00903610 0.05000000
v -0.02415820 0.00950790 0.05000000
v -0.02332120 0.00980080 0.05000000
v -0.02244000 0.00990000 0.05000000
v -0.00669930 0.00682120 0.05000000
v -0.01056000 0.00990000 0.05000000
v -0.00699210 0.00765820 0.05000000
v -0.00746390 0.00840910 0.05000000
v -0.00967880 0.00980080 0.05000000
v -0.00884180 0.00950790 0.05000000
v -0.00809100 0.00903610 0.05000000
v -0.00660000 0.00594000 0.05000000
v -0.02640000 0.00594000 0.07500000
v -0.02630070 0.00682120 0.07500000
v -0.02600780 0.00765820 0.07500000
v -0.02553600 0.00840910 0.07500000
v -0.02490900 0.00903610 0.07500000
v -0.02415820 0.00950790 0.07500000
v -0.02332120 0.00980080 0.07500000
v -0.02244000 0.00990000 0.07500000
v -0.00669930 0.00682120 0.07500000
v -0.01056000 0.00990000 0.07500000
v -0.00699210 0.00765820 0.07500000
v -0.00746390 0.00840910 0.07500000
v -0.00967880 0.00980080 0.07500000
v -0.00884180 0.00950790 0.07500000
v -0.00809100 0.00903610 0.07500000
v -0.00660000 0.00594000 0.07500000
v 0.01271150 -0.00914640 0.05000000
v 0.01099990 -0.00823150 0.05000000
v 0.00949970 -0.00700030 0.05000000
v 0.00826850 -0.00550010 0.05000000
v 0.00735360 -0.00378850 0.05000000
v 0.00679030 -0.00193130 0.05000000
v 0.01456860 -0.00970970 0.05000000
v 0.01650000 -0.00990000 0.05000000
v 0.01843140 -0.00970970 0.05000000
v 0.02028860 -0.00914640 0.05000000
v 0.02200020 -0.00823150 0.05000000
v 0.02350040 -0.00700030 0.05000000
v 0.02473160 -0.00550010 0.05000000
v 0.02564640 -0.00378850 0.05000000
v 0.02620980 -0.00193130 0.05000000
v 0.01271150 -0.00914640 0.07500000
v 0.01099990 -0.00823150 0.07500000
v 0.00949970 -0.00700030 0.07500000
v 0.00826850 -0.00550010 0.07500000
v 0.00735360 -0.00378850 0.07500000
v 0.00679030 -0.00193130 0.07500000
v 0.01456860 -0.00970970 0.07500000
v 0.01650000 -0.00990000 0.07500000
v 0.01843140 -0.00970970 0.07500000
v 0.02028860 -0.00914640 0.07500000
v 0.02200020 -0.00823150 0.07500000
v 0.02350040 -0.00700030 0.07500000
v 0.02473160 -0.00550010 0.07500000
v 0.02564640 -0.00378850 0.07500000
v 0.02620980 -0.00193130 0.07500000
v 0.00660000 -0.00000000 0.05000000
v 0.00679030 0.00193140 0.05000000
v 0.00735360 0.00378860 0.05000000
v 0.00826850 0.00550020 0.05000000
v 0.00949970 0.00700040 0.05000000
v 0.01099990 0.00823160 0.05000000
v 0.01271150 0.00914650 0.05000000
v 0.02640000 -0.00000000 0.05000000
v 0.02620980 0.00193140 0.05000000
v 0.02564640 0.00378860 0.05000000
v 0.01456860 0.00970980 0.05000000
v 0.01650000 0.00990000 0.05000000
v 0.01843140 0.00970980 0.05000000
v 0.02473160 0.00550020 0.05000000
v 0.02350040 0.00700040 0.05000000
v 0.02200020 0.00823160 0.05000000
v 0.02028860 0.00914650 0.05000000
v 0.00660000 -0.00000000 0.07500000
v 0.00679030 0.00193140 0.07500000
v 0.00735360 0.00378860 0.07500000
v 0.00826850 0.00550020 0.07500000
v 0.00949970 0.00700040 0.07500000
v 0.01099990 0.00823160 0.07500000
v 0.01271150 0.00914650 0.07500000
v 0.02640000 -0.00000000 0.07500000
v 0.02620980 0.00193140 0.07500000
v 0.02564640 0.00378860 0.07500000
v 0.01456860 0.00970980 0.07500000
v 0.01650000 0.00990000 0.07500000
v 0.01843140 0.00970980 0.07500000
v 0.02473160 0.00550020 0.07500000
v 0.02350040 0.00700040 0.07500000
v 0.02200020 0.00823160 0.07500000
v 0.02028860 0.00914650 0.07500000
f 18 2 3
f 17 1 2
f 20 4 1
f 21 5 4
f 19 3 6
f 23 7 5
f 24 8 7
f 22 6 9
f 25 9 10
f 26 10 11
f 27 11 12
f 28 12 13
f 29 13 14
f 30 14 15
f 31 15 16
f 32 16 48
f 17 20 1
f 17 2 18
f 18 3 19
f 20 21 4
f 19 6 22
f 21 23 5
f 23 24 7
f 22 9 25
f 18 19 22
f 17 18 22
f 17 22 20
f 21 22 23
f 22 24 23
f 20 22 21
f 24 49 8
f 22 49 24
f 22 32 56
f 25 10 26
f 26 11 27
f 27 12 28
f 28 13 29
f 29 14 30
f 30 15 31
f 31 16 32
f 22 25 32
f 26 27 29
f 27 28 29
f 25 26 32
f 26 29 32
f 29 30 32
f 30 31 32
f 49 33 8
f 50 34 33
f 51 35 34
f 52 36 35
f 53 37 36
f 54 38 37
f 55 39 38
f 56 40 39
f 58 42 40
f 64 48 41
f 57 41 43
f 61 45 42
f 59 43 44
f 60 44 47
f 63 47 46
f 62 46 45
f 22 56 49
f 49 50 33
f 50 51 34
f 51 52 35
f 52 53 36
f 53 54 37
f 54 55 38
f 55 56 39
f 56 58 40
f 50 53 51
f 49 56 50
f 51 53 52
f 50 56 53
f 53 55 54
f 53 56 55
f 32 48 64
f 32 58 56
f 32 64 58
f 57 64 41
f 57 43 59
f 58 61 42
f 59 44 60
f 61 62 45
f 62 63 46
f 60 47 63
f 58 64 61
f 57 61 64
f 57 59 60
f 57 60 61
f 60 62 61
f 60 63 62
f 81 66 65
f 83 68 67
f 82 67 66
f 84 69 68
f 85 70 69
f 112 95 70
f 80 65 71
f 86 71 72
f 87 72 73
f 88 73 74
f 89 74 75
f 90 75 76
f 91 76 77
f 92 77 78
f 93 78 79
f 94 79 102
f 80 81 65
f 81 82 66
f 82 83 67
f 80 87 82
f 80 82 81
f 83 84 68
f 84 85 69
f 85 112 70
f 82 85 83
f 83 85 84
f 82 115 85
f 80 71 86
f 86 72 87
f 87 73 88
f 88 74 89
f 89 75 90
f 90 76 91
f 91 77 92
f 80 86 87
f 82 87 88
f 82 88 89
f 89 90 91
f 92 78 93
f 93 79 94
f 94 102 119
f 82 89 123
f 91 92 119
f 92 93 119
f 89 91 123
f 93 94 119
f 91 119 120
f 91 120 121
f 113 96 95
f 114 97 96
f 115 98 97
f 116 99 98
f 117 100 99
f 118 101 100
f 119 102 103
f 120 103 104
f 121 104 108
f 122 105 101
f 123 106 105
f 124 107 106
f 128 111 107
f 126 109 110
f 125 108 109
f 127 110 111
f 112 113 95
f 113 114 96
f 114 115 97
f 85 115 112
f 82 116 115
f 112 115 113
f 113 115 114
f 82 117 116
f 82 123 117
f 115 116 98
f 116 117 99
f 117 118 100
f 119 103 120
f 120 104 121
f 121 108 125
f 91 121 126
f 91 126 127
f 91 127 128
f 91 128 123
f 118 122 101
f 122 123 105
f 123 124 106
f 124 128 107
f 125 109 126
f 126 110 127
f 127 111 128
f 117 123 118
f 118 123 122
f 123 128 124
f 121 125 126
f 5 1 4
f 1 7 2
f 5 7 1
f 2 8 3
f 6 3 8
f 7 8 2
f 8 9 6
f 8 33 9
f 9 33 10
f 10 33 11
f 11 33 12
f 12 33 13
f 13 33 14
f 14 33 15
f 15 33 16
f 16 33 34
f 16 34 35
f 16 35 36
f 16 36 37
f 16 37 38
f 39 48 38
f 39 40 48
f 16 38 48
f 48 46 41
f 40 42 48
f 48 42 45
f 48 45 46
f 41 46 43
f 43 46 44
f 44 46 47
f 68 69 75
f 70 75 69
f 70 95 75
f 96 75 95
f 97 75 96
f 65 72 71
f 66 74 65
f 65 73 72
f 67 75 66
f 65 74 73
f 74 66 75
f 67 68 75
f 75 107 76
f 76 107 77
f 97 98 75
f 99 75 98
f 100 75 99
f 75 100 101
f 75 101 105
f 75 105 106
f 75 106 107
f 77 107 78
f 78 107 79
f 79 107 102
f 102 107 103
f 103 110 104
f 103 111 110
f 111 103 107
f 104 110 108
f 108 110 109