# https://github.com/mikedh/trimesh
v -0.01907570 -0.01233170 -0.07500000
v -0.01953170 -0.01187570 -0.07500000
v -0.01852960 -0.01267480 -0.07500000
v -0.01792090 -0.01288780 -0.07500000
v -0.01987480 -0.01132960 -0.07500000
v -0.02008780 -0.01072090 -0.07500000
v -0.02016000 -0.01008000 -0.07500000
v -0.01728000 -0.01296000 -0.07500000
v -0.01907570 -0.01233170 0.02500000
v -0.01953170 -0.01187570 0.02500000
v -0.01852960 -0.01267480 0.02500000
v -0.01792090 -0.01288780 0.02500000
v -0.01987480 -0.01132960 0.02500000
v -0.02008780 -0.01072090 0.02500000
v -0.02016000 -0.01008000 0.02500000
v -0.01728000 -0.01296000 0.02500000
v -0.02016000 0.01008000 -0.07500000
v -0.02008780 0.01072090 -0.07500000
v -0.01987480 0.01132960 -0.07500000
v -0.01953170 0.01187570 -0.07500000
v -0.01907570 0.01233170 -0.07500000
v -0.01852960 0.01267480 -0.07500000
v -0.01792090 0.01288780 -0.07500000
v -0.01728000 0.01296000 -0.07500000
v -0.02016000 0.01008000 0.02500000
v -0.02008780 0.01072090 0.02500000
v -0.01987480 0.01132960 0.02500000
v -0.01953170 0.01187570 0.02500000
v -0.01907570 0.01233170 0.02500000
v -0.01852960 0.01267480 0.02500000
v -0.01792090 0.01288780 0.02500000
v -0.01728000 0.01296000 0.02500000
v 0.01728000 -0.01296000 -0.07500000
v 0.01792090 -0.01288780 -0.07500000
v 0.01852960 -0.01267480 -0.07500000
v 0.01907570 -0.01233170 -0.07500000
v 0.01953170 -0.01187570 -0.07500000
v 0.01987480 -0.01132960 -0.07500000
v 0.02008780 -0.01072090 -0.07500000
v 0.02016000 -0.01008000 -0.07500000
v 0.01728000 -0.01296000 0.02500000
v 0.01792090 -0.01288780 0.02500000
v 0.01852960 -0.01267480 0.02500000
v 0.01907570 -0.01233170 0.02500000
v 0.01953170 -0.01187570 0.02500000
v 0.01987480 -0.01132960 0.02500000
v 0.02008780 -0.01072090 0.02500000
v 0.02016000 -0.01008000 0.02500000
v 0.01728000 0.01296000 -0.07500000
v 0.02016000 0.01008000 -0.07500000
v 0.02008780 0.01072090 -0.07500000
v 0.01987480 0.01132960 -0.07500000
v 0.01792090 0.01288780 -0.07500000
v 0.01852960 0.01267480 -0.07500000
v 0.01953170 0.01187570 -0.07500000
v 0.01907570 0.01233170 -0.07500000
v 0.01728000 0.01296000 0.02500000
v 0.02016000 0.01008000 0.02500000
v 0.02008780 0.01072090 0.02500000
v 0.01987480 0.01132960 0.02500000
v 0.01792090 0.01288780 0.02500000
v 0.01852960 0.01267480 0.02500000
v 0.01953170 0.01187570 0.02500000
v 0.01907570 0.01233170 0.02500000
f 1 2 3
f 2 7 3
f 3 8 4
f 3 7 8
f 2 5 6
f 2 6 7
f 2 13 5
f 1 10 2
f 3 4 11
f 1 3 9
f 4 8 12
f 5 14 6
f 6 15 7
f 7 17 8
f 8 33 16
f 1 9 10
f 2 10 13
f 3 11 9
f 4 12 11
f 5 13 14
f 6 14 15
f 8 16 12
f 7 15 25
f 8 17 24
f 7 25 17
f 17 18 20
f 18 19 20
f 17 20 23
f 20 21 22
f 17 23 24
f 20 22 23
f 17 26 18
f 18 27 19
f 19 28 20
f 20 29 21
f 21 30 22
f 22 31 23
f 23 32 24
f 8 24 49
f 17 25 26
f 18 26 27
f 19 27 28
f 20 28 29
f 21 29 30
f 22 30 31
f 23 31 32
f 24 32 57
f 8 49 33
f 33 37 34
f 34 37 35
f 35 37 36
f 33 39 37
f 33 40 39
f 37 39 38
f 33 34 41
f 34 35 42
f 35 36 43
f 36 37 44
f 37 38 45
f 38 39 46
f 39 40 47
f 33 49 40
f 40 50 48
f 33 41 16
f 34 42 41
f 35 43 42
f 36 44 43
f 37 45 44
f 38 46 45
f 39 47 46
f 40 48 47
f 24 57 49
f 40 49 50
f 50 52 51
f 50 56 52
f 49 56 50
f 49 53 54
f 49 54 56
f 52 56 55
f 50 51 58
f 51 52 59
f 49 61 53
f 54 64 56
f 53 62 54
f 55 56 63
f 52 55 60
f 50 58 48
f 49 57 61
f 51 59 58
f 52 60 59
f 53 61 62
f 54 62 64
f 55 63 60
f 56 64 63
f 9 57 10
f 10 57 13
f 11 64 9
f 12 64 11
f 12 16 64
f 14 13 57
f 14 57 15
f 15 57 25
f 26 25 57
f 27 26 57
f 27 57 28
f 28 57 29
f 29 57 30
f 30 57 31
f 31 57 32
f 42 16 41
f 43 16 42
f 44 16 43
f 45 16 44
f 46 16 45
f 46 47 16
f 47 48 16
f 16 48 58
f 16 58 59
f 16 59 60
f 61 57 9
f 61 9 62
f 62 9 64
f 16 60 63
f 16 63 64