# https://github.com/mikedh/trimesh
v -0.01907570 -0.01233170 0.02500000
v -0.01953170 -0.01187570 0.02500000
v -0.01852960 -0.01267480 0.02500000
v -0.01792090 -0.01288780 0.02500000
v -0.01987480 -0.01132960 0.02500000
v -0.02008780 -0.01072090 0.02500000
v -0.02016000 -0.01008000 0.02500000
v -0.01728000 -0.01296000 0.02500000
v -0.01907570 -0.01233170 0.07500000
v -0.01953170 -0.01187570 0.07500000
v -0.01852960 -0.01267480 0.07500000
v -0.01792090 -0.01288780 0.07500000
v -0.01987480 -0.01132960 0.07500000
v -0.02008780 -0.01072090 0.07500000
v -0.02016000 -0.01008000 0.07500000
v -0.01728000 -0.01296000 0.07500000
v -0.02016000 0.01008000 0.02500000
v -0.02008780 0.01072090 0.02500000
v -0.01987480 0.01132960 0.02500000
v -0.01953170 0.01187570 0.02500000
v -0.01907570 0.01233170 0.02500000
v -0.01852960 0.01267480 0.02500000
v -0.01792090 0.01288780 0.02500000
v -0.01728000 0.01296000 0.02500000
v -0.02016000 0.01008000 0.07500000
v -0.02008780 0.01072090 0.07500000
v -0.01987480 0.01132960 0.07500000
v -0.01953170 0.01187570 0.07500000
v -0.01907570 0.01233170 0.07500000
v -0.01852960 0.01267480 0.07500000
v -0.01792090 0.01288780 0.07500000
v -0.01728000 0.01296000 0.07500000
v 0.01728000 -0.01296000 0.02500000
v 0.01792090 -0.01288780 0.02500000
v 0.01852960 -0.01267480 0.02500000
v 0.01907570 -0.01233170 0.02500000
v 0.01953170 -0.01187570 0.02500000
v 0.01987480 -0.01132960 0.02500000
v 0.02008780 -0.01072090 0.02500000
v 0.02016000 -0.01008000 0.02500000
v 0.01728000 -0.01296000 0.07500000
v 0.01792090 -0.01288780 0.07500000
v 0.01852960 -0.01267480 0.07500000
v 0.01907570 -0.01233170 0.07500000
v 0.01953170 -0.01187570 0.07500000
v 0.01987480 -0.01132960 0.07500000
v 0.02008780 -0.01072090 0.07500000
v 0.02016000 -0.01008000 0.07500000
v 0.01728000 0.01296000 0.02500000
v 0.02016000 0.01008000 0.02500000
v 0.02008780 0.01072090 0.02500000
v 0.01987480 0.01132960 0.02500000
v 0.01792090 0.01288780 0.02500000
v 0.01852960 0.01267480 0.02500000
v 0.01953170 0.01187570 0.02500000
v 0.01907570 0.01233170 0.02500000
v 0.01728000 0.01296000 0.07500000
v 0.02016000 0.01008000 0.07500000
v 0.02008780 0.01072090 0.07500000
v 0.01987480 0.01132960 0.07500000
v 0.01792090 0.01288780 0.07500000
v 0.01852960 0.01267480 0.07500000
v 0.01953170 0.01187570 0.07500000
v 0.01907570 0.01233170 0.07500000
f 13 5 2
f 10 2 1
f 11 3 4
f 9 1 3
f 12 4 8
f 14 6 5
f 15 7 6
f 16 8 33
f 9 10 1
f 10 13 2
f 9 3 11
f 11 4 12
f 13 14 5
f 14 15 6
f 12 8 16
f 9 11 10
f 10 11 15
f 11 12 16
f 11 16 15
f 10 14 13
f 10 15 14
f 15 25 7
f 15 16 25
f 25 17 7
f 26 18 17
f 27 19 18
f 28 20 19
f 29 21 20
f 30 22 21
f 31 23 22
f 32 24 23
f 16 32 25
f 25 26 17
f 26 27 18
f 27 28 19
f 28 29 20
f 29 30 21
f 30 31 22
f 31 32 23
f 25 27 26
f 25 28 27
f 25 31 28
f 28 30 29
f 25 32 31
f 28 31 30
f 16 57 32
f 32 57 24
f 41 33 34
f 42 34 35
f 43 35 36
f 44 36 37
f 45 37 38
f 46 38 39
f 47 39 40
f 48 40 50
f 16 33 41
f 16 41 57
f 41 34 42
f 42 35 43
f 43 36 44
f 44 37 45
f 45 38 46
f 46 39 47
f 47 40 48
f 41 42 43
f 41 43 46
f 43 44 46
f 44 45 46
f 41 46 47
f 41 47 48
f 41 48 57
f 57 49 24
f 58 50 51
f 59 51 52
f 61 53 49
f 64 56 54
f 62 54 53
f 63 55 56
f 60 52 55
f 48 50 58
f 48 58 57
f 57 61 49
f 58 51 59
f 59 52 60
f 61 62 53
f 62 64 54
f 60 55 63
f 63 56 64
f 57 58 59
f 59 60 63
f 57 59 64
f 57 64 61
f 61 64 62
f 59 63 64
f 2 7 1
f 1 7 3
f 3 7 4
f 4 7 8
f 2 5 7
f 5 6 7
f 8 7 33
f 7 17 33
f 17 18 33
f 18 19 33
f 20 33 19
f 21 33 20
f 22 36 21
f 23 36 22
f 23 24 36
f 21 34 33
f 21 35 34
f 21 36 35
f 24 37 36
f 37 24 38
f 38 24 39
f 40 39 24
f 40 24 50
f 24 49 50
f 51 50 52
f 52 50 55
f 49 53 50
f 50 53 54
f 54 56 50
f 56 55 50